solid OpenSCAD_Model
  facet normal 0.923879 0.382684 0
    outer loop
      vertex 4.80785 1.45845 7
      vertex 4.43094 2.36839 -3
      vertex 4.43094 2.36839 7
    endloop
  endfacet
  facet normal 0.923879 0.382684 0
    outer loop
      vertex 4.43094 2.36839 -3
      vertex 4.80785 1.45845 7
      vertex 4.80785 1.45845 -3
    endloop
  endfacet
  facet normal -1 0 0
    outer loop
      vertex -12.15 -0.310247 -3
      vertex -12.15 0.310247 3
      vertex -12.15 0.310247 -3
    endloop
  endfacet
  facet normal -1 -0 0
    outer loop
      vertex -12.15 0.310247 3
      vertex -12.15 -0.310247 -3
      vertex -12.15 -0.310247 3
    endloop
  endfacet
  facet normal 0 1 -0
    outer loop
      vertex 0.492456 5 -3
      vertex -0.492456 5 0.299999
      vertex 0.492456 5 0.299999
    endloop
  endfacet
  facet normal 0 1 0
    outer loop
      vertex -0.492456 5 0.299999
      vertex 0.492456 5 -3
      vertex -0.492456 5 -3
    endloop
  endfacet
  facet normal 0 1 -0
    outer loop
      vertex 0.492456 5 3
      vertex -0.492456 5 7
      vertex 0.492456 5 7
    endloop
  endfacet
  facet normal 0 1 0
    outer loop
      vertex -0.492456 5 7
      vertex 0.492456 5 3
      vertex -0.492456 5 3
    endloop
  endfacet
  facet normal 0.980785 -0.195089 0
    outer loop
      vertex 4.80785 -1.45845 7
      vertex 5 -0.492456 -3
      vertex 5 -0.492456 7
    endloop
  endfacet
  facet normal 0.980785 -0.195089 0
    outer loop
      vertex 5 -0.492456 -3
      vertex 4.80785 -1.45845 7
      vertex 4.80785 -1.45845 -3
    endloop
  endfacet
  facet normal 0.707107 0.707107 0
    outer loop
      vertex 3.88375 3.18731 7
      vertex 3.18731 3.88375 -3
      vertex 3.18731 3.88375 7
    endloop
  endfacet
  facet normal 0.707107 0.707107 0
    outer loop
      vertex 3.18731 3.88375 -3
      vertex 3.88375 3.18731 7
      vertex 3.88375 3.18731 -3
    endloop
  endfacet
  facet normal -0.382683 0.92388 0
    outer loop
      vertex -9.91882 3.02895 -3
      vertex -10.4921 2.79149 3
      vertex -9.91882 3.02895 3
    endloop
  endfacet
  facet normal -0.382683 0.92388 0
    outer loop
      vertex -10.4921 2.79149 3
      vertex -9.91882 3.02895 -3
      vertex -10.4921 2.79149 -3
    endloop
  endfacet
  facet normal -0.205764 -0.978602 -0
    outer loop
      vertex -9.91882 -3.02895 3
      vertex -9.91882 -3.02895 -3
      vertex -4.65124 -4.13652 3
    endloop
  endfacet
  facet normal -0.205764 -0.978602 0
    outer loop
      vertex -4.65124 -4.13652 3
      vertex -1.45845 -4.80785 7
      vertex -4.65124 -4.13652 7
    endloop
  endfacet
  facet normal -0.205764 -0.978602 0
    outer loop
      vertex -4.65124 -4.13652 3
      vertex -1.45845 -4.80785 -3
      vertex -1.45845 -4.80785 7
    endloop
  endfacet
  facet normal -0.205764 -0.978602 -4.92295e-09
    outer loop
      vertex -1.45845 -4.80785 -3
      vertex -4.65124 -4.13652 3
      vertex -9.91882 -3.02895 -3
    endloop
  endfacet
  facet normal -9.68283e-07 -1 0
    outer loop
      vertex -0.492456 -5 -3
      vertex 0.492456 -5 7
      vertex -0.492456 -5 7
    endloop
  endfacet
  facet normal -9.68283e-07 -1 -0
    outer loop
      vertex 0.492456 -5 7
      vertex -0.492456 -5 -3
      vertex 0.492456 -5 -3
    endloop
  endfacet
  facet normal 0 0 -1
    outer loop
      vertex 2.6 -0.517172 -3
      vertex 5 -0.492456 -3
      vertex 4.80785 -1.45845 -3
    endloop
  endfacet
  facet normal -0 0 -1
    outer loop
      vertex 5 -0.492456 -3
      vertex 2.6 -0.517172 -3
      vertex 5 0.492456 -3
    endloop
  endfacet
  facet normal 0 0 -1
    outer loop
      vertex 2.6 -0.517172 -3
      vertex 4.80785 -1.45845 -3
      vertex 4.43094 -2.36839 -3
    endloop
  endfacet
  facet normal 0 0 -1
    outer loop
      vertex 2.6 0.517172 -3
      vertex 5 0.492456 -3
      vertex 2.6 -0.517172 -3
    endloop
  endfacet
  facet normal 0 0 -1
    outer loop
      vertex 2.20417 -1.47278 -3
      vertex 4.43094 -2.36839 -3
      vertex 3.88375 -3.18731 -3
    endloop
  endfacet
  facet normal 0 0 -1
    outer loop
      vertex 5 0.492456 -3
      vertex 2.6 0.517172 -3
      vertex 4.80785 1.45845 -3
    endloop
  endfacet
  facet normal 0 0 -1
    outer loop
      vertex 2.07695 -1.6 -3
      vertex 3.88375 -3.18731 -3
      vertex 3.18731 -3.88375 -3
    endloop
  endfacet
  facet normal -0 0 -1
    outer loop
      vertex 4.80785 1.45845 -3
      vertex 2.6 0.517172 -3
      vertex 4.43094 2.36839 -3
    endloop
  endfacet
  facet normal 0 0 -1
    outer loop
      vertex 2.20417 1.47278 -3
      vertex 4.43094 2.36839 -3
      vertex 2.6 0.517172 -3
    endloop
  endfacet
  facet normal 0 0 -1
    outer loop
      vertex 2.07695 -1.6 -3
      vertex 3.18731 -3.88375 -3
      vertex 2.36839 -4.43094 -3
    endloop
  endfacet
  facet normal 0 0 -1
    outer loop
      vertex 4.43094 -2.36839 -3
      vertex 2.20417 -1.47278 -3
      vertex 2.6 -0.517172 -3
    endloop
  endfacet
  facet normal 0 0 -1
    outer loop
      vertex 3.88375 -3.18731 -3
      vertex 2.07695 -1.6 -3
      vertex 2.20417 -1.47278 -3
    endloop
  endfacet
  facet normal 0 0 -1
    outer loop
      vertex 1.45845 -4.80785 -3
      vertex 2.07695 -1.6 -3
      vertex 2.36839 -4.43094 -3
    endloop
  endfacet
  facet normal 0 0 -1
    outer loop
      vertex 0.492456 -5 -3
      vertex 2.07695 -1.6 -3
      vertex 1.45845 -4.80785 -3
    endloop
  endfacet
  facet normal 0 0 -1
    outer loop
      vertex -0.492456 -5 -3
      vertex 2.07695 -1.6 -3
      vertex 0.492456 -5 -3
    endloop
  endfacet
  facet normal 0 0 -1
    outer loop
      vertex -2.07695 -1.6 -3
      vertex -0.492456 -5 -3
      vertex -1.45845 -4.80785 -3
    endloop
  endfacet
  facet normal 0 0 -1
    outer loop
      vertex -0.492456 -5 -3
      vertex -2.07695 -1.6 -3
      vertex 2.07695 -1.6 -3
    endloop
  endfacet
  facet normal 0 0 -1
    outer loop
      vertex -1.45845 -4.80785 -3
      vertex -2.20417 -1.47278 -3
      vertex -2.07695 -1.6 -3
    endloop
  endfacet
  facet normal 0 0 -1
    outer loop
      vertex -8.01173 -0.988268 -3
      vertex -2.20417 -1.47278 -3
      vertex -1.45845 -4.80785 -3
    endloop
  endfacet
  facet normal 0 0 -1
    outer loop
      vertex -2.6 -0.517172 -3
      vertex -7.65 -0.361731 -3
      vertex -2.6 0.517172 -3
    endloop
  endfacet
  facet normal 0 -0 -1
    outer loop
      vertex -7.65 -0.361731 -3
      vertex -2.20417 -1.47278 -3
      vertex -8.01173 -0.988268 -3
    endloop
  endfacet
  facet normal 0 0 -1
    outer loop
      vertex -2.20417 -1.47278 -3
      vertex -7.65 -0.361731 -3
      vertex -2.6 -0.517172 -3
    endloop
  endfacet
  facet normal 0 0 -1
    outer loop
      vertex -9.91882 -3.02895 -3
      vertex -8.01173 -0.988268 -3
      vertex -1.45845 -4.80785 -3
    endloop
  endfacet
  facet normal 0 0 -1
    outer loop
      vertex -8.01173 -0.988268 -3
      vertex -9.91882 -3.02895 -3
      vertex -8.63827 -1.35 -3
    endloop
  endfacet
  facet normal -0 0 -1
    outer loop
      vertex -8.63827 -1.35 -3
      vertex -9.91882 -3.02895 -3
      vertex -9.36173 -1.35 -3
    endloop
  endfacet
  facet normal 0 0 -1
    outer loop
      vertex -10.4921 -2.79149 -3
      vertex -9.36173 -1.35 -3
      vertex -9.91882 -3.02895 -3
    endloop
  endfacet
  facet normal -0 0 -1
    outer loop
      vertex -9.36173 -1.35 -3
      vertex -10.4921 -2.79149 -3
      vertex -9.98827 -0.988268 -3
    endloop
  endfacet
  facet normal 0 0 -1
    outer loop
      vertex -11.4468 -2.00801 -3
      vertex -9.98827 -0.988268 -3
      vertex -11.008 -2.44676 -3
    endloop
  endfacet
  facet normal 0 0 -1
    outer loop
      vertex -11.008 -2.44676 -3
      vertex -9.98827 -0.988268 -3
      vertex -10.4921 -2.79149 -3
    endloop
  endfacet
  facet normal -0 0 -1
    outer loop
      vertex 4.43094 2.36839 -3
      vertex 2.20417 1.47278 -3
      vertex 3.88375 3.18731 -3
    endloop
  endfacet
  facet normal 0 0 -1
    outer loop
      vertex 2.07695 1.6 -3
      vertex 3.88375 3.18731 -3
      vertex 2.20417 1.47278 -3
    endloop
  endfacet
  facet normal -0 0 -1
    outer loop
      vertex 3.88375 3.18731 -3
      vertex 2.07695 1.6 -3
      vertex 3.18731 3.88375 -3
    endloop
  endfacet
  facet normal -0 0 -1
    outer loop
      vertex 3.18731 3.88375 -3
      vertex 2.07695 1.6 -3
      vertex 2.36839 4.43094 -3
    endloop
  endfacet
  facet normal 0 0 -1
    outer loop
      vertex 2.07695 1.6 -3
      vertex 1.45845 4.80785 -3
      vertex 2.36839 4.43094 -3
    endloop
  endfacet
  facet normal 0 0 -1
    outer loop
      vertex 2.07695 1.6 -3
      vertex 0.492456 5 -3
      vertex 1.45845 4.80785 -3
    endloop
  endfacet
  facet normal 0 0 -1
    outer loop
      vertex 2.07695 1.6 -3
      vertex -0.492456 5 -3
      vertex 0.492456 5 -3
    endloop
  endfacet
  facet normal 0 0 -1
    outer loop
      vertex -2.07695 1.6 -3
      vertex -0.492456 5 -3
      vertex 2.07695 1.6 -3
    endloop
  endfacet
  facet normal 0 0 -1
    outer loop
      vertex -0.492456 5 -3
      vertex -2.07695 1.6 -3
      vertex -1.45845 4.80785 -3
    endloop
  endfacet
  facet normal 0 0 -1
    outer loop
      vertex -2.20417 1.47278 -3
      vertex -1.45845 4.80785 -3
      vertex -2.07695 1.6 -3
    endloop
  endfacet
  facet normal 0 0 -1
    outer loop
      vertex -7.65 0.361731 -3
      vertex -2.20417 1.47278 -3
      vertex -2.6 0.517172 -3
    endloop
  endfacet
  facet normal 0 0 -1
    outer loop
      vertex -7.65 0.361731 -3
      vertex -2.6 0.517172 -3
      vertex -7.65 -0.361731 -3
    endloop
  endfacet
  facet normal 0 0 -1
    outer loop
      vertex -2.20417 1.47278 -3
      vertex -7.65 0.361731 -3
      vertex -8.01173 0.988268 -3
    endloop
  endfacet
  facet normal -0 0 -1
    outer loop
      vertex -2.20417 1.47278 -3
      vertex -8.01173 0.988268 -3
      vertex -1.45845 4.80785 -3
    endloop
  endfacet
  facet normal 0 0 -1
    outer loop
      vertex -9.91882 3.02895 -3
      vertex -8.01173 0.988268 -3
      vertex -8.63827 1.35 -3
    endloop
  endfacet
  facet normal 0 0 -1
    outer loop
      vertex -9.91882 3.02895 -3
      vertex -8.63827 1.35 -3
      vertex -9.36173 1.35 -3
    endloop
  endfacet
  facet normal 0 0 -1
    outer loop
      vertex -8.01173 0.988268 -3
      vertex -9.91882 3.02895 -3
      vertex -1.45845 4.80785 -3
    endloop
  endfacet
  facet normal 0 0 -1
    outer loop
      vertex -10.4921 2.79149 -3
      vertex -9.36173 1.35 -3
      vertex -9.98827 0.988268 -3
    endloop
  endfacet
  facet normal 0 0 -1
    outer loop
      vertex -11.7915 1.49208 -3
      vertex -9.98827 0.988268 -3
      vertex -10.35 0.361731 -3
    endloop
  endfacet
  facet normal 0 0 -1
    outer loop
      vertex -9.36173 1.35 -3
      vertex -10.4921 2.79149 -3
      vertex -9.91882 3.02895 -3
    endloop
  endfacet
  facet normal 0 0 -1
    outer loop
      vertex -11.7915 -1.49208 -3
      vertex -9.98827 -0.988268 -3
      vertex -11.4468 -2.00801 -3
    endloop
  endfacet
  facet normal -0 0 -1
    outer loop
      vertex -9.98827 -0.988268 -3
      vertex -11.7915 -1.49208 -3
      vertex -10.35 -0.361731 -3
    endloop
  endfacet
  facet normal 0 0 -1
    outer loop
      vertex -9.98827 0.988268 -3
      vertex -11.008 2.44676 -3
      vertex -10.4921 2.79149 -3
    endloop
  endfacet
  facet normal 0 0 -1
    outer loop
      vertex -12.0289 -0.91882 -3
      vertex -10.35 -0.361731 -3
      vertex -11.7915 -1.49208 -3
    endloop
  endfacet
  facet normal 0 0 -1
    outer loop
      vertex -9.98827 0.988268 -3
      vertex -11.4468 2.00801 -3
      vertex -11.008 2.44676 -3
    endloop
  endfacet
  facet normal 0 0 -1
    outer loop
      vertex -12.15 -0.310247 -3
      vertex -10.35 -0.361731 -3
      vertex -12.0289 -0.91882 -3
    endloop
  endfacet
  facet normal 0 0 -1
    outer loop
      vertex -9.98827 0.988268 -3
      vertex -11.7915 1.49208 -3
      vertex -11.4468 2.00801 -3
    endloop
  endfacet
  facet normal 0 0 -1
    outer loop
      vertex -10.35 -0.361731 -3
      vertex -12.15 -0.310247 -3
      vertex -10.35 0.361731 -3
    endloop
  endfacet
  facet normal 0 0 -1
    outer loop
      vertex -10.35 0.361731 -3
      vertex -12.0289 0.91882 -3
      vertex -11.7915 1.49208 -3
    endloop
  endfacet
  facet normal 0 0 -1
    outer loop
      vertex -12.15 0.310247 -3
      vertex -10.35 0.361731 -3
      vertex -12.15 -0.310247 -3
    endloop
  endfacet
  facet normal -0 0 -1
    outer loop
      vertex -10.35 0.361731 -3
      vertex -12.15 0.310247 -3
      vertex -12.0289 0.91882 -3
    endloop
  endfacet
  facet normal 0.55557 -0.83147 0
    outer loop
      vertex 2.36839 -4.43094 -3
      vertex 3.18731 -3.88375 7
      vertex 2.36839 -4.43094 7
    endloop
  endfacet
  facet normal 0.55557 -0.83147 0
    outer loop
      vertex 3.18731 -3.88375 7
      vertex 2.36839 -4.43094 -3
      vertex 3.18731 -3.88375 -3
    endloop
  endfacet
  facet normal 0.19509 -0.980785 0
    outer loop
      vertex 0.492456 -5 -3
      vertex 1.45845 -4.80785 7
      vertex 0.492456 -5 7
    endloop
  endfacet
  facet normal 0.19509 -0.980785 0
    outer loop
      vertex 1.45845 -4.80785 7
      vertex 0.492456 -5 -3
      vertex 1.45845 -4.80785 -3
    endloop
  endfacet
  facet normal 0.83147 -0.55557 0
    outer loop
      vertex 3.88375 -3.18731 7
      vertex 4.43094 -2.36839 -3
      vertex 4.43094 -2.36839 7
    endloop
  endfacet
  facet normal 0.83147 -0.55557 0
    outer loop
      vertex 4.43094 -2.36839 -3
      vertex 3.88375 -3.18731 7
      vertex 3.88375 -3.18731 -3
    endloop
  endfacet
  facet normal 0.980785 0.19509 0
    outer loop
      vertex 5 0.492456 7
      vertex 4.80785 1.45845 -3
      vertex 4.80785 1.45845 7
    endloop
  endfacet
  facet normal 0.980785 0.19509 0
    outer loop
      vertex 4.80785 1.45845 -3
      vertex 5 0.492456 7
      vertex 5 0.492456 -3
    endloop
  endfacet
  facet normal 0.83147 0.55557 0
    outer loop
      vertex 4.43094 2.36839 7
      vertex 3.88375 3.18731 -3
      vertex 3.88375 3.18731 7
    endloop
  endfacet
  facet normal 0.83147 0.55557 0
    outer loop
      vertex 3.88375 3.18731 -3
      vertex 4.43094 2.36839 7
      vertex 4.43094 2.36839 -3
    endloop
  endfacet
  facet normal -0.831469 0.555571 0
    outer loop
      vertex -11.7915 1.49208 -3
      vertex -11.4468 2.00801 3
      vertex -11.4468 2.00801 -3
    endloop
  endfacet
  facet normal -0.831469 0.555571 0
    outer loop
      vertex -11.4468 2.00801 3
      vertex -11.7915 1.49208 -3
      vertex -11.7915 1.49208 3
    endloop
  endfacet
  facet normal 0.382684 0.923879 -0
    outer loop
      vertex 2.36839 4.43094 -3
      vertex 1.45845 4.80785 7
      vertex 2.36839 4.43094 7
    endloop
  endfacet
  facet normal 0.382684 0.923879 0
    outer loop
      vertex 1.45845 4.80785 7
      vertex 2.36839 4.43094 -3
      vertex 1.45845 4.80785 -3
    endloop
  endfacet
  facet normal 0.19509 0.980785 9.75368e-11
    outer loop
      vertex 1.45845 4.80785 7
      vertex 0.559188 4.98673 3
      vertex 0.492456 5 7
    endloop
  endfacet
  facet normal 0.195091 0.980785 -5.84876e-08
    outer loop
      vertex 1.45845 4.80785 7
      vertex 0.754827 4.94781 2.80436
      vertex 0.559188 4.98673 3
    endloop
  endfacet
  facet normal 0.19509 0.980785 -2.6947e-08
    outer loop
      vertex 1.45845 4.80785 7
      vertex 1.35 4.82942 2.20919
      vertex 0.754827 4.94781 2.80436
    endloop
  endfacet
  facet normal 0.195089 0.980785 0
    outer loop
      vertex 1.45845 4.80785 7
      vertex 1.35 4.82942 1.09081
      vertex 1.35 4.82942 2.20919
    endloop
  endfacet
  facet normal 0.195089 0.980785 -0
    outer loop
      vertex 1.45845 4.80785 -3
      vertex 1.35 4.82942 1.09081
      vertex 1.45845 4.80785 7
    endloop
  endfacet
  facet normal 0.195091 0.980785 3.28421e-08
    outer loop
      vertex 1.45845 4.80785 -3
      vertex 0.559188 4.98673 0.299999
      vertex 1.35 4.82942 1.09081
    endloop
  endfacet
  facet normal 0.19509 0.980785 -1.18226e-10
    outer loop
      vertex 0.492456 5 -3
      vertex 0.559188 4.98673 0.299999
      vertex 1.45845 4.80785 -3
    endloop
  endfacet
  facet normal 0.19509 0.980785 0
    outer loop
      vertex 0.559188 4.98673 0.299999
      vertex 0.492456 5 -3
      vertex 0.492456 5 0.299999
    endloop
  endfacet
  facet normal 0.19509 0.980785 0
    outer loop
      vertex 0.492456 5 7
      vertex 0.559188 4.98673 3
      vertex 0.492456 5 3
    endloop
  endfacet
  facet normal 0.55557 0.83147 -0
    outer loop
      vertex 3.18731 3.88375 -3
      vertex 2.36839 4.43094 7
      vertex 3.18731 3.88375 7
    endloop
  endfacet
  facet normal 0.55557 0.83147 0
    outer loop
      vertex 2.36839 4.43094 7
      vertex 3.18731 3.88375 -3
      vertex 2.36839 4.43094 -3
    endloop
  endfacet
  facet normal -0.205764 0.978602 0
    outer loop
      vertex -1.45845 4.80785 7
      vertex -4.65124 4.13652 3
      vertex -4.65124 4.13652 7
    endloop
  endfacet
  facet normal -0.205764 0.978602 0
    outer loop
      vertex -1.45845 4.80785 -3
      vertex -4.65124 4.13652 3
      vertex -1.45845 4.80785 7
    endloop
  endfacet
  facet normal -0.205764 0.978602 -4.92295e-09
    outer loop
      vertex -9.91882 3.02895 -3
      vertex -4.65124 4.13652 3
      vertex -1.45845 4.80785 -3
    endloop
  endfacet
  facet normal -0.205764 0.978602 0
    outer loop
      vertex -4.65124 4.13652 3
      vertex -9.91882 3.02895 -3
      vertex -9.91882 3.02895 3
    endloop
  endfacet
  facet normal -0.19509 0.980785 0
    outer loop
      vertex -0.492456 5 0.299999
      vertex -0.492456 5 -3
      vertex -0.559188 4.98673 0.299999
    endloop
  endfacet
  facet normal -0.19509 0.980785 0
    outer loop
      vertex -0.559188 4.98673 3
      vertex -0.492456 5 7
      vertex -0.492456 5 3
    endloop
  endfacet
  facet normal -0.19509 0.980785 9.75368e-11
    outer loop
      vertex -0.492456 5 7
      vertex -0.559188 4.98673 3
      vertex -1.45845 4.80785 7
    endloop
  endfacet
  facet normal -0.195091 0.980785 -5.84876e-08
    outer loop
      vertex -0.754827 4.94781 2.80436
      vertex -1.45845 4.80785 7
      vertex -0.559188 4.98673 3
    endloop
  endfacet
  facet normal -0.19509 0.980785 -2.6947e-08
    outer loop
      vertex -1.35 4.82942 2.20919
      vertex -1.45845 4.80785 7
      vertex -0.754827 4.94781 2.80436
    endloop
  endfacet
  facet normal -0.195089 0.980785 0
    outer loop
      vertex -1.35 4.82942 1.09081
      vertex -1.45845 4.80785 7
      vertex -1.35 4.82942 2.20919
    endloop
  endfacet
  facet normal -0.19509 0.980785 -1.18226e-10
    outer loop
      vertex -1.45845 4.80785 -3
      vertex -0.559188 4.98673 0.299999
      vertex -0.492456 5 -3
    endloop
  endfacet
  facet normal -0.195089 0.980785 0
    outer loop
      vertex -1.35 4.82942 1.09081
      vertex -1.45845 4.80785 -3
      vertex -1.45845 4.80785 7
    endloop
  endfacet
  facet normal -0.195091 0.980785 3.28421e-08
    outer loop
      vertex -0.559188 4.98673 0.299999
      vertex -1.45845 4.80785 -3
      vertex -1.35 4.82942 1.09081
    endloop
  endfacet
  facet normal -0 0 1
    outer loop
      vertex -3 0.590948 7
      vertex 5 0.492456 7
      vertex 4.80785 1.45845 7
    endloop
  endfacet
  facet normal 0 0 1
    outer loop
      vertex 5 0.492456 7
      vertex -3 0.590948 7
      vertex 5 -0.492456 7
    endloop
  endfacet
  facet normal 0 0 1
    outer loop
      vertex -3 0.590948 7
      vertex 4.80785 1.45845 7
      vertex 4.43094 2.36839 7
    endloop
  endfacet
  facet normal 0 0 1
    outer loop
      vertex -3 -0.590948 7
      vertex 5 -0.492456 7
      vertex -3 0.590948 7
    endloop
  endfacet
  facet normal 0 0 1
    outer loop
      vertex -3 0.590948 7
      vertex 4.43094 2.36839 7
      vertex 3.88375 3.18731 7
    endloop
  endfacet
  facet normal 0 0 1
    outer loop
      vertex 5 -0.492456 7
      vertex -3 -0.590948 7
      vertex 4.80785 -1.45845 7
    endloop
  endfacet
  facet normal 0 0 1
    outer loop
      vertex -3 0.590948 7
      vertex 3.88375 3.18731 7
      vertex 3.18731 3.88375 7
    endloop
  endfacet
  facet normal 0 0 1
    outer loop
      vertex 4.80785 -1.45845 7
      vertex -3 -0.590948 7
      vertex 4.43094 -2.36839 7
    endloop
  endfacet
  facet normal 0 0 1
    outer loop
      vertex -3 0.590948 7
      vertex 3.18731 3.88375 7
      vertex 2.36839 4.43094 7
    endloop
  endfacet
  facet normal 0 0 1
    outer loop
      vertex 4.43094 -2.36839 7
      vertex -3 -0.590948 7
      vertex 3.88375 -3.18731 7
    endloop
  endfacet
  facet normal 0 0 1
    outer loop
      vertex -3 0.590948 7
      vertex 2.36839 4.43094 7
      vertex 1.45845 4.80785 7
    endloop
  endfacet
  facet normal 0 0 1
    outer loop
      vertex 3.88375 -3.18731 7
      vertex -3 -0.590948 7
      vertex 3.18731 -3.88375 7
    endloop
  endfacet
  facet normal 0 0 1
    outer loop
      vertex -3 0.590948 7
      vertex 1.45845 4.80785 7
      vertex 0.492456 5 7
    endloop
  endfacet
  facet normal 0 0 1
    outer loop
      vertex 3.18731 -3.88375 7
      vertex -3 -0.590948 7
      vertex 2.36839 -4.43094 7
    endloop
  endfacet
  facet normal 0 0 1
    outer loop
      vertex -3 0.590948 7
      vertex 0.492456 5 7
      vertex -0.492456 5 7
    endloop
  endfacet
  facet normal 0 0 1
    outer loop
      vertex 2.36839 -4.43094 7
      vertex -3 -0.590948 7
      vertex 1.45845 -4.80785 7
    endloop
  endfacet
  facet normal 0 0 1
    outer loop
      vertex -3.23058 1.75014 7
      vertex -0.492456 5 7
      vertex -1.45845 4.80785 7
    endloop
  endfacet
  facet normal 0 0 1
    outer loop
      vertex 1.45845 -4.80785 7
      vertex -3 -0.590948 7
      vertex 0.492456 -5 7
    endloop
  endfacet
  facet normal 0 0 1
    outer loop
      vertex 0.492456 -5 7
      vertex -3 -0.590948 7
      vertex -0.492456 -5 7
    endloop
  endfacet
  facet normal 0 0 1
    outer loop
      vertex -0.492456 5 7
      vertex -3.23058 1.75014 7
      vertex -3 0.590948 7
    endloop
  endfacet
  facet normal 0 0 1
    outer loop
      vertex -1.45845 4.80785 7
      vertex -3.68287 2.84206 7
      vertex -3.23058 1.75014 7
    endloop
  endfacet
  facet normal 0 0 1
    outer loop
      vertex -1.45845 4.80785 7
      vertex -4.3395 3.82478 7
      vertex -3.68287 2.84206 7
    endloop
  endfacet
  facet normal 0 -0 1
    outer loop
      vertex -4.3395 3.82478 7
      vertex -1.45845 4.80785 7
      vertex -4.65124 4.13652 7
    endloop
  endfacet
  facet normal -0 0 1
    outer loop
      vertex -3.23058 -1.75014 7
      vertex -0.492456 -5 7
      vertex -3 -0.590948 7
    endloop
  endfacet
  facet normal 0 0 1
    outer loop
      vertex -0.492456 -5 7
      vertex -3.23058 -1.75014 7
      vertex -1.45845 -4.80785 7
    endloop
  endfacet
  facet normal -0 0 1
    outer loop
      vertex -3.68287 -2.84206 7
      vertex -1.45845 -4.80785 7
      vertex -3.23058 -1.75014 7
    endloop
  endfacet
  facet normal -0 0 1
    outer loop
      vertex -4.3395 -3.82478 7
      vertex -1.45845 -4.80785 7
      vertex -3.68287 -2.84206 7
    endloop
  endfacet
  facet normal 0 0 1
    outer loop
      vertex -1.45845 -4.80785 7
      vertex -4.3395 -3.82478 7
      vertex -4.65124 -4.13652 7
    endloop
  endfacet
  facet normal -0.195089 -0.980785 0
    outer loop
      vertex -1.45845 -4.80785 -3
      vertex -0.492456 -5 7
      vertex -1.45845 -4.80785 7
    endloop
  endfacet
  facet normal -0.195089 -0.980785 -0
    outer loop
      vertex -0.492456 -5 7
      vertex -1.45845 -4.80785 -3
      vertex -0.492456 -5 -3
    endloop
  endfacet
  facet normal -0.707107 -0.707107 0
    outer loop
      vertex -11.008 -2.44676 -3
      vertex -11.4468 -2.00801 3
      vertex -11.4468 -2.00801 -3
    endloop
  endfacet
  facet normal -0.707107 -0.707107 0
    outer loop
      vertex -11.4468 -2.00801 3
      vertex -11.008 -2.44676 -3
      vertex -11.008 -2.44676 3
    endloop
  endfacet
  facet normal -0.382683 -0.92388 0
    outer loop
      vertex -10.4921 -2.79149 -3
      vertex -9.91882 -3.02895 3
      vertex -10.4921 -2.79149 3
    endloop
  endfacet
  facet normal -0.382683 -0.92388 -0
    outer loop
      vertex -9.91882 -3.02895 3
      vertex -10.4921 -2.79149 -3
      vertex -9.91882 -3.02895 -3
    endloop
  endfacet
  facet normal -0.831469 -0.555571 0
    outer loop
      vertex -11.4468 -2.00801 -3
      vertex -11.7915 -1.49208 3
      vertex -11.7915 -1.49208 -3
    endloop
  endfacet
  facet normal -0.831469 -0.555571 0
    outer loop
      vertex -11.7915 -1.49208 3
      vertex -11.4468 -2.00801 -3
      vertex -11.4468 -2.00801 3
    endloop
  endfacet
  facet normal -0.980785 -0.19509 0
    outer loop
      vertex -12.0289 -0.91882 -3
      vertex -12.15 -0.310247 3
      vertex -12.15 -0.310247 -3
    endloop
  endfacet
  facet normal -0.980785 -0.19509 0
    outer loop
      vertex -12.15 -0.310247 3
      vertex -12.0289 -0.91882 -3
      vertex -12.0289 -0.91882 3
    endloop
  endfacet
  facet normal 0.707107 -0.707107 0
    outer loop
      vertex 3.18731 -3.88375 7
      vertex 3.88375 -3.18731 -3
      vertex 3.88375 -3.18731 7
    endloop
  endfacet
  facet normal 0.707107 -0.707107 0
    outer loop
      vertex 3.88375 -3.18731 -3
      vertex 3.18731 -3.88375 7
      vertex 3.18731 -3.88375 -3
    endloop
  endfacet
  facet normal 0.382684 -0.923879 0
    outer loop
      vertex 1.45845 -4.80785 -3
      vertex 2.36839 -4.43094 7
      vertex 1.45845 -4.80785 7
    endloop
  endfacet
  facet normal 0.382684 -0.923879 0
    outer loop
      vertex 2.36839 -4.43094 7
      vertex 1.45845 -4.80785 -3
      vertex 2.36839 -4.43094 -3
    endloop
  endfacet
  facet normal 0.923879 -0.382684 0
    outer loop
      vertex 4.43094 -2.36839 7
      vertex 4.80785 -1.45845 -3
      vertex 4.80785 -1.45845 7
    endloop
  endfacet
  facet normal 0.923879 -0.382684 0
    outer loop
      vertex 4.80785 -1.45845 -3
      vertex 4.43094 -2.36839 7
      vertex 4.43094 -2.36839 -3
    endloop
  endfacet
  facet normal -0.707107 0.707107 0
    outer loop
      vertex -11.4468 2.00801 -3
      vertex -11.008 2.44676 3
      vertex -11.008 2.44676 -3
    endloop
  endfacet
  facet normal -0.707107 0.707107 0
    outer loop
      vertex -11.008 2.44676 3
      vertex -11.4468 2.00801 -3
      vertex -11.4468 2.00801 3
    endloop
  endfacet
  facet normal -0.555571 0.831469 0
    outer loop
      vertex -10.4921 2.79149 -3
      vertex -11.008 2.44676 3
      vertex -10.4921 2.79149 3
    endloop
  endfacet
  facet normal -0.555571 0.831469 0
    outer loop
      vertex -11.008 2.44676 3
      vertex -10.4921 2.79149 -3
      vertex -11.008 2.44676 -3
    endloop
  endfacet
  facet normal -0.92388 0.382683 0
    outer loop
      vertex -12.0289 0.91882 -3
      vertex -11.7915 1.49208 3
      vertex -11.7915 1.49208 -3
    endloop
  endfacet
  facet normal -0.92388 0.382683 0
    outer loop
      vertex -11.7915 1.49208 3
      vertex -12.0289 0.91882 -3
      vertex -12.0289 0.91882 3
    endloop
  endfacet
  facet normal -0.980785 0.19509 0
    outer loop
      vertex -12.15 0.310247 -3
      vertex -12.0289 0.91882 3
      vertex -12.0289 0.91882 -3
    endloop
  endfacet
  facet normal -0.980785 0.19509 0
    outer loop
      vertex -12.0289 0.91882 3
      vertex -12.15 0.310247 -3
      vertex -12.15 0.310247 3
    endloop
  endfacet
  facet normal -0.555571 -0.831469 0
    outer loop
      vertex -11.008 -2.44676 -3
      vertex -10.4921 -2.79149 3
      vertex -11.008 -2.44676 3
    endloop
  endfacet
  facet normal -0.555571 -0.831469 -0
    outer loop
      vertex -10.4921 -2.79149 3
      vertex -11.008 -2.44676 -3
      vertex -10.4921 -2.79149 -3
    endloop
  endfacet
  facet normal -0.92388 -0.382683 0
    outer loop
      vertex -11.7915 -1.49208 -3
      vertex -12.0289 -0.91882 3
      vertex -12.0289 -0.91882 -3
    endloop
  endfacet
  facet normal -0.92388 -0.382683 0
    outer loop
      vertex -12.0289 -0.91882 3
      vertex -11.7915 -1.49208 -3
      vertex -11.7915 -1.49208 3
    endloop
  endfacet
  facet normal 1 -9.68283e-07 0
    outer loop
      vertex 5 -0.492456 7
      vertex 5 0.492456 -3
      vertex 5 0.492456 7
    endloop
  endfacet
  facet normal 1 -9.68283e-07 0
    outer loop
      vertex 5 0.492456 -3
      vertex 5 -0.492456 7
      vertex 5 -0.492456 -3
    endloop
  endfacet
  facet normal -0.980785 -0.19509 0
    outer loop
      vertex -3 0.590948 3
      vertex -3.23058 1.75014 7
      vertex -3.23058 1.75014 3
    endloop
  endfacet
  facet normal -0.980785 -0.19509 0
    outer loop
      vertex -3.23058 1.75014 7
      vertex -3 0.590948 3
      vertex -3 0.590948 7
    endloop
  endfacet
  facet normal -0.707107 -0.707107 0
    outer loop
      vertex -4.3395 3.82478 3
      vertex -4.65124 4.13652 7
      vertex -4.65124 4.13652 3
    endloop
  endfacet
  facet normal -0.707107 -0.707107 0
    outer loop
      vertex -4.65124 4.13652 7
      vertex -4.3395 3.82478 3
      vertex -4.3395 3.82478 7
    endloop
  endfacet
  facet normal -0.707107 0.707107 0
    outer loop
      vertex -4.65124 -4.13652 3
      vertex -4.3395 -3.82478 7
      vertex -4.3395 -3.82478 3
    endloop
  endfacet
  facet normal -0.707107 0.707107 0
    outer loop
      vertex -4.3395 -3.82478 7
      vertex -4.65124 -4.13652 3
      vertex -4.65124 -4.13652 7
    endloop
  endfacet
  facet normal 0 0 1
    outer loop
      vertex -5.85 0.310247 3
      vertex -3 0.590948 3
      vertex -3.23058 1.75014 3
    endloop
  endfacet
  facet normal 0 0 1
    outer loop
      vertex -3 0.590948 3
      vertex -5.85 0.310247 3
      vertex -3 -0.590948 3
    endloop
  endfacet
  facet normal 0 0 1
    outer loop
      vertex -5.97105 0.91882 3
      vertex -3.23058 1.75014 3
      vertex -3.68287 2.84206 3
    endloop
  endfacet
  facet normal -0 0 1
    outer loop
      vertex -5.85 -0.310247 3
      vertex -3 -0.590948 3
      vertex -5.85 0.310247 3
    endloop
  endfacet
  facet normal 0 0 1
    outer loop
      vertex -6.20851 1.49208 3
      vertex -3.68287 2.84206 3
      vertex -4.3395 3.82478 3
    endloop
  endfacet
  facet normal 0 0 1
    outer loop
      vertex -3 -0.590948 3
      vertex -5.85 -0.310247 3
      vertex -3.23058 -1.75014 3
    endloop
  endfacet
  facet normal 0 0 1
    outer loop
      vertex -6.55324 2.00801 3
      vertex -4.3395 3.82478 3
      vertex -4.65124 4.13652 3
    endloop
  endfacet
  facet normal -0 0 1
    outer loop
      vertex -5.97105 -0.91882 3
      vertex -3.23058 -1.75014 3
      vertex -5.85 -0.310247 3
    endloop
  endfacet
  facet normal 0 0 1
    outer loop
      vertex -3.23058 -1.75014 3
      vertex -5.97105 -0.91882 3
      vertex -3.68287 -2.84206 3
    endloop
  endfacet
  facet normal 0 0 1
    outer loop
      vertex -3.23058 1.75014 3
      vertex -5.97105 0.91882 3
      vertex -5.85 0.310247 3
    endloop
  endfacet
  facet normal 0 0 1
    outer loop
      vertex -3.68287 2.84206 3
      vertex -6.20851 1.49208 3
      vertex -5.97105 0.91882 3
    endloop
  endfacet
  facet normal 0 0 1
    outer loop
      vertex -4.3395 3.82478 3
      vertex -6.55324 2.00801 3
      vertex -6.20851 1.49208 3
    endloop
  endfacet
  facet normal 0 0 1
    outer loop
      vertex -4.65124 4.13652 3
      vertex -6.99199 2.44676 3
      vertex -6.55324 2.00801 3
    endloop
  endfacet
  facet normal 0 0 1
    outer loop
      vertex -4.65124 4.13652 3
      vertex -7.50791 2.79149 3
      vertex -6.99199 2.44676 3
    endloop
  endfacet
  facet normal 0 0 1
    outer loop
      vertex -4.65124 4.13652 3
      vertex -8.08118 3.02895 3
      vertex -7.50791 2.79149 3
    endloop
  endfacet
  facet normal 0 0 1
    outer loop
      vertex -4.65124 4.13652 3
      vertex -8.68975 3.15 3
      vertex -8.08118 3.02895 3
    endloop
  endfacet
  facet normal 0 0 1
    outer loop
      vertex -4.65124 4.13652 3
      vertex -9.31025 3.15 3
      vertex -8.68975 3.15 3
    endloop
  endfacet
  facet normal 0 -0 1
    outer loop
      vertex -9.31025 3.15 3
      vertex -4.65124 4.13652 3
      vertex -9.91882 3.02895 3
    endloop
  endfacet
  facet normal -0 0 1
    outer loop
      vertex -6.20851 -1.49208 3
      vertex -3.68287 -2.84206 3
      vertex -5.97105 -0.91882 3
    endloop
  endfacet
  facet normal 0 0 1
    outer loop
      vertex -3.68287 -2.84206 3
      vertex -6.20851 -1.49208 3
      vertex -4.3395 -3.82478 3
    endloop
  endfacet
  facet normal -0 0 1
    outer loop
      vertex -6.55324 -2.00801 3
      vertex -4.3395 -3.82478 3
      vertex -6.20851 -1.49208 3
    endloop
  endfacet
  facet normal 0 0 1
    outer loop
      vertex -4.3395 -3.82478 3
      vertex -6.55324 -2.00801 3
      vertex -4.65124 -4.13652 3
    endloop
  endfacet
  facet normal -0 0 1
    outer loop
      vertex -6.99199 -2.44676 3
      vertex -4.65124 -4.13652 3
      vertex -6.55324 -2.00801 3
    endloop
  endfacet
  facet normal -0 0 1
    outer loop
      vertex -7.50791 -2.79149 3
      vertex -4.65124 -4.13652 3
      vertex -6.99199 -2.44676 3
    endloop
  endfacet
  facet normal -0 0 1
    outer loop
      vertex -8.08118 -3.02895 3
      vertex -4.65124 -4.13652 3
      vertex -7.50791 -2.79149 3
    endloop
  endfacet
  facet normal -0 0 1
    outer loop
      vertex -8.68975 -3.15 3
      vertex -4.65124 -4.13652 3
      vertex -8.08118 -3.02895 3
    endloop
  endfacet
  facet normal -0 0 1
    outer loop
      vertex -9.31025 -3.15 3
      vertex -4.65124 -4.13652 3
      vertex -8.68975 -3.15 3
    endloop
  endfacet
  facet normal 0 0 1
    outer loop
      vertex -4.65124 -4.13652 3
      vertex -9.31025 -3.15 3
      vertex -9.91882 -3.02895 3
    endloop
  endfacet
  facet normal -0.83147 -0.55557 0
    outer loop
      vertex -3.68287 2.84206 3
      vertex -4.3395 3.82478 7
      vertex -4.3395 3.82478 3
    endloop
  endfacet
  facet normal -0.83147 -0.55557 0
    outer loop
      vertex -4.3395 3.82478 7
      vertex -3.68287 2.84206 3
      vertex -3.68287 2.84206 7
    endloop
  endfacet
  facet normal -0.923879 -0.382684 0
    outer loop
      vertex -3.23058 1.75014 3
      vertex -3.68287 2.84206 7
      vertex -3.68287 2.84206 3
    endloop
  endfacet
  facet normal -0.923879 -0.382684 0
    outer loop
      vertex -3.68287 2.84206 7
      vertex -3.23058 1.75014 3
      vertex -3.23058 1.75014 7
    endloop
  endfacet
  facet normal -1 0 0
    outer loop
      vertex -3 -0.590948 3
      vertex -3 0.590948 7
      vertex -3 0.590948 3
    endloop
  endfacet
  facet normal -1 -0 0
    outer loop
      vertex -3 0.590948 7
      vertex -3 -0.590948 3
      vertex -3 -0.590948 7
    endloop
  endfacet
  facet normal -0.923879 0.382684 0
    outer loop
      vertex -3.68287 -2.84206 3
      vertex -3.23058 -1.75014 7
      vertex -3.23058 -1.75014 3
    endloop
  endfacet
  facet normal -0.923879 0.382684 0
    outer loop
      vertex -3.23058 -1.75014 7
      vertex -3.68287 -2.84206 3
      vertex -3.68287 -2.84206 7
    endloop
  endfacet
  facet normal -0.83147 0.55557 0
    outer loop
      vertex -4.3395 -3.82478 3
      vertex -3.68287 -2.84206 7
      vertex -3.68287 -2.84206 3
    endloop
  endfacet
  facet normal -0.83147 0.55557 0
    outer loop
      vertex -3.68287 -2.84206 7
      vertex -4.3395 -3.82478 3
      vertex -4.3395 -3.82478 7
    endloop
  endfacet
  facet normal -0.980785 0.19509 0
    outer loop
      vertex -3.23058 -1.75014 3
      vertex -3 -0.590948 7
      vertex -3 -0.590948 3
    endloop
  endfacet
  facet normal -0.980785 0.19509 0
    outer loop
      vertex -3 -0.590948 7
      vertex -3.23058 -1.75014 3
      vertex -3.23058 -1.75014 7
    endloop
  endfacet
  facet normal 0.627883 0.124894 0.768221
    outer loop
      vertex -5.97105 0.91882 3
      vertex -7.12494 0.568793 4
      vertex -7.05 0.192058 4
    endloop
  endfacet
  facet normal 0.591453 0.244987 0.768221
    outer loop
      vertex -5.97105 0.91882 3
      vertex -7.27193 0.923671 4
      vertex -7.12494 0.568793 4
    endloop
  endfacet
  facet normal -0.355667 0.532294 0.768221
    outer loop
      vertex -9.92367 1.72807 4
      vertex -10.4921 2.79149 3
      vertex -10.2431 1.51466 4
    endloop
  endfacet
  facet normal 0.532294 -0.355668 0.768221
    outer loop
      vertex -6.20851 -1.49208 3
      vertex -7.48534 -1.24305 4
      vertex -6.55324 -2.00801 3
    endloop
  endfacet
  facet normal 0 -0.640184 0.768221
    outer loop
      vertex -9.19206 -1.95 4
      vertex -8.68975 -3.15 3
      vertex -8.80794 -1.95 4
    endloop
  endfacet
  facet normal 0 -0.640184 0.768221
    outer loop
      vertex -8.68975 -3.15 3
      vertex -9.19206 -1.95 4
      vertex -9.31025 -3.15 3
    endloop
  endfacet
  facet normal -0.532294 -0.355667 0.768221
    outer loop
      vertex -10.7281 -0.923671 4
      vertex -11.7915 -1.49208 3
      vertex -10.5147 -1.24305 4
    endloop
  endfacet
  facet normal 0.355667 0.532294 0.768221
    outer loop
      vertex -7.50791 2.79149 3
      vertex -8.07633 1.72807 4
      vertex -7.75695 1.51466 4
    endloop
  endfacet
  facet normal 0.591453 -0.244988 0.768221
    outer loop
      vertex -5.97105 -0.91882 3
      vertex -7.27193 -0.923671 4
      vertex -6.20851 -1.49208 3
    endloop
  endfacet
  facet normal 0.355668 0.532294 0.768221
    outer loop
      vertex -7.50791 2.79149 3
      vertex -7.75695 1.51466 4
      vertex -6.99199 2.44676 3
    endloop
  endfacet
  facet normal -0.627883 0.124894 0.768221
    outer loop
      vertex -12.0289 0.91882 3
      vertex -12.15 0.310247 3
      vertex -10.95 0.192058 4
    endloop
  endfacet
  facet normal -0.532294 -0.355668 0.768221
    outer loop
      vertex -10.5147 -1.24305 4
      vertex -11.7915 -1.49208 3
      vertex -11.4468 -2.00801 3
    endloop
  endfacet
  facet normal 0.244988 -0.591453 0.768221
    outer loop
      vertex -8.07633 -1.72807 4
      vertex -8.08118 -3.02895 3
      vertex -7.50791 -2.79149 3
    endloop
  endfacet
  facet normal 0.124894 0.627883 0.768221
    outer loop
      vertex -8.08118 3.02895 3
      vertex -8.80794 1.95 4
      vertex -8.43121 1.87506 4
    endloop
  endfacet
  facet normal 0.640184 0 0.768221
    outer loop
      vertex -7.05 0.192058 4
      vertex -5.85 -0.310247 3
      vertex -5.85 0.310247 3
    endloop
  endfacet
  facet normal 0.640184 0 0.768221
    outer loop
      vertex -5.85 -0.310247 3
      vertex -7.05 0.192058 4
      vertex -7.05 -0.192058 4
    endloop
  endfacet
  facet normal 0.627883 -0.124894 0.768221
    outer loop
      vertex -5.85 -0.310247 3
      vertex -7.05 -0.192058 4
      vertex -5.97105 -0.91882 3
    endloop
  endfacet
  facet normal 0.355668 -0.532294 0.768221
    outer loop
      vertex -6.99199 -2.44676 3
      vertex -7.75695 -1.51466 4
      vertex -7.50791 -2.79149 3
    endloop
  endfacet
  facet normal 0.244988 0.591453 0.768221
    outer loop
      vertex -7.50791 2.79149 3
      vertex -8.08118 3.02895 3
      vertex -8.07633 1.72807 4
    endloop
  endfacet
  facet normal -0.627883 0.124894 0.768221
    outer loop
      vertex -10.8751 0.568793 4
      vertex -12.0289 0.91882 3
      vertex -10.95 0.192058 4
    endloop
  endfacet
  facet normal -0 0 1
    outer loop
      vertex -7.65 0.361731 4
      vertex -7.05 0.192058 4
      vertex -7.12494 0.568793 4
    endloop
  endfacet
  facet normal 0 0 1
    outer loop
      vertex -7.05 0.192058 4
      vertex -7.65 0.361731 4
      vertex -7.05 -0.192058 4
    endloop
  endfacet
  facet normal 0 0 1
    outer loop
      vertex -7.65 0.361731 4
      vertex -7.12494 0.568793 4
      vertex -7.27193 0.923671 4
    endloop
  endfacet
  facet normal 0 0 1
    outer loop
      vertex -7.65 -0.361731 4
      vertex -7.05 -0.192058 4
      vertex -7.65 0.361731 4
    endloop
  endfacet
  facet normal -0 0 1
    outer loop
      vertex -8.01173 0.988268 4
      vertex -7.27193 0.923671 4
      vertex -7.48534 1.24305 4
    endloop
  endfacet
  facet normal 0 0 1
    outer loop
      vertex -7.05 -0.192058 4
      vertex -7.65 -0.361731 4
      vertex -7.12494 -0.568793 4
    endloop
  endfacet
  facet normal 0 0 1
    outer loop
      vertex -7.12494 -0.568793 4
      vertex -7.65 -0.361731 4
      vertex -7.27193 -0.923671 4
    endloop
  endfacet
  facet normal 0 0 1
    outer loop
      vertex -8.01173 0.988268 4
      vertex -7.48534 1.24305 4
      vertex -7.75695 1.51466 4
    endloop
  endfacet
  facet normal 0 0 1
    outer loop
      vertex -7.27193 0.923671 4
      vertex -8.01173 0.988268 4
      vertex -7.65 0.361731 4
    endloop
  endfacet
  facet normal 0 0 1
    outer loop
      vertex -8.07633 1.72807 4
      vertex -8.01173 0.988268 4
      vertex -7.75695 1.51466 4
    endloop
  endfacet
  facet normal 0 0 1
    outer loop
      vertex -8.63827 1.35 4
      vertex -8.07633 1.72807 4
      vertex -8.43121 1.87506 4
    endloop
  endfacet
  facet normal 0 0 1
    outer loop
      vertex -8.07633 1.72807 4
      vertex -8.63827 1.35 4
      vertex -8.01173 0.988268 4
    endloop
  endfacet
  facet normal 0 0 1
    outer loop
      vertex -8.80794 1.95 4
      vertex -8.63827 1.35 4
      vertex -8.43121 1.87506 4
    endloop
  endfacet
  facet normal -0 0 1
    outer loop
      vertex -9.19206 1.95 4
      vertex -8.63827 1.35 4
      vertex -8.80794 1.95 4
    endloop
  endfacet
  facet normal 0 0 1
    outer loop
      vertex -9.19206 1.95 4
      vertex -9.36173 1.35 4
      vertex -8.63827 1.35 4
    endloop
  endfacet
  facet normal -0 0 1
    outer loop
      vertex -9.56879 1.87506 4
      vertex -9.36173 1.35 4
      vertex -9.19206 1.95 4
    endloop
  endfacet
  facet normal -0 0 1
    outer loop
      vertex -9.92367 1.72807 4
      vertex -9.36173 1.35 4
      vertex -9.56879 1.87506 4
    endloop
  endfacet
  facet normal 0 0 1
    outer loop
      vertex -9.92367 1.72807 4
      vertex -9.98827 0.988268 4
      vertex -9.36173 1.35 4
    endloop
  endfacet
  facet normal -0 0 1
    outer loop
      vertex -10.2431 1.51466 4
      vertex -9.98827 0.988268 4
      vertex -9.92367 1.72807 4
    endloop
  endfacet
  facet normal -0 0 1
    outer loop
      vertex -10.5147 1.24305 4
      vertex -9.98827 0.988268 4
      vertex -10.2431 1.51466 4
    endloop
  endfacet
  facet normal 0 0 1
    outer loop
      vertex -9.98827 0.988268 4
      vertex -10.7281 0.923671 4
      vertex -10.35 0.361731 4
    endloop
  endfacet
  facet normal 0 0 1
    outer loop
      vertex -10.7281 0.923671 4
      vertex -9.98827 0.988268 4
      vertex -10.5147 1.24305 4
    endloop
  endfacet
  facet normal 0 0 1
    outer loop
      vertex -8.01173 -0.988268 4
      vertex -7.27193 -0.923671 4
      vertex -7.65 -0.361731 4
    endloop
  endfacet
  facet normal 0 0 1
    outer loop
      vertex -7.27193 -0.923671 4
      vertex -8.01173 -0.988268 4
      vertex -7.48534 -1.24305 4
    endloop
  endfacet
  facet normal 0 0 1
    outer loop
      vertex -7.48534 -1.24305 4
      vertex -8.01173 -0.988268 4
      vertex -7.75695 -1.51466 4
    endloop
  endfacet
  facet normal 0 0 1
    outer loop
      vertex -8.01173 -0.988268 4
      vertex -8.07633 -1.72807 4
      vertex -7.75695 -1.51466 4
    endloop
  endfacet
  facet normal -0 0 1
    outer loop
      vertex -8.63827 -1.35 4
      vertex -8.07633 -1.72807 4
      vertex -8.01173 -0.988268 4
    endloop
  endfacet
  facet normal 0 0 1
    outer loop
      vertex -8.07633 -1.72807 4
      vertex -8.63827 -1.35 4
      vertex -8.43121 -1.87506 4
    endloop
  endfacet
  facet normal 0 0 1
    outer loop
      vertex -8.63827 -1.35 4
      vertex -8.80794 -1.95 4
      vertex -8.43121 -1.87506 4
    endloop
  endfacet
  facet normal 0 0 1
    outer loop
      vertex -8.63827 -1.35 4
      vertex -9.19206 -1.95 4
      vertex -8.80794 -1.95 4
    endloop
  endfacet
  facet normal -0 0 1
    outer loop
      vertex -9.36173 -1.35 4
      vertex -9.19206 -1.95 4
      vertex -8.63827 -1.35 4
    endloop
  endfacet
  facet normal 0 0 1
    outer loop
      vertex -9.36173 -1.35 4
      vertex -9.56879 -1.87506 4
      vertex -9.19206 -1.95 4
    endloop
  endfacet
  facet normal 0 0 1
    outer loop
      vertex -9.36173 -1.35 4
      vertex -9.92367 -1.72807 4
      vertex -9.56879 -1.87506 4
    endloop
  endfacet
  facet normal 0 0 1
    outer loop
      vertex -9.98827 -0.988268 4
      vertex -9.92367 -1.72807 4
      vertex -9.36173 -1.35 4
    endloop
  endfacet
  facet normal 0 0 1
    outer loop
      vertex -9.98827 -0.988268 4
      vertex -10.2431 -1.51466 4
      vertex -9.92367 -1.72807 4
    endloop
  endfacet
  facet normal -0 0 1
    outer loop
      vertex -10.7281 -0.923671 4
      vertex -9.98827 -0.988268 4
      vertex -10.35 -0.361731 4
    endloop
  endfacet
  facet normal -0 0 1
    outer loop
      vertex -10.8751 0.568793 4
      vertex -10.35 0.361731 4
      vertex -10.7281 0.923671 4
    endloop
  endfacet
  facet normal 0 0 1
    outer loop
      vertex -9.98827 -0.988268 4
      vertex -10.5147 -1.24305 4
      vertex -10.2431 -1.51466 4
    endloop
  endfacet
  facet normal 0 0 1
    outer loop
      vertex -10.95 0.192058 4
      vertex -10.35 0.361731 4
      vertex -10.8751 0.568793 4
    endloop
  endfacet
  facet normal 0 0 1
    outer loop
      vertex -9.98827 -0.988268 4
      vertex -10.7281 -0.923671 4
      vertex -10.5147 -1.24305 4
    endloop
  endfacet
  facet normal 0 0 1
    outer loop
      vertex -10.35 0.361731 4
      vertex -10.95 0.192058 4
      vertex -10.35 -0.361731 4
    endloop
  endfacet
  facet normal 0 0 1
    outer loop
      vertex -10.35 -0.361731 4
      vertex -10.8751 -0.568793 4
      vertex -10.7281 -0.923671 4
    endloop
  endfacet
  facet normal -0 0 1
    outer loop
      vertex -10.95 -0.192058 4
      vertex -10.35 -0.361731 4
      vertex -10.95 0.192058 4
    endloop
  endfacet
  facet normal 0 0 1
    outer loop
      vertex -10.35 -0.361731 4
      vertex -10.95 -0.192058 4
      vertex -10.8751 -0.568793 4
    endloop
  endfacet
  facet normal -0.640184 0 0.768221
    outer loop
      vertex -12.15 0.310247 3
      vertex -10.95 -0.192058 4
      vertex -10.95 0.192058 4
    endloop
  endfacet
  facet normal -0.640184 0 0.768221
    outer loop
      vertex -10.95 -0.192058 4
      vertex -12.15 0.310247 3
      vertex -12.15 -0.310247 3
    endloop
  endfacet
  facet normal -0.124894 -0.627883 0.768221
    outer loop
      vertex -9.19206 -1.95 4
      vertex -9.91882 -3.02895 3
      vertex -9.31025 -3.15 3
    endloop
  endfacet
  facet normal -0.244988 -0.591453 0.768221
    outer loop
      vertex -9.92367 -1.72807 4
      vertex -10.4921 -2.79149 3
      vertex -9.91882 -3.02895 3
    endloop
  endfacet
  facet normal -0.244987 0.591453 0.768221
    outer loop
      vertex -9.91882 3.02895 3
      vertex -9.92367 1.72807 4
      vertex -9.56879 1.87506 4
    endloop
  endfacet
  facet normal 0.532294 -0.355667 0.768221
    outer loop
      vertex -7.27193 -0.923671 4
      vertex -7.48534 -1.24305 4
      vertex -6.20851 -1.49208 3
    endloop
  endfacet
  facet normal 0.452679 0.452679 0.768221
    outer loop
      vertex -6.99199 2.44676 3
      vertex -7.48534 1.24305 4
      vertex -6.55324 2.00801 3
    endloop
  endfacet
  facet normal 0.452679 0.452679 0.768221
    outer loop
      vertex -7.48534 1.24305 4
      vertex -6.99199 2.44676 3
      vertex -7.75695 1.51466 4
    endloop
  endfacet
  facet normal -0.591453 0.244988 0.768221
    outer loop
      vertex -11.7915 1.49208 3
      vertex -12.0289 0.91882 3
      vertex -10.7281 0.923671 4
    endloop
  endfacet
  facet normal -0.355668 0.532294 0.768221
    outer loop
      vertex -10.4921 2.79149 3
      vertex -11.008 2.44676 3
      vertex -10.2431 1.51466 4
    endloop
  endfacet
  facet normal -0.355668 -0.532294 0.768221
    outer loop
      vertex -10.2431 -1.51466 4
      vertex -11.008 -2.44676 3
      vertex -10.4921 -2.79149 3
    endloop
  endfacet
  facet normal -0.355667 -0.532294 0.768221
    outer loop
      vertex -10.2431 -1.51466 4
      vertex -10.4921 -2.79149 3
      vertex -9.92367 -1.72807 4
    endloop
  endfacet
  facet normal 0.124894 -0.627883 0.768221
    outer loop
      vertex -8.08118 -3.02895 3
      vertex -8.80794 -1.95 4
      vertex -8.68975 -3.15 3
    endloop
  endfacet
  facet normal -0.244988 0.591453 0.768221
    outer loop
      vertex -9.91882 3.02895 3
      vertex -10.4921 2.79149 3
      vertex -9.92367 1.72807 4
    endloop
  endfacet
  facet normal 0.591453 -0.244987 0.768221
    outer loop
      vertex -7.12494 -0.568793 4
      vertex -7.27193 -0.923671 4
      vertex -5.97105 -0.91882 3
    endloop
  endfacet
  facet normal 0.627883 -0.124894 0.768221
    outer loop
      vertex -7.05 -0.192058 4
      vertex -7.12494 -0.568793 4
      vertex -5.97105 -0.91882 3
    endloop
  endfacet
  facet normal 0.627883 0.124894 0.768221
    outer loop
      vertex -5.97105 0.91882 3
      vertex -7.05 0.192058 4
      vertex -5.85 0.310247 3
    endloop
  endfacet
  facet normal 0.355667 -0.532294 0.768221
    outer loop
      vertex -7.75695 -1.51466 4
      vertex -8.07633 -1.72807 4
      vertex -7.50791 -2.79149 3
    endloop
  endfacet
  facet normal 0.244987 0.591453 0.768221
    outer loop
      vertex -8.08118 3.02895 3
      vertex -8.43121 1.87506 4
      vertex -8.07633 1.72807 4
    endloop
  endfacet
  facet normal -0.591453 0.244987 0.768221
    outer loop
      vertex -10.7281 0.923671 4
      vertex -12.0289 0.91882 3
      vertex -10.8751 0.568793 4
    endloop
  endfacet
  facet normal -0.532294 0.355667 0.768221
    outer loop
      vertex -10.5147 1.24305 4
      vertex -11.7915 1.49208 3
      vertex -10.7281 0.923671 4
    endloop
  endfacet
  facet normal -0.627883 -0.124894 0.768221
    outer loop
      vertex -10.95 -0.192058 4
      vertex -12.15 -0.310247 3
      vertex -12.0289 -0.91882 3
    endloop
  endfacet
  facet normal -0.532294 0.355668 0.768221
    outer loop
      vertex -11.4468 2.00801 3
      vertex -11.7915 1.49208 3
      vertex -10.5147 1.24305 4
    endloop
  endfacet
  facet normal -0.452679 0.452679 0.768221
    outer loop
      vertex -11.008 2.44676 3
      vertex -10.5147 1.24305 4
      vertex -10.2431 1.51466 4
    endloop
  endfacet
  facet normal -0.452679 0.452679 0.768221
    outer loop
      vertex -10.5147 1.24305 4
      vertex -11.008 2.44676 3
      vertex -11.4468 2.00801 3
    endloop
  endfacet
  facet normal -0.452679 -0.452679 0.768221
    outer loop
      vertex -10.5147 -1.24305 4
      vertex -11.008 -2.44676 3
      vertex -10.2431 -1.51466 4
    endloop
  endfacet
  facet normal -0.452679 -0.452679 0.768221
    outer loop
      vertex -11.008 -2.44676 3
      vertex -10.5147 -1.24305 4
      vertex -11.4468 -2.00801 3
    endloop
  endfacet
  facet normal -0.244987 -0.591453 0.768221
    outer loop
      vertex -9.56879 -1.87506 4
      vertex -9.92367 -1.72807 4
      vertex -9.91882 -3.02895 3
    endloop
  endfacet
  facet normal 0.244987 -0.591453 0.768221
    outer loop
      vertex -8.07633 -1.72807 4
      vertex -8.43121 -1.87506 4
      vertex -8.08118 -3.02895 3
    endloop
  endfacet
  facet normal -0.124894 -0.627883 0.768221
    outer loop
      vertex -9.56879 -1.87506 4
      vertex -9.91882 -3.02895 3
      vertex -9.19206 -1.95 4
    endloop
  endfacet
  facet normal 0.532294 0.355668 0.768221
    outer loop
      vertex -6.55324 2.00801 3
      vertex -7.48534 1.24305 4
      vertex -6.20851 1.49208 3
    endloop
  endfacet
  facet normal -0.124894 0.627883 0.768221
    outer loop
      vertex -9.31025 3.15 3
      vertex -9.91882 3.02895 3
      vertex -9.19206 1.95 4
    endloop
  endfacet
  facet normal 0.452679 -0.452679 0.768221
    outer loop
      vertex -7.48534 -1.24305 4
      vertex -6.99199 -2.44676 3
      vertex -6.55324 -2.00801 3
    endloop
  endfacet
  facet normal 0.452679 -0.452679 0.768221
    outer loop
      vertex -6.99199 -2.44676 3
      vertex -7.48534 -1.24305 4
      vertex -7.75695 -1.51466 4
    endloop
  endfacet
  facet normal 0 0.640184 0.768221
    outer loop
      vertex -8.68975 3.15 3
      vertex -9.19206 1.95 4
      vertex -8.80794 1.95 4
    endloop
  endfacet
  facet normal 0 0.640184 0.768221
    outer loop
      vertex -9.19206 1.95 4
      vertex -8.68975 3.15 3
      vertex -9.31025 3.15 3
    endloop
  endfacet
  facet normal 0.124894 0.627883 0.768221
    outer loop
      vertex -8.68975 3.15 3
      vertex -8.80794 1.95 4
      vertex -8.08118 3.02895 3
    endloop
  endfacet
  facet normal -0.591453 -0.244988 0.768221
    outer loop
      vertex -10.7281 -0.923671 4
      vertex -12.0289 -0.91882 3
      vertex -11.7915 -1.49208 3
    endloop
  endfacet
  facet normal 0.124894 -0.627883 0.768221
    outer loop
      vertex -8.43121 -1.87506 4
      vertex -8.80794 -1.95 4
      vertex -8.08118 -3.02895 3
    endloop
  endfacet
  facet normal 0.532294 0.355667 0.768221
    outer loop
      vertex -6.20851 1.49208 3
      vertex -7.48534 1.24305 4
      vertex -7.27193 0.923671 4
    endloop
  endfacet
  facet normal 0.591453 0.244988 0.768221
    outer loop
      vertex -6.20851 1.49208 3
      vertex -7.27193 0.923671 4
      vertex -5.97105 0.91882 3
    endloop
  endfacet
  facet normal -0.124894 0.627883 0.768221
    outer loop
      vertex -9.19206 1.95 4
      vertex -9.91882 3.02895 3
      vertex -9.56879 1.87506 4
    endloop
  endfacet
  facet normal -0.627883 -0.124894 0.768221
    outer loop
      vertex -10.95 -0.192058 4
      vertex -12.0289 -0.91882 3
      vertex -10.8751 -0.568793 4
    endloop
  endfacet
  facet normal -0.591453 -0.244987 0.768221
    outer loop
      vertex -10.8751 -0.568793 4
      vertex -12.0289 -0.91882 3
      vertex -10.7281 -0.923671 4
    endloop
  endfacet
  facet normal -0.92388 -0.382683 0
    outer loop
      vertex 2.6 0.517172 -3
      vertex 2.20417 1.47278 3.5
      vertex 2.20417 1.47278 -3
    endloop
  endfacet
  facet normal -0.92388 -0.382683 0
    outer loop
      vertex 2.20417 1.47278 3.5
      vertex 2.6 0.517172 -3
      vertex 2.6 0.517172 3.5
    endloop
  endfacet
  facet normal 1 -0 0
    outer loop
      vertex -2.6 -0.517172 3.5
      vertex -2.6 0.517172 -3
      vertex -2.6 0.517172 3.5
    endloop
  endfacet
  facet normal 1 0 0
    outer loop
      vertex -2.6 0.517172 -3
      vertex -2.6 -0.517172 3.5
      vertex -2.6 -0.517172 -3
    endloop
  endfacet
  facet normal -0.707107 -0.707107 0
    outer loop
      vertex 2.20417 1.47278 -3
      vertex 2.07695 1.6 3.5
      vertex 2.07695 1.6 -3
    endloop
  endfacet
  facet normal -0.707107 -0.707107 0
    outer loop
      vertex 2.07695 1.6 3.5
      vertex 2.20417 1.47278 -3
      vertex 2.20417 1.47278 3.5
    endloop
  endfacet
  facet normal 0.707107 -0.707107 0
    outer loop
      vertex -2.20417 1.47278 3.5
      vertex -2.07695 1.6 -3
      vertex -2.07695 1.6 3.5
    endloop
  endfacet
  facet normal 0.707107 -0.707107 0
    outer loop
      vertex -2.07695 1.6 -3
      vertex -2.20417 1.47278 3.5
      vertex -2.20417 1.47278 -3
    endloop
  endfacet
  facet normal 0.92388 -0.382683 0
    outer loop
      vertex -2.6 0.517172 3.5
      vertex -2.20417 1.47278 -3
      vertex -2.20417 1.47278 3.5
    endloop
  endfacet
  facet normal 0.92388 -0.382683 0
    outer loop
      vertex -2.20417 1.47278 -3
      vertex -2.6 0.517172 3.5
      vertex -2.6 0.517172 -3
    endloop
  endfacet
  facet normal 0.92388 0.382683 0
    outer loop
      vertex -2.20417 -1.47278 3.5
      vertex -2.6 -0.517172 -3
      vertex -2.6 -0.517172 3.5
    endloop
  endfacet
  facet normal 0.92388 0.382683 0
    outer loop
      vertex -2.6 -0.517172 -3
      vertex -2.20417 -1.47278 3.5
      vertex -2.20417 -1.47278 -3
    endloop
  endfacet
  facet normal -0.707107 0.707107 0
    outer loop
      vertex 2.07695 -1.6 -3
      vertex 2.20417 -1.47278 3.5
      vertex 2.20417 -1.47278 -3
    endloop
  endfacet
  facet normal -0.707107 0.707107 0
    outer loop
      vertex 2.20417 -1.47278 3.5
      vertex 2.07695 -1.6 -3
      vertex 2.07695 -1.6 3.5
    endloop
  endfacet
  facet normal -0.92388 0.382683 0
    outer loop
      vertex 2.20417 -1.47278 -3
      vertex 2.6 -0.517172 3.5
      vertex 2.6 -0.517172 -3
    endloop
  endfacet
  facet normal -0.92388 0.382683 0
    outer loop
      vertex 2.6 -0.517172 3.5
      vertex 2.20417 -1.47278 -3
      vertex 2.20417 -1.47278 3.5
    endloop
  endfacet
  facet normal 0.707107 0.707107 0
    outer loop
      vertex -2.07695 -1.6 3.5
      vertex -2.20417 -1.47278 -3
      vertex -2.20417 -1.47278 3.5
    endloop
  endfacet
  facet normal 0.707107 0.707107 0
    outer loop
      vertex -2.20417 -1.47278 -3
      vertex -2.07695 -1.6 3.5
      vertex -2.07695 -1.6 -3
    endloop
  endfacet
  facet normal -1 0 0
    outer loop
      vertex 2.6 -0.517172 -3
      vertex 2.6 0.517172 3.5
      vertex 2.6 0.517172 -3
    endloop
  endfacet
  facet normal -1 -0 0
    outer loop
      vertex 2.6 0.517172 3.5
      vertex 2.6 -0.517172 -3
      vertex 2.6 -0.517172 3.5
    endloop
  endfacet
  facet normal 0 0 -1
    outer loop
      vertex 2.07695 -1.6 3.5
      vertex 2.6 -0.517172 3.5
      vertex 2.20417 -1.47278 3.5
    endloop
  endfacet
  facet normal -0 0 -1
    outer loop
      vertex 2.6 -0.517172 3.5
      vertex 2.07695 -1.6 3.5
      vertex 2.6 0.517172 3.5
    endloop
  endfacet
  facet normal 0 0 -1
    outer loop
      vertex 2.07695 1.6 3.5
      vertex 2.6 0.517172 3.5
      vertex 2.07695 -1.6 3.5
    endloop
  endfacet
  facet normal 0 0 -1
    outer loop
      vertex 2.6 0.517172 3.5
      vertex 2.07695 1.6 3.5
      vertex 2.20417 1.47278 3.5
    endloop
  endfacet
  facet normal 0 0 -1
    outer loop
      vertex -2.07695 -1.6 3.5
      vertex 2.07695 1.6 3.5
      vertex 2.07695 -1.6 3.5
    endloop
  endfacet
  facet normal 0 0 -1
    outer loop
      vertex -2.07695 -1.6 3.5
      vertex -2.07695 1.6 3.5
      vertex 2.07695 1.6 3.5
    endloop
  endfacet
  facet normal 0 0 -1
    outer loop
      vertex -2.6 -0.517172 3.5
      vertex -2.07695 -1.6 3.5
      vertex -2.20417 -1.47278 3.5
    endloop
  endfacet
  facet normal 0 0 -1
    outer loop
      vertex -2.07695 -1.6 3.5
      vertex -2.6 -0.517172 3.5
      vertex -2.07695 1.6 3.5
    endloop
  endfacet
  facet normal 0 0 -1
    outer loop
      vertex -2.6 0.517172 3.5
      vertex -2.07695 1.6 3.5
      vertex -2.6 -0.517172 3.5
    endloop
  endfacet
  facet normal 0 0 -1
    outer loop
      vertex -2.07695 1.6 3.5
      vertex -2.6 0.517172 3.5
      vertex -2.20417 1.47278 3.5
    endloop
  endfacet
  facet normal 0 -1 0
    outer loop
      vertex -2.07695 1.6 3.5
      vertex -0.559188 1.6 3
      vertex 2.07695 1.6 3.5
    endloop
  endfacet
  facet normal 0 -1 0
    outer loop
      vertex -2.07695 1.6 3.5
      vertex -0.622453 1.6 2.93673
      vertex -0.559188 1.6 3
    endloop
  endfacet
  facet normal 0 -1 0
    outer loop
      vertex -2.07695 1.6 3.5
      vertex -1.35 1.6 2.20919
      vertex -0.622453 1.6 2.93673
    endloop
  endfacet
  facet normal 0 -1 0
    outer loop
      vertex -2.07695 1.6 3.5
      vertex -1.35 1.6 1.09081
      vertex -1.35 1.6 2.20919
    endloop
  endfacet
  facet normal 0 -1 -0
    outer loop
      vertex -0.559188 1.6 0.299999
      vertex -2.07695 1.6 -3
      vertex 0.559188 1.6 0.299999
    endloop
  endfacet
  facet normal 0 -1 -0
    outer loop
      vertex -1.35 1.6 1.09081
      vertex -2.07695 1.6 -3
      vertex -0.559188 1.6 0.299999
    endloop
  endfacet
  facet normal 0 -1 0
    outer loop
      vertex -2.07695 1.6 -3
      vertex -1.35 1.6 1.09081
      vertex -2.07695 1.6 3.5
    endloop
  endfacet
  facet normal 0 -1 0
    outer loop
      vertex 0.559188 1.6 3
      vertex 2.07695 1.6 3.5
      vertex -0.559188 1.6 3
    endloop
  endfacet
  facet normal 0 -1 0
    outer loop
      vertex 0.622453 1.6 2.93673
      vertex 2.07695 1.6 3.5
      vertex 0.559188 1.6 3
    endloop
  endfacet
  facet normal 0 -1 0
    outer loop
      vertex 1.35 1.6 2.20919
      vertex 2.07695 1.6 3.5
      vertex 0.622453 1.6 2.93673
    endloop
  endfacet
  facet normal 0 -1 0
    outer loop
      vertex 1.35 1.6 1.09081
      vertex 2.07695 1.6 3.5
      vertex 1.35 1.6 2.20919
    endloop
  endfacet
  facet normal 0 -1 0
    outer loop
      vertex 2.07695 1.6 -3
      vertex 0.559188 1.6 0.299999
      vertex -2.07695 1.6 -3
    endloop
  endfacet
  facet normal 0 -1 0
    outer loop
      vertex 1.35 1.6 1.09081
      vertex 2.07695 1.6 -3
      vertex 2.07695 1.6 3.5
    endloop
  endfacet
  facet normal 0 -1 0
    outer loop
      vertex 0.559188 1.6 0.299999
      vertex 2.07695 1.6 -3
      vertex 1.35 1.6 1.09081
    endloop
  endfacet
  facet normal 0 1 -0
    outer loop
      vertex 2.07695 -1.6 -3
      vertex -2.07695 -1.6 3.5
      vertex 2.07695 -1.6 3.5
    endloop
  endfacet
  facet normal 0 1 0
    outer loop
      vertex -2.07695 -1.6 3.5
      vertex 2.07695 -1.6 -3
      vertex -2.07695 -1.6 -3
    endloop
  endfacet
  facet normal -0.866025 -0.5 0
    outer loop
      vertex -7.65 0.361731 -3
      vertex -8.01173 0.988268 4
      vertex -8.01173 0.988268 -3
    endloop
  endfacet
  facet normal -0.866025 -0.5 0
    outer loop
      vertex -8.01173 0.988268 4
      vertex -7.65 0.361731 -3
      vertex -7.65 0.361731 4
    endloop
  endfacet
  facet normal 1 -0 0
    outer loop
      vertex -10.35 -0.361731 4
      vertex -10.35 0.361731 -3
      vertex -10.35 0.361731 4
    endloop
  endfacet
  facet normal 1 0 0
    outer loop
      vertex -10.35 0.361731 -3
      vertex -10.35 -0.361731 4
      vertex -10.35 -0.361731 -3
    endloop
  endfacet
  facet normal 0 -1 0
    outer loop
      vertex -9.36173 1.35 -3
      vertex -8.63827 1.35 4
      vertex -9.36173 1.35 4
    endloop
  endfacet
  facet normal 0 -1 -0
    outer loop
      vertex -8.63827 1.35 4
      vertex -9.36173 1.35 -3
      vertex -8.63827 1.35 -3
    endloop
  endfacet
  facet normal -0.5 -0.866025 0
    outer loop
      vertex -8.63827 1.35 -3
      vertex -8.01173 0.988268 4
      vertex -8.63827 1.35 4
    endloop
  endfacet
  facet normal -0.5 -0.866025 -0
    outer loop
      vertex -8.01173 0.988268 4
      vertex -8.63827 1.35 -3
      vertex -8.01173 0.988268 -3
    endloop
  endfacet
  facet normal 0.5 -0.866025 0
    outer loop
      vertex -9.98827 0.988268 -3
      vertex -9.36173 1.35 4
      vertex -9.98827 0.988268 4
    endloop
  endfacet
  facet normal 0.5 -0.866025 0
    outer loop
      vertex -9.36173 1.35 4
      vertex -9.98827 0.988268 -3
      vertex -9.36173 1.35 -3
    endloop
  endfacet
  facet normal 0 1 -0
    outer loop
      vertex -8.63827 -1.35 -3
      vertex -9.36173 -1.35 4
      vertex -8.63827 -1.35 4
    endloop
  endfacet
  facet normal 0 1 0
    outer loop
      vertex -9.36173 -1.35 4
      vertex -8.63827 -1.35 -3
      vertex -9.36173 -1.35 -3
    endloop
  endfacet
  facet normal -0.5 0.866025 0
    outer loop
      vertex -8.01173 -0.988268 -3
      vertex -8.63827 -1.35 4
      vertex -8.01173 -0.988268 4
    endloop
  endfacet
  facet normal -0.5 0.866025 0
    outer loop
      vertex -8.63827 -1.35 4
      vertex -8.01173 -0.988268 -3
      vertex -8.63827 -1.35 -3
    endloop
  endfacet
  facet normal 0.866025 0.5 0
    outer loop
      vertex -9.98827 -0.988268 4
      vertex -10.35 -0.361731 -3
      vertex -10.35 -0.361731 4
    endloop
  endfacet
  facet normal 0.866025 0.5 0
    outer loop
      vertex -10.35 -0.361731 -3
      vertex -9.98827 -0.988268 4
      vertex -9.98827 -0.988268 -3
    endloop
  endfacet
  facet normal 0.866025 -0.5 0
    outer loop
      vertex -10.35 0.361731 4
      vertex -9.98827 0.988268 -3
      vertex -9.98827 0.988268 4
    endloop
  endfacet
  facet normal 0.866025 -0.5 0
    outer loop
      vertex -9.98827 0.988268 -3
      vertex -10.35 0.361731 4
      vertex -10.35 0.361731 -3
    endloop
  endfacet
  facet normal 0.5 0.866025 -0
    outer loop
      vertex -9.36173 -1.35 -3
      vertex -9.98827 -0.988268 4
      vertex -9.36173 -1.35 4
    endloop
  endfacet
  facet normal 0.5 0.866025 0
    outer loop
      vertex -9.98827 -0.988268 4
      vertex -9.36173 -1.35 -3
      vertex -9.98827 -0.988268 -3
    endloop
  endfacet
  facet normal -0.866025 0.5 0
    outer loop
      vertex -8.01173 -0.988268 -3
      vertex -7.65 -0.361731 4
      vertex -7.65 -0.361731 -3
    endloop
  endfacet
  facet normal -0.866025 0.5 0
    outer loop
      vertex -7.65 -0.361731 4
      vertex -8.01173 -0.988268 -3
      vertex -8.01173 -0.988268 4
    endloop
  endfacet
  facet normal -1 0 0
    outer loop
      vertex -7.65 -0.361731 -3
      vertex -7.65 0.361731 4
      vertex -7.65 0.361731 -3
    endloop
  endfacet
  facet normal -1 -0 0
    outer loop
      vertex -7.65 0.361731 4
      vertex -7.65 -0.361731 -3
      vertex -7.65 -0.361731 4
    endloop
  endfacet
  facet normal -0.707108 5.38465e-08 -0.707106
    outer loop
      vertex 0.559188 1.6 3
      vertex 0.754827 4.94781 2.80436
      vertex 0.622453 1.6 2.93673
    endloop
  endfacet
  facet normal -0.707107 -4.97788e-08 -0.707107
    outer loop
      vertex 0.754827 4.94781 2.80436
      vertex 0.559188 1.6 3
      vertex 0.559188 4.98673 3
    endloop
  endfacet
  facet normal -0.707107 0 -0.707106
    outer loop
      vertex 0.622453 1.6 2.93673
      vertex 1.35 4.82942 2.20919
      vertex 1.35 1.6 2.20919
    endloop
  endfacet
  facet normal -0.707107 5.57791e-09 -0.707106
    outer loop
      vertex 1.35 4.82942 2.20919
      vertex 0.622453 1.6 2.93673
      vertex 0.754827 4.94781 2.80436
    endloop
  endfacet
  facet normal 1 -0 0
    outer loop
      vertex -1.35 1.6 2.20919
      vertex -1.35 4.82942 1.09081
      vertex -1.35 4.82942 2.20919
    endloop
  endfacet
  facet normal 1 0 0
    outer loop
      vertex -1.35 4.82942 1.09081
      vertex -1.35 1.6 2.20919
      vertex -1.35 1.6 1.09081
    endloop
  endfacet
  facet normal -1.4003e-08 -7.03979e-08 -1
    outer loop
      vertex 0.559188 1.6 3
      vertex 0.492456 5 3
      vertex 0.559188 4.98673 3
    endloop
  endfacet
  facet normal 0 -7.01231e-08 -1
    outer loop
      vertex 0.559188 1.6 3
      vertex -0.492456 5 3
      vertex 0.492456 5 3
    endloop
  endfacet
  facet normal 0 -7.01231e-08 -1
    outer loop
      vertex -0.559188 1.6 3
      vertex -0.492456 5 3
      vertex 0.559188 1.6 3
    endloop
  endfacet
  facet normal 1.4003e-08 -7.03979e-08 -1
    outer loop
      vertex -0.492456 5 3
      vertex -0.559188 1.6 3
      vertex -0.559188 4.98673 3
    endloop
  endfacet
  facet normal 0.707107 0 0.707107
    outer loop
      vertex -0.559188 1.6 0.299999
      vertex -1.35 4.82942 1.09081
      vertex -1.35 1.6 1.09081
    endloop
  endfacet
  facet normal 0.707107 0 0.707107
    outer loop
      vertex -1.35 4.82942 1.09081
      vertex -0.559188 1.6 0.299999
      vertex -0.559188 4.98673 0.299999
    endloop
  endfacet
  facet normal 0.707107 -4.97788e-08 -0.707107
    outer loop
      vertex -0.559188 1.6 3
      vertex -0.754827 4.94781 2.80436
      vertex -0.559188 4.98673 3
    endloop
  endfacet
  facet normal 0.707108 5.38465e-08 -0.707106
    outer loop
      vertex -0.754827 4.94781 2.80436
      vertex -0.559188 1.6 3
      vertex -0.622453 1.6 2.93673
    endloop
  endfacet
  facet normal 0.707107 5.57791e-09 -0.707106
    outer loop
      vertex -0.622453 1.6 2.93673
      vertex -1.35 4.82942 2.20919
      vertex -0.754827 4.94781 2.80436
    endloop
  endfacet
  facet normal 0.707107 0 -0.707106
    outer loop
      vertex -1.35 4.82942 2.20919
      vertex -0.622453 1.6 2.93673
      vertex -1.35 1.6 2.20919
    endloop
  endfacet
  facet normal 0 0 1
    outer loop
      vertex 0.492456 5 0.299999
      vertex 0.559188 1.6 0.299999
      vertex 0.559188 4.98673 0.299999
    endloop
  endfacet
  facet normal -0 0 1
    outer loop
      vertex -0.492456 5 0.299999
      vertex 0.559188 1.6 0.299999
      vertex 0.492456 5 0.299999
    endloop
  endfacet
  facet normal 0 0 1
    outer loop
      vertex -0.559188 1.6 0.299999
      vertex -0.492456 5 0.299999
      vertex -0.559188 4.98673 0.299999
    endloop
  endfacet
  facet normal 0 0 1
    outer loop
      vertex -0.492456 5 0.299999
      vertex -0.559188 1.6 0.299999
      vertex 0.559188 1.6 0.299999
    endloop
  endfacet
  facet normal -0.707107 0 0.707107
    outer loop
      vertex 0.559188 1.6 0.299999
      vertex 1.35 4.82942 1.09081
      vertex 0.559188 4.98673 0.299999
    endloop
  endfacet
  facet normal -0.707107 0 0.707107
    outer loop
      vertex 1.35 4.82942 1.09081
      vertex 0.559188 1.6 0.299999
      vertex 1.35 1.6 1.09081
    endloop
  endfacet
  facet normal -1 0 0
    outer loop
      vertex 1.35 1.6 1.09081
      vertex 1.35 4.82942 2.20919
      vertex 1.35 4.82942 1.09081
    endloop
  endfacet
  facet normal -1 -0 0
    outer loop
      vertex 1.35 4.82942 2.20919
      vertex 1.35 1.6 1.09081
      vertex 1.35 1.6 2.20919
    endloop
  endfacet
endsolid OpenSCAD_Model
