solid OpenSCAD_Model
  facet normal -0.923878 -0.382687 0
    outer loop
      vertex 2.6 0.517172 -5
      vertex 2.20417 1.47278 3
      vertex 2.20417 1.47278 -5
    endloop
  endfacet
  facet normal -0.923878 -0.382687 0
    outer loop
      vertex 2.20417 1.47278 3
      vertex 2.6 0.517172 -5
      vertex 2.6 0.517172 3
    endloop
  endfacet
  facet normal 1 -0 0
    outer loop
      vertex -2.6 -0.517172 3
      vertex -2.6 0.517172 -5
      vertex -2.6 0.517172 3
    endloop
  endfacet
  facet normal 1 0 0
    outer loop
      vertex -2.6 0.517172 -5
      vertex -2.6 -0.517172 3
      vertex -2.6 -0.517172 -5
    endloop
  endfacet
  facet normal -0.707107 -0.707107 0
    outer loop
      vertex 2.20417 1.47278 -5
      vertex 1.57695 2.1 3
      vertex 1.57695 2.1 -5
    endloop
  endfacet
  facet normal -0.707107 -0.707107 0
    outer loop
      vertex 1.57695 2.1 3
      vertex 2.20417 1.47278 -5
      vertex 2.20417 1.47278 3
    endloop
  endfacet
  facet normal 0 1 -0
    outer loop
      vertex 0.517172 -2.6 -5
      vertex -0.517172 -2.6 3
      vertex 0.517172 -2.6 3
    endloop
  endfacet
  facet normal 0 1 0
    outer loop
      vertex -0.517172 -2.6 3
      vertex 0.517172 -2.6 -5
      vertex -0.517172 -2.6 -5
    endloop
  endfacet
  facet normal 0.707107 -0.707107 0
    outer loop
      vertex -2.20417 1.47278 3
      vertex -1.57695 2.1 -5
      vertex -1.57695 2.1 3
    endloop
  endfacet
  facet normal 0.707107 -0.707107 0
    outer loop
      vertex -1.57695 2.1 -5
      vertex -2.20417 1.47278 3
      vertex -2.20417 1.47278 -5
    endloop
  endfacet
  facet normal 0.923878 -0.382687 0
    outer loop
      vertex -2.6 0.517172 3
      vertex -2.20417 1.47278 -5
      vertex -2.20417 1.47278 3
    endloop
  endfacet
  facet normal 0.923878 -0.382687 0
    outer loop
      vertex -2.20417 1.47278 -5
      vertex -2.6 0.517172 3
      vertex -2.6 0.517172 -5
    endloop
  endfacet
  facet normal 0.382687 0.923878 -0
    outer loop
      vertex -0.517172 -2.6 -5
      vertex -1.47278 -2.20417 3
      vertex -0.517172 -2.6 3
    endloop
  endfacet
  facet normal 0.382687 0.923878 0
    outer loop
      vertex -1.47278 -2.20417 3
      vertex -0.517172 -2.6 -5
      vertex -1.47278 -2.20417 -5
    endloop
  endfacet
  facet normal 0.923878 0.382687 0
    outer loop
      vertex -2.20417 -1.47278 3
      vertex -2.6 -0.517172 -5
      vertex -2.6 -0.517172 3
    endloop
  endfacet
  facet normal 0.923878 0.382687 0
    outer loop
      vertex -2.6 -0.517172 -5
      vertex -2.20417 -1.47278 3
      vertex -2.20417 -1.47278 -5
    endloop
  endfacet
  facet normal -1 0 0
    outer loop
      vertex 2.6 -0.517172 -5
      vertex 2.6 0.517172 3
      vertex 2.6 0.517172 -5
    endloop
  endfacet
  facet normal -1 -0 0
    outer loop
      vertex 2.6 0.517172 3
      vertex 2.6 -0.517172 -5
      vertex 2.6 -0.517172 3
    endloop
  endfacet
  facet normal -0.707107 0.707107 0
    outer loop
      vertex 1.47278 -2.20417 -5
      vertex 2.20417 -1.47278 3
      vertex 2.20417 -1.47278 -5
    endloop
  endfacet
  facet normal -0.707107 0.707107 0
    outer loop
      vertex 2.20417 -1.47278 3
      vertex 1.47278 -2.20417 -5
      vertex 1.47278 -2.20417 3
    endloop
  endfacet
  facet normal -0.382687 0.923878 0
    outer loop
      vertex 1.47278 -2.20417 -5
      vertex 0.517172 -2.6 3
      vertex 1.47278 -2.20417 3
    endloop
  endfacet
  facet normal -0.382687 0.923878 0
    outer loop
      vertex 0.517172 -2.6 3
      vertex 1.47278 -2.20417 -5
      vertex 0.517172 -2.6 -5
    endloop
  endfacet
  facet normal -0.923878 0.382687 0
    outer loop
      vertex 2.20417 -1.47278 -5
      vertex 2.6 -0.517172 3
      vertex 2.6 -0.517172 -5
    endloop
  endfacet
  facet normal -0.923878 0.382687 0
    outer loop
      vertex 2.6 -0.517172 3
      vertex 2.20417 -1.47278 -5
      vertex 2.20417 -1.47278 3
    endloop
  endfacet
  facet normal 0.707107 0.707107 0
    outer loop
      vertex -1.47278 -2.20417 3
      vertex -2.20417 -1.47278 -5
      vertex -2.20417 -1.47278 3
    endloop
  endfacet
  facet normal 0.707107 0.707107 0
    outer loop
      vertex -2.20417 -1.47278 -5
      vertex -1.47278 -2.20417 3
      vertex -1.47278 -2.20417 -5
    endloop
  endfacet
  facet normal 0 -1 0
    outer loop
      vertex -1.57695 2.1 3
      vertex -0.559188 2.1 0.349999
      vertex 1.57695 2.1 3
    endloop
  endfacet
  facet normal 0 -1 0
    outer loop
      vertex -1.57695 2.1 3
      vertex -1.35 2.1 -0.440811
      vertex -0.559188 2.1 0.349999
    endloop
  endfacet
  facet normal 0 -1 0
    outer loop
      vertex -1.57695 2.1 3
      vertex -1.35 2.1 -1.55919
      vertex -1.35 2.1 -0.440811
    endloop
  endfacet
  facet normal 0 -1 -0
    outer loop
      vertex -0.559188 2.1 -2.35
      vertex -1.57695 2.1 -5
      vertex 0.559188 2.1 -2.35
    endloop
  endfacet
  facet normal 0 -1 -0
    outer loop
      vertex -1.35 2.1 -1.55919
      vertex -1.57695 2.1 -5
      vertex -0.559188 2.1 -2.35
    endloop
  endfacet
  facet normal 0 -1 0
    outer loop
      vertex -1.57695 2.1 -5
      vertex -1.35 2.1 -1.55919
      vertex -1.57695 2.1 3
    endloop
  endfacet
  facet normal 0 -1 0
    outer loop
      vertex 0.559188 2.1 0.349999
      vertex 1.57695 2.1 3
      vertex -0.559188 2.1 0.349999
    endloop
  endfacet
  facet normal 0 -1 0
    outer loop
      vertex 1.35 2.1 -0.440811
      vertex 1.57695 2.1 3
      vertex 0.559188 2.1 0.349999
    endloop
  endfacet
  facet normal 0 -1 0
    outer loop
      vertex 1.35 2.1 -1.55919
      vertex 1.57695 2.1 3
      vertex 1.35 2.1 -0.440811
    endloop
  endfacet
  facet normal 0 -1 0
    outer loop
      vertex 1.57695 2.1 -5
      vertex 0.559188 2.1 -2.35
      vertex -1.57695 2.1 -5
    endloop
  endfacet
  facet normal 0 -1 0
    outer loop
      vertex 1.35 2.1 -1.55919
      vertex 1.57695 2.1 -5
      vertex 1.57695 2.1 3
    endloop
  endfacet
  facet normal 0 -1 0
    outer loop
      vertex 0.559188 2.1 -2.35
      vertex 1.57695 2.1 -5
      vertex 1.35 2.1 -1.55919
    endloop
  endfacet
  facet normal -0.707106 0 -0.707108
    outer loop
      vertex 0.559188 2.1 0.349999
      vertex 1.35 4.82942 -0.440811
      vertex 1.35 2.1 -0.440811
    endloop
  endfacet
  facet normal -0.707106 0 -0.707108
    outer loop
      vertex 1.35 4.82942 -0.440811
      vertex 0.559188 2.1 0.349999
      vertex 0.559188 4.98673 0.349999
    endloop
  endfacet
  facet normal 0 0 -1
    outer loop
      vertex 0.559188 2.1 0.349999
      vertex 0.492456 5 0.349999
      vertex 0.559188 4.98673 0.349999
    endloop
  endfacet
  facet normal 0 0 -1
    outer loop
      vertex 0.559188 2.1 0.349999
      vertex -0.492456 5 0.349999
      vertex 0.492456 5 0.349999
    endloop
  endfacet
  facet normal 0 0 -1
    outer loop
      vertex -0.559188 2.1 0.349999
      vertex -0.492456 5 0.349999
      vertex 0.559188 2.1 0.349999
    endloop
  endfacet
  facet normal 0 0 -1
    outer loop
      vertex -0.492456 5 0.349999
      vertex -0.559188 2.1 0.349999
      vertex -0.559188 4.9906 0.349999
    endloop
  endfacet
  facet normal 0.707106 0 -0.707108
    outer loop
      vertex -1.35 4.87924 -0.440811
      vertex -0.559188 2.1 0.349999
      vertex -1.35 2.1 -0.440811
    endloop
  endfacet
  facet normal 0.707106 0 -0.707108
    outer loop
      vertex -0.559188 2.1 0.349999
      vertex -1.35 4.87924 -0.440811
      vertex -0.559188 4.9906 0.349999
    endloop
  endfacet
  facet normal -1 0 0
    outer loop
      vertex 1.35 2.1 -1.55919
      vertex 1.35 4.82942 -0.440811
      vertex 1.35 4.82942 -1.55919
    endloop
  endfacet
  facet normal -1 -0 0
    outer loop
      vertex 1.35 4.82942 -0.440811
      vertex 1.35 2.1 -1.55919
      vertex 1.35 2.1 -0.440811
    endloop
  endfacet
  facet normal 0 0 1
    outer loop
      vertex 0.492456 5 -2.35
      vertex 0.559188 2.1 -2.35
      vertex 0.559188 4.98673 -2.35
    endloop
  endfacet
  facet normal -0 0 1
    outer loop
      vertex -0.492456 5 -2.35
      vertex 0.559188 2.1 -2.35
      vertex 0.492456 5 -2.35
    endloop
  endfacet
  facet normal 0 0 1
    outer loop
      vertex -0.559188 2.1 -2.35
      vertex -0.492456 5 -2.35
      vertex -0.559188 4.9906 -2.35
    endloop
  endfacet
  facet normal 0 0 1
    outer loop
      vertex -0.492456 5 -2.35
      vertex -0.559188 2.1 -2.35
      vertex 0.559188 2.1 -2.35
    endloop
  endfacet
  facet normal 1 -0 0
    outer loop
      vertex -1.35 2.1 -0.440811
      vertex -1.35 4.87924 -1.55919
      vertex -1.35 4.87924 -0.440811
    endloop
  endfacet
  facet normal 1 0 0
    outer loop
      vertex -1.35 4.87924 -1.55919
      vertex -1.35 2.1 -0.440811
      vertex -1.35 2.1 -1.55919
    endloop
  endfacet
  facet normal 0.707106 0 0.707108
    outer loop
      vertex -0.559188 2.1 -2.35
      vertex -1.35 4.87924 -1.55919
      vertex -1.35 2.1 -1.55919
    endloop
  endfacet
  facet normal 0.707106 0 0.707108
    outer loop
      vertex -1.35 4.87924 -1.55919
      vertex -0.559188 2.1 -2.35
      vertex -0.559188 4.9906 -2.35
    endloop
  endfacet
  facet normal -0.707106 0 0.707108
    outer loop
      vertex 0.559188 2.1 -2.35
      vertex 1.35 4.82942 -1.55919
      vertex 0.559188 4.98673 -2.35
    endloop
  endfacet
  facet normal -0.707106 0 0.707108
    outer loop
      vertex 1.35 4.82942 -1.55919
      vertex 0.559188 2.1 -2.35
      vertex 1.35 2.1 -1.55919
    endloop
  endfacet
  facet normal 0.555574 0.831467 -0
    outer loop
      vertex 3.18731 3.88375 -5
      vertex 2.36839 4.43094 3
      vertex 3.18731 3.88375 3
    endloop
  endfacet
  facet normal 0.555574 0.831467 0
    outer loop
      vertex 2.36839 4.43094 3
      vertex 3.18731 3.88375 -5
      vertex 2.36839 4.43094 -5
    endloop
  endfacet
  facet normal -0.923872 0.382702 0
    outer loop
      vertex -12.6059 1.09383 -5
      vertex -12.3232 1.77629 3
      vertex -12.3232 1.77629 -5
    endloop
  endfacet
  facet normal -0.923872 0.382702 0
    outer loop
      vertex -12.3232 1.77629 3
      vertex -12.6059 1.09383 -5
      vertex -12.6059 1.09383 3
    endloop
  endfacet
  facet normal 0 -1 0
    outer loop
      vertex -0.492456 -5 -5
      vertex 0.492456 -5 3
      vertex -0.492456 -5 3
    endloop
  endfacet
  facet normal 0 -1 -0
    outer loop
      vertex 0.492456 -5 3
      vertex -0.492456 -5 -5
      vertex 0.492456 -5 -5
    endloop
  endfacet
  facet normal 0.707107 0.707107 0
    outer loop
      vertex 3.88375 3.18731 3
      vertex 3.18731 3.88375 -5
      vertex 3.18731 3.88375 3
    endloop
  endfacet
  facet normal 0.707107 0.707107 0
    outer loop
      vertex 3.18731 3.88375 -5
      vertex 3.88375 3.18731 3
      vertex 3.88375 3.18731 -5
    endloop
  endfacet
  facet normal -0.139485 0.990224 0
    outer loop
      vertex -0.492456 5 -2.35
      vertex -0.492456 5 -5
      vertex -0.559188 4.9906 -2.35
    endloop
  endfacet
  facet normal -0.139485 0.990224 0
    outer loop
      vertex -0.559188 4.9906 0.349999
      vertex -0.492456 5 3
      vertex -0.492456 5 0.349999
    endloop
  endfacet
  facet normal -0.13944 0.99023 -1.14263e-06
    outer loop
      vertex -1.35 4.87924 -0.440811
      vertex -0.492456 5 3
      vertex -0.559188 4.9906 0.349999
    endloop
  endfacet
  facet normal -0.139439 0.990231 -1.37824e-06
    outer loop
      vertex -0.492456 5 3
      vertex -1.35 4.87924 -0.440811
      vertex -9.36934 3.75 3
    endloop
  endfacet
  facet normal -0.139439 0.990231 0
    outer loop
      vertex -1.35 4.87924 -1.55919
      vertex -9.36934 3.75 3
      vertex -1.35 4.87924 -0.440811
    endloop
  endfacet
  facet normal -0.13944 0.99023 1.14263e-06
    outer loop
      vertex -0.492456 5 -5
      vertex -1.35 4.87924 -1.55919
      vertex -0.559188 4.9906 -2.35
    endloop
  endfacet
  facet normal -0.139439 0.990231 1.37824e-06
    outer loop
      vertex -1.35 4.87924 -1.55919
      vertex -0.492456 5 -5
      vertex -9.36934 3.75 -5
    endloop
  endfacet
  facet normal -0.139439 0.990231 0
    outer loop
      vertex -1.35 4.87924 -1.55919
      vertex -9.36934 3.75 -5
      vertex -9.36934 3.75 3
    endloop
  endfacet
  facet normal -0.831463 0.555581 0
    outer loop
      vertex -12.3232 1.77629 -5
      vertex -11.9128 2.39048 3
      vertex -11.9128 2.39048 -5
    endloop
  endfacet
  facet normal -0.831463 0.555581 0
    outer loop
      vertex -11.9128 2.39048 3
      vertex -12.3232 1.77629 -5
      vertex -12.3232 1.77629 3
    endloop
  endfacet
  facet normal 0.831467 0.555574 0
    outer loop
      vertex 4.43094 2.36839 3
      vertex 3.88375 3.18731 -5
      vertex 3.88375 3.18731 3
    endloop
  endfacet
  facet normal 0.831467 0.555574 0
    outer loop
      vertex 3.88375 3.18731 -5
      vertex 4.43094 2.36839 3
      vertex 4.43094 2.36839 -5
    endloop
  endfacet
  facet normal 0.382684 0.923879 -0
    outer loop
      vertex 2.36839 4.43094 -5
      vertex 1.45845 4.80785 3
      vertex 2.36839 4.43094 3
    endloop
  endfacet
  facet normal 0.382684 0.923879 0
    outer loop
      vertex 1.45845 4.80785 3
      vertex 2.36839 4.43094 -5
      vertex 1.45845 4.80785 -5
    endloop
  endfacet
  facet normal 0 1 -0
    outer loop
      vertex 0.492456 5 -5
      vertex -0.492456 5 -2.35
      vertex 0.492456 5 -2.35
    endloop
  endfacet
  facet normal 0 1 0
    outer loop
      vertex -0.492456 5 -2.35
      vertex 0.492456 5 -5
      vertex -0.492456 5 -5
    endloop
  endfacet
  facet normal 0 1 -0
    outer loop
      vertex 0.492456 5 0.349999
      vertex -0.492456 5 3
      vertex 0.492456 5 3
    endloop
  endfacet
  facet normal 0 1 0
    outer loop
      vertex -0.492456 5 3
      vertex 0.492456 5 0.349999
      vertex -0.492456 5 0.349999
    endloop
  endfacet
  facet normal -0.555565 0.831473 0
    outer loop
      vertex -10.7763 3.32321 -5
      vertex -11.3905 2.91282 3
      vertex -10.7763 3.32321 3
    endloop
  endfacet
  facet normal -0.555565 0.831473 0
    outer loop
      vertex -11.3905 2.91282 3
      vertex -10.7763 3.32321 -5
      vertex -11.3905 2.91282 -5
    endloop
  endfacet
  facet normal -0.195098 0.980784 0
    outer loop
      vertex -9.36934 3.75 -5
      vertex -10.0938 3.60589 3
      vertex -9.36934 3.75 3
    endloop
  endfacet
  facet normal -0.195098 0.980784 0
    outer loop
      vertex -10.0938 3.60589 3
      vertex -9.36934 3.75 -5
      vertex -10.0938 3.60589 -5
    endloop
  endfacet
  facet normal -0.382659 0.923889 0
    outer loop
      vertex -10.0938 3.60589 -5
      vertex -10.7763 3.32321 3
      vertex -10.0938 3.60589 3
    endloop
  endfacet
  facet normal -0.382659 0.923889 0
    outer loop
      vertex -10.7763 3.32321 3
      vertex -10.0938 3.60589 -5
      vertex -10.7763 3.32321 -5
    endloop
  endfacet
  facet normal 0.980785 0.195092 0
    outer loop
      vertex 5 0.492456 3
      vertex 4.80785 1.45845 -5
      vertex 4.80785 1.45845 3
    endloop
  endfacet
  facet normal 0.980785 0.195092 0
    outer loop
      vertex 4.80785 1.45845 -5
      vertex 5 0.492456 3
      vertex 5 0.492456 -5
    endloop
  endfacet
  facet normal 0.195092 -0.980785 0
    outer loop
      vertex 0.492456 -5 -5
      vertex 1.45845 -4.80785 3
      vertex 0.492456 -5 3
    endloop
  endfacet
  facet normal 0.195092 -0.980785 0
    outer loop
      vertex 1.45845 -4.80785 3
      vertex 0.492456 -5 -5
      vertex 1.45845 -4.80785 -5
    endloop
  endfacet
  facet normal 0.382684 -0.923879 0
    outer loop
      vertex 1.45845 -4.80785 -5
      vertex 2.36839 -4.43094 3
      vertex 1.45845 -4.80785 3
    endloop
  endfacet
  facet normal 0.382684 -0.923879 0
    outer loop
      vertex 2.36839 -4.43094 3
      vertex 1.45845 -4.80785 -5
      vertex 2.36839 -4.43094 -5
    endloop
  endfacet
  facet normal 0.555574 -0.831467 0
    outer loop
      vertex 2.36839 -4.43094 -5
      vertex 3.18731 -3.88375 3
      vertex 2.36839 -4.43094 3
    endloop
  endfacet
  facet normal 0.555574 -0.831467 0
    outer loop
      vertex 3.18731 -3.88375 3
      vertex 2.36839 -4.43094 -5
      vertex 3.18731 -3.88375 -5
    endloop
  endfacet
  facet normal 0.831467 -0.555574 0
    outer loop
      vertex 3.88375 -3.18731 3
      vertex 4.43094 -2.36839 -5
      vertex 4.43094 -2.36839 3
    endloop
  endfacet
  facet normal 0.831467 -0.555574 0
    outer loop
      vertex 4.43094 -2.36839 -5
      vertex 3.88375 -3.18731 3
      vertex 3.88375 -3.18731 -5
    endloop
  endfacet
  facet normal -0.195098 -0.980784 0
    outer loop
      vertex -10.0938 -3.60589 -5
      vertex -9.36934 -3.75 3
      vertex -10.0938 -3.60589 3
    endloop
  endfacet
  facet normal -0.195098 -0.980784 -0
    outer loop
      vertex -9.36934 -3.75 3
      vertex -10.0938 -3.60589 -5
      vertex -9.36934 -3.75 -5
    endloop
  endfacet
  facet normal -0.923872 -0.382702 0
    outer loop
      vertex -12.3232 -1.77629 -5
      vertex -12.6059 -1.09383 3
      vertex -12.6059 -1.09383 -5
    endloop
  endfacet
  facet normal -0.923872 -0.382702 0
    outer loop
      vertex -12.6059 -1.09383 3
      vertex -12.3232 -1.77629 -5
      vertex -12.3232 -1.77629 3
    endloop
  endfacet
  facet normal -0.707134 -0.70708 0
    outer loop
      vertex -11.3905 -2.91282 -5
      vertex -11.9128 -2.39048 3
      vertex -11.9128 -2.39048 -5
    endloop
  endfacet
  facet normal -0.707134 -0.70708 0
    outer loop
      vertex -11.9128 -2.39048 3
      vertex -11.3905 -2.91282 -5
      vertex -11.3905 -2.91282 3
    endloop
  endfacet
  facet normal -0.980788 -0.195078 0
    outer loop
      vertex -12.6059 -1.09383 -5
      vertex -12.75 -0.369342 3
      vertex -12.75 -0.369342 -5
    endloop
  endfacet
  facet normal -0.980788 -0.195078 0
    outer loop
      vertex -12.75 -0.369342 3
      vertex -12.6059 -1.09383 -5
      vertex -12.6059 -1.09383 3
    endloop
  endfacet
  facet normal 0 0 -1
    outer loop
      vertex 2.6 -0.517172 -5
      vertex 5 -0.492456 -5
      vertex 4.80785 -1.45845 -5
    endloop
  endfacet
  facet normal -0 0 -1
    outer loop
      vertex 5 -0.492456 -5
      vertex 2.6 -0.517172 -5
      vertex 5 0.492456 -5
    endloop
  endfacet
  facet normal 0 0 -1
    outer loop
      vertex 2.6 -0.517172 -5
      vertex 4.80785 -1.45845 -5
      vertex 4.43094 -2.36839 -5
    endloop
  endfacet
  facet normal 0 0 -1
    outer loop
      vertex 2.6 0.517172 -5
      vertex 5 0.492456 -5
      vertex 2.6 -0.517172 -5
    endloop
  endfacet
  facet normal 0 0 -1
    outer loop
      vertex 2.20417 -1.47278 -5
      vertex 4.43094 -2.36839 -5
      vertex 3.88375 -3.18731 -5
    endloop
  endfacet
  facet normal 0 0 -1
    outer loop
      vertex 5 0.492456 -5
      vertex 2.6 0.517172 -5
      vertex 4.80785 1.45845 -5
    endloop
  endfacet
  facet normal 0 0 -1
    outer loop
      vertex 2.20417 -1.47278 -5
      vertex 3.88375 -3.18731 -5
      vertex 3.18731 -3.88375 -5
    endloop
  endfacet
  facet normal -0 0 -1
    outer loop
      vertex 4.80785 1.45845 -5
      vertex 2.6 0.517172 -5
      vertex 4.43094 2.36839 -5
    endloop
  endfacet
  facet normal 0 0 -1
    outer loop
      vertex 2.20417 1.47278 -5
      vertex 4.43094 2.36839 -5
      vertex 2.6 0.517172 -5
    endloop
  endfacet
  facet normal 0 0 -1
    outer loop
      vertex 1.47278 -2.20417 -5
      vertex 3.18731 -3.88375 -5
      vertex 2.36839 -4.43094 -5
    endloop
  endfacet
  facet normal 0 0 -1
    outer loop
      vertex 4.43094 -2.36839 -5
      vertex 2.20417 -1.47278 -5
      vertex 2.6 -0.517172 -5
    endloop
  endfacet
  facet normal 0 0 -1
    outer loop
      vertex 3.18731 -3.88375 -5
      vertex 1.47278 -2.20417 -5
      vertex 2.20417 -1.47278 -5
    endloop
  endfacet
  facet normal 0 0 -1
    outer loop
      vertex 1.45845 -4.80785 -5
      vertex 1.47278 -2.20417 -5
      vertex 2.36839 -4.43094 -5
    endloop
  endfacet
  facet normal 0 0 -1
    outer loop
      vertex 1.45845 -4.80785 -5
      vertex 0.517172 -2.6 -5
      vertex 1.47278 -2.20417 -5
    endloop
  endfacet
  facet normal 0 0 -1
    outer loop
      vertex 0.492456 -5 -5
      vertex 0.517172 -2.6 -5
      vertex 1.45845 -4.80785 -5
    endloop
  endfacet
  facet normal 0 0 -1
    outer loop
      vertex -0.492456 -5 -5
      vertex 0.517172 -2.6 -5
      vertex 0.492456 -5 -5
    endloop
  endfacet
  facet normal 0 0 -1
    outer loop
      vertex -0.492456 -5 -5
      vertex -0.517172 -2.6 -5
      vertex 0.517172 -2.6 -5
    endloop
  endfacet
  facet normal 0 0 -1
    outer loop
      vertex -0.492456 -5 -5
      vertex -1.47278 -2.20417 -5
      vertex -0.517172 -2.6 -5
    endloop
  endfacet
  facet normal 0 0 -1
    outer loop
      vertex -0.492456 -5 -5
      vertex -2.20417 -1.47278 -5
      vertex -1.47278 -2.20417 -5
    endloop
  endfacet
  facet normal -0 0 -1
    outer loop
      vertex -2.6 -0.517172 -5
      vertex -9.36934 -3.75 -5
      vertex -2.6 0.517172 -5
    endloop
  endfacet
  facet normal -0 0 -1
    outer loop
      vertex -2.20417 -1.47278 -5
      vertex -9.36934 -3.75 -5
      vertex -2.6 -0.517172 -5
    endloop
  endfacet
  facet normal 0 0 -1
    outer loop
      vertex -9.36934 -3.75 -5
      vertex -2.20417 -1.47278 -5
      vertex -0.492456 -5 -5
    endloop
  endfacet
  facet normal -0 0 -1
    outer loop
      vertex 4.43094 2.36839 -5
      vertex 2.20417 1.47278 -5
      vertex 3.88375 3.18731 -5
    endloop
  endfacet
  facet normal 0 0 -1
    outer loop
      vertex 1.57695 2.1 -5
      vertex 3.88375 3.18731 -5
      vertex 2.20417 1.47278 -5
    endloop
  endfacet
  facet normal -0 0 -1
    outer loop
      vertex 3.88375 3.18731 -5
      vertex 1.57695 2.1 -5
      vertex 3.18731 3.88375 -5
    endloop
  endfacet
  facet normal -0 0 -1
    outer loop
      vertex 3.18731 3.88375 -5
      vertex 1.57695 2.1 -5
      vertex 2.36839 4.43094 -5
    endloop
  endfacet
  facet normal 0 0 -1
    outer loop
      vertex 1.57695 2.1 -5
      vertex 1.45845 4.80785 -5
      vertex 2.36839 4.43094 -5
    endloop
  endfacet
  facet normal 0 0 -1
    outer loop
      vertex 1.57695 2.1 -5
      vertex 0.492456 5 -5
      vertex 1.45845 4.80785 -5
    endloop
  endfacet
  facet normal 0 0 -1
    outer loop
      vertex 1.57695 2.1 -5
      vertex -0.492456 5 -5
      vertex 0.492456 5 -5
    endloop
  endfacet
  facet normal 0 0 -1
    outer loop
      vertex -1.57695 2.1 -5
      vertex -0.492456 5 -5
      vertex 1.57695 2.1 -5
    endloop
  endfacet
  facet normal 0 0 -1
    outer loop
      vertex -9.36934 3.75 -5
      vertex -1.57695 2.1 -5
      vertex -2.20417 1.47278 -5
    endloop
  endfacet
  facet normal 0 0 -1
    outer loop
      vertex -9.36934 3.75 -5
      vertex -2.6 0.517172 -5
      vertex -9.36934 -3.75 -5
    endloop
  endfacet
  facet normal 0 0 -1
    outer loop
      vertex -2.6 0.517172 -5
      vertex -9.36934 3.75 -5
      vertex -2.20417 1.47278 -5
    endloop
  endfacet
  facet normal 0 0 -1
    outer loop
      vertex -1.57695 2.1 -5
      vertex -9.36934 3.75 -5
      vertex -0.492456 5 -5
    endloop
  endfacet
  facet normal 0 0 -1
    outer loop
      vertex -10.0938 -3.60589 -5
      vertex -9.36934 3.75 -5
      vertex -9.36934 -3.75 -5
    endloop
  endfacet
  facet normal 0 0 -1
    outer loop
      vertex -10.0938 -3.60589 -5
      vertex -10.0938 3.60589 -5
      vertex -9.36934 3.75 -5
    endloop
  endfacet
  facet normal 0 0 -1
    outer loop
      vertex -10.7763 -3.32321 -5
      vertex -10.0938 3.60589 -5
      vertex -10.0938 -3.60589 -5
    endloop
  endfacet
  facet normal 0 0 -1
    outer loop
      vertex -10.7763 -3.32321 -5
      vertex -10.7763 3.32321 -5
      vertex -10.0938 3.60589 -5
    endloop
  endfacet
  facet normal 0 0 -1
    outer loop
      vertex -11.3905 -2.91282 -5
      vertex -10.7763 3.32321 -5
      vertex -10.7763 -3.32321 -5
    endloop
  endfacet
  facet normal 0 0 -1
    outer loop
      vertex -11.3905 -2.91282 -5
      vertex -11.3905 2.91282 -5
      vertex -10.7763 3.32321 -5
    endloop
  endfacet
  facet normal 0 0 -1
    outer loop
      vertex -11.9128 -2.39048 -5
      vertex -11.3905 2.91282 -5
      vertex -11.3905 -2.91282 -5
    endloop
  endfacet
  facet normal 0 0 -1
    outer loop
      vertex -11.9128 -2.39048 -5
      vertex -11.9128 2.39048 -5
      vertex -11.3905 2.91282 -5
    endloop
  endfacet
  facet normal 0 0 -1
    outer loop
      vertex -12.3232 -1.77629 -5
      vertex -11.9128 2.39048 -5
      vertex -11.9128 -2.39048 -5
    endloop
  endfacet
  facet normal 0 0 -1
    outer loop
      vertex -12.3232 -1.77629 -5
      vertex -12.3232 1.77629 -5
      vertex -11.9128 2.39048 -5
    endloop
  endfacet
  facet normal 0 0 -1
    outer loop
      vertex -12.6059 -1.09383 -5
      vertex -12.3232 1.77629 -5
      vertex -12.3232 -1.77629 -5
    endloop
  endfacet
  facet normal 0 0 -1
    outer loop
      vertex -12.6059 -1.09383 -5
      vertex -12.6059 1.09383 -5
      vertex -12.3232 1.77629 -5
    endloop
  endfacet
  facet normal 0 0 -1
    outer loop
      vertex -12.75 -0.369342 -5
      vertex -12.6059 1.09383 -5
      vertex -12.6059 -1.09383 -5
    endloop
  endfacet
  facet normal 0 0 -1
    outer loop
      vertex -12.6059 1.09383 -5
      vertex -12.75 -0.369342 -5
      vertex -12.75 0.369342 -5
    endloop
  endfacet
  facet normal 0.923879 0.382684 0
    outer loop
      vertex 4.80785 1.45845 3
      vertex 4.43094 2.36839 -5
      vertex 4.43094 2.36839 3
    endloop
  endfacet
  facet normal 0.923879 0.382684 0
    outer loop
      vertex 4.43094 2.36839 -5
      vertex 4.80785 1.45845 3
      vertex 4.80785 1.45845 -5
    endloop
  endfacet
  facet normal 0.195092 0.980785 1.46106e-06
    outer loop
      vertex 1.45845 4.80785 3
      vertex 0.559188 4.98673 0.349999
      vertex 0.492456 5 3
    endloop
  endfacet
  facet normal 0.195099 0.980784 -8.57736e-07
    outer loop
      vertex 1.45845 4.80785 3
      vertex 1.35 4.82942 -0.440811
      vertex 0.559188 4.98673 0.349999
    endloop
  endfacet
  facet normal 0.195073 0.980789 0
    outer loop
      vertex 1.45845 4.80785 3
      vertex 1.35 4.82942 -1.55919
      vertex 1.35 4.82942 -0.440811
    endloop
  endfacet
  facet normal 0.195073 0.980789 -0
    outer loop
      vertex 1.45845 4.80785 -5
      vertex 1.35 4.82942 -1.55919
      vertex 1.45845 4.80785 3
    endloop
  endfacet
  facet normal 0.195099 0.980784 8.57736e-07
    outer loop
      vertex 1.45845 4.80785 -5
      vertex 0.559188 4.98673 -2.35
      vertex 1.35 4.82942 -1.55919
    endloop
  endfacet
  facet normal 0.195092 0.980785 -1.46106e-06
    outer loop
      vertex 0.492456 5 -5
      vertex 0.559188 4.98673 -2.35
      vertex 1.45845 4.80785 -5
    endloop
  endfacet
  facet normal 0.195036 0.980796 0
    outer loop
      vertex 0.559188 4.98673 -2.35
      vertex 0.492456 5 -5
      vertex 0.492456 5 -2.35
    endloop
  endfacet
  facet normal 0.195036 0.980796 0
    outer loop
      vertex 0.492456 5 3
      vertex 0.559188 4.98673 0.349999
      vertex 0.492456 5 0.349999
    endloop
  endfacet
  facet normal -1 0 0
    outer loop
      vertex -12.75 -0.369342 -5
      vertex -12.75 0.369342 3
      vertex -12.75 0.369342 -5
    endloop
  endfacet
  facet normal -1 -0 0
    outer loop
      vertex -12.75 0.369342 3
      vertex -12.75 -0.369342 -5
      vertex -12.75 -0.369342 3
    endloop
  endfacet
  facet normal -0.707134 0.70708 0
    outer loop
      vertex -11.9128 2.39048 -5
      vertex -11.3905 2.91282 3
      vertex -11.3905 2.91282 -5
    endloop
  endfacet
  facet normal -0.707134 0.70708 0
    outer loop
      vertex -11.3905 2.91282 3
      vertex -11.9128 2.39048 -5
      vertex -11.9128 2.39048 3
    endloop
  endfacet
  facet normal 1 -0 0
    outer loop
      vertex 5 -0.492456 3
      vertex 5 0.492456 -5
      vertex 5 0.492456 3
    endloop
  endfacet
  facet normal 1 0 0
    outer loop
      vertex 5 0.492456 -5
      vertex 5 -0.492456 3
      vertex 5 -0.492456 -5
    endloop
  endfacet
  facet normal 0.980785 -0.195092 0
    outer loop
      vertex 4.80785 -1.45845 3
      vertex 5 -0.492456 -5
      vertex 5 -0.492456 3
    endloop
  endfacet
  facet normal 0.980785 -0.195092 0
    outer loop
      vertex 5 -0.492456 -5
      vertex 4.80785 -1.45845 3
      vertex 4.80785 -1.45845 -5
    endloop
  endfacet
  facet normal 0.707107 -0.707107 0
    outer loop
      vertex 3.18731 -3.88375 3
      vertex 3.88375 -3.18731 -5
      vertex 3.88375 -3.18731 3
    endloop
  endfacet
  facet normal 0.707107 -0.707107 0
    outer loop
      vertex 3.88375 -3.18731 -5
      vertex 3.18731 -3.88375 3
      vertex 3.18731 -3.88375 -5
    endloop
  endfacet
  facet normal 0.923879 -0.382684 0
    outer loop
      vertex 4.43094 -2.36839 3
      vertex 4.80785 -1.45845 -5
      vertex 4.80785 -1.45845 3
    endloop
  endfacet
  facet normal 0.923879 -0.382684 0
    outer loop
      vertex 4.80785 -1.45845 -5
      vertex 4.43094 -2.36839 3
      vertex 4.43094 -2.36839 -5
    endloop
  endfacet
  facet normal -0.139439 -0.990231 0
    outer loop
      vertex -9.36934 -3.75 -5
      vertex -0.492456 -5 3
      vertex -9.36934 -3.75 3
    endloop
  endfacet
  facet normal -0.139439 -0.990231 -0
    outer loop
      vertex -0.492456 -5 3
      vertex -9.36934 -3.75 -5
      vertex -0.492456 -5 -5
    endloop
  endfacet
  facet normal -0.831463 -0.555581 0
    outer loop
      vertex -11.9128 -2.39048 -5
      vertex -12.3232 -1.77629 3
      vertex -12.3232 -1.77629 -5
    endloop
  endfacet
  facet normal -0.831463 -0.555581 0
    outer loop
      vertex -12.3232 -1.77629 3
      vertex -11.9128 -2.39048 -5
      vertex -11.9128 -2.39048 3
    endloop
  endfacet
  facet normal -0.555565 -0.831473 0
    outer loop
      vertex -11.3905 -2.91282 -5
      vertex -10.7763 -3.32321 3
      vertex -11.3905 -2.91282 3
    endloop
  endfacet
  facet normal -0.555565 -0.831473 -0
    outer loop
      vertex -10.7763 -3.32321 3
      vertex -11.3905 -2.91282 -5
      vertex -10.7763 -3.32321 -5
    endloop
  endfacet
  facet normal -0 0 1
    outer loop
      vertex 2.6 0.517172 3
      vertex 5 0.492456 3
      vertex 4.80785 1.45845 3
    endloop
  endfacet
  facet normal 0 0 1
    outer loop
      vertex 5 0.492456 3
      vertex 2.6 0.517172 3
      vertex 5 -0.492456 3
    endloop
  endfacet
  facet normal 0 0 1
    outer loop
      vertex 2.6 0.517172 3
      vertex 4.80785 1.45845 3
      vertex 4.43094 2.36839 3
    endloop
  endfacet
  facet normal 0 0 1
    outer loop
      vertex 2.6 -0.517172 3
      vertex 5 -0.492456 3
      vertex 2.6 0.517172 3
    endloop
  endfacet
  facet normal 0 0 1
    outer loop
      vertex 2.20417 1.47278 3
      vertex 4.43094 2.36839 3
      vertex 3.88375 3.18731 3
    endloop
  endfacet
  facet normal 0 0 1
    outer loop
      vertex 5 -0.492456 3
      vertex 2.6 -0.517172 3
      vertex 4.80785 -1.45845 3
    endloop
  endfacet
  facet normal 0 0 1
    outer loop
      vertex 1.57695 2.1 3
      vertex 3.88375 3.18731 3
      vertex 3.18731 3.88375 3
    endloop
  endfacet
  facet normal 0 0 1
    outer loop
      vertex 4.80785 -1.45845 3
      vertex 2.6 -0.517172 3
      vertex 4.43094 -2.36839 3
    endloop
  endfacet
  facet normal -0 0 1
    outer loop
      vertex 2.20417 -1.47278 3
      vertex 4.43094 -2.36839 3
      vertex 2.6 -0.517172 3
    endloop
  endfacet
  facet normal 0 0 1
    outer loop
      vertex 1.57695 2.1 3
      vertex 3.18731 3.88375 3
      vertex 2.36839 4.43094 3
    endloop
  endfacet
  facet normal 0 0 1
    outer loop
      vertex 4.43094 2.36839 3
      vertex 2.20417 1.47278 3
      vertex 2.6 0.517172 3
    endloop
  endfacet
  facet normal 0 0 1
    outer loop
      vertex 3.88375 3.18731 3
      vertex 1.57695 2.1 3
      vertex 2.20417 1.47278 3
    endloop
  endfacet
  facet normal 0 0 1
    outer loop
      vertex 1.45845 4.80785 3
      vertex 1.57695 2.1 3
      vertex 2.36839 4.43094 3
    endloop
  endfacet
  facet normal 0 0 1
    outer loop
      vertex 0.492456 5 3
      vertex 1.57695 2.1 3
      vertex 1.45845 4.80785 3
    endloop
  endfacet
  facet normal -0 0 1
    outer loop
      vertex -0.492456 5 3
      vertex 1.57695 2.1 3
      vertex 0.492456 5 3
    endloop
  endfacet
  facet normal 0 0 1
    outer loop
      vertex -0.492456 5 3
      vertex -1.57695 2.1 3
      vertex 1.57695 2.1 3
    endloop
  endfacet
  facet normal -0 0 1
    outer loop
      vertex -9.36934 3.75 3
      vertex -1.57695 2.1 3
      vertex -0.492456 5 3
    endloop
  endfacet
  facet normal 0 0 1
    outer loop
      vertex -2.6 0.517172 3
      vertex -9.36934 3.75 3
      vertex -2.6 -0.517172 3
    endloop
  endfacet
  facet normal 0 0 1
    outer loop
      vertex -2.20417 1.47278 3
      vertex -9.36934 3.75 3
      vertex -2.6 0.517172 3
    endloop
  endfacet
  facet normal 0 0 1
    outer loop
      vertex -1.57695 2.1 3
      vertex -9.36934 3.75 3
      vertex -2.20417 1.47278 3
    endloop
  endfacet
  facet normal 0 0 1
    outer loop
      vertex 4.43094 -2.36839 3
      vertex 2.20417 -1.47278 3
      vertex 3.88375 -3.18731 3
    endloop
  endfacet
  facet normal 0 0 1
    outer loop
      vertex 3.88375 -3.18731 3
      vertex 2.20417 -1.47278 3
      vertex 3.18731 -3.88375 3
    endloop
  endfacet
  facet normal -0 0 1
    outer loop
      vertex 1.47278 -2.20417 3
      vertex 3.18731 -3.88375 3
      vertex 2.20417 -1.47278 3
    endloop
  endfacet
  facet normal 0 0 1
    outer loop
      vertex 3.18731 -3.88375 3
      vertex 1.47278 -2.20417 3
      vertex 2.36839 -4.43094 3
    endloop
  endfacet
  facet normal 0 0 1
    outer loop
      vertex 1.47278 -2.20417 3
      vertex 1.45845 -4.80785 3
      vertex 2.36839 -4.43094 3
    endloop
  endfacet
  facet normal -0 0 1
    outer loop
      vertex 0.517172 -2.6 3
      vertex 1.45845 -4.80785 3
      vertex 1.47278 -2.20417 3
    endloop
  endfacet
  facet normal 0 0 1
    outer loop
      vertex 0.517172 -2.6 3
      vertex 0.492456 -5 3
      vertex 1.45845 -4.80785 3
    endloop
  endfacet
  facet normal 0 0 1
    outer loop
      vertex 0.517172 -2.6 3
      vertex -0.492456 -5 3
      vertex 0.492456 -5 3
    endloop
  endfacet
  facet normal -0 0 1
    outer loop
      vertex -0.517172 -2.6 3
      vertex -0.492456 -5 3
      vertex 0.517172 -2.6 3
    endloop
  endfacet
  facet normal 0 0 1
    outer loop
      vertex -1.47278 -2.20417 3
      vertex -0.492456 -5 3
      vertex -0.517172 -2.6 3
    endloop
  endfacet
  facet normal 0 0 1
    outer loop
      vertex -2.20417 -1.47278 3
      vertex -0.492456 -5 3
      vertex -1.47278 -2.20417 3
    endloop
  endfacet
  facet normal 0 0 1
    outer loop
      vertex -9.36934 -3.75 3
      vertex -2.6 -0.517172 3
      vertex -9.36934 3.75 3
    endloop
  endfacet
  facet normal 0 0 1
    outer loop
      vertex -2.6 -0.517172 3
      vertex -9.36934 -3.75 3
      vertex -2.20417 -1.47278 3
    endloop
  endfacet
  facet normal 0 0 1
    outer loop
      vertex -2.20417 -1.47278 3
      vertex -9.36934 -3.75 3
      vertex -0.492456 -5 3
    endloop
  endfacet
  facet normal -0 0 1
    outer loop
      vertex -10.0938 3.60589 3
      vertex -9.36934 -3.75 3
      vertex -9.36934 3.75 3
    endloop
  endfacet
  facet normal 0 0 1
    outer loop
      vertex -10.0938 3.60589 3
      vertex -10.0938 -3.60589 3
      vertex -9.36934 -3.75 3
    endloop
  endfacet
  facet normal -0 0 1
    outer loop
      vertex -10.7763 3.32321 3
      vertex -10.0938 -3.60589 3
      vertex -10.0938 3.60589 3
    endloop
  endfacet
  facet normal 0 0 1
    outer loop
      vertex -10.7763 3.32321 3
      vertex -10.7763 -3.32321 3
      vertex -10.0938 -3.60589 3
    endloop
  endfacet
  facet normal -0 0 1
    outer loop
      vertex -11.3905 2.91282 3
      vertex -10.7763 -3.32321 3
      vertex -10.7763 3.32321 3
    endloop
  endfacet
  facet normal 0 0 1
    outer loop
      vertex -11.3905 2.91282 3
      vertex -11.3905 -2.91282 3
      vertex -10.7763 -3.32321 3
    endloop
  endfacet
  facet normal -0 0 1
    outer loop
      vertex -11.9128 2.39048 3
      vertex -11.3905 -2.91282 3
      vertex -11.3905 2.91282 3
    endloop
  endfacet
  facet normal 0 0 1
    outer loop
      vertex -11.9128 2.39048 3
      vertex -11.9128 -2.39048 3
      vertex -11.3905 -2.91282 3
    endloop
  endfacet
  facet normal -0 0 1
    outer loop
      vertex -12.3232 1.77629 3
      vertex -11.9128 -2.39048 3
      vertex -11.9128 2.39048 3
    endloop
  endfacet
  facet normal 0 0 1
    outer loop
      vertex -12.3232 1.77629 3
      vertex -12.3232 -1.77629 3
      vertex -11.9128 -2.39048 3
    endloop
  endfacet
  facet normal -0 0 1
    outer loop
      vertex -12.6059 1.09383 3
      vertex -12.3232 -1.77629 3
      vertex -12.3232 1.77629 3
    endloop
  endfacet
  facet normal 0 0 1
    outer loop
      vertex -12.6059 1.09383 3
      vertex -12.6059 -1.09383 3
      vertex -12.3232 -1.77629 3
    endloop
  endfacet
  facet normal -0 0 1
    outer loop
      vertex -12.75 0.369342 3
      vertex -12.6059 -1.09383 3
      vertex -12.6059 1.09383 3
    endloop
  endfacet
  facet normal 0 0 1
    outer loop
      vertex -12.6059 -1.09383 3
      vertex -12.75 0.369342 3
      vertex -12.75 -0.369342 3
    endloop
  endfacet
  facet normal -0.980788 0.195078 0
    outer loop
      vertex -12.75 0.369342 -5
      vertex -12.6059 1.09383 3
      vertex -12.6059 1.09383 -5
    endloop
  endfacet
  facet normal -0.980788 0.195078 0
    outer loop
      vertex -12.6059 1.09383 3
      vertex -12.75 0.369342 -5
      vertex -12.75 0.369342 3
    endloop
  endfacet
  facet normal -0.382659 -0.923889 0
    outer loop
      vertex -10.7763 -3.32321 -5
      vertex -10.0938 -3.60589 3
      vertex -10.7763 -3.32321 3
    endloop
  endfacet
  facet normal -0.382659 -0.923889 -0
    outer loop
      vertex -10.0938 -3.60589 3
      vertex -10.7763 -3.32321 -5
      vertex -10.0938 -3.60589 -5
    endloop
  endfacet
endsolid OpenSCAD_Model
