  0
SECTION
  2
BLOCKS
  0
ENDSEC
  0
SECTION
  2
ENTITIES
  0
LINE
  8
0
 10
177.566
 20
152.7
 11
-253.766
 21
152.7
  0
LINE
  8
0
 10
-253.766
 20
152.7
 11
-253.766
 21
-198
  0
LINE
  8
0
 10
-253.766
 20
-198
 11
177.566
 21
-198
  0
LINE
  8
0
 10
177.566
 20
-198
 11
177.566
 21
152.7
  0
LINE
  8
0
 10
-140.259
 20
96.975
 11
-140.766
 21
97.0759
  0
LINE
  8
0
 10
-140.766
 20
97.0759
 11
-141.243
 21
97.2737
  0
LINE
  8
0
 10
-141.243
 20
97.2737
 11
-141.673
 21
97.561
  0
LINE
  8
0
 10
-141.673
 20
97.561
 11
-142.039
 21
97.9267
  0
LINE
  8
0
 10
-142.039
 20
97.9267
 11
-142.326
 21
98.3566
  0
LINE
  8
0
 10
-142.326
 20
98.3566
 11
-142.524
 21
98.8343
  0
LINE
  8
0
 10
-142.524
 20
98.8343
 11
-142.625
 21
99.3414
  0
LINE
  8
0
 10
-142.625
 20
99.3414
 11
-142.625
 21
99.8585
  0
LINE
  8
0
 10
-142.625
 20
99.8585
 11
-142.524
 21
100.366
  0
LINE
  8
0
 10
-142.524
 20
100.366
 11
-142.326
 21
100.843
  0
LINE
  8
0
 10
-142.326
 20
100.843
 11
-142.039
 21
101.273
  0
LINE
  8
0
 10
-142.039
 20
101.273
 11
-141.673
 21
101.639
  0
LINE
  8
0
 10
-141.673
 20
101.639
 11
-141.243
 21
101.926
  0
LINE
  8
0
 10
-141.243
 20
101.926
 11
-140.766
 21
102.124
  0
LINE
  8
0
 10
-140.766
 20
102.124
 11
-140.259
 21
102.225
  0
LINE
  8
0
 10
-140.259
 20
102.225
 11
-139.741
 21
102.225
  0
LINE
  8
0
 10
-139.741
 20
102.225
 11
-139.234
 21
102.124
  0
LINE
  8
0
 10
-139.234
 20
102.124
 11
-138.757
 21
101.926
  0
LINE
  8
0
 10
-138.757
 20
101.926
 11
-138.327
 21
101.639
  0
LINE
  8
0
 10
-138.327
 20
101.639
 11
-137.961
 21
101.273
  0
LINE
  8
0
 10
-137.961
 20
101.273
 11
-137.674
 21
100.843
  0
LINE
  8
0
 10
-137.674
 20
100.843
 11
-137.476
 21
100.366
  0
LINE
  8
0
 10
-137.476
 20
100.366
 11
-137.375
 21
99.8585
  0
LINE
  8
0
 10
-137.375
 20
99.8585
 11
-137.375
 21
99.3414
  0
LINE
  8
0
 10
-137.375
 20
99.3414
 11
-137.476
 21
98.8343
  0
LINE
  8
0
 10
-137.476
 20
98.8343
 11
-137.674
 21
98.3566
  0
LINE
  8
0
 10
-137.674
 20
98.3566
 11
-137.961
 21
97.9267
  0
LINE
  8
0
 10
-137.961
 20
97.9267
 11
-138.327
 21
97.561
  0
LINE
  8
0
 10
-138.327
 20
97.561
 11
-138.757
 21
97.2737
  0
LINE
  8
0
 10
-138.757
 20
97.2737
 11
-139.234
 21
97.0759
  0
LINE
  8
0
 10
-139.234
 20
97.0759
 11
-139.741
 21
96.975
  0
LINE
  8
0
 10
-139.741
 20
96.975
 11
-140.259
 21
96.975
  0
LINE
  8
0
 10
139.741
 20
96.975
 11
139.234
 21
97.0759
  0
LINE
  8
0
 10
139.234
 20
97.0759
 11
138.757
 21
97.2737
  0
LINE
  8
0
 10
138.757
 20
97.2737
 11
138.327
 21
97.561
  0
LINE
  8
0
 10
138.327
 20
97.561
 11
137.961
 21
97.9267
  0
LINE
  8
0
 10
137.961
 20
97.9267
 11
137.674
 21
98.3566
  0
LINE
  8
0
 10
137.674
 20
98.3566
 11
137.476
 21
98.8343
  0
LINE
  8
0
 10
137.476
 20
98.8343
 11
137.375
 21
99.3414
  0
LINE
  8
0
 10
137.375
 20
99.3414
 11
137.375
 21
99.8585
  0
LINE
  8
0
 10
137.375
 20
99.8585
 11
137.476
 21
100.366
  0
LINE
  8
0
 10
137.476
 20
100.366
 11
137.674
 21
100.843
  0
LINE
  8
0
 10
137.674
 20
100.843
 11
137.961
 21
101.273
  0
LINE
  8
0
 10
137.961
 20
101.273
 11
138.327
 21
101.639
  0
LINE
  8
0
 10
138.327
 20
101.639
 11
138.757
 21
101.926
  0
LINE
  8
0
 10
138.757
 20
101.926
 11
139.234
 21
102.124
  0
LINE
  8
0
 10
139.234
 20
102.124
 11
139.741
 21
102.225
  0
LINE
  8
0
 10
139.741
 20
102.225
 11
140.259
 21
102.225
  0
LINE
  8
0
 10
140.259
 20
102.225
 11
140.766
 21
102.124
  0
LINE
  8
0
 10
140.766
 20
102.124
 11
141.243
 21
101.926
  0
LINE
  8
0
 10
141.243
 20
101.926
 11
141.673
 21
101.639
  0
LINE
  8
0
 10
141.673
 20
101.639
 11
142.039
 21
101.273
  0
LINE
  8
0
 10
142.039
 20
101.273
 11
142.326
 21
100.843
  0
LINE
  8
0
 10
142.326
 20
100.843
 11
142.524
 21
100.366
  0
LINE
  8
0
 10
142.524
 20
100.366
 11
142.625
 21
99.8585
  0
LINE
  8
0
 10
142.625
 20
99.8585
 11
142.625
 21
99.3414
  0
LINE
  8
0
 10
142.625
 20
99.3414
 11
142.524
 21
98.8343
  0
LINE
  8
0
 10
142.524
 20
98.8343
 11
142.326
 21
98.3566
  0
LINE
  8
0
 10
142.326
 20
98.3566
 11
142.039
 21
97.9267
  0
LINE
  8
0
 10
142.039
 20
97.9267
 11
141.673
 21
97.561
  0
LINE
  8
0
 10
141.673
 20
97.561
 11
141.243
 21
97.2737
  0
LINE
  8
0
 10
141.243
 20
97.2737
 11
140.766
 21
97.0759
  0
LINE
  8
0
 10
140.766
 20
97.0759
 11
140.259
 21
96.975
  0
LINE
  8
0
 10
140.259
 20
96.975
 11
139.741
 21
96.975
  0
LINE
  8
0
 10
-140.259
 20
-102.225
 11
-140.766
 21
-102.124
  0
LINE
  8
0
 10
-140.766
 20
-102.124
 11
-141.243
 21
-101.926
  0
LINE
  8
0
 10
-141.243
 20
-101.926
 11
-141.673
 21
-101.639
  0
LINE
  8
0
 10
-141.673
 20
-101.639
 11
-142.039
 21
-101.273
  0
LINE
  8
0
 10
-142.039
 20
-101.273
 11
-142.326
 21
-100.843
  0
LINE
  8
0
 10
-142.326
 20
-100.843
 11
-142.524
 21
-100.366
  0
LINE
  8
0
 10
-142.524
 20
-100.366
 11
-142.625
 21
-99.8585
  0
LINE
  8
0
 10
-142.625
 20
-99.8585
 11
-142.625
 21
-99.3415
  0
LINE
  8
0
 10
-142.625
 20
-99.3415
 11
-142.524
 21
-98.8343
  0
LINE
  8
0
 10
-142.524
 20
-98.8343
 11
-142.326
 21
-98.3566
  0
LINE
  8
0
 10
-142.326
 20
-98.3566
 11
-142.039
 21
-97.9267
  0
LINE
  8
0
 10
-142.039
 20
-97.9267
 11
-141.673
 21
-97.561
  0
LINE
  8
0
 10
-141.673
 20
-97.561
 11
-141.243
 21
-97.2738
  0
LINE
  8
0
 10
-141.243
 20
-97.2738
 11
-140.766
 21
-97.0759
  0
LINE
  8
0
 10
-140.766
 20
-97.0759
 11
-140.259
 21
-96.975
  0
LINE
  8
0
 10
-140.259
 20
-96.975
 11
-139.741
 21
-96.975
  0
LINE
  8
0
 10
-139.741
 20
-96.975
 11
-139.234
 21
-97.0759
  0
LINE
  8
0
 10
-139.234
 20
-97.0759
 11
-138.757
 21
-97.2738
  0
LINE
  8
0
 10
-138.757
 20
-97.2738
 11
-138.327
 21
-97.561
  0
LINE
  8
0
 10
-138.327
 20
-97.561
 11
-137.961
 21
-97.9267
  0
LINE
  8
0
 10
-137.961
 20
-97.9267
 11
-137.674
 21
-98.3566
  0
LINE
  8
0
 10
-137.674
 20
-98.3566
 11
-137.476
 21
-98.8343
  0
LINE
  8
0
 10
-137.476
 20
-98.8343
 11
-137.375
 21
-99.3415
  0
LINE
  8
0
 10
-137.375
 20
-99.3415
 11
-137.375
 21
-99.8585
  0
LINE
  8
0
 10
-137.375
 20
-99.8585
 11
-137.476
 21
-100.366
  0
LINE
  8
0
 10
-137.476
 20
-100.366
 11
-137.674
 21
-100.843
  0
LINE
  8
0
 10
-137.674
 20
-100.843
 11
-137.961
 21
-101.273
  0
LINE
  8
0
 10
-137.961
 20
-101.273
 11
-138.327
 21
-101.639
  0
LINE
  8
0
 10
-138.327
 20
-101.639
 11
-138.757
 21
-101.926
  0
LINE
  8
0
 10
-138.757
 20
-101.926
 11
-139.234
 21
-102.124
  0
LINE
  8
0
 10
-139.234
 20
-102.124
 11
-139.741
 21
-102.225
  0
LINE
  8
0
 10
-139.741
 20
-102.225
 11
-140.259
 21
-102.225
  0
LINE
  8
0
 10
139.741
 20
-102.225
 11
139.234
 21
-102.124
  0
LINE
  8
0
 10
139.234
 20
-102.124
 11
138.757
 21
-101.926
  0
LINE
  8
0
 10
138.757
 20
-101.926
 11
138.327
 21
-101.639
  0
LINE
  8
0
 10
138.327
 20
-101.639
 11
137.961
 21
-101.273
  0
LINE
  8
0
 10
137.961
 20
-101.273
 11
137.674
 21
-100.843
  0
LINE
  8
0
 10
137.674
 20
-100.843
 11
137.476
 21
-100.366
  0
LINE
  8
0
 10
137.476
 20
-100.366
 11
137.375
 21
-99.8585
  0
LINE
  8
0
 10
137.375
 20
-99.8585
 11
137.375
 21
-99.3415
  0
LINE
  8
0
 10
137.375
 20
-99.3415
 11
137.476
 21
-98.8343
  0
LINE
  8
0
 10
137.476
 20
-98.8343
 11
137.674
 21
-98.3566
  0
LINE
  8
0
 10
137.674
 20
-98.3566
 11
137.961
 21
-97.9267
  0
LINE
  8
0
 10
137.961
 20
-97.9267
 11
138.327
 21
-97.561
  0
LINE
  8
0
 10
138.327
 20
-97.561
 11
138.757
 21
-97.2738
  0
LINE
  8
0
 10
138.757
 20
-97.2738
 11
139.234
 21
-97.0759
  0
LINE
  8
0
 10
139.234
 20
-97.0759
 11
139.741
 21
-96.975
  0
LINE
  8
0
 10
139.741
 20
-96.975
 11
140.259
 21
-96.975
  0
LINE
  8
0
 10
140.259
 20
-96.975
 11
140.766
 21
-97.0759
  0
LINE
  8
0
 10
140.766
 20
-97.0759
 11
141.243
 21
-97.2738
  0
LINE
  8
0
 10
141.243
 20
-97.2738
 11
141.673
 21
-97.561
  0
LINE
  8
0
 10
141.673
 20
-97.561
 11
142.039
 21
-97.9267
  0
LINE
  8
0
 10
142.039
 20
-97.9267
 11
142.326
 21
-98.3566
  0
LINE
  8
0
 10
142.326
 20
-98.3566
 11
142.524
 21
-98.8343
  0
LINE
  8
0
 10
142.524
 20
-98.8343
 11
142.625
 21
-99.3415
  0
LINE
  8
0
 10
142.625
 20
-99.3415
 11
142.625
 21
-99.8585
  0
LINE
  8
0
 10
142.625
 20
-99.8585
 11
142.524
 21
-100.366
  0
LINE
  8
0
 10
142.524
 20
-100.366
 11
142.326
 21
-100.843
  0
LINE
  8
0
 10
142.326
 20
-100.843
 11
142.039
 21
-101.273
  0
LINE
  8
0
 10
142.039
 20
-101.273
 11
141.673
 21
-101.639
  0
LINE
  8
0
 10
141.673
 20
-101.639
 11
141.243
 21
-101.926
  0
LINE
  8
0
 10
141.243
 20
-101.926
 11
140.766
 21
-102.124
  0
LINE
  8
0
 10
140.766
 20
-102.124
 11
140.259
 21
-102.225
  0
LINE
  8
0
 10
140.259
 20
-102.225
 11
139.741
 21
-102.225
  0
ENDSEC
  0
SECTION
  2
OBJECTS
  0
DICTIONARY
  0
ENDSEC
  0
EOF
