solid OpenSCAD_Model
  facet normal -0.707107 -0.5 -0.5
    outer loop
      vertex -13.875 -10.4842 -10.4842
      vertex -14.8269 -13.2052 -6.41699
      vertex -14.8269 -9.81111 -9.81111
    endloop
  endfacet
  facet normal -0.707107 -0.5 -0.5
    outer loop
      vertex -14.8269 -13.2052 -6.41699
      vertex -13.875 -10.4842 -10.4842
      vertex -13.875 -13.8783 -7.09009
    endloop
  endfacet
  facet normal 1 0 0
    outer loop
      vertex -17.125 -13.8783 -7.09009
      vertex -17.125 -11.4361 -11.4361
      vertex -17.125 -10.4842 -10.4842
    endloop
  endfacet
  facet normal 1 0 0
    outer loop
      vertex -17.125 -11.4361 -11.4361
      vertex -17.125 -13.8783 -7.09009
      vertex -17.125 -14.8302 -8.04199
    endloop
  endfacet
  facet normal 0.707106 -0.500001 -0.5
    outer loop
      vertex -16.1731 -13.2052 -6.41699
      vertex -17.125 -10.4842 -10.4842
      vertex -16.1731 -9.81111 -9.81111
    endloop
  endfacet
  facet normal 0.707106 -0.500001 -0.5
    outer loop
      vertex -17.125 -10.4842 -10.4842
      vertex -16.1731 -13.2052 -6.41699
      vertex -17.125 -13.8783 -7.09009
    endloop
  endfacet
  facet normal 0 -0.707107 -0.707107
    outer loop
      vertex -16.1731 -9.81111 -9.81111
      vertex -14.8269 -13.2052 -6.41699
      vertex -16.1731 -13.2052 -6.41699
    endloop
  endfacet
  facet normal 0 -0.707107 -0.707107
    outer loop
      vertex -14.8269 -13.2052 -6.41699
      vertex -16.1731 -9.81111 -9.81111
      vertex -14.8269 -9.81111 -9.81111
    endloop
  endfacet
  facet normal -0.707107 0.5 0.5
    outer loop
      vertex -14.8269 -12.1092 -12.1092
      vertex -13.875 -14.8302 -8.04199
      vertex -13.875 -11.4361 -11.4361
    endloop
  endfacet
  facet normal -0.707107 0.5 0.5
    outer loop
      vertex -13.875 -14.8302 -8.04199
      vertex -14.8269 -12.1092 -12.1092
      vertex -14.8269 -15.5033 -8.71509
    endloop
  endfacet
  facet normal 0.707106 0.500001 0.5
    outer loop
      vertex -17.125 -14.8302 -8.04199
      vertex -16.1731 -12.1092 -12.1092
      vertex -17.125 -11.4361 -11.4361
    endloop
  endfacet
  facet normal 0.707107 0.5 0.5
    outer loop
      vertex -16.1731 -12.1092 -12.1092
      vertex -17.125 -14.8302 -8.04199
      vertex -16.1731 -15.5033 -8.71509
    endloop
  endfacet
  facet normal -0 0.707107 0.707107
    outer loop
      vertex -16.1731 -12.1092 -12.1092
      vertex -14.8269 -15.5033 -8.71509
      vertex -14.8269 -12.1092 -12.1092
    endloop
  endfacet
  facet normal 0 0.707107 0.707107
    outer loop
      vertex -14.8269 -15.5033 -8.71509
      vertex -16.1731 -12.1092 -12.1092
      vertex -16.1731 -15.5033 -8.71509
    endloop
  endfacet
  facet normal -1 0 0
    outer loop
      vertex -13.875 -11.4361 -11.4361
      vertex -13.875 -13.8783 -7.09009
      vertex -13.875 -10.4842 -10.4842
    endloop
  endfacet
  facet normal -1 0 -0
    outer loop
      vertex -13.875 -13.8783 -7.09009
      vertex -13.875 -11.4361 -11.4361
      vertex -13.875 -14.8302 -8.04199
    endloop
  endfacet
  facet normal -0.707107 -0.5 -0.5
    outer loop
      vertex -13.875 11.4361 11.4361
      vertex -14.8269 8.71509 15.5033
      vertex -14.8269 12.1092 12.1092
    endloop
  endfacet
  facet normal -0.707107 -0.5 -0.5
    outer loop
      vertex -14.8269 8.71509 15.5033
      vertex -13.875 11.4361 11.4361
      vertex -13.875 8.04199 14.8302
    endloop
  endfacet
  facet normal 1 0 0
    outer loop
      vertex -17.125 8.04199 14.8302
      vertex -17.125 10.4842 10.4842
      vertex -17.125 11.4361 11.4361
    endloop
  endfacet
  facet normal 1 0 0
    outer loop
      vertex -17.125 10.4842 10.4842
      vertex -17.125 8.04199 14.8302
      vertex -17.125 7.09009 13.8783
    endloop
  endfacet
  facet normal 0 -0.707107 -0.707107
    outer loop
      vertex -16.1731 12.1092 12.1092
      vertex -14.8269 8.71509 15.5033
      vertex -16.1731 8.71509 15.5033
    endloop
  endfacet
  facet normal 0 -0.707107 -0.707107
    outer loop
      vertex -14.8269 8.71509 15.5033
      vertex -16.1731 12.1092 12.1092
      vertex -14.8269 12.1092 12.1092
    endloop
  endfacet
  facet normal 0.707106 -0.500001 -0.5
    outer loop
      vertex -16.1731 8.71509 15.5033
      vertex -17.125 11.4361 11.4361
      vertex -16.1731 12.1092 12.1092
    endloop
  endfacet
  facet normal 0.707107 -0.5 -0.5
    outer loop
      vertex -17.125 11.4361 11.4361
      vertex -16.1731 8.71509 15.5033
      vertex -17.125 8.04199 14.8302
    endloop
  endfacet
  facet normal -0.707107 0.5 0.5
    outer loop
      vertex -14.8269 9.81111 9.81111
      vertex -13.875 7.09009 13.8783
      vertex -13.875 10.4842 10.4842
    endloop
  endfacet
  facet normal -0.707107 0.5 0.5
    outer loop
      vertex -13.875 7.09009 13.8783
      vertex -14.8269 9.81111 9.81111
      vertex -14.8269 6.41699 13.2052
    endloop
  endfacet
  facet normal 0.707106 0.5 0.500001
    outer loop
      vertex -17.125 7.09009 13.8783
      vertex -16.1731 9.81111 9.81111
      vertex -17.125 10.4842 10.4842
    endloop
  endfacet
  facet normal 0.707106 0.5 0.500001
    outer loop
      vertex -16.1731 9.81111 9.81111
      vertex -17.125 7.09009 13.8783
      vertex -16.1731 6.41699 13.2052
    endloop
  endfacet
  facet normal -1 0 0
    outer loop
      vertex -13.875 10.4842 10.4842
      vertex -13.875 8.04199 14.8302
      vertex -13.875 11.4361 11.4361
    endloop
  endfacet
  facet normal -1 0 -0
    outer loop
      vertex -13.875 8.04199 14.8302
      vertex -13.875 10.4842 10.4842
      vertex -13.875 7.09009 13.8783
    endloop
  endfacet
  facet normal -0 0.707107 0.707107
    outer loop
      vertex -16.1731 9.81111 9.81111
      vertex -14.8269 6.41699 13.2052
      vertex -14.8269 9.81111 9.81111
    endloop
  endfacet
  facet normal 0 0.707107 0.707107
    outer loop
      vertex -14.8269 6.41699 13.2052
      vertex -16.1731 9.81111 9.81111
      vertex -16.1731 6.41699 13.2052
    endloop
  endfacet
  facet normal -0.707106 -0.500001 -0.5
    outer loop
      vertex 17.125 -10.4842 -10.4842
      vertex 16.1731 -13.2052 -6.41699
      vertex 16.1731 -9.81111 -9.81111
    endloop
  endfacet
  facet normal -0.707106 -0.500001 -0.5
    outer loop
      vertex 16.1731 -13.2052 -6.41699
      vertex 17.125 -10.4842 -10.4842
      vertex 17.125 -13.8783 -7.09009
    endloop
  endfacet
  facet normal -0 0.707107 0.707107
    outer loop
      vertex 14.8269 -12.1092 -12.1092
      vertex 16.1731 -15.5033 -8.71509
      vertex 16.1731 -12.1092 -12.1092
    endloop
  endfacet
  facet normal 0 0.707107 0.707107
    outer loop
      vertex 16.1731 -15.5033 -8.71509
      vertex 14.8269 -12.1092 -12.1092
      vertex 14.8269 -15.5033 -8.71509
    endloop
  endfacet
  facet normal 0.707107 -0.5 -0.5
    outer loop
      vertex 14.8269 -13.2052 -6.41699
      vertex 13.875 -10.4842 -10.4842
      vertex 14.8269 -9.81111 -9.81111
    endloop
  endfacet
  facet normal 0.707107 -0.5 -0.5
    outer loop
      vertex 13.875 -10.4842 -10.4842
      vertex 14.8269 -13.2052 -6.41699
      vertex 13.875 -13.8783 -7.09009
    endloop
  endfacet
  facet normal 0 -0.707107 -0.707107
    outer loop
      vertex 14.8269 -9.81111 -9.81111
      vertex 16.1731 -13.2052 -6.41699
      vertex 14.8269 -13.2052 -6.41699
    endloop
  endfacet
  facet normal 0 -0.707107 -0.707107
    outer loop
      vertex 16.1731 -13.2052 -6.41699
      vertex 14.8269 -9.81111 -9.81111
      vertex 16.1731 -9.81111 -9.81111
    endloop
  endfacet
  facet normal 1 0 0
    outer loop
      vertex 13.875 -13.8783 -7.09009
      vertex 13.875 -11.4361 -11.4361
      vertex 13.875 -10.4842 -10.4842
    endloop
  endfacet
  facet normal 1 0 0
    outer loop
      vertex 13.875 -11.4361 -11.4361
      vertex 13.875 -13.8783 -7.09009
      vertex 13.875 -14.8302 -8.04199
    endloop
  endfacet
  facet normal 0.707107 0.5 0.5
    outer loop
      vertex 13.875 -14.8302 -8.04199
      vertex 14.8269 -12.1092 -12.1092
      vertex 13.875 -11.4361 -11.4361
    endloop
  endfacet
  facet normal 0.707107 0.5 0.5
    outer loop
      vertex 14.8269 -12.1092 -12.1092
      vertex 13.875 -14.8302 -8.04199
      vertex 14.8269 -15.5033 -8.71509
    endloop
  endfacet
  facet normal -0.707106 0.500001 0.5
    outer loop
      vertex 16.1731 -12.1092 -12.1092
      vertex 17.125 -14.8302 -8.04199
      vertex 17.125 -11.4361 -11.4361
    endloop
  endfacet
  facet normal -0.707107 0.5 0.5
    outer loop
      vertex 17.125 -14.8302 -8.04199
      vertex 16.1731 -12.1092 -12.1092
      vertex 16.1731 -15.5033 -8.71509
    endloop
  endfacet
  facet normal -1 0 0
    outer loop
      vertex 17.125 -11.4361 -11.4361
      vertex 17.125 -13.8783 -7.09009
      vertex 17.125 -10.4842 -10.4842
    endloop
  endfacet
  facet normal -1 0 -0
    outer loop
      vertex 17.125 -13.8783 -7.09009
      vertex 17.125 -11.4361 -11.4361
      vertex 17.125 -14.8302 -8.04199
    endloop
  endfacet
  facet normal -0.707106 -0.500001 -0.5
    outer loop
      vertex 17.125 11.4361 11.4361
      vertex 16.1731 8.71509 15.5033
      vertex 16.1731 12.1092 12.1092
    endloop
  endfacet
  facet normal -0.707107 -0.5 -0.5
    outer loop
      vertex 16.1731 8.71509 15.5033
      vertex 17.125 11.4361 11.4361
      vertex 17.125 8.04199 14.8302
    endloop
  endfacet
  facet normal 1 0 0
    outer loop
      vertex 13.875 8.04199 14.8302
      vertex 13.875 10.4842 10.4842
      vertex 13.875 11.4361 11.4361
    endloop
  endfacet
  facet normal 1 0 0
    outer loop
      vertex 13.875 10.4842 10.4842
      vertex 13.875 8.04199 14.8302
      vertex 13.875 7.09009 13.8783
    endloop
  endfacet
  facet normal 0 -0.707107 -0.707107
    outer loop
      vertex 14.8269 12.1092 12.1092
      vertex 16.1731 8.71509 15.5033
      vertex 14.8269 8.71509 15.5033
    endloop
  endfacet
  facet normal 0 -0.707107 -0.707107
    outer loop
      vertex 16.1731 8.71509 15.5033
      vertex 14.8269 12.1092 12.1092
      vertex 16.1731 12.1092 12.1092
    endloop
  endfacet
  facet normal -0.707106 0.5 0.500001
    outer loop
      vertex 16.1731 9.81111 9.81111
      vertex 17.125 7.09009 13.8783
      vertex 17.125 10.4842 10.4842
    endloop
  endfacet
  facet normal -0.707106 0.5 0.500001
    outer loop
      vertex 17.125 7.09009 13.8783
      vertex 16.1731 9.81111 9.81111
      vertex 16.1731 6.41699 13.2052
    endloop
  endfacet
  facet normal 0.707107 -0.5 -0.5
    outer loop
      vertex 14.8269 8.71509 15.5033
      vertex 13.875 11.4361 11.4361
      vertex 14.8269 12.1092 12.1092
    endloop
  endfacet
  facet normal 0.707107 -0.5 -0.5
    outer loop
      vertex 13.875 11.4361 11.4361
      vertex 14.8269 8.71509 15.5033
      vertex 13.875 8.04199 14.8302
    endloop
  endfacet
  facet normal -1 0 0
    outer loop
      vertex 17.125 10.4842 10.4842
      vertex 17.125 8.04199 14.8302
      vertex 17.125 11.4361 11.4361
    endloop
  endfacet
  facet normal -1 0 -0
    outer loop
      vertex 17.125 8.04199 14.8302
      vertex 17.125 10.4842 10.4842
      vertex 17.125 7.09009 13.8783
    endloop
  endfacet
  facet normal -0 0.707107 0.707107
    outer loop
      vertex 14.8269 9.81111 9.81111
      vertex 16.1731 6.41699 13.2052
      vertex 16.1731 9.81111 9.81111
    endloop
  endfacet
  facet normal 0 0.707107 0.707107
    outer loop
      vertex 16.1731 6.41699 13.2052
      vertex 14.8269 9.81111 9.81111
      vertex 14.8269 6.41699 13.2052
    endloop
  endfacet
  facet normal 0.707107 0.5 0.5
    outer loop
      vertex 13.875 7.09009 13.8783
      vertex 14.8269 9.81111 9.81111
      vertex 13.875 10.4842 10.4842
    endloop
  endfacet
  facet normal 0.707107 0.5 0.5
    outer loop
      vertex 14.8269 9.81111 9.81111
      vertex 13.875 7.09009 13.8783
      vertex 14.8269 6.41699 13.2052
    endloop
  endfacet
  facet normal -0.707107 0.5 -0.5
    outer loop
      vertex -3.4412 28.5761 8.90057
      vertex -4.97889 31.0243 13.5234
      vertex -3.4412 32.1116 12.4361
    endloop
  endfacet
  facet normal -0.707107 0.5 -0.5
    outer loop
      vertex -4.97889 31.0243 13.5234
      vertex -3.4412 28.5761 8.90057
      vertex -4.97889 27.4888 9.98788
    endloop
  endfacet
  facet normal 1 0 0
    outer loop
      vertex -8.6912 32.1116 12.4361
      vertex -8.6912 30.1138 7.36288
      vertex -8.6912 33.6493 10.8984
    endloop
  endfacet
  facet normal 1 0 -0
    outer loop
      vertex -8.6912 30.1138 7.36288
      vertex -8.6912 32.1116 12.4361
      vertex -8.6912 28.5761 8.90057
    endloop
  endfacet
  facet normal 0 0.707107 -0.707107
    outer loop
      vertex -4.97889 27.4888 9.98788
      vertex -7.15351 31.0243 13.5234
      vertex -4.97889 31.0243 13.5234
    endloop
  endfacet
  facet normal 0 0.707107 -0.707107
    outer loop
      vertex -7.15351 31.0243 13.5234
      vertex -4.97889 27.4888 9.98788
      vertex -7.15351 27.4888 9.98788
    endloop
  endfacet
  facet normal 0.707107 0.5 -0.5
    outer loop
      vertex -7.15351 31.0243 13.5234
      vertex -8.6912 28.5761 8.90057
      vertex -8.6912 32.1116 12.4361
    endloop
  endfacet
  facet normal 0.707107 0.5 -0.5
    outer loop
      vertex -8.6912 28.5761 8.90057
      vertex -7.15351 31.0243 13.5234
      vertex -7.15351 27.4888 9.98788
    endloop
  endfacet
  facet normal -0.707107 -0.5 0.5
    outer loop
      vertex -4.97889 31.2011 6.27557
      vertex -3.4412 33.6493 10.8984
      vertex -4.97889 34.7366 9.81111
    endloop
  endfacet
  facet normal -0.707107 -0.5 0.5
    outer loop
      vertex -3.4412 33.6493 10.8984
      vertex -4.97889 31.2011 6.27557
      vertex -3.4412 30.1138 7.36288
    endloop
  endfacet
  facet normal 0.707107 -0.5 0.5
    outer loop
      vertex -8.6912 33.6493 10.8984
      vertex -7.15351 31.2011 6.27557
      vertex -7.15351 34.7366 9.81111
    endloop
  endfacet
  facet normal 0.707107 -0.5 0.5
    outer loop
      vertex -7.15351 31.2011 6.27557
      vertex -8.6912 33.6493 10.8984
      vertex -8.6912 30.1138 7.36288
    endloop
  endfacet
  facet normal -1 0 0
    outer loop
      vertex -3.4412 30.1138 7.36288
      vertex -3.4412 32.1116 12.4361
      vertex -3.4412 33.6493 10.8984
    endloop
  endfacet
  facet normal -1 0 0
    outer loop
      vertex -3.4412 32.1116 12.4361
      vertex -3.4412 30.1138 7.36288
      vertex -3.4412 28.5761 8.90057
    endloop
  endfacet
  facet normal 0 -0.707107 0.707107
    outer loop
      vertex -7.15351 34.7366 9.81111
      vertex -4.97889 31.2011 6.27557
      vertex -4.97889 34.7366 9.81111
    endloop
  endfacet
  facet normal 0 -0.707107 0.707107
    outer loop
      vertex -4.97889 31.2011 6.27557
      vertex -7.15351 34.7366 9.81111
      vertex -7.15351 31.2011 6.27557
    endloop
  endfacet
  facet normal -0.707107 0.5 -0.5
    outer loop
      vertex -1.0662 24.4156 6.13137
      vertex -3.99514 25.8094 11.6673
      vertex -1.0662 27.8805 9.59619
    endloop
  endfacet
  facet normal -0.707107 0.5 -0.5
    outer loop
      vertex -3.99514 25.8094 11.6673
      vertex -1.0662 24.4156 6.13137
      vertex -3.99514 22.3446 8.20244
    endloop
  endfacet
  facet normal 1 0 0
    outer loop
      vertex -11.0662 27.8805 9.59619
      vertex -11.0662 27.3446 3.20244
      vertex -11.0662 30.8094 6.66726
    endloop
  endfacet
  facet normal 1 0 -0
    outer loop
      vertex -11.0662 27.3446 3.20244
      vertex -11.0662 27.8805 9.59619
      vertex -11.0662 24.4156 6.13137
    endloop
  endfacet
  facet normal 0 0.707107 -0.707107
    outer loop
      vertex -3.99514 22.3446 8.20244
      vertex -8.13727 25.8094 11.6673
      vertex -3.99514 25.8094 11.6673
    endloop
  endfacet
  facet normal 0 0.707107 -0.707107
    outer loop
      vertex -8.13727 25.8094 11.6673
      vertex -3.99514 22.3446 8.20244
      vertex -8.13727 22.3446 8.20244
    endloop
  endfacet
  facet normal -2.83937e-07 -0.707107 -0.707107
    outer loop
      vertex -1.0662 27.8805 9.59619
      vertex -3.4412 28.5761 8.90057
      vertex -1.0662 30.8094 6.66726
    endloop
  endfacet
  facet normal -2.00773e-07 -0.707107 -0.707107
    outer loop
      vertex -3.99514 25.8094 11.6673
      vertex -3.4412 28.5761 8.90057
      vertex -1.0662 27.8805 9.59619
    endloop
  endfacet
  facet normal 3.10099e-07 -0.707107 -0.707107
    outer loop
      vertex -3.99514 25.8094 11.6673
      vertex -4.97889 27.4888 9.98788
      vertex -3.4412 28.5761 8.90057
    endloop
  endfacet
  facet normal 0 -0.707107 -0.707107
    outer loop
      vertex -3.99514 25.8094 11.6673
      vertex -7.15351 27.4888 9.98788
      vertex -4.97889 27.4888 9.98788
    endloop
  endfacet
  facet normal 0 -0.707107 -0.707107
    outer loop
      vertex -8.13727 25.8094 11.6673
      vertex -7.15351 27.4888 9.98788
      vertex -3.99514 25.8094 11.6673
    endloop
  endfacet
  facet normal -3.10099e-07 -0.707107 -0.707107
    outer loop
      vertex -8.13727 25.8094 11.6673
      vertex -8.6912 28.5761 8.90057
      vertex -7.15351 27.4888 9.98788
    endloop
  endfacet
  facet normal 3.48161e-07 -0.707107 -0.707107
    outer loop
      vertex -8.6912 28.5761 8.90057
      vertex -11.0662 27.8805 9.59619
      vertex -8.6912 30.1138 7.36288
    endloop
  endfacet
  facet normal 2.00773e-07 -0.707107 -0.707107
    outer loop
      vertex -11.0662 27.8805 9.59619
      vertex -8.6912 28.5761 8.90057
      vertex -8.13727 25.8094 11.6673
    endloop
  endfacet
  facet normal -7.77445e-08 -0.707107 -0.707107
    outer loop
      vertex -3.4412 30.1138 7.36288
      vertex -1.0662 30.8094 6.66726
      vertex -3.4412 28.5761 8.90057
    endloop
  endfacet
  facet normal -2.35257e-07 -0.707107 -0.707107
    outer loop
      vertex -3.4412 30.1138 7.36288
      vertex -3.99514 32.8805 4.59619
      vertex -1.0662 30.8094 6.66726
    endloop
  endfacet
  facet normal 5.56597e-07 -0.707107 -0.707107
    outer loop
      vertex -4.97889 31.2011 6.27557
      vertex -3.99514 32.8805 4.59619
      vertex -3.4412 30.1138 7.36288
    endloop
  endfacet
  facet normal 0 -0.707106 -0.707107
    outer loop
      vertex -7.15351 31.2011 6.27557
      vertex -3.99514 32.8805 4.59619
      vertex -4.97889 31.2011 6.27557
    endloop
  endfacet
  facet normal 0 -0.707106 -0.707107
    outer loop
      vertex -7.15351 31.2011 6.27557
      vertex -8.13727 32.8805 4.59619
      vertex -3.99514 32.8805 4.59619
    endloop
  endfacet
  facet normal -5.56597e-07 -0.707107 -0.707107
    outer loop
      vertex -8.6912 30.1138 7.36288
      vertex -8.13727 32.8805 4.59619
      vertex -7.15351 31.2011 6.27557
    endloop
  endfacet
  facet normal 1.41968e-07 -0.707107 -0.707107
    outer loop
      vertex -11.0662 30.8094 6.66726
      vertex -8.6912 30.1138 7.36288
      vertex -11.0662 27.8805 9.59619
    endloop
  endfacet
  facet normal 2.35257e-07 -0.707107 -0.707107
    outer loop
      vertex -8.6912 30.1138 7.36288
      vertex -11.0662 30.8094 6.66726
      vertex -8.13727 32.8805 4.59619
    endloop
  endfacet
  facet normal 0.707107 0.5 -0.5
    outer loop
      vertex -8.13727 25.8094 11.6673
      vertex -11.0662 24.4156 6.13137
      vertex -11.0662 27.8805 9.59619
    endloop
  endfacet
  facet normal 0.707107 0.5 -0.5
    outer loop
      vertex -11.0662 24.4156 6.13137
      vertex -8.13727 25.8094 11.6673
      vertex -8.13727 22.3446 8.20244
    endloop
  endfacet
  facet normal -0.707107 -0.5 0.5
    outer loop
      vertex -3.99514 29.4156 1.13137
      vertex -1.0662 30.8094 6.66726
      vertex -3.99514 32.8805 4.59619
    endloop
  endfacet
  facet normal -0.707107 -0.5 0.5
    outer loop
      vertex -1.0662 30.8094 6.66726
      vertex -3.99514 29.4156 1.13137
      vertex -1.0662 27.3446 3.20244
    endloop
  endfacet
  facet normal 0.707107 -0.5 0.5
    outer loop
      vertex -11.0662 30.8094 6.66726
      vertex -8.13727 29.4156 1.13137
      vertex -8.13727 32.8805 4.59619
    endloop
  endfacet
  facet normal 0.707107 -0.5 0.5
    outer loop
      vertex -8.13727 29.4156 1.13137
      vertex -11.0662 30.8094 6.66726
      vertex -11.0662 27.3446 3.20244
    endloop
  endfacet
  facet normal 0 -0.707107 0.707107
    outer loop
      vertex -8.13727 32.8805 4.59619
      vertex -3.99514 29.4156 1.13137
      vertex -3.99514 32.8805 4.59619
    endloop
  endfacet
  facet normal 0 -0.707107 0.707107
    outer loop
      vertex -3.99514 29.4156 1.13137
      vertex -8.13727 32.8805 4.59619
      vertex -8.13727 29.4156 1.13137
    endloop
  endfacet
  facet normal -1 -1.62802e-07 1.62802e-07
    outer loop
      vertex -1.0662 27.3446 3.20244
      vertex -1.0662 27.8805 9.59619
      vertex -1.0662 30.8094 6.66726
    endloop
  endfacet
  facet normal -1 -1.62802e-07 1.62802e-07
    outer loop
      vertex -1.0662 27.8805 9.59619
      vertex -1.0662 27.3446 3.20244
      vertex -1.0662 24.4156 6.13137
    endloop
  endfacet
  facet normal -0.707107 0.5 -0.5
    outer loop
      vertex -3.4412 42.7182 -5.24156
      vertex -4.97889 45.1664 -0.618718
      vertex -3.4412 46.2538 -1.70603
    endloop
  endfacet
  facet normal -0.707107 0.5 -0.5
    outer loop
      vertex -4.97889 45.1664 -0.618718
      vertex -3.4412 42.7182 -5.24156
      vertex -4.97889 41.6309 -4.15425
    endloop
  endfacet
  facet normal 1 0 0
    outer loop
      vertex -8.6912 46.2538 -1.70603
      vertex -8.6912 44.2559 -6.77925
      vertex -8.6912 47.7914 -3.24372
    endloop
  endfacet
  facet normal 1 0 -0
    outer loop
      vertex -8.6912 44.2559 -6.77925
      vertex -8.6912 46.2538 -1.70603
      vertex -8.6912 42.7182 -5.24156
    endloop
  endfacet
  facet normal 0 0.707107 -0.707107
    outer loop
      vertex -4.97889 41.6309 -4.15425
      vertex -7.15351 45.1664 -0.618718
      vertex -4.97889 45.1664 -0.618718
    endloop
  endfacet
  facet normal 0 0.707107 -0.707107
    outer loop
      vertex -7.15351 45.1664 -0.618718
      vertex -4.97889 41.6309 -4.15425
      vertex -7.15351 41.6309 -4.15425
    endloop
  endfacet
  facet normal 0.707107 0.5 -0.5
    outer loop
      vertex -7.15351 45.1664 -0.618718
      vertex -8.6912 42.7182 -5.24156
      vertex -8.6912 46.2538 -1.70603
    endloop
  endfacet
  facet normal 0.707107 0.5 -0.5
    outer loop
      vertex -8.6912 42.7182 -5.24156
      vertex -7.15351 45.1664 -0.618718
      vertex -7.15351 41.6309 -4.15425
    endloop
  endfacet
  facet normal -0.707107 -0.5 0.5
    outer loop
      vertex -4.97889 45.3432 -7.86656
      vertex -3.4412 47.7914 -3.24372
      vertex -4.97889 48.8788 -4.33103
    endloop
  endfacet
  facet normal -0.707107 -0.5 0.5
    outer loop
      vertex -3.4412 47.7914 -3.24372
      vertex -4.97889 45.3432 -7.86656
      vertex -3.4412 44.2559 -6.77925
    endloop
  endfacet
  facet normal 0.707107 -0.5 0.5
    outer loop
      vertex -8.6912 47.7914 -3.24372
      vertex -7.15351 45.3432 -7.86656
      vertex -7.15351 48.8788 -4.33103
    endloop
  endfacet
  facet normal 0.707107 -0.5 0.5
    outer loop
      vertex -7.15351 45.3432 -7.86656
      vertex -8.6912 47.7914 -3.24372
      vertex -8.6912 44.2559 -6.77925
    endloop
  endfacet
  facet normal -1 0 0
    outer loop
      vertex -3.4412 44.2559 -6.77925
      vertex -3.4412 46.2538 -1.70603
      vertex -3.4412 47.7914 -3.24372
    endloop
  endfacet
  facet normal -1 0 0
    outer loop
      vertex -3.4412 46.2538 -1.70603
      vertex -3.4412 44.2559 -6.77925
      vertex -3.4412 42.7182 -5.24156
    endloop
  endfacet
  facet normal 0 -0.707107 0.707107
    outer loop
      vertex -7.15351 45.3432 -7.86656
      vertex -4.97889 48.8788 -4.33103
      vertex -7.15351 48.8788 -4.33103
    endloop
  endfacet
  facet normal 0 -0.707107 0.707107
    outer loop
      vertex -4.97889 48.8788 -4.33103
      vertex -7.15351 45.3432 -7.86656
      vertex -4.97889 45.3432 -7.86656
    endloop
  endfacet
  facet normal -0.707107 0.5 -0.5
    outer loop
      vertex -1.0662 38.5578 -8.01077
      vertex -3.99514 39.9515 -2.47487
      vertex -1.0662 42.0226 -4.54594
    endloop
  endfacet
  facet normal -0.707107 0.5 -0.5
    outer loop
      vertex -3.99514 39.9515 -2.47487
      vertex -1.0662 38.5578 -8.01077
      vertex -3.99514 36.4867 -5.9397
    endloop
  endfacet
  facet normal 1 0 0
    outer loop
      vertex -11.0662 42.0226 -4.54594
      vertex -11.0662 41.4867 -10.9397
      vertex -11.0662 44.9515 -7.47487
    endloop
  endfacet
  facet normal 1 0 -0
    outer loop
      vertex -11.0662 41.4867 -10.9397
      vertex -11.0662 42.0226 -4.54594
      vertex -11.0662 38.5578 -8.01077
    endloop
  endfacet
  facet normal 0 0.707107 -0.707107
    outer loop
      vertex -8.13727 36.4867 -5.9397
      vertex -3.99514 39.9515 -2.47487
      vertex -3.99514 36.4867 -5.9397
    endloop
  endfacet
  facet normal 0 0.707107 -0.707107
    outer loop
      vertex -3.99514 39.9515 -2.47487
      vertex -8.13727 36.4867 -5.9397
      vertex -8.13727 39.9515 -2.47487
    endloop
  endfacet
  facet normal 0 -0.707107 -0.707107
    outer loop
      vertex -8.13727 39.9515 -2.47487
      vertex -7.15351 41.6309 -4.15425
      vertex -3.99514 39.9515 -2.47487
    endloop
  endfacet
  facet normal -1.17246e-07 -0.707107 -0.707107
    outer loop
      vertex -8.6912 42.7182 -5.24156
      vertex -8.13727 39.9515 -2.47487
      vertex -11.0662 42.0226 -4.54594
    endloop
  endfacet
  facet normal -5.01934e-08 -0.707107 -0.707107
    outer loop
      vertex -8.13727 39.9515 -2.47487
      vertex -8.6912 42.7182 -5.24156
      vertex -7.15351 41.6309 -4.15425
    endloop
  endfacet
  facet normal -2.70416e-07 -0.707107 -0.707107
    outer loop
      vertex -11.0662 42.0226 -4.54594
      vertex -8.6912 44.2559 -6.77925
      vertex -8.6912 42.7182 -5.24156
    endloop
  endfacet
  facet normal 1.41968e-07 -0.707107 -0.707107
    outer loop
      vertex -11.0662 44.9515 -7.47487
      vertex -8.6912 44.2559 -6.77925
      vertex -11.0662 42.0226 -4.54594
    endloop
  endfacet
  facet normal 1.00387e-07 -0.707107 -0.707107
    outer loop
      vertex -8.13727 47.0226 -9.54594
      vertex -8.6912 44.2559 -6.77925
      vertex -11.0662 44.9515 -7.47487
    endloop
  endfacet
  facet normal 0 -0.707107 -0.707107
    outer loop
      vertex -7.15351 45.3432 -7.86656
      vertex -8.13727 47.0226 -9.54594
      vertex -4.97889 45.3432 -7.86656
    endloop
  endfacet
  facet normal -1.5505e-07 -0.707107 -0.707107
    outer loop
      vertex -8.6912 44.2559 -6.77925
      vertex -8.13727 47.0226 -9.54594
      vertex -7.15351 45.3432 -7.86656
    endloop
  endfacet
  facet normal -0 -0.707107 -0.707107
    outer loop
      vertex -4.97889 41.6309 -4.15425
      vertex -3.99514 39.9515 -2.47487
      vertex -7.15351 41.6309 -4.15425
    endloop
  endfacet
  facet normal 5.01934e-08 -0.707107 -0.707107
    outer loop
      vertex -3.4412 42.7182 -5.24156
      vertex -3.99514 39.9515 -2.47487
      vertex -4.97889 41.6309 -4.15425
    endloop
  endfacet
  facet normal 1.17246e-07 -0.707107 -0.707107
    outer loop
      vertex -3.99514 39.9515 -2.47487
      vertex -3.4412 42.7182 -5.24156
      vertex -1.0662 42.0226 -4.54594
    endloop
  endfacet
  facet normal 2.70416e-07 -0.707107 -0.707107
    outer loop
      vertex -3.4412 44.2559 -6.77925
      vertex -1.0662 42.0226 -4.54594
      vertex -3.4412 42.7182 -5.24156
    endloop
  endfacet
  facet normal -1.41968e-07 -0.707107 -0.707107
    outer loop
      vertex -3.4412 44.2559 -6.77925
      vertex -1.0662 44.9515 -7.47487
      vertex -1.0662 42.0226 -4.54594
    endloop
  endfacet
  facet normal 1.5505e-07 -0.707107 -0.707107
    outer loop
      vertex -3.99514 47.0226 -9.54594
      vertex -3.4412 44.2559 -6.77925
      vertex -4.97889 45.3432 -7.86656
    endloop
  endfacet
  facet normal -0 -0.707107 -0.707107
    outer loop
      vertex -3.99514 47.0226 -9.54594
      vertex -4.97889 45.3432 -7.86656
      vertex -8.13727 47.0226 -9.54594
    endloop
  endfacet
  facet normal -1.00387e-07 -0.707107 -0.707107
    outer loop
      vertex -3.4412 44.2559 -6.77925
      vertex -3.99514 47.0226 -9.54594
      vertex -1.0662 44.9515 -7.47487
    endloop
  endfacet
  facet normal 0.707107 0.5 -0.5
    outer loop
      vertex -8.13727 39.9515 -2.47487
      vertex -11.0662 38.5578 -8.01077
      vertex -11.0662 42.0226 -4.54594
    endloop
  endfacet
  facet normal 0.707107 0.5 -0.5
    outer loop
      vertex -11.0662 38.5578 -8.01077
      vertex -8.13727 39.9515 -2.47487
      vertex -8.13727 36.4867 -5.9397
    endloop
  endfacet
  facet normal -0.707107 -0.5 0.5
    outer loop
      vertex -3.99514 43.5578 -13.0108
      vertex -1.0662 44.9515 -7.47487
      vertex -3.99514 47.0226 -9.54594
    endloop
  endfacet
  facet normal -0.707107 -0.5 0.5
    outer loop
      vertex -1.0662 44.9515 -7.47487
      vertex -3.99514 43.5578 -13.0108
      vertex -1.0662 41.4867 -10.9397
    endloop
  endfacet
  facet normal 0.707107 -0.5 0.5
    outer loop
      vertex -11.0662 44.9515 -7.47487
      vertex -8.13727 43.5578 -13.0108
      vertex -8.13727 47.0226 -9.54594
    endloop
  endfacet
  facet normal 0.707107 -0.5 0.5
    outer loop
      vertex -8.13727 43.5578 -13.0108
      vertex -11.0662 44.9515 -7.47487
      vertex -11.0662 41.4867 -10.9397
    endloop
  endfacet
  facet normal 0 -0.707107 0.707107
    outer loop
      vertex -8.13727 47.0226 -9.54594
      vertex -3.99514 43.5578 -13.0108
      vertex -3.99514 47.0226 -9.54594
    endloop
  endfacet
  facet normal 0 -0.707107 0.707107
    outer loop
      vertex -3.99514 43.5578 -13.0108
      vertex -8.13727 47.0226 -9.54594
      vertex -8.13727 43.5578 -13.0108
    endloop
  endfacet
  facet normal -1 -1.62802e-07 1.62802e-07
    outer loop
      vertex -1.0662 41.4867 -10.9397
      vertex -1.0662 42.0226 -4.54594
      vertex -1.0662 44.9515 -7.47487
    endloop
  endfacet
  facet normal -1 -1.62802e-07 1.62802e-07
    outer loop
      vertex -1.0662 42.0226 -4.54594
      vertex -1.0662 41.4867 -10.9397
      vertex -1.0662 38.5578 -8.01077
    endloop
  endfacet
  facet normal -0.707107 -0.5 -0.5
    outer loop
      vertex 12 3.51472 3.51472
      vertex 4.97056 5.09117 11.8794
      vertex 4.97056 8.48528 8.48528
    endloop
  endfacet
  facet normal -0.707107 -0.5 -0.5
    outer loop
      vertex 4.97056 5.09117 11.8794
      vertex 12 3.51472 3.51472
      vertex 12 0.120606 6.90883
    endloop
  endfacet
  facet normal 1 0 0
    outer loop
      vertex -12 0.120606 6.90883
      vertex -12 -3.51472 -3.51472
      vertex -12 3.51472 3.51472
    endloop
  endfacet
  facet normal 1 0 -0
    outer loop
      vertex -12 -3.51472 -3.51472
      vertex -12 0.120606 6.90883
      vertex -12 -6.90883 -0.120606
    endloop
  endfacet
  facet normal 0 -0.707107 -0.707107
    outer loop
      vertex -4.97056 8.48528 8.48528
      vertex 4.97056 5.09117 11.8794
      vertex -4.97056 5.09117 11.8794
    endloop
  endfacet
  facet normal 0 -0.707107 -0.707107
    outer loop
      vertex 4.97056 5.09117 11.8794
      vertex -4.97056 8.48528 8.48528
      vertex 4.97056 8.48528 8.48528
    endloop
  endfacet
  facet normal 0.707107 -0.5 -0.5
    outer loop
      vertex -4.97056 5.09117 11.8794
      vertex -12 3.51472 3.51472
      vertex -4.97056 8.48528 8.48528
    endloop
  endfacet
  facet normal 0.707107 -0.5 -0.5
    outer loop
      vertex -12 3.51472 3.51472
      vertex -4.97056 5.09117 11.8794
      vertex -12 0.120606 6.90883
    endloop
  endfacet
  facet normal -0.707107 0.5 0.5
    outer loop
      vertex 4.97056 -8.48528 -8.48528
      vertex 12 -6.90883 -0.120606
      vertex 12 -3.51472 -3.51472
    endloop
  endfacet
  facet normal -0.707107 0.5 0.5
    outer loop
      vertex 12 -6.90883 -0.120606
      vertex 4.97056 -8.48528 -8.48528
      vertex 4.97056 -11.8794 -5.09117
    endloop
  endfacet
  facet normal 0.707107 0.5 0.5
    outer loop
      vertex -12 -6.90883 -0.120606
      vertex -4.97056 -8.48528 -8.48528
      vertex -12 -3.51472 -3.51472
    endloop
  endfacet
  facet normal 0.707107 0.5 0.5
    outer loop
      vertex -4.97056 -8.48528 -8.48528
      vertex -12 -6.90883 -0.120606
      vertex -4.97056 -11.8794 -5.09117
    endloop
  endfacet
  facet normal -0 0.707107 0.707107
    outer loop
      vertex -4.97056 -8.48528 -8.48528
      vertex 4.97056 -11.8794 -5.09117
      vertex 4.97056 -8.48528 -8.48528
    endloop
  endfacet
  facet normal 0 0.707107 0.707107
    outer loop
      vertex 4.97056 -11.8794 -5.09117
      vertex -4.97056 -8.48528 -8.48528
      vertex -4.97056 -11.8794 -5.09117
    endloop
  endfacet
  facet normal -1 6.78343e-08 6.78343e-08
    outer loop
      vertex 12 -3.51472 -3.51472
      vertex 12 0.120606 6.90883
      vertex 12 3.51472 3.51472
    endloop
  endfacet
  facet normal -1 6.78343e-08 6.78343e-08
    outer loop
      vertex 12 0.120606 6.90883
      vertex 12 -3.51472 -3.51472
      vertex 12 -6.90883 -0.120606
    endloop
  endfacet
  facet normal 1 0 0
    outer loop
      vertex -21.6 15.2735 15.2735
      vertex -21.6 -14.5664 -15.9806
      vertex -21.6 46.5276 -15.9806
    endloop
  endfacet
  facet normal 1 0 -0
    outer loop
      vertex -21.6 -14.5664 -15.9806
      vertex -21.6 15.2735 15.2735
      vertex -21.6 -15.2735 -15.2735
    endloop
  endfacet
  facet normal 0 0.707107 -0.707107
    outer loop
      vertex 14.8269 -12.1092 -12.1092
      vertex 4.97056 -8.48528 -8.48528
      vertex 13.875 -11.4361 -11.4361
    endloop
  endfacet
  facet normal 0 0.707107 -0.707107
    outer loop
      vertex -4.97056 -8.48528 -8.48528
      vertex -13.875 -10.4842 -10.4842
      vertex -14.8269 -9.81111 -9.81111
    endloop
  endfacet
  facet normal 0 0.707107 -0.707107
    outer loop
      vertex 4.97056 -8.48528 -8.48528
      vertex 14.8269 -12.1092 -12.1092
      vertex -4.97056 -8.48528 -8.48528
    endloop
  endfacet
  facet normal 0 0.707107 -0.707107
    outer loop
      vertex -4.97056 -8.48528 -8.48528
      vertex -13.875 -11.4361 -11.4361
      vertex -13.875 -10.4842 -10.4842
    endloop
  endfacet
  facet normal 0 0.707107 -0.707107
    outer loop
      vertex -14.8269 -12.1092 -12.1092
      vertex -4.97056 -8.48528 -8.48528
      vertex 14.8269 -12.1092 -12.1092
    endloop
  endfacet
  facet normal 0 0.707107 -0.707107
    outer loop
      vertex -4.97056 -8.48528 -8.48528
      vertex -14.8269 -12.1092 -12.1092
      vertex -13.875 -11.4361 -11.4361
    endloop
  endfacet
  facet normal 0 0.707107 -0.707107
    outer loop
      vertex 4.97056 8.48528 8.48528
      vertex 14.8269 12.1092 12.1092
      vertex 13.875 11.4361 11.4361
    endloop
  endfacet
  facet normal 0 0.707107 -0.707107
    outer loop
      vertex 14.8269 12.1092 12.1092
      vertex 4.97056 8.48528 8.48528
      vertex -14.8269 12.1092 12.1092
    endloop
  endfacet
  facet normal 0 0.707107 -0.707107
    outer loop
      vertex 4.97056 8.48528 8.48528
      vertex 13.875 11.4361 11.4361
      vertex 13.875 10.4842 10.4842
    endloop
  endfacet
  facet normal 0 0.707107 -0.707107
    outer loop
      vertex -4.97056 8.48528 8.48528
      vertex -14.8269 12.1092 12.1092
      vertex 4.97056 8.48528 8.48528
    endloop
  endfacet
  facet normal 0 0.707107 -0.707107
    outer loop
      vertex 12 3.51472 3.51472
      vertex 13.875 10.4842 10.4842
      vertex 14.8269 9.81111 9.81111
    endloop
  endfacet
  facet normal 0 0.707107 -0.707107
    outer loop
      vertex -14.8269 12.1092 12.1092
      vertex -4.97056 8.48528 8.48528
      vertex -13.875 11.4361 11.4361
    endloop
  endfacet
  facet normal 0 0.707107 -0.707107
    outer loop
      vertex 14.8269 12.1092 12.1092
      vertex 21.6 15.2735 15.2735
      vertex 16.1731 12.1092 12.1092
    endloop
  endfacet
  facet normal 0 0.707107 -0.707107
    outer loop
      vertex 21.6 15.2735 15.2735
      vertex 17.125 11.4361 11.4361
      vertex 16.1731 12.1092 12.1092
    endloop
  endfacet
  facet normal 0 0.707107 -0.707107
    outer loop
      vertex 21.6 15.2735 15.2735
      vertex 17.125 10.4842 10.4842
      vertex 17.125 11.4361 11.4361
    endloop
  endfacet
  facet normal 0 0.707107 -0.707107
    outer loop
      vertex 12 3.51472 3.51472
      vertex 14.8269 9.81111 9.81111
      vertex 16.1731 9.81111 9.81111
    endloop
  endfacet
  facet normal 0 0.707107 -0.707107
    outer loop
      vertex -13.875 11.4361 11.4361
      vertex -4.97056 8.48528 8.48528
      vertex -13.875 10.4842 10.4842
    endloop
  endfacet
  facet normal 0 0.707107 -0.707107
    outer loop
      vertex -12 3.51472 3.51472
      vertex -13.875 10.4842 10.4842
      vertex -4.97056 8.48528 8.48528
    endloop
  endfacet
  facet normal 0 0.707107 -0.707107
    outer loop
      vertex 13.875 10.4842 10.4842
      vertex 12 3.51472 3.51472
      vertex 4.97056 8.48528 8.48528
    endloop
  endfacet
  facet normal 0 0.707107 -0.707107
    outer loop
      vertex 17.125 10.4842 10.4842
      vertex 12 3.51472 3.51472
      vertex 16.1731 9.81111 9.81111
    endloop
  endfacet
  facet normal 0 0.707107 -0.707107
    outer loop
      vertex 17.125 -10.4842 -10.4842
      vertex 17.125 10.4842 10.4842
      vertex 21.6 15.2735 15.2735
    endloop
  endfacet
  facet normal 0 0.707107 -0.707107
    outer loop
      vertex 17.125 10.4842 10.4842
      vertex 17.125 -10.4842 -10.4842
      vertex 12 3.51472 3.51472
    endloop
  endfacet
  facet normal 0 0.707107 -0.707107
    outer loop
      vertex 13.875 -10.4842 -10.4842
      vertex 12 -3.51472 -3.51472
      vertex 14.8269 -9.81111 -9.81111
    endloop
  endfacet
  facet normal 0 0.707107 -0.707107
    outer loop
      vertex 14.8269 -9.81111 -9.81111
      vertex 12 -3.51472 -3.51472
      vertex 16.1731 -9.81111 -9.81111
    endloop
  endfacet
  facet normal 0 0.707107 -0.707107
    outer loop
      vertex 12 3.51472 3.51472
      vertex 17.125 -10.4842 -10.4842
      vertex 12 -3.51472 -3.51472
    endloop
  endfacet
  facet normal 0 0.707107 -0.707107
    outer loop
      vertex 12 -3.51472 -3.51472
      vertex 17.125 -10.4842 -10.4842
      vertex 16.1731 -9.81111 -9.81111
    endloop
  endfacet
  facet normal 0 0.707107 -0.707107
    outer loop
      vertex 21.6 -15.2735 -15.2735
      vertex 17.125 -10.4842 -10.4842
      vertex 21.6 15.2735 15.2735
    endloop
  endfacet
  facet normal 0 0.707107 -0.707107
    outer loop
      vertex 21.6 -15.2735 -15.2735
      vertex 14.8269 -12.1092 -12.1092
      vertex 16.1731 -12.1092 -12.1092
    endloop
  endfacet
  facet normal 0 0.707107 -0.707107
    outer loop
      vertex 14.8269 -12.1092 -12.1092
      vertex 21.6 -15.2735 -15.2735
      vertex -14.8269 -12.1092 -12.1092
    endloop
  endfacet
  facet normal 0 0.707107 -0.707107
    outer loop
      vertex -21.6 -15.2735 -15.2735
      vertex -14.8269 -12.1092 -12.1092
      vertex 21.6 -15.2735 -15.2735
    endloop
  endfacet
  facet normal 0 0.707107 -0.707107
    outer loop
      vertex 17.125 -11.4361 -11.4361
      vertex 21.6 -15.2735 -15.2735
      vertex 16.1731 -12.1092 -12.1092
    endloop
  endfacet
  facet normal 0 0.707107 -0.707107
    outer loop
      vertex 17.125 -10.4842 -10.4842
      vertex 21.6 -15.2735 -15.2735
      vertex 17.125 -11.4361 -11.4361
    endloop
  endfacet
  facet normal 0 0.707107 -0.707107
    outer loop
      vertex 21.6 15.2735 15.2735
      vertex 14.8269 12.1092 12.1092
      vertex -21.6 15.2735 15.2735
    endloop
  endfacet
  facet normal 0 0.707107 -0.707107
    outer loop
      vertex -14.8269 12.1092 12.1092
      vertex -21.6 15.2735 15.2735
      vertex 14.8269 12.1092 12.1092
    endloop
  endfacet
  facet normal 0 0.707107 -0.707107
    outer loop
      vertex -16.1731 12.1092 12.1092
      vertex -21.6 15.2735 15.2735
      vertex -14.8269 12.1092 12.1092
    endloop
  endfacet
  facet normal 0 0.707107 -0.707107
    outer loop
      vertex -17.125 11.4361 11.4361
      vertex -21.6 15.2735 15.2735
      vertex -16.1731 12.1092 12.1092
    endloop
  endfacet
  facet normal 0 0.707107 -0.707107
    outer loop
      vertex -17.125 10.4842 10.4842
      vertex -21.6 15.2735 15.2735
      vertex -17.125 11.4361 11.4361
    endloop
  endfacet
  facet normal 0 0.707107 -0.707107
    outer loop
      vertex -13.875 10.4842 10.4842
      vertex -12 3.51472 3.51472
      vertex -14.8269 9.81111 9.81111
    endloop
  endfacet
  facet normal 0 0.707107 -0.707107
    outer loop
      vertex -14.8269 9.81111 9.81111
      vertex -12 3.51472 3.51472
      vertex -16.1731 9.81111 9.81111
    endloop
  endfacet
  facet normal 0 0.707107 -0.707107
    outer loop
      vertex -12 3.51472 3.51472
      vertex -17.125 10.4842 10.4842
      vertex -16.1731 9.81111 9.81111
    endloop
  endfacet
  facet normal 0 0.707107 -0.707107
    outer loop
      vertex -17.125 -10.4842 -10.4842
      vertex -17.125 10.4842 10.4842
      vertex -12 3.51472 3.51472
    endloop
  endfacet
  facet normal 0 0.707107 -0.707107
    outer loop
      vertex -17.125 -10.4842 -10.4842
      vertex -12 3.51472 3.51472
      vertex -12 -3.51472 -3.51472
    endloop
  endfacet
  facet normal 0 0.707107 -0.707107
    outer loop
      vertex 12 -3.51472 -3.51472
      vertex 13.875 -10.4842 -10.4842
      vertex 4.97056 -8.48528 -8.48528
    endloop
  endfacet
  facet normal 0 0.707107 -0.707107
    outer loop
      vertex 13.875 -11.4361 -11.4361
      vertex 4.97056 -8.48528 -8.48528
      vertex 13.875 -10.4842 -10.4842
    endloop
  endfacet
  facet normal 0 0.707107 -0.707107
    outer loop
      vertex -14.8269 -9.81111 -9.81111
      vertex -12 -3.51472 -3.51472
      vertex -4.97056 -8.48528 -8.48528
    endloop
  endfacet
  facet normal 0 0.707107 -0.707107
    outer loop
      vertex -16.1731 -9.81111 -9.81111
      vertex -12 -3.51472 -3.51472
      vertex -14.8269 -9.81111 -9.81111
    endloop
  endfacet
  facet normal 0 0.707107 -0.707107
    outer loop
      vertex -17.125 -10.4842 -10.4842
      vertex -12 -3.51472 -3.51472
      vertex -16.1731 -9.81111 -9.81111
    endloop
  endfacet
  facet normal 0 0.707107 -0.707107
    outer loop
      vertex -17.125 10.4842 10.4842
      vertex -17.125 -10.4842 -10.4842
      vertex -21.6 15.2735 15.2735
    endloop
  endfacet
  facet normal 0 0.707107 -0.707107
    outer loop
      vertex -21.6 -15.2735 -15.2735
      vertex -17.125 -10.4842 -10.4842
      vertex -17.125 -11.4361 -11.4361
    endloop
  endfacet
  facet normal 0 0.707107 -0.707107
    outer loop
      vertex -17.125 -10.4842 -10.4842
      vertex -21.6 -15.2735 -15.2735
      vertex -21.6 15.2735 15.2735
    endloop
  endfacet
  facet normal 0 0.707107 -0.707107
    outer loop
      vertex -16.1731 -12.1092 -12.1092
      vertex -21.6 -15.2735 -15.2735
      vertex -17.125 -11.4361 -11.4361
    endloop
  endfacet
  facet normal 0 0.707107 -0.707107
    outer loop
      vertex -14.8269 -12.1092 -12.1092
      vertex -21.6 -15.2735 -15.2735
      vertex -16.1731 -12.1092 -12.1092
    endloop
  endfacet
  facet normal -1 0 0
    outer loop
      vertex 21.6 -14.5664 -15.9806
      vertex 21.6 15.2735 15.2735
      vertex 21.6 46.5276 -15.9806
    endloop
  endfacet
  facet normal -1 0 0
    outer loop
      vertex 21.6 15.2735 15.2735
      vertex 21.6 -14.5664 -15.9806
      vertex 21.6 -15.2735 -15.2735
    endloop
  endfacet
  facet normal 0 0.707107 0.707107
    outer loop
      vertex 21.6 -14.5664 -15.9806
      vertex -21.6 -15.2735 -15.2735
      vertex 21.6 -15.2735 -15.2735
    endloop
  endfacet
  facet normal 0 0.707107 0.707107
    outer loop
      vertex -21.6 -15.2735 -15.2735
      vertex 21.6 -14.5664 -15.9806
      vertex -21.6 -14.5664 -15.9806
    endloop
  endfacet
  facet normal -0 -0.707107 -0.707107
    outer loop
      vertex -3.99514 22.3446 8.20244
      vertex -21.6 15.2735 15.2735
      vertex -8.13727 22.3446 8.20244
    endloop
  endfacet
  facet normal 0 -0.707107 -0.707107
    outer loop
      vertex -21.6 15.2735 15.2735
      vertex -11.0662 24.4156 6.13137
      vertex -8.13727 22.3446 8.20244
    endloop
  endfacet
  facet normal 0 -0.707107 -0.707107
    outer loop
      vertex -21.6 15.2735 15.2735
      vertex -11.0662 27.3446 3.20244
      vertex -11.0662 24.4156 6.13137
    endloop
  endfacet
  facet normal 0 -0.707107 -0.707107
    outer loop
      vertex -8.13727 29.4156 1.13137
      vertex -8.13727 36.4867 -5.9397
      vertex -3.99514 29.4156 1.13137
    endloop
  endfacet
  facet normal -3.7209e-08 -0.707107 -0.707107
    outer loop
      vertex -11.0662 27.3446 3.20244
      vertex -8.13727 36.4867 -5.9397
      vertex -8.13727 29.4156 1.13137
    endloop
  endfacet
  facet normal 0 -0.707107 -0.707107
    outer loop
      vertex -21.6 46.5276 -15.9806
      vertex -11.0662 27.3446 3.20244
      vertex -21.6 15.2735 15.2735
    endloop
  endfacet
  facet normal 0 -0.707107 -0.707107
    outer loop
      vertex -11.0662 27.3446 3.20244
      vertex -11.0662 38.5578 -8.01077
      vertex -8.13727 36.4867 -5.9397
    endloop
  endfacet
  facet normal 0 -0.707107 -0.707107
    outer loop
      vertex -11.0662 27.3446 3.20244
      vertex -21.6 46.5276 -15.9806
      vertex -11.0662 38.5578 -8.01077
    endloop
  endfacet
  facet normal 0 -0.707107 -0.707107
    outer loop
      vertex -8.13727 43.5578 -13.0108
      vertex -21.6 46.5276 -15.9806
      vertex -3.99514 43.5578 -13.0108
    endloop
  endfacet
  facet normal 0 -0.707107 -0.707107
    outer loop
      vertex -11.0662 41.4867 -10.9397
      vertex -21.6 46.5276 -15.9806
      vertex -8.13727 43.5578 -13.0108
    endloop
  endfacet
  facet normal 0 -0.707107 -0.707107
    outer loop
      vertex -11.0662 38.5578 -8.01077
      vertex -21.6 46.5276 -15.9806
      vertex -11.0662 41.4867 -10.9397
    endloop
  endfacet
  facet normal 0 -0.707107 -0.707107
    outer loop
      vertex -21.6 15.2735 15.2735
      vertex -3.99514 22.3446 8.20244
      vertex 21.6 15.2735 15.2735
    endloop
  endfacet
  facet normal 0 -0.707107 -0.707107
    outer loop
      vertex -1.0662 24.4156 6.13137
      vertex 21.6 15.2735 15.2735
      vertex -3.99514 22.3446 8.20244
    endloop
  endfacet
  facet normal 0 -0.707107 -0.707107
    outer loop
      vertex -1.0662 27.3446 3.20244
      vertex 21.6 15.2735 15.2735
      vertex -1.0662 24.4156 6.13137
    endloop
  endfacet
  facet normal 2.87797e-08 -0.707107 -0.707107
    outer loop
      vertex -1.0662 38.5578 -8.01077
      vertex -1.0662 27.3446 3.20244
      vertex -3.99514 29.4156 1.13137
    endloop
  endfacet
  facet normal -0 -0.707107 -0.707107
    outer loop
      vertex -3.99514 36.4867 -5.9397
      vertex -3.99514 29.4156 1.13137
      vertex -8.13727 36.4867 -5.9397
    endloop
  endfacet
  facet normal -8.42937e-09 -0.707107 -0.707107
    outer loop
      vertex -1.0662 38.5578 -8.01077
      vertex -3.99514 29.4156 1.13137
      vertex -3.99514 36.4867 -5.9397
    endloop
  endfacet
  facet normal 0 -0.707107 -0.707107
    outer loop
      vertex 21.6 46.5276 -15.9806
      vertex -1.0662 27.3446 3.20244
      vertex -1.0662 38.5578 -8.01077
    endloop
  endfacet
  facet normal 0 -0.707107 -0.707107
    outer loop
      vertex 21.6 46.5276 -15.9806
      vertex -1.0662 38.5578 -8.01077
      vertex -1.0662 41.4867 -10.9397
    endloop
  endfacet
  facet normal 0 -0.707107 -0.707107
    outer loop
      vertex -1.0662 27.3446 3.20244
      vertex 21.6 46.5276 -15.9806
      vertex 21.6 15.2735 15.2735
    endloop
  endfacet
  facet normal 0 -0.707107 -0.707107
    outer loop
      vertex -3.99514 43.5578 -13.0108
      vertex 21.6 46.5276 -15.9806
      vertex -1.0662 41.4867 -10.9397
    endloop
  endfacet
  facet normal -0 -0.707107 -0.707107
    outer loop
      vertex 21.6 46.5276 -15.9806
      vertex -3.99514 43.5578 -13.0108
      vertex -21.6 46.5276 -15.9806
    endloop
  endfacet
  facet normal 0 0 -1
    outer loop
      vertex 26.4 -21.3546 -15.9806
      vertex 21.6 -14.5664 -15.9806
      vertex 26.4 47.659 -15.9806
    endloop
  endfacet
  facet normal 0 0 -1
    outer loop
      vertex 26.4 -21.3546 -15.9806
      vertex -21.6 -14.5664 -15.9806
      vertex 21.6 -14.5664 -15.9806
    endloop
  endfacet
  facet normal 0 0 -1
    outer loop
      vertex -26.4 47.659 -15.9806
      vertex -21.6 -14.5664 -15.9806
      vertex -26.4 -21.3546 -15.9806
    endloop
  endfacet
  facet normal 0 0 -1
    outer loop
      vertex -26.4 -21.3546 -15.9806
      vertex -21.6 -14.5664 -15.9806
      vertex 26.4 -21.3546 -15.9806
    endloop
  endfacet
  facet normal 0 0 -1
    outer loop
      vertex 21.6 46.5276 -15.9806
      vertex 26.4 47.659 -15.9806
      vertex 21.6 -14.5664 -15.9806
    endloop
  endfacet
  facet normal 0 0 -1
    outer loop
      vertex -21.6 46.5276 -15.9806
      vertex 26.4 47.659 -15.9806
      vertex 21.6 46.5276 -15.9806
    endloop
  endfacet
  facet normal 0 0 -1
    outer loop
      vertex -21.6 46.5276 -15.9806
      vertex -26.4 47.659 -15.9806
      vertex 26.4 47.659 -15.9806
    endloop
  endfacet
  facet normal 0 0 -1
    outer loop
      vertex -21.6 -14.5664 -15.9806
      vertex -26.4 47.659 -15.9806
      vertex -21.6 46.5276 -15.9806
    endloop
  endfacet
  facet normal 0.221375 0.689563 0.689563
    outer loop
      vertex 26.4 15.2735 22.0617
      vertex 3.9338 54.0937 -9.54594
      vertex 3.9338 25.8094 18.7383
    endloop
  endfacet
  facet normal 0.221375 0.689563 0.689563
    outer loop
      vertex 3.9338 54.0937 -9.54594
      vertex 26.4 15.2735 22.0617
      vertex 26.4 50.4874 -13.1522
    endloop
  endfacet
  facet normal 1 0 0
    outer loop
      vertex 26.4 15.2735 22.0617
      vertex 26.4 47.659 -15.9806
      vertex 26.4 50.4874 -13.1522
    endloop
  endfacet
  facet normal 1 0 0
    outer loop
      vertex 26.4 15.2735 22.0617
      vertex 26.4 -21.3546 -15.9806
      vertex 26.4 47.659 -15.9806
    endloop
  endfacet
  facet normal 1 0 -0
    outer loop
      vertex 26.4 -21.3546 -15.9806
      vertex 26.4 15.2735 22.0617
      vertex 26.4 -22.0617 -15.2735
    endloop
  endfacet
  facet normal 0 -0.707107 0.707107
    outer loop
      vertex -14.8269 -15.5033 -8.71509
      vertex -4.97056 -11.8794 -5.09117
      vertex -13.875 -14.8302 -8.04199
    endloop
  endfacet
  facet normal 2.87414e-08 -0.707107 0.707107
    outer loop
      vertex 4.97056 -11.8794 -5.09117
      vertex 13.875 -13.8783 -7.09009
      vertex 14.8269 -13.2052 -6.41699
    endloop
  endfacet
  facet normal 0 -0.707107 0.707107
    outer loop
      vertex -4.97056 -11.8794 -5.09117
      vertex -14.8269 -15.5033 -8.71509
      vertex 4.97056 -11.8794 -5.09117
    endloop
  endfacet
  facet normal 1.17381e-07 -0.707107 0.707107
    outer loop
      vertex 4.97056 -11.8794 -5.09117
      vertex 13.875 -14.8302 -8.04199
      vertex 13.875 -13.8783 -7.09009
    endloop
  endfacet
  facet normal 0 -0.707107 0.707107
    outer loop
      vertex 14.8269 -15.5033 -8.71509
      vertex 4.97056 -11.8794 -5.09117
      vertex -14.8269 -15.5033 -8.71509
    endloop
  endfacet
  facet normal 0 -0.707107 0.707107
    outer loop
      vertex 4.97056 -11.8794 -5.09117
      vertex 14.8269 -15.5033 -8.71509
      vertex 13.875 -14.8302 -8.04199
    endloop
  endfacet
  facet normal 0 -0.707107 0.707107
    outer loop
      vertex -4.97056 5.09117 11.8794
      vertex -14.8269 8.71509 15.5033
      vertex -13.875 8.04199 14.8302
    endloop
  endfacet
  facet normal 0 -0.707107 0.707107
    outer loop
      vertex -14.8269 8.71509 15.5033
      vertex -4.97056 5.09117 11.8794
      vertex 14.8269 8.71509 15.5033
    endloop
  endfacet
  facet normal -1.17381e-07 -0.707107 0.707107
    outer loop
      vertex -4.97056 5.09117 11.8794
      vertex -13.875 8.04199 14.8302
      vertex -13.875 7.09009 13.8783
    endloop
  endfacet
  facet normal 0 -0.707107 0.707107
    outer loop
      vertex 4.97056 5.09117 11.8794
      vertex 14.8269 8.71509 15.5033
      vertex -4.97056 5.09117 11.8794
    endloop
  endfacet
  facet normal -2.11069e-08 -0.707107 0.707107
    outer loop
      vertex -12 0.120606 6.90883
      vertex -13.875 7.09009 13.8783
      vertex -14.8269 6.41699 13.2052
    endloop
  endfacet
  facet normal 0 -0.707107 0.707107
    outer loop
      vertex 14.8269 8.71509 15.5033
      vertex 4.97056 5.09117 11.8794
      vertex 13.875 8.04199 14.8302
    endloop
  endfacet
  facet normal 0 -0.707107 0.707107
    outer loop
      vertex -14.8269 8.71509 15.5033
      vertex -26.4 15.2735 22.0617
      vertex -16.1731 8.71509 15.5033
    endloop
  endfacet
  facet normal 0 -0.707107 0.707107
    outer loop
      vertex -26.4 15.2735 22.0617
      vertex -17.125 8.04199 14.8302
      vertex -16.1731 8.71509 15.5033
    endloop
  endfacet
  facet normal -2.76171e-07 -0.707107 0.707107
    outer loop
      vertex -26.4 15.2735 22.0617
      vertex -17.125 7.09009 13.8783
      vertex -17.125 8.04199 14.8302
    endloop
  endfacet
  facet normal 0 -0.707107 0.707107
    outer loop
      vertex -12 0.120606 6.90883
      vertex -14.8269 6.41699 13.2052
      vertex -16.1731 6.41699 13.2052
    endloop
  endfacet
  facet normal 1.17381e-07 -0.707107 0.707107
    outer loop
      vertex 13.875 8.04199 14.8302
      vertex 4.97056 5.09117 11.8794
      vertex 13.875 7.09009 13.8783
    endloop
  endfacet
  facet normal 3.18116e-08 -0.707107 0.707107
    outer loop
      vertex 12 0.120606 6.90883
      vertex 13.875 7.09009 13.8783
      vertex 4.97056 5.09117 11.8794
    endloop
  endfacet
  facet normal -3.18116e-08 -0.707107 0.707107
    outer loop
      vertex -13.875 7.09009 13.8783
      vertex -12 0.120606 6.90883
      vertex -4.97056 5.09117 11.8794
    endloop
  endfacet
  facet normal 5.23344e-08 -0.707107 0.707107
    outer loop
      vertex -17.125 7.09009 13.8783
      vertex -12 0.120606 6.90883
      vertex -16.1731 6.41699 13.2052
    endloop
  endfacet
  facet normal 3.63531e-08 -0.707107 0.707107
    outer loop
      vertex -17.125 -13.8783 -7.09009
      vertex -17.125 7.09009 13.8783
      vertex -26.4 15.2735 22.0617
    endloop
  endfacet
  facet normal -4.83147e-08 -0.707107 0.707107
    outer loop
      vertex -17.125 7.09009 13.8783
      vertex -17.125 -13.8783 -7.09009
      vertex -12 0.120606 6.90883
    endloop
  endfacet
  facet normal -2.11069e-08 -0.707107 0.707107
    outer loop
      vertex -13.875 -13.8783 -7.09009
      vertex -12 -6.90883 -0.120606
      vertex -14.8269 -13.2052 -6.41699
    endloop
  endfacet
  facet normal 0 -0.707107 0.707107
    outer loop
      vertex -14.8269 -13.2052 -6.41699
      vertex -12 -6.90883 -0.120606
      vertex -16.1731 -13.2052 -6.41699
    endloop
  endfacet
  facet normal -4.83147e-08 -0.707107 0.707107
    outer loop
      vertex -12 0.120606 6.90883
      vertex -17.125 -13.8783 -7.09009
      vertex -12 -6.90883 -0.120606
    endloop
  endfacet
  facet normal 5.23344e-08 -0.707107 0.707107
    outer loop
      vertex -12 -6.90883 -0.120606
      vertex -17.125 -13.8783 -7.09009
      vertex -16.1731 -13.2052 -6.41699
    endloop
  endfacet
  facet normal 3.63531e-08 -0.707107 0.707107
    outer loop
      vertex -26.4 -22.0617 -15.2735
      vertex -17.125 -13.8783 -7.09009
      vertex -26.4 15.2735 22.0617
    endloop
  endfacet
  facet normal 0 -0.707107 0.707107
    outer loop
      vertex -26.4 -22.0617 -15.2735
      vertex -14.8269 -15.5033 -8.71509
      vertex -16.1731 -15.5033 -8.71509
    endloop
  endfacet
  facet normal 0 -0.707107 0.707107
    outer loop
      vertex -14.8269 -15.5033 -8.71509
      vertex -26.4 -22.0617 -15.2735
      vertex 14.8269 -15.5033 -8.71509
    endloop
  endfacet
  facet normal 0 -0.707107 0.707107
    outer loop
      vertex 26.4 -22.0617 -15.2735
      vertex 14.8269 -15.5033 -8.71509
      vertex -26.4 -22.0617 -15.2735
    endloop
  endfacet
  facet normal 0 -0.707107 0.707107
    outer loop
      vertex -17.125 -14.8302 -8.04199
      vertex -26.4 -22.0617 -15.2735
      vertex -16.1731 -15.5033 -8.71509
    endloop
  endfacet
  facet normal -2.76171e-07 -0.707107 0.707107
    outer loop
      vertex -17.125 -13.8783 -7.09009
      vertex -26.4 -22.0617 -15.2735
      vertex -17.125 -14.8302 -8.04199
    endloop
  endfacet
  facet normal 0 -0.707107 0.707107
    outer loop
      vertex -26.4 15.2735 22.0617
      vertex -14.8269 8.71509 15.5033
      vertex 26.4 15.2735 22.0617
    endloop
  endfacet
  facet normal 0 -0.707107 0.707107
    outer loop
      vertex 14.8269 8.71509 15.5033
      vertex 26.4 15.2735 22.0617
      vertex -14.8269 8.71509 15.5033
    endloop
  endfacet
  facet normal 0 -0.707107 0.707107
    outer loop
      vertex 16.1731 8.71509 15.5033
      vertex 26.4 15.2735 22.0617
      vertex 14.8269 8.71509 15.5033
    endloop
  endfacet
  facet normal 0 -0.707107 0.707107
    outer loop
      vertex 17.125 8.04199 14.8302
      vertex 26.4 15.2735 22.0617
      vertex 16.1731 8.71509 15.5033
    endloop
  endfacet
  facet normal 2.76171e-07 -0.707107 0.707107
    outer loop
      vertex 17.125 7.09009 13.8783
      vertex 26.4 15.2735 22.0617
      vertex 17.125 8.04199 14.8302
    endloop
  endfacet
  facet normal 2.11069e-08 -0.707107 0.707107
    outer loop
      vertex 13.875 7.09009 13.8783
      vertex 12 0.120606 6.90883
      vertex 14.8269 6.41699 13.2052
    endloop
  endfacet
  facet normal 0 -0.707107 0.707107
    outer loop
      vertex 14.8269 6.41699 13.2052
      vertex 12 0.120606 6.90883
      vertex 16.1731 6.41699 13.2052
    endloop
  endfacet
  facet normal -5.23344e-08 -0.707107 0.707107
    outer loop
      vertex 12 0.120606 6.90883
      vertex 17.125 7.09009 13.8783
      vertex 16.1731 6.41699 13.2052
    endloop
  endfacet
  facet normal 4.83147e-08 -0.707107 0.707107
    outer loop
      vertex 17.125 -13.8783 -7.09009
      vertex 17.125 7.09009 13.8783
      vertex 12 0.120606 6.90883
    endloop
  endfacet
  facet normal 4.83147e-08 -0.707107 0.707107
    outer loop
      vertex 17.125 -13.8783 -7.09009
      vertex 12 0.120606 6.90883
      vertex 12 -6.90883 -0.120606
    endloop
  endfacet
  facet normal -3.18116e-08 -0.707107 0.707107
    outer loop
      vertex -12 -6.90883 -0.120606
      vertex -13.875 -13.8783 -7.09009
      vertex -4.97056 -11.8794 -5.09117
    endloop
  endfacet
  facet normal -1.17381e-07 -0.707107 0.707107
    outer loop
      vertex -13.875 -14.8302 -8.04199
      vertex -4.97056 -11.8794 -5.09117
      vertex -13.875 -13.8783 -7.09009
    endloop
  endfacet
  facet normal 3.07777e-08 -0.707107 0.707107
    outer loop
      vertex 14.8269 -13.2052 -6.41699
      vertex 12 -6.90883 -0.120606
      vertex 4.97056 -11.8794 -5.09117
    endloop
  endfacet
  facet normal 0 -0.707107 0.707107
    outer loop
      vertex 16.1731 -13.2052 -6.41699
      vertex 12 -6.90883 -0.120606
      vertex 14.8269 -13.2052 -6.41699
    endloop
  endfacet
  facet normal -5.23344e-08 -0.707107 0.707107
    outer loop
      vertex 17.125 -13.8783 -7.09009
      vertex 12 -6.90883 -0.120606
      vertex 16.1731 -13.2052 -6.41699
    endloop
  endfacet
  facet normal -3.63531e-08 -0.707107 0.707107
    outer loop
      vertex 17.125 7.09009 13.8783
      vertex 17.125 -13.8783 -7.09009
      vertex 26.4 15.2735 22.0617
    endloop
  endfacet
  facet normal 2.76171e-07 -0.707107 0.707107
    outer loop
      vertex 26.4 -22.0617 -15.2735
      vertex 17.125 -13.8783 -7.09009
      vertex 17.125 -14.8302 -8.04199
    endloop
  endfacet
  facet normal -3.63531e-08 -0.707107 0.707107
    outer loop
      vertex 17.125 -13.8783 -7.09009
      vertex 26.4 -22.0617 -15.2735
      vertex 26.4 15.2735 22.0617
    endloop
  endfacet
  facet normal 0 -0.707107 0.707107
    outer loop
      vertex 16.1731 -15.5033 -8.71509
      vertex 26.4 -22.0617 -15.2735
      vertex 17.125 -14.8302 -8.04199
    endloop
  endfacet
  facet normal 0 -0.707107 0.707107
    outer loop
      vertex 14.8269 -15.5033 -8.71509
      vertex 26.4 -22.0617 -15.2735
      vertex 16.1731 -15.5033 -8.71509
    endloop
  endfacet
  facet normal 0 -0.707106 -0.707107
    outer loop
      vertex -26.4 -22.0617 -15.2735
      vertex 26.4 -21.3546 -15.9806
      vertex 26.4 -22.0617 -15.2735
    endloop
  endfacet
  facet normal -0 -0.707106 -0.707107
    outer loop
      vertex 26.4 -21.3546 -15.9806
      vertex -26.4 -22.0617 -15.2735
      vertex -26.4 -21.3546 -15.9806
    endloop
  endfacet
  facet normal -1 0 0
    outer loop
      vertex -26.4 47.659 -15.9806
      vertex -26.4 15.2735 22.0617
      vertex -26.4 50.4874 -13.1522
    endloop
  endfacet
  facet normal -1 0 0
    outer loop
      vertex -26.4 -21.3546 -15.9806
      vertex -26.4 15.2735 22.0617
      vertex -26.4 47.659 -15.9806
    endloop
  endfacet
  facet normal -1 0 0
    outer loop
      vertex -26.4 15.2735 22.0617
      vertex -26.4 -21.3546 -15.9806
      vertex -26.4 -22.0617 -15.2735
    endloop
  endfacet
  facet normal -0.442563 0.634089 0.634089
    outer loop
      vertex -16.0662 54.0937 -9.54594
      vertex -26.4 15.2735 22.0617
      vertex -16.0662 25.8094 18.7383
    endloop
  endfacet
  facet normal -0.442563 0.634089 0.634089
    outer loop
      vertex -26.4 15.2735 22.0617
      vertex -16.0662 54.0937 -9.54594
      vertex -26.4 50.4874 -13.1522
    endloop
  endfacet
  facet normal 9.8303e-08 0.707107 -0.707107
    outer loop
      vertex 26.4 47.659 -15.9806
      vertex 3.9338 54.0937 -9.54594
      vertex 26.4 50.4874 -13.1522
    endloop
  endfacet
  facet normal 0 0.707107 -0.707107
    outer loop
      vertex -26.4 47.659 -15.9806
      vertex 3.9338 54.0937 -9.54594
      vertex 26.4 47.659 -15.9806
    endloop
  endfacet
  facet normal 0 0.707107 -0.707107
    outer loop
      vertex 3.9338 54.0937 -9.54594
      vertex -26.4 47.659 -15.9806
      vertex -16.0662 54.0937 -9.54594
    endloop
  endfacet
  facet normal -2.13716e-07 0.707107 -0.707107
    outer loop
      vertex -16.0662 54.0937 -9.54594
      vertex -26.4 47.659 -15.9806
      vertex -26.4 50.4874 -13.1522
    endloop
  endfacet
  facet normal 0 0.300825 0.953679
    outer loop
      vertex -26.4 15.2735 22.0617
      vertex 3.9338 25.8094 18.7383
      vertex -16.0662 25.8094 18.7383
    endloop
  endfacet
  facet normal 0 0.300825 0.953679
    outer loop
      vertex 3.9338 25.8094 18.7383
      vertex -26.4 15.2735 22.0617
      vertex 26.4 15.2735 22.0617
    endloop
  endfacet
  facet normal 1.13402e-07 0.707107 0.707107
    outer loop
      vertex -4.97889 45.1664 -0.618718
      vertex -3.4412 33.6493 10.8984
      vertex -3.4412 46.2538 -1.70603
    endloop
  endfacet
  facet normal 1.42871e-08 0.707107 0.707107
    outer loop
      vertex -4.97889 45.1664 -0.618718
      vertex -4.97889 34.7366 9.81111
      vertex -3.4412 33.6493 10.8984
    endloop
  endfacet
  facet normal -0 0.707107 0.707107
    outer loop
      vertex -7.15351 45.1664 -0.618718
      vertex -4.97889 34.7366 9.81111
      vertex -4.97889 45.1664 -0.618718
    endloop
  endfacet
  facet normal 0 0.707107 0.707107
    outer loop
      vertex -7.15351 45.1664 -0.618718
      vertex -7.15351 34.7366 9.81111
      vertex -4.97889 34.7366 9.81111
    endloop
  endfacet
  facet normal -1.22759e-07 0.707107 0.707107
    outer loop
      vertex -8.6912 46.2538 -1.70603
      vertex -7.15351 34.7366 9.81111
      vertex -7.15351 45.1664 -0.618718
    endloop
  endfacet
  facet normal -2.36443e-08 0.707107 0.707107
    outer loop
      vertex -7.15351 34.7366 9.81111
      vertex -8.6912 46.2538 -1.70603
      vertex -8.6912 33.6493 10.8984
    endloop
  endfacet
  facet normal 3.50771e-07 0.707107 0.707107
    outer loop
      vertex -3.4412 46.2538 -1.70603
      vertex 3.9338 54.0937 -9.54594
      vertex -3.4412 47.7914 -3.24372
    endloop
  endfacet
  facet normal -4.96431e-08 0.707107 0.707107
    outer loop
      vertex 3.9338 54.0937 -9.54594
      vertex -4.97889 48.8788 -4.33103
      vertex -3.4412 47.7914 -3.24372
    endloop
  endfacet
  facet normal 0 0.707107 0.707107
    outer loop
      vertex 3.9338 54.0937 -9.54594
      vertex -7.15351 48.8788 -4.33103
      vertex -4.97889 48.8788 -4.33103
    endloop
  endfacet
  facet normal -3.50771e-07 0.707107 0.707107
    outer loop
      vertex -16.0662 54.0937 -9.54594
      vertex -8.6912 46.2538 -1.70603
      vertex -8.6912 47.7914 -3.24372
    endloop
  endfacet
  facet normal 9.26943e-08 0.707107 0.707107
    outer loop
      vertex -8.6912 46.2538 -1.70603
      vertex -16.0662 54.0937 -9.54594
      vertex -8.6912 33.6493 10.8984
    endloop
  endfacet
  facet normal -1.98277e-07 0.707107 0.707107
    outer loop
      vertex -16.0662 25.8094 18.7383
      vertex -8.6912 33.6493 10.8984
      vertex -16.0662 54.0937 -9.54594
    endloop
  endfacet
  facet normal 4.96431e-08 0.707107 0.707107
    outer loop
      vertex -7.15351 48.8788 -4.33103
      vertex -16.0662 54.0937 -9.54594
      vertex -8.6912 47.7914 -3.24372
    endloop
  endfacet
  facet normal -0 0.707107 0.707107
    outer loop
      vertex -16.0662 54.0937 -9.54594
      vertex -7.15351 48.8788 -4.33103
      vertex 3.9338 54.0937 -9.54594
    endloop
  endfacet
  facet normal 1.88862e-08 0.707107 0.707107
    outer loop
      vertex 3.9338 54.0937 -9.54594
      vertex -3.4412 46.2538 -1.70603
      vertex 3.9338 25.8094 18.7383
    endloop
  endfacet
  facet normal 3.09858e-07 0.707107 0.707107
    outer loop
      vertex -3.4412 33.6493 10.8984
      vertex 3.9338 25.8094 18.7383
      vertex -3.4412 46.2538 -1.70603
    endloop
  endfacet
  facet normal -1.91881e-07 0.707107 0.707107
    outer loop
      vertex -3.4412 32.1116 12.4361
      vertex 3.9338 25.8094 18.7383
      vertex -3.4412 33.6493 10.8984
    endloop
  endfacet
  facet normal -1.5717e-07 0.707107 0.707107
    outer loop
      vertex -4.97889 31.0243 13.5234
      vertex 3.9338 25.8094 18.7383
      vertex -3.4412 32.1116 12.4361
    endloop
  endfacet
  facet normal -0 0.707107 0.707107
    outer loop
      vertex -7.15351 31.0243 13.5234
      vertex 3.9338 25.8094 18.7383
      vertex -4.97889 31.0243 13.5234
    endloop
  endfacet
  facet normal 0 0.707107 0.707107
    outer loop
      vertex -7.15351 31.0243 13.5234
      vertex -16.0662 25.8094 18.7383
      vertex 3.9338 25.8094 18.7383
    endloop
  endfacet
  facet normal 1.5717e-07 0.707107 0.707107
    outer loop
      vertex -8.6912 32.1116 12.4361
      vertex -16.0662 25.8094 18.7383
      vertex -7.15351 31.0243 13.5234
    endloop
  endfacet
  facet normal 1.91881e-07 0.707107 0.707107
    outer loop
      vertex -8.6912 33.6493 10.8984
      vertex -16.0662 25.8094 18.7383
      vertex -8.6912 32.1116 12.4361
    endloop
  endfacet
endsolid OpenSCAD_Model
