solid OpenSCAD_Model
  facet normal -1 0 0
    outer loop
      vertex -19.65 0.349999 -25
      vertex -19.65 19.65 0
      vertex -19.65 19.65 -25
    endloop
  endfacet
  facet normal -1 -0 0
    outer loop
      vertex -19.65 19.65 0
      vertex -19.65 0.349999 -25
      vertex -19.65 0.349999 0
    endloop
  endfacet
  facet normal 0 0 1
    outer loop
      vertex -17.65 -8.4 0
      vertex -23.2093 -8.4 0
      vertex -17.65 -17.65 0
    endloop
  endfacet
  facet normal 0 0 1
    outer loop
      vertex 19.65 19.65 0
      vertex -17.65 17.65 0
      vertex 17.65 17.65 0
    endloop
  endfacet
  facet normal -0 0 1
    outer loop
      vertex -19.65 19.65 0
      vertex -17.65 17.65 0
      vertex 19.65 19.65 0
    endloop
  endfacet
  facet normal 0 0 1
    outer loop
      vertex -19.65 0.349999 0
      vertex -17.65 17.65 0
      vertex -19.65 19.65 0
    endloop
  endfacet
  facet normal 0 0 1
    outer loop
      vertex -17.65 17.65 0
      vertex -19.65 0.349999 0
      vertex -17.65 -6.9 0
    endloop
  endfacet
  facet normal 0 0 1
    outer loop
      vertex -17.65 -6.9 0
      vertex -19.65 0.349999 0
      vertex -22.5991 -6.9 0
    endloop
  endfacet
  facet normal -0 0 1
    outer loop
      vertex 25.25 1.47224 0
      vertex 28.25 1.10396 0
      vertex 27.4051 3.14382 0
    endloop
  endfacet
  facet normal 0 0 1
    outer loop
      vertex 28.25 1.10396 0
      vertex 25.25 1.47224 0
      vertex 28.25 -1.10396 0
    endloop
  endfacet
  facet normal 0 0 1
    outer loop
      vertex 28.25 -1.10396 0
      vertex 25.25 -1.47224 0
      vertex 27.4051 -3.14382 0
    endloop
  endfacet
  facet normal 0 0 1
    outer loop
      vertex 28.25 -1.10396 0
      vertex 25.25 1.47224 0
      vertex 25.25 -1.47224 0
    endloop
  endfacet
  facet normal 0 0 1
    outer loop
      vertex 27.4051 3.14382 0
      vertex 22.7 2.94449 0
      vertex 25.25 1.47224 0
    endloop
  endfacet
  facet normal 0 0 1
    outer loop
      vertex 22.7 2.94449 0
      vertex 17.65 17.65 0
      vertex 20.15 1.47224 0
    endloop
  endfacet
  facet normal 0 0 1
    outer loop
      vertex 27.4051 3.14382 0
      vertex 17.65 17.65 0
      vertex 22.7 2.94449 0
    endloop
  endfacet
  facet normal -0 0 1
    outer loop
      vertex 17.65 17.65 0
      vertex 27.4051 3.14382 0
      vertex 19.65 19.65 0
    endloop
  endfacet
  facet normal -0 0 1
    outer loop
      vertex 22.7 -2.94449 0
      vertex 27.4051 -3.14382 0
      vertex 25.25 -1.47224 0
    endloop
  endfacet
  facet normal 0 0 1
    outer loop
      vertex 27.4051 -3.14382 0
      vertex 22.7 -2.94449 0
      vertex 25.4651 -7.27293 0
    endloop
  endfacet
  facet normal 0 0 1
    outer loop
      vertex 17.65 -17.65 0
      vertex 22.7 -2.94449 0
      vertex 20.15 -1.47224 0
    endloop
  endfacet
  facet normal 0 0 1
    outer loop
      vertex 22.7 -2.94449 0
      vertex 17.65 -17.65 0
      vertex 25.4651 -7.27293 0
    endloop
  endfacet
  facet normal 0 0 1
    outer loop
      vertex 20.15 1.47224 0
      vertex 17.65 17.65 0
      vertex 20.15 -1.47224 0
    endloop
  endfacet
  facet normal 0 0 1
    outer loop
      vertex 17.65 -17.65 0
      vertex 20.15 -1.47224 0
      vertex 17.65 17.65 0
    endloop
  endfacet
  facet normal 0 0 1
    outer loop
      vertex 25.4651 -7.27293 0
      vertex 17.65 -17.65 0
      vertex 34.9069 -19.65 0
    endloop
  endfacet
  facet normal 0 0 1
    outer loop
      vertex -27.7855 -19.65 0
      vertex 17.65 -17.65 0
      vertex -17.65 -17.65 0
    endloop
  endfacet
  facet normal 0 0 1
    outer loop
      vertex 17.65 -17.65 0
      vertex -27.7855 -19.65 0
      vertex 34.9069 -19.65 0
    endloop
  endfacet
  facet normal 0 0 1
    outer loop
      vertex -27.7855 -19.65 0
      vertex -17.65 -17.65 0
      vertex -23.2093 -8.4 0
    endloop
  endfacet
  facet normal 0 -1 0
    outer loop
      vertex -22.8334 -19.65 -15.3
      vertex -22.45 -19.65 -20.1716
      vertex -21.2168 -19.65 -12.5
    endloop
  endfacet
  facet normal 0 -1 0
    outer loop
      vertex -21.2168 -19.65 -12.5
      vertex 19.65 -19.65 -25
      vertex 32.4216 -19.65 -19
    endloop
  endfacet
  facet normal 0 -1 0
    outer loop
      vertex -19.65 -19.65 -25
      vertex -21.2168 -19.65 -12.5
      vertex -22.45 -19.65 -20.1716
    endloop
  endfacet
  facet normal 0 -1 0
    outer loop
      vertex 32.4216 -19.65 -19
      vertex 19.65 -19.65 -25
      vertex 32.1619 -19.65 -19.2597
    endloop
  endfacet
  facet normal 0 -1 0
    outer loop
      vertex -19.65 -19.65 -25
      vertex -22.45 -19.65 -20.1716
      vertex -22.45 -19.65 -21.8284
    endloop
  endfacet
  facet normal 0 -1 0
    outer loop
      vertex 32.1619 -19.65 -19.2597
      vertex 19.65 -19.65 -25
      vertex 31.25 -19.65 -20.1716
    endloop
  endfacet
  facet normal 0 -1 0
    outer loop
      vertex -19.65 -19.65 -25
      vertex -22.45 -19.65 -21.8284
      vertex -22.7097 -19.65 -22.0881
    endloop
  endfacet
  facet normal 0 -1 -0
    outer loop
      vertex 31.25 -19.65 -20.1716
      vertex 19.65 -19.65 -25
      vertex 31.25 -19.65 -21.8284
    endloop
  endfacet
  facet normal 0 -1 0
    outer loop
      vertex -19.65 -19.65 -25
      vertex -22.7097 -19.65 -22.0881
      vertex -23.6216 -19.65 -23
    endloop
  endfacet
  facet normal 0 -1 -0
    outer loop
      vertex 31.25 -19.65 -21.8284
      vertex 19.65 -19.65 -25
      vertex 31.5097 -19.65 -22.0881
    endloop
  endfacet
  facet normal 0 -1 0
    outer loop
      vertex -23.3619 -19.65 -2.2597
      vertex 32.4216 -19.65 -2
      vertex -23.6216 -19.65 -2
    endloop
  endfacet
  facet normal 0 -1 0
    outer loop
      vertex -23.3619 -19.65 -2.2597
      vertex 32.1619 -19.65 -2.2597
      vertex 32.4216 -19.65 -2
    endloop
  endfacet
  facet normal 0 -1 0
    outer loop
      vertex -22.45 -19.65 -3.17157
      vertex 32.1619 -19.65 -2.2597
      vertex -23.3619 -19.65 -2.2597
    endloop
  endfacet
  facet normal 0 -1 0
    outer loop
      vertex -22.45 -19.65 -3.17157
      vertex 31.25 -19.65 -3.17157
      vertex 32.1619 -19.65 -2.2597
    endloop
  endfacet
  facet normal 0 -1 0
    outer loop
      vertex -22.45 -19.65 -4.82843
      vertex 31.25 -19.65 -3.17157
      vertex -22.45 -19.65 -3.17157
    endloop
  endfacet
  facet normal 0 -1 0
    outer loop
      vertex -22.45 -19.65 -4.82843
      vertex 31.25 -19.65 -4.82843
      vertex 31.25 -19.65 -3.17157
    endloop
  endfacet
  facet normal 0 -1 0
    outer loop
      vertex -22.8334 -19.65 -9.7
      vertex -22.45 -19.65 -4.82843
      vertex -22.7097 -19.65 -5.08813
    endloop
  endfacet
  facet normal 0 -1 0
    outer loop
      vertex -22.45 -19.65 -4.82843
      vertex -21.2168 -19.65 -12.5
      vertex 31.25 -19.65 -4.82843
    endloop
  endfacet
  facet normal 0 -1 0
    outer loop
      vertex -22.8334 -19.65 -9.7
      vertex -22.7097 -19.65 -5.08813
      vertex -23.6216 -19.65 -6
    endloop
  endfacet
  facet normal 0 -1 0
    outer loop
      vertex 32.4216 -19.65 -19
      vertex 31.25 -19.65 -4.82843
      vertex -21.2168 -19.65 -12.5
    endloop
  endfacet
  facet normal 0 -1 0
    outer loop
      vertex -27.7855 -19.65 0
      vertex -25.5381 -19.65 -2.2597
      vertex -25.2784 -19.65 -2
    endloop
  endfacet
  facet normal 0 -1 0
    outer loop
      vertex -27.7855 -19.65 0
      vertex -26.45 -19.65 -3.17157
      vertex -25.5381 -19.65 -2.2597
    endloop
  endfacet
  facet normal 0 -1 0
    outer loop
      vertex -29.25 -19.65 -1.46447
      vertex -26.45 -19.65 -4.82843
      vertex -26.45 -19.65 -3.17157
    endloop
  endfacet
  facet normal 0 -1 0
    outer loop
      vertex -22.8334 -19.65 -9.7
      vertex -23.6216 -19.65 -6
      vertex -25.2784 -19.65 -6
    endloop
  endfacet
  facet normal 0 -1 -0
    outer loop
      vertex -22.45 -19.65 -4.82843
      vertex -22.8334 -19.65 -9.7
      vertex -21.2168 -19.65 -12.5
    endloop
  endfacet
  facet normal 0 -1 0
    outer loop
      vertex -22.8334 -19.65 -9.7
      vertex -25.2784 -19.65 -6
      vertex -26.0666 -19.65 -9.7
    endloop
  endfacet
  facet normal 0 -1 0
    outer loop
      vertex -26.1903 -19.65 -5.08813
      vertex -26.0666 -19.65 -9.7
      vertex -25.2784 -19.65 -6
    endloop
  endfacet
  facet normal 0 -1 0
    outer loop
      vertex -26.45 -19.65 -4.82843
      vertex -26.0666 -19.65 -9.7
      vertex -26.1903 -19.65 -5.08813
    endloop
  endfacet
  facet normal 0 -1 0
    outer loop
      vertex -27.6832 -19.65 -12.5
      vertex -26.45 -19.65 -4.82843
      vertex -29.25 -19.65 -1.46447
    endloop
  endfacet
  facet normal 0 -1 -0
    outer loop
      vertex -26.45 -19.65 -4.82843
      vertex -27.6832 -19.65 -12.5
      vertex -26.0666 -19.65 -9.7
    endloop
  endfacet
  facet normal 0 -1 0
    outer loop
      vertex -26.0666 -19.65 -15.3
      vertex -25.2784 -19.65 -19
      vertex -22.8334 -19.65 -15.3
    endloop
  endfacet
  facet normal 0 -1 0
    outer loop
      vertex -26.45 -19.65 -20.1716
      vertex -26.0666 -19.65 -15.3
      vertex -27.6832 -19.65 -12.5
    endloop
  endfacet
  facet normal 0 -1 0
    outer loop
      vertex -26.0666 -19.65 -15.3
      vertex -25.5381 -19.65 -19.2597
      vertex -25.2784 -19.65 -19
    endloop
  endfacet
  facet normal 0 -1 -0
    outer loop
      vertex -26.0666 -19.65 -15.3
      vertex -26.45 -19.65 -20.1716
      vertex -25.5381 -19.65 -19.2597
    endloop
  endfacet
  facet normal 0 -1 0
    outer loop
      vertex -29.25 -19.65 -23.5355
      vertex -26.45 -19.65 -20.1716
      vertex -27.6832 -19.65 -12.5
    endloop
  endfacet
  facet normal 0 -1 0
    outer loop
      vertex -29.25 -19.65 -23.5355
      vertex -27.6832 -19.65 -12.5
      vertex -29.25 -19.65 -1.46447
    endloop
  endfacet
  facet normal 0 -1 0
    outer loop
      vertex -29.25 -19.65 -23.5355
      vertex -26.1903 -19.65 -22.0881
      vertex -26.45 -19.65 -21.8284
    endloop
  endfacet
  facet normal 0 -1 0
    outer loop
      vertex -27.7855 -19.65 -25
      vertex -23.6216 -19.65 -23
      vertex -25.2784 -19.65 -23
    endloop
  endfacet
  facet normal 0 -1 -0
    outer loop
      vertex 31.5097 -19.65 -22.0881
      vertex 19.65 -19.65 -25
      vertex 32.4216 -19.65 -23
    endloop
  endfacet
  facet normal 0 -1 -0
    outer loop
      vertex -26.1903 -19.65 -22.0881
      vertex -27.7855 -19.65 -25
      vertex -25.2784 -19.65 -23
    endloop
  endfacet
  facet normal 0 -1 0
    outer loop
      vertex -26.1903 -19.65 -22.0881
      vertex -29.25 -19.65 -23.5355
      vertex -27.7855 -19.65 -25
    endloop
  endfacet
  facet normal 0 -1 -0
    outer loop
      vertex -26.45 -19.65 -20.1716
      vertex -29.25 -19.65 -23.5355
      vertex -26.45 -19.65 -21.8284
    endloop
  endfacet
  facet normal 0 -1 0
    outer loop
      vertex -26.45 -19.65 -3.17157
      vertex -27.7855 -19.65 0
      vertex -29.25 -19.65 -1.46447
    endloop
  endfacet
  facet normal 0 -1 0
    outer loop
      vertex -27.7855 -19.65 0
      vertex -25.2784 -19.65 -2
      vertex -23.6216 -19.65 -2
    endloop
  endfacet
  facet normal 0 -1 0
    outer loop
      vertex -27.7855 -19.65 0
      vertex -23.6216 -19.65 -2
      vertex 34.9069 -19.65 0
    endloop
  endfacet
  facet normal 0 -1 0
    outer loop
      vertex 32.4216 -19.65 -2
      vertex 34.9069 -19.65 0
      vertex -23.6216 -19.65 -2
    endloop
  endfacet
  facet normal 0 -1 0
    outer loop
      vertex 34.0784 -19.65 -2
      vertex 34.9069 -19.65 0
      vertex 32.4216 -19.65 -2
    endloop
  endfacet
  facet normal 0 -1 0
    outer loop
      vertex 34.3381 -19.65 -2.2597
      vertex 34.9069 -19.65 0
      vertex 34.0784 -19.65 -2
    endloop
  endfacet
  facet normal 0 -1 0
    outer loop
      vertex 34.3381 -19.65 -2.2597
      vertex 37.25 -19.65 -2.34315
      vertex 34.9069 -19.65 0
    endloop
  endfacet
  facet normal 0 -1 0
    outer loop
      vertex 35.25 -19.65 -3.17157
      vertex 37.25 -19.65 -2.34315
      vertex 34.3381 -19.65 -2.2597
    endloop
  endfacet
  facet normal 0 -1 0
    outer loop
      vertex 35.25 -19.65 -4.82843
      vertex 37.25 -19.65 -2.34315
      vertex 35.25 -19.65 -3.17157
    endloop
  endfacet
  facet normal 0 -1 0
    outer loop
      vertex 31.25 -19.65 -4.82843
      vertex 32.4216 -19.65 -19
      vertex 31.5097 -19.65 -5.08813
    endloop
  endfacet
  facet normal 0 -1 0
    outer loop
      vertex 31.5097 -19.65 -5.08813
      vertex 32.4216 -19.65 -19
      vertex 32.4216 -19.65 -6
    endloop
  endfacet
  facet normal 0 -1 0
    outer loop
      vertex -23.3619 -19.65 -19.2597
      vertex -22.8334 -19.65 -15.3
      vertex -23.6216 -19.65 -19
    endloop
  endfacet
  facet normal 0 -1 0
    outer loop
      vertex -23.6216 -19.65 -19
      vertex -22.8334 -19.65 -15.3
      vertex -25.2784 -19.65 -19
    endloop
  endfacet
  facet normal 0 -1 0
    outer loop
      vertex -22.45 -19.65 -20.1716
      vertex -22.8334 -19.65 -15.3
      vertex -23.3619 -19.65 -19.2597
    endloop
  endfacet
  facet normal 0 -1 0
    outer loop
      vertex 32.4216 -19.65 -6
      vertex 32.4216 -19.65 -19
      vertex 34.0784 -19.65 -6
    endloop
  endfacet
  facet normal 0 -1 0
    outer loop
      vertex 34.0784 -19.65 -19
      vertex 34.0784 -19.65 -6
      vertex 32.4216 -19.65 -19
    endloop
  endfacet
  facet normal 0 -1 0
    outer loop
      vertex 34.3381 -19.65 -19.2597
      vertex 34.0784 -19.65 -6
      vertex 34.0784 -19.65 -19
    endloop
  endfacet
  facet normal 0 -1 0
    outer loop
      vertex 34.0784 -19.65 -6
      vertex 34.3381 -19.65 -19.2597
      vertex 34.9903 -19.65 -5.08813
    endloop
  endfacet
  facet normal 0 -1 0
    outer loop
      vertex 35.25 -19.65 -20.1716
      vertex 34.9903 -19.65 -5.08813
      vertex 34.3381 -19.65 -19.2597
    endloop
  endfacet
  facet normal 0 -1 0
    outer loop
      vertex 34.9903 -19.65 -5.08813
      vertex 35.25 -19.65 -20.1716
      vertex 35.25 -19.65 -4.82843
    endloop
  endfacet
  facet normal 0 -1 0
    outer loop
      vertex 35.25 -19.65 -4.82843
      vertex 35.25 -19.65 -20.1716
      vertex 37.25 -19.65 -2.34315
    endloop
  endfacet
  facet normal 0 -1 0
    outer loop
      vertex 37.25 -19.65 -22.6569
      vertex 35.25 -19.65 -20.1716
      vertex 35.25 -19.65 -21.8284
    endloop
  endfacet
  facet normal 0 -1 0
    outer loop
      vertex 35.25 -19.65 -20.1716
      vertex 37.25 -19.65 -22.6569
      vertex 37.25 -19.65 -2.34315
    endloop
  endfacet
  facet normal 0 -1 0
    outer loop
      vertex 34.9903 -19.65 -22.0881
      vertex 37.25 -19.65 -22.6569
      vertex 35.25 -19.65 -21.8284
    endloop
  endfacet
  facet normal 0 -1 0
    outer loop
      vertex 34.9069 -19.65 -25
      vertex 34.9903 -19.65 -22.0881
      vertex 34.0784 -19.65 -23
    endloop
  endfacet
  facet normal 0 -1 -0
    outer loop
      vertex -23.6216 -19.65 -23
      vertex -27.7855 -19.65 -25
      vertex -19.65 -19.65 -25
    endloop
  endfacet
  facet normal 0 -1 0
    outer loop
      vertex -21.2168 -19.65 -12.5
      vertex -19.65 -19.65 -25
      vertex 19.65 -19.65 -25
    endloop
  endfacet
  facet normal 0 -1 0
    outer loop
      vertex 34.9069 -19.65 -25
      vertex 32.4216 -19.65 -23
      vertex 19.65 -19.65 -25
    endloop
  endfacet
  facet normal 0 -1 0
    outer loop
      vertex 32.4216 -19.65 -23
      vertex 34.9069 -19.65 -25
      vertex 34.0784 -19.65 -23
    endloop
  endfacet
  facet normal 0 -1 -0
    outer loop
      vertex 34.9903 -19.65 -22.0881
      vertex 34.9069 -19.65 -25
      vertex 37.25 -19.65 -22.6569
    endloop
  endfacet
  facet normal 0 1 -0
    outer loop
      vertex 19.65 19.65 -25
      vertex -19.65 19.65 0
      vertex 19.65 19.65 0
    endloop
  endfacet
  facet normal 0 1 0
    outer loop
      vertex -19.65 19.65 0
      vertex 19.65 19.65 -25
      vertex -19.65 19.65 -25
    endloop
  endfacet
  facet normal 0 0 -1
    outer loop
      vertex -17.65 -6.9 -25
      vertex -19.65 0.349999 -25
      vertex -17.65 17.65 -25
    endloop
  endfacet
  facet normal 0 0 -1
    outer loop
      vertex -24.8364 -6.9 -25
      vertex -19.65 0.349999 -25
      vertex -17.65 -6.9 -25
    endloop
  endfacet
  facet normal -0 0 -1
    outer loop
      vertex -19.65 0.349999 -25
      vertex -24.8364 -6.9 -25
      vertex -27.7855 0.349999 -25
    endloop
  endfacet
  facet normal 0 0 -1
    outer loop
      vertex 27.4051 3.14382 -25
      vertex 17.65 17.65 -25
      vertex 19.65 19.65 -25
    endloop
  endfacet
  facet normal 0 0 -1
    outer loop
      vertex -17.65 17.65 -25
      vertex 19.65 19.65 -25
      vertex 17.65 17.65 -25
    endloop
  endfacet
  facet normal 0 0 -1
    outer loop
      vertex -17.65 17.65 -25
      vertex -19.65 19.65 -25
      vertex 19.65 19.65 -25
    endloop
  endfacet
  facet normal 0 0 -1
    outer loop
      vertex -19.65 19.65 -25
      vertex -17.65 17.65 -25
      vertex -19.65 0.349999 -25
    endloop
  endfacet
  facet normal 0 0 -1
    outer loop
      vertex 24.75 1.18357 -25
      vertex 28.25 1.10396 -25
      vertex 28.25 0.349999 -25
    endloop
  endfacet
  facet normal 0 0 -1
    outer loop
      vertex 24.75 1.18357 -25
      vertex 28.25 0.349999 -25
      vertex 24.75 -1.18357 -25
    endloop
  endfacet
  facet normal -0 0 -1
    outer loop
      vertex 34.9069 0.349999 -25
      vertex 24.75 -1.18357 -25
      vertex 28.25 0.349999 -25
    endloop
  endfacet
  facet normal 0 0 -1
    outer loop
      vertex 19.65 -19.65 -25
      vertex 24.75 -1.18357 -25
      vertex 34.9069 0.349999 -25
    endloop
  endfacet
  facet normal -0 0 -1
    outer loop
      vertex 22.7 -2.36714 -25
      vertex 17.65 -17.65 -25
      vertex 20.65 -1.18357 -25
    endloop
  endfacet
  facet normal 0 0 -1
    outer loop
      vertex 17.65 -17.65 -25
      vertex 22.7 -2.36714 -25
      vertex 19.65 -19.65 -25
    endloop
  endfacet
  facet normal 0 0 -1
    outer loop
      vertex 24.75 -1.18357 -25
      vertex 19.65 -19.65 -25
      vertex 22.7 -2.36714 -25
    endloop
  endfacet
  facet normal 0 0 -1
    outer loop
      vertex 28.25 1.10396 -25
      vertex 24.75 1.18357 -25
      vertex 27.4051 3.14382 -25
    endloop
  endfacet
  facet normal 0 0 -1
    outer loop
      vertex 22.7 2.36714 -25
      vertex 27.4051 3.14382 -25
      vertex 24.75 1.18357 -25
    endloop
  endfacet
  facet normal 0 0 -1
    outer loop
      vertex 17.65 17.65 -25
      vertex 27.4051 3.14382 -25
      vertex 22.7 2.36714 -25
    endloop
  endfacet
  facet normal 0 0 -1
    outer loop
      vertex 17.65 17.65 -25
      vertex 22.7 2.36714 -25
      vertex 20.65 1.18357 -25
    endloop
  endfacet
  facet normal -0 0 -1
    outer loop
      vertex 20.65 -1.18357 -25
      vertex 17.65 -17.65 -25
      vertex 20.65 1.18357 -25
    endloop
  endfacet
  facet normal 0 0 -1
    outer loop
      vertex 17.65 17.65 -25
      vertex 20.65 1.18357 -25
      vertex 17.65 -17.65 -25
    endloop
  endfacet
  facet normal 0 0 -1
    outer loop
      vertex 19.65 -19.65 -25
      vertex -17.65 -17.65 -25
      vertex 17.65 -17.65 -25
    endloop
  endfacet
  facet normal 0 0 -1
    outer loop
      vertex -19.65 -19.65 -25
      vertex -17.65 -17.65 -25
      vertex 19.65 -19.65 -25
    endloop
  endfacet
  facet normal 0 0 -1
    outer loop
      vertex -24.2262 -8.4 -25
      vertex -17.65 -17.65 -25
      vertex -19.65 -19.65 -25
    endloop
  endfacet
  facet normal 0 0 -1
    outer loop
      vertex -17.65 -17.65 -25
      vertex -24.2262 -8.4 -25
      vertex -17.65 -8.4 -25
    endloop
  endfacet
  facet normal 0.905083 0.425235 0
    outer loop
      vertex 27.4051 3.14382 0
      vertex 19.65 19.65 -25
      vertex 19.65 19.65 0
    endloop
  endfacet
  facet normal 0.905083 0.425235 0
    outer loop
      vertex 19.65 19.65 -25
      vertex 27.4051 3.14382 0
      vertex 27.4051 3.14382 -25
    endloop
  endfacet
  facet normal 1 0 0
    outer loop
      vertex 28.25 1.10396 0
      vertex 28.25 0.349999 -5.37568e-07
      vertex 28.25 1.10396 -25
    endloop
  endfacet
  facet normal 1 -0 0
    outer loop
      vertex 28.25 -1.10396 0
      vertex 28.25 0.349999 -5.37568e-07
      vertex 28.25 1.10396 0
    endloop
  endfacet
  facet normal 1 0 0
    outer loop
      vertex 28.25 0.349999 -5.37568e-07
      vertex 28.25 -1.10396 0
      vertex 28.25 -1.10396 -4.68238e-07
    endloop
  endfacet
  facet normal 1 0 0
    outer loop
      vertex 28.25 1.10396 -25
      vertex 28.25 0.349999 -5.37568e-07
      vertex 28.25 0.349999 -25
    endloop
  endfacet
  facet normal 0.923886 -0.382669 0
    outer loop
      vertex 27.4051 -3.14382 0
      vertex 28.25 -1.10396 -4.68238e-07
      vertex 28.25 -1.10396 0
    endloop
  endfacet
  facet normal 0.923886 -0.382669 0
    outer loop
      vertex 28.25 -1.10396 -4.68238e-07
      vertex 27.4051 -3.14382 0
      vertex 27.4051 -3.14382 -3.18155e-07
    endloop
  endfacet
  facet normal 0.905081 -0.425239 0
    outer loop
      vertex 27.4051 -3.14382 0
      vertex 25.4651 -7.27293 0
      vertex 27.4051 -3.14382 -3.18155e-07
    endloop
  endfacet
  facet normal 0.923886 0.382669 0
    outer loop
      vertex 28.25 1.10396 0
      vertex 27.4051 3.14382 -25
      vertex 27.4051 3.14382 0
    endloop
  endfacet
  facet normal 0.923886 0.382669 0
    outer loop
      vertex 27.4051 3.14382 -25
      vertex 28.25 1.10396 0
      vertex 28.25 1.10396 -25
    endloop
  endfacet
  facet normal 6.25075e-08 4.76836e-08 1
    outer loop
      vertex 28.25 -1.10396 -4.68238e-07
      vertex 34.9069 0.349999 -9.53674e-07
      vertex 28.25 0.349999 -5.37568e-07
    endloop
  endfacet
  facet normal 6.25072e-08 4.7685e-08 1
    outer loop
      vertex 27.4051 -3.14382 -3.18155e-07
      vertex 34.9069 0.349999 -9.53674e-07
      vertex 28.25 -1.10396 -4.68238e-07
    endloop
  endfacet
  facet normal 6.2508e-08 4.76833e-08 1
    outer loop
      vertex 25.4651 -7.27293 0
      vertex 34.9069 0.349999 -9.53674e-07
      vertex 27.4051 -3.14382 -3.18155e-07
    endloop
  endfacet
  facet normal 6.25076e-08 4.76837e-08 1
    outer loop
      vertex 34.9069 0.349999 -9.53674e-07
      vertex 25.4651 -7.27293 0
      vertex 34.9069 -19.65 0
    endloop
  endfacet
  facet normal 0.707114 0 0.707099
    outer loop
      vertex 37.25 0.349999 -2.34315
      vertex 34.9069 -19.65 0
      vertex 37.25 -19.65 -2.34315
    endloop
  endfacet
  facet normal 0 0 -1
    outer loop
      vertex 34.9069 -19.65 -25
      vertex 19.65 -19.65 -25
      vertex 34.9069 0.349999 -25
    endloop
  endfacet
  facet normal 1 -0 0
    outer loop
      vertex 37.25 -19.65 -2.34315
      vertex 37.25 0.349999 -22.6569
      vertex 37.25 0.349999 -2.34315
    endloop
  endfacet
  facet normal 1 0 0
    outer loop
      vertex 37.25 0.349999 -22.6569
      vertex 37.25 -19.65 -2.34315
      vertex 37.25 -19.65 -22.6569
    endloop
  endfacet
  facet normal 0.707114 3.37171e-08 0.707099
    outer loop
      vertex 34.9069 0.349999 -9.53674e-07
      vertex 34.9069 -19.65 0
      vertex 37.25 0.349999 -2.34315
    endloop
  endfacet
  facet normal 0 1 -0
    outer loop
      vertex -23.6216 0.349999 -2
      vertex -27.7855 0.349999 -9.53674e-07
      vertex -19.65 0.349999 0
    endloop
  endfacet
  facet normal 0 1 0
    outer loop
      vertex -27.7855 0.349999 -9.53674e-07
      vertex -23.6216 0.349999 -2
      vertex -25.2784 0.349999 -2
    endloop
  endfacet
  facet normal 0 1 0
    outer loop
      vertex -19.65 0.349999 0
      vertex -23.03 0.349999 -2.59159
      vertex -23.6216 0.349999 -2
    endloop
  endfacet
  facet normal 0 1 0
    outer loop
      vertex -19.65 0.349999 0
      vertex -22.45 0.349999 -3.17157
      vertex -23.03 0.349999 -2.59159
    endloop
  endfacet
  facet normal 0 1 0
    outer loop
      vertex -19.65 0.349999 0
      vertex -22.45 0.349999 -4.82843
      vertex -22.45 0.349999 -3.17157
    endloop
  endfacet
  facet normal 0 1 0
    outer loop
      vertex -23.6216 0.349999 -6
      vertex -23.5551 0.349999 -10.95
      vertex -25.2784 0.349999 -6
    endloop
  endfacet
  facet normal 0 1 0
    outer loop
      vertex -23.0416 0.349999 -5.42002
      vertex -23.5551 0.349999 -10.95
      vertex -23.6216 0.349999 -6
    endloop
  endfacet
  facet normal 0 1 0
    outer loop
      vertex -22.45 0.349999 -4.82843
      vertex -23.5551 0.349999 -10.95
      vertex -23.0416 0.349999 -5.42002
    endloop
  endfacet
  facet normal 0 1 0
    outer loop
      vertex -22.6602 0.349999 -12.5
      vertex -22.45 0.349999 -4.82843
      vertex -19.65 0.349999 0
    endloop
  endfacet
  facet normal 0 1 0
    outer loop
      vertex -22.45 0.349999 -4.82843
      vertex -22.6602 0.349999 -12.5
      vertex -23.5551 0.349999 -10.95
    endloop
  endfacet
  facet normal 0 1 0
    outer loop
      vertex -23.5551 0.349999 -14.05
      vertex -23.6216 0.349999 -19
      vertex -25.3449 0.349999 -14.05
    endloop
  endfacet
  facet normal 0 1 0
    outer loop
      vertex -22.45 0.349999 -20.1716
      vertex -23.5551 0.349999 -14.05
      vertex -22.6602 0.349999 -12.5
    endloop
  endfacet
  facet normal 0 1 -0
    outer loop
      vertex -19.65 0.349999 -25
      vertex -22.6602 0.349999 -12.5
      vertex -19.65 0.349999 0
    endloop
  endfacet
  facet normal 0 1 0
    outer loop
      vertex -23.5551 0.349999 -14.05
      vertex -23.03 0.349999 -19.5916
      vertex -23.6216 0.349999 -19
    endloop
  endfacet
  facet normal 0 1 0
    outer loop
      vertex -23.5551 0.349999 -14.05
      vertex -22.45 0.349999 -20.1716
      vertex -23.03 0.349999 -19.5916
    endloop
  endfacet
  facet normal 0 1 0
    outer loop
      vertex -22.6602 0.349999 -12.5
      vertex -19.65 0.349999 -25
      vertex -22.45 0.349999 -20.1716
    endloop
  endfacet
  facet normal 0 1 0
    outer loop
      vertex -27.7855 0.349999 -25
      vertex -25.2784 0.349999 -23
      vertex -23.6216 0.349999 -23
    endloop
  endfacet
  facet normal 0 1 0
    outer loop
      vertex -22.45 0.349999 -20.1716
      vertex -19.65 0.349999 -25
      vertex -22.45 0.349999 -21.8284
    endloop
  endfacet
  facet normal 0 1 0
    outer loop
      vertex -19.65 0.349999 -25
      vertex -23.0416 0.349999 -22.42
      vertex -22.45 0.349999 -21.8284
    endloop
  endfacet
  facet normal 0 1 0
    outer loop
      vertex -19.65 0.349999 -25
      vertex -23.6216 0.349999 -23
      vertex -23.0416 0.349999 -22.42
    endloop
  endfacet
  facet normal 0 1 0
    outer loop
      vertex -27.7855 0.349999 -25
      vertex -23.6216 0.349999 -23
      vertex -19.65 0.349999 -25
    endloop
  endfacet
  facet normal 0 1 0
    outer loop
      vertex -25.2784 0.349999 -23
      vertex -27.7855 0.349999 -25
      vertex -29.25 0.349999 -23.5355
    endloop
  endfacet
  facet normal 0 1 -0
    outer loop
      vertex -25.87 0.349999 -2.59159
      vertex -27.7855 0.349999 -9.53674e-07
      vertex -25.2784 0.349999 -2
    endloop
  endfacet
  facet normal 0 1 -0
    outer loop
      vertex -26.45 0.349999 -3.17157
      vertex -27.7855 0.349999 -9.53674e-07
      vertex -25.87 0.349999 -2.59159
    endloop
  endfacet
  facet normal 0 1 0
    outer loop
      vertex -27.7855 0.349999 -9.53674e-07
      vertex -26.45 0.349999 -3.17157
      vertex -29.25 0.349999 -1.46447
    endloop
  endfacet
  facet normal 0 1 -0
    outer loop
      vertex -26.45 0.349999 -4.82843
      vertex -29.25 0.349999 -1.46447
      vertex -26.45 0.349999 -3.17157
    endloop
  endfacet
  facet normal 0 1 0
    outer loop
      vertex -25.3449 0.349999 -10.95
      vertex -25.2784 0.349999 -6
      vertex -23.5551 0.349999 -10.95
    endloop
  endfacet
  facet normal 0 1 0
    outer loop
      vertex -25.2784 0.349999 -6
      vertex -25.3449 0.349999 -10.95
      vertex -25.8584 0.349999 -5.42002
    endloop
  endfacet
  facet normal 0 1 0
    outer loop
      vertex -25.8584 0.349999 -5.42002
      vertex -25.3449 0.349999 -10.95
      vertex -26.45 0.349999 -4.82843
    endloop
  endfacet
  facet normal 0 1 -0
    outer loop
      vertex -26.2398 0.349999 -12.5
      vertex -26.45 0.349999 -4.82843
      vertex -25.3449 0.349999 -10.95
    endloop
  endfacet
  facet normal 0 1 0
    outer loop
      vertex -26.45 0.349999 -4.82843
      vertex -26.2398 0.349999 -12.5
      vertex -29.25 0.349999 -1.46447
    endloop
  endfacet
  facet normal 0 1 -0
    outer loop
      vertex -25.2784 0.349999 -19
      vertex -25.3449 0.349999 -14.05
      vertex -23.6216 0.349999 -19
    endloop
  endfacet
  facet normal 0 1 0
    outer loop
      vertex -25.87 0.349999 -19.5916
      vertex -25.3449 0.349999 -14.05
      vertex -25.2784 0.349999 -19
    endloop
  endfacet
  facet normal 0 1 0
    outer loop
      vertex -26.45 0.349999 -20.1716
      vertex -25.3449 0.349999 -14.05
      vertex -25.87 0.349999 -19.5916
    endloop
  endfacet
  facet normal 0 1 0
    outer loop
      vertex -25.3449 0.349999 -14.05
      vertex -26.45 0.349999 -20.1716
      vertex -26.2398 0.349999 -12.5
    endloop
  endfacet
  facet normal 0 1 0
    outer loop
      vertex -29.25 0.349999 -23.5355
      vertex -26.2398 0.349999 -12.5
      vertex -26.45 0.349999 -20.1716
    endloop
  endfacet
  facet normal 0 1 0
    outer loop
      vertex -29.25 0.349999 -23.5355
      vertex -26.45 0.349999 -20.1716
      vertex -26.45 0.349999 -21.8284
    endloop
  endfacet
  facet normal 0 1 0
    outer loop
      vertex -29.25 0.349999 -23.5355
      vertex -25.8584 0.349999 -22.42
      vertex -25.2784 0.349999 -23
    endloop
  endfacet
  facet normal 0 1 0
    outer loop
      vertex -26.2398 0.349999 -12.5
      vertex -29.25 0.349999 -23.5355
      vertex -29.25 0.349999 -1.46447
    endloop
  endfacet
  facet normal 0 1 0
    outer loop
      vertex -25.8584 0.349999 -22.42
      vertex -29.25 0.349999 -23.5355
      vertex -26.45 0.349999 -21.8284
    endloop
  endfacet
  facet normal 0 1 0
    outer loop
      vertex 34.67 0.349999 -2.59159
      vertex 34.9069 0.349999 -9.53674e-07
      vertex 37.25 0.349999 -2.34315
    endloop
  endfacet
  facet normal 0 1 0
    outer loop
      vertex 34.9069 0.349999 -9.53674e-07
      vertex 34.67 0.349999 -2.59159
      vertex 34.0784 0.349999 -2
    endloop
  endfacet
  facet normal 0 1 0
    outer loop
      vertex 37.25 0.349999 -2.34315
      vertex 35.25 0.349999 -3.17157
      vertex 34.67 0.349999 -2.59159
    endloop
  endfacet
  facet normal 0 1 0
    outer loop
      vertex 37.25 0.349999 -2.34315
      vertex 35.25 0.349999 -4.82843
      vertex 35.25 0.349999 -3.17157
    endloop
  endfacet
  facet normal 0 1 0
    outer loop
      vertex 34.0784 0.349999 -6
      vertex 34.0784 0.349999 -19
      vertex 32.4216 0.349999 -6
    endloop
  endfacet
  facet normal 0 1 0
    outer loop
      vertex 34.6584 0.349999 -5.42002
      vertex 34.0784 0.349999 -19
      vertex 34.0784 0.349999 -6
    endloop
  endfacet
  facet normal 0 1 -0
    outer loop
      vertex 34.67 0.349999 -19.5916
      vertex 34.6584 0.349999 -5.42002
      vertex 35.25 0.349999 -4.82843
    endloop
  endfacet
  facet normal 0 1 0
    outer loop
      vertex 35.25 0.349999 -20.1716
      vertex 35.25 0.349999 -4.82843
      vertex 37.25 0.349999 -2.34315
    endloop
  endfacet
  facet normal 0 1 0
    outer loop
      vertex 34.6584 0.349999 -5.42002
      vertex 34.67 0.349999 -19.5916
      vertex 34.0784 0.349999 -19
    endloop
  endfacet
  facet normal 0 1 0
    outer loop
      vertex 35.25 0.349999 -4.82843
      vertex 35.25 0.349999 -20.1716
      vertex 34.67 0.349999 -19.5916
    endloop
  endfacet
  facet normal 0 1 -0
    outer loop
      vertex 37.25 0.349999 -22.6569
      vertex 35.25 0.349999 -20.1716
      vertex 37.25 0.349999 -2.34315
    endloop
  endfacet
  facet normal 0 1 0
    outer loop
      vertex 35.25 0.349999 -20.1716
      vertex 37.25 0.349999 -22.6569
      vertex 35.25 0.349999 -21.8284
    endloop
  endfacet
  facet normal 0 1 0
    outer loop
      vertex 37.25 0.349999 -22.6569
      vertex 34.6584 0.349999 -22.42
      vertex 35.25 0.349999 -21.8284
    endloop
  endfacet
  facet normal 0 1 -0
    outer loop
      vertex 34.9069 0.349999 -25
      vertex 34.6584 0.349999 -22.42
      vertex 37.25 0.349999 -22.6569
    endloop
  endfacet
  facet normal 0 1 0
    outer loop
      vertex 34.0784 0.349999 -23
      vertex 34.9069 0.349999 -25
      vertex 32.4216 0.349999 -23
    endloop
  endfacet
  facet normal 0 1 0
    outer loop
      vertex 34.6584 0.349999 -22.42
      vertex 34.9069 0.349999 -25
      vertex 34.0784 0.349999 -23
    endloop
  endfacet
  facet normal 0 1 0
    outer loop
      vertex 32.4216 0.349999 -2
      vertex 34.9069 0.349999 -9.53674e-07
      vertex 34.0784 0.349999 -2
    endloop
  endfacet
  facet normal 0 1 0
    outer loop
      vertex 34.9069 0.349999 -9.53674e-07
      vertex 32.4216 0.349999 -2
      vertex 28.25 0.349999 -5.37568e-07
    endloop
  endfacet
  facet normal 0 1 -0
    outer loop
      vertex 31.83 0.349999 -2.59159
      vertex 28.25 0.349999 -5.37568e-07
      vertex 32.4216 0.349999 -2
    endloop
  endfacet
  facet normal 0 1 -0
    outer loop
      vertex 31.25 0.349999 -3.17157
      vertex 28.25 0.349999 -5.37568e-07
      vertex 31.83 0.349999 -2.59159
    endloop
  endfacet
  facet normal 0 1 -0
    outer loop
      vertex 31.25 0.349999 -4.82843
      vertex 28.25 0.349999 -5.37568e-07
      vertex 31.25 0.349999 -3.17157
    endloop
  endfacet
  facet normal 0 1 0
    outer loop
      vertex 32.4216 0.349999 -19
      vertex 32.4216 0.349999 -6
      vertex 34.0784 0.349999 -19
    endloop
  endfacet
  facet normal 0 1 0
    outer loop
      vertex 32.4216 0.349999 -6
      vertex 32.4216 0.349999 -19
      vertex 31.8416 0.349999 -5.42002
    endloop
  endfacet
  facet normal 0 1 0
    outer loop
      vertex 31.83 0.349999 -19.5916
      vertex 31.8416 0.349999 -5.42002
      vertex 32.4216 0.349999 -19
    endloop
  endfacet
  facet normal 0 1 0
    outer loop
      vertex 31.8416 0.349999 -5.42002
      vertex 31.83 0.349999 -19.5916
      vertex 31.25 0.349999 -4.82843
    endloop
  endfacet
  facet normal 0 1 0
    outer loop
      vertex 31.25 0.349999 -20.1716
      vertex 31.25 0.349999 -4.82843
      vertex 31.83 0.349999 -19.5916
    endloop
  endfacet
  facet normal 0 1 0
    outer loop
      vertex 31.25 0.349999 -4.82843
      vertex 31.25 0.349999 -20.1716
      vertex 28.25 0.349999 -5.37568e-07
    endloop
  endfacet
  facet normal 0 1 0
    outer loop
      vertex 28.25 0.349999 -25
      vertex 31.25 0.349999 -20.1716
      vertex 31.25 0.349999 -21.8284
    endloop
  endfacet
  facet normal 0 1 0
    outer loop
      vertex 28.25 0.349999 -25
      vertex 31.8416 0.349999 -22.42
      vertex 32.4216 0.349999 -23
    endloop
  endfacet
  facet normal 0 1 0
    outer loop
      vertex 31.25 0.349999 -20.1716
      vertex 28.25 0.349999 -25
      vertex 28.25 0.349999 -5.37568e-07
    endloop
  endfacet
  facet normal 0 1 0
    outer loop
      vertex 31.8416 0.349999 -22.42
      vertex 28.25 0.349999 -25
      vertex 31.25 0.349999 -21.8284
    endloop
  endfacet
  facet normal 0 1 0
    outer loop
      vertex 28.25 0.349999 -25
      vertex 32.4216 0.349999 -23
      vertex 34.9069 0.349999 -25
    endloop
  endfacet
  facet normal 0.707107 0 -0.707107
    outer loop
      vertex 37.25 -19.65 -22.6569
      vertex 34.9069 -19.65 -25
      vertex 34.9069 0.349999 -25
    endloop
  endfacet
  facet normal 0.707107 0 -0.707107
    outer loop
      vertex 37.25 -19.65 -22.6569
      vertex 34.9069 0.349999 -25
      vertex 37.25 0.349999 -22.6569
    endloop
  endfacet
  facet normal -0.707105 3.37176e-08 0.707108
    outer loop
      vertex -27.7855 0.349999 -9.53674e-07
      vertex -28.7191 -6.9 -0.933597
      vertex -27.7855 -6.9 -6.07967e-07
    endloop
  endfacet
  facet normal -0.707099 -1.53896e-06 0.707114
    outer loop
      vertex -28.7191 -6.9 -0.933597
      vertex -27.7855 0.349999 -9.53674e-07
      vertex -29.25 0.349999 -1.46447
    endloop
  endfacet
  facet normal -0.70709 3.37183e-08 0.707123
    outer loop
      vertex -27.7855 -8.4 -5.36442e-07
      vertex -28.6093 -8.4 -0.823762
      vertex -27.7855 -19.65 0
    endloop
  endfacet
  facet normal -1 0 0
    outer loop
      vertex -29.25 -6.9 -23.5355
      vertex -29.25 0.349999 -1.46447
      vertex -29.25 0.349999 -23.5355
    endloop
  endfacet
  facet normal -1 -0 0
    outer loop
      vertex -29.25 0.349999 -1.46447
      vertex -29.25 -6.9 -23.5355
      vertex -29.25 -6.9 -1.46447
    endloop
  endfacet
  facet normal -1 0 0
    outer loop
      vertex -29.25 -19.65 -23.5355
      vertex -29.25 -8.4 -1.46447
      vertex -29.25 -8.4 -23.5355
    endloop
  endfacet
  facet normal -1 -0 0
    outer loop
      vertex -29.25 -8.4 -1.46447
      vertex -29.25 -19.65 -23.5355
      vertex -29.25 -19.65 -1.46447
    endloop
  endfacet
  facet normal -0.707107 0 -0.707107
    outer loop
      vertex -27.7855 -19.65 -25
      vertex -28.4262 -8.4 -24.3593
      vertex -27.7855 -8.4 -25
    endloop
  endfacet
  facet normal -0.707107 -2.2395e-16 -0.707107
    outer loop
      vertex -28.4262 -8.4 -24.3593
      vertex -27.7855 -19.65 -25
      vertex -29.25 -19.65 -23.5355
    endloop
  endfacet
  facet normal -0.707107 0 -0.707107
    outer loop
      vertex -27.7855 -6.9 -25
      vertex -28.3164 -6.9 -24.4691
      vertex -27.7855 0.349999 -25
    endloop
  endfacet
  facet normal -1.17224e-07 4.76837e-08 1
    outer loop
      vertex -27.7855 -8.4 -5.36442e-07
      vertex -27.7855 -19.65 0
      vertex -23.2093 -8.4 0
    endloop
  endfacet
  facet normal -1.17224e-07 4.76834e-08 1
    outer loop
      vertex -27.7855 0.349999 -9.53674e-07
      vertex -22.5991 -6.9 0
      vertex -19.65 0.349999 0
    endloop
  endfacet
  facet normal -1.17223e-07 4.76837e-08 1
    outer loop
      vertex -22.5991 -6.9 0
      vertex -27.7855 0.349999 -9.53674e-07
      vertex -27.7855 -6.9 -6.07967e-07
    endloop
  endfacet
  facet normal -0.707089 0 0.707125
    outer loop
      vertex -29.25 0.349999 -1.46447
      vertex -29.25 -6.9 -1.46447
      vertex -28.7191 -6.9 -0.933597
    endloop
  endfacet
  facet normal -0.707111 0 0.707102
    outer loop
      vertex -29.25 -19.65 -1.46447
      vertex -28.6093 -8.4 -0.823762
      vertex -29.25 -8.4 -1.46447
    endloop
  endfacet
  facet normal -0.7071 -1.32778e-06 0.707114
    outer loop
      vertex -28.6093 -8.4 -0.823762
      vertex -29.25 -19.65 -1.46447
      vertex -27.7855 -19.65 0
    endloop
  endfacet
  facet normal -0.707107 0 -0.707107
    outer loop
      vertex -28.4262 -8.4 -24.3593
      vertex -29.25 -19.65 -23.5355
      vertex -29.25 -8.4 -23.5355
    endloop
  endfacet
  facet normal -0.707107 3.43812e-16 -0.707107
    outer loop
      vertex -28.3164 -6.9 -24.4691
      vertex -29.25 0.349999 -23.5355
      vertex -27.7855 0.349999 -25
    endloop
  endfacet
  facet normal -0.707107 -0 -0.707107
    outer loop
      vertex -29.25 0.349999 -23.5355
      vertex -28.3164 -6.9 -24.4691
      vertex -29.25 -6.9 -23.5355
    endloop
  endfacet
  facet normal 0 0 -1
    outer loop
      vertex -27.7855 -19.65 -25
      vertex -24.2262 -8.4 -25
      vertex -19.65 -19.65 -25
    endloop
  endfacet
  facet normal -0 0 -1
    outer loop
      vertex -24.2262 -8.4 -25
      vertex -27.7855 -19.65 -25
      vertex -27.7855 -8.4 -25
    endloop
  endfacet
  facet normal 0 0 -1
    outer loop
      vertex -24.8364 -6.9 -25
      vertex -27.7855 -6.9 -25
      vertex -27.7855 0.349999 -25
    endloop
  endfacet
  facet normal 0.866023 0 -0.500004
    outer loop
      vertex -26.0666 -19.65 -9.7
      vertex -27.6832 -14.65 -12.5
      vertex -26.0666 -14.65 -9.7
    endloop
  endfacet
  facet normal 0.866023 0 -0.500004
    outer loop
      vertex -27.6832 -14.65 -12.5
      vertex -26.0666 -19.65 -9.7
      vertex -27.6832 -19.65 -12.5
    endloop
  endfacet
  facet normal -0 0 1
    outer loop
      vertex -26.0666 -14.65 -15.3
      vertex -22.8334 -19.65 -15.3
      vertex -22.8334 -14.65 -15.3
    endloop
  endfacet
  facet normal 0 0 1
    outer loop
      vertex -22.8334 -19.65 -15.3
      vertex -26.0666 -14.65 -15.3
      vertex -26.0666 -19.65 -15.3
    endloop
  endfacet
  facet normal 0.866023 -0 0.500004
    outer loop
      vertex -27.6832 -19.65 -12.5
      vertex -26.0666 -14.65 -15.3
      vertex -27.6832 -14.65 -12.5
    endloop
  endfacet
  facet normal 0.866023 0 0.500004
    outer loop
      vertex -26.0666 -14.65 -15.3
      vertex -27.6832 -19.65 -12.5
      vertex -26.0666 -19.65 -15.3
    endloop
  endfacet
  facet normal -0.866023 0 0.500004
    outer loop
      vertex -22.8334 -19.65 -15.3
      vertex -21.2168 -14.65 -12.5
      vertex -22.8334 -14.65 -15.3
    endloop
  endfacet
  facet normal -0.866023 0 0.500004
    outer loop
      vertex -21.2168 -14.65 -12.5
      vertex -22.8334 -19.65 -15.3
      vertex -21.2168 -19.65 -12.5
    endloop
  endfacet
  facet normal 0 -1 0
    outer loop
      vertex -26.0666 -14.65 -9.7
      vertex -25.3449 -14.65 -10.95
      vertex -22.8334 -14.65 -9.7
    endloop
  endfacet
  facet normal 0 -1 0
    outer loop
      vertex -27.6832 -14.65 -12.5
      vertex -25.3449 -14.65 -10.95
      vertex -26.0666 -14.65 -9.7
    endloop
  endfacet
  facet normal 0 -1 0
    outer loop
      vertex -27.6832 -14.65 -12.5
      vertex -26.2398 -14.65 -12.5
      vertex -25.3449 -14.65 -10.95
    endloop
  endfacet
  facet normal 0 -1 0
    outer loop
      vertex -27.6832 -14.65 -12.5
      vertex -25.3449 -14.65 -14.05
      vertex -26.2398 -14.65 -12.5
    endloop
  endfacet
  facet normal 0 -1 -0
    outer loop
      vertex -25.3449 -14.65 -14.05
      vertex -26.0666 -14.65 -15.3
      vertex -23.5551 -14.65 -14.05
    endloop
  endfacet
  facet normal 0 -1 0
    outer loop
      vertex -26.0666 -14.65 -15.3
      vertex -25.3449 -14.65 -14.05
      vertex -27.6832 -14.65 -12.5
    endloop
  endfacet
  facet normal 0 -1 0
    outer loop
      vertex -23.5551 -14.65 -10.95
      vertex -22.8334 -14.65 -9.7
      vertex -25.3449 -14.65 -10.95
    endloop
  endfacet
  facet normal 0 -1 0
    outer loop
      vertex -22.6602 -14.65 -12.5
      vertex -22.8334 -14.65 -9.7
      vertex -23.5551 -14.65 -10.95
    endloop
  endfacet
  facet normal 0 -1 0
    outer loop
      vertex -22.6602 -14.65 -12.5
      vertex -21.2168 -14.65 -12.5
      vertex -22.8334 -14.65 -9.7
    endloop
  endfacet
  facet normal 0 -1 0
    outer loop
      vertex -23.5551 -14.65 -14.05
      vertex -21.2168 -14.65 -12.5
      vertex -22.6602 -14.65 -12.5
    endloop
  endfacet
  facet normal 0 -1 0
    outer loop
      vertex -23.5551 -14.65 -14.05
      vertex -22.8334 -14.65 -15.3
      vertex -21.2168 -14.65 -12.5
    endloop
  endfacet
  facet normal 0 -1 0
    outer loop
      vertex -22.8334 -14.65 -15.3
      vertex -23.5551 -14.65 -14.05
      vertex -26.0666 -14.65 -15.3
    endloop
  endfacet
  facet normal -0.866023 0 -0.500004
    outer loop
      vertex -21.2168 -19.65 -12.5
      vertex -22.8334 -14.65 -9.7
      vertex -21.2168 -14.65 -12.5
    endloop
  endfacet
  facet normal -0.866023 -0 -0.500004
    outer loop
      vertex -22.8334 -14.65 -9.7
      vertex -21.2168 -19.65 -12.5
      vertex -22.8334 -19.65 -9.7
    endloop
  endfacet
  facet normal 0 0 -1
    outer loop
      vertex -26.0666 -19.65 -9.7
      vertex -22.8334 -14.65 -9.7
      vertex -22.8334 -19.65 -9.7
    endloop
  endfacet
  facet normal -0 0 -1
    outer loop
      vertex -22.8334 -14.65 -9.7
      vertex -26.0666 -19.65 -9.7
      vertex -26.0666 -14.65 -9.7
    endloop
  endfacet
  facet normal 0.866024 0 -0.500003
    outer loop
      vertex -25.3449 -14.65 -10.95
      vertex -26.2398 -8.4 -12.5
      vertex -25.3449 -8.4 -10.95
    endloop
  endfacet
  facet normal 0.866024 0 -0.500003
    outer loop
      vertex -26.2398 -8.4 -12.5
      vertex -25.3449 -14.65 -10.95
      vertex -26.2398 -14.65 -12.5
    endloop
  endfacet
  facet normal 0.866024 0 -0.500003
    outer loop
      vertex -25.3449 -6.9 -10.95
      vertex -26.2398 0.349999 -12.5
      vertex -25.3449 0.349999 -10.95
    endloop
  endfacet
  facet normal 0.866024 0 -0.500003
    outer loop
      vertex -26.2398 0.349999 -12.5
      vertex -25.3449 -6.9 -10.95
      vertex -26.2398 -6.9 -12.5
    endloop
  endfacet
  facet normal -0 0 1
    outer loop
      vertex -25.3449 -8.4 -14.05
      vertex -23.5551 -14.65 -14.05
      vertex -23.5551 -8.4 -14.05
    endloop
  endfacet
  facet normal 0 0 1
    outer loop
      vertex -23.5551 -14.65 -14.05
      vertex -25.3449 -8.4 -14.05
      vertex -25.3449 -14.65 -14.05
    endloop
  endfacet
  facet normal -0 0 1
    outer loop
      vertex -25.3449 0.349999 -14.05
      vertex -23.5551 -6.9 -14.05
      vertex -23.5551 0.349999 -14.05
    endloop
  endfacet
  facet normal 0 0 1
    outer loop
      vertex -23.5551 -6.9 -14.05
      vertex -25.3449 0.349999 -14.05
      vertex -25.3449 -6.9 -14.05
    endloop
  endfacet
  facet normal 0.866024 -0 0.500003
    outer loop
      vertex -26.2398 -14.65 -12.5
      vertex -25.3449 -8.4 -14.05
      vertex -26.2398 -8.4 -12.5
    endloop
  endfacet
  facet normal 0.866024 0 0.500003
    outer loop
      vertex -25.3449 -8.4 -14.05
      vertex -26.2398 -14.65 -12.5
      vertex -25.3449 -14.65 -14.05
    endloop
  endfacet
  facet normal 0.866024 -0 0.500003
    outer loop
      vertex -26.2398 -6.9 -12.5
      vertex -25.3449 0.349999 -14.05
      vertex -26.2398 0.349999 -12.5
    endloop
  endfacet
  facet normal 0.866024 0 0.500003
    outer loop
      vertex -25.3449 0.349999 -14.05
      vertex -26.2398 -6.9 -12.5
      vertex -25.3449 -6.9 -14.05
    endloop
  endfacet
  facet normal -0.866024 0 0.500003
    outer loop
      vertex -23.5551 -14.65 -14.05
      vertex -22.6602 -8.4 -12.5
      vertex -23.5551 -8.4 -14.05
    endloop
  endfacet
  facet normal -0.866024 0 0.500003
    outer loop
      vertex -22.6602 -8.4 -12.5
      vertex -23.5551 -14.65 -14.05
      vertex -22.6602 -14.65 -12.5
    endloop
  endfacet
  facet normal -0.866024 0 0.500003
    outer loop
      vertex -23.5551 -6.9 -14.05
      vertex -22.6602 0.349999 -12.5
      vertex -23.5551 0.349999 -14.05
    endloop
  endfacet
  facet normal -0.866024 0 0.500003
    outer loop
      vertex -22.6602 0.349999 -12.5
      vertex -23.5551 -6.9 -14.05
      vertex -22.6602 -6.9 -12.5
    endloop
  endfacet
  facet normal 0 0 -1
    outer loop
      vertex -25.3449 -14.65 -10.95
      vertex -23.5551 -8.4 -10.95
      vertex -23.5551 -14.65 -10.95
    endloop
  endfacet
  facet normal -0 0 -1
    outer loop
      vertex -23.5551 -8.4 -10.95
      vertex -25.3449 -14.65 -10.95
      vertex -25.3449 -8.4 -10.95
    endloop
  endfacet
  facet normal 0 0 -1
    outer loop
      vertex -25.3449 -6.9 -10.95
      vertex -23.5551 0.349999 -10.95
      vertex -23.5551 -6.9 -10.95
    endloop
  endfacet
  facet normal -0 0 -1
    outer loop
      vertex -23.5551 0.349999 -10.95
      vertex -25.3449 -6.9 -10.95
      vertex -25.3449 0.349999 -10.95
    endloop
  endfacet
  facet normal -0.866024 0 -0.500003
    outer loop
      vertex -22.6602 -14.65 -12.5
      vertex -23.5551 -8.4 -10.95
      vertex -22.6602 -8.4 -12.5
    endloop
  endfacet
  facet normal -0.866024 -0 -0.500003
    outer loop
      vertex -23.5551 -8.4 -10.95
      vertex -22.6602 -14.65 -12.5
      vertex -23.5551 -14.65 -10.95
    endloop
  endfacet
  facet normal -0.866024 0 -0.500003
    outer loop
      vertex -22.6602 -6.9 -12.5
      vertex -23.5551 0.349999 -10.95
      vertex -22.6602 0.349999 -12.5
    endloop
  endfacet
  facet normal -0.866024 -0 -0.500003
    outer loop
      vertex -23.5551 0.349999 -10.95
      vertex -22.6602 -6.9 -12.5
      vertex -23.5551 -6.9 -10.95
    endloop
  endfacet
  facet normal -0.707099 3.65666e-07 -0.707115
    outer loop
      vertex -23.3619 -19.65 -2.2597
      vertex -23.6216 -8.4 -2
      vertex -23.1752 -8.4 -2.44639
    endloop
  endfacet
  facet normal -0.707107 -0 -0.707107
    outer loop
      vertex -23.6216 -8.4 -2
      vertex -23.3619 -19.65 -2.2597
      vertex -23.6216 -19.65 -2
    endloop
  endfacet
  facet normal -0.707092 -0 -0.707122
    outer loop
      vertex -23.6216 0.349999 -2
      vertex -23.1503 -6.9 -2.47128
      vertex -23.6216 -6.9 -2
    endloop
  endfacet
  facet normal -0.707101 -1.17366e-06 -0.707113
    outer loop
      vertex -23.1503 -6.9 -2.47128
      vertex -23.6216 0.349999 -2
      vertex -23.03 0.349999 -2.59159
    endloop
  endfacet
  facet normal -0.707097 0 -0.707117
    outer loop
      vertex -22.45 -19.65 -3.17157
      vertex -23.1752 -8.4 -2.44639
      vertex -22.45 -8.4 -3.17157
    endloop
  endfacet
  facet normal -0.707095 2.42487e-07 -0.707118
    outer loop
      vertex -23.1752 -8.4 -2.44639
      vertex -22.45 -19.65 -3.17157
      vertex -23.3619 -19.65 -2.2597
    endloop
  endfacet
  facet normal -0.707095 0 -0.707119
    outer loop
      vertex -22.45 -6.9 -3.17157
      vertex -23.03 0.349999 -2.59159
      vertex -22.45 0.349999 -3.17157
    endloop
  endfacet
  facet normal -0.707102 -1.14287e-06 -0.707112
    outer loop
      vertex -23.03 0.349999 -2.59159
      vertex -22.45 -6.9 -3.17157
      vertex -23.1503 -6.9 -2.47128
    endloop
  endfacet
  facet normal 0 0 -1
    outer loop
      vertex -25.2784 -19.65 -2
      vertex -23.6216 -8.4 -2
      vertex -23.6216 -19.65 -2
    endloop
  endfacet
  facet normal -0 0 -1
    outer loop
      vertex -23.6216 -8.4 -2
      vertex -25.2784 -19.65 -2
      vertex -25.2784 -8.4 -2
    endloop
  endfacet
  facet normal 0 0 -1
    outer loop
      vertex -25.2784 -6.9 -2
      vertex -23.6216 0.349999 -2
      vertex -23.6216 -6.9 -2
    endloop
  endfacet
  facet normal -0 0 -1
    outer loop
      vertex -23.6216 0.349999 -2
      vertex -25.2784 -6.9 -2
      vertex -25.2784 0.349999 -2
    endloop
  endfacet
  facet normal 0.707107 0 -0.707107
    outer loop
      vertex -25.5381 -19.65 -2.2597
      vertex -25.2784 -8.4 -2
      vertex -25.2784 -19.65 -2
    endloop
  endfacet
  facet normal 0.707099 3.65666e-07 -0.707115
    outer loop
      vertex -25.2784 -8.4 -2
      vertex -25.5381 -19.65 -2.2597
      vertex -25.7248 -8.4 -2.44639
    endloop
  endfacet
  facet normal 0.707092 0 -0.707122
    outer loop
      vertex -25.7497 -6.9 -2.47128
      vertex -25.2784 0.349999 -2
      vertex -25.2784 -6.9 -2
    endloop
  endfacet
  facet normal 0.707101 -1.17366e-06 -0.707113
    outer loop
      vertex -25.2784 0.349999 -2
      vertex -25.7497 -6.9 -2.47128
      vertex -25.87 0.349999 -2.59159
    endloop
  endfacet
  facet normal 0.707099 -3.65666e-07 0.707115
    outer loop
      vertex -26.45 -8.4 -4.82843
      vertex -26.1903 -19.65 -5.08813
      vertex -26.0036 -8.4 -5.27482
    endloop
  endfacet
  facet normal 0.707107 0 0.707107
    outer loop
      vertex -26.1903 -19.65 -5.08813
      vertex -26.45 -8.4 -4.82843
      vertex -26.45 -19.65 -4.82843
    endloop
  endfacet
  facet normal 0.707092 0 0.707122
    outer loop
      vertex -25.9787 -6.9 -5.29971
      vertex -26.45 0.349999 -4.82843
      vertex -26.45 -6.9 -4.82843
    endloop
  endfacet
  facet normal 0.707101 1.17366e-06 0.707113
    outer loop
      vertex -26.45 0.349999 -4.82843
      vertex -25.9787 -6.9 -5.29971
      vertex -25.8584 0.349999 -5.42002
    endloop
  endfacet
  facet normal -0.707097 0 0.707117
    outer loop
      vertex -23.6216 -19.65 -6
      vertex -22.8964 -8.4 -5.27482
      vertex -23.6216 -8.4 -6
    endloop
  endfacet
  facet normal -0.707095 -2.42487e-07 0.707118
    outer loop
      vertex -22.8964 -8.4 -5.27482
      vertex -23.6216 -19.65 -6
      vertex -22.7097 -19.65 -5.08813
    endloop
  endfacet
  facet normal -0.707095 0 0.707119
    outer loop
      vertex -23.6216 -6.9 -6
      vertex -23.0416 0.349999 -5.42002
      vertex -23.6216 0.349999 -6
    endloop
  endfacet
  facet normal -0.707102 1.14287e-06 0.707112
    outer loop
      vertex -23.0416 0.349999 -5.42002
      vertex -23.6216 -6.9 -6
      vertex -22.9213 -6.9 -5.29971
    endloop
  endfacet
  facet normal -0 0 1
    outer loop
      vertex -25.2784 -8.4 -6
      vertex -23.6216 -19.65 -6
      vertex -23.6216 -8.4 -6
    endloop
  endfacet
  facet normal 0 0 1
    outer loop
      vertex -23.6216 -19.65 -6
      vertex -25.2784 -8.4 -6
      vertex -25.2784 -19.65 -6
    endloop
  endfacet
  facet normal -0 0 1
    outer loop
      vertex -25.2784 0.349999 -6
      vertex -23.6216 -6.9 -6
      vertex -23.6216 0.349999 -6
    endloop
  endfacet
  facet normal 0 0 1
    outer loop
      vertex -23.6216 -6.9 -6
      vertex -25.2784 0.349999 -6
      vertex -25.2784 -6.9 -6
    endloop
  endfacet
  facet normal -0.707099 -3.65666e-07 0.707115
    outer loop
      vertex -22.7097 -19.65 -5.08813
      vertex -22.45 -8.4 -4.82843
      vertex -22.8964 -8.4 -5.27482
    endloop
  endfacet
  facet normal -0.707107 0 0.707107
    outer loop
      vertex -22.45 -8.4 -4.82843
      vertex -22.7097 -19.65 -5.08813
      vertex -22.45 -19.65 -4.82843
    endloop
  endfacet
  facet normal -0.707101 1.17366e-06 0.707113
    outer loop
      vertex -22.9213 -6.9 -5.29971
      vertex -22.45 0.349999 -4.82843
      vertex -23.0416 0.349999 -5.42002
    endloop
  endfacet
  facet normal -0.707092 0 0.707122
    outer loop
      vertex -22.45 0.349999 -4.82843
      vertex -22.9213 -6.9 -5.29971
      vertex -22.45 -6.9 -4.82843
    endloop
  endfacet
  facet normal -1 0 0
    outer loop
      vertex -22.45 -19.65 -4.82843
      vertex -22.45 -8.4 -3.17157
      vertex -22.45 -8.4 -4.82843
    endloop
  endfacet
  facet normal -1 -0 0
    outer loop
      vertex -22.45 -8.4 -3.17157
      vertex -22.45 -19.65 -4.82843
      vertex -22.45 -19.65 -3.17157
    endloop
  endfacet
  facet normal -1 0 0
    outer loop
      vertex -22.45 -6.9 -4.82843
      vertex -22.45 0.349999 -3.17157
      vertex -22.45 0.349999 -4.82843
    endloop
  endfacet
  facet normal -1 -0 0
    outer loop
      vertex -22.45 0.349999 -3.17157
      vertex -22.45 -6.9 -4.82843
      vertex -22.45 -6.9 -3.17157
    endloop
  endfacet
  facet normal 0.707097 0 0.707117
    outer loop
      vertex -26.0036 -8.4 -5.27482
      vertex -25.2784 -19.65 -6
      vertex -25.2784 -8.4 -6
    endloop
  endfacet
  facet normal 0.707095 -2.42487e-07 0.707118
    outer loop
      vertex -25.2784 -19.65 -6
      vertex -26.0036 -8.4 -5.27482
      vertex -26.1903 -19.65 -5.08813
    endloop
  endfacet
  facet normal 0.707102 1.14287e-06 0.707112
    outer loop
      vertex -25.2784 -6.9 -6
      vertex -25.8584 0.349999 -5.42002
      vertex -25.9787 -6.9 -5.29971
    endloop
  endfacet
  facet normal 0.707095 0 0.707119
    outer loop
      vertex -25.8584 0.349999 -5.42002
      vertex -25.2784 -6.9 -6
      vertex -25.2784 0.349999 -6
    endloop
  endfacet
  facet normal 0.707095 2.42487e-07 -0.707118
    outer loop
      vertex -26.45 -19.65 -3.17157
      vertex -25.7248 -8.4 -2.44639
      vertex -25.5381 -19.65 -2.2597
    endloop
  endfacet
  facet normal 0.707097 0 -0.707117
    outer loop
      vertex -25.7248 -8.4 -2.44639
      vertex -26.45 -19.65 -3.17157
      vertex -26.45 -8.4 -3.17157
    endloop
  endfacet
  facet normal 0.707102 -1.14287e-06 -0.707112
    outer loop
      vertex -26.45 -6.9 -3.17157
      vertex -25.87 0.349999 -2.59159
      vertex -25.7497 -6.9 -2.47128
    endloop
  endfacet
  facet normal 0.707095 0 -0.707119
    outer loop
      vertex -25.87 0.349999 -2.59159
      vertex -26.45 -6.9 -3.17157
      vertex -26.45 0.349999 -3.17157
    endloop
  endfacet
  facet normal 1 -0 0
    outer loop
      vertex -26.45 -19.65 -3.17157
      vertex -26.45 -8.4 -4.82843
      vertex -26.45 -8.4 -3.17157
    endloop
  endfacet
  facet normal 1 0 0
    outer loop
      vertex -26.45 -8.4 -4.82843
      vertex -26.45 -19.65 -3.17157
      vertex -26.45 -19.65 -4.82843
    endloop
  endfacet
  facet normal 1 -0 0
    outer loop
      vertex -26.45 -6.9 -3.17157
      vertex -26.45 0.349999 -4.82843
      vertex -26.45 0.349999 -3.17157
    endloop
  endfacet
  facet normal 1 0 0
    outer loop
      vertex -26.45 0.349999 -4.82843
      vertex -26.45 -6.9 -3.17157
      vertex -26.45 -6.9 -4.82843
    endloop
  endfacet
  facet normal -0.707107 -0 -0.707107
    outer loop
      vertex 34.0784 0.349999 -2
      vertex 34.3381 -19.65 -2.2597
      vertex 34.0784 -19.65 -2
    endloop
  endfacet
  facet normal -0.707101 1.55204e-07 -0.707113
    outer loop
      vertex 34.3381 -19.65 -2.2597
      vertex 34.0784 0.349999 -2
      vertex 34.67 0.349999 -2.59159
    endloop
  endfacet
  facet normal -0.707095 0 -0.707119
    outer loop
      vertex 35.25 -19.65 -3.17157
      vertex 34.67 0.349999 -2.59159
      vertex 35.25 0.349999 -3.17157
    endloop
  endfacet
  facet normal -0.707095 -3.24907e-08 -0.707118
    outer loop
      vertex 34.67 0.349999 -2.59159
      vertex 35.25 -19.65 -3.17157
      vertex 34.3381 -19.65 -2.2597
    endloop
  endfacet
  facet normal 1 -0 0
    outer loop
      vertex 31.25 -19.65 -3.17157
      vertex 31.25 0.349999 -4.82843
      vertex 31.25 0.349999 -3.17157
    endloop
  endfacet
  facet normal 1 0 0
    outer loop
      vertex 31.25 0.349999 -4.82843
      vertex 31.25 -19.65 -3.17157
      vertex 31.25 -19.65 -4.82843
    endloop
  endfacet
  facet normal 0 0 -1
    outer loop
      vertex 32.4216 -19.65 -2
      vertex 34.0784 0.349999 -2
      vertex 34.0784 -19.65 -2
    endloop
  endfacet
  facet normal -0 0 -1
    outer loop
      vertex 34.0784 0.349999 -2
      vertex 32.4216 -19.65 -2
      vertex 32.4216 0.349999 -2
    endloop
  endfacet
  facet normal -0.707095 0 0.707119
    outer loop
      vertex 34.0784 -19.65 -6
      vertex 34.6584 0.349999 -5.42002
      vertex 34.0784 0.349999 -6
    endloop
  endfacet
  facet normal -0.707095 3.24907e-08 0.707118
    outer loop
      vertex 34.6584 0.349999 -5.42002
      vertex 34.0784 -19.65 -6
      vertex 34.9903 -19.65 -5.08813
    endloop
  endfacet
  facet normal 0.707095 0 0.707119
    outer loop
      vertex 31.8416 0.349999 -5.42002
      vertex 32.4216 -19.65 -6
      vertex 32.4216 0.349999 -6
    endloop
  endfacet
  facet normal 0.707095 3.24907e-08 0.707118
    outer loop
      vertex 32.4216 -19.65 -6
      vertex 31.8416 0.349999 -5.42002
      vertex 31.5097 -19.65 -5.08813
    endloop
  endfacet
  facet normal 0.707107 0 -0.707107
    outer loop
      vertex 32.1619 -19.65 -2.2597
      vertex 32.4216 0.349999 -2
      vertex 32.4216 -19.65 -2
    endloop
  endfacet
  facet normal 0.707101 1.55204e-07 -0.707113
    outer loop
      vertex 32.4216 0.349999 -2
      vertex 32.1619 -19.65 -2.2597
      vertex 31.83 0.349999 -2.59159
    endloop
  endfacet
  facet normal 0.707095 -3.24907e-08 -0.707118
    outer loop
      vertex 31.25 -19.65 -3.17157
      vertex 31.83 0.349999 -2.59159
      vertex 32.1619 -19.65 -2.2597
    endloop
  endfacet
  facet normal 0.707095 0 -0.707119
    outer loop
      vertex 31.83 0.349999 -2.59159
      vertex 31.25 -19.65 -3.17157
      vertex 31.25 0.349999 -3.17157
    endloop
  endfacet
  facet normal 0.707107 0 0.707107
    outer loop
      vertex 31.5097 -19.65 -5.08813
      vertex 31.25 0.349999 -4.82843
      vertex 31.25 -19.65 -4.82843
    endloop
  endfacet
  facet normal 0.707101 -1.55204e-07 0.707113
    outer loop
      vertex 31.25 0.349999 -4.82843
      vertex 31.5097 -19.65 -5.08813
      vertex 31.8416 0.349999 -5.42002
    endloop
  endfacet
  facet normal -0 0 1
    outer loop
      vertex 32.4216 0.349999 -6
      vertex 34.0784 -19.65 -6
      vertex 34.0784 0.349999 -6
    endloop
  endfacet
  facet normal 0 0 1
    outer loop
      vertex 34.0784 -19.65 -6
      vertex 32.4216 0.349999 -6
      vertex 32.4216 -19.65 -6
    endloop
  endfacet
  facet normal -0.707101 -1.55204e-07 0.707113
    outer loop
      vertex 34.9903 -19.65 -5.08813
      vertex 35.25 0.349999 -4.82843
      vertex 34.6584 0.349999 -5.42002
    endloop
  endfacet
  facet normal -0.707107 0 0.707107
    outer loop
      vertex 35.25 0.349999 -4.82843
      vertex 34.9903 -19.65 -5.08813
      vertex 35.25 -19.65 -4.82843
    endloop
  endfacet
  facet normal -1 0 0
    outer loop
      vertex 35.25 -19.65 -4.82843
      vertex 35.25 0.349999 -3.17157
      vertex 35.25 0.349999 -4.82843
    endloop
  endfacet
  facet normal -1 -0 0
    outer loop
      vertex 35.25 0.349999 -3.17157
      vertex 35.25 -19.65 -4.82843
      vertex 35.25 -19.65 -3.17157
    endloop
  endfacet
  facet normal -0.707107 -2.23735e-16 -0.707107
    outer loop
      vertex -23.3619 -19.65 -19.2597
      vertex -23.6216 -8.4 -19
      vertex -23.1752 -8.4 -19.4464
    endloop
  endfacet
  facet normal -0.707107 -0 -0.707107
    outer loop
      vertex -23.6216 -8.4 -19
      vertex -23.3619 -19.65 -19.2597
      vertex -23.6216 -19.65 -19
    endloop
  endfacet
  facet normal -0.707107 0 -0.707107
    outer loop
      vertex -23.1503 -6.9 -19.4713
      vertex -23.6216 0.349999 -19
      vertex -23.03 0.349999 -19.5916
    endloop
  endfacet
  facet normal -0.707107 -0 -0.707107
    outer loop
      vertex -23.6216 0.349999 -19
      vertex -23.1503 -6.9 -19.4713
      vertex -23.6216 -6.9 -19
    endloop
  endfacet
  facet normal -0.707107 0 -0.707107
    outer loop
      vertex -22.45 -19.65 -20.1716
      vertex -23.1752 -8.4 -19.4464
      vertex -22.45 -8.4 -20.1716
    endloop
  endfacet
  facet normal -0.707107 -1.77917e-16 -0.707107
    outer loop
      vertex -23.1752 -8.4 -19.4464
      vertex -22.45 -19.65 -20.1716
      vertex -23.3619 -19.65 -19.2597
    endloop
  endfacet
  facet normal -0.707107 0 -0.707107
    outer loop
      vertex -22.45 -6.9 -20.1716
      vertex -23.03 0.349999 -19.5916
      vertex -22.45 0.349999 -20.1716
    endloop
  endfacet
  facet normal -0.707107 0 -0.707107
    outer loop
      vertex -23.03 0.349999 -19.5916
      vertex -22.45 -6.9 -20.1716
      vertex -23.1503 -6.9 -19.4713
    endloop
  endfacet
  facet normal 0 0 -1
    outer loop
      vertex -25.2784 -19.65 -19
      vertex -23.6216 -8.4 -19
      vertex -23.6216 -19.65 -19
    endloop
  endfacet
  facet normal -0 0 -1
    outer loop
      vertex -23.6216 -8.4 -19
      vertex -25.2784 -19.65 -19
      vertex -25.2784 -8.4 -19
    endloop
  endfacet
  facet normal 0 0 -1
    outer loop
      vertex -25.2784 -6.9 -19
      vertex -23.6216 0.349999 -19
      vertex -23.6216 -6.9 -19
    endloop
  endfacet
  facet normal -0 0 -1
    outer loop
      vertex -23.6216 0.349999 -19
      vertex -25.2784 -6.9 -19
      vertex -25.2784 0.349999 -19
    endloop
  endfacet
  facet normal 0.707107 0 -0.707107
    outer loop
      vertex -25.5381 -19.65 -19.2597
      vertex -25.2784 -8.4 -19
      vertex -25.2784 -19.65 -19
    endloop
  endfacet
  facet normal 0.707107 -1.30919e-16 -0.707107
    outer loop
      vertex -25.2784 -8.4 -19
      vertex -25.5381 -19.65 -19.2597
      vertex -25.7248 -8.4 -19.4464
    endloop
  endfacet
  facet normal 0.707107 0 -0.707107
    outer loop
      vertex -25.7497 -6.9 -19.4713
      vertex -25.2784 0.349999 -19
      vertex -25.2784 -6.9 -19
    endloop
  endfacet
  facet normal 0.707107 0 -0.707107
    outer loop
      vertex -25.2784 0.349999 -19
      vertex -25.7497 -6.9 -19.4713
      vertex -25.87 0.349999 -19.5916
    endloop
  endfacet
  facet normal 0.707107 -2.22758e-16 0.707107
    outer loop
      vertex -26.45 -8.4 -21.8284
      vertex -26.1903 -19.65 -22.0881
      vertex -26.0036 -8.4 -22.2748
    endloop
  endfacet
  facet normal 0.707107 0 0.707107
    outer loop
      vertex -26.1903 -19.65 -22.0881
      vertex -26.45 -8.4 -21.8284
      vertex -26.45 -19.65 -21.8284
    endloop
  endfacet
  facet normal 0.707107 0 0.707107
    outer loop
      vertex -25.9787 -6.9 -22.2997
      vertex -26.45 0.349999 -21.8284
      vertex -26.45 -6.9 -21.8284
    endloop
  endfacet
  facet normal 0.707107 -7.32132e-17 0.707107
    outer loop
      vertex -26.45 0.349999 -21.8284
      vertex -25.9787 -6.9 -22.2997
      vertex -25.8584 0.349999 -22.42
    endloop
  endfacet
  facet normal -0.707107 0 0.707107
    outer loop
      vertex -23.6216 -19.65 -23
      vertex -22.8964 -8.4 -22.2748
      vertex -23.6216 -8.4 -23
    endloop
  endfacet
  facet normal -0.707107 0 0.707107
    outer loop
      vertex -22.8964 -8.4 -22.2748
      vertex -23.6216 -19.65 -23
      vertex -22.7097 -19.65 -22.0881
    endloop
  endfacet
  facet normal -0.707107 0 0.707107
    outer loop
      vertex -23.6216 -6.9 -23
      vertex -23.0416 0.349999 -22.42
      vertex -23.6216 0.349999 -23
    endloop
  endfacet
  facet normal -0.707107 5.99163e-17 0.707107
    outer loop
      vertex -23.0416 0.349999 -22.42
      vertex -23.6216 -6.9 -23
      vertex -22.9213 -6.9 -22.2997
    endloop
  endfacet
  facet normal -0 0 1
    outer loop
      vertex -25.2784 -8.4 -23
      vertex -23.6216 -19.65 -23
      vertex -23.6216 -8.4 -23
    endloop
  endfacet
  facet normal 0 0 1
    outer loop
      vertex -23.6216 -19.65 -23
      vertex -25.2784 -8.4 -23
      vertex -25.2784 -19.65 -23
    endloop
  endfacet
  facet normal -0 0 1
    outer loop
      vertex -25.2784 0.349999 -23
      vertex -23.6216 -6.9 -23
      vertex -23.6216 0.349999 -23
    endloop
  endfacet
  facet normal 0 0 1
    outer loop
      vertex -23.6216 -6.9 -23
      vertex -25.2784 0.349999 -23
      vertex -25.2784 -6.9 -23
    endloop
  endfacet
  facet normal 1 -0 0
    outer loop
      vertex -26.45 -19.65 -20.1716
      vertex -26.45 -8.4 -21.8284
      vertex -26.45 -8.4 -20.1716
    endloop
  endfacet
  facet normal 1 0 0
    outer loop
      vertex -26.45 -8.4 -21.8284
      vertex -26.45 -19.65 -20.1716
      vertex -26.45 -19.65 -21.8284
    endloop
  endfacet
  facet normal 1 -0 0
    outer loop
      vertex -26.45 -6.9 -20.1716
      vertex -26.45 0.349999 -21.8284
      vertex -26.45 0.349999 -20.1716
    endloop
  endfacet
  facet normal 1 0 0
    outer loop
      vertex -26.45 0.349999 -21.8284
      vertex -26.45 -6.9 -20.1716
      vertex -26.45 -6.9 -21.8284
    endloop
  endfacet
  facet normal -0.707107 0 0.707107
    outer loop
      vertex -22.7097 -19.65 -22.0881
      vertex -22.45 -8.4 -21.8284
      vertex -22.8964 -8.4 -22.2748
    endloop
  endfacet
  facet normal -0.707107 0 0.707107
    outer loop
      vertex -22.45 -8.4 -21.8284
      vertex -22.7097 -19.65 -22.0881
      vertex -22.45 -19.65 -21.8284
    endloop
  endfacet
  facet normal -0.707107 -7.09252e-17 0.707107
    outer loop
      vertex -22.9213 -6.9 -22.2997
      vertex -22.45 0.349999 -21.8284
      vertex -23.0416 0.349999 -22.42
    endloop
  endfacet
  facet normal -0.707107 0 0.707107
    outer loop
      vertex -22.45 0.349999 -21.8284
      vertex -22.9213 -6.9 -22.2997
      vertex -22.45 -6.9 -21.8284
    endloop
  endfacet
  facet normal -1 0 0
    outer loop
      vertex -22.45 -19.65 -21.8284
      vertex -22.45 -8.4 -20.1716
      vertex -22.45 -8.4 -21.8284
    endloop
  endfacet
  facet normal -1 -0 0
    outer loop
      vertex -22.45 -8.4 -20.1716
      vertex -22.45 -19.65 -21.8284
      vertex -22.45 -19.65 -20.1716
    endloop
  endfacet
  facet normal -1 0 0
    outer loop
      vertex -22.45 -6.9 -21.8284
      vertex -22.45 0.349999 -20.1716
      vertex -22.45 0.349999 -21.8284
    endloop
  endfacet
  facet normal -1 -0 0
    outer loop
      vertex -22.45 0.349999 -20.1716
      vertex -22.45 -6.9 -21.8284
      vertex -22.45 -6.9 -20.1716
    endloop
  endfacet
  facet normal 0.707107 -2.21918e-16 0.707107
    outer loop
      vertex -25.2784 -19.65 -23
      vertex -26.0036 -8.4 -22.2748
      vertex -26.1903 -19.65 -22.0881
    endloop
  endfacet
  facet normal 0.707107 0 0.707107
    outer loop
      vertex -26.0036 -8.4 -22.2748
      vertex -25.2784 -19.65 -23
      vertex -25.2784 -8.4 -23
    endloop
  endfacet
  facet normal 0.707107 0 0.707107
    outer loop
      vertex -25.2784 -6.9 -23
      vertex -25.8584 0.349999 -22.42
      vertex -25.9787 -6.9 -22.2997
    endloop
  endfacet
  facet normal 0.707107 0 0.707107
    outer loop
      vertex -25.8584 0.349999 -22.42
      vertex -25.2784 -6.9 -23
      vertex -25.2784 0.349999 -23
    endloop
  endfacet
  facet normal 0.707107 -1.76004e-16 -0.707107
    outer loop
      vertex -26.45 -19.65 -20.1716
      vertex -25.7248 -8.4 -19.4464
      vertex -25.5381 -19.65 -19.2597
    endloop
  endfacet
  facet normal 0.707107 0 -0.707107
    outer loop
      vertex -25.7248 -8.4 -19.4464
      vertex -26.45 -19.65 -20.1716
      vertex -26.45 -8.4 -20.1716
    endloop
  endfacet
  facet normal 0.707107 6.18491e-17 -0.707107
    outer loop
      vertex -26.45 -6.9 -20.1716
      vertex -25.87 0.349999 -19.5916
      vertex -25.7497 -6.9 -19.4713
    endloop
  endfacet
  facet normal 0.707107 0 -0.707107
    outer loop
      vertex -25.87 0.349999 -19.5916
      vertex -26.45 -6.9 -20.1716
      vertex -26.45 0.349999 -20.1716
    endloop
  endfacet
  facet normal -0.707107 1.26064e-16 -0.707107
    outer loop
      vertex 34.3381 -19.65 -19.2597
      vertex 34.0784 0.349999 -19
      vertex 34.67 0.349999 -19.5916
    endloop
  endfacet
  facet normal -0.707107 -0 -0.707107
    outer loop
      vertex 34.0784 0.349999 -19
      vertex 34.3381 -19.65 -19.2597
      vertex 34.0784 -19.65 -19
    endloop
  endfacet
  facet normal -0.707107 0 -0.707107
    outer loop
      vertex 35.25 -19.65 -20.1716
      vertex 34.67 0.349999 -19.5916
      vertex 35.25 0.349999 -20.1716
    endloop
  endfacet
  facet normal -0.707107 1.24829e-16 -0.707107
    outer loop
      vertex 34.67 0.349999 -19.5916
      vertex 35.25 -19.65 -20.1716
      vertex 34.3381 -19.65 -19.2597
    endloop
  endfacet
  facet normal 1 -0 0
    outer loop
      vertex 31.25 -19.65 -20.1716
      vertex 31.25 0.349999 -21.8284
      vertex 31.25 0.349999 -20.1716
    endloop
  endfacet
  facet normal 1 0 0
    outer loop
      vertex 31.25 0.349999 -21.8284
      vertex 31.25 -19.65 -20.1716
      vertex 31.25 -19.65 -21.8284
    endloop
  endfacet
  facet normal -0.707107 0 0.707107
    outer loop
      vertex 34.0784 -19.65 -23
      vertex 34.6584 0.349999 -22.42
      vertex 34.0784 0.349999 -23
    endloop
  endfacet
  facet normal -0.707107 8.07085e-17 0.707107
    outer loop
      vertex 34.6584 0.349999 -22.42
      vertex 34.0784 -19.65 -23
      vertex 34.9903 -19.65 -22.0881
    endloop
  endfacet
  facet normal 0.707107 0 0.707107
    outer loop
      vertex 32.4216 -19.65 -23
      vertex 31.8416 0.349999 -22.42
      vertex 31.5097 -19.65 -22.0881
    endloop
  endfacet
  facet normal 0.707107 0 0.707107
    outer loop
      vertex 31.8416 0.349999 -22.42
      vertex 32.4216 -19.65 -23
      vertex 32.4216 0.349999 -23
    endloop
  endfacet
  facet normal 0.707107 0 -0.707107
    outer loop
      vertex 32.1619 -19.65 -19.2597
      vertex 32.4216 0.349999 -19
      vertex 32.4216 -19.65 -19
    endloop
  endfacet
  facet normal 0.707107 1.24405e-16 -0.707107
    outer loop
      vertex 32.4216 0.349999 -19
      vertex 32.1619 -19.65 -19.2597
      vertex 31.83 0.349999 -19.5916
    endloop
  endfacet
  facet normal 0 0 -1
    outer loop
      vertex 32.4216 -19.65 -19
      vertex 34.0784 0.349999 -19
      vertex 34.0784 -19.65 -19
    endloop
  endfacet
  facet normal -0 0 -1
    outer loop
      vertex 34.0784 0.349999 -19
      vertex 32.4216 -19.65 -19
      vertex 32.4216 0.349999 -19
    endloop
  endfacet
  facet normal 0.707107 1.24829e-16 -0.707107
    outer loop
      vertex 31.25 -19.65 -20.1716
      vertex 31.83 0.349999 -19.5916
      vertex 32.1619 -19.65 -19.2597
    endloop
  endfacet
  facet normal 0.707107 0 -0.707107
    outer loop
      vertex 31.83 0.349999 -19.5916
      vertex 31.25 -19.65 -20.1716
      vertex 31.25 0.349999 -20.1716
    endloop
  endfacet
  facet normal 0.707107 0 0.707107
    outer loop
      vertex 31.5097 -19.65 -22.0881
      vertex 31.25 0.349999 -21.8284
      vertex 31.25 -19.65 -21.8284
    endloop
  endfacet
  facet normal 0.707107 -6.96669e-17 0.707107
    outer loop
      vertex 31.25 0.349999 -21.8284
      vertex 31.5097 -19.65 -22.0881
      vertex 31.8416 0.349999 -22.42
    endloop
  endfacet
  facet normal -0 0 1
    outer loop
      vertex 32.4216 0.349999 -23
      vertex 34.0784 -19.65 -23
      vertex 34.0784 0.349999 -23
    endloop
  endfacet
  facet normal 0 0 1
    outer loop
      vertex 34.0784 -19.65 -23
      vertex 32.4216 0.349999 -23
      vertex 32.4216 -19.65 -23
    endloop
  endfacet
  facet normal -0.707107 5.47383e-17 0.707107
    outer loop
      vertex 34.9903 -19.65 -22.0881
      vertex 35.25 0.349999 -21.8284
      vertex 34.6584 0.349999 -22.42
    endloop
  endfacet
  facet normal -0.707107 0 0.707107
    outer loop
      vertex 35.25 0.349999 -21.8284
      vertex 34.9903 -19.65 -22.0881
      vertex 35.25 -19.65 -21.8284
    endloop
  endfacet
  facet normal -1 0 0
    outer loop
      vertex 35.25 -19.65 -21.8284
      vertex 35.25 0.349999 -20.1716
      vertex 35.25 0.349999 -21.8284
    endloop
  endfacet
  facet normal -1 -0 0
    outer loop
      vertex 35.25 0.349999 -20.1716
      vertex 35.25 -19.65 -21.8284
      vertex 35.25 -19.65 -20.1716
    endloop
  endfacet
  facet normal -1 0 0
    outer loop
      vertex 25.25 -1.47224 -15
      vertex 25.25 1.47224 0
      vertex 25.25 1.47224 -15
    endloop
  endfacet
  facet normal -1 -0 0
    outer loop
      vertex 25.25 1.47224 0
      vertex 25.25 -1.47224 -15
      vertex 25.25 -1.47224 0
    endloop
  endfacet
  facet normal -0.500002 -0.866024 0
    outer loop
      vertex 22.7 2.94449 -15
      vertex 25.25 1.47224 0
      vertex 22.7 2.94449 0
    endloop
  endfacet
  facet normal -0.500002 -0.866024 -0
    outer loop
      vertex 25.25 1.47224 0
      vertex 22.7 2.94449 -15
      vertex 25.25 1.47224 -15
    endloop
  endfacet
  facet normal 0.500002 -0.866024 0
    outer loop
      vertex 20.15 1.47224 -15
      vertex 22.7 2.94449 0
      vertex 20.15 1.47224 0
    endloop
  endfacet
  facet normal 0.500002 -0.866024 0
    outer loop
      vertex 22.7 2.94449 0
      vertex 20.15 1.47224 -15
      vertex 22.7 2.94449 -15
    endloop
  endfacet
  facet normal -0.500002 0.866024 0
    outer loop
      vertex 25.25 -1.47224 -15
      vertex 22.7 -2.94449 0
      vertex 25.25 -1.47224 0
    endloop
  endfacet
  facet normal -0.500002 0.866024 0
    outer loop
      vertex 22.7 -2.94449 0
      vertex 25.25 -1.47224 -15
      vertex 22.7 -2.94449 -15
    endloop
  endfacet
  facet normal 0.474344 0.821584 0.316226
    outer loop
      vertex 22.7 -2.94449 -15
      vertex 20.65 -1.18357 -16.5
      vertex 20.15 -1.47224 -15
    endloop
  endfacet
  facet normal 1 -0 0
    outer loop
      vertex 20.15 -1.47224 0
      vertex 20.15 1.47224 -15
      vertex 20.15 1.47224 0
    endloop
  endfacet
  facet normal 1 0 0
    outer loop
      vertex 20.15 1.47224 -15
      vertex 20.15 -1.47224 0
      vertex 20.15 -1.47224 -15
    endloop
  endfacet
  facet normal 0.474344 -0.821584 0.316226
    outer loop
      vertex 20.65 1.18357 -16.5
      vertex 22.7 2.94449 -15
      vertex 20.15 1.47224 -15
    endloop
  endfacet
  facet normal 0.948683 0 0.316228
    outer loop
      vertex 20.15 1.47224 -15
      vertex 20.65 -1.18357 -16.5
      vertex 20.65 1.18357 -16.5
    endloop
  endfacet
  facet normal 0.948683 0 0.316228
    outer loop
      vertex 20.65 -1.18357 -16.5
      vertex 20.15 1.47224 -15
      vertex 20.15 -1.47224 -15
    endloop
  endfacet
  facet normal -0.474344 -0.821584 0.316226
    outer loop
      vertex 24.75 1.18357 -16.5
      vertex 25.25 1.47224 -15
      vertex 22.7 2.94449 -15
    endloop
  endfacet
  facet normal -0.474342 0.821584 0.316228
    outer loop
      vertex 24.75 -1.18357 -16.5
      vertex 22.7 -2.36714 -16.5
      vertex 22.7 -2.94449 -15
    endloop
  endfacet
  facet normal 0.500002 0.866024 -0
    outer loop
      vertex 22.7 -2.94449 -15
      vertex 20.15 -1.47224 0
      vertex 22.7 -2.94449 0
    endloop
  endfacet
  facet normal 0.500002 0.866024 0
    outer loop
      vertex 20.15 -1.47224 0
      vertex 22.7 -2.94449 -15
      vertex 20.15 -1.47224 -15
    endloop
  endfacet
  facet normal 0.474342 0.821584 0.316228
    outer loop
      vertex 22.7 -2.94449 -15
      vertex 22.7 -2.36714 -16.5
      vertex 20.65 -1.18357 -16.5
    endloop
  endfacet
  facet normal -0.474342 -0.821584 0.316228
    outer loop
      vertex 24.75 1.18357 -16.5
      vertex 22.7 2.94449 -15
      vertex 22.7 2.36714 -16.5
    endloop
  endfacet
  facet normal -0.948683 0 0.316228
    outer loop
      vertex 24.75 -1.18357 -16.5
      vertex 25.25 1.47224 -15
      vertex 24.75 1.18357 -16.5
    endloop
  endfacet
  facet normal -0.948683 0 0.316228
    outer loop
      vertex 25.25 1.47224 -15
      vertex 24.75 -1.18357 -16.5
      vertex 25.25 -1.47224 -15
    endloop
  endfacet
  facet normal -0.474344 0.821584 0.316226
    outer loop
      vertex 25.25 -1.47224 -15
      vertex 24.75 -1.18357 -16.5
      vertex 22.7 -2.94449 -15
    endloop
  endfacet
  facet normal 0.474342 -0.821584 0.316228
    outer loop
      vertex 22.7 2.36714 -16.5
      vertex 22.7 2.94449 -15
      vertex 20.65 1.18357 -16.5
    endloop
  endfacet
  facet normal -0.500001 -0.866025 0
    outer loop
      vertex 22.7 2.36714 -25
      vertex 24.75 1.18357 -16.5
      vertex 22.7 2.36714 -16.5
    endloop
  endfacet
  facet normal -0.500001 -0.866025 -0
    outer loop
      vertex 24.75 1.18357 -16.5
      vertex 22.7 2.36714 -25
      vertex 24.75 1.18357 -25
    endloop
  endfacet
  facet normal 1 -0 0
    outer loop
      vertex 20.65 -1.18357 -16.5
      vertex 20.65 1.18357 -25
      vertex 20.65 1.18357 -16.5
    endloop
  endfacet
  facet normal 1 0 0
    outer loop
      vertex 20.65 1.18357 -25
      vertex 20.65 -1.18357 -16.5
      vertex 20.65 -1.18357 -25
    endloop
  endfacet
  facet normal 0.500001 -0.866025 0
    outer loop
      vertex 20.65 1.18357 -25
      vertex 22.7 2.36714 -16.5
      vertex 20.65 1.18357 -16.5
    endloop
  endfacet
  facet normal 0.500001 -0.866025 0
    outer loop
      vertex 22.7 2.36714 -16.5
      vertex 20.65 1.18357 -25
      vertex 22.7 2.36714 -25
    endloop
  endfacet
  facet normal -0.500001 0.866025 0
    outer loop
      vertex 24.75 -1.18357 -25
      vertex 22.7 -2.36714 -16.5
      vertex 24.75 -1.18357 -16.5
    endloop
  endfacet
  facet normal -0.500001 0.866025 0
    outer loop
      vertex 22.7 -2.36714 -16.5
      vertex 24.75 -1.18357 -25
      vertex 22.7 -2.36714 -25
    endloop
  endfacet
  facet normal 0.500001 0.866025 -0
    outer loop
      vertex 22.7 -2.36714 -25
      vertex 20.65 -1.18357 -16.5
      vertex 22.7 -2.36714 -16.5
    endloop
  endfacet
  facet normal 0.500001 0.866025 0
    outer loop
      vertex 20.65 -1.18357 -16.5
      vertex 22.7 -2.36714 -25
      vertex 20.65 -1.18357 -25
    endloop
  endfacet
  facet normal -1 0 0
    outer loop
      vertex 24.75 -1.18357 -25
      vertex 24.75 1.18357 -16.5
      vertex 24.75 1.18357 -25
    endloop
  endfacet
  facet normal -1 -0 0
    outer loop
      vertex 24.75 1.18357 -16.5
      vertex 24.75 -1.18357 -25
      vertex 24.75 -1.18357 -16.5
    endloop
  endfacet
  facet normal 0 -1 0
    outer loop
      vertex -27.7855 -6.9 -6.07967e-07
      vertex -25.7497 -6.9 -2.47128
      vertex -25.2784 -6.9 -2
    endloop
  endfacet
  facet normal 0 -1 0
    outer loop
      vertex -28.7191 -6.9 -0.933597
      vertex -26.45 -6.9 -3.17157
      vertex -25.7497 -6.9 -2.47128
    endloop
  endfacet
  facet normal 0 -1 0
    outer loop
      vertex -29.25 -6.9 -1.46447
      vertex -26.45 -6.9 -4.82843
      vertex -26.45 -6.9 -3.17157
    endloop
  endfacet
  facet normal 0 -1 0
    outer loop
      vertex -25.3449 -6.9 -10.95
      vertex -25.9787 -6.9 -5.29971
      vertex -26.45 -6.9 -4.82843
    endloop
  endfacet
  facet normal 0 -1 -0
    outer loop
      vertex -25.2784 -6.9 -6
      vertex -25.3449 -6.9 -10.95
      vertex -23.6216 -6.9 -6
    endloop
  endfacet
  facet normal 0 -1 0
    outer loop
      vertex -25.9787 -6.9 -5.29971
      vertex -25.3449 -6.9 -10.95
      vertex -25.2784 -6.9 -6
    endloop
  endfacet
  facet normal 0 -1 0
    outer loop
      vertex -26.2398 -6.9 -12.5
      vertex -26.45 -6.9 -4.82843
      vertex -29.25 -6.9 -1.46447
    endloop
  endfacet
  facet normal 0 -1 0
    outer loop
      vertex -26.45 -6.9 -4.82843
      vertex -26.2398 -6.9 -12.5
      vertex -25.3449 -6.9 -10.95
    endloop
  endfacet
  facet normal 0 -1 0
    outer loop
      vertex -25.3449 -6.9 -14.05
      vertex -25.2784 -6.9 -19
      vertex -23.5551 -6.9 -14.05
    endloop
  endfacet
  facet normal 0 -1 0
    outer loop
      vertex -26.45 -6.9 -20.1716
      vertex -25.3449 -6.9 -14.05
      vertex -26.2398 -6.9 -12.5
    endloop
  endfacet
  facet normal 0 -1 0
    outer loop
      vertex -29.25 -6.9 -23.5355
      vertex -26.2398 -6.9 -12.5
      vertex -29.25 -6.9 -1.46447
    endloop
  endfacet
  facet normal 0 -1 -0
    outer loop
      vertex -25.3449 -6.9 -14.05
      vertex -25.7497 -6.9 -19.4713
      vertex -25.2784 -6.9 -19
    endloop
  endfacet
  facet normal 0 -1 0
    outer loop
      vertex -25.3449 -6.9 -14.05
      vertex -26.45 -6.9 -20.1716
      vertex -25.7497 -6.9 -19.4713
    endloop
  endfacet
  facet normal 0 -1 0
    outer loop
      vertex -26.2398 -6.9 -12.5
      vertex -29.25 -6.9 -23.5355
      vertex -26.45 -6.9 -20.1716
    endloop
  endfacet
  facet normal 0 -1 0
    outer loop
      vertex -28.3164 -6.9 -24.4691
      vertex -25.9787 -6.9 -22.2997
      vertex -26.45 -6.9 -21.8284
    endloop
  endfacet
  facet normal 0 -1 0
    outer loop
      vertex -27.7855 -6.9 -25
      vertex -25.9787 -6.9 -22.2997
      vertex -28.3164 -6.9 -24.4691
    endloop
  endfacet
  facet normal 0 -1 0
    outer loop
      vertex -28.3164 -6.9 -24.4691
      vertex -26.45 -6.9 -21.8284
      vertex -29.25 -6.9 -23.5355
    endloop
  endfacet
  facet normal 0 -1 -0
    outer loop
      vertex -26.45 -6.9 -20.1716
      vertex -29.25 -6.9 -23.5355
      vertex -26.45 -6.9 -21.8284
    endloop
  endfacet
  facet normal 0 -1 0
    outer loop
      vertex -25.2784 -6.9 -2
      vertex -22.5991 -6.9 0
      vertex -27.7855 -6.9 -6.07967e-07
    endloop
  endfacet
  facet normal 0 -1 0
    outer loop
      vertex -25.7497 -6.9 -2.47128
      vertex -27.7855 -6.9 -6.07967e-07
      vertex -28.7191 -6.9 -0.933597
    endloop
  endfacet
  facet normal 0 -1 0
    outer loop
      vertex -26.45 -6.9 -3.17157
      vertex -28.7191 -6.9 -0.933597
      vertex -29.25 -6.9 -1.46447
    endloop
  endfacet
  facet normal 0 -1 0
    outer loop
      vertex -22.5991 -6.9 0
      vertex -25.2784 -6.9 -2
      vertex -23.6216 -6.9 -2
    endloop
  endfacet
  facet normal 0 -1 0
    outer loop
      vertex -23.1503 -6.9 -2.47128
      vertex -22.5991 -6.9 0
      vertex -23.6216 -6.9 -2
    endloop
  endfacet
  facet normal 0 -1 0
    outer loop
      vertex -22.45 -6.9 -3.17157
      vertex -22.5991 -6.9 0
      vertex -23.1503 -6.9 -2.47128
    endloop
  endfacet
  facet normal 0 -1 0
    outer loop
      vertex -22.5991 -6.9 0
      vertex -22.45 -6.9 -3.17157
      vertex -17.65 -6.9 0
    endloop
  endfacet
  facet normal 0 -1 0
    outer loop
      vertex -22.45 -6.9 -4.82843
      vertex -17.65 -6.9 0
      vertex -22.45 -6.9 -3.17157
    endloop
  endfacet
  facet normal 0 -1 0
    outer loop
      vertex -23.5551 -6.9 -10.95
      vertex -23.6216 -6.9 -6
      vertex -25.3449 -6.9 -10.95
    endloop
  endfacet
  facet normal 0 -1 0
    outer loop
      vertex -23.6216 -6.9 -6
      vertex -23.5551 -6.9 -10.95
      vertex -22.9213 -6.9 -5.29971
    endloop
  endfacet
  facet normal 0 -1 -0
    outer loop
      vertex -22.9213 -6.9 -5.29971
      vertex -23.5551 -6.9 -10.95
      vertex -22.45 -6.9 -4.82843
    endloop
  endfacet
  facet normal 0 -1 0
    outer loop
      vertex -22.6602 -6.9 -12.5
      vertex -22.45 -6.9 -4.82843
      vertex -23.5551 -6.9 -10.95
    endloop
  endfacet
  facet normal 0 -1 -0
    outer loop
      vertex -22.45 -6.9 -4.82843
      vertex -22.6602 -6.9 -12.5
      vertex -17.65 -6.9 0
    endloop
  endfacet
  facet normal 0 -1 0
    outer loop
      vertex -23.6216 -6.9 -19
      vertex -23.5551 -6.9 -14.05
      vertex -25.2784 -6.9 -19
    endloop
  endfacet
  facet normal 0 -1 0
    outer loop
      vertex -23.1503 -6.9 -19.4713
      vertex -23.5551 -6.9 -14.05
      vertex -23.6216 -6.9 -19
    endloop
  endfacet
  facet normal 0 -1 0
    outer loop
      vertex -22.45 -6.9 -20.1716
      vertex -23.5551 -6.9 -14.05
      vertex -23.1503 -6.9 -19.4713
    endloop
  endfacet
  facet normal 0 -1 0
    outer loop
      vertex -23.5551 -6.9 -14.05
      vertex -22.45 -6.9 -20.1716
      vertex -22.6602 -6.9 -12.5
    endloop
  endfacet
  facet normal 0 -1 0
    outer loop
      vertex -17.65 -6.9 -25
      vertex -22.6602 -6.9 -12.5
      vertex -22.45 -6.9 -20.1716
    endloop
  endfacet
  facet normal 0 -1 0
    outer loop
      vertex -17.65 -6.9 -25
      vertex -22.45 -6.9 -20.1716
      vertex -22.45 -6.9 -21.8284
    endloop
  endfacet
  facet normal 0 -1 -0
    outer loop
      vertex -25.9787 -6.9 -22.2997
      vertex -27.7855 -6.9 -25
      vertex -25.2784 -6.9 -23
    endloop
  endfacet
  facet normal 0 -1 -0
    outer loop
      vertex -25.2784 -6.9 -23
      vertex -27.7855 -6.9 -25
      vertex -24.8364 -6.9 -25
    endloop
  endfacet
  facet normal 0 -1 0
    outer loop
      vertex -25.2784 -6.9 -23
      vertex -24.8364 -6.9 -25
      vertex -23.6216 -6.9 -23
    endloop
  endfacet
  facet normal 0 -1 0
    outer loop
      vertex -17.65 -6.9 -25
      vertex -23.6216 -6.9 -23
      vertex -24.8364 -6.9 -25
    endloop
  endfacet
  facet normal 0 -1 0
    outer loop
      vertex -23.6216 -6.9 -23
      vertex -17.65 -6.9 -25
      vertex -22.9213 -6.9 -22.2997
    endloop
  endfacet
  facet normal 0 -1 0
    outer loop
      vertex -22.6602 -6.9 -12.5
      vertex -17.65 -6.9 -25
      vertex -17.65 -6.9 0
    endloop
  endfacet
  facet normal 0 -1 0
    outer loop
      vertex -22.9213 -6.9 -22.2997
      vertex -17.65 -6.9 -25
      vertex -22.45 -6.9 -21.8284
    endloop
  endfacet
  facet normal 0 1 -0
    outer loop
      vertex -22.45 -8.4 -3.17157
      vertex -23.2093 -8.4 0
      vertex -17.65 -8.4 0
    endloop
  endfacet
  facet normal 0 1 0
    outer loop
      vertex -25.2784 -8.4 -2
      vertex -23.2093 -8.4 0
      vertex -23.6216 -8.4 -2
    endloop
  endfacet
  facet normal 0 1 0
    outer loop
      vertex -23.2093 -8.4 0
      vertex -25.2784 -8.4 -2
      vertex -27.7855 -8.4 -5.36442e-07
    endloop
  endfacet
  facet normal 0 1 -0
    outer loop
      vertex -25.7248 -8.4 -2.44639
      vertex -27.7855 -8.4 -5.36442e-07
      vertex -25.2784 -8.4 -2
    endloop
  endfacet
  facet normal 0 1 0
    outer loop
      vertex -23.2093 -8.4 0
      vertex -23.1752 -8.4 -2.44639
      vertex -23.6216 -8.4 -2
    endloop
  endfacet
  facet normal 0 1 0
    outer loop
      vertex -23.2093 -8.4 0
      vertex -22.45 -8.4 -3.17157
      vertex -23.1752 -8.4 -2.44639
    endloop
  endfacet
  facet normal 0 1 0
    outer loop
      vertex -17.65 -8.4 0
      vertex -22.45 -8.4 -4.82843
      vertex -22.45 -8.4 -3.17157
    endloop
  endfacet
  facet normal 0 1 0
    outer loop
      vertex -23.6216 -8.4 -6
      vertex -23.5551 -8.4 -10.95
      vertex -25.2784 -8.4 -6
    endloop
  endfacet
  facet normal 0 1 0
    outer loop
      vertex -22.8964 -8.4 -5.27482
      vertex -23.5551 -8.4 -10.95
      vertex -23.6216 -8.4 -6
    endloop
  endfacet
  facet normal 0 1 0
    outer loop
      vertex -22.45 -8.4 -4.82843
      vertex -23.5551 -8.4 -10.95
      vertex -22.8964 -8.4 -5.27482
    endloop
  endfacet
  facet normal 0 1 0
    outer loop
      vertex -22.6602 -8.4 -12.5
      vertex -22.45 -8.4 -4.82843
      vertex -17.65 -8.4 0
    endloop
  endfacet
  facet normal 0 1 0
    outer loop
      vertex -22.45 -8.4 -4.82843
      vertex -22.6602 -8.4 -12.5
      vertex -23.5551 -8.4 -10.95
    endloop
  endfacet
  facet normal 0 1 0
    outer loop
      vertex -23.5551 -8.4 -14.05
      vertex -23.6216 -8.4 -19
      vertex -25.3449 -8.4 -14.05
    endloop
  endfacet
  facet normal 0 1 0
    outer loop
      vertex -22.45 -8.4 -20.1716
      vertex -23.5551 -8.4 -14.05
      vertex -22.6602 -8.4 -12.5
    endloop
  endfacet
  facet normal 0 1 -0
    outer loop
      vertex -17.65 -8.4 -25
      vertex -22.6602 -8.4 -12.5
      vertex -17.65 -8.4 0
    endloop
  endfacet
  facet normal 0 1 0
    outer loop
      vertex -23.5551 -8.4 -14.05
      vertex -23.1752 -8.4 -19.4464
      vertex -23.6216 -8.4 -19
    endloop
  endfacet
  facet normal 0 1 0
    outer loop
      vertex -23.5551 -8.4 -14.05
      vertex -22.45 -8.4 -20.1716
      vertex -23.1752 -8.4 -19.4464
    endloop
  endfacet
  facet normal 0 1 0
    outer loop
      vertex -22.6602 -8.4 -12.5
      vertex -17.65 -8.4 -25
      vertex -22.45 -8.4 -20.1716
    endloop
  endfacet
  facet normal 0 1 0
    outer loop
      vertex -17.65 -8.4 -25
      vertex -22.8964 -8.4 -22.2748
      vertex -22.45 -8.4 -21.8284
    endloop
  endfacet
  facet normal 0 1 -0
    outer loop
      vertex -24.2262 -8.4 -25
      vertex -25.2784 -8.4 -23
      vertex -23.6216 -8.4 -23
    endloop
  endfacet
  facet normal 0 1 0
    outer loop
      vertex -25.2784 -8.4 -23
      vertex -28.4262 -8.4 -24.3593
      vertex -29.25 -8.4 -23.5355
    endloop
  endfacet
  facet normal 0 1 0
    outer loop
      vertex -22.45 -8.4 -20.1716
      vertex -17.65 -8.4 -25
      vertex -22.45 -8.4 -21.8284
    endloop
  endfacet
  facet normal 0 1 0
    outer loop
      vertex -24.2262 -8.4 -25
      vertex -22.8964 -8.4 -22.2748
      vertex -17.65 -8.4 -25
    endloop
  endfacet
  facet normal 0 1 0
    outer loop
      vertex -22.8964 -8.4 -22.2748
      vertex -24.2262 -8.4 -25
      vertex -23.6216 -8.4 -23
    endloop
  endfacet
  facet normal 0 1 0
    outer loop
      vertex -25.2784 -8.4 -23
      vertex -24.2262 -8.4 -25
      vertex -27.7855 -8.4 -25
    endloop
  endfacet
  facet normal 0 1 0
    outer loop
      vertex -25.2784 -8.4 -23
      vertex -27.7855 -8.4 -25
      vertex -28.4262 -8.4 -24.3593
    endloop
  endfacet
  facet normal 0 1 0
    outer loop
      vertex -27.7855 -8.4 -5.36442e-07
      vertex -25.7248 -8.4 -2.44639
      vertex -28.6093 -8.4 -0.823762
    endloop
  endfacet
  facet normal 0 1 -0
    outer loop
      vertex -26.45 -8.4 -3.17157
      vertex -28.6093 -8.4 -0.823762
      vertex -25.7248 -8.4 -2.44639
    endloop
  endfacet
  facet normal 0 1 0
    outer loop
      vertex -28.6093 -8.4 -0.823762
      vertex -26.45 -8.4 -3.17157
      vertex -29.25 -8.4 -1.46447
    endloop
  endfacet
  facet normal 0 1 -0
    outer loop
      vertex -26.45 -8.4 -4.82843
      vertex -29.25 -8.4 -1.46447
      vertex -26.45 -8.4 -3.17157
    endloop
  endfacet
  facet normal 0 1 -0
    outer loop
      vertex -25.3449 -8.4 -10.95
      vertex -26.0036 -8.4 -5.27482
      vertex -25.2784 -8.4 -6
    endloop
  endfacet
  facet normal 0 1 0
    outer loop
      vertex -25.3449 -8.4 -10.95
      vertex -25.2784 -8.4 -6
      vertex -23.5551 -8.4 -10.95
    endloop
  endfacet
  facet normal 0 1 0
    outer loop
      vertex -26.0036 -8.4 -5.27482
      vertex -25.3449 -8.4 -10.95
      vertex -26.45 -8.4 -4.82843
    endloop
  endfacet
  facet normal 0 1 -0
    outer loop
      vertex -26.2398 -8.4 -12.5
      vertex -26.45 -8.4 -4.82843
      vertex -25.3449 -8.4 -10.95
    endloop
  endfacet
  facet normal 0 1 0
    outer loop
      vertex -26.45 -8.4 -4.82843
      vertex -26.2398 -8.4 -12.5
      vertex -29.25 -8.4 -1.46447
    endloop
  endfacet
  facet normal 0 1 -0
    outer loop
      vertex -25.2784 -8.4 -19
      vertex -25.3449 -8.4 -14.05
      vertex -23.6216 -8.4 -19
    endloop
  endfacet
  facet normal 0 1 0
    outer loop
      vertex -25.7248 -8.4 -19.4464
      vertex -25.3449 -8.4 -14.05
      vertex -25.2784 -8.4 -19
    endloop
  endfacet
  facet normal 0 1 0
    outer loop
      vertex -26.45 -8.4 -20.1716
      vertex -25.3449 -8.4 -14.05
      vertex -25.7248 -8.4 -19.4464
    endloop
  endfacet
  facet normal 0 1 0
    outer loop
      vertex -25.3449 -8.4 -14.05
      vertex -26.45 -8.4 -20.1716
      vertex -26.2398 -8.4 -12.5
    endloop
  endfacet
  facet normal 0 1 0
    outer loop
      vertex -29.25 -8.4 -23.5355
      vertex -26.2398 -8.4 -12.5
      vertex -26.45 -8.4 -20.1716
    endloop
  endfacet
  facet normal 0 1 0
    outer loop
      vertex -29.25 -8.4 -23.5355
      vertex -26.45 -8.4 -20.1716
      vertex -26.45 -8.4 -21.8284
    endloop
  endfacet
  facet normal 0 1 0
    outer loop
      vertex -29.25 -8.4 -23.5355
      vertex -26.0036 -8.4 -22.2748
      vertex -25.2784 -8.4 -23
    endloop
  endfacet
  facet normal 0 1 0
    outer loop
      vertex -26.2398 -8.4 -12.5
      vertex -29.25 -8.4 -23.5355
      vertex -29.25 -8.4 -1.46447
    endloop
  endfacet
  facet normal 0 1 0
    outer loop
      vertex -26.0036 -8.4 -22.2748
      vertex -29.25 -8.4 -23.5355
      vertex -26.45 -8.4 -21.8284
    endloop
  endfacet
  facet normal 1 -0 0
    outer loop
      vertex -17.65 -17.65 0
      vertex -17.65 -8.4 -25
      vertex -17.65 -8.4 0
    endloop
  endfacet
  facet normal 1 0 0
    outer loop
      vertex -17.65 -8.4 -25
      vertex -17.65 -17.65 0
      vertex -17.65 -17.65 -25
    endloop
  endfacet
  facet normal 1 -0 0
    outer loop
      vertex -17.65 -6.9 0
      vertex -17.65 17.65 -25
      vertex -17.65 17.65 0
    endloop
  endfacet
  facet normal 1 0 0
    outer loop
      vertex -17.65 17.65 -25
      vertex -17.65 -6.9 0
      vertex -17.65 -6.9 -25
    endloop
  endfacet
  facet normal -1 0 0
    outer loop
      vertex 17.65 -17.65 -25
      vertex 17.65 17.65 0
      vertex 17.65 17.65 -25
    endloop
  endfacet
  facet normal -1 -0 0
    outer loop
      vertex 17.65 17.65 0
      vertex 17.65 -17.65 -25
      vertex 17.65 -17.65 0
    endloop
  endfacet
  facet normal 0 1 -0
    outer loop
      vertex 17.65 -17.65 -25
      vertex -17.65 -17.65 0
      vertex 17.65 -17.65 0
    endloop
  endfacet
  facet normal 0 1 0
    outer loop
      vertex -17.65 -17.65 0
      vertex 17.65 -17.65 -25
      vertex -17.65 -17.65 -25
    endloop
  endfacet
  facet normal 0 -1 0
    outer loop
      vertex -17.65 17.65 -25
      vertex 17.65 17.65 0
      vertex -17.65 17.65 0
    endloop
  endfacet
  facet normal 0 -1 -0
    outer loop
      vertex 17.65 17.65 0
      vertex -17.65 17.65 -25
      vertex 17.65 17.65 -25
    endloop
  endfacet
endsolid OpenSCAD_Model
