solid OpenSCAD_Model
  facet normal 0 -0.90186 0.432029
    outer loop
      vertex -20 70 10
      vertex 0.300398 74 18.35
      vertex -0.300398 74 18.35
    endloop
  endfacet
  facet normal 0 -0.90186 0.432029
    outer loop
      vertex 0.300398 74 18.35
      vertex -20 70 10
      vertex 20 70 10
    endloop
  endfacet
  facet normal -1 0 0
    outer loop
      vertex -20 84.1 -42.6
      vertex -20 70 -10
      vertex -20 84.1 10
    endloop
  endfacet
  facet normal -1 0 0
    outer loop
      vertex -20 62.95 -42.6
      vertex -20 70 -10
      vertex -20 84.1 -42.6
    endloop
  endfacet
  facet normal -1 0 0
    outer loop
      vertex -20 45 -14.8
      vertex -20 70 -10
      vertex -20 62.95 -42.6
    endloop
  endfacet
  facet normal -1 -0 0
    outer loop
      vertex -20 70 -10
      vertex -20 45 -14.8
      vertex -20 45 -10
    endloop
  endfacet
  facet normal -1 -0 0
    outer loop
      vertex -20 84.1 10
      vertex -20 70 -10
      vertex -20 70 10
    endloop
  endfacet
  facet normal -0.142843 -0.71818 0.681038
    outer loop
      vertex -0.889651 74.1172 18.35
      vertex -20 70 10
      vertex -0.300398 74 18.35
    endloop
  endfacet
  facet normal 0 -1 0
    outer loop
      vertex -8.2699 70 1.98221
      vertex 8.91269 70 2.625
      vertex -8.91269 70 2.625
    endloop
  endfacet
  facet normal 0 -1 0
    outer loop
      vertex -8.2699 70 1.98221
      vertex 8.2699 70 1.98221
      vertex 8.91269 70 2.625
    endloop
  endfacet
  facet normal 0 -1 0
    outer loop
      vertex -7.375 70 1.08731
      vertex 8.2699 70 1.98221
      vertex -8.2699 70 1.98221
    endloop
  endfacet
  facet normal 0 -1 0
    outer loop
      vertex -7.375 70 1.08731
      vertex 7.375 70 1.08731
      vertex 8.2699 70 1.98221
    endloop
  endfacet
  facet normal 0 -1 0
    outer loop
      vertex -7.375 70 -1.08731
      vertex 7.375 70 1.08731
      vertex -7.375 70 1.08731
    endloop
  endfacet
  facet normal 0 -1 0
    outer loop
      vertex -7.375 70 -1.08731
      vertex 7.375 70 -1.08731
      vertex 7.375 70 1.08731
    endloop
  endfacet
  facet normal 0 -1 0
    outer loop
      vertex -8.01779 70 -1.7301
      vertex 7.375 70 -1.08731
      vertex -7.375 70 -1.08731
    endloop
  endfacet
  facet normal 0 -1 0
    outer loop
      vertex -8.01779 70 -1.7301
      vertex 8.01779 70 -1.7301
      vertex 7.375 70 -1.08731
    endloop
  endfacet
  facet normal 0 -1 0
    outer loop
      vertex -8.91269 70 -2.625
      vertex 8.01779 70 -1.7301
      vertex -8.01779 70 -1.7301
    endloop
  endfacet
  facet normal 0 -1 -0
    outer loop
      vertex 8.01779 70 -1.7301
      vertex -8.91269 70 -2.625
      vertex 8.91269 70 -2.625
    endloop
  endfacet
  facet normal 0 -1 0
    outer loop
      vertex -8.91269 70 2.625
      vertex -20 70 10
      vertex -11.0873 70 2.625
    endloop
  endfacet
  facet normal 0 -1 0
    outer loop
      vertex -20 70 10
      vertex -11.7301 70 1.98221
      vertex -11.0873 70 2.625
    endloop
  endfacet
  facet normal 0 -1 0
    outer loop
      vertex -20 70 10
      vertex -12.625 70 1.08731
      vertex -11.7301 70 1.98221
    endloop
  endfacet
  facet normal 0 -1 0
    outer loop
      vertex -20 70 10
      vertex -12.625 70 -1.08731
      vertex -12.625 70 1.08731
    endloop
  endfacet
  facet normal 0 -1 0
    outer loop
      vertex -20 70 -10
      vertex -8.91269 70 -2.625
      vertex -11.0873 70 -2.625
    endloop
  endfacet
  facet normal 0 -1 -0
    outer loop
      vertex -8.91269 70 -2.625
      vertex -20 70 -10
      vertex 8.91269 70 -2.625
    endloop
  endfacet
  facet normal 0 -1 0
    outer loop
      vertex 20 70 -10
      vertex 8.91269 70 -2.625
      vertex -20 70 -10
    endloop
  endfacet
  facet normal 0 -1 -0
    outer loop
      vertex -11.9822 70 -1.7301
      vertex -20 70 -10
      vertex -11.0873 70 -2.625
    endloop
  endfacet
  facet normal 0 -1 -0
    outer loop
      vertex -12.625 70 -1.08731
      vertex -20 70 -10
      vertex -11.9822 70 -1.7301
    endloop
  endfacet
  facet normal 0 -1 0
    outer loop
      vertex -20 70 -10
      vertex -12.625 70 -1.08731
      vertex -20 70 10
    endloop
  endfacet
  facet normal 0 -1 0
    outer loop
      vertex -20 70 10
      vertex -8.91269 70 2.625
      vertex 20 70 10
    endloop
  endfacet
  facet normal 0 -1 0
    outer loop
      vertex 8.91269 70 2.625
      vertex 20 70 10
      vertex -8.91269 70 2.625
    endloop
  endfacet
  facet normal 0 -1 0
    outer loop
      vertex 11.0873 70 2.625
      vertex 20 70 10
      vertex 8.91269 70 2.625
    endloop
  endfacet
  facet normal 0 -1 0
    outer loop
      vertex 11.7301 70 1.98221
      vertex 20 70 10
      vertex 11.0873 70 2.625
    endloop
  endfacet
  facet normal 0 -1 0
    outer loop
      vertex 12.625 70 1.08731
      vertex 20 70 10
      vertex 11.7301 70 1.98221
    endloop
  endfacet
  facet normal 0 -1 0
    outer loop
      vertex 12.625 70 -1.08731
      vertex 20 70 10
      vertex 12.625 70 1.08731
    endloop
  endfacet
  facet normal 0 -1 0
    outer loop
      vertex 12.625 70 -1.08731
      vertex 20 70 -10
      vertex 20 70 10
    endloop
  endfacet
  facet normal 0 -1 0
    outer loop
      vertex 11.9822 70 -1.7301
      vertex 20 70 -10
      vertex 12.625 70 -1.08731
    endloop
  endfacet
  facet normal 0 -1 0
    outer loop
      vertex 11.0873 70 -2.625
      vertex 20 70 -10
      vertex 11.9822 70 -1.7301
    endloop
  endfacet
  facet normal 0 -1 0
    outer loop
      vertex 8.91269 70 -2.625
      vertex 20 70 -10
      vertex 11.0873 70 -2.625
    endloop
  endfacet
  facet normal 0 0 -1
    outer loop
      vertex 2.16353 76.3937 -42.6
      vertex 20 84.1 -42.6
      vertex 20 62.95 -42.6
    endloop
  endfacet
  facet normal 0 0 -1
    outer loop
      vertex 20 84.1 -42.6
      vertex 2.25 76.8284 -42.6
      vertex 2.25 77.2716 -42.6
    endloop
  endfacet
  facet normal 0 0 -1
    outer loop
      vertex 20 84.1 -42.6
      vertex 2.16353 76.3937 -42.6
      vertex 2.25 76.8284 -42.6
    endloop
  endfacet
  facet normal 0 0 -1
    outer loop
      vertex 20 62.95 -42.6
      vertex 1.99392 75.9842 -42.6
      vertex 2.16353 76.3937 -42.6
    endloop
  endfacet
  facet normal 0 0 -1
    outer loop
      vertex 20 62.95 -42.6
      vertex 1.74769 75.6157 -42.6
      vertex 1.99392 75.9842 -42.6
    endloop
  endfacet
  facet normal 0 0 -1
    outer loop
      vertex 20 62.95 -42.6
      vertex 1.43429 75.3023 -42.6
      vertex 1.74769 75.6157 -42.6
    endloop
  endfacet
  facet normal 0 0 -1
    outer loop
      vertex 20 62.95 -42.6
      vertex 1.06577 75.0561 -42.6
      vertex 1.43429 75.3023 -42.6
    endloop
  endfacet
  facet normal 0 0 -1
    outer loop
      vertex 20 62.95 -42.6
      vertex 0.656301 74.8865 -42.6
      vertex 1.06577 75.0561 -42.6
    endloop
  endfacet
  facet normal 0 0 -1
    outer loop
      vertex 20 62.95 -42.6
      vertex 0.221605 74.8 -42.6
      vertex 0.656301 74.8865 -42.6
    endloop
  endfacet
  facet normal 0 0 -1
    outer loop
      vertex 20 62.95 -42.6
      vertex -0.221605 74.8 -42.6
      vertex 0.221605 74.8 -42.6
    endloop
  endfacet
  facet normal 0 0 -1
    outer loop
      vertex -20 62.95 -42.6
      vertex -0.221605 74.8 -42.6
      vertex 20 62.95 -42.6
    endloop
  endfacet
  facet normal -0 0 -1
    outer loop
      vertex -0.221605 74.8 -42.6
      vertex -20 62.95 -42.6
      vertex -0.656301 74.8865 -42.6
    endloop
  endfacet
  facet normal 0 0 -1
    outer loop
      vertex -20 84.1 -42.6
      vertex -2.16353 76.3937 -42.6
      vertex -20 62.95 -42.6
    endloop
  endfacet
  facet normal -0 0 -1
    outer loop
      vertex -1.99392 75.9842 -42.6
      vertex -20 62.95 -42.6
      vertex -2.16353 76.3937 -42.6
    endloop
  endfacet
  facet normal -0 0 -1
    outer loop
      vertex -1.74769 75.6157 -42.6
      vertex -20 62.95 -42.6
      vertex -1.99392 75.9842 -42.6
    endloop
  endfacet
  facet normal -0 0 -1
    outer loop
      vertex -1.43429 75.3023 -42.6
      vertex -20 62.95 -42.6
      vertex -1.74769 75.6157 -42.6
    endloop
  endfacet
  facet normal -0 0 -1
    outer loop
      vertex -1.06577 75.0561 -42.6
      vertex -20 62.95 -42.6
      vertex -1.43429 75.3023 -42.6
    endloop
  endfacet
  facet normal -0 0 -1
    outer loop
      vertex -0.656301 74.8865 -42.6
      vertex -20 62.95 -42.6
      vertex -1.06577 75.0561 -42.6
    endloop
  endfacet
  facet normal 0 0 -1
    outer loop
      vertex 2.16353 77.7063 -42.6
      vertex 20 84.1 -42.6
      vertex 2.25 77.2716 -42.6
    endloop
  endfacet
  facet normal 0 0 -1
    outer loop
      vertex 1.99392 78.1158 -42.6
      vertex 20 84.1 -42.6
      vertex 2.16353 77.7063 -42.6
    endloop
  endfacet
  facet normal 0 0 -1
    outer loop
      vertex 1.74769 78.4843 -42.6
      vertex 20 84.1 -42.6
      vertex 1.99392 78.1158 -42.6
    endloop
  endfacet
  facet normal 0 0 -1
    outer loop
      vertex 1.43429 78.7977 -42.6
      vertex 20 84.1 -42.6
      vertex 1.74769 78.4843 -42.6
    endloop
  endfacet
  facet normal 0 0 -1
    outer loop
      vertex 1.06577 79.0439 -42.6
      vertex 20 84.1 -42.6
      vertex 1.43429 78.7977 -42.6
    endloop
  endfacet
  facet normal 0 0 -1
    outer loop
      vertex 0.656301 79.2135 -42.6
      vertex 20 84.1 -42.6
      vertex 1.06577 79.0439 -42.6
    endloop
  endfacet
  facet normal 0 0 -1
    outer loop
      vertex 0.221605 79.3 -42.6
      vertex 20 84.1 -42.6
      vertex 0.656301 79.2135 -42.6
    endloop
  endfacet
  facet normal 0 0 -1
    outer loop
      vertex -0.221605 79.3 -42.6
      vertex 20 84.1 -42.6
      vertex 0.221605 79.3 -42.6
    endloop
  endfacet
  facet normal 0 0 -1
    outer loop
      vertex -20 84.1 -42.6
      vertex -0.221605 79.3 -42.6
      vertex -0.656301 79.2135 -42.6
    endloop
  endfacet
  facet normal 0 0 -1
    outer loop
      vertex -2.16353 76.3937 -42.6
      vertex -20 84.1 -42.6
      vertex -2.25 76.8284 -42.6
    endloop
  endfacet
  facet normal 0 0 -1
    outer loop
      vertex -2.25 76.8284 -42.6
      vertex -20 84.1 -42.6
      vertex -2.25 77.2716 -42.6
    endloop
  endfacet
  facet normal 0 0 -1
    outer loop
      vertex -2.25 77.2716 -42.6
      vertex -20 84.1 -42.6
      vertex -2.16353 77.7063 -42.6
    endloop
  endfacet
  facet normal 0 0 -1
    outer loop
      vertex -2.16353 77.7063 -42.6
      vertex -20 84.1 -42.6
      vertex -1.99392 78.1158 -42.6
    endloop
  endfacet
  facet normal 0 0 -1
    outer loop
      vertex -1.99392 78.1158 -42.6
      vertex -20 84.1 -42.6
      vertex -1.74769 78.4843 -42.6
    endloop
  endfacet
  facet normal 0 0 -1
    outer loop
      vertex -0.221605 79.3 -42.6
      vertex -20 84.1 -42.6
      vertex 20 84.1 -42.6
    endloop
  endfacet
  facet normal 0 0 -1
    outer loop
      vertex -1.06577 79.0439 -42.6
      vertex -20 84.1 -42.6
      vertex -0.656301 79.2135 -42.6
    endloop
  endfacet
  facet normal 0 0 -1
    outer loop
      vertex -1.43429 78.7977 -42.6
      vertex -20 84.1 -42.6
      vertex -1.06577 79.0439 -42.6
    endloop
  endfacet
  facet normal 0 0 -1
    outer loop
      vertex -1.74769 78.4843 -42.6
      vertex -20 84.1 -42.6
      vertex -1.43429 78.7977 -42.6
    endloop
  endfacet
  facet normal 0 0.90186 0.432029
    outer loop
      vertex 20 84.1 10
      vertex -0.300398 80.1 18.35
      vertex 0.300398 80.1 18.35
    endloop
  endfacet
  facet normal 0 0.90186 0.432029
    outer loop
      vertex -0.300398 80.1 18.35
      vertex 20 84.1 10
      vertex -20 84.1 10
    endloop
  endfacet
  facet normal 0 1 -0
    outer loop
      vertex 8.01779 84.1 1.7301
      vertex -8.91269 84.1 2.625
      vertex 8.91269 84.1 2.625
    endloop
  endfacet
  facet normal 0 1 0
    outer loop
      vertex 8.01779 84.1 1.7301
      vertex -8.01779 84.1 1.7301
      vertex -8.91269 84.1 2.625
    endloop
  endfacet
  facet normal 0 1 -0
    outer loop
      vertex 7.375 84.1 1.08731
      vertex -8.01779 84.1 1.7301
      vertex 8.01779 84.1 1.7301
    endloop
  endfacet
  facet normal 0 1 0
    outer loop
      vertex 7.375 84.1 1.08731
      vertex -7.375 84.1 1.08731
      vertex -8.01779 84.1 1.7301
    endloop
  endfacet
  facet normal 0 1 -0
    outer loop
      vertex 7.375 84.1 -1.08731
      vertex -7.375 84.1 1.08731
      vertex 7.375 84.1 1.08731
    endloop
  endfacet
  facet normal 0 1 0
    outer loop
      vertex 7.375 84.1 -1.08731
      vertex -7.375 84.1 -1.08731
      vertex -7.375 84.1 1.08731
    endloop
  endfacet
  facet normal 0 1 0
    outer loop
      vertex 8.2699 84.1 -1.98221
      vertex -7.375 84.1 -1.08731
      vertex 7.375 84.1 -1.08731
    endloop
  endfacet
  facet normal 0 1 0
    outer loop
      vertex 8.2699 84.1 -1.98221
      vertex -8.2699 84.1 -1.98221
      vertex -7.375 84.1 -1.08731
    endloop
  endfacet
  facet normal 0 1 0
    outer loop
      vertex 8.91269 84.1 -2.625
      vertex -8.2699 84.1 -1.98221
      vertex 8.2699 84.1 -1.98221
    endloop
  endfacet
  facet normal 0 1 0
    outer loop
      vertex -8.2699 84.1 -1.98221
      vertex 8.91269 84.1 -2.625
      vertex -8.91269 84.1 -2.625
    endloop
  endfacet
  facet normal 0 1 0
    outer loop
      vertex 8.91269 84.1 2.625
      vertex 20 84.1 10
      vertex 11.0873 84.1 2.625
    endloop
  endfacet
  facet normal 0 1 0
    outer loop
      vertex 20 84.1 10
      vertex 11.9822 84.1 1.7301
      vertex 11.0873 84.1 2.625
    endloop
  endfacet
  facet normal 0 1 0
    outer loop
      vertex 20 84.1 10
      vertex 12.625 84.1 1.08731
      vertex 11.9822 84.1 1.7301
    endloop
  endfacet
  facet normal 0 1 0
    outer loop
      vertex 20 84.1 10
      vertex 12.625 84.1 -1.08731
      vertex 12.625 84.1 1.08731
    endloop
  endfacet
  facet normal 0 1 0
    outer loop
      vertex 20 84.1 -42.6
      vertex 11.7301 84.1 -1.98221
      vertex 12.625 84.1 -1.08731
    endloop
  endfacet
  facet normal 0 1 0
    outer loop
      vertex 20 84.1 -42.6
      vertex 8.91269 84.1 -2.625
      vertex 11.0873 84.1 -2.625
    endloop
  endfacet
  facet normal 0 1 0
    outer loop
      vertex 8.91269 84.1 -2.625
      vertex 20 84.1 -42.6
      vertex -8.91269 84.1 -2.625
    endloop
  endfacet
  facet normal 0 1 0
    outer loop
      vertex -20 84.1 -42.6
      vertex -8.91269 84.1 -2.625
      vertex 20 84.1 -42.6
    endloop
  endfacet
  facet normal 0 1 0
    outer loop
      vertex 11.7301 84.1 -1.98221
      vertex 20 84.1 -42.6
      vertex 11.0873 84.1 -2.625
    endloop
  endfacet
  facet normal 0 1 -0
    outer loop
      vertex 20 84.1 -42.6
      vertex 12.625 84.1 -1.08731
      vertex 20 84.1 10
    endloop
  endfacet
  facet normal 0 1 0
    outer loop
      vertex 20 84.1 10
      vertex 8.91269 84.1 2.625
      vertex -20 84.1 10
    endloop
  endfacet
  facet normal 0 1 -0
    outer loop
      vertex -8.91269 84.1 2.625
      vertex -20 84.1 10
      vertex 8.91269 84.1 2.625
    endloop
  endfacet
  facet normal 0 1 -0
    outer loop
      vertex -11.0873 84.1 2.625
      vertex -20 84.1 10
      vertex -8.91269 84.1 2.625
    endloop
  endfacet
  facet normal 0 1 -0
    outer loop
      vertex -11.9822 84.1 1.7301
      vertex -20 84.1 10
      vertex -11.0873 84.1 2.625
    endloop
  endfacet
  facet normal 0 1 -0
    outer loop
      vertex -12.625 84.1 1.08731
      vertex -20 84.1 10
      vertex -11.9822 84.1 1.7301
    endloop
  endfacet
  facet normal 0 1 -0
    outer loop
      vertex -12.625 84.1 -1.08731
      vertex -20 84.1 10
      vertex -12.625 84.1 1.08731
    endloop
  endfacet
  facet normal 0 1 0
    outer loop
      vertex -20 84.1 -42.6
      vertex -11.7301 84.1 -1.98221
      vertex -11.0873 84.1 -2.625
    endloop
  endfacet
  facet normal 0 1 0
    outer loop
      vertex -8.91269 84.1 -2.625
      vertex -20 84.1 -42.6
      vertex -11.0873 84.1 -2.625
    endloop
  endfacet
  facet normal 0 1 0
    outer loop
      vertex -12.625 84.1 -1.08731
      vertex -20 84.1 -42.6
      vertex -20 84.1 10
    endloop
  endfacet
  facet normal 0 1 0
    outer loop
      vertex -11.7301 84.1 -1.98221
      vertex -20 84.1 -42.6
      vertex -12.625 84.1 -1.08731
    endloop
  endfacet
  facet normal 1 0 0
    outer loop
      vertex 20 70 -10
      vertex 20 84.1 10
      vertex 20 70 10
    endloop
  endfacet
  facet normal 1 0 0
    outer loop
      vertex 20 84.1 10
      vertex 20 70 -10
      vertex 20 84.1 -42.6
    endloop
  endfacet
  facet normal 1 0 0
    outer loop
      vertex 20 70 -10
      vertex 20 62.95 -42.6
      vertex 20 84.1 -42.6
    endloop
  endfacet
  facet normal 1 0 0
    outer loop
      vertex 20 45 -14.8
      vertex 20 70 -10
      vertex 20 45 -10
    endloop
  endfacet
  facet normal 1 0 0
    outer loop
      vertex 20 70 -10
      vertex 20 45 -14.8
      vertex 20 62.95 -42.6
    endloop
  endfacet
  facet normal 0.285745 -0.427625 0.857605
    outer loop
      vertex 1.94426 74.6809 18.35
      vertex 1.44472 74.3471 18.35
      vertex 20 70 10
    endloop
  endfacet
  facet normal -0.413846 0.0823127 0.906618
    outer loop
      vertex -2.93279 77.9397 18.35
      vertex -20 84.1 10
      vertex -3.05 77.3504 18.35
    endloop
  endfacet
  facet normal 0.441913 0 0.897058
    outer loop
      vertex 3.05 77.3504 18.35
      vertex 20 70 10
      vertex 20 84.1 10
    endloop
  endfacet
  facet normal 0.441913 0 0.897058
    outer loop
      vertex 20 70 10
      vertex 3.05 77.3504 18.35
      vertex 3.05 76.7496 18.35
    endloop
  endfacet
  facet normal 0.142843 -0.71818 0.681038
    outer loop
      vertex 0.889651 74.1172 18.35
      vertex 0.300398 74 18.35
      vertex 20 70 10
    endloop
  endfacet
  facet normal -0.358132 -0.239266 0.902493
    outer loop
      vertex -2.70287 75.6053 18.35
      vertex -20 70 10
      vertex -2.36909 75.1057 18.35
    endloop
  endfacet
  facet normal 0.386556 -0.160139 0.908256
    outer loop
      vertex 2.93279 76.1603 18.35
      vertex 2.70287 75.6053 18.35
      vertex 20 70 10
    endloop
  endfacet
  facet normal 0.229817 -0.554868 0.799566
    outer loop
      vertex 1.44472 74.3471 18.35
      vertex 0.889651 74.1172 18.35
      vertex 20 70 10
    endloop
  endfacet
  facet normal -0.285745 -0.427625 0.857605
    outer loop
      vertex -1.94426 74.6809 18.35
      vertex -20 70 10
      vertex -1.44472 74.3471 18.35
    endloop
  endfacet
  facet normal -0.413846 -0.0823127 0.906618
    outer loop
      vertex -3.05 76.7496 18.35
      vertex -20 70 10
      vertex -2.93279 76.1603 18.35
    endloop
  endfacet
  facet normal -0.285745 0.427625 0.857605
    outer loop
      vertex -1.44472 79.7529 18.35
      vertex -20 84.1 10
      vertex -1.94426 79.4191 18.35
    endloop
  endfacet
  facet normal 0.325907 0.32593 0.887442
    outer loop
      vertex 20 84.1 10
      vertex 1.94426 79.4191 18.35
      vertex 2.36909 78.9943 18.35
    endloop
  endfacet
  facet normal 0.413846 -0.0823127 0.906618
    outer loop
      vertex 3.05 76.7496 18.35
      vertex 2.93279 76.1603 18.35
      vertex 20 70 10
    endloop
  endfacet
  facet normal 0.325907 -0.32593 0.887442
    outer loop
      vertex 2.36909 75.1057 18.35
      vertex 1.94426 74.6809 18.35
      vertex 20 70 10
    endloop
  endfacet
  facet normal -0.229817 -0.554868 0.799566
    outer loop
      vertex -1.44472 74.3471 18.35
      vertex -20 70 10
      vertex -0.889651 74.1172 18.35
    endloop
  endfacet
  facet normal -0.325907 -0.32593 0.887442
    outer loop
      vertex -2.36909 75.1057 18.35
      vertex -20 70 10
      vertex -1.94426 74.6809 18.35
    endloop
  endfacet
  facet normal -0.386556 -0.160139 0.908256
    outer loop
      vertex -2.93279 76.1603 18.35
      vertex -20 70 10
      vertex -2.70287 75.6053 18.35
    endloop
  endfacet
  facet normal 0 0 1
    outer loop
      vertex 2.25 77.2716 18.35
      vertex 3.05 77.3504 18.35
      vertex 2.93279 77.9397 18.35
    endloop
  endfacet
  facet normal 0 0 1
    outer loop
      vertex 3.05 77.3504 18.35
      vertex 2.25 77.2716 18.35
      vertex 3.05 76.7496 18.35
    endloop
  endfacet
  facet normal 0 0 1
    outer loop
      vertex 2.16353 77.7063 18.35
      vertex 2.93279 77.9397 18.35
      vertex 2.70287 78.4947 18.35
    endloop
  endfacet
  facet normal -0 0 1
    outer loop
      vertex 2.25 76.8284 18.35
      vertex 3.05 76.7496 18.35
      vertex 2.25 77.2716 18.35
    endloop
  endfacet
  facet normal 0 0 1
    outer loop
      vertex 1.99392 78.1158 18.35
      vertex 2.70287 78.4947 18.35
      vertex 2.36909 78.9943 18.35
    endloop
  endfacet
  facet normal 0 0 1
    outer loop
      vertex 3.05 76.7496 18.35
      vertex 2.25 76.8284 18.35
      vertex 2.93279 76.1603 18.35
    endloop
  endfacet
  facet normal -0 0 1
    outer loop
      vertex 2.16353 76.3937 18.35
      vertex 2.93279 76.1603 18.35
      vertex 2.25 76.8284 18.35
    endloop
  endfacet
  facet normal 0 0 1
    outer loop
      vertex 2.93279 77.9397 18.35
      vertex 2.16353 77.7063 18.35
      vertex 2.25 77.2716 18.35
    endloop
  endfacet
  facet normal 0 0 1
    outer loop
      vertex 2.70287 78.4947 18.35
      vertex 1.99392 78.1158 18.35
      vertex 2.16353 77.7063 18.35
    endloop
  endfacet
  facet normal 0 0 1
    outer loop
      vertex 1.74769 78.4843 18.35
      vertex 2.36909 78.9943 18.35
      vertex 1.94426 79.4191 18.35
    endloop
  endfacet
  facet normal 0 0 1
    outer loop
      vertex 2.36909 78.9943 18.35
      vertex 1.74769 78.4843 18.35
      vertex 1.99392 78.1158 18.35
    endloop
  endfacet
  facet normal 0 0 1
    outer loop
      vertex 1.43429 78.7977 18.35
      vertex 1.94426 79.4191 18.35
      vertex 1.44472 79.7529 18.35
    endloop
  endfacet
  facet normal 0 0 1
    outer loop
      vertex 1.94426 79.4191 18.35
      vertex 1.43429 78.7977 18.35
      vertex 1.74769 78.4843 18.35
    endloop
  endfacet
  facet normal 0 0 1
    outer loop
      vertex 1.44472 79.7529 18.35
      vertex 1.06577 79.0439 18.35
      vertex 1.43429 78.7977 18.35
    endloop
  endfacet
  facet normal 0 0 1
    outer loop
      vertex 0.889651 79.9828 18.35
      vertex 1.06577 79.0439 18.35
      vertex 1.44472 79.7529 18.35
    endloop
  endfacet
  facet normal 0 0 1
    outer loop
      vertex 0.889651 79.9828 18.35
      vertex 0.656301 79.2135 18.35
      vertex 1.06577 79.0439 18.35
    endloop
  endfacet
  facet normal 0 0 1
    outer loop
      vertex 0.300398 80.1 18.35
      vertex 0.656301 79.2135 18.35
      vertex 0.889651 79.9828 18.35
    endloop
  endfacet
  facet normal 0 0 1
    outer loop
      vertex 0.300398 80.1 18.35
      vertex 0.221605 79.3 18.35
      vertex 0.656301 79.2135 18.35
    endloop
  endfacet
  facet normal 0 0 1
    outer loop
      vertex 0.300398 80.1 18.35
      vertex -0.221605 79.3 18.35
      vertex 0.221605 79.3 18.35
    endloop
  endfacet
  facet normal -0 0 1
    outer loop
      vertex -0.300398 80.1 18.35
      vertex -0.221605 79.3 18.35
      vertex 0.300398 80.1 18.35
    endloop
  endfacet
  facet normal 0 0 1
    outer loop
      vertex -0.300398 80.1 18.35
      vertex -0.656301 79.2135 18.35
      vertex -0.221605 79.3 18.35
    endloop
  endfacet
  facet normal -0 0 1
    outer loop
      vertex -0.889651 79.9828 18.35
      vertex -0.656301 79.2135 18.35
      vertex -0.300398 80.1 18.35
    endloop
  endfacet
  facet normal 0 0 1
    outer loop
      vertex -0.889651 79.9828 18.35
      vertex -1.06577 79.0439 18.35
      vertex -0.656301 79.2135 18.35
    endloop
  endfacet
  facet normal -0 0 1
    outer loop
      vertex -1.44472 79.7529 18.35
      vertex -1.06577 79.0439 18.35
      vertex -0.889651 79.9828 18.35
    endloop
  endfacet
  facet normal 0 0 1
    outer loop
      vertex -1.06577 79.0439 18.35
      vertex -1.44472 79.7529 18.35
      vertex -1.43429 78.7977 18.35
    endloop
  endfacet
  facet normal -0 0 1
    outer loop
      vertex -1.94426 79.4191 18.35
      vertex -1.43429 78.7977 18.35
      vertex -1.44472 79.7529 18.35
    endloop
  endfacet
  facet normal 0 0 1
    outer loop
      vertex -1.43429 78.7977 18.35
      vertex -1.94426 79.4191 18.35
      vertex -1.74769 78.4843 18.35
    endloop
  endfacet
  facet normal -0 0 1
    outer loop
      vertex -2.36909 78.9943 18.35
      vertex -1.74769 78.4843 18.35
      vertex -1.94426 79.4191 18.35
    endloop
  endfacet
  facet normal 0 0 1
    outer loop
      vertex -1.74769 78.4843 18.35
      vertex -2.36909 78.9943 18.35
      vertex -1.99392 78.1158 18.35
    endloop
  endfacet
  facet normal -0 0 1
    outer loop
      vertex -2.70287 78.4947 18.35
      vertex -1.99392 78.1158 18.35
      vertex -2.36909 78.9943 18.35
    endloop
  endfacet
  facet normal -0 0 1
    outer loop
      vertex -2.93279 77.9397 18.35
      vertex -2.16353 77.7063 18.35
      vertex -2.70287 78.4947 18.35
    endloop
  endfacet
  facet normal 0 0 1
    outer loop
      vertex -1.99392 78.1158 18.35
      vertex -2.70287 78.4947 18.35
      vertex -2.16353 77.7063 18.35
    endloop
  endfacet
  facet normal 0 0 1
    outer loop
      vertex 2.93279 76.1603 18.35
      vertex 2.16353 76.3937 18.35
      vertex 2.70287 75.6053 18.35
    endloop
  endfacet
  facet normal -0 0 1
    outer loop
      vertex 1.99392 75.9842 18.35
      vertex 2.70287 75.6053 18.35
      vertex 2.16353 76.3937 18.35
    endloop
  endfacet
  facet normal 0 0 1
    outer loop
      vertex 2.70287 75.6053 18.35
      vertex 1.99392 75.9842 18.35
      vertex 2.36909 75.1057 18.35
    endloop
  endfacet
  facet normal -0 0 1
    outer loop
      vertex 1.74769 75.6157 18.35
      vertex 2.36909 75.1057 18.35
      vertex 1.99392 75.9842 18.35
    endloop
  endfacet
  facet normal 0 0 1
    outer loop
      vertex 2.36909 75.1057 18.35
      vertex 1.74769 75.6157 18.35
      vertex 1.94426 74.6809 18.35
    endloop
  endfacet
  facet normal -0 0 1
    outer loop
      vertex 1.43429 75.3023 18.35
      vertex 1.94426 74.6809 18.35
      vertex 1.74769 75.6157 18.35
    endloop
  endfacet
  facet normal 0 0 1
    outer loop
      vertex 1.94426 74.6809 18.35
      vertex 1.43429 75.3023 18.35
      vertex 1.44472 74.3471 18.35
    endloop
  endfacet
  facet normal -0 0 1
    outer loop
      vertex 1.06577 75.0561 18.35
      vertex 1.44472 74.3471 18.35
      vertex 1.43429 75.3023 18.35
    endloop
  endfacet
  facet normal 0 0 1
    outer loop
      vertex 1.06577 75.0561 18.35
      vertex 0.889651 74.1172 18.35
      vertex 1.44472 74.3471 18.35
    endloop
  endfacet
  facet normal -0 0 1
    outer loop
      vertex 0.656301 74.8865 18.35
      vertex 0.889651 74.1172 18.35
      vertex 1.06577 75.0561 18.35
    endloop
  endfacet
  facet normal 0 0 1
    outer loop
      vertex 0.656301 74.8865 18.35
      vertex 0.300398 74 18.35
      vertex 0.889651 74.1172 18.35
    endloop
  endfacet
  facet normal -0 0 1
    outer loop
      vertex 0.221605 74.8 18.35
      vertex 0.300398 74 18.35
      vertex 0.656301 74.8865 18.35
    endloop
  endfacet
  facet normal -0 0 1
    outer loop
      vertex -0.221605 74.8 18.35
      vertex 0.300398 74 18.35
      vertex 0.221605 74.8 18.35
    endloop
  endfacet
  facet normal 0 0 1
    outer loop
      vertex -0.221605 74.8 18.35
      vertex -0.300398 74 18.35
      vertex 0.300398 74 18.35
    endloop
  endfacet
  facet normal 0 0 1
    outer loop
      vertex -0.656301 74.8865 18.35
      vertex -0.300398 74 18.35
      vertex -0.221605 74.8 18.35
    endloop
  endfacet
  facet normal 0 0 1
    outer loop
      vertex -0.656301 74.8865 18.35
      vertex -0.889651 74.1172 18.35
      vertex -0.300398 74 18.35
    endloop
  endfacet
  facet normal 0 0 1
    outer loop
      vertex -1.06577 75.0561 18.35
      vertex -0.889651 74.1172 18.35
      vertex -0.656301 74.8865 18.35
    endloop
  endfacet
  facet normal 0 0 1
    outer loop
      vertex -1.44472 74.3471 18.35
      vertex -1.06577 75.0561 18.35
      vertex -1.43429 75.3023 18.35
    endloop
  endfacet
  facet normal 0 0 1
    outer loop
      vertex -1.06577 75.0561 18.35
      vertex -1.44472 74.3471 18.35
      vertex -0.889651 74.1172 18.35
    endloop
  endfacet
  facet normal 0 0 1
    outer loop
      vertex -1.94426 74.6809 18.35
      vertex -1.43429 75.3023 18.35
      vertex -1.74769 75.6157 18.35
    endloop
  endfacet
  facet normal 0 0 1
    outer loop
      vertex -1.43429 75.3023 18.35
      vertex -1.94426 74.6809 18.35
      vertex -1.44472 74.3471 18.35
    endloop
  endfacet
  facet normal 0 0 1
    outer loop
      vertex -2.36909 75.1057 18.35
      vertex -1.74769 75.6157 18.35
      vertex -1.99392 75.9842 18.35
    endloop
  endfacet
  facet normal 0 0 1
    outer loop
      vertex -2.70287 75.6053 18.35
      vertex -1.99392 75.9842 18.35
      vertex -2.16353 76.3937 18.35
    endloop
  endfacet
  facet normal 0 0 1
    outer loop
      vertex -2.93279 76.1603 18.35
      vertex -2.16353 76.3937 18.35
      vertex -2.25 76.8284 18.35
    endloop
  endfacet
  facet normal 0 0 1
    outer loop
      vertex -1.74769 75.6157 18.35
      vertex -2.36909 75.1057 18.35
      vertex -1.94426 74.6809 18.35
    endloop
  endfacet
  facet normal 0 0 1
    outer loop
      vertex -2.16353 77.7063 18.35
      vertex -2.93279 77.9397 18.35
      vertex -2.25 77.2716 18.35
    endloop
  endfacet
  facet normal -0 0 1
    outer loop
      vertex -3.05 77.3504 18.35
      vertex -2.25 77.2716 18.35
      vertex -2.93279 77.9397 18.35
    endloop
  endfacet
  facet normal 0 0 1
    outer loop
      vertex -1.99392 75.9842 18.35
      vertex -2.70287 75.6053 18.35
      vertex -2.36909 75.1057 18.35
    endloop
  endfacet
  facet normal 0 0 1
    outer loop
      vertex -2.25 77.2716 18.35
      vertex -3.05 77.3504 18.35
      vertex -2.25 76.8284 18.35
    endloop
  endfacet
  facet normal 0 0 1
    outer loop
      vertex -2.16353 76.3937 18.35
      vertex -2.93279 76.1603 18.35
      vertex -2.70287 75.6053 18.35
    endloop
  endfacet
  facet normal 0 0 1
    outer loop
      vertex -3.05 76.7496 18.35
      vertex -2.25 76.8284 18.35
      vertex -3.05 77.3504 18.35
    endloop
  endfacet
  facet normal 0 0 1
    outer loop
      vertex -2.25 76.8284 18.35
      vertex -3.05 76.7496 18.35
      vertex -2.93279 76.1603 18.35
    endloop
  endfacet
  facet normal -0.441913 0 0.897058
    outer loop
      vertex -20 84.1 10
      vertex -3.05 76.7496 18.35
      vertex -3.05 77.3504 18.35
    endloop
  endfacet
  facet normal -0.441913 0 0.897058
    outer loop
      vertex -3.05 76.7496 18.35
      vertex -20 84.1 10
      vertex -20 70 10
    endloop
  endfacet
  facet normal -0.358132 0.239266 0.902493
    outer loop
      vertex -2.36909 78.9943 18.35
      vertex -20 84.1 10
      vertex -2.70287 78.4947 18.35
    endloop
  endfacet
  facet normal -0.142843 0.71818 0.681038
    outer loop
      vertex -0.300398 80.1 18.35
      vertex -20 84.1 10
      vertex -0.889651 79.9828 18.35
    endloop
  endfacet
  facet normal 0.229817 0.554868 0.799566
    outer loop
      vertex 20 84.1 10
      vertex 0.889651 79.9828 18.35
      vertex 1.44472 79.7529 18.35
    endloop
  endfacet
  facet normal 0.386556 0.160139 0.908256
    outer loop
      vertex 20 84.1 10
      vertex 2.70287 78.4947 18.35
      vertex 2.93279 77.9397 18.35
    endloop
  endfacet
  facet normal 0.358132 -0.239266 0.902493
    outer loop
      vertex 2.70287 75.6053 18.35
      vertex 2.36909 75.1057 18.35
      vertex 20 70 10
    endloop
  endfacet
  facet normal -0.386556 0.160139 0.908256
    outer loop
      vertex -2.70287 78.4947 18.35
      vertex -20 84.1 10
      vertex -2.93279 77.9397 18.35
    endloop
  endfacet
  facet normal -0.325907 0.32593 0.887442
    outer loop
      vertex -1.94426 79.4191 18.35
      vertex -20 84.1 10
      vertex -2.36909 78.9943 18.35
    endloop
  endfacet
  facet normal -0.229817 0.554868 0.799566
    outer loop
      vertex -0.889651 79.9828 18.35
      vertex -20 84.1 10
      vertex -1.44472 79.7529 18.35
    endloop
  endfacet
  facet normal 0.142843 0.71818 0.681038
    outer loop
      vertex 20 84.1 10
      vertex 0.300398 80.1 18.35
      vertex 0.889651 79.9828 18.35
    endloop
  endfacet
  facet normal 0.285745 0.427625 0.857605
    outer loop
      vertex 20 84.1 10
      vertex 1.44472 79.7529 18.35
      vertex 1.94426 79.4191 18.35
    endloop
  endfacet
  facet normal 0.358132 0.239266 0.902493
    outer loop
      vertex 20 84.1 10
      vertex 2.36909 78.9943 18.35
      vertex 2.70287 78.4947 18.35
    endloop
  endfacet
  facet normal 0.413846 0.0823127 0.906618
    outer loop
      vertex 20 84.1 10
      vertex 2.93279 77.9397 18.35
      vertex 3.05 77.3504 18.35
    endloop
  endfacet
  facet normal 0 0 1
    outer loop
      vertex 20 70 -10
      vertex 11.625 52.6731 -10
      vertex 20 45 -10
    endloop
  endfacet
  facet normal 0 0 1
    outer loop
      vertex 20 70 -10
      vertex 10.6731 53.625 -10
      vertex 11.625 52.6731 -10
    endloop
  endfacet
  facet normal 0 0 1
    outer loop
      vertex 20 70 -10
      vertex 9.3269 53.625 -10
      vertex 10.6731 53.625 -10
    endloop
  endfacet
  facet normal 0 0 1
    outer loop
      vertex -9.3269 53.625 -10
      vertex 9.3269 53.625 -10
      vertex 20 70 -10
    endloop
  endfacet
  facet normal 0 0 1
    outer loop
      vertex 8.375 52.6731 -10
      vertex -8.375 52.6731 -10
      vertex 8.375 51.3269 -10
    endloop
  endfacet
  facet normal 0 0 1
    outer loop
      vertex 9.3269 53.625 -10
      vertex -9.3269 53.625 -10
      vertex 8.375 52.6731 -10
    endloop
  endfacet
  facet normal 0 0 1
    outer loop
      vertex 8.375 52.6731 -10
      vertex -9.3269 53.625 -10
      vertex -8.375 52.6731 -10
    endloop
  endfacet
  facet normal -0 0 1
    outer loop
      vertex -20 70 -10
      vertex -9.3269 53.625 -10
      vertex 20 70 -10
    endloop
  endfacet
  facet normal 0 0 1
    outer loop
      vertex -20 45 -10
      vertex -11.625 52.6731 -10
      vertex -20 70 -10
    endloop
  endfacet
  facet normal 0 0 1
    outer loop
      vertex -10.6731 53.625 -10
      vertex -20 70 -10
      vertex -11.625 52.6731 -10
    endloop
  endfacet
  facet normal 0 0 1
    outer loop
      vertex -9.3269 53.625 -10
      vertex -20 70 -10
      vertex -10.6731 53.625 -10
    endloop
  endfacet
  facet normal -0 0 1
    outer loop
      vertex 11.625 51.3269 -10
      vertex 20 45 -10
      vertex 11.625 52.6731 -10
    endloop
  endfacet
  facet normal -0 0 1
    outer loop
      vertex 10.6731 50.375 -10
      vertex 20 45 -10
      vertex 11.625 51.3269 -10
    endloop
  endfacet
  facet normal -0 0 1
    outer loop
      vertex 9.3269 50.375 -10
      vertex 20 45 -10
      vertex 10.6731 50.375 -10
    endloop
  endfacet
  facet normal 0 0 1
    outer loop
      vertex -8.375 51.3269 -10
      vertex 8.375 51.3269 -10
      vertex -8.375 52.6731 -10
    endloop
  endfacet
  facet normal 0 0 1
    outer loop
      vertex 8.375 51.3269 -10
      vertex -8.375 51.3269 -10
      vertex 9.3269 50.375 -10
    endloop
  endfacet
  facet normal 0 0 1
    outer loop
      vertex -9.3269 50.375 -10
      vertex 9.3269 50.375 -10
      vertex -8.375 51.3269 -10
    endloop
  endfacet
  facet normal 0 0 1
    outer loop
      vertex 9.3269 50.375 -10
      vertex -9.3269 50.375 -10
      vertex 20 45 -10
    endloop
  endfacet
  facet normal 0 0 1
    outer loop
      vertex -20 45 -10
      vertex -9.3269 50.375 -10
      vertex -10.6731 50.375 -10
    endloop
  endfacet
  facet normal 0 0 1
    outer loop
      vertex -9.3269 50.375 -10
      vertex -20 45 -10
      vertex 20 45 -10
    endloop
  endfacet
  facet normal 0 0 1
    outer loop
      vertex -11.625 51.3269 -10
      vertex -20 45 -10
      vertex -10.6731 50.375 -10
    endloop
  endfacet
  facet normal 0 0 1
    outer loop
      vertex -11.625 52.6731 -10
      vertex -20 45 -10
      vertex -11.625 51.3269 -10
    endloop
  endfacet
  facet normal 0 -1 0
    outer loop
      vertex -20 45 -14.8
      vertex 20 45 -10
      vertex -20 45 -10
    endloop
  endfacet
  facet normal 0 -1 -0
    outer loop
      vertex 20 45 -10
      vertex -20 45 -14.8
      vertex 20 45 -14.8
    endloop
  endfacet
  facet normal 0 -0.840089 -0.542448
    outer loop
      vertex -6.5 50.5503 -23.3959
      vertex 8.55025 48.5 -20.2206
      vertex -8.55025 48.5 -20.2206
    endloop
  endfacet
  facet normal 0 -0.840089 -0.542448
    outer loop
      vertex -6.5 50.5503 -23.3959
      vertex 6.5 50.5503 -23.3959
      vertex 8.55025 48.5 -20.2206
    endloop
  endfacet
  facet normal 0 -0.840106 -0.542423
    outer loop
      vertex -6.5 53.4497 -27.8865
      vertex 6.5 50.5503 -23.3959
      vertex -6.5 50.5503 -23.3959
    endloop
  endfacet
  facet normal 0 -0.840106 -0.542423
    outer loop
      vertex -6.5 53.4497 -27.8865
      vertex 6.5 53.4497 -27.8865
      vertex 6.5 50.5503 -23.3959
    endloop
  endfacet
  facet normal 0 -0.840089 -0.542448
    outer loop
      vertex -8.55025 55.5 -31.0618
      vertex 6.5 53.4497 -27.8865
      vertex -6.5 53.4497 -27.8865
    endloop
  endfacet
  facet normal 0 -0.840089 -0.542448
    outer loop
      vertex 6.5 53.4497 -27.8865
      vertex -8.55025 55.5 -31.0618
      vertex 8.55025 55.5 -31.0618
    endloop
  endfacet
  facet normal -0 -0.840096 -0.542437
    outer loop
      vertex -8.55025 48.5 -20.2206
      vertex -20 45 -14.8
      vertex -11.4497 48.5 -20.2206
    endloop
  endfacet
  facet normal -6.72229e-06 -0.840091 -0.542445
    outer loop
      vertex -20 45 -14.8
      vertex -13.5 50.5503 -23.3959
      vertex -11.4497 48.5 -20.2206
    endloop
  endfacet
  facet normal 3.52495e-05 -0.840106 -0.542423
    outer loop
      vertex -20 45 -14.8
      vertex -13.5 53.4497 -27.8865
      vertex -13.5 50.5503 -23.3959
    endloop
  endfacet
  facet normal 0 -0.840098 -0.542435
    outer loop
      vertex -20 62.95 -42.6
      vertex -8.55025 55.5 -31.0618
      vertex -11.4497 55.5 -31.0618
    endloop
  endfacet
  facet normal 0 -0.840098 -0.542435
    outer loop
      vertex -8.55025 55.5 -31.0618
      vertex -20 62.95 -42.6
      vertex 8.55025 55.5 -31.0618
    endloop
  endfacet
  facet normal -0 -0.840098 -0.542435
    outer loop
      vertex 20 62.95 -42.6
      vertex 8.55025 55.5 -31.0618
      vertex -20 62.95 -42.6
    endloop
  endfacet
  facet normal 1.30042e-05 -0.840093 -0.542442
    outer loop
      vertex -13.5 53.4497 -27.8865
      vertex -20 62.95 -42.6
      vertex -11.4497 55.5 -31.0618
    endloop
  endfacet
  facet normal -4.71886e-06 -0.840097 -0.542437
    outer loop
      vertex -20 62.95 -42.6
      vertex -13.5 53.4497 -27.8865
      vertex -20 45 -14.8
    endloop
  endfacet
  facet normal 0 -0.840096 -0.542437
    outer loop
      vertex -20 45 -14.8
      vertex -8.55025 48.5 -20.2206
      vertex 20 45 -14.8
    endloop
  endfacet
  facet normal -0 -0.840096 -0.542437
    outer loop
      vertex 8.55025 48.5 -20.2206
      vertex 20 45 -14.8
      vertex -8.55025 48.5 -20.2206
    endloop
  endfacet
  facet normal -0 -0.840096 -0.542437
    outer loop
      vertex 11.4497 48.5 -20.2206
      vertex 20 45 -14.8
      vertex 8.55025 48.5 -20.2206
    endloop
  endfacet
  facet normal 6.72229e-06 -0.840091 -0.542445
    outer loop
      vertex 13.5 50.5503 -23.3959
      vertex 20 45 -14.8
      vertex 11.4497 48.5 -20.2206
    endloop
  endfacet
  facet normal -3.52495e-05 -0.840106 -0.542423
    outer loop
      vertex 13.5 53.4497 -27.8865
      vertex 20 45 -14.8
      vertex 13.5 50.5503 -23.3959
    endloop
  endfacet
  facet normal 4.71886e-06 -0.840097 -0.542437
    outer loop
      vertex 13.5 53.4497 -27.8865
      vertex 20 62.95 -42.6
      vertex 20 45 -14.8
    endloop
  endfacet
  facet normal -1.30042e-05 -0.840093 -0.542442
    outer loop
      vertex 11.4497 55.5 -31.0618
      vertex 20 62.95 -42.6
      vertex 13.5 53.4497 -27.8865
    endloop
  endfacet
  facet normal 0 -0.840098 -0.542435
    outer loop
      vertex 8.55025 55.5 -31.0618
      vertex 20 62.95 -42.6
      vertex 11.4497 55.5 -31.0618
    endloop
  endfacet
  facet normal -0.707107 -0.707107 0
    outer loop
      vertex -8.375 52.6731 -14.8
      vertex -9.3269 53.625 -10
      vertex -9.3269 53.625 -14.8
    endloop
  endfacet
  facet normal -0.707107 -0.707107 0
    outer loop
      vertex -9.3269 53.625 -10
      vertex -8.375 52.6731 -14.8
      vertex -8.375 52.6731 -10
    endloop
  endfacet
  facet normal 1 -0 0
    outer loop
      vertex -11.625 51.3269 -10
      vertex -11.625 52.6731 -14.8
      vertex -11.625 52.6731 -10
    endloop
  endfacet
  facet normal 1 0 0
    outer loop
      vertex -11.625 52.6731 -14.8
      vertex -11.625 51.3269 -10
      vertex -11.625 51.3269 -14.8
    endloop
  endfacet
  facet normal 0 -1 0
    outer loop
      vertex -10.6731 53.625 -14.8
      vertex -9.3269 53.625 -10
      vertex -10.6731 53.625 -10
    endloop
  endfacet
  facet normal 0 -1 -0
    outer loop
      vertex -9.3269 53.625 -10
      vertex -10.6731 53.625 -14.8
      vertex -9.3269 53.625 -14.8
    endloop
  endfacet
  facet normal 0.707107 -0.707107 0
    outer loop
      vertex -11.625 52.6731 -10
      vertex -10.6731 53.625 -14.8
      vertex -10.6731 53.625 -10
    endloop
  endfacet
  facet normal 0.707107 -0.707107 0
    outer loop
      vertex -10.6731 53.625 -14.8
      vertex -11.625 52.6731 -10
      vertex -11.625 52.6731 -14.8
    endloop
  endfacet
  facet normal -0.707107 0.707107 0
    outer loop
      vertex -9.3269 50.375 -14.8
      vertex -8.375 51.3269 -10
      vertex -8.375 51.3269 -14.8
    endloop
  endfacet
  facet normal -0.707107 0.707107 0
    outer loop
      vertex -8.375 51.3269 -10
      vertex -9.3269 50.375 -14.8
      vertex -9.3269 50.375 -10
    endloop
  endfacet
  facet normal 0.707107 0.707107 0
    outer loop
      vertex -10.6731 50.375 -10
      vertex -11.625 51.3269 -14.8
      vertex -11.625 51.3269 -10
    endloop
  endfacet
  facet normal 0.707107 0.707107 0
    outer loop
      vertex -11.625 51.3269 -14.8
      vertex -10.6731 50.375 -10
      vertex -10.6731 50.375 -14.8
    endloop
  endfacet
  facet normal 0 1 -0
    outer loop
      vertex -9.3269 50.375 -14.8
      vertex -10.6731 50.375 -10
      vertex -9.3269 50.375 -10
    endloop
  endfacet
  facet normal 0 1 0
    outer loop
      vertex -10.6731 50.375 -10
      vertex -9.3269 50.375 -14.8
      vertex -10.6731 50.375 -14.8
    endloop
  endfacet
  facet normal -1 0 0
    outer loop
      vertex -8.375 51.3269 -14.8
      vertex -8.375 52.6731 -10
      vertex -8.375 52.6731 -14.8
    endloop
  endfacet
  facet normal -1 -0 0
    outer loop
      vertex -8.375 52.6731 -10
      vertex -8.375 51.3269 -14.8
      vertex -8.375 51.3269 -10
    endloop
  endfacet
  facet normal -0.707115 -0.707098 0
    outer loop
      vertex -6.5 53.4497 -27.8865
      vertex -8.55025 55.5 -14.8
      vertex -8.55025 55.5 -31.0618
    endloop
  endfacet
  facet normal -0.707115 -0.707098 0
    outer loop
      vertex -8.55025 55.5 -14.8
      vertex -6.5 53.4497 -27.8865
      vertex -6.5 53.4497 -14.8
    endloop
  endfacet
  facet normal 0.707107 -0.707107 0
    outer loop
      vertex -13.5 53.4497 -27.8865
      vertex -11.4497 55.5 -14.8
      vertex -13.5 53.4497 -14.8
    endloop
  endfacet
  facet normal 0.707107 -0.707107 0
    outer loop
      vertex -11.4497 55.5 -14.8
      vertex -13.5 53.4497 -27.8865
      vertex -11.4497 55.5 -31.0618
    endloop
  endfacet
  facet normal 0 -1 0
    outer loop
      vertex -11.4497 55.5 -31.0618
      vertex -8.55025 55.5 -14.8
      vertex -11.4497 55.5 -14.8
    endloop
  endfacet
  facet normal 0 -1 -0
    outer loop
      vertex -8.55025 55.5 -14.8
      vertex -11.4497 55.5 -31.0618
      vertex -8.55025 55.5 -31.0618
    endloop
  endfacet
  facet normal 0 0 -1
    outer loop
      vertex -6.5 50.5503 -14.8
      vertex -8.375 52.6731 -14.8
      vertex -6.5 53.4497 -14.8
    endloop
  endfacet
  facet normal 0 0 -1
    outer loop
      vertex -6.5 50.5503 -14.8
      vertex -8.375 51.3269 -14.8
      vertex -8.375 52.6731 -14.8
    endloop
  endfacet
  facet normal 0 0 -1
    outer loop
      vertex -8.55025 48.5 -14.8
      vertex -8.375 51.3269 -14.8
      vertex -6.5 50.5503 -14.8
    endloop
  endfacet
  facet normal 0 0 -1
    outer loop
      vertex -8.55025 48.5 -14.8
      vertex -9.3269 50.375 -14.8
      vertex -8.375 51.3269 -14.8
    endloop
  endfacet
  facet normal 0 0 -1
    outer loop
      vertex -8.55025 48.5 -14.8
      vertex -10.6731 50.375 -14.8
      vertex -9.3269 50.375 -14.8
    endloop
  endfacet
  facet normal 0 0 -1
    outer loop
      vertex -11.4497 48.5 -14.8
      vertex -10.6731 50.375 -14.8
      vertex -8.55025 48.5 -14.8
    endloop
  endfacet
  facet normal 0 0 -1
    outer loop
      vertex -11.4497 48.5 -14.8
      vertex -11.625 51.3269 -14.8
      vertex -10.6731 50.375 -14.8
    endloop
  endfacet
  facet normal 0 0 -1
    outer loop
      vertex -11.625 51.3269 -14.8
      vertex -13.5 53.4497 -14.8
      vertex -11.625 52.6731 -14.8
    endloop
  endfacet
  facet normal 0 0 -1
    outer loop
      vertex -13.5 50.5503 -14.8
      vertex -11.625 51.3269 -14.8
      vertex -11.4497 48.5 -14.8
    endloop
  endfacet
  facet normal -0 0 -1
    outer loop
      vertex -11.625 51.3269 -14.8
      vertex -13.5 50.5503 -14.8
      vertex -13.5 53.4497 -14.8
    endloop
  endfacet
  facet normal 0 0 -1
    outer loop
      vertex -8.375 52.6731 -14.8
      vertex -8.55025 55.5 -14.8
      vertex -6.5 53.4497 -14.8
    endloop
  endfacet
  facet normal 0 0 -1
    outer loop
      vertex -9.3269 53.625 -14.8
      vertex -8.55025 55.5 -14.8
      vertex -8.375 52.6731 -14.8
    endloop
  endfacet
  facet normal 0 0 -1
    outer loop
      vertex -10.6731 53.625 -14.8
      vertex -8.55025 55.5 -14.8
      vertex -9.3269 53.625 -14.8
    endloop
  endfacet
  facet normal 0 0 -1
    outer loop
      vertex -10.6731 53.625 -14.8
      vertex -11.4497 55.5 -14.8
      vertex -8.55025 55.5 -14.8
    endloop
  endfacet
  facet normal 0 0 -1
    outer loop
      vertex -11.625 52.6731 -14.8
      vertex -11.4497 55.5 -14.8
      vertex -10.6731 53.625 -14.8
    endloop
  endfacet
  facet normal 0 0 -1
    outer loop
      vertex -11.4497 55.5 -14.8
      vertex -11.625 52.6731 -14.8
      vertex -13.5 53.4497 -14.8
    endloop
  endfacet
  facet normal 1 0 0
    outer loop
      vertex -13.5 50.5503 -23.3959
      vertex -13.5 53.4497 -14.8
      vertex -13.5 50.5503 -14.8
    endloop
  endfacet
  facet normal 1 0 0
    outer loop
      vertex -13.5 53.4497 -14.8
      vertex -13.5 50.5503 -23.3959
      vertex -13.5 53.4497 -27.8865
    endloop
  endfacet
  facet normal -1 0 0
    outer loop
      vertex -6.5 50.5503 -23.3959
      vertex -6.5 53.4497 -14.8
      vertex -6.5 53.4497 -27.8865
    endloop
  endfacet
  facet normal -1 -0 0
    outer loop
      vertex -6.5 53.4497 -14.8
      vertex -6.5 50.5503 -23.3959
      vertex -6.5 50.5503 -14.8
    endloop
  endfacet
  facet normal 0.707107 0.707107 -0
    outer loop
      vertex -11.4497 48.5 -20.2206
      vertex -13.5 50.5503 -14.8
      vertex -11.4497 48.5 -14.8
    endloop
  endfacet
  facet normal 0.707107 0.707107 0
    outer loop
      vertex -13.5 50.5503 -14.8
      vertex -11.4497 48.5 -20.2206
      vertex -13.5 50.5503 -23.3959
    endloop
  endfacet
  facet normal -0.707115 0.707098 0
    outer loop
      vertex -8.55025 48.5 -20.2206
      vertex -6.5 50.5503 -14.8
      vertex -6.5 50.5503 -23.3959
    endloop
  endfacet
  facet normal -0.707115 0.707098 0
    outer loop
      vertex -6.5 50.5503 -14.8
      vertex -8.55025 48.5 -20.2206
      vertex -8.55025 48.5 -14.8
    endloop
  endfacet
  facet normal 0 1 -0
    outer loop
      vertex -8.55025 48.5 -20.2206
      vertex -11.4497 48.5 -14.8
      vertex -8.55025 48.5 -14.8
    endloop
  endfacet
  facet normal 0 1 0
    outer loop
      vertex -11.4497 48.5 -14.8
      vertex -8.55025 48.5 -20.2206
      vertex -11.4497 48.5 -20.2206
    endloop
  endfacet
  facet normal -0.707107 -0 -0.707107
    outer loop
      vertex -8.91269 84.1 2.625
      vertex -8.2699 70 1.98221
      vertex -8.91269 70 2.625
    endloop
  endfacet
  facet normal -0.707107 3.1108e-18 -0.707107
    outer loop
      vertex -8.2699 70 1.98221
      vertex -8.91269 84.1 2.625
      vertex -8.01779 84.1 1.7301
    endloop
  endfacet
  facet normal -0.707107 0 -0.707107
    outer loop
      vertex -7.375 70 1.08731
      vertex -8.01779 84.1 1.7301
      vertex -7.375 84.1 1.08731
    endloop
  endfacet
  facet normal -0.707107 3.1108e-18 -0.707107
    outer loop
      vertex -8.01779 84.1 1.7301
      vertex -7.375 70 1.08731
      vertex -8.2699 70 1.98221
    endloop
  endfacet
  facet normal 1 -0 0
    outer loop
      vertex -12.625 70 1.08731
      vertex -12.625 84.1 -1.08731
      vertex -12.625 84.1 1.08731
    endloop
  endfacet
  facet normal 1 0 0
    outer loop
      vertex -12.625 84.1 -1.08731
      vertex -12.625 70 1.08731
      vertex -12.625 70 -1.08731
    endloop
  endfacet
  facet normal 0 0 -1
    outer loop
      vertex -11.0873 70 2.625
      vertex -8.91269 84.1 2.625
      vertex -8.91269 70 2.625
    endloop
  endfacet
  facet normal -0 0 -1
    outer loop
      vertex -8.91269 84.1 2.625
      vertex -11.0873 70 2.625
      vertex -11.0873 84.1 2.625
    endloop
  endfacet
  facet normal -0.707107 0 0.707107
    outer loop
      vertex -8.91269 70 -2.625
      vertex -8.2699 84.1 -1.98221
      vertex -8.91269 84.1 -2.625
    endloop
  endfacet
  facet normal -0.707107 -3.1108e-18 0.707107
    outer loop
      vertex -8.2699 84.1 -1.98221
      vertex -8.91269 70 -2.625
      vertex -8.01779 70 -1.7301
    endloop
  endfacet
  facet normal 0.707101 0 0.707112
    outer loop
      vertex -11.7301 84.1 -1.98221
      vertex -11.0873 70 -2.625
      vertex -11.0873 84.1 -2.625
    endloop
  endfacet
  facet normal 0.707107 5.01494e-07 0.707107
    outer loop
      vertex -11.0873 70 -2.625
      vertex -11.7301 84.1 -1.98221
      vertex -11.9822 70 -1.7301
    endloop
  endfacet
  facet normal 0.707101 0 -0.707112
    outer loop
      vertex -11.7301 70 1.98221
      vertex -11.0873 84.1 2.625
      vertex -11.0873 70 2.625
    endloop
  endfacet
  facet normal 0.707107 -5.01494e-07 -0.707107
    outer loop
      vertex -11.0873 84.1 2.625
      vertex -11.7301 70 1.98221
      vertex -11.9822 84.1 1.7301
    endloop
  endfacet
  facet normal 0.707107 -5.01494e-07 -0.707107
    outer loop
      vertex -12.625 70 1.08731
      vertex -11.9822 84.1 1.7301
      vertex -11.7301 70 1.98221
    endloop
  endfacet
  facet normal 0.707101 0 -0.707112
    outer loop
      vertex -11.9822 84.1 1.7301
      vertex -12.625 70 1.08731
      vertex -12.625 84.1 1.08731
    endloop
  endfacet
  facet normal 0.707107 5.01494e-07 0.707107
    outer loop
      vertex -12.625 84.1 -1.08731
      vertex -11.9822 70 -1.7301
      vertex -11.7301 84.1 -1.98221
    endloop
  endfacet
  facet normal 0.707101 0 0.707112
    outer loop
      vertex -11.9822 70 -1.7301
      vertex -12.625 84.1 -1.08731
      vertex -12.625 70 -1.08731
    endloop
  endfacet
  facet normal -0 0 1
    outer loop
      vertex -11.0873 84.1 -2.625
      vertex -8.91269 70 -2.625
      vertex -8.91269 84.1 -2.625
    endloop
  endfacet
  facet normal 0 0 1
    outer loop
      vertex -8.91269 70 -2.625
      vertex -11.0873 84.1 -2.625
      vertex -11.0873 70 -2.625
    endloop
  endfacet
  facet normal -0.707107 0 0.707107
    outer loop
      vertex -7.375 84.1 -1.08731
      vertex -8.01779 70 -1.7301
      vertex -7.375 70 -1.08731
    endloop
  endfacet
  facet normal -0.707107 -3.1108e-18 0.707107
    outer loop
      vertex -8.01779 70 -1.7301
      vertex -7.375 84.1 -1.08731
      vertex -8.2699 84.1 -1.98221
    endloop
  endfacet
  facet normal -1 0 0
    outer loop
      vertex -7.375 70 -1.08731
      vertex -7.375 84.1 1.08731
      vertex -7.375 84.1 -1.08731
    endloop
  endfacet
  facet normal -1 -0 0
    outer loop
      vertex -7.375 84.1 1.08731
      vertex -7.375 70 -1.08731
      vertex -7.375 70 1.08731
    endloop
  endfacet
  facet normal -0.707107 -0.707107 0
    outer loop
      vertex 11.625 52.6731 -14.8
      vertex 10.6731 53.625 -10
      vertex 10.6731 53.625 -14.8
    endloop
  endfacet
  facet normal -0.707107 -0.707107 0
    outer loop
      vertex 10.6731 53.625 -10
      vertex 11.625 52.6731 -14.8
      vertex 11.625 52.6731 -10
    endloop
  endfacet
  facet normal 1 -0 0
    outer loop
      vertex 8.375 51.3269 -10
      vertex 8.375 52.6731 -14.8
      vertex 8.375 52.6731 -10
    endloop
  endfacet
  facet normal 1 0 0
    outer loop
      vertex 8.375 52.6731 -14.8
      vertex 8.375 51.3269 -10
      vertex 8.375 51.3269 -14.8
    endloop
  endfacet
  facet normal 0 -1 0
    outer loop
      vertex 9.3269 53.625 -14.8
      vertex 10.6731 53.625 -10
      vertex 9.3269 53.625 -10
    endloop
  endfacet
  facet normal 0 -1 -0
    outer loop
      vertex 10.6731 53.625 -10
      vertex 9.3269 53.625 -14.8
      vertex 10.6731 53.625 -14.8
    endloop
  endfacet
  facet normal 0.707107 -0.707107 0
    outer loop
      vertex 8.375 52.6731 -10
      vertex 9.3269 53.625 -14.8
      vertex 9.3269 53.625 -10
    endloop
  endfacet
  facet normal 0.707107 -0.707107 0
    outer loop
      vertex 9.3269 53.625 -14.8
      vertex 8.375 52.6731 -10
      vertex 8.375 52.6731 -14.8
    endloop
  endfacet
  facet normal -0.707107 0.707107 0
    outer loop
      vertex 10.6731 50.375 -14.8
      vertex 11.625 51.3269 -10
      vertex 11.625 51.3269 -14.8
    endloop
  endfacet
  facet normal -0.707107 0.707107 0
    outer loop
      vertex 11.625 51.3269 -10
      vertex 10.6731 50.375 -14.8
      vertex 10.6731 50.375 -10
    endloop
  endfacet
  facet normal 0.707107 0.707107 0
    outer loop
      vertex 9.3269 50.375 -10
      vertex 8.375 51.3269 -14.8
      vertex 8.375 51.3269 -10
    endloop
  endfacet
  facet normal 0.707107 0.707107 0
    outer loop
      vertex 8.375 51.3269 -14.8
      vertex 9.3269 50.375 -10
      vertex 9.3269 50.375 -14.8
    endloop
  endfacet
  facet normal 0 1 -0
    outer loop
      vertex 10.6731 50.375 -14.8
      vertex 9.3269 50.375 -10
      vertex 10.6731 50.375 -10
    endloop
  endfacet
  facet normal 0 1 0
    outer loop
      vertex 9.3269 50.375 -10
      vertex 10.6731 50.375 -14.8
      vertex 9.3269 50.375 -14.8
    endloop
  endfacet
  facet normal -1 0 0
    outer loop
      vertex 11.625 51.3269 -14.8
      vertex 11.625 52.6731 -10
      vertex 11.625 52.6731 -14.8
    endloop
  endfacet
  facet normal -1 -0 0
    outer loop
      vertex 11.625 52.6731 -10
      vertex 11.625 51.3269 -14.8
      vertex 11.625 51.3269 -10
    endloop
  endfacet
  facet normal -0.707107 -0.707107 0
    outer loop
      vertex 13.5 53.4497 -27.8865
      vertex 11.4497 55.5 -14.8
      vertex 11.4497 55.5 -31.0618
    endloop
  endfacet
  facet normal -0.707107 -0.707107 0
    outer loop
      vertex 11.4497 55.5 -14.8
      vertex 13.5 53.4497 -27.8865
      vertex 13.5 53.4497 -14.8
    endloop
  endfacet
  facet normal 0.707115 -0.707098 0
    outer loop
      vertex 6.5 53.4497 -27.8865
      vertex 8.55025 55.5 -14.8
      vertex 6.5 53.4497 -14.8
    endloop
  endfacet
  facet normal 0.707115 -0.707098 0
    outer loop
      vertex 8.55025 55.5 -14.8
      vertex 6.5 53.4497 -27.8865
      vertex 8.55025 55.5 -31.0618
    endloop
  endfacet
  facet normal 0 -1 0
    outer loop
      vertex 8.55025 55.5 -31.0618
      vertex 11.4497 55.5 -14.8
      vertex 8.55025 55.5 -14.8
    endloop
  endfacet
  facet normal 0 -1 -0
    outer loop
      vertex 11.4497 55.5 -14.8
      vertex 8.55025 55.5 -31.0618
      vertex 11.4497 55.5 -31.0618
    endloop
  endfacet
  facet normal 0 0 -1
    outer loop
      vertex 13.5 50.5503 -14.8
      vertex 11.625 52.6731 -14.8
      vertex 13.5 53.4497 -14.8
    endloop
  endfacet
  facet normal 0 0 -1
    outer loop
      vertex 13.5 50.5503 -14.8
      vertex 11.625 51.3269 -14.8
      vertex 11.625 52.6731 -14.8
    endloop
  endfacet
  facet normal 0 0 -1
    outer loop
      vertex 11.4497 48.5 -14.8
      vertex 11.625 51.3269 -14.8
      vertex 13.5 50.5503 -14.8
    endloop
  endfacet
  facet normal 0 0 -1
    outer loop
      vertex 11.4497 48.5 -14.8
      vertex 10.6731 50.375 -14.8
      vertex 11.625 51.3269 -14.8
    endloop
  endfacet
  facet normal 0 0 -1
    outer loop
      vertex 11.4497 48.5 -14.8
      vertex 9.3269 50.375 -14.8
      vertex 10.6731 50.375 -14.8
    endloop
  endfacet
  facet normal 0 0 -1
    outer loop
      vertex 8.55025 48.5 -14.8
      vertex 9.3269 50.375 -14.8
      vertex 11.4497 48.5 -14.8
    endloop
  endfacet
  facet normal 0 0 -1
    outer loop
      vertex 8.55025 48.5 -14.8
      vertex 8.375 51.3269 -14.8
      vertex 9.3269 50.375 -14.8
    endloop
  endfacet
  facet normal 0 0 -1
    outer loop
      vertex 8.375 51.3269 -14.8
      vertex 6.5 53.4497 -14.8
      vertex 8.375 52.6731 -14.8
    endloop
  endfacet
  facet normal 0 0 -1
    outer loop
      vertex 6.5 50.5503 -14.8
      vertex 8.375 51.3269 -14.8
      vertex 8.55025 48.5 -14.8
    endloop
  endfacet
  facet normal -0 0 -1
    outer loop
      vertex 8.375 51.3269 -14.8
      vertex 6.5 50.5503 -14.8
      vertex 6.5 53.4497 -14.8
    endloop
  endfacet
  facet normal 0 0 -1
    outer loop
      vertex 11.625 52.6731 -14.8
      vertex 11.4497 55.5 -14.8
      vertex 13.5 53.4497 -14.8
    endloop
  endfacet
  facet normal 0 0 -1
    outer loop
      vertex 10.6731 53.625 -14.8
      vertex 11.4497 55.5 -14.8
      vertex 11.625 52.6731 -14.8
    endloop
  endfacet
  facet normal 0 0 -1
    outer loop
      vertex 9.3269 53.625 -14.8
      vertex 11.4497 55.5 -14.8
      vertex 10.6731 53.625 -14.8
    endloop
  endfacet
  facet normal 0 0 -1
    outer loop
      vertex 9.3269 53.625 -14.8
      vertex 8.55025 55.5 -14.8
      vertex 11.4497 55.5 -14.8
    endloop
  endfacet
  facet normal 0 0 -1
    outer loop
      vertex 8.375 52.6731 -14.8
      vertex 8.55025 55.5 -14.8
      vertex 9.3269 53.625 -14.8
    endloop
  endfacet
  facet normal 0 0 -1
    outer loop
      vertex 8.55025 55.5 -14.8
      vertex 8.375 52.6731 -14.8
      vertex 6.5 53.4497 -14.8
    endloop
  endfacet
  facet normal 1 0 0
    outer loop
      vertex 6.5 50.5503 -23.3959
      vertex 6.5 53.4497 -14.8
      vertex 6.5 50.5503 -14.8
    endloop
  endfacet
  facet normal 1 0 0
    outer loop
      vertex 6.5 53.4497 -14.8
      vertex 6.5 50.5503 -23.3959
      vertex 6.5 53.4497 -27.8865
    endloop
  endfacet
  facet normal -1 0 0
    outer loop
      vertex 13.5 50.5503 -23.3959
      vertex 13.5 53.4497 -14.8
      vertex 13.5 53.4497 -27.8865
    endloop
  endfacet
  facet normal -1 -0 0
    outer loop
      vertex 13.5 53.4497 -14.8
      vertex 13.5 50.5503 -23.3959
      vertex 13.5 50.5503 -14.8
    endloop
  endfacet
  facet normal 0.707115 0.707098 -0
    outer loop
      vertex 8.55025 48.5 -20.2206
      vertex 6.5 50.5503 -14.8
      vertex 8.55025 48.5 -14.8
    endloop
  endfacet
  facet normal 0.707115 0.707098 0
    outer loop
      vertex 6.5 50.5503 -14.8
      vertex 8.55025 48.5 -20.2206
      vertex 6.5 50.5503 -23.3959
    endloop
  endfacet
  facet normal -0.707107 0.707107 0
    outer loop
      vertex 11.4497 48.5 -20.2206
      vertex 13.5 50.5503 -14.8
      vertex 13.5 50.5503 -23.3959
    endloop
  endfacet
  facet normal -0.707107 0.707107 0
    outer loop
      vertex 13.5 50.5503 -14.8
      vertex 11.4497 48.5 -20.2206
      vertex 11.4497 48.5 -14.8
    endloop
  endfacet
  facet normal 0 1 -0
    outer loop
      vertex 11.4497 48.5 -20.2206
      vertex 8.55025 48.5 -14.8
      vertex 11.4497 48.5 -14.8
    endloop
  endfacet
  facet normal 0 1 0
    outer loop
      vertex 8.55025 48.5 -14.8
      vertex 11.4497 48.5 -20.2206
      vertex 8.55025 48.5 -20.2206
    endloop
  endfacet
  facet normal -0.707101 -0 -0.707112
    outer loop
      vertex 11.0873 84.1 2.625
      vertex 11.7301 70 1.98221
      vertex 11.0873 70 2.625
    endloop
  endfacet
  facet normal -0.707107 -5.01494e-07 -0.707107
    outer loop
      vertex 11.7301 70 1.98221
      vertex 11.0873 84.1 2.625
      vertex 11.9822 84.1 1.7301
    endloop
  endfacet
  facet normal -0.707101 0 -0.707112
    outer loop
      vertex 12.625 70 1.08731
      vertex 11.9822 84.1 1.7301
      vertex 12.625 84.1 1.08731
    endloop
  endfacet
  facet normal -0.707107 -5.01494e-07 -0.707107
    outer loop
      vertex 11.9822 84.1 1.7301
      vertex 12.625 70 1.08731
      vertex 11.7301 70 1.98221
    endloop
  endfacet
  facet normal 1 -0 0
    outer loop
      vertex 7.375 70 1.08731
      vertex 7.375 84.1 -1.08731
      vertex 7.375 84.1 1.08731
    endloop
  endfacet
  facet normal 1 0 0
    outer loop
      vertex 7.375 84.1 -1.08731
      vertex 7.375 70 1.08731
      vertex 7.375 70 -1.08731
    endloop
  endfacet
  facet normal -0.707101 0 0.707112
    outer loop
      vertex 11.0873 70 -2.625
      vertex 11.7301 84.1 -1.98221
      vertex 11.0873 84.1 -2.625
    endloop
  endfacet
  facet normal -0.707107 5.01494e-07 0.707107
    outer loop
      vertex 11.7301 84.1 -1.98221
      vertex 11.0873 70 -2.625
      vertex 11.9822 70 -1.7301
    endloop
  endfacet
  facet normal 0.707107 0 0.707107
    outer loop
      vertex 8.2699 84.1 -1.98221
      vertex 8.91269 70 -2.625
      vertex 8.91269 84.1 -2.625
    endloop
  endfacet
  facet normal 0.707107 0 0.707107
    outer loop
      vertex 8.91269 70 -2.625
      vertex 8.2699 84.1 -1.98221
      vertex 8.01779 70 -1.7301
    endloop
  endfacet
  facet normal 0.707107 0 -0.707107
    outer loop
      vertex 8.2699 70 1.98221
      vertex 8.91269 84.1 2.625
      vertex 8.91269 70 2.625
    endloop
  endfacet
  facet normal 0.707107 0 -0.707107
    outer loop
      vertex 8.91269 84.1 2.625
      vertex 8.2699 70 1.98221
      vertex 8.01779 84.1 1.7301
    endloop
  endfacet
  facet normal 0 0 -1
    outer loop
      vertex 8.91269 70 2.625
      vertex 11.0873 84.1 2.625
      vertex 11.0873 70 2.625
    endloop
  endfacet
  facet normal -0 0 -1
    outer loop
      vertex 11.0873 84.1 2.625
      vertex 8.91269 70 2.625
      vertex 8.91269 84.1 2.625
    endloop
  endfacet
  facet normal 0.707107 0 -0.707107
    outer loop
      vertex 7.375 70 1.08731
      vertex 8.01779 84.1 1.7301
      vertex 8.2699 70 1.98221
    endloop
  endfacet
  facet normal 0.707107 0 -0.707107
    outer loop
      vertex 8.01779 84.1 1.7301
      vertex 7.375 70 1.08731
      vertex 7.375 84.1 1.08731
    endloop
  endfacet
  facet normal 0.707107 0 0.707107
    outer loop
      vertex 7.375 84.1 -1.08731
      vertex 8.01779 70 -1.7301
      vertex 8.2699 84.1 -1.98221
    endloop
  endfacet
  facet normal 0.707107 0 0.707107
    outer loop
      vertex 8.01779 70 -1.7301
      vertex 7.375 84.1 -1.08731
      vertex 7.375 70 -1.08731
    endloop
  endfacet
  facet normal -0 0 1
    outer loop
      vertex 8.91269 84.1 -2.625
      vertex 11.0873 70 -2.625
      vertex 11.0873 84.1 -2.625
    endloop
  endfacet
  facet normal 0 0 1
    outer loop
      vertex 11.0873 70 -2.625
      vertex 8.91269 84.1 -2.625
      vertex 8.91269 70 -2.625
    endloop
  endfacet
  facet normal -0.707101 0 0.707112
    outer loop
      vertex 12.625 84.1 -1.08731
      vertex 11.9822 70 -1.7301
      vertex 12.625 70 -1.08731
    endloop
  endfacet
  facet normal -0.707107 5.01494e-07 0.707107
    outer loop
      vertex 11.9822 70 -1.7301
      vertex 12.625 84.1 -1.08731
      vertex 11.7301 84.1 -1.98221
    endloop
  endfacet
  facet normal -1 0 0
    outer loop
      vertex 12.625 70 -1.08731
      vertex 12.625 84.1 1.08731
      vertex 12.625 84.1 -1.08731
    endloop
  endfacet
  facet normal -1 -0 0
    outer loop
      vertex 12.625 84.1 1.08731
      vertex 12.625 70 -1.08731
      vertex 12.625 70 1.08731
    endloop
  endfacet
  facet normal -0.980784 -0.195096 0
    outer loop
      vertex 2.25 77.2716 -42.6
      vertex 2.16353 77.7063 18.35
      vertex 2.16353 77.7063 -42.6
    endloop
  endfacet
  facet normal -0.980784 -0.195096 0
    outer loop
      vertex 2.16353 77.7063 18.35
      vertex 2.25 77.2716 -42.6
      vertex 2.25 77.2716 18.35
    endloop
  endfacet
  facet normal 1 -0 0
    outer loop
      vertex -2.25 76.8284 18.35
      vertex -2.25 77.2716 -42.6
      vertex -2.25 77.2716 18.35
    endloop
  endfacet
  facet normal 1 0 0
    outer loop
      vertex -2.25 77.2716 -42.6
      vertex -2.25 76.8284 18.35
      vertex -2.25 76.8284 -42.6
    endloop
  endfacet
  facet normal 0 -1 0
    outer loop
      vertex -0.221605 79.3 -42.6
      vertex 0.221605 79.3 18.35
      vertex -0.221605 79.3 18.35
    endloop
  endfacet
  facet normal 0 -1 -0
    outer loop
      vertex 0.221605 79.3 18.35
      vertex -0.221605 79.3 -42.6
      vertex 0.221605 79.3 -42.6
    endloop
  endfacet
  facet normal -0.707107 -0.707107 0
    outer loop
      vertex 1.74769 78.4843 -42.6
      vertex 1.43429 78.7977 18.35
      vertex 1.43429 78.7977 -42.6
    endloop
  endfacet
  facet normal -0.707107 -0.707107 0
    outer loop
      vertex 1.43429 78.7977 18.35
      vertex 1.74769 78.4843 -42.6
      vertex 1.74769 78.4843 18.35
    endloop
  endfacet
  facet normal 0.707107 -0.707107 0
    outer loop
      vertex -1.74769 78.4843 18.35
      vertex -1.43429 78.7977 -42.6
      vertex -1.43429 78.7977 18.35
    endloop
  endfacet
  facet normal 0.707107 -0.707107 0
    outer loop
      vertex -1.43429 78.7977 -42.6
      vertex -1.74769 78.4843 18.35
      vertex -1.74769 78.4843 -42.6
    endloop
  endfacet
  facet normal 0.382669 -0.923886 0
    outer loop
      vertex -1.06577 79.0439 -42.6
      vertex -0.656301 79.2135 18.35
      vertex -1.06577 79.0439 18.35
    endloop
  endfacet
  facet normal 0.382669 -0.923886 0
    outer loop
      vertex -0.656301 79.2135 18.35
      vertex -1.06577 79.0439 -42.6
      vertex -0.656301 79.2135 -42.6
    endloop
  endfacet
  facet normal -0.831463 -0.55558 0
    outer loop
      vertex 1.99392 78.1158 -42.6
      vertex 1.74769 78.4843 18.35
      vertex 1.74769 78.4843 -42.6
    endloop
  endfacet
  facet normal -0.831463 -0.55558 0
    outer loop
      vertex 1.74769 78.4843 18.35
      vertex 1.99392 78.1158 -42.6
      vertex 1.99392 78.1158 18.35
    endloop
  endfacet
  facet normal -0.923888 -0.382663 0
    outer loop
      vertex 2.16353 77.7063 -42.6
      vertex 1.99392 78.1158 18.35
      vertex 1.99392 78.1158 -42.6
    endloop
  endfacet
  facet normal -0.923888 -0.382663 0
    outer loop
      vertex 1.99392 78.1158 18.35
      vertex 2.16353 77.7063 -42.6
      vertex 2.16353 77.7063 18.35
    endloop
  endfacet
  facet normal -0.382669 -0.923886 0
    outer loop
      vertex 0.656301 79.2135 -42.6
      vertex 1.06577 79.0439 18.35
      vertex 0.656301 79.2135 18.35
    endloop
  endfacet
  facet normal -0.382669 -0.923886 -0
    outer loop
      vertex 1.06577 79.0439 18.35
      vertex 0.656301 79.2135 -42.6
      vertex 1.06577 79.0439 -42.6
    endloop
  endfacet
  facet normal -0.195163 -0.980771 0
    outer loop
      vertex 0.221605 79.3 -42.6
      vertex 0.656301 79.2135 18.35
      vertex 0.221605 79.3 18.35
    endloop
  endfacet
  facet normal -0.195163 -0.980771 -0
    outer loop
      vertex 0.656301 79.2135 18.35
      vertex 0.221605 79.3 -42.6
      vertex 0.656301 79.2135 -42.6
    endloop
  endfacet
  facet normal -0.555512 -0.831508 0
    outer loop
      vertex 1.06577 79.0439 -42.6
      vertex 1.43429 78.7977 18.35
      vertex 1.06577 79.0439 18.35
    endloop
  endfacet
  facet normal -0.555512 -0.831508 -0
    outer loop
      vertex 1.43429 78.7977 18.35
      vertex 1.06577 79.0439 -42.6
      vertex 1.43429 78.7977 -42.6
    endloop
  endfacet
  facet normal 0.923888 -0.382663 0
    outer loop
      vertex -2.16353 77.7063 18.35
      vertex -1.99392 78.1158 -42.6
      vertex -1.99392 78.1158 18.35
    endloop
  endfacet
  facet normal 0.923888 -0.382663 0
    outer loop
      vertex -1.99392 78.1158 -42.6
      vertex -2.16353 77.7063 18.35
      vertex -2.16353 77.7063 -42.6
    endloop
  endfacet
  facet normal 0.831463 -0.55558 0
    outer loop
      vertex -1.99392 78.1158 18.35
      vertex -1.74769 78.4843 -42.6
      vertex -1.74769 78.4843 18.35
    endloop
  endfacet
  facet normal 0.831463 -0.55558 0
    outer loop
      vertex -1.74769 78.4843 -42.6
      vertex -1.99392 78.1158 18.35
      vertex -1.99392 78.1158 -42.6
    endloop
  endfacet
  facet normal 0.980784 -0.195096 0
    outer loop
      vertex -2.25 77.2716 18.35
      vertex -2.16353 77.7063 -42.6
      vertex -2.16353 77.7063 18.35
    endloop
  endfacet
  facet normal 0.980784 -0.195096 0
    outer loop
      vertex -2.16353 77.7063 -42.6
      vertex -2.25 77.2716 18.35
      vertex -2.25 77.2716 -42.6
    endloop
  endfacet
  facet normal 0.555512 -0.831508 0
    outer loop
      vertex -1.43429 78.7977 -42.6
      vertex -1.06577 79.0439 18.35
      vertex -1.43429 78.7977 18.35
    endloop
  endfacet
  facet normal 0.555512 -0.831508 0
    outer loop
      vertex -1.06577 79.0439 18.35
      vertex -1.43429 78.7977 -42.6
      vertex -1.06577 79.0439 -42.6
    endloop
  endfacet
  facet normal 0.195163 -0.980771 0
    outer loop
      vertex -0.656301 79.2135 -42.6
      vertex -0.221605 79.3 18.35
      vertex -0.656301 79.2135 18.35
    endloop
  endfacet
  facet normal 0.195163 -0.980771 0
    outer loop
      vertex -0.221605 79.3 18.35
      vertex -0.656301 79.2135 -42.6
      vertex -0.221605 79.3 -42.6
    endloop
  endfacet
  facet normal -0.195163 0.980771 0
    outer loop
      vertex 0.656301 74.8865 -42.6
      vertex 0.221605 74.8 18.35
      vertex 0.656301 74.8865 18.35
    endloop
  endfacet
  facet normal -0.195163 0.980771 0
    outer loop
      vertex 0.221605 74.8 18.35
      vertex 0.656301 74.8865 -42.6
      vertex 0.221605 74.8 -42.6
    endloop
  endfacet
  facet normal -0.555512 0.831508 0
    outer loop
      vertex 1.43429 75.3023 -42.6
      vertex 1.06577 75.0561 18.35
      vertex 1.43429 75.3023 18.35
    endloop
  endfacet
  facet normal -0.555512 0.831508 0
    outer loop
      vertex 1.06577 75.0561 18.35
      vertex 1.43429 75.3023 -42.6
      vertex 1.06577 75.0561 -42.6
    endloop
  endfacet
  facet normal 0.555512 0.831508 -0
    outer loop
      vertex -1.06577 75.0561 -42.6
      vertex -1.43429 75.3023 18.35
      vertex -1.06577 75.0561 18.35
    endloop
  endfacet
  facet normal 0.555512 0.831508 0
    outer loop
      vertex -1.43429 75.3023 18.35
      vertex -1.06577 75.0561 -42.6
      vertex -1.43429 75.3023 -42.6
    endloop
  endfacet
  facet normal 0.195163 0.980771 -0
    outer loop
      vertex -0.221605 74.8 -42.6
      vertex -0.656301 74.8865 18.35
      vertex -0.221605 74.8 18.35
    endloop
  endfacet
  facet normal 0.195163 0.980771 0
    outer loop
      vertex -0.656301 74.8865 18.35
      vertex -0.221605 74.8 -42.6
      vertex -0.656301 74.8865 -42.6
    endloop
  endfacet
  facet normal 0.831463 0.55558 0
    outer loop
      vertex -1.74769 75.6157 18.35
      vertex -1.99392 75.9842 -42.6
      vertex -1.99392 75.9842 18.35
    endloop
  endfacet
  facet normal 0.831463 0.55558 0
    outer loop
      vertex -1.99392 75.9842 -42.6
      vertex -1.74769 75.6157 18.35
      vertex -1.74769 75.6157 -42.6
    endloop
  endfacet
  facet normal 0.980784 0.195096 0
    outer loop
      vertex -2.16353 76.3937 18.35
      vertex -2.25 76.8284 -42.6
      vertex -2.25 76.8284 18.35
    endloop
  endfacet
  facet normal 0.980784 0.195096 0
    outer loop
      vertex -2.25 76.8284 -42.6
      vertex -2.16353 76.3937 18.35
      vertex -2.16353 76.3937 -42.6
    endloop
  endfacet
  facet normal -0.382669 0.923886 0
    outer loop
      vertex 1.06577 75.0561 -42.6
      vertex 0.656301 74.8865 18.35
      vertex 1.06577 75.0561 18.35
    endloop
  endfacet
  facet normal -0.382669 0.923886 0
    outer loop
      vertex 0.656301 74.8865 18.35
      vertex 1.06577 75.0561 -42.6
      vertex 0.656301 74.8865 -42.6
    endloop
  endfacet
  facet normal -0.707107 0.707107 0
    outer loop
      vertex 1.74769 75.6157 -42.6
      vertex 1.43429 75.3023 18.35
      vertex 1.74769 75.6157 18.35
    endloop
  endfacet
  facet normal -0.707107 0.707107 0
    outer loop
      vertex 1.43429 75.3023 18.35
      vertex 1.74769 75.6157 -42.6
      vertex 1.43429 75.3023 -42.6
    endloop
  endfacet
  facet normal -0.923888 0.382663 0
    outer loop
      vertex 1.99392 75.9842 -42.6
      vertex 2.16353 76.3937 18.35
      vertex 2.16353 76.3937 -42.6
    endloop
  endfacet
  facet normal -0.923888 0.382663 0
    outer loop
      vertex 2.16353 76.3937 18.35
      vertex 1.99392 75.9842 -42.6
      vertex 1.99392 75.9842 18.35
    endloop
  endfacet
  facet normal -0.831463 0.55558 0
    outer loop
      vertex 1.74769 75.6157 -42.6
      vertex 1.99392 75.9842 18.35
      vertex 1.99392 75.9842 -42.6
    endloop
  endfacet
  facet normal -0.831463 0.55558 0
    outer loop
      vertex 1.99392 75.9842 18.35
      vertex 1.74769 75.6157 -42.6
      vertex 1.74769 75.6157 18.35
    endloop
  endfacet
  facet normal -0.980784 0.195096 0
    outer loop
      vertex 2.16353 76.3937 -42.6
      vertex 2.25 76.8284 18.35
      vertex 2.25 76.8284 -42.6
    endloop
  endfacet
  facet normal -0.980784 0.195096 0
    outer loop
      vertex 2.25 76.8284 18.35
      vertex 2.16353 76.3937 -42.6
      vertex 2.16353 76.3937 18.35
    endloop
  endfacet
  facet normal 0.382669 0.923886 -0
    outer loop
      vertex -0.656301 74.8865 -42.6
      vertex -1.06577 75.0561 18.35
      vertex -0.656301 74.8865 18.35
    endloop
  endfacet
  facet normal 0.382669 0.923886 0
    outer loop
      vertex -1.06577 75.0561 18.35
      vertex -0.656301 74.8865 -42.6
      vertex -1.06577 75.0561 -42.6
    endloop
  endfacet
  facet normal 0 1 -0
    outer loop
      vertex 0.221605 74.8 -42.6
      vertex -0.221605 74.8 18.35
      vertex 0.221605 74.8 18.35
    endloop
  endfacet
  facet normal 0 1 0
    outer loop
      vertex -0.221605 74.8 18.35
      vertex 0.221605 74.8 -42.6
      vertex -0.221605 74.8 -42.6
    endloop
  endfacet
  facet normal 0.707107 0.707107 -0
    outer loop
      vertex -1.43429 75.3023 -42.6
      vertex -1.74769 75.6157 18.35
      vertex -1.43429 75.3023 18.35
    endloop
  endfacet
  facet normal 0.707107 0.707107 0
    outer loop
      vertex -1.74769 75.6157 18.35
      vertex -1.43429 75.3023 -42.6
      vertex -1.74769 75.6157 -42.6
    endloop
  endfacet
  facet normal 0.923888 0.382663 0
    outer loop
      vertex -1.99392 75.9842 18.35
      vertex -2.16353 76.3937 -42.6
      vertex -2.16353 76.3937 18.35
    endloop
  endfacet
  facet normal 0.923888 0.382663 0
    outer loop
      vertex -2.16353 76.3937 -42.6
      vertex -1.99392 75.9842 18.35
      vertex -1.99392 75.9842 -42.6
    endloop
  endfacet
  facet normal -1 0 0
    outer loop
      vertex 2.25 76.8284 -42.6
      vertex 2.25 77.2716 18.35
      vertex 2.25 77.2716 -42.6
    endloop
  endfacet
  facet normal -1 -0 0
    outer loop
      vertex 2.25 77.2716 18.35
      vertex 2.25 76.8284 -42.6
      vertex 2.25 76.8284 18.35
    endloop
  endfacet
endsolid OpenSCAD_Model
