solid OpenSCAD_Model
  facet normal 0.866025 0 -0.5
    outer loop
      vertex -6.27376 0.5 1.6
      vertex -7.19752 4.09999 0
      vertex -6.27376 4.09999 1.6
    endloop
  endfacet
  facet normal 0.866025 0 -0.5
    outer loop
      vertex -7.19752 4.09999 0
      vertex -6.27376 0.5 1.6
      vertex -7.19752 0.5 0
    endloop
  endfacet
  facet normal 0.866025 0 -0.5
    outer loop
      vertex -6.27376 -4.09999 1.6
      vertex -7.19752 -0.5 0
      vertex -6.27376 -0.5 1.6
    endloop
  endfacet
  facet normal 0.866025 0 -0.5
    outer loop
      vertex -7.19752 -0.5 0
      vertex -6.27376 -4.09999 1.6
      vertex -7.19752 -4.09999 0
    endloop
  endfacet
  facet normal 0.866025 -0 0.5
    outer loop
      vertex -7.19752 0.5 0
      vertex -6.27376 4.09999 -1.6
      vertex -7.19752 4.09999 0
    endloop
  endfacet
  facet normal 0.866025 0 0.5
    outer loop
      vertex -6.27376 4.09999 -1.6
      vertex -7.19752 0.5 0
      vertex -6.27376 0.5 -1.6
    endloop
  endfacet
  facet normal 0.866025 -0 0.5
    outer loop
      vertex -7.19752 -4.09999 0
      vertex -6.27376 -0.5 -1.6
      vertex -7.19752 -0.5 0
    endloop
  endfacet
  facet normal 0.866025 0 0.5
    outer loop
      vertex -6.27376 -0.5 -1.6
      vertex -7.19752 -4.09999 0
      vertex -6.27376 -4.09999 -1.6
    endloop
  endfacet
  facet normal -0.866025 0 0.5
    outer loop
      vertex -4.42624 0.5 -1.6
      vertex -3.50248 4.09999 0
      vertex -4.42624 4.09999 -1.6
    endloop
  endfacet
  facet normal -0.866025 0 0.5
    outer loop
      vertex -3.50248 4.09999 0
      vertex -4.42624 0.5 -1.6
      vertex -3.50248 0.5 0
    endloop
  endfacet
  facet normal -0.866025 0 0.5
    outer loop
      vertex -4.42624 -4.09999 -1.6
      vertex -3.50248 -0.5 0
      vertex -4.42624 -0.5 -1.6
    endloop
  endfacet
  facet normal -0.866025 0 0.5
    outer loop
      vertex -3.50248 -0.5 0
      vertex -4.42624 -4.09999 -1.6
      vertex -3.50248 -4.09999 0
    endloop
  endfacet
  facet normal -0 0 1
    outer loop
      vertex -6.27376 4.09999 -1.6
      vertex -4.42624 0.5 -1.6
      vertex -4.42624 4.09999 -1.6
    endloop
  endfacet
  facet normal 0 0 1
    outer loop
      vertex -4.42624 0.5 -1.6
      vertex -6.27376 4.09999 -1.6
      vertex -6.27376 0.5 -1.6
    endloop
  endfacet
  facet normal -0 0 1
    outer loop
      vertex -6.27376 -0.5 -1.6
      vertex -4.42624 -4.09999 -1.6
      vertex -4.42624 -0.5 -1.6
    endloop
  endfacet
  facet normal 0 0 1
    outer loop
      vertex -4.42624 -4.09999 -1.6
      vertex -6.27376 -0.5 -1.6
      vertex -6.27376 -4.09999 -1.6
    endloop
  endfacet
  facet normal -0.866025 0 -0.5
    outer loop
      vertex -3.50248 0.5 0
      vertex -4.42624 4.09999 1.6
      vertex -3.50248 4.09999 0
    endloop
  endfacet
  facet normal -0.866025 -0 -0.5
    outer loop
      vertex -4.42624 4.09999 1.6
      vertex -3.50248 0.5 0
      vertex -4.42624 0.5 1.6
    endloop
  endfacet
  facet normal -0.866025 0 -0.5
    outer loop
      vertex -3.50248 -4.09999 0
      vertex -4.42624 -0.5 1.6
      vertex -3.50248 -0.5 0
    endloop
  endfacet
  facet normal -0.866025 -0 -0.5
    outer loop
      vertex -4.42624 -0.5 1.6
      vertex -3.50248 -4.09999 0
      vertex -4.42624 -4.09999 1.6
    endloop
  endfacet
  facet normal 0 0 -1
    outer loop
      vertex -6.27376 0.5 1.6
      vertex -4.42624 4.09999 1.6
      vertex -4.42624 0.5 1.6
    endloop
  endfacet
  facet normal -0 0 -1
    outer loop
      vertex -4.42624 4.09999 1.6
      vertex -6.27376 0.5 1.6
      vertex -6.27376 4.09999 1.6
    endloop
  endfacet
  facet normal 0 0 -1
    outer loop
      vertex -6.27376 -4.09999 1.6
      vertex -4.42624 -0.5 1.6
      vertex -4.42624 -4.09999 1.6
    endloop
  endfacet
  facet normal -0 0 -1
    outer loop
      vertex -4.42624 -0.5 1.6
      vertex -6.27376 -4.09999 1.6
      vertex -6.27376 -0.5 1.6
    endloop
  endfacet
  facet normal -0.83147 -0.555569 0
    outer loop
      vertex 2.25978 1.20788 2.1
      vertex 1.98071 1.62553 3.5
      vertex 1.98071 1.62553 2.1
    endloop
  endfacet
  facet normal -0.83147 -0.555569 0
    outer loop
      vertex 1.98071 1.62553 3.5
      vertex 2.25978 1.20788 2.1
      vertex 2.25978 1.20788 3.5
    endloop
  endfacet
  facet normal -0.707107 -0.707107 0
    outer loop
      vertex 1.98071 1.62553 2.1
      vertex 1.62553 1.98071 3.5
      vertex 1.62553 1.98071 2.1
    endloop
  endfacet
  facet normal -0.707107 -0.707107 0
    outer loop
      vertex 1.62553 1.98071 3.5
      vertex 1.98071 1.62553 2.1
      vertex 1.98071 1.62553 3.5
    endloop
  endfacet
  facet normal -0.19509 -0.980785 0
    outer loop
      vertex 0.251153 2.55 2.1
      vertex 0.743807 2.452 3.5
      vertex 0.251153 2.55 3.5
    endloop
  endfacet
  facet normal -0.19509 -0.980785 -0
    outer loop
      vertex 0.743807 2.452 3.5
      vertex 0.251153 2.55 2.1
      vertex 0.743807 2.452 2.1
    endloop
  endfacet
  facet normal 0.555569 -0.83147 0
    outer loop
      vertex -1.62553 1.98071 2.1
      vertex -1.20788 2.25978 3.5
      vertex -1.62553 1.98071 3.5
    endloop
  endfacet
  facet normal 0.555569 -0.83147 0
    outer loop
      vertex -1.20788 2.25978 3.5
      vertex -1.62553 1.98071 2.1
      vertex -1.20788 2.25978 2.1
    endloop
  endfacet
  facet normal 0.923879 -0.382684 0
    outer loop
      vertex -2.452 0.743807 3.5
      vertex -2.25978 1.20788 2.1
      vertex -2.25978 1.20788 3.5
    endloop
  endfacet
  facet normal 0.923879 -0.382684 0
    outer loop
      vertex -2.25978 1.20788 2.1
      vertex -2.452 0.743807 3.5
      vertex -2.452 0.743807 2.1
    endloop
  endfacet
  facet normal 0.707107 -0.707107 0
    outer loop
      vertex -1.98071 1.62553 3.5
      vertex -1.62553 1.98071 2.1
      vertex -1.62553 1.98071 3.5
    endloop
  endfacet
  facet normal 0.707107 -0.707107 0
    outer loop
      vertex -1.62553 1.98071 2.1
      vertex -1.98071 1.62553 3.5
      vertex -1.98071 1.62553 2.1
    endloop
  endfacet
  facet normal -1 0 0
    outer loop
      vertex 2.55 -0.251153 2.1
      vertex 2.55 0.251153 3.5
      vertex 2.55 0.251153 2.1
    endloop
  endfacet
  facet normal -1 -0 0
    outer loop
      vertex 2.55 0.251153 3.5
      vertex 2.55 -0.251153 2.1
      vertex 2.55 -0.251153 3.5
    endloop
  endfacet
  facet normal -0.382684 0.923879 0
    outer loop
      vertex 1.20788 -2.25978 2.1
      vertex 0.743807 -2.452 3.5
      vertex 1.20788 -2.25978 3.5
    endloop
  endfacet
  facet normal -0.382684 0.923879 0
    outer loop
      vertex 0.743807 -2.452 3.5
      vertex 1.20788 -2.25978 2.1
      vertex 0.743807 -2.452 2.1
    endloop
  endfacet
  facet normal -0.923879 -0.382684 0
    outer loop
      vertex 2.452 0.743807 2.1
      vertex 2.25978 1.20788 3.5
      vertex 2.25978 1.20788 2.1
    endloop
  endfacet
  facet normal -0.923879 -0.382684 0
    outer loop
      vertex 2.25978 1.20788 3.5
      vertex 2.452 0.743807 2.1
      vertex 2.452 0.743807 3.5
    endloop
  endfacet
  facet normal -0.555569 -0.83147 0
    outer loop
      vertex 1.20788 2.25978 2.1
      vertex 1.62553 1.98071 3.5
      vertex 1.20788 2.25978 3.5
    endloop
  endfacet
  facet normal -0.555569 -0.83147 -0
    outer loop
      vertex 1.62553 1.98071 3.5
      vertex 1.20788 2.25978 2.1
      vertex 1.62553 1.98071 2.1
    endloop
  endfacet
  facet normal 0.19509 -0.980785 0
    outer loop
      vertex -0.743807 2.452 2.1
      vertex -0.251153 2.55 3.5
      vertex -0.743807 2.452 3.5
    endloop
  endfacet
  facet normal 0.19509 -0.980785 0
    outer loop
      vertex -0.251153 2.55 3.5
      vertex -0.743807 2.452 2.1
      vertex -0.251153 2.55 2.1
    endloop
  endfacet
  facet normal -0.382684 -0.923879 0
    outer loop
      vertex 0.743807 2.452 2.1
      vertex 1.20788 2.25978 3.5
      vertex 0.743807 2.452 3.5
    endloop
  endfacet
  facet normal -0.382684 -0.923879 -0
    outer loop
      vertex 1.20788 2.25978 3.5
      vertex 0.743807 2.452 2.1
      vertex 1.20788 2.25978 2.1
    endloop
  endfacet
  facet normal 0.83147 -0.555569 0
    outer loop
      vertex -2.25978 1.20788 3.5
      vertex -1.98071 1.62553 2.1
      vertex -1.98071 1.62553 3.5
    endloop
  endfacet
  facet normal 0.83147 -0.555569 0
    outer loop
      vertex -1.98071 1.62553 2.1
      vertex -2.25978 1.20788 3.5
      vertex -2.25978 1.20788 2.1
    endloop
  endfacet
  facet normal 0.382684 -0.923879 0
    outer loop
      vertex -1.20788 2.25978 2.1
      vertex -0.743807 2.452 3.5
      vertex -1.20788 2.25978 3.5
    endloop
  endfacet
  facet normal 0.382684 -0.923879 0
    outer loop
      vertex -0.743807 2.452 3.5
      vertex -1.20788 2.25978 2.1
      vertex -0.743807 2.452 2.1
    endloop
  endfacet
  facet normal -0.980785 -0.19509 0
    outer loop
      vertex 2.55 0.251153 2.1
      vertex 2.452 0.743807 3.5
      vertex 2.452 0.743807 2.1
    endloop
  endfacet
  facet normal -0.980785 -0.19509 0
    outer loop
      vertex 2.452 0.743807 3.5
      vertex 2.55 0.251153 2.1
      vertex 2.55 0.251153 3.5
    endloop
  endfacet
  facet normal -0.707107 0.707107 0
    outer loop
      vertex 1.62553 -1.98071 2.1
      vertex 1.98071 -1.62553 3.5
      vertex 1.98071 -1.62553 2.1
    endloop
  endfacet
  facet normal -0.707107 0.707107 0
    outer loop
      vertex 1.98071 -1.62553 3.5
      vertex 1.62553 -1.98071 2.1
      vertex 1.62553 -1.98071 3.5
    endloop
  endfacet
  facet normal -0.980785 0.19509 0
    outer loop
      vertex 2.452 -0.743807 2.1
      vertex 2.55 -0.251153 3.5
      vertex 2.55 -0.251153 2.1
    endloop
  endfacet
  facet normal -0.980785 0.19509 0
    outer loop
      vertex 2.55 -0.251153 3.5
      vertex 2.452 -0.743807 2.1
      vertex 2.452 -0.743807 3.5
    endloop
  endfacet
  facet normal 0.555569 0.83147 -0
    outer loop
      vertex -1.20788 -2.25978 2.1
      vertex -1.62553 -1.98071 3.5
      vertex -1.20788 -2.25978 3.5
    endloop
  endfacet
  facet normal 0.555569 0.83147 0
    outer loop
      vertex -1.62553 -1.98071 3.5
      vertex -1.20788 -2.25978 2.1
      vertex -1.62553 -1.98071 2.1
    endloop
  endfacet
  facet normal 0.83147 0.555569 0
    outer loop
      vertex -1.98071 -1.62553 3.5
      vertex -2.25978 -1.20788 2.1
      vertex -2.25978 -1.20788 3.5
    endloop
  endfacet
  facet normal 0.83147 0.555569 0
    outer loop
      vertex -2.25978 -1.20788 2.1
      vertex -1.98071 -1.62553 3.5
      vertex -1.98071 -1.62553 2.1
    endloop
  endfacet
  facet normal 0 -1 0
    outer loop
      vertex -0.251153 2.55 2.1
      vertex 0.251153 2.55 3.5
      vertex -0.251153 2.55 3.5
    endloop
  endfacet
  facet normal 0 -1 -0
    outer loop
      vertex 0.251153 2.55 3.5
      vertex -0.251153 2.55 2.1
      vertex 0.251153 2.55 2.1
    endloop
  endfacet
  facet normal 0.980785 -0.19509 0
    outer loop
      vertex -2.5005 0.5 3.5
      vertex -2.452 0.743807 2.1
      vertex -2.452 0.743807 3.5
    endloop
  endfacet
  facet normal 0.980785 -0.19509 0
    outer loop
      vertex -2.452 0.743807 2.1
      vertex -2.5005 0.5 3.5
      vertex -2.5005 0.5 2.1
    endloop
  endfacet
  facet normal 0.980785 0.19509 0
    outer loop
      vertex -2.452 -0.743807 3.5
      vertex -2.5005 -0.5 2.1
      vertex -2.5005 -0.5 3.5
    endloop
  endfacet
  facet normal 0.980785 0.19509 0
    outer loop
      vertex -2.5005 -0.5 2.1
      vertex -2.452 -0.743807 3.5
      vertex -2.452 -0.743807 2.1
    endloop
  endfacet
  facet normal 0.707107 0.707107 0
    outer loop
      vertex -1.62553 -1.98071 3.5
      vertex -1.98071 -1.62553 2.1
      vertex -1.98071 -1.62553 3.5
    endloop
  endfacet
  facet normal 0.707107 0.707107 0
    outer loop
      vertex -1.98071 -1.62553 2.1
      vertex -1.62553 -1.98071 3.5
      vertex -1.62553 -1.98071 2.1
    endloop
  endfacet
  facet normal -0.555569 0.83147 0
    outer loop
      vertex 1.62553 -1.98071 2.1
      vertex 1.20788 -2.25978 3.5
      vertex 1.62553 -1.98071 3.5
    endloop
  endfacet
  facet normal -0.555569 0.83147 0
    outer loop
      vertex 1.20788 -2.25978 3.5
      vertex 1.62553 -1.98071 2.1
      vertex 1.20788 -2.25978 2.1
    endloop
  endfacet
  facet normal -0.83147 0.555569 0
    outer loop
      vertex 1.98071 -1.62553 2.1
      vertex 2.25978 -1.20788 3.5
      vertex 2.25978 -1.20788 2.1
    endloop
  endfacet
  facet normal -0.83147 0.555569 0
    outer loop
      vertex 2.25978 -1.20788 3.5
      vertex 1.98071 -1.62553 2.1
      vertex 1.98071 -1.62553 3.5
    endloop
  endfacet
  facet normal -0.923879 0.382684 0
    outer loop
      vertex 2.25978 -1.20788 2.1
      vertex 2.452 -0.743807 3.5
      vertex 2.452 -0.743807 2.1
    endloop
  endfacet
  facet normal -0.923879 0.382684 0
    outer loop
      vertex 2.452 -0.743807 3.5
      vertex 2.25978 -1.20788 2.1
      vertex 2.25978 -1.20788 3.5
    endloop
  endfacet
  facet normal 0.19509 0.980785 -0
    outer loop
      vertex -0.251153 -2.55 2.1
      vertex -0.743807 -2.452 3.5
      vertex -0.251153 -2.55 3.5
    endloop
  endfacet
  facet normal 0.19509 0.980785 0
    outer loop
      vertex -0.743807 -2.452 3.5
      vertex -0.251153 -2.55 2.1
      vertex -0.743807 -2.452 2.1
    endloop
  endfacet
  facet normal 0 1 -0
    outer loop
      vertex 0.251153 -2.55 2.1
      vertex -0.251153 -2.55 3.5
      vertex 0.251153 -2.55 3.5
    endloop
  endfacet
  facet normal 0 1 0
    outer loop
      vertex -0.251153 -2.55 3.5
      vertex 0.251153 -2.55 2.1
      vertex -0.251153 -2.55 2.1
    endloop
  endfacet
  facet normal 0 0 1
    outer loop
      vertex 2.55 0.251153 2.1
      vertex 2.54999 0.251144 2.1
      vertex 2.55 -0.251153 2.1
    endloop
  endfacet
  facet normal -0 0 1
    outer loop
      vertex 2.452 0.743805 2.1
      vertex 2.55 0.251153 2.1
      vertex 2.452 0.743807 2.1
    endloop
  endfacet
  facet normal 0 0 1
    outer loop
      vertex 2.55 0.251153 2.1
      vertex 2.452 0.743805 2.1
      vertex 2.54999 0.251144 2.1
    endloop
  endfacet
  facet normal 0 0 1
    outer loop
      vertex 2.25978 1.20788 2.1
      vertex 2.452 0.743805 2.1
      vertex 2.452 0.743807 2.1
    endloop
  endfacet
  facet normal 0 0 1
    outer loop
      vertex 2.25978 1.20788 2.1
      vertex 2.25977 1.20787 2.1
      vertex 2.452 0.743805 2.1
    endloop
  endfacet
  facet normal 0 0 1
    outer loop
      vertex 2.25978 1.20788 2.1
      vertex 2.03117 1.54999 2.1
      vertex 2.25977 1.20787 2.1
    endloop
  endfacet
  facet normal 0 0 1
    outer loop
      vertex 1.98071 1.62553 2.1
      vertex 2.03117 1.54999 2.1
      vertex 2.25978 1.20788 2.1
    endloop
  endfacet
  facet normal 0 0 1
    outer loop
      vertex 1.62553 1.98071 2.1
      vertex 2.03117 1.54999 2.1
      vertex 1.98071 1.62553 2.1
    endloop
  endfacet
  facet normal 0 0 1
    outer loop
      vertex 1.20788 2.25978 2.1
      vertex 2.03117 1.54999 2.1
      vertex 1.62553 1.98071 2.1
    endloop
  endfacet
  facet normal 0 0 1
    outer loop
      vertex 0.743807 2.452 2.1
      vertex 2.03117 1.54999 2.1
      vertex 1.20788 2.25978 2.1
    endloop
  endfacet
  facet normal 0 0 1
    outer loop
      vertex 0.251153 2.55 2.1
      vertex 2.03117 1.54999 2.1
      vertex 0.743807 2.452 2.1
    endloop
  endfacet
  facet normal -0 0 1
    outer loop
      vertex -0.251153 2.55 2.1
      vertex 2.03117 1.54999 2.1
      vertex 0.251153 2.55 2.1
    endloop
  endfacet
  facet normal -0 0 1
    outer loop
      vertex -0.743807 2.452 2.1
      vertex 2.03117 1.54999 2.1
      vertex -0.251153 2.55 2.1
    endloop
  endfacet
  facet normal -0 0 1
    outer loop
      vertex -1.20788 2.25978 2.1
      vertex 2.03117 1.54999 2.1
      vertex -0.743807 2.452 2.1
    endloop
  endfacet
  facet normal 0 0 1
    outer loop
      vertex -2.03117 1.54999 2.1
      vertex -1.20788 2.25978 2.1
      vertex -1.62553 1.98071 2.1
    endloop
  endfacet
  facet normal 0 0 1
    outer loop
      vertex -2.03117 1.54999 2.1
      vertex -1.62553 1.98071 2.1
      vertex -1.98071 1.62553 2.1
    endloop
  endfacet
  facet normal 0 0 1
    outer loop
      vertex -1.20788 2.25978 2.1
      vertex -2.03117 1.54999 2.1
      vertex 2.03117 1.54999 2.1
    endloop
  endfacet
  facet normal 0 0 1
    outer loop
      vertex -2.25978 1.20788 2.1
      vertex -2.03117 1.54999 2.1
      vertex -1.98071 1.62553 2.1
    endloop
  endfacet
  facet normal 0 0 1
    outer loop
      vertex -2.03117 1.54999 2.1
      vertex -2.25978 1.20788 2.1
      vertex -2.25977 1.20787 2.1
    endloop
  endfacet
  facet normal 0 0 1
    outer loop
      vertex -2.25978 1.20788 2.1
      vertex -2.452 0.743805 2.1
      vertex -2.25977 1.20787 2.1
    endloop
  endfacet
  facet normal -0 0 1
    outer loop
      vertex -2.452 0.743807 2.1
      vertex -2.452 0.743805 2.1
      vertex -2.25978 1.20788 2.1
    endloop
  endfacet
  facet normal 0 0 1
    outer loop
      vertex -2.452 0.743807 2.1
      vertex -2.50049 0.5 2.1
      vertex -2.452 0.743805 2.1
    endloop
  endfacet
  facet normal 0 -0 1
    outer loop
      vertex -2.50049 0.5 2.1
      vertex -2.452 0.743807 2.1
      vertex -2.5005 0.5 2.1
    endloop
  endfacet
  facet normal -0 0 1
    outer loop
      vertex 2.54999 -0.251144 2.1
      vertex 2.55 -0.251153 2.1
      vertex 2.54999 0.251144 2.1
    endloop
  endfacet
  facet normal 0 0 1
    outer loop
      vertex 2.452 -0.743805 2.1
      vertex 2.55 -0.251153 2.1
      vertex 2.54999 -0.251144 2.1
    endloop
  endfacet
  facet normal 0 0 1
    outer loop
      vertex 2.55 -0.251153 2.1
      vertex 2.452 -0.743805 2.1
      vertex 2.452 -0.743807 2.1
    endloop
  endfacet
  facet normal 0 0 1
    outer loop
      vertex 2.452 -0.743805 2.1
      vertex 2.25978 -1.20788 2.1
      vertex 2.452 -0.743807 2.1
    endloop
  endfacet
  facet normal -0 0 1
    outer loop
      vertex 2.25977 -1.20787 2.1
      vertex 2.25978 -1.20788 2.1
      vertex 2.452 -0.743805 2.1
    endloop
  endfacet
  facet normal 0 0 1
    outer loop
      vertex 2.03117 -1.54999 2.1
      vertex 2.25978 -1.20788 2.1
      vertex 2.25977 -1.20787 2.1
    endloop
  endfacet
  facet normal -0 0 1
    outer loop
      vertex 2.03117 -1.54999 2.1
      vertex 1.98071 -1.62553 2.1
      vertex 2.25978 -1.20788 2.1
    endloop
  endfacet
  facet normal 0 0 1
    outer loop
      vertex 2.03117 -1.54999 2.1
      vertex 1.62553 -1.98071 2.1
      vertex 1.98071 -1.62553 2.1
    endloop
  endfacet
  facet normal 0 0 1
    outer loop
      vertex 2.03117 -1.54999 2.1
      vertex 1.20788 -2.25978 2.1
      vertex 1.62553 -1.98071 2.1
    endloop
  endfacet
  facet normal 0 0 1
    outer loop
      vertex 2.03117 -1.54999 2.1
      vertex 0.743807 -2.452 2.1
      vertex 1.20788 -2.25978 2.1
    endloop
  endfacet
  facet normal 0 0 1
    outer loop
      vertex 2.03117 -1.54999 2.1
      vertex 0.251153 -2.55 2.1
      vertex 0.743807 -2.452 2.1
    endloop
  endfacet
  facet normal 0 0 1
    outer loop
      vertex 2.03117 -1.54999 2.1
      vertex -0.251153 -2.55 2.1
      vertex 0.251153 -2.55 2.1
    endloop
  endfacet
  facet normal 0 0 1
    outer loop
      vertex 2.03117 -1.54999 2.1
      vertex -0.743807 -2.452 2.1
      vertex -0.251153 -2.55 2.1
    endloop
  endfacet
  facet normal 0 0 1
    outer loop
      vertex 2.03117 -1.54999 2.1
      vertex -1.20788 -2.25978 2.1
      vertex -0.743807 -2.452 2.1
    endloop
  endfacet
  facet normal -0 0 1
    outer loop
      vertex -2.03117 -1.54999 2.1
      vertex -1.20788 -2.25978 2.1
      vertex 2.03117 -1.54999 2.1
    endloop
  endfacet
  facet normal 0 0 1
    outer loop
      vertex -1.20788 -2.25978 2.1
      vertex -2.03117 -1.54999 2.1
      vertex -1.62553 -1.98071 2.1
    endloop
  endfacet
  facet normal 0 0 1
    outer loop
      vertex -1.62553 -1.98071 2.1
      vertex -2.03117 -1.54999 2.1
      vertex -1.98071 -1.62553 2.1
    endloop
  endfacet
  facet normal -0 0 1
    outer loop
      vertex -2.25978 -1.20788 2.1
      vertex -2.03117 -1.54999 2.1
      vertex -2.25977 -1.20787 2.1
    endloop
  endfacet
  facet normal 0 0 1
    outer loop
      vertex -2.03117 -1.54999 2.1
      vertex -2.25978 -1.20788 2.1
      vertex -1.98071 -1.62553 2.1
    endloop
  endfacet
  facet normal 0 0 1
    outer loop
      vertex -2.452 -0.743805 2.1
      vertex -2.25978 -1.20788 2.1
      vertex -2.25977 -1.20787 2.1
    endloop
  endfacet
  facet normal 0 0 1
    outer loop
      vertex -2.452 -0.743805 2.1
      vertex -2.452 -0.743807 2.1
      vertex -2.25978 -1.20788 2.1
    endloop
  endfacet
  facet normal 0 0 1
    outer loop
      vertex -2.50049 -0.5 2.1
      vertex -2.452 -0.743807 2.1
      vertex -2.452 -0.743805 2.1
    endloop
  endfacet
  facet normal 0 0 1
    outer loop
      vertex -2.452 -0.743807 2.1
      vertex -2.50049 -0.5 2.1
      vertex -2.5005 -0.5 2.1
    endloop
  endfacet
  facet normal 0.923879 0.382684 0
    outer loop
      vertex -2.25978 -1.20788 3.5
      vertex -2.452 -0.743807 2.1
      vertex -2.452 -0.743807 3.5
    endloop
  endfacet
  facet normal 0.923879 0.382684 0
    outer loop
      vertex -2.452 -0.743807 2.1
      vertex -2.25978 -1.20788 3.5
      vertex -2.25978 -1.20788 2.1
    endloop
  endfacet
  facet normal -0.19509 0.980785 0
    outer loop
      vertex 0.743807 -2.452 2.1
      vertex 0.251153 -2.55 3.5
      vertex 0.743807 -2.452 3.5
    endloop
  endfacet
  facet normal -0.19509 0.980785 0
    outer loop
      vertex 0.251153 -2.55 3.5
      vertex 0.743807 -2.452 2.1
      vertex 0.251153 -2.55 2.1
    endloop
  endfacet
  facet normal 0.382684 0.923879 -0
    outer loop
      vertex -0.743807 -2.452 2.1
      vertex -1.20788 -2.25978 3.5
      vertex -0.743807 -2.452 3.5
    endloop
  endfacet
  facet normal 0.382684 0.923879 0
    outer loop
      vertex -1.20788 -2.25978 3.5
      vertex -0.743807 -2.452 2.1
      vertex -1.20788 -2.25978 2.1
    endloop
  endfacet
  facet normal 0 0 -1
    outer loop
      vertex 13.4 -0.258881 -3.5
      vertex 15 -0.219131 -3.5
      vertex 14.9145 -0.649002 -3.5
    endloop
  endfacet
  facet normal -0 0 -1
    outer loop
      vertex 15 -0.219131 -3.5
      vertex 13.4 -0.258881 -3.5
      vertex 15 0.219131 -3.5
    endloop
  endfacet
  facet normal 0 0 -1
    outer loop
      vertex 13.4 -0.258881 -3.5
      vertex 14.9145 -0.649002 -3.5
      vertex 14.7468 -1.05392 -3.5
    endloop
  endfacet
  facet normal 0 0 -1
    outer loop
      vertex 13.4 0.258881 -3.5
      vertex 15 0.219131 -3.5
      vertex 13.4 -0.258881 -3.5
    endloop
  endfacet
  facet normal 0 0 -1
    outer loop
      vertex 13.4 -0.258881 -3.5
      vertex 14.7468 -1.05392 -3.5
      vertex 14.5033 -1.41835 -3.5
    endloop
  endfacet
  facet normal 0 0 -1
    outer loop
      vertex 15 0.219131 -3.5
      vertex 13.4 0.258881 -3.5
      vertex 14.9145 0.649002 -3.5
    endloop
  endfacet
  facet normal 0 0 -1
    outer loop
      vertex 13.4 -0.258881 -3.5
      vertex 14.5033 -1.41835 -3.5
      vertex 14.1933 -1.72826 -3.5
    endloop
  endfacet
  facet normal -0 0 -1
    outer loop
      vertex 14.9145 0.649002 -3.5
      vertex 13.4 0.258881 -3.5
      vertex 14.7468 1.05392 -3.5
    endloop
  endfacet
  facet normal 0 0 -1
    outer loop
      vertex 13.0339 -0.625 -3.5
      vertex 14.1933 -1.72826 -3.5
      vertex 13.8289 -1.97176 -3.5
    endloop
  endfacet
  facet normal -0 0 -1
    outer loop
      vertex 14.7468 1.05392 -3.5
      vertex 13.4 0.258881 -3.5
      vertex 14.5033 1.41835 -3.5
    endloop
  endfacet
  facet normal 0 0 -1
    outer loop
      vertex 13.0339 -0.625 -3.5
      vertex 13.8289 -1.97176 -3.5
      vertex 13.424 -2.13948 -3.5
    endloop
  endfacet
  facet normal -0 0 -1
    outer loop
      vertex 14.5033 1.41835 -3.5
      vertex 13.4 0.258881 -3.5
      vertex 14.1933 1.72826 -3.5
    endloop
  endfacet
  facet normal 0 0 -1
    outer loop
      vertex 13.0339 0.625 -3.5
      vertex 14.1933 1.72826 -3.5
      vertex 13.4 0.258881 -3.5
    endloop
  endfacet
  facet normal 0 0 -1
    outer loop
      vertex 14.1933 -1.72826 -3.5
      vertex 13.0339 -0.625 -3.5
      vertex 13.4 -0.258881 -3.5
    endloop
  endfacet
  facet normal 0 0 -1
    outer loop
      vertex 12.9941 -2.22499 -3.5
      vertex 13.0339 -0.625 -3.5
      vertex 13.424 -2.13948 -3.5
    endloop
  endfacet
  facet normal 0 0 -1
    outer loop
      vertex 12.9941 -2.22499 -3.5
      vertex 12.5161 -0.625 -3.5
      vertex 13.0339 -0.625 -3.5
    endloop
  endfacet
  facet normal 0 0 -1
    outer loop
      vertex 12.9941 -2.22499 -3.5
      vertex 12.15 -0.258881 -3.5
      vertex 12.5161 -0.625 -3.5
    endloop
  endfacet
  facet normal 0 0 -1
    outer loop
      vertex 12.15 -0.258881 -3.5
      vertex 2.54999 -0.251144 -3.5
      vertex 12.15 0.258881 -3.5
    endloop
  endfacet
  facet normal 0 0 -1
    outer loop
      vertex 2.25977 -1.20787 -3.5
      vertex 12.15 -0.258881 -3.5
      vertex 12.9941 -2.22499 -3.5
    endloop
  endfacet
  facet normal -0 0 -1
    outer loop
      vertex 12.15 -0.258881 -3.5
      vertex 2.452 -0.743805 -3.5
      vertex 2.54999 -0.251144 -3.5
    endloop
  endfacet
  facet normal 0 0 -1
    outer loop
      vertex 12.15 -0.258881 -3.5
      vertex 2.25977 -1.20787 -3.5
      vertex 2.452 -0.743805 -3.5
    endloop
  endfacet
  facet normal 0 0 -1
    outer loop
      vertex 12.9941 -2.22499 -3.5
      vertex 2.03117 -1.54999 -3.5
      vertex 2.25977 -1.20787 -3.5
    endloop
  endfacet
  facet normal 0 0 -1
    outer loop
      vertex 0.815536 -4.09999 -3.5
      vertex 2.03117 -1.54999 -3.5
      vertex 12.9941 -2.22499 -3.5
    endloop
  endfacet
  facet normal 0 0 -1
    outer loop
      vertex 0.815536 -4.09999 -3.5
      vertex -2.03117 -1.54999 -3.5
      vertex 2.03117 -1.54999 -3.5
    endloop
  endfacet
  facet normal 0 0 -1
    outer loop
      vertex -10.6 -4.09999 -3.5
      vertex -2.03117 -1.54999 -3.5
      vertex 0.815536 -4.09999 -3.5
    endloop
  endfacet
  facet normal 0 0 -1
    outer loop
      vertex -10.6 -4.09999 -3.5
      vertex -2.25977 -1.20787 -3.5
      vertex -2.03117 -1.54999 -3.5
    endloop
  endfacet
  facet normal 0 0 -1
    outer loop
      vertex -10.6 -4.09999 -3.5
      vertex -2.452 -0.743805 -3.5
      vertex -2.25977 -1.20787 -3.5
    endloop
  endfacet
  facet normal 0 0 -1
    outer loop
      vertex -10.6 -0.5 -3.5
      vertex -2.452 -0.743805 -3.5
      vertex -10.6 -4.09999 -3.5
    endloop
  endfacet
  facet normal 0 0 -1
    outer loop
      vertex -2.452 -0.743805 -3.5
      vertex -10.6 -0.5 -3.5
      vertex -2.50049 -0.5 -3.5
    endloop
  endfacet
  facet normal -0 0 -1
    outer loop
      vertex 14.1933 1.72826 -3.5
      vertex 13.0339 0.625 -3.5
      vertex 13.8289 1.97176 -3.5
    endloop
  endfacet
  facet normal -0 0 -1
    outer loop
      vertex 13.8289 1.97176 -3.5
      vertex 13.0339 0.625 -3.5
      vertex 13.424 2.13948 -3.5
    endloop
  endfacet
  facet normal 0 0 -1
    outer loop
      vertex 13.0339 0.625 -3.5
      vertex 12.9941 2.22499 -3.5
      vertex 13.424 2.13948 -3.5
    endloop
  endfacet
  facet normal 0 0 -1
    outer loop
      vertex 12.5161 0.625 -3.5
      vertex 12.9941 2.22499 -3.5
      vertex 13.0339 0.625 -3.5
    endloop
  endfacet
  facet normal 0 0 -1
    outer loop
      vertex 12.15 0.258881 -3.5
      vertex 12.9941 2.22499 -3.5
      vertex 12.5161 0.625 -3.5
    endloop
  endfacet
  facet normal 0 0 -1
    outer loop
      vertex 2.54999 0.251144 -3.5
      vertex 12.15 0.258881 -3.5
      vertex 2.54999 -0.251144 -3.5
    endloop
  endfacet
  facet normal 0 0 -1
    outer loop
      vertex 2.452 0.743805 -3.5
      vertex 12.15 0.258881 -3.5
      vertex 2.54999 0.251144 -3.5
    endloop
  endfacet
  facet normal 0 0 -1
    outer loop
      vertex 2.25977 1.20787 -3.5
      vertex 12.15 0.258881 -3.5
      vertex 2.452 0.743805 -3.5
    endloop
  endfacet
  facet normal 0 0 -1
    outer loop
      vertex 12.15 0.258881 -3.5
      vertex 2.25977 1.20787 -3.5
      vertex 12.9941 2.22499 -3.5
    endloop
  endfacet
  facet normal 0 0 -1
    outer loop
      vertex 2.03117 1.54999 -3.5
      vertex 12.9941 2.22499 -3.5
      vertex 2.25977 1.20787 -3.5
    endloop
  endfacet
  facet normal 0 0 -1
    outer loop
      vertex 2.03117 1.54999 -3.5
      vertex 0.815536 4.09999 -3.5
      vertex 12.9941 2.22499 -3.5
    endloop
  endfacet
  facet normal 0 0 -1
    outer loop
      vertex -2.03117 1.54999 -3.5
      vertex 0.815536 4.09999 -3.5
      vertex 2.03117 1.54999 -3.5
    endloop
  endfacet
  facet normal 0 0 -1
    outer loop
      vertex -10.6 0.5 -3.5
      vertex -2.452 0.743805 -3.5
      vertex -2.50049 0.5 -3.5
    endloop
  endfacet
  facet normal 0 0 -1
    outer loop
      vertex -10.6 4.09999 -3.5
      vertex -2.452 0.743805 -3.5
      vertex -10.6 0.5 -3.5
    endloop
  endfacet
  facet normal 0 0 -1
    outer loop
      vertex -2.452 0.743805 -3.5
      vertex -10.6 4.09999 -3.5
      vertex -2.25977 1.20787 -3.5
    endloop
  endfacet
  facet normal 0 0 -1
    outer loop
      vertex -2.25977 1.20787 -3.5
      vertex -10.6 4.09999 -3.5
      vertex -2.03117 1.54999 -3.5
    endloop
  endfacet
  facet normal 0 0 -1
    outer loop
      vertex -2.03117 1.54999 -3.5
      vertex -10.6 4.09999 -3.5
      vertex 0.815536 4.09999 -3.5
    endloop
  endfacet
  facet normal -0 0 1
    outer loop
      vertex 13.4 0.258881 3.5
      vertex 15 0.219131 3.5
      vertex 14.9145 0.649002 3.5
    endloop
  endfacet
  facet normal 0 0 1
    outer loop
      vertex 15 0.219131 3.5
      vertex 13.4 0.258881 3.5
      vertex 15 -0.219131 3.5
    endloop
  endfacet
  facet normal 0 0 1
    outer loop
      vertex 13.4 0.258881 3.5
      vertex 14.9145 0.649002 3.5
      vertex 14.7468 1.05392 3.5
    endloop
  endfacet
  facet normal 0 0 1
    outer loop
      vertex 13.4 -0.258881 3.5
      vertex 15 -0.219131 3.5
      vertex 13.4 0.258881 3.5
    endloop
  endfacet
  facet normal 0 0 1
    outer loop
      vertex 13.4 0.258881 3.5
      vertex 14.7468 1.05392 3.5
      vertex 14.5033 1.41835 3.5
    endloop
  endfacet
  facet normal 0 0 1
    outer loop
      vertex 15 -0.219131 3.5
      vertex 13.4 -0.258881 3.5
      vertex 14.9145 -0.649002 3.5
    endloop
  endfacet
  facet normal 0 0 1
    outer loop
      vertex 13.4 0.258881 3.5
      vertex 14.5033 1.41835 3.5
      vertex 14.1933 1.72826 3.5
    endloop
  endfacet
  facet normal 0 0 1
    outer loop
      vertex 14.9145 -0.649002 3.5
      vertex 13.4 -0.258881 3.5
      vertex 14.7468 -1.05392 3.5
    endloop
  endfacet
  facet normal 0 0 1
    outer loop
      vertex 13.0339 0.625 3.5
      vertex 14.1933 1.72826 3.5
      vertex 13.8289 1.97176 3.5
    endloop
  endfacet
  facet normal 0 0 1
    outer loop
      vertex 14.7468 -1.05392 3.5
      vertex 13.4 -0.258881 3.5
      vertex 14.5033 -1.41835 3.5
    endloop
  endfacet
  facet normal 0 0 1
    outer loop
      vertex 13.0339 0.625 3.5
      vertex 13.8289 1.97176 3.5
      vertex 13.424 2.13948 3.5
    endloop
  endfacet
  facet normal 0 0 1
    outer loop
      vertex 14.5033 -1.41835 3.5
      vertex 13.4 -0.258881 3.5
      vertex 14.1933 -1.72826 3.5
    endloop
  endfacet
  facet normal -0 0 1
    outer loop
      vertex 13.0339 -0.625 3.5
      vertex 14.1933 -1.72826 3.5
      vertex 13.4 -0.258881 3.5
    endloop
  endfacet
  facet normal 0 0 1
    outer loop
      vertex 14.1933 1.72826 3.5
      vertex 13.0339 0.625 3.5
      vertex 13.4 0.258881 3.5
    endloop
  endfacet
  facet normal 0 0 1
    outer loop
      vertex 12.9941 2.22499 3.5
      vertex 13.0339 0.625 3.5
      vertex 13.424 2.13948 3.5
    endloop
  endfacet
  facet normal 0 0 1
    outer loop
      vertex 12.9941 2.22499 3.5
      vertex 12.5161 0.625 3.5
      vertex 13.0339 0.625 3.5
    endloop
  endfacet
  facet normal 0 0 1
    outer loop
      vertex 12.9941 2.22499 3.5
      vertex 12.15 0.258881 3.5
      vertex 12.5161 0.625 3.5
    endloop
  endfacet
  facet normal 0 0 1
    outer loop
      vertex 12.15 0.258881 3.5
      vertex 2.55 0.251153 3.5
      vertex 12.15 -0.258881 3.5
    endloop
  endfacet
  facet normal -0 0 1
    outer loop
      vertex 2.25978 1.20788 3.5
      vertex 12.15 0.258881 3.5
      vertex 12.9941 2.22499 3.5
    endloop
  endfacet
  facet normal 0 0 1
    outer loop
      vertex 12.15 0.258881 3.5
      vertex 2.452 0.743807 3.5
      vertex 2.55 0.251153 3.5
    endloop
  endfacet
  facet normal 0 0 1
    outer loop
      vertex 12.15 0.258881 3.5
      vertex 2.25978 1.20788 3.5
      vertex 2.452 0.743807 3.5
    endloop
  endfacet
  facet normal 0 0 1
    outer loop
      vertex 12.9941 2.22499 3.5
      vertex 1.98071 1.62553 3.5
      vertex 2.25978 1.20788 3.5
    endloop
  endfacet
  facet normal 0 0 1
    outer loop
      vertex 0.815536 4.09999 3.5
      vertex 1.98071 1.62553 3.5
      vertex 12.9941 2.22499 3.5
    endloop
  endfacet
  facet normal 0 0 1
    outer loop
      vertex 1.98071 1.62553 3.5
      vertex 0.815536 4.09999 3.5
      vertex 1.62553 1.98071 3.5
    endloop
  endfacet
  facet normal 0 0 1
    outer loop
      vertex 1.62553 1.98071 3.5
      vertex 0.815536 4.09999 3.5
      vertex 1.20788 2.25978 3.5
    endloop
  endfacet
  facet normal 0 0 1
    outer loop
      vertex 0.815536 4.09999 3.5
      vertex 0.743807 2.452 3.5
      vertex 1.20788 2.25978 3.5
    endloop
  endfacet
  facet normal 0 0 1
    outer loop
      vertex 0.815536 4.09999 3.5
      vertex 0.251153 2.55 3.5
      vertex 0.743807 2.452 3.5
    endloop
  endfacet
  facet normal 0 0 1
    outer loop
      vertex 0.815536 4.09999 3.5
      vertex -0.251153 2.55 3.5
      vertex 0.251153 2.55 3.5
    endloop
  endfacet
  facet normal 0 0 1
    outer loop
      vertex 0.815536 4.09999 3.5
      vertex -0.743807 2.452 3.5
      vertex -0.251153 2.55 3.5
    endloop
  endfacet
  facet normal 0 0 1
    outer loop
      vertex 0.815536 4.09999 3.5
      vertex -1.20788 2.25978 3.5
      vertex -0.743807 2.452 3.5
    endloop
  endfacet
  facet normal -0 0 1
    outer loop
      vertex -10.6 4.09999 3.5
      vertex -1.20788 2.25978 3.5
      vertex 0.815536 4.09999 3.5
    endloop
  endfacet
  facet normal 0 0 1
    outer loop
      vertex -1.20788 2.25978 3.5
      vertex -10.6 4.09999 3.5
      vertex -1.62553 1.98071 3.5
    endloop
  endfacet
  facet normal 0 0 1
    outer loop
      vertex -10.6 4.09999 3.5
      vertex -1.98071 1.62553 3.5
      vertex -1.62553 1.98071 3.5
    endloop
  endfacet
  facet normal 0 0 1
    outer loop
      vertex -10.6 4.09999 3.5
      vertex -2.25978 1.20788 3.5
      vertex -1.98071 1.62553 3.5
    endloop
  endfacet
  facet normal 0 0 1
    outer loop
      vertex -10.6 4.09999 3.5
      vertex -2.452 0.743807 3.5
      vertex -2.25978 1.20788 3.5
    endloop
  endfacet
  facet normal 0 0 1
    outer loop
      vertex -10.6 0.5 3.5
      vertex -2.452 0.743807 3.5
      vertex -10.6 4.09999 3.5
    endloop
  endfacet
  facet normal 0 0 1
    outer loop
      vertex -2.452 0.743807 3.5
      vertex -10.6 0.5 3.5
      vertex -2.5005 0.5 3.5
    endloop
  endfacet
  facet normal 0 0 1
    outer loop
      vertex 14.1933 -1.72826 3.5
      vertex 13.0339 -0.625 3.5
      vertex 13.8289 -1.97176 3.5
    endloop
  endfacet
  facet normal 0 0 1
    outer loop
      vertex 13.8289 -1.97176 3.5
      vertex 13.0339 -0.625 3.5
      vertex 13.424 -2.13948 3.5
    endloop
  endfacet
  facet normal 0 0 1
    outer loop
      vertex 13.0339 -0.625 3.5
      vertex 12.9941 -2.22499 3.5
      vertex 13.424 -2.13948 3.5
    endloop
  endfacet
  facet normal -0 0 1
    outer loop
      vertex 12.5161 -0.625 3.5
      vertex 12.9941 -2.22499 3.5
      vertex 13.0339 -0.625 3.5
    endloop
  endfacet
  facet normal 0 0 1
    outer loop
      vertex 12.15 -0.258881 3.5
      vertex 12.9941 -2.22499 3.5
      vertex 12.5161 -0.625 3.5
    endloop
  endfacet
  facet normal -0 0 1
    outer loop
      vertex 2.55 -0.251153 3.5
      vertex 12.15 -0.258881 3.5
      vertex 2.55 0.251153 3.5
    endloop
  endfacet
  facet normal 0 0 1
    outer loop
      vertex 2.452 -0.743807 3.5
      vertex 12.15 -0.258881 3.5
      vertex 2.55 -0.251153 3.5
    endloop
  endfacet
  facet normal 0 0 1
    outer loop
      vertex 2.25978 -1.20788 3.5
      vertex 12.15 -0.258881 3.5
      vertex 2.452 -0.743807 3.5
    endloop
  endfacet
  facet normal 0 0 1
    outer loop
      vertex 12.15 -0.258881 3.5
      vertex 2.25978 -1.20788 3.5
      vertex 12.9941 -2.22499 3.5
    endloop
  endfacet
  facet normal -0 0 1
    outer loop
      vertex 1.98071 -1.62553 3.5
      vertex 12.9941 -2.22499 3.5
      vertex 2.25978 -1.20788 3.5
    endloop
  endfacet
  facet normal 0 0 1
    outer loop
      vertex 0.815536 -4.09999 3.5
      vertex 1.98071 -1.62553 3.5
      vertex 1.62553 -1.98071 3.5
    endloop
  endfacet
  facet normal 0 0 1
    outer loop
      vertex 0.815536 -4.09999 3.5
      vertex 1.62553 -1.98071 3.5
      vertex 1.20788 -2.25978 3.5
    endloop
  endfacet
  facet normal 0 0 1
    outer loop
      vertex 1.98071 -1.62553 3.5
      vertex 0.815536 -4.09999 3.5
      vertex 12.9941 -2.22499 3.5
    endloop
  endfacet
  facet normal -0 0 1
    outer loop
      vertex 0.743807 -2.452 3.5
      vertex 0.815536 -4.09999 3.5
      vertex 1.20788 -2.25978 3.5
    endloop
  endfacet
  facet normal -0 0 1
    outer loop
      vertex 0.251153 -2.55 3.5
      vertex 0.815536 -4.09999 3.5
      vertex 0.743807 -2.452 3.5
    endloop
  endfacet
  facet normal -0 0 1
    outer loop
      vertex -0.251153 -2.55 3.5
      vertex 0.815536 -4.09999 3.5
      vertex 0.251153 -2.55 3.5
    endloop
  endfacet
  facet normal 0 0 1
    outer loop
      vertex -0.743807 -2.452 3.5
      vertex 0.815536 -4.09999 3.5
      vertex -0.251153 -2.55 3.5
    endloop
  endfacet
  facet normal 0 0 1
    outer loop
      vertex -1.20788 -2.25978 3.5
      vertex 0.815536 -4.09999 3.5
      vertex -0.743807 -2.452 3.5
    endloop
  endfacet
  facet normal 0 0 1
    outer loop
      vertex -10.6 -4.09999 3.5
      vertex -1.20788 -2.25978 3.5
      vertex -1.62553 -1.98071 3.5
    endloop
  endfacet
  facet normal -0 0 1
    outer loop
      vertex -10.6 -0.5 3.5
      vertex -2.452 -0.743807 3.5
      vertex -2.5005 -0.5 3.5
    endloop
  endfacet
  facet normal 0 0 1
    outer loop
      vertex -10.6 -4.09999 3.5
      vertex -2.452 -0.743807 3.5
      vertex -10.6 -0.5 3.5
    endloop
  endfacet
  facet normal 0 0 1
    outer loop
      vertex -2.452 -0.743807 3.5
      vertex -10.6 -4.09999 3.5
      vertex -2.25978 -1.20788 3.5
    endloop
  endfacet
  facet normal 0 0 1
    outer loop
      vertex -2.25978 -1.20788 3.5
      vertex -10.6 -4.09999 3.5
      vertex -1.98071 -1.62553 3.5
    endloop
  endfacet
  facet normal 0 0 1
    outer loop
      vertex -1.98071 -1.62553 3.5
      vertex -10.6 -4.09999 3.5
      vertex -1.62553 -1.98071 3.5
    endloop
  endfacet
  facet normal 0 0 1
    outer loop
      vertex -1.20788 -2.25978 3.5
      vertex -10.6 -4.09999 3.5
      vertex 0.815536 -4.09999 3.5
    endloop
  endfacet
  facet normal 0.195105 -0.980782 0
    outer loop
      vertex 12.9941 -2.22499 -3.5
      vertex 13.424 -2.13948 3.5
      vertex 12.9941 -2.22499 3.5
    endloop
  endfacet
  facet normal 0.195105 -0.980782 0
    outer loop
      vertex 13.424 -2.13948 3.5
      vertex 12.9941 -2.22499 -3.5
      vertex 13.424 -2.13948 -3.5
    endloop
  endfacet
  facet normal 0.382684 -0.923879 0
    outer loop
      vertex 13.424 -2.13948 -3.5
      vertex 13.8289 -1.97176 3.5
      vertex 13.424 -2.13948 3.5
    endloop
  endfacet
  facet normal 0.382684 -0.923879 0
    outer loop
      vertex 13.8289 -1.97176 3.5
      vertex 13.424 -2.13948 -3.5
      vertex 13.8289 -1.97176 -3.5
    endloop
  endfacet
  facet normal 0.555568 -0.831471 0
    outer loop
      vertex 13.8289 -1.97176 -3.5
      vertex 14.1933 -1.72826 3.5
      vertex 13.8289 -1.97176 3.5
    endloop
  endfacet
  facet normal 0.555568 -0.831471 0
    outer loop
      vertex 14.1933 -1.72826 3.5
      vertex 13.8289 -1.97176 -3.5
      vertex 14.1933 -1.72826 -3.5
    endloop
  endfacet
  facet normal 0.707089 -0.707124 0
    outer loop
      vertex 14.1933 -1.72826 -3.5
      vertex 14.5033 -1.41835 3.5
      vertex 14.1933 -1.72826 3.5
    endloop
  endfacet
  facet normal 0.707089 -0.707124 0
    outer loop
      vertex 14.5033 -1.41835 3.5
      vertex 14.1933 -1.72826 -3.5
      vertex 14.5033 -1.41835 -3.5
    endloop
  endfacet
  facet normal 0.831471 -0.555568 0
    outer loop
      vertex 14.5033 -1.41835 3.5
      vertex 14.7468 -1.05392 -3.5
      vertex 14.7468 -1.05392 3.5
    endloop
  endfacet
  facet normal 0.831471 -0.555568 0
    outer loop
      vertex 14.7468 -1.05392 -3.5
      vertex 14.5033 -1.41835 3.5
      vertex 14.5033 -1.41835 -3.5
    endloop
  endfacet
  facet normal 0.923879 -0.382684 0
    outer loop
      vertex 14.7468 -1.05392 3.5
      vertex 14.9145 -0.649002 -3.5
      vertex 14.9145 -0.649002 3.5
    endloop
  endfacet
  facet normal 0.923879 -0.382684 0
    outer loop
      vertex 14.9145 -0.649002 -3.5
      vertex 14.7468 -1.05392 3.5
      vertex 14.7468 -1.05392 -3.5
    endloop
  endfacet
  facet normal 0.980784 -0.195098 0
    outer loop
      vertex 14.9145 -0.649002 3.5
      vertex 15 -0.219131 -3.5
      vertex 15 -0.219131 3.5
    endloop
  endfacet
  facet normal 0.980784 -0.195098 0
    outer loop
      vertex 15 -0.219131 -3.5
      vertex 14.9145 -0.649002 3.5
      vertex 14.9145 -0.649002 -3.5
    endloop
  endfacet
  facet normal 1 -0 0
    outer loop
      vertex 15 -0.219131 3.5
      vertex 15 0.219131 -3.5
      vertex 15 0.219131 3.5
    endloop
  endfacet
  facet normal 1 0 0
    outer loop
      vertex 15 0.219131 -3.5
      vertex 15 -0.219131 3.5
      vertex 15 -0.219131 -3.5
    endloop
  endfacet
  facet normal 0.980784 0.195098 0
    outer loop
      vertex 15 0.219131 3.5
      vertex 14.9145 0.649002 -3.5
      vertex 14.9145 0.649002 3.5
    endloop
  endfacet
  facet normal 0.980784 0.195098 0
    outer loop
      vertex 14.9145 0.649002 -3.5
      vertex 15 0.219131 3.5
      vertex 15 0.219131 -3.5
    endloop
  endfacet
  facet normal 0.923879 0.382684 0
    outer loop
      vertex 14.9145 0.649002 3.5
      vertex 14.7468 1.05392 -3.5
      vertex 14.7468 1.05392 3.5
    endloop
  endfacet
  facet normal 0.923879 0.382684 0
    outer loop
      vertex 14.7468 1.05392 -3.5
      vertex 14.9145 0.649002 3.5
      vertex 14.9145 0.649002 -3.5
    endloop
  endfacet
  facet normal 0.831471 0.555568 0
    outer loop
      vertex 14.7468 1.05392 3.5
      vertex 14.5033 1.41835 -3.5
      vertex 14.5033 1.41835 3.5
    endloop
  endfacet
  facet normal 0.831471 0.555568 0
    outer loop
      vertex 14.5033 1.41835 -3.5
      vertex 14.7468 1.05392 3.5
      vertex 14.7468 1.05392 -3.5
    endloop
  endfacet
  facet normal 0.707089 0.707124 -0
    outer loop
      vertex 14.5033 1.41835 -3.5
      vertex 14.1933 1.72826 3.5
      vertex 14.5033 1.41835 3.5
    endloop
  endfacet
  facet normal 0.707089 0.707124 0
    outer loop
      vertex 14.1933 1.72826 3.5
      vertex 14.5033 1.41835 -3.5
      vertex 14.1933 1.72826 -3.5
    endloop
  endfacet
  facet normal 0.555568 0.831471 -0
    outer loop
      vertex 14.1933 1.72826 -3.5
      vertex 13.8289 1.97176 3.5
      vertex 14.1933 1.72826 3.5
    endloop
  endfacet
  facet normal 0.555568 0.831471 0
    outer loop
      vertex 13.8289 1.97176 3.5
      vertex 14.1933 1.72826 -3.5
      vertex 13.8289 1.97176 -3.5
    endloop
  endfacet
  facet normal 0.382684 0.923879 -0
    outer loop
      vertex 13.8289 1.97176 -3.5
      vertex 13.424 2.13948 3.5
      vertex 13.8289 1.97176 3.5
    endloop
  endfacet
  facet normal 0.382684 0.923879 0
    outer loop
      vertex 13.424 2.13948 3.5
      vertex 13.8289 1.97176 -3.5
      vertex 13.424 2.13948 -3.5
    endloop
  endfacet
  facet normal 0.195105 0.980782 -0
    outer loop
      vertex 13.424 2.13948 -3.5
      vertex 12.9941 2.22499 3.5
      vertex 13.424 2.13948 3.5
    endloop
  endfacet
  facet normal 0.195105 0.980782 0
    outer loop
      vertex 12.9941 2.22499 3.5
      vertex 13.424 2.13948 -3.5
      vertex 12.9941 2.22499 -3.5
    endloop
  endfacet
  facet normal 0.152166 0.988355 -0
    outer loop
      vertex 12.9941 2.22499 -3.5
      vertex 0.815536 4.09999 3.5
      vertex 12.9941 2.22499 3.5
    endloop
  endfacet
  facet normal 0.152166 0.988355 0
    outer loop
      vertex 0.815536 4.09999 3.5
      vertex 12.9941 2.22499 -3.5
      vertex 0.815536 4.09999 -3.5
    endloop
  endfacet
  facet normal 0 1 0
    outer loop
      vertex 0.815536 4.09999 3.5
      vertex -4.42624 4.09999 1.6
      vertex -10.6 4.09999 3.5
    endloop
  endfacet
  facet normal 0 1 0
    outer loop
      vertex 0.815536 4.09999 3.5
      vertex -3.50248 4.09999 0
      vertex -4.42624 4.09999 1.6
    endloop
  endfacet
  facet normal 0 1 -0
    outer loop
      vertex 0.815536 4.09999 -3.5
      vertex -3.50248 4.09999 0
      vertex 0.815536 4.09999 3.5
    endloop
  endfacet
  facet normal 0 1 0
    outer loop
      vertex -10.6 4.09999 -3.5
      vertex -4.42624 4.09999 -1.6
      vertex 0.815536 4.09999 -3.5
    endloop
  endfacet
  facet normal 0 1 0
    outer loop
      vertex -3.50248 4.09999 0
      vertex 0.815536 4.09999 -3.5
      vertex -4.42624 4.09999 -1.6
    endloop
  endfacet
  facet normal 0 1 -0
    outer loop
      vertex -6.27376 4.09999 1.6
      vertex -10.6 4.09999 3.5
      vertex -4.42624 4.09999 1.6
    endloop
  endfacet
  facet normal 0 1 -0
    outer loop
      vertex -7.19752 4.09999 0
      vertex -10.6 4.09999 3.5
      vertex -6.27376 4.09999 1.6
    endloop
  endfacet
  facet normal 0 1 0
    outer loop
      vertex -10.6 4.09999 -3.5
      vertex -7.19752 4.09999 0
      vertex -6.27376 4.09999 -1.6
    endloop
  endfacet
  facet normal 0 1 0
    outer loop
      vertex -7.19752 4.09999 0
      vertex -10.6 4.09999 -3.5
      vertex -10.6 4.09999 3.5
    endloop
  endfacet
  facet normal 0 1 0
    outer loop
      vertex -4.42624 4.09999 -1.6
      vertex -10.6 4.09999 -3.5
      vertex -6.27376 4.09999 -1.6
    endloop
  endfacet
  facet normal -1 0 0
    outer loop
      vertex -10.6 0.5 -3.5
      vertex -10.6 4.09999 3.5
      vertex -10.6 4.09999 -3.5
    endloop
  endfacet
  facet normal -1 -0 0
    outer loop
      vertex -10.6 4.09999 3.5
      vertex -10.6 0.5 -3.5
      vertex -10.6 0.5 3.5
    endloop
  endfacet
  facet normal 0 -1 0
    outer loop
      vertex -6.27376 0.5 1.6
      vertex -2.5005 0.5 3.5
      vertex -10.6 0.5 3.5
    endloop
  endfacet
  facet normal 0 -1 -0
    outer loop
      vertex -2.5005 0.5 3.5
      vertex -4.42624 0.5 1.6
      vertex -2.5005 0.5 2.1
    endloop
  endfacet
  facet normal 0 -1 0
    outer loop
      vertex -4.42624 0.5 1.6
      vertex -2.5005 0.5 3.5
      vertex -6.27376 0.5 1.6
    endloop
  endfacet
  facet normal 0 -1 0
    outer loop
      vertex -10.6 0.5 3.5
      vertex -7.19752 0.5 0
      vertex -6.27376 0.5 1.6
    endloop
  endfacet
  facet normal 0 -1 0
    outer loop
      vertex -10.6 0.5 -3.5
      vertex -7.19752 0.5 0
      vertex -10.6 0.5 3.5
    endloop
  endfacet
  facet normal 0 -1 0
    outer loop
      vertex -2.50049 0.5 -3.5
      vertex -6.27376 0.5 -1.6
      vertex -10.6 0.5 -3.5
    endloop
  endfacet
  facet normal 0 -1 -0
    outer loop
      vertex -7.19752 0.5 0
      vertex -10.6 0.5 -3.5
      vertex -6.27376 0.5 -1.6
    endloop
  endfacet
  facet normal 0 -1 0
    outer loop
      vertex -3.50248 0.5 0
      vertex -2.5005 0.5 2.1
      vertex -4.42624 0.5 1.6
    endloop
  endfacet
  facet normal 0 -1 -0
    outer loop
      vertex -2.5005 0.5 2.1
      vertex -3.50248 0.5 0
      vertex -2.50049 0.5 2.1
    endloop
  endfacet
  facet normal 0 -1 0
    outer loop
      vertex -3.50248 0.5 0
      vertex -2.50049 0.5 -3.5
      vertex -2.50049 0.5 2.1
    endloop
  endfacet
  facet normal 0 -1 0
    outer loop
      vertex -4.42624 0.5 -1.6
      vertex -2.50049 0.5 -3.5
      vertex -3.50248 0.5 0
    endloop
  endfacet
  facet normal 0 -1 0
    outer loop
      vertex -6.27376 0.5 -1.6
      vertex -2.50049 0.5 -3.5
      vertex -4.42624 0.5 -1.6
    endloop
  endfacet
  facet normal 0.980788 -0.195077 0
    outer loop
      vertex -2.50049 0.5 2.1
      vertex -2.452 0.743805 -3.5
      vertex -2.452 0.743805 2.1
    endloop
  endfacet
  facet normal 0.980788 -0.195077 0
    outer loop
      vertex -2.452 0.743805 -3.5
      vertex -2.50049 0.5 2.1
      vertex -2.50049 0.5 -3.5
    endloop
  endfacet
  facet normal 0.923874 -0.382697 0
    outer loop
      vertex -2.452 0.743805 2.1
      vertex -2.25977 1.20787 -3.5
      vertex -2.25977 1.20787 2.1
    endloop
  endfacet
  facet normal 0.923874 -0.382697 0
    outer loop
      vertex -2.25977 1.20787 -3.5
      vertex -2.452 0.743805 2.1
      vertex -2.452 0.743805 -3.5
    endloop
  endfacet
  facet normal 0.831474 -0.555564 0
    outer loop
      vertex -2.25977 1.20787 2.1
      vertex -2.03117 1.54999 -3.5
      vertex -2.03117 1.54999 2.1
    endloop
  endfacet
  facet normal 0.831474 -0.555564 0
    outer loop
      vertex -2.03117 1.54999 -3.5
      vertex -2.25977 1.20787 2.1
      vertex -2.25977 1.20787 -3.5
    endloop
  endfacet
  facet normal 0 -1 0
    outer loop
      vertex -2.03117 1.54999 -3.5
      vertex 2.03117 1.54999 2.1
      vertex -2.03117 1.54999 2.1
    endloop
  endfacet
  facet normal 0 -1 -0
    outer loop
      vertex 2.03117 1.54999 2.1
      vertex -2.03117 1.54999 -3.5
      vertex 2.03117 1.54999 -3.5
    endloop
  endfacet
  facet normal -0.831474 -0.555564 0
    outer loop
      vertex 2.25977 1.20787 -3.5
      vertex 2.03117 1.54999 2.1
      vertex 2.03117 1.54999 -3.5
    endloop
  endfacet
  facet normal -0.831474 -0.555564 0
    outer loop
      vertex 2.03117 1.54999 2.1
      vertex 2.25977 1.20787 -3.5
      vertex 2.25977 1.20787 2.1
    endloop
  endfacet
  facet normal -0.923874 -0.382697 0
    outer loop
      vertex 2.452 0.743805 -3.5
      vertex 2.25977 1.20787 2.1
      vertex 2.25977 1.20787 -3.5
    endloop
  endfacet
  facet normal -0.923874 -0.382697 0
    outer loop
      vertex 2.25977 1.20787 2.1
      vertex 2.452 0.743805 -3.5
      vertex 2.452 0.743805 2.1
    endloop
  endfacet
  facet normal -0.980787 -0.195082 0
    outer loop
      vertex 2.54999 0.251144 -3.5
      vertex 2.452 0.743805 2.1
      vertex 2.452 0.743805 -3.5
    endloop
  endfacet
  facet normal -0.980787 -0.195082 0
    outer loop
      vertex 2.452 0.743805 2.1
      vertex 2.54999 0.251144 -3.5
      vertex 2.54999 0.251144 2.1
    endloop
  endfacet
  facet normal -1 0 0
    outer loop
      vertex 2.54999 -0.251144 -3.5
      vertex 2.54999 0.251144 2.1
      vertex 2.54999 0.251144 -3.5
    endloop
  endfacet
  facet normal -1 -0 0
    outer loop
      vertex 2.54999 0.251144 2.1
      vertex 2.54999 -0.251144 -3.5
      vertex 2.54999 -0.251144 2.1
    endloop
  endfacet
  facet normal -0.980787 0.195082 0
    outer loop
      vertex 2.452 -0.743805 -3.5
      vertex 2.54999 -0.251144 2.1
      vertex 2.54999 -0.251144 -3.5
    endloop
  endfacet
  facet normal -0.980787 0.195082 0
    outer loop
      vertex 2.54999 -0.251144 2.1
      vertex 2.452 -0.743805 -3.5
      vertex 2.452 -0.743805 2.1
    endloop
  endfacet
  facet normal -0.923874 0.382697 0
    outer loop
      vertex 2.25977 -1.20787 -3.5
      vertex 2.452 -0.743805 2.1
      vertex 2.452 -0.743805 -3.5
    endloop
  endfacet
  facet normal -0.923874 0.382697 0
    outer loop
      vertex 2.452 -0.743805 2.1
      vertex 2.25977 -1.20787 -3.5
      vertex 2.25977 -1.20787 2.1
    endloop
  endfacet
  facet normal -0.831474 0.555564 0
    outer loop
      vertex 2.03117 -1.54999 -3.5
      vertex 2.25977 -1.20787 2.1
      vertex 2.25977 -1.20787 -3.5
    endloop
  endfacet
  facet normal -0.831474 0.555564 0
    outer loop
      vertex 2.25977 -1.20787 2.1
      vertex 2.03117 -1.54999 -3.5
      vertex 2.03117 -1.54999 2.1
    endloop
  endfacet
  facet normal 0 1 -0
    outer loop
      vertex 2.03117 -1.54999 -3.5
      vertex -2.03117 -1.54999 2.1
      vertex 2.03117 -1.54999 2.1
    endloop
  endfacet
  facet normal 0 1 0
    outer loop
      vertex -2.03117 -1.54999 2.1
      vertex 2.03117 -1.54999 -3.5
      vertex -2.03117 -1.54999 -3.5
    endloop
  endfacet
  facet normal 0.831474 0.555564 0
    outer loop
      vertex -2.03117 -1.54999 2.1
      vertex -2.25977 -1.20787 -3.5
      vertex -2.25977 -1.20787 2.1
    endloop
  endfacet
  facet normal 0.831474 0.555564 0
    outer loop
      vertex -2.25977 -1.20787 -3.5
      vertex -2.03117 -1.54999 2.1
      vertex -2.03117 -1.54999 -3.5
    endloop
  endfacet
  facet normal 0.923874 0.382697 0
    outer loop
      vertex -2.25977 -1.20787 2.1
      vertex -2.452 -0.743805 -3.5
      vertex -2.452 -0.743805 2.1
    endloop
  endfacet
  facet normal 0.923874 0.382697 0
    outer loop
      vertex -2.452 -0.743805 -3.5
      vertex -2.25977 -1.20787 2.1
      vertex -2.25977 -1.20787 -3.5
    endloop
  endfacet
  facet normal 0.980788 0.195077 0
    outer loop
      vertex -2.452 -0.743805 2.1
      vertex -2.50049 -0.5 -3.5
      vertex -2.50049 -0.5 2.1
    endloop
  endfacet
  facet normal 0.980788 0.195077 0
    outer loop
      vertex -2.50049 -0.5 -3.5
      vertex -2.452 -0.743805 2.1
      vertex -2.452 -0.743805 -3.5
    endloop
  endfacet
  facet normal 0 1 0
    outer loop
      vertex -3.50248 -0.5 0
      vertex -2.5005 -0.5 2.1
      vertex -2.50049 -0.5 2.1
    endloop
  endfacet
  facet normal 0 1 0
    outer loop
      vertex -2.5005 -0.5 2.1
      vertex -3.50248 -0.5 0
      vertex -4.42624 -0.5 1.6
    endloop
  endfacet
  facet normal 0 1 0
    outer loop
      vertex -4.42624 -0.5 -1.6
      vertex -2.50049 -0.5 -3.5
      vertex -6.27376 -0.5 -1.6
    endloop
  endfacet
  facet normal 0 1 0
    outer loop
      vertex -3.50248 -0.5 0
      vertex -2.50049 -0.5 -3.5
      vertex -4.42624 -0.5 -1.6
    endloop
  endfacet
  facet normal 0 1 -0
    outer loop
      vertex -2.50049 -0.5 -3.5
      vertex -3.50248 -0.5 0
      vertex -2.50049 -0.5 2.1
    endloop
  endfacet
  facet normal 0 1 0
    outer loop
      vertex -4.42624 -0.5 1.6
      vertex -2.5005 -0.5 3.5
      vertex -2.5005 -0.5 2.1
    endloop
  endfacet
  facet normal 0 1 0
    outer loop
      vertex -2.5005 -0.5 3.5
      vertex -4.42624 -0.5 1.6
      vertex -6.27376 -0.5 1.6
    endloop
  endfacet
  facet normal 0 1 0
    outer loop
      vertex -2.5005 -0.5 3.5
      vertex -6.27376 -0.5 1.6
      vertex -10.6 -0.5 3.5
    endloop
  endfacet
  facet normal 0 1 -0
    outer loop
      vertex -7.19752 -0.5 0
      vertex -10.6 -0.5 3.5
      vertex -6.27376 -0.5 1.6
    endloop
  endfacet
  facet normal 0 1 0
    outer loop
      vertex -10.6 -0.5 -3.5
      vertex -7.19752 -0.5 0
      vertex -6.27376 -0.5 -1.6
    endloop
  endfacet
  facet normal 0 1 0
    outer loop
      vertex -7.19752 -0.5 0
      vertex -10.6 -0.5 -3.5
      vertex -10.6 -0.5 3.5
    endloop
  endfacet
  facet normal 0 1 0
    outer loop
      vertex -10.6 -0.5 -3.5
      vertex -6.27376 -0.5 -1.6
      vertex -2.50049 -0.5 -3.5
    endloop
  endfacet
  facet normal -1 0 0
    outer loop
      vertex -10.6 -4.09999 -3.5
      vertex -10.6 -0.5 3.5
      vertex -10.6 -0.5 -3.5
    endloop
  endfacet
  facet normal -1 -0 0
    outer loop
      vertex -10.6 -0.5 3.5
      vertex -10.6 -4.09999 -3.5
      vertex -10.6 -4.09999 3.5
    endloop
  endfacet
  facet normal 0 -1 0
    outer loop
      vertex -4.42624 -4.09999 1.6
      vertex -10.6 -4.09999 3.5
      vertex -6.27376 -4.09999 1.6
    endloop
  endfacet
  facet normal 0 -1 0
    outer loop
      vertex -10.6 -4.09999 3.5
      vertex -7.19752 -4.09999 0
      vertex -6.27376 -4.09999 1.6
    endloop
  endfacet
  facet normal 0 -1 0
    outer loop
      vertex -10.6 -4.09999 -3.5
      vertex -7.19752 -4.09999 0
      vertex -10.6 -4.09999 3.5
    endloop
  endfacet
  facet normal 0 -1 -0
    outer loop
      vertex -6.27376 -4.09999 -1.6
      vertex -10.6 -4.09999 -3.5
      vertex -4.42624 -4.09999 -1.6
    endloop
  endfacet
  facet normal 0 -1 -0
    outer loop
      vertex -7.19752 -4.09999 0
      vertex -10.6 -4.09999 -3.5
      vertex -6.27376 -4.09999 -1.6
    endloop
  endfacet
  facet normal 0 -1 0
    outer loop
      vertex -10.6 -4.09999 3.5
      vertex -4.42624 -4.09999 1.6
      vertex 0.815536 -4.09999 3.5
    endloop
  endfacet
  facet normal 0 -1 0
    outer loop
      vertex -3.50248 -4.09999 0
      vertex 0.815536 -4.09999 3.5
      vertex -4.42624 -4.09999 1.6
    endloop
  endfacet
  facet normal 0 -1 0
    outer loop
      vertex 0.815536 -4.09999 -3.5
      vertex -3.50248 -4.09999 0
      vertex -4.42624 -4.09999 -1.6
    endloop
  endfacet
  facet normal 0 -1 0
    outer loop
      vertex -3.50248 -4.09999 0
      vertex 0.815536 -4.09999 -3.5
      vertex 0.815536 -4.09999 3.5
    endloop
  endfacet
  facet normal 0 -1 0
    outer loop
      vertex 0.815536 -4.09999 -3.5
      vertex -4.42624 -4.09999 -1.6
      vertex -10.6 -4.09999 -3.5
    endloop
  endfacet
  facet normal 0.152166 -0.988355 0
    outer loop
      vertex 0.815536 -4.09999 -3.5
      vertex 12.9941 -2.22499 3.5
      vertex 0.815536 -4.09999 3.5
    endloop
  endfacet
  facet normal 0.152166 -0.988355 0
    outer loop
      vertex 12.9941 -2.22499 3.5
      vertex 0.815536 -4.09999 -3.5
      vertex 12.9941 -2.22499 -3.5
    endloop
  endfacet
  facet normal 0.707107 0.707107 0
    outer loop
      vertex 12.5161 -0.625 3.5
      vertex 12.15 -0.258881 -3.5
      vertex 12.15 -0.258881 3.5
    endloop
  endfacet
  facet normal 0.707107 0.707107 0
    outer loop
      vertex 12.15 -0.258881 -3.5
      vertex 12.5161 -0.625 3.5
      vertex 12.5161 -0.625 -3.5
    endloop
  endfacet
  facet normal 1 -0 0
    outer loop
      vertex 12.15 -0.258881 3.5
      vertex 12.15 0.258881 -3.5
      vertex 12.15 0.258881 3.5
    endloop
  endfacet
  facet normal 1 0 0
    outer loop
      vertex 12.15 0.258881 -3.5
      vertex 12.15 -0.258881 3.5
      vertex 12.15 -0.258881 -3.5
    endloop
  endfacet
  facet normal 0.707107 -0.707107 0
    outer loop
      vertex 12.15 0.258881 3.5
      vertex 12.5161 0.625 -3.5
      vertex 12.5161 0.625 3.5
    endloop
  endfacet
  facet normal 0.707107 -0.707107 0
    outer loop
      vertex 12.5161 0.625 -3.5
      vertex 12.15 0.258881 3.5
      vertex 12.15 0.258881 -3.5
    endloop
  endfacet
  facet normal 0 -1 0
    outer loop
      vertex 12.5161 0.625 -3.5
      vertex 13.0339 0.625 3.5
      vertex 12.5161 0.625 3.5
    endloop
  endfacet
  facet normal 0 -1 -0
    outer loop
      vertex 13.0339 0.625 3.5
      vertex 12.5161 0.625 -3.5
      vertex 13.0339 0.625 -3.5
    endloop
  endfacet
  facet normal -0.707107 -0.707107 0
    outer loop
      vertex 13.4 0.258881 -3.5
      vertex 13.0339 0.625 3.5
      vertex 13.0339 0.625 -3.5
    endloop
  endfacet
  facet normal -0.707107 -0.707107 0
    outer loop
      vertex 13.0339 0.625 3.5
      vertex 13.4 0.258881 -3.5
      vertex 13.4 0.258881 3.5
    endloop
  endfacet
  facet normal -1 0 0
    outer loop
      vertex 13.4 -0.258881 -3.5
      vertex 13.4 0.258881 3.5
      vertex 13.4 0.258881 -3.5
    endloop
  endfacet
  facet normal -1 -0 0
    outer loop
      vertex 13.4 0.258881 3.5
      vertex 13.4 -0.258881 -3.5
      vertex 13.4 -0.258881 3.5
    endloop
  endfacet
  facet normal -0.707107 0.707107 0
    outer loop
      vertex 13.0339 -0.625 -3.5
      vertex 13.4 -0.258881 3.5
      vertex 13.4 -0.258881 -3.5
    endloop
  endfacet
  facet normal -0.707107 0.707107 0
    outer loop
      vertex 13.4 -0.258881 3.5
      vertex 13.0339 -0.625 -3.5
      vertex 13.0339 -0.625 3.5
    endloop
  endfacet
  facet normal 0 1 -0
    outer loop
      vertex 13.0339 -0.625 -3.5
      vertex 12.5161 -0.625 3.5
      vertex 13.0339 -0.625 3.5
    endloop
  endfacet
  facet normal 0 1 0
    outer loop
      vertex 12.5161 -0.625 3.5
      vertex 13.0339 -0.625 -3.5
      vertex 12.5161 -0.625 -3.5
    endloop
  endfacet
endsolid OpenSCAD_Model
