solid OpenSCAD_Model
  facet normal 0.707106 0 -0.707107
    outer loop
      vertex -5.7 -4.09999 0.642031
      vertex -4.79203 -0.5 1.55
      vertex -4.79203 -4.09999 1.55
    endloop
  endfacet
  facet normal 0.707106 0 -0.707107
    outer loop
      vertex -4.79203 -0.5 1.55
      vertex -5.7 -4.09999 0.642031
      vertex -5.7 -0.5 0.642031
    endloop
  endfacet
  facet normal 0.707106 0 -0.707107
    outer loop
      vertex -5.7 0.5 0.642031
      vertex -4.79203 4.09999 1.55
      vertex -4.79203 0.5 1.55
    endloop
  endfacet
  facet normal 0.707106 0 -0.707107
    outer loop
      vertex -4.79203 4.09999 1.55
      vertex -5.7 0.5 0.642031
      vertex -5.7 4.09999 0.642031
    endloop
  endfacet
  facet normal 1 -0 0
    outer loop
      vertex -5.7 -4.09999 0.642031
      vertex -5.7 -0.5 -0.642031
      vertex -5.7 -0.5 0.642031
    endloop
  endfacet
  facet normal 1 0 0
    outer loop
      vertex -5.7 -0.5 -0.642031
      vertex -5.7 -4.09999 0.642031
      vertex -5.7 -4.09999 -0.642031
    endloop
  endfacet
  facet normal 1 -0 0
    outer loop
      vertex -5.7 0.5 0.642031
      vertex -5.7 4.09999 -0.642031
      vertex -5.7 4.09999 0.642031
    endloop
  endfacet
  facet normal 1 0 0
    outer loop
      vertex -5.7 4.09999 -0.642031
      vertex -5.7 0.5 0.642031
      vertex -5.7 0.5 -0.642031
    endloop
  endfacet
  facet normal -0.707106 0 0.707107
    outer loop
      vertex -3.50797 4.09999 -1.55
      vertex -2.6 0.5 -0.642031
      vertex -2.6 4.09999 -0.642031
    endloop
  endfacet
  facet normal -0.707106 0 0.707107
    outer loop
      vertex -2.6 0.5 -0.642031
      vertex -3.50797 4.09999 -1.55
      vertex -3.50797 0.5 -1.55
    endloop
  endfacet
  facet normal -0.707106 0 0.707107
    outer loop
      vertex -3.50797 -0.5 -1.55
      vertex -2.6 -4.09999 -0.642031
      vertex -2.6 -0.5 -0.642031
    endloop
  endfacet
  facet normal -0.707106 0 0.707107
    outer loop
      vertex -2.6 -4.09999 -0.642031
      vertex -3.50797 -0.5 -1.55
      vertex -3.50797 -4.09999 -1.55
    endloop
  endfacet
  facet normal 0.707106 0 0.707107
    outer loop
      vertex -5.7 4.09999 -0.642031
      vertex -4.79203 0.5 -1.55
      vertex -4.79203 4.09999 -1.55
    endloop
  endfacet
  facet normal 0.707106 0 0.707107
    outer loop
      vertex -4.79203 0.5 -1.55
      vertex -5.7 4.09999 -0.642031
      vertex -5.7 0.5 -0.642031
    endloop
  endfacet
  facet normal 0.707106 0 0.707107
    outer loop
      vertex -5.7 -0.5 -0.642031
      vertex -4.79203 -4.09999 -1.55
      vertex -4.79203 -0.5 -1.55
    endloop
  endfacet
  facet normal 0.707106 0 0.707107
    outer loop
      vertex -4.79203 -4.09999 -1.55
      vertex -5.7 -0.5 -0.642031
      vertex -5.7 -4.09999 -0.642031
    endloop
  endfacet
  facet normal -0 0 1
    outer loop
      vertex -4.79203 4.09999 -1.55
      vertex -3.50797 0.5 -1.55
      vertex -3.50797 4.09999 -1.55
    endloop
  endfacet
  facet normal 0 0 1
    outer loop
      vertex -3.50797 0.5 -1.55
      vertex -4.79203 4.09999 -1.55
      vertex -4.79203 0.5 -1.55
    endloop
  endfacet
  facet normal -0 0 1
    outer loop
      vertex -4.79203 -0.5 -1.55
      vertex -3.50797 -4.09999 -1.55
      vertex -3.50797 -0.5 -1.55
    endloop
  endfacet
  facet normal 0 0 1
    outer loop
      vertex -3.50797 -4.09999 -1.55
      vertex -4.79203 -0.5 -1.55
      vertex -4.79203 -4.09999 -1.55
    endloop
  endfacet
  facet normal -1 0 0
    outer loop
      vertex -2.6 -4.09999 -0.642031
      vertex -2.6 -0.5 0.642031
      vertex -2.6 -0.5 -0.642031
    endloop
  endfacet
  facet normal -1 -0 0
    outer loop
      vertex -2.6 -0.5 0.642031
      vertex -2.6 -4.09999 -0.642031
      vertex -2.6 -4.09999 0.642031
    endloop
  endfacet
  facet normal -1 0 0
    outer loop
      vertex -2.6 0.5 -0.642031
      vertex -2.6 4.09999 0.642031
      vertex -2.6 4.09999 -0.642031
    endloop
  endfacet
  facet normal -1 -0 0
    outer loop
      vertex -2.6 4.09999 0.642031
      vertex -2.6 0.5 -0.642031
      vertex -2.6 0.5 0.642031
    endloop
  endfacet
  facet normal -0.707106 0 -0.707107
    outer loop
      vertex -3.50797 -4.09999 1.55
      vertex -2.6 -0.5 0.642031
      vertex -2.6 -4.09999 0.642031
    endloop
  endfacet
  facet normal -0.707106 0 -0.707107
    outer loop
      vertex -2.6 -0.5 0.642031
      vertex -3.50797 -4.09999 1.55
      vertex -3.50797 -0.5 1.55
    endloop
  endfacet
  facet normal -0.707106 0 -0.707107
    outer loop
      vertex -3.50797 0.5 1.55
      vertex -2.6 4.09999 0.642031
      vertex -2.6 0.5 0.642031
    endloop
  endfacet
  facet normal -0.707106 0 -0.707107
    outer loop
      vertex -2.6 4.09999 0.642031
      vertex -3.50797 0.5 1.55
      vertex -3.50797 4.09999 1.55
    endloop
  endfacet
  facet normal 0 0 -1
    outer loop
      vertex -4.79203 0.5 1.55
      vertex -3.50797 4.09999 1.55
      vertex -3.50797 0.5 1.55
    endloop
  endfacet
  facet normal -0 0 -1
    outer loop
      vertex -3.50797 4.09999 1.55
      vertex -4.79203 0.5 1.55
      vertex -4.79203 4.09999 1.55
    endloop
  endfacet
  facet normal 0 0 -1
    outer loop
      vertex -4.79203 -4.09999 1.55
      vertex -3.50797 -0.5 1.55
      vertex -3.50797 -4.09999 1.55
    endloop
  endfacet
  facet normal -0 0 -1
    outer loop
      vertex -3.50797 -0.5 1.55
      vertex -4.79203 -4.09999 1.55
      vertex -4.79203 -0.5 1.55
    endloop
  endfacet
  facet normal -0.83147 -0.555569 0
    outer loop
      vertex 2.25978 1.20788 2.1
      vertex 1.98071 1.62553 3.5
      vertex 1.98071 1.62553 2.1
    endloop
  endfacet
  facet normal -0.83147 -0.555569 0
    outer loop
      vertex 1.98071 1.62553 3.5
      vertex 2.25978 1.20788 2.1
      vertex 2.25978 1.20788 3.5
    endloop
  endfacet
  facet normal -0.707107 -0.707107 0
    outer loop
      vertex 1.98071 1.62553 2.1
      vertex 1.62553 1.98071 3.5
      vertex 1.62553 1.98071 2.1
    endloop
  endfacet
  facet normal -0.707107 -0.707107 0
    outer loop
      vertex 1.62553 1.98071 3.5
      vertex 1.98071 1.62553 2.1
      vertex 1.98071 1.62553 3.5
    endloop
  endfacet
  facet normal -0.19509 -0.980785 0
    outer loop
      vertex 0.251153 2.55 2.1
      vertex 0.743807 2.452 3.5
      vertex 0.251153 2.55 3.5
    endloop
  endfacet
  facet normal -0.19509 -0.980785 -0
    outer loop
      vertex 0.743807 2.452 3.5
      vertex 0.251153 2.55 2.1
      vertex 0.743807 2.452 2.1
    endloop
  endfacet
  facet normal 0.555569 -0.83147 0
    outer loop
      vertex -1.62553 1.98071 2.1
      vertex -1.20788 2.25978 3.5
      vertex -1.62553 1.98071 3.5
    endloop
  endfacet
  facet normal 0.555569 -0.83147 0
    outer loop
      vertex -1.20788 2.25978 3.5
      vertex -1.62553 1.98071 2.1
      vertex -1.20788 2.25978 2.1
    endloop
  endfacet
  facet normal 0.923879 -0.382684 0
    outer loop
      vertex -2.452 0.743807 3.5
      vertex -2.25978 1.20788 2.1
      vertex -2.25978 1.20788 3.5
    endloop
  endfacet
  facet normal 0.923879 -0.382684 0
    outer loop
      vertex -2.25978 1.20788 2.1
      vertex -2.452 0.743807 3.5
      vertex -2.452 0.743807 2.1
    endloop
  endfacet
  facet normal 0.707107 -0.707107 0
    outer loop
      vertex -1.98071 1.62553 3.5
      vertex -1.62553 1.98071 2.1
      vertex -1.62553 1.98071 3.5
    endloop
  endfacet
  facet normal 0.707107 -0.707107 0
    outer loop
      vertex -1.62553 1.98071 2.1
      vertex -1.98071 1.62553 3.5
      vertex -1.98071 1.62553 2.1
    endloop
  endfacet
  facet normal -1 0 0
    outer loop
      vertex 2.55 -0.251153 2.1
      vertex 2.55 0.251153 3.5
      vertex 2.55 0.251153 2.1
    endloop
  endfacet
  facet normal -1 -0 0
    outer loop
      vertex 2.55 0.251153 3.5
      vertex 2.55 -0.251153 2.1
      vertex 2.55 -0.251153 3.5
    endloop
  endfacet
  facet normal -0.382684 0.923879 0
    outer loop
      vertex 1.20788 -2.25978 2.1
      vertex 0.743807 -2.452 3.5
      vertex 1.20788 -2.25978 3.5
    endloop
  endfacet
  facet normal -0.382684 0.923879 0
    outer loop
      vertex 0.743807 -2.452 3.5
      vertex 1.20788 -2.25978 2.1
      vertex 0.743807 -2.452 2.1
    endloop
  endfacet
  facet normal -0.923879 -0.382684 0
    outer loop
      vertex 2.452 0.743807 2.1
      vertex 2.25978 1.20788 3.5
      vertex 2.25978 1.20788 2.1
    endloop
  endfacet
  facet normal -0.923879 -0.382684 0
    outer loop
      vertex 2.25978 1.20788 3.5
      vertex 2.452 0.743807 2.1
      vertex 2.452 0.743807 3.5
    endloop
  endfacet
  facet normal -0.555569 -0.83147 0
    outer loop
      vertex 1.20788 2.25978 2.1
      vertex 1.62553 1.98071 3.5
      vertex 1.20788 2.25978 3.5
    endloop
  endfacet
  facet normal -0.555569 -0.83147 -0
    outer loop
      vertex 1.62553 1.98071 3.5
      vertex 1.20788 2.25978 2.1
      vertex 1.62553 1.98071 2.1
    endloop
  endfacet
  facet normal 0.19509 -0.980785 0
    outer loop
      vertex -0.743807 2.452 2.1
      vertex -0.251153 2.55 3.5
      vertex -0.743807 2.452 3.5
    endloop
  endfacet
  facet normal 0.19509 -0.980785 0
    outer loop
      vertex -0.251153 2.55 3.5
      vertex -0.743807 2.452 2.1
      vertex -0.251153 2.55 2.1
    endloop
  endfacet
  facet normal -0.382684 -0.923879 0
    outer loop
      vertex 0.743807 2.452 2.1
      vertex 1.20788 2.25978 3.5
      vertex 0.743807 2.452 3.5
    endloop
  endfacet
  facet normal -0.382684 -0.923879 -0
    outer loop
      vertex 1.20788 2.25978 3.5
      vertex 0.743807 2.452 2.1
      vertex 1.20788 2.25978 2.1
    endloop
  endfacet
  facet normal 0.83147 -0.555569 0
    outer loop
      vertex -2.25978 1.20788 3.5
      vertex -1.98071 1.62553 2.1
      vertex -1.98071 1.62553 3.5
    endloop
  endfacet
  facet normal 0.83147 -0.555569 0
    outer loop
      vertex -1.98071 1.62553 2.1
      vertex -2.25978 1.20788 3.5
      vertex -2.25978 1.20788 2.1
    endloop
  endfacet
  facet normal 0.382684 -0.923879 0
    outer loop
      vertex -1.20788 2.25978 2.1
      vertex -0.743807 2.452 3.5
      vertex -1.20788 2.25978 3.5
    endloop
  endfacet
  facet normal 0.382684 -0.923879 0
    outer loop
      vertex -0.743807 2.452 3.5
      vertex -1.20788 2.25978 2.1
      vertex -0.743807 2.452 2.1
    endloop
  endfacet
  facet normal -0.980785 -0.19509 0
    outer loop
      vertex 2.55 0.251153 2.1
      vertex 2.452 0.743807 3.5
      vertex 2.452 0.743807 2.1
    endloop
  endfacet
  facet normal -0.980785 -0.19509 0
    outer loop
      vertex 2.452 0.743807 3.5
      vertex 2.55 0.251153 2.1
      vertex 2.55 0.251153 3.5
    endloop
  endfacet
  facet normal -0.707107 0.707107 0
    outer loop
      vertex 1.62553 -1.98071 2.1
      vertex 1.98071 -1.62553 3.5
      vertex 1.98071 -1.62553 2.1
    endloop
  endfacet
  facet normal -0.707107 0.707107 0
    outer loop
      vertex 1.98071 -1.62553 3.5
      vertex 1.62553 -1.98071 2.1
      vertex 1.62553 -1.98071 3.5
    endloop
  endfacet
  facet normal -0.980785 0.19509 0
    outer loop
      vertex 2.452 -0.743807 2.1
      vertex 2.55 -0.251153 3.5
      vertex 2.55 -0.251153 2.1
    endloop
  endfacet
  facet normal -0.980785 0.19509 0
    outer loop
      vertex 2.55 -0.251153 3.5
      vertex 2.452 -0.743807 2.1
      vertex 2.452 -0.743807 3.5
    endloop
  endfacet
  facet normal 0 1 -0
    outer loop
      vertex 0.251153 -2.55 2.1
      vertex -0.251153 -2.55 3.5
      vertex 0.251153 -2.55 3.5
    endloop
  endfacet
  facet normal 0 1 0
    outer loop
      vertex -0.251153 -2.55 3.5
      vertex 0.251153 -2.55 2.1
      vertex -0.251153 -2.55 2.1
    endloop
  endfacet
  facet normal 0 -1 0
    outer loop
      vertex -0.251153 2.55 2.1
      vertex 0.251153 2.55 3.5
      vertex -0.251153 2.55 3.5
    endloop
  endfacet
  facet normal 0 -1 -0
    outer loop
      vertex 0.251153 2.55 3.5
      vertex -0.251153 2.55 2.1
      vertex 0.251153 2.55 2.1
    endloop
  endfacet
  facet normal 0.980785 -0.19509 0
    outer loop
      vertex -2.5005 0.5 3.5
      vertex -2.452 0.743807 2.1
      vertex -2.452 0.743807 3.5
    endloop
  endfacet
  facet normal 0.980785 -0.19509 0
    outer loop
      vertex -2.452 0.743807 2.1
      vertex -2.5005 0.5 3.5
      vertex -2.5005 0.5 2.1
    endloop
  endfacet
  facet normal 0.19509 0.980785 -0
    outer loop
      vertex -0.251153 -2.55 2.1
      vertex -0.743807 -2.452 3.5
      vertex -0.251153 -2.55 3.5
    endloop
  endfacet
  facet normal 0.19509 0.980785 0
    outer loop
      vertex -0.743807 -2.452 3.5
      vertex -0.251153 -2.55 2.1
      vertex -0.743807 -2.452 2.1
    endloop
  endfacet
  facet normal 0.980785 0.19509 0
    outer loop
      vertex -2.452 -0.743807 3.5
      vertex -2.5005 -0.5 2.1
      vertex -2.5005 -0.5 3.5
    endloop
  endfacet
  facet normal 0.980785 0.19509 0
    outer loop
      vertex -2.5005 -0.5 2.1
      vertex -2.452 -0.743807 3.5
      vertex -2.452 -0.743807 2.1
    endloop
  endfacet
  facet normal -0.83147 0.555569 0
    outer loop
      vertex 1.98071 -1.62553 2.1
      vertex 2.25978 -1.20788 3.5
      vertex 2.25978 -1.20788 2.1
    endloop
  endfacet
  facet normal -0.83147 0.555569 0
    outer loop
      vertex 2.25978 -1.20788 3.5
      vertex 1.98071 -1.62553 2.1
      vertex 1.98071 -1.62553 3.5
    endloop
  endfacet
  facet normal -0.923879 0.382684 0
    outer loop
      vertex 2.25978 -1.20788 2.1
      vertex 2.452 -0.743807 3.5
      vertex 2.452 -0.743807 2.1
    endloop
  endfacet
  facet normal -0.923879 0.382684 0
    outer loop
      vertex 2.452 -0.743807 3.5
      vertex 2.25978 -1.20788 2.1
      vertex 2.25978 -1.20788 3.5
    endloop
  endfacet
  facet normal 0.555569 0.83147 -0
    outer loop
      vertex -1.20788 -2.25978 2.1
      vertex -1.62553 -1.98071 3.5
      vertex -1.20788 -2.25978 3.5
    endloop
  endfacet
  facet normal 0.555569 0.83147 0
    outer loop
      vertex -1.62553 -1.98071 3.5
      vertex -1.20788 -2.25978 2.1
      vertex -1.62553 -1.98071 2.1
    endloop
  endfacet
  facet normal 0.382684 0.923879 -0
    outer loop
      vertex -0.743807 -2.452 2.1
      vertex -1.20788 -2.25978 3.5
      vertex -0.743807 -2.452 3.5
    endloop
  endfacet
  facet normal 0.382684 0.923879 0
    outer loop
      vertex -1.20788 -2.25978 3.5
      vertex -0.743807 -2.452 2.1
      vertex -1.20788 -2.25978 2.1
    endloop
  endfacet
  facet normal 0 0 1
    outer loop
      vertex 2.55 0.251153 2.1
      vertex 2.54999 0.251144 2.1
      vertex 2.55 -0.251153 2.1
    endloop
  endfacet
  facet normal -0 0 1
    outer loop
      vertex 2.452 0.743805 2.1
      vertex 2.55 0.251153 2.1
      vertex 2.452 0.743807 2.1
    endloop
  endfacet
  facet normal 0 0 1
    outer loop
      vertex 2.55 0.251153 2.1
      vertex 2.452 0.743805 2.1
      vertex 2.54999 0.251144 2.1
    endloop
  endfacet
  facet normal 0 0 1
    outer loop
      vertex 2.25978 1.20788 2.1
      vertex 2.452 0.743805 2.1
      vertex 2.452 0.743807 2.1
    endloop
  endfacet
  facet normal 0 0 1
    outer loop
      vertex 2.25978 1.20788 2.1
      vertex 2.25977 1.20787 2.1
      vertex 2.452 0.743805 2.1
    endloop
  endfacet
  facet normal 0 0 1
    outer loop
      vertex 2.25978 1.20788 2.1
      vertex 2.03117 1.54999 2.1
      vertex 2.25977 1.20787 2.1
    endloop
  endfacet
  facet normal 0 0 1
    outer loop
      vertex 1.98071 1.62553 2.1
      vertex 2.03117 1.54999 2.1
      vertex 2.25978 1.20788 2.1
    endloop
  endfacet
  facet normal 0 0 1
    outer loop
      vertex 1.62553 1.98071 2.1
      vertex 2.03117 1.54999 2.1
      vertex 1.98071 1.62553 2.1
    endloop
  endfacet
  facet normal 0 0 1
    outer loop
      vertex 1.20788 2.25978 2.1
      vertex 2.03117 1.54999 2.1
      vertex 1.62553 1.98071 2.1
    endloop
  endfacet
  facet normal 0 0 1
    outer loop
      vertex 0.743807 2.452 2.1
      vertex 2.03117 1.54999 2.1
      vertex 1.20788 2.25978 2.1
    endloop
  endfacet
  facet normal 0 0 1
    outer loop
      vertex 0.251153 2.55 2.1
      vertex 2.03117 1.54999 2.1
      vertex 0.743807 2.452 2.1
    endloop
  endfacet
  facet normal -0 0 1
    outer loop
      vertex -0.251153 2.55 2.1
      vertex 2.03117 1.54999 2.1
      vertex 0.251153 2.55 2.1
    endloop
  endfacet
  facet normal -0 0 1
    outer loop
      vertex -0.743807 2.452 2.1
      vertex 2.03117 1.54999 2.1
      vertex -0.251153 2.55 2.1
    endloop
  endfacet
  facet normal -0 0 1
    outer loop
      vertex -1.20788 2.25978 2.1
      vertex 2.03117 1.54999 2.1
      vertex -0.743807 2.452 2.1
    endloop
  endfacet
  facet normal 0 0 1
    outer loop
      vertex -2.03117 1.54999 2.1
      vertex -1.20788 2.25978 2.1
      vertex -1.62553 1.98071 2.1
    endloop
  endfacet
  facet normal 0 0 1
    outer loop
      vertex -2.03117 1.54999 2.1
      vertex -1.62553 1.98071 2.1
      vertex -1.98071 1.62553 2.1
    endloop
  endfacet
  facet normal 0 0 1
    outer loop
      vertex -1.20788 2.25978 2.1
      vertex -2.03117 1.54999 2.1
      vertex 2.03117 1.54999 2.1
    endloop
  endfacet
  facet normal 0 0 1
    outer loop
      vertex -2.25978 1.20788 2.1
      vertex -2.03117 1.54999 2.1
      vertex -1.98071 1.62553 2.1
    endloop
  endfacet
  facet normal 0 0 1
    outer loop
      vertex -2.03117 1.54999 2.1
      vertex -2.25978 1.20788 2.1
      vertex -2.25977 1.20787 2.1
    endloop
  endfacet
  facet normal 0 0 1
    outer loop
      vertex -2.25978 1.20788 2.1
      vertex -2.452 0.743805 2.1
      vertex -2.25977 1.20787 2.1
    endloop
  endfacet
  facet normal -0 0 1
    outer loop
      vertex -2.452 0.743807 2.1
      vertex -2.452 0.743805 2.1
      vertex -2.25978 1.20788 2.1
    endloop
  endfacet
  facet normal 0 0 1
    outer loop
      vertex -2.452 0.743807 2.1
      vertex -2.50049 0.5 2.1
      vertex -2.452 0.743805 2.1
    endloop
  endfacet
  facet normal 0 -0 1
    outer loop
      vertex -2.50049 0.5 2.1
      vertex -2.452 0.743807 2.1
      vertex -2.5005 0.5 2.1
    endloop
  endfacet
  facet normal -0 0 1
    outer loop
      vertex 2.54999 -0.251144 2.1
      vertex 2.55 -0.251153 2.1
      vertex 2.54999 0.251144 2.1
    endloop
  endfacet
  facet normal 0 0 1
    outer loop
      vertex 2.452 -0.743805 2.1
      vertex 2.55 -0.251153 2.1
      vertex 2.54999 -0.251144 2.1
    endloop
  endfacet
  facet normal 0 0 1
    outer loop
      vertex 2.55 -0.251153 2.1
      vertex 2.452 -0.743805 2.1
      vertex 2.452 -0.743807 2.1
    endloop
  endfacet
  facet normal 0 0 1
    outer loop
      vertex 2.452 -0.743805 2.1
      vertex 2.25978 -1.20788 2.1
      vertex 2.452 -0.743807 2.1
    endloop
  endfacet
  facet normal -0 0 1
    outer loop
      vertex 2.25977 -1.20787 2.1
      vertex 2.25978 -1.20788 2.1
      vertex 2.452 -0.743805 2.1
    endloop
  endfacet
  facet normal 0 0 1
    outer loop
      vertex 2.03117 -1.54999 2.1
      vertex 2.25978 -1.20788 2.1
      vertex 2.25977 -1.20787 2.1
    endloop
  endfacet
  facet normal -0 0 1
    outer loop
      vertex 2.03117 -1.54999 2.1
      vertex 1.98071 -1.62553 2.1
      vertex 2.25978 -1.20788 2.1
    endloop
  endfacet
  facet normal 0 0 1
    outer loop
      vertex 2.03117 -1.54999 2.1
      vertex 1.62553 -1.98071 2.1
      vertex 1.98071 -1.62553 2.1
    endloop
  endfacet
  facet normal 0 0 1
    outer loop
      vertex 2.03117 -1.54999 2.1
      vertex 1.20788 -2.25978 2.1
      vertex 1.62553 -1.98071 2.1
    endloop
  endfacet
  facet normal 0 0 1
    outer loop
      vertex 2.03117 -1.54999 2.1
      vertex 0.743807 -2.452 2.1
      vertex 1.20788 -2.25978 2.1
    endloop
  endfacet
  facet normal 0 0 1
    outer loop
      vertex 2.03117 -1.54999 2.1
      vertex 0.251153 -2.55 2.1
      vertex 0.743807 -2.452 2.1
    endloop
  endfacet
  facet normal 0 0 1
    outer loop
      vertex 2.03117 -1.54999 2.1
      vertex -0.251153 -2.55 2.1
      vertex 0.251153 -2.55 2.1
    endloop
  endfacet
  facet normal 0 0 1
    outer loop
      vertex 2.03117 -1.54999 2.1
      vertex -0.743807 -2.452 2.1
      vertex -0.251153 -2.55 2.1
    endloop
  endfacet
  facet normal 0 0 1
    outer loop
      vertex 2.03117 -1.54999 2.1
      vertex -1.20788 -2.25978 2.1
      vertex -0.743807 -2.452 2.1
    endloop
  endfacet
  facet normal -0 0 1
    outer loop
      vertex -2.03117 -1.54999 2.1
      vertex -1.20788 -2.25978 2.1
      vertex 2.03117 -1.54999 2.1
    endloop
  endfacet
  facet normal 0 0 1
    outer loop
      vertex -1.20788 -2.25978 2.1
      vertex -2.03117 -1.54999 2.1
      vertex -1.62553 -1.98071 2.1
    endloop
  endfacet
  facet normal 0 0 1
    outer loop
      vertex -1.62553 -1.98071 2.1
      vertex -2.03117 -1.54999 2.1
      vertex -1.98071 -1.62553 2.1
    endloop
  endfacet
  facet normal -0 0 1
    outer loop
      vertex -2.25978 -1.20788 2.1
      vertex -2.03117 -1.54999 2.1
      vertex -2.25977 -1.20787 2.1
    endloop
  endfacet
  facet normal 0 0 1
    outer loop
      vertex -2.03117 -1.54999 2.1
      vertex -2.25978 -1.20788 2.1
      vertex -1.98071 -1.62553 2.1
    endloop
  endfacet
  facet normal 0 0 1
    outer loop
      vertex -2.452 -0.743805 2.1
      vertex -2.25978 -1.20788 2.1
      vertex -2.25977 -1.20787 2.1
    endloop
  endfacet
  facet normal 0 0 1
    outer loop
      vertex -2.452 -0.743805 2.1
      vertex -2.452 -0.743807 2.1
      vertex -2.25978 -1.20788 2.1
    endloop
  endfacet
  facet normal 0 0 1
    outer loop
      vertex -2.50049 -0.5 2.1
      vertex -2.452 -0.743807 2.1
      vertex -2.452 -0.743805 2.1
    endloop
  endfacet
  facet normal 0 0 1
    outer loop
      vertex -2.452 -0.743807 2.1
      vertex -2.50049 -0.5 2.1
      vertex -2.5005 -0.5 2.1
    endloop
  endfacet
  facet normal 0.923879 0.382684 0
    outer loop
      vertex -2.25978 -1.20788 3.5
      vertex -2.452 -0.743807 2.1
      vertex -2.452 -0.743807 3.5
    endloop
  endfacet
  facet normal 0.923879 0.382684 0
    outer loop
      vertex -2.452 -0.743807 2.1
      vertex -2.25978 -1.20788 3.5
      vertex -2.25978 -1.20788 2.1
    endloop
  endfacet
  facet normal 0.707107 0.707107 0
    outer loop
      vertex -1.62553 -1.98071 3.5
      vertex -1.98071 -1.62553 2.1
      vertex -1.98071 -1.62553 3.5
    endloop
  endfacet
  facet normal 0.707107 0.707107 0
    outer loop
      vertex -1.98071 -1.62553 2.1
      vertex -1.62553 -1.98071 3.5
      vertex -1.62553 -1.98071 2.1
    endloop
  endfacet
  facet normal 0.83147 0.555569 0
    outer loop
      vertex -1.98071 -1.62553 3.5
      vertex -2.25978 -1.20788 2.1
      vertex -2.25978 -1.20788 3.5
    endloop
  endfacet
  facet normal 0.83147 0.555569 0
    outer loop
      vertex -2.25978 -1.20788 2.1
      vertex -1.98071 -1.62553 3.5
      vertex -1.98071 -1.62553 2.1
    endloop
  endfacet
  facet normal -0.555569 0.83147 0
    outer loop
      vertex 1.62553 -1.98071 2.1
      vertex 1.20788 -2.25978 3.5
      vertex 1.62553 -1.98071 3.5
    endloop
  endfacet
  facet normal -0.555569 0.83147 0
    outer loop
      vertex 1.20788 -2.25978 3.5
      vertex 1.62553 -1.98071 2.1
      vertex 1.20788 -2.25978 2.1
    endloop
  endfacet
  facet normal -0.19509 0.980785 0
    outer loop
      vertex 0.743807 -2.452 2.1
      vertex 0.251153 -2.55 3.5
      vertex 0.743807 -2.452 3.5
    endloop
  endfacet
  facet normal -0.19509 0.980785 0
    outer loop
      vertex 0.251153 -2.55 3.5
      vertex 0.743807 -2.452 2.1
      vertex 0.251153 -2.55 2.1
    endloop
  endfacet
  facet normal 0 0 -1
    outer loop
      vertex 2.452 -0.743805 -3.5
      vertex 4.09999 -0.815536 -3.5
      vertex 3.4758 -2.32245 -3.5
    endloop
  endfacet
  facet normal 0 0 -1
    outer loop
      vertex 4.09999 -0.815536 -3.5
      vertex 2.54999 -0.251144 -3.5
      vertex 4.09999 0.815536 -3.5
    endloop
  endfacet
  facet normal 0 0 -1
    outer loop
      vertex 2.54999 0.251144 -3.5
      vertex 4.09999 0.815536 -3.5
      vertex 2.54999 -0.251144 -3.5
    endloop
  endfacet
  facet normal 0 0 -1
    outer loop
      vertex 4.09999 -0.815536 -3.5
      vertex 2.452 -0.743805 -3.5
      vertex 2.54999 -0.251144 -3.5
    endloop
  endfacet
  facet normal 0 0 -1
    outer loop
      vertex 2.03117 -1.54999 -3.5
      vertex 3.4758 -2.32245 -3.5
      vertex 2.32245 -3.4758 -3.5
    endloop
  endfacet
  facet normal 0 0 -1
    outer loop
      vertex 3.4758 -2.32245 -3.5
      vertex 2.25977 -1.20787 -3.5
      vertex 2.452 -0.743805 -3.5
    endloop
  endfacet
  facet normal 0 0 -1
    outer loop
      vertex 3.4758 -2.32245 -3.5
      vertex 2.03117 -1.54999 -3.5
      vertex 2.25977 -1.20787 -3.5
    endloop
  endfacet
  facet normal 0 0 -1
    outer loop
      vertex 1.09999 -4.09999 -3.5
      vertex 2.03117 -1.54999 -3.5
      vertex 2.32245 -3.4758 -3.5
    endloop
  endfacet
  facet normal 0 0 -1
    outer loop
      vertex 1.09999 -4.09999 -3.5
      vertex -2.03117 -1.54999 -3.5
      vertex 2.03117 -1.54999 -3.5
    endloop
  endfacet
  facet normal 0 0 -1
    outer loop
      vertex -9.39999 -4.09999 -3.5
      vertex -2.03117 -1.54999 -3.5
      vertex 1.09999 -4.09999 -3.5
    endloop
  endfacet
  facet normal 0 0 -1
    outer loop
      vertex -9.39999 -4.09999 -3.5
      vertex -2.25977 -1.20787 -3.5
      vertex -2.03117 -1.54999 -3.5
    endloop
  endfacet
  facet normal 0 0 -1
    outer loop
      vertex -9.39999 -4.09999 -3.5
      vertex -2.452 -0.743805 -3.5
      vertex -2.25977 -1.20787 -3.5
    endloop
  endfacet
  facet normal 0 0 -1
    outer loop
      vertex -9.39999 -0.5 -3.5
      vertex -2.452 -0.743805 -3.5
      vertex -9.39999 -4.09999 -3.5
    endloop
  endfacet
  facet normal 0 0 -1
    outer loop
      vertex -2.452 -0.743805 -3.5
      vertex -9.39999 -0.5 -3.5
      vertex -2.50049 -0.5 -3.5
    endloop
  endfacet
  facet normal 0 0 -1
    outer loop
      vertex 2.452 0.743805 -3.5
      vertex 4.09999 0.815536 -3.5
      vertex 2.54999 0.251144 -3.5
    endloop
  endfacet
  facet normal -0 0 -1
    outer loop
      vertex 4.09999 0.815536 -3.5
      vertex 2.452 0.743805 -3.5
      vertex 3.4758 2.32245 -3.5
    endloop
  endfacet
  facet normal 0 0 -1
    outer loop
      vertex 2.25977 1.20787 -3.5
      vertex 3.4758 2.32245 -3.5
      vertex 2.452 0.743805 -3.5
    endloop
  endfacet
  facet normal 0 0 -1
    outer loop
      vertex 2.03117 1.54999 -3.5
      vertex 3.4758 2.32245 -3.5
      vertex 2.25977 1.20787 -3.5
    endloop
  endfacet
  facet normal -0 0 -1
    outer loop
      vertex 3.4758 2.32245 -3.5
      vertex 2.03117 1.54999 -3.5
      vertex 2.32245 3.4758 -3.5
    endloop
  endfacet
  facet normal 0 0 -1
    outer loop
      vertex 2.03117 1.54999 -3.5
      vertex 1.09999 4.09999 -3.5
      vertex 2.32245 3.4758 -3.5
    endloop
  endfacet
  facet normal 0 0 -1
    outer loop
      vertex -2.03117 1.54999 -3.5
      vertex 1.09999 4.09999 -3.5
      vertex 2.03117 1.54999 -3.5
    endloop
  endfacet
  facet normal 0 0 -1
    outer loop
      vertex -9.39999 0.5 -3.5
      vertex -2.452 0.743805 -3.5
      vertex -2.50049 0.5 -3.5
    endloop
  endfacet
  facet normal 0 0 -1
    outer loop
      vertex -9.39999 4.09999 -3.5
      vertex -2.452 0.743805 -3.5
      vertex -9.39999 0.5 -3.5
    endloop
  endfacet
  facet normal 0 0 -1
    outer loop
      vertex -2.452 0.743805 -3.5
      vertex -9.39999 4.09999 -3.5
      vertex -2.25977 1.20787 -3.5
    endloop
  endfacet
  facet normal 0 0 -1
    outer loop
      vertex -2.25977 1.20787 -3.5
      vertex -9.39999 4.09999 -3.5
      vertex -2.03117 1.54999 -3.5
    endloop
  endfacet
  facet normal 0 0 -1
    outer loop
      vertex -2.03117 1.54999 -3.5
      vertex -9.39999 4.09999 -3.5
      vertex 1.09999 4.09999 -3.5
    endloop
  endfacet
  facet normal 0 0 1
    outer loop
      vertex 2.452 0.743807 3.5
      vertex 4.09999 0.815536 3.5
      vertex 3.4758 2.32245 3.5
    endloop
  endfacet
  facet normal 0 0 1
    outer loop
      vertex 4.09999 0.815536 3.5
      vertex 2.55 0.251153 3.5
      vertex 4.09999 -0.815536 3.5
    endloop
  endfacet
  facet normal -0 0 1
    outer loop
      vertex 2.55 -0.251153 3.5
      vertex 4.09999 -0.815536 3.5
      vertex 2.55 0.251153 3.5
    endloop
  endfacet
  facet normal 0 0 1
    outer loop
      vertex 4.09999 0.815536 3.5
      vertex 2.452 0.743807 3.5
      vertex 2.55 0.251153 3.5
    endloop
  endfacet
  facet normal 0 0 1
    outer loop
      vertex 1.98071 1.62553 3.5
      vertex 3.4758 2.32245 3.5
      vertex 2.32245 3.4758 3.5
    endloop
  endfacet
  facet normal 0 0 1
    outer loop
      vertex 3.4758 2.32245 3.5
      vertex 2.25978 1.20788 3.5
      vertex 2.452 0.743807 3.5
    endloop
  endfacet
  facet normal 0 0 1
    outer loop
      vertex 3.4758 2.32245 3.5
      vertex 1.98071 1.62553 3.5
      vertex 2.25978 1.20788 3.5
    endloop
  endfacet
  facet normal 0 0 1
    outer loop
      vertex 2.32245 3.4758 3.5
      vertex 1.62553 1.98071 3.5
      vertex 1.98071 1.62553 3.5
    endloop
  endfacet
  facet normal 0 0 1
    outer loop
      vertex 2.32245 3.4758 3.5
      vertex 1.20788 2.25978 3.5
      vertex 1.62553 1.98071 3.5
    endloop
  endfacet
  facet normal 0 0 1
    outer loop
      vertex 1.09999 4.09999 3.5
      vertex 1.20788 2.25978 3.5
      vertex 2.32245 3.4758 3.5
    endloop
  endfacet
  facet normal 0 0 1
    outer loop
      vertex 1.09999 4.09999 3.5
      vertex 0.743807 2.452 3.5
      vertex 1.20788 2.25978 3.5
    endloop
  endfacet
  facet normal 0 0 1
    outer loop
      vertex 1.09999 4.09999 3.5
      vertex 0.251153 2.55 3.5
      vertex 0.743807 2.452 3.5
    endloop
  endfacet
  facet normal 0 0 1
    outer loop
      vertex 1.09999 4.09999 3.5
      vertex -0.251153 2.55 3.5
      vertex 0.251153 2.55 3.5
    endloop
  endfacet
  facet normal 0 0 1
    outer loop
      vertex 1.09999 4.09999 3.5
      vertex -0.743807 2.452 3.5
      vertex -0.251153 2.55 3.5
    endloop
  endfacet
  facet normal 0 0 1
    outer loop
      vertex 1.09999 4.09999 3.5
      vertex -1.20788 2.25978 3.5
      vertex -0.743807 2.452 3.5
    endloop
  endfacet
  facet normal -0 0 1
    outer loop
      vertex -9.39999 4.09999 3.5
      vertex -1.20788 2.25978 3.5
      vertex 1.09999 4.09999 3.5
    endloop
  endfacet
  facet normal 0 0 1
    outer loop
      vertex -1.20788 2.25978 3.5
      vertex -9.39999 4.09999 3.5
      vertex -1.62553 1.98071 3.5
    endloop
  endfacet
  facet normal 0 0 1
    outer loop
      vertex -9.39999 4.09999 3.5
      vertex -1.98071 1.62553 3.5
      vertex -1.62553 1.98071 3.5
    endloop
  endfacet
  facet normal 0 0 1
    outer loop
      vertex -9.39999 4.09999 3.5
      vertex -2.25978 1.20788 3.5
      vertex -1.98071 1.62553 3.5
    endloop
  endfacet
  facet normal 0 0 1
    outer loop
      vertex -9.39999 4.09999 3.5
      vertex -2.452 0.743807 3.5
      vertex -2.25978 1.20788 3.5
    endloop
  endfacet
  facet normal 0 0 1
    outer loop
      vertex -9.39999 0.5 3.5
      vertex -2.452 0.743807 3.5
      vertex -9.39999 4.09999 3.5
    endloop
  endfacet
  facet normal 0 0 1
    outer loop
      vertex -2.452 0.743807 3.5
      vertex -9.39999 0.5 3.5
      vertex -2.5005 0.5 3.5
    endloop
  endfacet
  facet normal -0 0 1
    outer loop
      vertex 2.452 -0.743807 3.5
      vertex 4.09999 -0.815536 3.5
      vertex 2.55 -0.251153 3.5
    endloop
  endfacet
  facet normal 0 0 1
    outer loop
      vertex 4.09999 -0.815536 3.5
      vertex 2.452 -0.743807 3.5
      vertex 3.4758 -2.32245 3.5
    endloop
  endfacet
  facet normal -0 0 1
    outer loop
      vertex 2.25978 -1.20788 3.5
      vertex 3.4758 -2.32245 3.5
      vertex 2.452 -0.743807 3.5
    endloop
  endfacet
  facet normal -0 0 1
    outer loop
      vertex 1.98071 -1.62553 3.5
      vertex 3.4758 -2.32245 3.5
      vertex 2.25978 -1.20788 3.5
    endloop
  endfacet
  facet normal 0 0 1
    outer loop
      vertex 3.4758 -2.32245 3.5
      vertex 1.98071 -1.62553 3.5
      vertex 2.32245 -3.4758 3.5
    endloop
  endfacet
  facet normal -0 0 1
    outer loop
      vertex 1.62553 -1.98071 3.5
      vertex 2.32245 -3.4758 3.5
      vertex 1.98071 -1.62553 3.5
    endloop
  endfacet
  facet normal -0 0 1
    outer loop
      vertex 1.20788 -2.25978 3.5
      vertex 2.32245 -3.4758 3.5
      vertex 1.62553 -1.98071 3.5
    endloop
  endfacet
  facet normal 0 0 1
    outer loop
      vertex 1.20788 -2.25978 3.5
      vertex 1.09999 -4.09999 3.5
      vertex 2.32245 -3.4758 3.5
    endloop
  endfacet
  facet normal -0 0 1
    outer loop
      vertex 0.743807 -2.452 3.5
      vertex 1.09999 -4.09999 3.5
      vertex 1.20788 -2.25978 3.5
    endloop
  endfacet
  facet normal -0 0 1
    outer loop
      vertex 0.251153 -2.55 3.5
      vertex 1.09999 -4.09999 3.5
      vertex 0.743807 -2.452 3.5
    endloop
  endfacet
  facet normal -0 0 1
    outer loop
      vertex -0.251153 -2.55 3.5
      vertex 1.09999 -4.09999 3.5
      vertex 0.251153 -2.55 3.5
    endloop
  endfacet
  facet normal 0 0 1
    outer loop
      vertex -0.743807 -2.452 3.5
      vertex 1.09999 -4.09999 3.5
      vertex -0.251153 -2.55 3.5
    endloop
  endfacet
  facet normal 0 0 1
    outer loop
      vertex -1.20788 -2.25978 3.5
      vertex 1.09999 -4.09999 3.5
      vertex -0.743807 -2.452 3.5
    endloop
  endfacet
  facet normal 0 0 1
    outer loop
      vertex -9.39999 -4.09999 3.5
      vertex -1.20788 -2.25978 3.5
      vertex -1.62553 -1.98071 3.5
    endloop
  endfacet
  facet normal -0 0 1
    outer loop
      vertex -9.39999 -0.5 3.5
      vertex -2.452 -0.743807 3.5
      vertex -2.5005 -0.5 3.5
    endloop
  endfacet
  facet normal 0 0 1
    outer loop
      vertex -9.39999 -4.09999 3.5
      vertex -2.452 -0.743807 3.5
      vertex -9.39999 -0.5 3.5
    endloop
  endfacet
  facet normal 0 0 1
    outer loop
      vertex -2.452 -0.743807 3.5
      vertex -9.39999 -4.09999 3.5
      vertex -2.25978 -1.20788 3.5
    endloop
  endfacet
  facet normal 0 0 1
    outer loop
      vertex -2.25978 -1.20788 3.5
      vertex -9.39999 -4.09999 3.5
      vertex -1.98071 -1.62553 3.5
    endloop
  endfacet
  facet normal 0 0 1
    outer loop
      vertex -1.98071 -1.62553 3.5
      vertex -9.39999 -4.09999 3.5
      vertex -1.62553 -1.98071 3.5
    endloop
  endfacet
  facet normal 0 0 1
    outer loop
      vertex -1.20788 -2.25978 3.5
      vertex -9.39999 -4.09999 3.5
      vertex 1.09999 -4.09999 3.5
    endloop
  endfacet
  facet normal 0.707107 -0.707107 0
    outer loop
      vertex 2.32245 -3.4758 3.5
      vertex 3.4758 -2.32245 -3.5
      vertex 3.4758 -2.32245 3.5
    endloop
  endfacet
  facet normal 0.707107 -0.707107 0
    outer loop
      vertex 3.4758 -2.32245 -3.5
      vertex 2.32245 -3.4758 3.5
      vertex 2.32245 -3.4758 -3.5
    endloop
  endfacet
  facet normal 0.923878 -0.382688 0
    outer loop
      vertex 3.4758 -2.32245 3.5
      vertex 4.09999 -0.815536 -3.5
      vertex 4.09999 -0.815536 3.5
    endloop
  endfacet
  facet normal 0.923878 -0.382688 0
    outer loop
      vertex 4.09999 -0.815536 -3.5
      vertex 3.4758 -2.32245 3.5
      vertex 3.4758 -2.32245 -3.5
    endloop
  endfacet
  facet normal 1 -0 0
    outer loop
      vertex 4.09999 -0.815536 3.5
      vertex 4.09999 0.815536 -3.5
      vertex 4.09999 0.815536 3.5
    endloop
  endfacet
  facet normal 1 0 0
    outer loop
      vertex 4.09999 0.815536 -3.5
      vertex 4.09999 -0.815536 3.5
      vertex 4.09999 -0.815536 -3.5
    endloop
  endfacet
  facet normal 0.923878 0.382688 0
    outer loop
      vertex 4.09999 0.815536 3.5
      vertex 3.4758 2.32245 -3.5
      vertex 3.4758 2.32245 3.5
    endloop
  endfacet
  facet normal 0.923878 0.382688 0
    outer loop
      vertex 3.4758 2.32245 -3.5
      vertex 4.09999 0.815536 3.5
      vertex 4.09999 0.815536 -3.5
    endloop
  endfacet
  facet normal 0.707107 0.707107 0
    outer loop
      vertex 3.4758 2.32245 3.5
      vertex 2.32245 3.4758 -3.5
      vertex 2.32245 3.4758 3.5
    endloop
  endfacet
  facet normal 0.707107 0.707107 0
    outer loop
      vertex 2.32245 3.4758 -3.5
      vertex 3.4758 2.32245 3.5
      vertex 3.4758 2.32245 -3.5
    endloop
  endfacet
  facet normal 0.454753 0.890618 -0
    outer loop
      vertex 2.32245 3.4758 -3.5
      vertex 1.09999 4.09999 3.5
      vertex 2.32245 3.4758 3.5
    endloop
  endfacet
  facet normal 0.454753 0.890618 0
    outer loop
      vertex 1.09999 4.09999 3.5
      vertex 2.32245 3.4758 -3.5
      vertex 1.09999 4.09999 -3.5
    endloop
  endfacet
  facet normal 0 1 0
    outer loop
      vertex 1.09999 4.09999 3.5
      vertex -3.50797 4.09999 1.55
      vertex -9.39999 4.09999 3.5
    endloop
  endfacet
  facet normal 0 1 0
    outer loop
      vertex 1.09999 4.09999 3.5
      vertex -2.6 4.09999 0.642031
      vertex -3.50797 4.09999 1.55
    endloop
  endfacet
  facet normal 0 1 0
    outer loop
      vertex 1.09999 4.09999 3.5
      vertex -2.6 4.09999 -0.642031
      vertex -2.6 4.09999 0.642031
    endloop
  endfacet
  facet normal 0 1 0
    outer loop
      vertex -3.50797 4.09999 -1.55
      vertex 1.09999 4.09999 -3.5
      vertex -4.79203 4.09999 -1.55
    endloop
  endfacet
  facet normal 0 1 0
    outer loop
      vertex -2.6 4.09999 -0.642031
      vertex 1.09999 4.09999 -3.5
      vertex -3.50797 4.09999 -1.55
    endloop
  endfacet
  facet normal 0 1 -0
    outer loop
      vertex 1.09999 4.09999 -3.5
      vertex -2.6 4.09999 -0.642031
      vertex 1.09999 4.09999 3.5
    endloop
  endfacet
  facet normal 0 1 -0
    outer loop
      vertex -4.79203 4.09999 1.55
      vertex -9.39999 4.09999 3.5
      vertex -3.50797 4.09999 1.55
    endloop
  endfacet
  facet normal 0 1 -0
    outer loop
      vertex -5.7 4.09999 0.642031
      vertex -9.39999 4.09999 3.5
      vertex -4.79203 4.09999 1.55
    endloop
  endfacet
  facet normal 0 1 -0
    outer loop
      vertex -5.7 4.09999 -0.642031
      vertex -9.39999 4.09999 3.5
      vertex -5.7 4.09999 0.642031
    endloop
  endfacet
  facet normal 0 1 0
    outer loop
      vertex -5.7 4.09999 -0.642031
      vertex -9.39999 4.09999 -3.5
      vertex -9.39999 4.09999 3.5
    endloop
  endfacet
  facet normal 0 1 0
    outer loop
      vertex -4.79203 4.09999 -1.55
      vertex -9.39999 4.09999 -3.5
      vertex -5.7 4.09999 -0.642031
    endloop
  endfacet
  facet normal 0 1 0
    outer loop
      vertex -9.39999 4.09999 -3.5
      vertex -4.79203 4.09999 -1.55
      vertex 1.09999 4.09999 -3.5
    endloop
  endfacet
  facet normal -1 0 0
    outer loop
      vertex -9.39999 0.5 -3.5
      vertex -9.39999 4.09999 3.5
      vertex -9.39999 4.09999 -3.5
    endloop
  endfacet
  facet normal -1 -0 0
    outer loop
      vertex -9.39999 4.09999 3.5
      vertex -9.39999 0.5 -3.5
      vertex -9.39999 0.5 3.5
    endloop
  endfacet
  facet normal 0 -1 0
    outer loop
      vertex -4.79203 0.5 1.55
      vertex -2.5005 0.5 3.5
      vertex -9.39999 0.5 3.5
    endloop
  endfacet
  facet normal 0 -1 -0
    outer loop
      vertex -2.5005 0.5 3.5
      vertex -3.50797 0.5 1.55
      vertex -2.5005 0.5 2.1
    endloop
  endfacet
  facet normal 0 -1 0
    outer loop
      vertex -3.50797 0.5 1.55
      vertex -2.5005 0.5 3.5
      vertex -4.79203 0.5 1.55
    endloop
  endfacet
  facet normal 0 -1 0
    outer loop
      vertex -9.39999 0.5 3.5
      vertex -5.7 0.5 0.642031
      vertex -4.79203 0.5 1.55
    endloop
  endfacet
  facet normal 0 -1 0
    outer loop
      vertex -9.39999 0.5 3.5
      vertex -5.7 0.5 -0.642031
      vertex -5.7 0.5 0.642031
    endloop
  endfacet
  facet normal 0 -1 0
    outer loop
      vertex -2.50049 0.5 -3.5
      vertex -4.79203 0.5 -1.55
      vertex -9.39999 0.5 -3.5
    endloop
  endfacet
  facet normal 0 -1 -0
    outer loop
      vertex -5.7 0.5 -0.642031
      vertex -9.39999 0.5 -3.5
      vertex -4.79203 0.5 -1.55
    endloop
  endfacet
  facet normal 0 -1 0
    outer loop
      vertex -9.39999 0.5 -3.5
      vertex -5.7 0.5 -0.642031
      vertex -9.39999 0.5 3.5
    endloop
  endfacet
  facet normal 0 -1 0
    outer loop
      vertex -2.6 0.5 0.642031
      vertex -2.5005 0.5 2.1
      vertex -3.50797 0.5 1.55
    endloop
  endfacet
  facet normal 0 -1 -0
    outer loop
      vertex -2.5005 0.5 2.1
      vertex -2.6 0.5 0.642031
      vertex -2.50049 0.5 2.1
    endloop
  endfacet
  facet normal 0 -1 0
    outer loop
      vertex -2.6 0.5 -0.642031
      vertex -2.50049 0.5 2.1
      vertex -2.6 0.5 0.642031
    endloop
  endfacet
  facet normal 0 -1 0
    outer loop
      vertex -2.6 0.5 -0.642031
      vertex -2.50049 0.5 -3.5
      vertex -2.50049 0.5 2.1
    endloop
  endfacet
  facet normal 0 -1 0
    outer loop
      vertex -3.50797 0.5 -1.55
      vertex -2.50049 0.5 -3.5
      vertex -2.6 0.5 -0.642031
    endloop
  endfacet
  facet normal 0 -1 0
    outer loop
      vertex -4.79203 0.5 -1.55
      vertex -2.50049 0.5 -3.5
      vertex -3.50797 0.5 -1.55
    endloop
  endfacet
  facet normal 0.980788 -0.195077 0
    outer loop
      vertex -2.50049 0.5 2.1
      vertex -2.452 0.743805 -3.5
      vertex -2.452 0.743805 2.1
    endloop
  endfacet
  facet normal 0.980788 -0.195077 0
    outer loop
      vertex -2.452 0.743805 -3.5
      vertex -2.50049 0.5 2.1
      vertex -2.50049 0.5 -3.5
    endloop
  endfacet
  facet normal 0.923874 -0.382697 0
    outer loop
      vertex -2.452 0.743805 2.1
      vertex -2.25977 1.20787 -3.5
      vertex -2.25977 1.20787 2.1
    endloop
  endfacet
  facet normal 0.923874 -0.382697 0
    outer loop
      vertex -2.25977 1.20787 -3.5
      vertex -2.452 0.743805 2.1
      vertex -2.452 0.743805 -3.5
    endloop
  endfacet
  facet normal 0.831474 -0.555564 0
    outer loop
      vertex -2.25977 1.20787 2.1
      vertex -2.03117 1.54999 -3.5
      vertex -2.03117 1.54999 2.1
    endloop
  endfacet
  facet normal 0.831474 -0.555564 0
    outer loop
      vertex -2.03117 1.54999 -3.5
      vertex -2.25977 1.20787 2.1
      vertex -2.25977 1.20787 -3.5
    endloop
  endfacet
  facet normal 0 -1 0
    outer loop
      vertex -2.03117 1.54999 -3.5
      vertex 2.03117 1.54999 2.1
      vertex -2.03117 1.54999 2.1
    endloop
  endfacet
  facet normal 0 -1 -0
    outer loop
      vertex 2.03117 1.54999 2.1
      vertex -2.03117 1.54999 -3.5
      vertex 2.03117 1.54999 -3.5
    endloop
  endfacet
  facet normal -0.831474 -0.555564 0
    outer loop
      vertex 2.25977 1.20787 -3.5
      vertex 2.03117 1.54999 2.1
      vertex 2.03117 1.54999 -3.5
    endloop
  endfacet
  facet normal -0.831474 -0.555564 0
    outer loop
      vertex 2.03117 1.54999 2.1
      vertex 2.25977 1.20787 -3.5
      vertex 2.25977 1.20787 2.1
    endloop
  endfacet
  facet normal -0.923874 -0.382697 0
    outer loop
      vertex 2.452 0.743805 -3.5
      vertex 2.25977 1.20787 2.1
      vertex 2.25977 1.20787 -3.5
    endloop
  endfacet
  facet normal -0.923874 -0.382697 0
    outer loop
      vertex 2.25977 1.20787 2.1
      vertex 2.452 0.743805 -3.5
      vertex 2.452 0.743805 2.1
    endloop
  endfacet
  facet normal -0.980787 -0.195082 0
    outer loop
      vertex 2.54999 0.251144 -3.5
      vertex 2.452 0.743805 2.1
      vertex 2.452 0.743805 -3.5
    endloop
  endfacet
  facet normal -0.980787 -0.195082 0
    outer loop
      vertex 2.452 0.743805 2.1
      vertex 2.54999 0.251144 -3.5
      vertex 2.54999 0.251144 2.1
    endloop
  endfacet
  facet normal -1 0 0
    outer loop
      vertex 2.54999 -0.251144 -3.5
      vertex 2.54999 0.251144 2.1
      vertex 2.54999 0.251144 -3.5
    endloop
  endfacet
  facet normal -1 -0 0
    outer loop
      vertex 2.54999 0.251144 2.1
      vertex 2.54999 -0.251144 -3.5
      vertex 2.54999 -0.251144 2.1
    endloop
  endfacet
  facet normal -0.980787 0.195082 0
    outer loop
      vertex 2.452 -0.743805 -3.5
      vertex 2.54999 -0.251144 2.1
      vertex 2.54999 -0.251144 -3.5
    endloop
  endfacet
  facet normal -0.980787 0.195082 0
    outer loop
      vertex 2.54999 -0.251144 2.1
      vertex 2.452 -0.743805 -3.5
      vertex 2.452 -0.743805 2.1
    endloop
  endfacet
  facet normal -0.923874 0.382697 0
    outer loop
      vertex 2.25977 -1.20787 -3.5
      vertex 2.452 -0.743805 2.1
      vertex 2.452 -0.743805 -3.5
    endloop
  endfacet
  facet normal -0.923874 0.382697 0
    outer loop
      vertex 2.452 -0.743805 2.1
      vertex 2.25977 -1.20787 -3.5
      vertex 2.25977 -1.20787 2.1
    endloop
  endfacet
  facet normal -0.831474 0.555564 0
    outer loop
      vertex 2.03117 -1.54999 -3.5
      vertex 2.25977 -1.20787 2.1
      vertex 2.25977 -1.20787 -3.5
    endloop
  endfacet
  facet normal -0.831474 0.555564 0
    outer loop
      vertex 2.25977 -1.20787 2.1
      vertex 2.03117 -1.54999 -3.5
      vertex 2.03117 -1.54999 2.1
    endloop
  endfacet
  facet normal 0 1 -0
    outer loop
      vertex 2.03117 -1.54999 -3.5
      vertex -2.03117 -1.54999 2.1
      vertex 2.03117 -1.54999 2.1
    endloop
  endfacet
  facet normal 0 1 0
    outer loop
      vertex -2.03117 -1.54999 2.1
      vertex 2.03117 -1.54999 -3.5
      vertex -2.03117 -1.54999 -3.5
    endloop
  endfacet
  facet normal 0.831474 0.555564 0
    outer loop
      vertex -2.03117 -1.54999 2.1
      vertex -2.25977 -1.20787 -3.5
      vertex -2.25977 -1.20787 2.1
    endloop
  endfacet
  facet normal 0.831474 0.555564 0
    outer loop
      vertex -2.25977 -1.20787 -3.5
      vertex -2.03117 -1.54999 2.1
      vertex -2.03117 -1.54999 -3.5
    endloop
  endfacet
  facet normal 0.923874 0.382697 0
    outer loop
      vertex -2.25977 -1.20787 2.1
      vertex -2.452 -0.743805 -3.5
      vertex -2.452 -0.743805 2.1
    endloop
  endfacet
  facet normal 0.923874 0.382697 0
    outer loop
      vertex -2.452 -0.743805 -3.5
      vertex -2.25977 -1.20787 2.1
      vertex -2.25977 -1.20787 -3.5
    endloop
  endfacet
  facet normal 0.980788 0.195077 0
    outer loop
      vertex -2.452 -0.743805 2.1
      vertex -2.50049 -0.5 -3.5
      vertex -2.50049 -0.5 2.1
    endloop
  endfacet
  facet normal 0.980788 0.195077 0
    outer loop
      vertex -2.50049 -0.5 -3.5
      vertex -2.452 -0.743805 2.1
      vertex -2.452 -0.743805 -3.5
    endloop
  endfacet
  facet normal 0 1 0
    outer loop
      vertex -2.6 -0.5 0.642031
      vertex -2.5005 -0.5 2.1
      vertex -2.50049 -0.5 2.1
    endloop
  endfacet
  facet normal 0 1 0
    outer loop
      vertex -2.5005 -0.5 2.1
      vertex -2.6 -0.5 0.642031
      vertex -3.50797 -0.5 1.55
    endloop
  endfacet
  facet normal 0 1 0
    outer loop
      vertex -2.50049 -0.5 2.1
      vertex -2.6 -0.5 -0.642031
      vertex -2.6 -0.5 0.642031
    endloop
  endfacet
  facet normal 0 1 0
    outer loop
      vertex -3.50797 -0.5 -1.55
      vertex -2.50049 -0.5 -3.5
      vertex -4.79203 -0.5 -1.55
    endloop
  endfacet
  facet normal 0 1 0
    outer loop
      vertex -2.6 -0.5 -0.642031
      vertex -2.50049 -0.5 -3.5
      vertex -3.50797 -0.5 -1.55
    endloop
  endfacet
  facet normal 0 1 -0
    outer loop
      vertex -2.50049 -0.5 -3.5
      vertex -2.6 -0.5 -0.642031
      vertex -2.50049 -0.5 2.1
    endloop
  endfacet
  facet normal 0 1 0
    outer loop
      vertex -3.50797 -0.5 1.55
      vertex -2.5005 -0.5 3.5
      vertex -2.5005 -0.5 2.1
    endloop
  endfacet
  facet normal 0 1 0
    outer loop
      vertex -2.5005 -0.5 3.5
      vertex -3.50797 -0.5 1.55
      vertex -4.79203 -0.5 1.55
    endloop
  endfacet
  facet normal 0 1 0
    outer loop
      vertex -2.5005 -0.5 3.5
      vertex -4.79203 -0.5 1.55
      vertex -9.39999 -0.5 3.5
    endloop
  endfacet
  facet normal 0 1 -0
    outer loop
      vertex -5.7 -0.5 0.642031
      vertex -9.39999 -0.5 3.5
      vertex -4.79203 -0.5 1.55
    endloop
  endfacet
  facet normal 0 1 -0
    outer loop
      vertex -5.7 -0.5 -0.642031
      vertex -9.39999 -0.5 3.5
      vertex -5.7 -0.5 0.642031
    endloop
  endfacet
  facet normal 0 1 0
    outer loop
      vertex -5.7 -0.5 -0.642031
      vertex -9.39999 -0.5 -3.5
      vertex -9.39999 -0.5 3.5
    endloop
  endfacet
  facet normal 0 1 0
    outer loop
      vertex -4.79203 -0.5 -1.55
      vertex -9.39999 -0.5 -3.5
      vertex -5.7 -0.5 -0.642031
    endloop
  endfacet
  facet normal 0 1 0
    outer loop
      vertex -9.39999 -0.5 -3.5
      vertex -4.79203 -0.5 -1.55
      vertex -2.50049 -0.5 -3.5
    endloop
  endfacet
  facet normal -1 0 0
    outer loop
      vertex -9.39999 -4.09999 -3.5
      vertex -9.39999 -0.5 3.5
      vertex -9.39999 -0.5 -3.5
    endloop
  endfacet
  facet normal -1 -0 0
    outer loop
      vertex -9.39999 -0.5 3.5
      vertex -9.39999 -4.09999 -3.5
      vertex -9.39999 -4.09999 3.5
    endloop
  endfacet
  facet normal 0 -1 0
    outer loop
      vertex -9.39999 -4.09999 3.5
      vertex -4.79203 -4.09999 1.55
      vertex 1.09999 -4.09999 3.5
    endloop
  endfacet
  facet normal 0 -1 0
    outer loop
      vertex -9.39999 -4.09999 3.5
      vertex -5.7 -4.09999 0.642031
      vertex -4.79203 -4.09999 1.55
    endloop
  endfacet
  facet normal 0 -1 0
    outer loop
      vertex -9.39999 -4.09999 3.5
      vertex -5.7 -4.09999 -0.642031
      vertex -5.7 -4.09999 0.642031
    endloop
  endfacet
  facet normal 0 -1 -0
    outer loop
      vertex -4.79203 -4.09999 -1.55
      vertex -9.39999 -4.09999 -3.5
      vertex -3.50797 -4.09999 -1.55
    endloop
  endfacet
  facet normal 0 -1 -0
    outer loop
      vertex -5.7 -4.09999 -0.642031
      vertex -9.39999 -4.09999 -3.5
      vertex -4.79203 -4.09999 -1.55
    endloop
  endfacet
  facet normal 0 -1 0
    outer loop
      vertex -9.39999 -4.09999 -3.5
      vertex -5.7 -4.09999 -0.642031
      vertex -9.39999 -4.09999 3.5
    endloop
  endfacet
  facet normal 0 -1 0
    outer loop
      vertex -3.50797 -4.09999 1.55
      vertex 1.09999 -4.09999 3.5
      vertex -4.79203 -4.09999 1.55
    endloop
  endfacet
  facet normal 0 -1 0
    outer loop
      vertex -2.6 -4.09999 0.642031
      vertex 1.09999 -4.09999 3.5
      vertex -3.50797 -4.09999 1.55
    endloop
  endfacet
  facet normal 0 -1 0
    outer loop
      vertex -2.6 -4.09999 -0.642031
      vertex 1.09999 -4.09999 3.5
      vertex -2.6 -4.09999 0.642031
    endloop
  endfacet
  facet normal 0 -1 0
    outer loop
      vertex -2.6 -4.09999 -0.642031
      vertex 1.09999 -4.09999 -3.5
      vertex 1.09999 -4.09999 3.5
    endloop
  endfacet
  facet normal 0 -1 0
    outer loop
      vertex -3.50797 -4.09999 -1.55
      vertex 1.09999 -4.09999 -3.5
      vertex -2.6 -4.09999 -0.642031
    endloop
  endfacet
  facet normal 0 -1 0
    outer loop
      vertex 1.09999 -4.09999 -3.5
      vertex -3.50797 -4.09999 -1.55
      vertex -9.39999 -4.09999 -3.5
    endloop
  endfacet
  facet normal 0.454753 -0.890618 0
    outer loop
      vertex 1.09999 -4.09999 -3.5
      vertex 2.32245 -3.4758 3.5
      vertex 1.09999 -4.09999 3.5
    endloop
  endfacet
  facet normal 0.454753 -0.890618 0
    outer loop
      vertex 2.32245 -3.4758 3.5
      vertex 1.09999 -4.09999 -3.5
      vertex 2.32245 -3.4758 -3.5
    endloop
  endfacet
endsolid OpenSCAD_Model
