solid OpenSCAD_Model
  facet normal 0 0 -1
    outer loop
      vertex -10.1707 -9.78947 0
      vertex -2.6 -8.92304 0
      vertex -10.0576 -10.0625 0
    endloop
  endfacet
  facet normal 0 0 -1
    outer loop
      vertex -2.6 -8.92304 0
      vertex -10.0576 2.06245 0
      vertex -10 2.35225 0
    endloop
  endfacet
  facet normal 0 0 -1
    outer loop
      vertex -10.3349 -9.54379 0
      vertex -2.6 -8.92304 0
      vertex -10.1707 -9.78947 0
    endloop
  endfacet
  facet normal 0 0 -1
    outer loop
      vertex -2.6 -8.92304 0
      vertex -10.1707 1.78947 0
      vertex -10.0576 2.06245 0
    endloop
  endfacet
  facet normal 0 0 -1
    outer loop
      vertex -10.5438 -9.33487 0
      vertex -2.6 -8.92304 0
      vertex -10.3349 -9.54379 0
    endloop
  endfacet
  facet normal 0 0 -1
    outer loop
      vertex -2.6 -8.92304 0
      vertex -10.3349 1.54379 0
      vertex -10.1707 1.78947 0
    endloop
  endfacet
  facet normal -0 0 -1
    outer loop
      vertex -2.6 -8.92304 0
      vertex -10.5438 -9.33487 0
      vertex -12.55 -4.65648 0
    endloop
  endfacet
  facet normal 0 0 -1
    outer loop
      vertex -12.55 -3.34352 0
      vertex -2.6 -8.92304 0
      vertex -12.55 -4.65648 0
    endloop
  endfacet
  facet normal 0 0 -1
    outer loop
      vertex -12.55 -4.65648 0
      vertex -10.5438 -9.33487 0
      vertex -10.7895 -9.17072 0
    endloop
  endfacet
  facet normal 0 -0 -1
    outer loop
      vertex -10.5438 1.33487 0
      vertex -2.6 -8.92304 0
      vertex -12.55 -3.34352 0
    endloop
  endfacet
  facet normal 0 0 -1
    outer loop
      vertex -12.55 -4.65648 0
      vertex -10.7895 -9.17072 0
      vertex -11.0625 -9.05763 0
    endloop
  endfacet
  facet normal 0 0 -1
    outer loop
      vertex -2.6 -8.92304 0
      vertex -10.5438 1.33487 0
      vertex -10.3349 1.54379 0
    endloop
  endfacet
  facet normal 0 0 -1
    outer loop
      vertex -12.55 -4.65648 0
      vertex -11.0625 -9.05763 0
      vertex -11.3522 -9 0
    endloop
  endfacet
  facet normal 0 0 -1
    outer loop
      vertex -10.5438 1.33487 0
      vertex -12.55 -3.34352 0
      vertex -10.7895 1.17072 0
    endloop
  endfacet
  facet normal 0 0 -1
    outer loop
      vertex -10.7895 1.17072 0
      vertex -12.55 -3.34352 0
      vertex -11.0625 1.05763 0
    endloop
  endfacet
  facet normal 0 0 -1
    outer loop
      vertex -11.3522 -9 0
      vertex -13.2065 -5.79352 0
      vertex -12.55 -4.65648 0
    endloop
  endfacet
  facet normal 0 0 -1
    outer loop
      vertex -11.3522 -9 0
      vertex -14.3435 -6.45 0
      vertex -13.2065 -5.79352 0
    endloop
  endfacet
  facet normal 0 0 -1
    outer loop
      vertex -11.3522 -9 0
      vertex -15.6565 -6.45 0
      vertex -14.3435 -6.45 0
    endloop
  endfacet
  facet normal 0 0 -1
    outer loop
      vertex -18.6477 -9 0
      vertex -15.6565 -6.45 0
      vertex -11.3522 -9 0
    endloop
  endfacet
  facet normal -0 0 -1
    outer loop
      vertex -16.7935 -5.79352 0
      vertex -20 -7.64774 0
      vertex -17.45 -4.65648 0
    endloop
  endfacet
  facet normal 0 0 -1
    outer loop
      vertex -20 -7.64774 0
      vertex -16.7935 -5.79352 0
      vertex -18.6477 -9 0
    endloop
  endfacet
  facet normal -0 0 -1
    outer loop
      vertex -15.6565 -6.45 0
      vertex -18.6477 -9 0
      vertex -16.7935 -5.79352 0
    endloop
  endfacet
  facet normal 0 0 -1
    outer loop
      vertex 1.07695 -7.4 0
      vertex 2.6 8.92304 0
      vertex 2.6 -8.92304 0
    endloop
  endfacet
  facet normal 0 0 -1
    outer loop
      vertex 1.07695 -7.4 0
      vertex 1.07695 7.4 0
      vertex 2.6 8.92304 0
    endloop
  endfacet
  facet normal 0 0 -1
    outer loop
      vertex -1.07695 -7.4 0
      vertex 1.07695 7.4 0
      vertex 1.07695 -7.4 0
    endloop
  endfacet
  facet normal 0 0 -1
    outer loop
      vertex -1.07695 -7.4 0
      vertex -1.07695 7.4 0
      vertex 1.07695 7.4 0
    endloop
  endfacet
  facet normal 0 0 -1
    outer loop
      vertex -10 2.35225 0
      vertex -1.07695 -7.4 0
      vertex -2.6 -8.92304 0
    endloop
  endfacet
  facet normal 0 0 -1
    outer loop
      vertex -1.07695 -7.4 0
      vertex -10 2.35225 0
      vertex -1.07695 7.4 0
    endloop
  endfacet
  facet normal 0 0 -1
    outer loop
      vertex 7.74622 -22.5 0
      vertex 10 -20.2462 0
      vertex 9.90392 -20.7292 0
    endloop
  endfacet
  facet normal 0 0 -1
    outer loop
      vertex 10 -20.2462 0
      vertex 2.6 8.92304 0
      vertex 10 37.7712 0
    endloop
  endfacet
  facet normal 0 0 -1
    outer loop
      vertex 7.74622 -22.5 0
      vertex 9.90392 -20.7292 0
      vertex 9.71547 -21.1842 0
    endloop
  endfacet
  facet normal 0 0 -1
    outer loop
      vertex 2.6 11.077 0
      vertex 10 37.7712 0
      vertex 2.6 8.92304 0
    endloop
  endfacet
  facet normal 0 0 -1
    outer loop
      vertex 7.74622 -22.5 0
      vertex 9.71547 -21.1842 0
      vertex 9.44186 -21.5936 0
    endloop
  endfacet
  facet normal 0 0 -1
    outer loop
      vertex 1.07695 12.6 0
      vertex 10 37.7712 0
      vertex 2.6 11.077 0
    endloop
  endfacet
  facet normal 0 0 -1
    outer loop
      vertex 7.74622 -22.5 0
      vertex 9.44186 -21.5936 0
      vertex 9.09364 -21.9419 0
    endloop
  endfacet
  facet normal 0 0 -1
    outer loop
      vertex -5 32.825 0
      vertex 10 37.7712 0
      vertex 1.07695 12.6 0
    endloop
  endfacet
  facet normal 0 0 -1
    outer loop
      vertex 7.74622 -22.5 0
      vertex 9.09364 -21.9419 0
      vertex 8.68419 -22.2155 0
    endloop
  endfacet
  facet normal 0 -0 -1
    outer loop
      vertex 7.74622 40.025 0
      vertex 10 37.7712 0
      vertex -5 32.825 0
    endloop
  endfacet
  facet normal 0 0 -1
    outer loop
      vertex 7.74622 -22.5 0
      vertex 8.68419 -22.2155 0
      vertex 8.22922 -22.4039 0
    endloop
  endfacet
  facet normal 0 0 -1
    outer loop
      vertex 10 37.7712 0
      vertex 7.74622 40.025 0
      vertex 9.90392 38.2542 0
    endloop
  endfacet
  facet normal -0 0 -1
    outer loop
      vertex 10 -20.2462 0
      vertex 7.74622 -22.5 0
      vertex 1.07695 -12.6 0
    endloop
  endfacet
  facet normal 0 0 -1
    outer loop
      vertex 9.90392 38.2542 0
      vertex 7.74622 40.025 0
      vertex 9.71547 38.7092 0
    endloop
  endfacet
  facet normal 0 0 -1
    outer loop
      vertex 10 -20.2462 0
      vertex 2.6 -11.077 0
      vertex 2.6 -8.92304 0
    endloop
  endfacet
  facet normal 0 0 -1
    outer loop
      vertex 10 -20.2462 0
      vertex 1.07695 -12.6 0
      vertex 2.6 -11.077 0
    endloop
  endfacet
  facet normal 0 0 -1
    outer loop
      vertex 7.74622 -22.5 0
      vertex -1.07695 -12.6 0
      vertex 1.07695 -12.6 0
    endloop
  endfacet
  facet normal 0 0 -1
    outer loop
      vertex -7.74622 -22.5 0
      vertex -1.07695 -12.6 0
      vertex 7.74622 -22.5 0
    endloop
  endfacet
  facet normal 0 0 -1
    outer loop
      vertex -10 -10.3522 0
      vertex -2.6 -8.92304 0
      vertex -2.6 -11.077 0
    endloop
  endfacet
  facet normal -0 0 -1
    outer loop
      vertex -1.07695 7.4 0
      vertex -10 2.35225 0
      vertex -2.6 8.92304 0
    endloop
  endfacet
  facet normal -0 0 -1
    outer loop
      vertex -2.6 8.92304 0
      vertex -10 2.35225 0
      vertex -2.6 11.077 0
    endloop
  endfacet
  facet normal 0 0 -1
    outer loop
      vertex -10 -20.2462 0
      vertex -1.07695 -12.6 0
      vertex -7.74622 -22.5 0
    endloop
  endfacet
  facet normal -0 0 -1
    outer loop
      vertex -1.07695 -12.6 0
      vertex -10 -20.2462 0
      vertex -2.6 -11.077 0
    endloop
  endfacet
  facet normal 0 0 -1
    outer loop
      vertex -10 -20.2462 0
      vertex -7.74622 -22.5 0
      vertex -8.22922 -22.4039 0
    endloop
  endfacet
  facet normal 0 0 -1
    outer loop
      vertex -10 -20.2462 0
      vertex -8.22922 -22.4039 0
      vertex -8.68419 -22.2155 0
    endloop
  endfacet
  facet normal 0 0 -1
    outer loop
      vertex -10 -20.2462 0
      vertex -8.68419 -22.2155 0
      vertex -9.09364 -21.9419 0
    endloop
  endfacet
  facet normal 0 0 -1
    outer loop
      vertex -10 -20.2462 0
      vertex -9.09364 -21.9419 0
      vertex -9.44186 -21.5936 0
    endloop
  endfacet
  facet normal 0 0 -1
    outer loop
      vertex -10 -20.2462 0
      vertex -9.44186 -21.5936 0
      vertex -9.71547 -21.1842 0
    endloop
  endfacet
  facet normal 0 0 -1
    outer loop
      vertex -10 -20.2462 0
      vertex -9.71547 -21.1842 0
      vertex -9.90392 -20.7292 0
    endloop
  endfacet
  facet normal -0 0 -1
    outer loop
      vertex -2.6 -11.077 0
      vertex -10 -20.2462 0
      vertex -10 -10.3522 0
    endloop
  endfacet
  facet normal 0 0 -1
    outer loop
      vertex -10.0576 -10.0625 0
      vertex -2.6 -8.92304 0
      vertex -10 -10.3522 0
    endloop
  endfacet
  facet normal 0 0 -1
    outer loop
      vertex -10 28.025 0
      vertex -2.6 11.077 0
      vertex -10 2.35225 0
    endloop
  endfacet
  facet normal 0 0 -1
    outer loop
      vertex -2.6 11.077 0
      vertex -10 28.025 0
      vertex -5 32.825 0
    endloop
  endfacet
  facet normal 0 0 -1
    outer loop
      vertex -12.9 32.825 0
      vertex -10 28.025 0
      vertex -12.7462 28.025 0
    endloop
  endfacet
  facet normal 0 0 -1
    outer loop
      vertex -10 28.025 0
      vertex -12.9 32.825 0
      vertex -5 32.825 0
    endloop
  endfacet
  facet normal 0 0 -1
    outer loop
      vertex -13.2292 28.1211 0
      vertex -12.9 32.825 0
      vertex -12.7462 28.025 0
    endloop
  endfacet
  facet normal 0 0 -1
    outer loop
      vertex -13.6842 28.3095 0
      vertex -12.9 32.825 0
      vertex -13.2292 28.1211 0
    endloop
  endfacet
  facet normal 0 0 -1
    outer loop
      vertex -14.0936 28.5831 0
      vertex -12.9 32.825 0
      vertex -13.6842 28.3095 0
    endloop
  endfacet
  facet normal 0 0 -1
    outer loop
      vertex -14.4419 28.9314 0
      vertex -12.9 32.825 0
      vertex -14.0936 28.5831 0
    endloop
  endfacet
  facet normal 0 0 -1
    outer loop
      vertex -14.7155 29.3408 0
      vertex -12.9 32.825 0
      vertex -14.4419 28.9314 0
    endloop
  endfacet
  facet normal 0 0 -1
    outer loop
      vertex -14.9039 29.7958 0
      vertex -12.9 32.825 0
      vertex -14.7155 29.3408 0
    endloop
  endfacet
  facet normal 0 0 -1
    outer loop
      vertex -15 30.2788 0
      vertex -12.9 32.825 0
      vertex -14.9039 29.7958 0
    endloop
  endfacet
  facet normal 0 0 -1
    outer loop
      vertex -12.9 32.825 0
      vertex -15 30.2788 0
      vertex -15 31.775 0
    endloop
  endfacet
  facet normal 0 0 -1
    outer loop
      vertex 10 -20.2462 0
      vertex 2.6 -8.92304 0
      vertex 2.6 8.92304 0
    endloop
  endfacet
  facet normal 0 0 -1
    outer loop
      vertex 9.71547 38.7092 0
      vertex 7.74622 40.025 0
      vertex 9.44186 39.1186 0
    endloop
  endfacet
  facet normal 0 0 -1
    outer loop
      vertex 9.44186 39.1186 0
      vertex 7.74622 40.025 0
      vertex 9.09364 39.4669 0
    endloop
  endfacet
  facet normal 0 0 -1
    outer loop
      vertex 9.09364 39.4669 0
      vertex 7.74622 40.025 0
      vertex 8.68419 39.7405 0
    endloop
  endfacet
  facet normal 0 0 -1
    outer loop
      vertex -5 32.825 0
      vertex 1.07695 12.6 0
      vertex -1.07695 12.6 0
    endloop
  endfacet
  facet normal 0 0 -1
    outer loop
      vertex -5 32.825 0
      vertex -1.07695 12.6 0
      vertex -2.6 11.077 0
    endloop
  endfacet
  facet normal 0 0 -1
    outer loop
      vertex 8.68419 39.7405 0
      vertex 7.74622 40.025 0
      vertex 8.22922 39.9289 0
    endloop
  endfacet
  facet normal 0 0 -1
    outer loop
      vertex -5 34.525 0
      vertex 7.74622 40.025 0
      vertex -5 32.825 0
    endloop
  endfacet
  facet normal 0 0 -1
    outer loop
      vertex -5 34.525 0
      vertex -12.7462 40.025 0
      vertex 7.74622 40.025 0
    endloop
  endfacet
  facet normal 0 0 -1
    outer loop
      vertex -15 34.525 0
      vertex -12.7462 40.025 0
      vertex -5 34.525 0
    endloop
  endfacet
  facet normal 0 0 -1
    outer loop
      vertex -15 37.7712 0
      vertex -12.7462 40.025 0
      vertex -15 34.525 0
    endloop
  endfacet
  facet normal 0 0 -1
    outer loop
      vertex -12.7462 40.025 0
      vertex -15 37.7712 0
      vertex -13.2292 39.9289 0
    endloop
  endfacet
  facet normal 0 0 -1
    outer loop
      vertex -13.6842 39.7405 0
      vertex -15 37.7712 0
      vertex -14.0936 39.4669 0
    endloop
  endfacet
  facet normal 0 0 -1
    outer loop
      vertex -14.0936 39.4669 0
      vertex -15 37.7712 0
      vertex -14.4419 39.1186 0
    endloop
  endfacet
  facet normal 0 0 -1
    outer loop
      vertex -14.4419 39.1186 0
      vertex -15 37.7712 0
      vertex -14.7155 38.7092 0
    endloop
  endfacet
  facet normal 0 0 -1
    outer loop
      vertex -13.2292 39.9289 0
      vertex -15 37.7712 0
      vertex -13.6842 39.7405 0
    endloop
  endfacet
  facet normal 0 0 -1
    outer loop
      vertex -14.7155 38.7092 0
      vertex -15 37.7712 0
      vertex -14.9039 38.2542 0
    endloop
  endfacet
  facet normal 0 0 -1
    outer loop
      vertex -11.0625 1.05763 0
      vertex -12.55 -3.34352 0
      vertex -11.3522 1 0
    endloop
  endfacet
  facet normal 0 0 -1
    outer loop
      vertex -13.2065 -2.20648 0
      vertex -11.3522 1 0
      vertex -12.55 -3.34352 0
    endloop
  endfacet
  facet normal 0 0 -1
    outer loop
      vertex -14.3435 -1.55 0
      vertex -11.3522 1 0
      vertex -13.2065 -2.20648 0
    endloop
  endfacet
  facet normal 0 0 -1
    outer loop
      vertex -15.6565 -1.55 0
      vertex -11.3522 1 0
      vertex -14.3435 -1.55 0
    endloop
  endfacet
  facet normal 0 0 -1
    outer loop
      vertex -18.6477 1 0
      vertex -15.6565 -1.55 0
      vertex -16.7935 -2.20648 0
    endloop
  endfacet
  facet normal 0 0 -1
    outer loop
      vertex -15.6565 -1.55 0
      vertex -18.6477 1 0
      vertex -11.3522 1 0
    endloop
  endfacet
  facet normal 0 0 -1
    outer loop
      vertex -20 -0.352264 0
      vertex -16.7935 -2.20648 0
      vertex -17.45 -3.34352 0
    endloop
  endfacet
  facet normal -0 0 -1
    outer loop
      vertex -17.45 -4.65648 0
      vertex -20 -7.64774 0
      vertex -17.45 -3.34352 0
    endloop
  endfacet
  facet normal 0 0 -1
    outer loop
      vertex -20 -7.64774 0
      vertex -18.6477 -9 0
      vertex -18.9375 -8.94235 0
    endloop
  endfacet
  facet normal 0 0 -1
    outer loop
      vertex -20 -0.352264 0
      vertex -17.45 -3.34352 0
      vertex -20 -7.64774 0
    endloop
  endfacet
  facet normal 0 0 -1
    outer loop
      vertex -20 -7.64774 0
      vertex -18.9375 -8.94235 0
      vertex -19.2105 -8.82927 0
    endloop
  endfacet
  facet normal 0 0 -1
    outer loop
      vertex -16.7935 -2.20648 0
      vertex -20 -0.352264 0
      vertex -18.6477 1 0
    endloop
  endfacet
  facet normal 0 0 -1
    outer loop
      vertex -20 -7.64774 0
      vertex -19.2105 -8.82927 0
      vertex -19.4562 -8.66512 0
    endloop
  endfacet
  facet normal 0 0 -1
    outer loop
      vertex -18.6477 1 0
      vertex -20 -0.352264 0
      vertex -18.9375 0.942352 0
    endloop
  endfacet
  facet normal 0 0 -1
    outer loop
      vertex -20 -7.64774 0
      vertex -19.4562 -8.66512 0
      vertex -19.6651 -8.45619 0
    endloop
  endfacet
  facet normal 0 0 -1
    outer loop
      vertex -18.9375 0.942352 0
      vertex -20 -0.352264 0
      vertex -19.2105 0.829269 0
    endloop
  endfacet
  facet normal 0 0 -1
    outer loop
      vertex -20 -7.64774 0
      vertex -19.6651 -8.45619 0
      vertex -19.8293 -8.21051 0
    endloop
  endfacet
  facet normal 0 0 -1
    outer loop
      vertex -19.2105 0.829269 0
      vertex -20 -0.352264 0
      vertex -19.4562 0.665115 0
    endloop
  endfacet
  facet normal 0 0 -1
    outer loop
      vertex -20 -7.64774 0
      vertex -19.8293 -8.21051 0
      vertex -19.9424 -7.93753 0
    endloop
  endfacet
  facet normal 0 0 -1
    outer loop
      vertex -19.4562 0.665115 0
      vertex -20 -0.352264 0
      vertex -19.6651 0.456192 0
    endloop
  endfacet
  facet normal 0 0 -1
    outer loop
      vertex -19.6651 0.456192 0
      vertex -20 -0.352264 0
      vertex -19.8293 0.21051 0
    endloop
  endfacet
  facet normal 0 0 -1
    outer loop
      vertex -19.8293 0.21051 0
      vertex -20 -0.352264 0
      vertex -19.9424 -0.0624695 0
    endloop
  endfacet
  facet normal -0 0 1
    outer loop
      vertex -10.3349 1.54379 10
      vertex -1.07695 -7.4 10
      vertex -10.1707 1.78947 10
    endloop
  endfacet
  facet normal 0 0 1
    outer loop
      vertex -2.6 -8.92304 10
      vertex -10.0576 -10.0625 10
      vertex -10 -10.3522 10
    endloop
  endfacet
  facet normal -0 0 1
    outer loop
      vertex -10.5438 1.33487 10
      vertex -1.07695 -7.4 10
      vertex -10.3349 1.54379 10
    endloop
  endfacet
  facet normal 0 0 1
    outer loop
      vertex -2.6 -8.92304 10
      vertex -10.1707 -9.78947 10
      vertex -10.0576 -10.0625 10
    endloop
  endfacet
  facet normal -0 0 1
    outer loop
      vertex -12.55 -3.34352 10
      vertex -1.07695 -7.4 10
      vertex -10.5438 1.33487 10
    endloop
  endfacet
  facet normal 0 0 1
    outer loop
      vertex -2.6 -8.92304 10
      vertex -10.3349 -9.54379 10
      vertex -10.1707 -9.78947 10
    endloop
  endfacet
  facet normal 0 0 1
    outer loop
      vertex -1.07695 -7.4 10
      vertex -12.55 -3.34352 10
      vertex -2.6 -8.92304 10
    endloop
  endfacet
  facet normal -0 0 1
    outer loop
      vertex -12.55 -4.65648 10
      vertex -2.6 -8.92304 10
      vertex -12.55 -3.34352 10
    endloop
  endfacet
  facet normal 0 0 1
    outer loop
      vertex -12.55 -3.34352 10
      vertex -10.5438 1.33487 10
      vertex -10.7895 1.17072 10
    endloop
  endfacet
  facet normal 0 -0 1
    outer loop
      vertex -10.5438 -9.33487 10
      vertex -2.6 -8.92304 10
      vertex -12.55 -4.65648 10
    endloop
  endfacet
  facet normal 0 0 1
    outer loop
      vertex -12.55 -3.34352 10
      vertex -10.7895 1.17072 10
      vertex -11.0625 1.05763 10
    endloop
  endfacet
  facet normal 0 0 1
    outer loop
      vertex -2.6 -8.92304 10
      vertex -10.5438 -9.33487 10
      vertex -10.3349 -9.54379 10
    endloop
  endfacet
  facet normal 0 0 1
    outer loop
      vertex -12.55 -3.34352 10
      vertex -11.0625 1.05763 10
      vertex -11.3522 1 10
    endloop
  endfacet
  facet normal 0 0 1
    outer loop
      vertex -10.5438 -9.33487 10
      vertex -12.55 -4.65648 10
      vertex -10.7895 -9.17072 10
    endloop
  endfacet
  facet normal 0 0 1
    outer loop
      vertex -10.7895 -9.17072 10
      vertex -12.55 -4.65648 10
      vertex -11.0625 -9.05763 10
    endloop
  endfacet
  facet normal 0 0 1
    outer loop
      vertex -11.3522 1 10
      vertex -13.2065 -2.20648 10
      vertex -12.55 -3.34352 10
    endloop
  endfacet
  facet normal 0 0 1
    outer loop
      vertex -11.3522 1 10
      vertex -14.3435 -1.55 10
      vertex -13.2065 -2.20648 10
    endloop
  endfacet
  facet normal 0 0 1
    outer loop
      vertex -11.3522 1 10
      vertex -15.6565 -1.55 10
      vertex -14.3435 -1.55 10
    endloop
  endfacet
  facet normal -0 0 1
    outer loop
      vertex -18.6477 1 10
      vertex -15.6565 -1.55 10
      vertex -11.3522 1 10
    endloop
  endfacet
  facet normal 0 0 1
    outer loop
      vertex -16.7935 -2.20648 10
      vertex -20 -0.352264 10
      vertex -17.45 -3.34352 10
    endloop
  endfacet
  facet normal -0 0 1
    outer loop
      vertex -20 -0.352264 10
      vertex -16.7935 -2.20648 10
      vertex -18.6477 1 10
    endloop
  endfacet
  facet normal 0 0 1
    outer loop
      vertex -15.6565 -1.55 10
      vertex -18.6477 1 10
      vertex -16.7935 -2.20648 10
    endloop
  endfacet
  facet normal -0 0 1
    outer loop
      vertex 1.07695 7.4 10
      vertex 2.6 -8.92304 10
      vertex 2.6 8.92304 10
    endloop
  endfacet
  facet normal 0 0 1
    outer loop
      vertex 1.07695 7.4 10
      vertex 1.07695 -7.4 10
      vertex 2.6 -8.92304 10
    endloop
  endfacet
  facet normal -0 0 1
    outer loop
      vertex -1.07695 7.4 10
      vertex 1.07695 -7.4 10
      vertex 1.07695 7.4 10
    endloop
  endfacet
  facet normal 0 0 1
    outer loop
      vertex -1.07695 7.4 10
      vertex -1.07695 -7.4 10
      vertex 1.07695 -7.4 10
    endloop
  endfacet
  facet normal 0 0 1
    outer loop
      vertex -10 2.35225 10
      vertex -1.07695 7.4 10
      vertex -2.6 8.92304 10
    endloop
  endfacet
  facet normal 0 0 1
    outer loop
      vertex -10.0576 2.06245 10
      vertex -1.07695 7.4 10
      vertex -10 2.35225 10
    endloop
  endfacet
  facet normal -0 0 1
    outer loop
      vertex 9.90392 29.7958 10
      vertex 10 -20.2462 10
      vertex 10 30.2788 10
    endloop
  endfacet
  facet normal -0 0 1
    outer loop
      vertex 9.71547 29.3408 10
      vertex 10 -20.2462 10
      vertex 9.90392 29.7958 10
    endloop
  endfacet
  facet normal -0 0 1
    outer loop
      vertex 2.6 8.92304 10
      vertex 10 -20.2462 10
      vertex 9.71547 29.3408 10
    endloop
  endfacet
  facet normal -0 0 1
    outer loop
      vertex 2.6 -8.92304 10
      vertex 10 -20.2462 10
      vertex 2.6 8.92304 10
    endloop
  endfacet
  facet normal 0 0 1
    outer loop
      vertex 2.6 8.92304 10
      vertex 9.71547 29.3408 10
      vertex 9.44186 28.9314 10
    endloop
  endfacet
  facet normal -0 0 1
    outer loop
      vertex 2.6 -11.077 10
      vertex 10 -20.2462 10
      vertex 2.6 -8.92304 10
    endloop
  endfacet
  facet normal 0 0 1
    outer loop
      vertex 2.6 11.077 10
      vertex 9.44186 28.9314 10
      vertex 9.09364 28.5831 10
    endloop
  endfacet
  facet normal -0 0 1
    outer loop
      vertex 1.07695 -12.6 10
      vertex 10 -20.2462 10
      vertex 2.6 -11.077 10
    endloop
  endfacet
  facet normal 0 0 1
    outer loop
      vertex 2.6 11.077 10
      vertex 9.09364 28.5831 10
      vertex 8.68419 28.3095 10
    endloop
  endfacet
  facet normal 0 -0 1
    outer loop
      vertex 7.74622 -22.5 10
      vertex 10 -20.2462 10
      vertex 1.07695 -12.6 10
    endloop
  endfacet
  facet normal 0 0 1
    outer loop
      vertex 2.6 11.077 10
      vertex 8.68419 28.3095 10
      vertex 8.22922 28.1211 10
    endloop
  endfacet
  facet normal 0 0 1
    outer loop
      vertex 10 -20.2462 10
      vertex 7.74622 -22.5 10
      vertex 9.90392 -20.7292 10
    endloop
  endfacet
  facet normal 0 0 1
    outer loop
      vertex 2.6 11.077 10
      vertex 8.22922 28.1211 10
      vertex 7.74622 28.025 10
    endloop
  endfacet
  facet normal 0 0 1
    outer loop
      vertex 9.90392 -20.7292 10
      vertex 7.74622 -22.5 10
      vertex 9.71547 -21.1842 10
    endloop
  endfacet
  facet normal 0 0 1
    outer loop
      vertex 9.44186 28.9314 10
      vertex 2.6 11.077 10
      vertex 2.6 8.92304 10
    endloop
  endfacet
  facet normal 0 0 1
    outer loop
      vertex 7.74622 28.025 10
      vertex 1.07695 12.6 10
      vertex 2.6 11.077 10
    endloop
  endfacet
  facet normal 0 0 1
    outer loop
      vertex 7.74622 28.025 10
      vertex -1.07695 12.6 10
      vertex 1.07695 12.6 10
    endloop
  endfacet
  facet normal -0 0 1
    outer loop
      vertex -10 28.025 10
      vertex -1.07695 12.6 10
      vertex 7.74622 28.025 10
    endloop
  endfacet
  facet normal 0 0 1
    outer loop
      vertex -10 2.35225 10
      vertex -2.6 8.92304 10
      vertex -2.6 11.077 10
    endloop
  endfacet
  facet normal 0 0 1
    outer loop
      vertex -1.07695 7.4 10
      vertex -10.0576 2.06245 10
      vertex -1.07695 -7.4 10
    endloop
  endfacet
  facet normal -0 0 1
    outer loop
      vertex -10.1707 1.78947 10
      vertex -1.07695 -7.4 10
      vertex -10.0576 2.06245 10
    endloop
  endfacet
  facet normal 0 0 1
    outer loop
      vertex -10 -20.2462 10
      vertex -2.6 -11.077 10
      vertex -10 -10.3522 10
    endloop
  endfacet
  facet normal 0 0 1
    outer loop
      vertex -2.6 -11.077 10
      vertex -10 -20.2462 10
      vertex -7.74622 -22.5 10
    endloop
  endfacet
  facet normal 0 0 1
    outer loop
      vertex -7.74622 -22.5 10
      vertex -10 -20.2462 10
      vertex -8.22922 -22.4039 10
    endloop
  endfacet
  facet normal 0 0 1
    outer loop
      vertex -8.22922 -22.4039 10
      vertex -10 -20.2462 10
      vertex -8.68419 -22.2155 10
    endloop
  endfacet
  facet normal 0 0 1
    outer loop
      vertex -8.68419 -22.2155 10
      vertex -10 -20.2462 10
      vertex -9.09364 -21.9419 10
    endloop
  endfacet
  facet normal 0 0 1
    outer loop
      vertex -9.09364 -21.9419 10
      vertex -10 -20.2462 10
      vertex -9.44186 -21.5936 10
    endloop
  endfacet
  facet normal 0 0 1
    outer loop
      vertex -1.07695 12.6 10
      vertex -10 28.025 10
      vertex -2.6 11.077 10
    endloop
  endfacet
  facet normal 0 0 1
    outer loop
      vertex -10 2.35225 10
      vertex -2.6 11.077 10
      vertex -10 28.025 10
    endloop
  endfacet
  facet normal 0 0 1
    outer loop
      vertex -2.6 -8.92304 10
      vertex -10 -10.3522 10
      vertex -2.6 -11.077 10
    endloop
  endfacet
  facet normal 0 0 1
    outer loop
      vertex -9.44186 -21.5936 10
      vertex -10 -20.2462 10
      vertex -9.71547 -21.1842 10
    endloop
  endfacet
  facet normal 0 0 1
    outer loop
      vertex -9.71547 -21.1842 10
      vertex -10 -20.2462 10
      vertex -9.90392 -20.7292 10
    endloop
  endfacet
  facet normal 0 0 1
    outer loop
      vertex 9.71547 -21.1842 10
      vertex 7.74622 -22.5 10
      vertex 9.44186 -21.5936 10
    endloop
  endfacet
  facet normal 0 0 1
    outer loop
      vertex 9.09364 -21.9419 10
      vertex 7.74622 -22.5 10
      vertex 8.68419 -22.2155 10
    endloop
  endfacet
  facet normal 0 0 1
    outer loop
      vertex 8.68419 -22.2155 10
      vertex 7.74622 -22.5 10
      vertex 8.22922 -22.4039 10
    endloop
  endfacet
  facet normal 0 0 1
    outer loop
      vertex 9.44186 -21.5936 10
      vertex 7.74622 -22.5 10
      vertex 9.09364 -21.9419 10
    endloop
  endfacet
  facet normal -0 0 1
    outer loop
      vertex -1.07695 -12.6 10
      vertex 7.74622 -22.5 10
      vertex 1.07695 -12.6 10
    endloop
  endfacet
  facet normal 0 0 1
    outer loop
      vertex -7.74622 -22.5 10
      vertex -1.07695 -12.6 10
      vertex -2.6 -11.077 10
    endloop
  endfacet
  facet normal 0 0 1
    outer loop
      vertex -1.07695 -12.6 10
      vertex -7.74622 -22.5 10
      vertex 7.74622 -22.5 10
    endloop
  endfacet
  facet normal 0 0 1
    outer loop
      vertex -11.0625 -9.05763 10
      vertex -12.55 -4.65648 10
      vertex -11.3522 -9 10
    endloop
  endfacet
  facet normal -0 0 1
    outer loop
      vertex -13.2065 -5.79352 10
      vertex -11.3522 -9 10
      vertex -12.55 -4.65648 10
    endloop
  endfacet
  facet normal -0 0 1
    outer loop
      vertex -14.3435 -6.45 10
      vertex -11.3522 -9 10
      vertex -13.2065 -5.79352 10
    endloop
  endfacet
  facet normal -0 0 1
    outer loop
      vertex -15.6565 -6.45 10
      vertex -11.3522 -9 10
      vertex -14.3435 -6.45 10
    endloop
  endfacet
  facet normal 0 0 1
    outer loop
      vertex -18.6477 -9 10
      vertex -15.6565 -6.45 10
      vertex -16.7935 -5.79352 10
    endloop
  endfacet
  facet normal 0 0 1
    outer loop
      vertex -15.6565 -6.45 10
      vertex -18.6477 -9 10
      vertex -11.3522 -9 10
    endloop
  endfacet
  facet normal 0 0 1
    outer loop
      vertex -20 -7.64774 10
      vertex -16.7935 -5.79352 10
      vertex -17.45 -4.65648 10
    endloop
  endfacet
  facet normal 0 0 1
    outer loop
      vertex -17.45 -3.34352 10
      vertex -20 -0.352264 10
      vertex -17.45 -4.65648 10
    endloop
  endfacet
  facet normal 0 0 1
    outer loop
      vertex -20 -0.352264 10
      vertex -18.6477 1 10
      vertex -18.9375 0.942352 10
    endloop
  endfacet
  facet normal 0 0 1
    outer loop
      vertex -20 -7.64774 10
      vertex -17.45 -4.65648 10
      vertex -20 -0.352264 10
    endloop
  endfacet
  facet normal 0 0 1
    outer loop
      vertex -20 -0.352264 10
      vertex -18.9375 0.942352 10
      vertex -19.2105 0.829269 10
    endloop
  endfacet
  facet normal 0 0 1
    outer loop
      vertex -16.7935 -5.79352 10
      vertex -20 -7.64774 10
      vertex -18.6477 -9 10
    endloop
  endfacet
  facet normal 0 0 1
    outer loop
      vertex -20 -0.352264 10
      vertex -19.2105 0.829269 10
      vertex -19.4562 0.665115 10
    endloop
  endfacet
  facet normal 0 0 1
    outer loop
      vertex -18.6477 -9 10
      vertex -20 -7.64774 10
      vertex -18.9375 -8.94235 10
    endloop
  endfacet
  facet normal 0 0 1
    outer loop
      vertex -20 -0.352264 10
      vertex -19.4562 0.665115 10
      vertex -19.6651 0.456192 10
    endloop
  endfacet
  facet normal 0 0 1
    outer loop
      vertex -18.9375 -8.94235 10
      vertex -20 -7.64774 10
      vertex -19.2105 -8.82927 10
    endloop
  endfacet
  facet normal 0 0 1
    outer loop
      vertex -20 -0.352264 10
      vertex -19.6651 0.456192 10
      vertex -19.8293 0.21051 10
    endloop
  endfacet
  facet normal 0 0 1
    outer loop
      vertex -19.2105 -8.82927 10
      vertex -20 -7.64774 10
      vertex -19.4562 -8.66512 10
    endloop
  endfacet
  facet normal 0 0 1
    outer loop
      vertex -20 -0.352264 10
      vertex -19.8293 0.21051 10
      vertex -19.9424 -0.0624695 10
    endloop
  endfacet
  facet normal 0 0 1
    outer loop
      vertex -19.4562 -8.66512 10
      vertex -20 -7.64774 10
      vertex -19.6651 -8.45619 10
    endloop
  endfacet
  facet normal 0 0 1
    outer loop
      vertex -19.6651 -8.45619 10
      vertex -20 -7.64774 10
      vertex -19.8293 -8.21051 10
    endloop
  endfacet
  facet normal 0 0 1
    outer loop
      vertex -19.8293 -8.21051 10
      vertex -20 -7.64774 10
      vertex -19.9424 -7.93753 10
    endloop
  endfacet
  facet normal -0.382711 -0.923868 0
    outer loop
      vertex -11.0625 -9.05763 0
      vertex -10.7895 -9.17072 10
      vertex -11.0625 -9.05763 10
    endloop
  endfacet
  facet normal -0.382711 -0.923868 -0
    outer loop
      vertex -10.7895 -9.17072 10
      vertex -11.0625 -9.05763 0
      vertex -10.7895 -9.17072 0
    endloop
  endfacet
  facet normal -0.55552 -0.831503 0
    outer loop
      vertex -10.7895 -9.17072 0
      vertex -10.5438 -9.33487 10
      vertex -10.7895 -9.17072 10
    endloop
  endfacet
  facet normal -0.55552 -0.831503 -0
    outer loop
      vertex -10.5438 -9.33487 10
      vertex -10.7895 -9.17072 0
      vertex -10.5438 -9.33487 0
    endloop
  endfacet
  facet normal -0.707141 -0.707073 0
    outer loop
      vertex -10.3349 -9.54379 0
      vertex -10.5438 -9.33487 10
      vertex -10.5438 -9.33487 0
    endloop
  endfacet
  facet normal -0.707141 -0.707073 0
    outer loop
      vertex -10.5438 -9.33487 10
      vertex -10.3349 -9.54379 0
      vertex -10.3349 -9.54379 10
    endloop
  endfacet
  facet normal -0.831404 -0.555668 0
    outer loop
      vertex -10.1707 -9.78947 0
      vertex -10.3349 -9.54379 10
      vertex -10.3349 -9.54379 0
    endloop
  endfacet
  facet normal -0.831404 -0.555668 0
    outer loop
      vertex -10.3349 -9.54379 10
      vertex -10.1707 -9.78947 0
      vertex -10.1707 -9.78947 10
    endloop
  endfacet
  facet normal -0.923871 -0.382704 0
    outer loop
      vertex -10.0576 -10.0625 0
      vertex -10.1707 -9.78947 10
      vertex -10.1707 -9.78947 0
    endloop
  endfacet
  facet normal -0.923871 -0.382704 0
    outer loop
      vertex -10.1707 -9.78947 10
      vertex -10.0576 -10.0625 0
      vertex -10.0576 -10.0625 10
    endloop
  endfacet
  facet normal -0.980801 -0.195009 0
    outer loop
      vertex -10 -10.3522 0
      vertex -10.0576 -10.0625 10
      vertex -10.0576 -10.0625 0
    endloop
  endfacet
  facet normal -0.980801 -0.195009 0
    outer loop
      vertex -10.0576 -10.0625 10
      vertex -10 -10.3522 0
      vertex -10 -10.3522 10
    endloop
  endfacet
  facet normal -1 0 0
    outer loop
      vertex -10 2.35225 0
      vertex -10 28.025 10
      vertex -10 28.025 0
    endloop
  endfacet
  facet normal -1 -0 0
    outer loop
      vertex -10 28.025 10
      vertex -10 2.35225 0
      vertex -10 2.35225 10
    endloop
  endfacet
  facet normal -1 0 0
    outer loop
      vertex -10 -20.2462 0
      vertex -10 -10.3522 10
      vertex -10 -10.3522 0
    endloop
  endfacet
  facet normal -1 -0 0
    outer loop
      vertex -10 -10.3522 10
      vertex -10 -20.2462 0
      vertex -10 -20.2462 10
    endloop
  endfacet
  facet normal 0 -1 0
    outer loop
      vertex -18.6477 -9 0
      vertex -11.3522 -9 10
      vertex -18.6477 -9 10
    endloop
  endfacet
  facet normal 0 -1 -0
    outer loop
      vertex -11.3522 -9 10
      vertex -18.6477 -9 0
      vertex -11.3522 -9 0
    endloop
  endfacet
  facet normal -0.195107 -0.980782 0
    outer loop
      vertex -11.3522 -9 0
      vertex -11.0625 -9.05763 10
      vertex -11.3522 -9 10
    endloop
  endfacet
  facet normal -0.195107 -0.980782 -0
    outer loop
      vertex -11.0625 -9.05763 10
      vertex -11.3522 -9 0
      vertex -11.0625 -9.05763 0
    endloop
  endfacet
  facet normal -0.923846 0.382764 0
    outer loop
      vertex -10.1707 1.78947 0
      vertex -10.0576 2.06245 10
      vertex -10.0576 2.06245 0
    endloop
  endfacet
  facet normal -0.923846 0.382764 0
    outer loop
      vertex -10.0576 2.06245 10
      vertex -10.1707 1.78947 0
      vertex -10.1707 1.78947 10
    endloop
  endfacet
  facet normal -0.831404 0.555668 0
    outer loop
      vertex -10.3349 1.54379 0
      vertex -10.1707 1.78947 10
      vertex -10.1707 1.78947 0
    endloop
  endfacet
  facet normal -0.831404 0.555668 0
    outer loop
      vertex -10.1707 1.78947 10
      vertex -10.3349 1.54379 0
      vertex -10.3349 1.54379 10
    endloop
  endfacet
  facet normal -0.707141 0.707073 0
    outer loop
      vertex -10.5438 1.33487 0
      vertex -10.3349 1.54379 10
      vertex -10.3349 1.54379 0
    endloop
  endfacet
  facet normal -0.707141 0.707073 0
    outer loop
      vertex -10.3349 1.54379 10
      vertex -10.5438 1.33487 0
      vertex -10.5438 1.33487 10
    endloop
  endfacet
  facet normal -0.55552 0.831503 0
    outer loop
      vertex -10.5438 1.33487 0
      vertex -10.7895 1.17072 10
      vertex -10.5438 1.33487 10
    endloop
  endfacet
  facet normal -0.55552 0.831503 0
    outer loop
      vertex -10.7895 1.17072 10
      vertex -10.5438 1.33487 0
      vertex -10.7895 1.17072 0
    endloop
  endfacet
  facet normal -0.382711 0.923868 0
    outer loop
      vertex -10.7895 1.17072 0
      vertex -11.0625 1.05763 10
      vertex -10.7895 1.17072 10
    endloop
  endfacet
  facet normal -0.382711 0.923868 0
    outer loop
      vertex -11.0625 1.05763 10
      vertex -10.7895 1.17072 0
      vertex -11.0625 1.05763 0
    endloop
  endfacet
  facet normal -0.195107 0.980782 0
    outer loop
      vertex -11.0625 1.05763 0
      vertex -11.3522 1 10
      vertex -11.0625 1.05763 10
    endloop
  endfacet
  facet normal -0.195107 0.980782 0
    outer loop
      vertex -11.3522 1 10
      vertex -11.0625 1.05763 0
      vertex -11.3522 1 0
    endloop
  endfacet
  facet normal 0 1 -0
    outer loop
      vertex -11.3522 1 0
      vertex -18.6477 1 10
      vertex -11.3522 1 10
    endloop
  endfacet
  facet normal 0 1 0
    outer loop
      vertex -18.6477 1 10
      vertex -11.3522 1 0
      vertex -18.6477 1 0
    endloop
  endfacet
  facet normal -0.980814 0.194944 0
    outer loop
      vertex -10.0576 2.06245 0
      vertex -10 2.35225 10
      vertex -10 2.35225 0
    endloop
  endfacet
  facet normal -0.980814 0.194944 0
    outer loop
      vertex -10 2.35225 10
      vertex -10.0576 2.06245 0
      vertex -10.0576 2.06245 10
    endloop
  endfacet
  facet normal -0.923846 -0.382764 0
    outer loop
      vertex -19.8293 -8.21051 0
      vertex -19.9424 -7.93753 10
      vertex -19.9424 -7.93753 0
    endloop
  endfacet
  facet normal -0.923846 -0.382764 0
    outer loop
      vertex -19.9424 -7.93753 10
      vertex -19.8293 -8.21051 0
      vertex -19.8293 -8.21051 10
    endloop
  endfacet
  facet normal -1 0 0
    outer loop
      vertex -20 -7.64774 0
      vertex -20 -0.352264 10
      vertex -20 -0.352264 0
    endloop
  endfacet
  facet normal -1 -0 0
    outer loop
      vertex -20 -0.352264 10
      vertex -20 -7.64774 0
      vertex -20 -7.64774 10
    endloop
  endfacet
  facet normal -0.980813 -0.194951 0
    outer loop
      vertex -19.9424 -7.93753 0
      vertex -20 -7.64774 10
      vertex -20 -7.64774 0
    endloop
  endfacet
  facet normal -0.980813 -0.194951 0
    outer loop
      vertex -20 -7.64774 10
      vertex -19.9424 -7.93753 0
      vertex -19.9424 -7.93753 10
    endloop
  endfacet
  facet normal -0.195101 0.980783 0
    outer loop
      vertex -18.6477 1 0
      vertex -18.9375 0.942352 10
      vertex -18.6477 1 10
    endloop
  endfacet
  facet normal -0.195101 0.980783 0
    outer loop
      vertex -18.9375 0.942352 10
      vertex -18.6477 1 0
      vertex -18.9375 0.942352 0
    endloop
  endfacet
  facet normal -0.980814 0.194948 0
    outer loop
      vertex -20 -0.352264 0
      vertex -19.9424 -0.0624695 10
      vertex -19.9424 -0.0624695 0
    endloop
  endfacet
  facet normal -0.980814 0.194948 0
    outer loop
      vertex -19.9424 -0.0624695 10
      vertex -20 -0.352264 0
      vertex -20 -0.352264 10
    endloop
  endfacet
  facet normal -0.707146 0.707068 0
    outer loop
      vertex -19.6651 0.456192 0
      vertex -19.4562 0.665115 10
      vertex -19.4562 0.665115 0
    endloop
  endfacet
  facet normal -0.707146 0.707068 0
    outer loop
      vertex -19.4562 0.665115 10
      vertex -19.6651 0.456192 0
      vertex -19.6651 0.456192 10
    endloop
  endfacet
  facet normal -0.831404 -0.555668 0
    outer loop
      vertex -19.6651 -8.45619 0
      vertex -19.8293 -8.21051 10
      vertex -19.8293 -8.21051 0
    endloop
  endfacet
  facet normal -0.831404 -0.555668 0
    outer loop
      vertex -19.8293 -8.21051 10
      vertex -19.6651 -8.45619 0
      vertex -19.6651 -8.45619 10
    endloop
  endfacet
  facet normal -0.382691 0.923876 0
    outer loop
      vertex -18.9375 0.942352 0
      vertex -19.2105 0.829269 10
      vertex -18.9375 0.942352 10
    endloop
  endfacet
  facet normal -0.382691 0.923876 0
    outer loop
      vertex -19.2105 0.829269 10
      vertex -18.9375 0.942352 0
      vertex -19.2105 0.829269 0
    endloop
  endfacet
  facet normal -0.831406 0.555665 0
    outer loop
      vertex -19.8293 0.21051 0
      vertex -19.6651 0.456192 10
      vertex -19.6651 0.456192 0
    endloop
  endfacet
  facet normal -0.831406 0.555665 0
    outer loop
      vertex -19.6651 0.456192 10
      vertex -19.8293 0.21051 0
      vertex -19.8293 0.21051 10
    endloop
  endfacet
  facet normal -0.923846 0.382765 0
    outer loop
      vertex -19.9424 -0.0624695 0
      vertex -19.8293 0.21051 10
      vertex -19.8293 0.21051 0
    endloop
  endfacet
  facet normal -0.923846 0.382765 0
    outer loop
      vertex -19.8293 0.21051 10
      vertex -19.9424 -0.0624695 0
      vertex -19.9424 -0.0624695 10
    endloop
  endfacet
  facet normal -0.555529 0.831497 0
    outer loop
      vertex -19.2105 0.829269 0
      vertex -19.4562 0.665115 10
      vertex -19.2105 0.829269 10
    endloop
  endfacet
  facet normal -0.555529 0.831497 0
    outer loop
      vertex -19.4562 0.665115 10
      vertex -19.2105 0.829269 0
      vertex -19.4562 0.665115 0
    endloop
  endfacet
  facet normal -0.55552 -0.831503 0
    outer loop
      vertex -19.4562 -8.66512 0
      vertex -19.2105 -8.82927 10
      vertex -19.4562 -8.66512 10
    endloop
  endfacet
  facet normal -0.55552 -0.831503 -0
    outer loop
      vertex -19.2105 -8.82927 10
      vertex -19.4562 -8.66512 0
      vertex -19.2105 -8.82927 0
    endloop
  endfacet
  facet normal -0.195107 -0.980782 0
    outer loop
      vertex -18.9375 -8.94235 0
      vertex -18.6477 -9 10
      vertex -18.9375 -8.94235 10
    endloop
  endfacet
  facet normal -0.195107 -0.980782 -0
    outer loop
      vertex -18.6477 -9 10
      vertex -18.9375 -8.94235 0
      vertex -18.6477 -9 0
    endloop
  endfacet
  facet normal -0.707158 -0.707056 0
    outer loop
      vertex -19.4562 -8.66512 0
      vertex -19.6651 -8.45619 10
      vertex -19.6651 -8.45619 0
    endloop
  endfacet
  facet normal -0.707158 -0.707056 0
    outer loop
      vertex -19.6651 -8.45619 10
      vertex -19.4562 -8.66512 0
      vertex -19.4562 -8.66512 10
    endloop
  endfacet
  facet normal -0.382683 -0.92388 0
    outer loop
      vertex -19.2105 -8.82927 0
      vertex -18.9375 -8.94235 10
      vertex -19.2105 -8.82927 10
    endloop
  endfacet
  facet normal -0.382683 -0.92388 -0
    outer loop
      vertex -18.9375 -8.94235 10
      vertex -19.2105 -8.82927 0
      vertex -18.9375 -8.94235 0
    endloop
  endfacet
  facet normal 1 0 0
    outer loop
      vertex 10 30.2788 10
      vertex 10 37.7712 20
      vertex 10 30.2788 20
    endloop
  endfacet
  facet normal 1 0 0
    outer loop
      vertex 10 37.7712 20
      vertex 10 30.2788 10
      vertex 10 37.7712 0
    endloop
  endfacet
  facet normal 1 0 0
    outer loop
      vertex 10 -20.2462 0
      vertex 10 30.2788 10
      vertex 10 -20.2462 10
    endloop
  endfacet
  facet normal 1 0 0
    outer loop
      vertex 10 30.2788 10
      vertex 10 -20.2462 0
      vertex 10 37.7712 0
    endloop
  endfacet
  facet normal 0.831416 -0.555651 0
    outer loop
      vertex 9.44186 -21.5936 10
      vertex 9.71547 -21.1842 0
      vertex 9.71547 -21.1842 10
    endloop
  endfacet
  facet normal 0.831416 -0.555651 0
    outer loop
      vertex 9.71547 -21.1842 0
      vertex 9.44186 -21.5936 10
      vertex 9.44186 -21.5936 0
    endloop
  endfacet
  facet normal 0.923892 -0.382654 0
    outer loop
      vertex 9.71547 -21.1842 10
      vertex 9.90392 -20.7292 0
      vertex 9.90392 -20.7292 10
    endloop
  endfacet
  facet normal 0.923892 -0.382654 0
    outer loop
      vertex 9.90392 -20.7292 0
      vertex 9.71547 -21.1842 10
      vertex 9.71547 -21.1842 0
    endloop
  endfacet
  facet normal 0 1 -0
    outer loop
      vertex 7.74622 40.025 0
      vertex -12.7462 40.025 20
      vertex 7.74622 40.025 20
    endloop
  endfacet
  facet normal 0 1 0
    outer loop
      vertex -12.7462 40.025 20
      vertex 7.74622 40.025 0
      vertex -12.7462 40.025 0
    endloop
  endfacet
  facet normal 0.55559 0.831456 -0
    outer loop
      vertex 9.09364 39.4669 0
      vertex 8.68419 39.7405 20
      vertex 9.09364 39.4669 20
    endloop
  endfacet
  facet normal 0.55559 0.831456 0
    outer loop
      vertex 8.68419 39.7405 20
      vertex 9.09364 39.4669 0
      vertex 8.68419 39.7405 0
    endloop
  endfacet
  facet normal 0.980783 -0.195101 0
    outer loop
      vertex 9.90392 -20.7292 10
      vertex 10 -20.2462 0
      vertex 10 -20.2462 10
    endloop
  endfacet
  facet normal 0.980783 -0.195101 0
    outer loop
      vertex 10 -20.2462 0
      vertex 9.90392 -20.7292 10
      vertex 9.90392 -20.7292 0
    endloop
  endfacet
  facet normal 0.707188 0.707026 0
    outer loop
      vertex 9.44186 39.1186 20
      vertex 9.09364 39.4669 0
      vertex 9.09364 39.4669 20
    endloop
  endfacet
  facet normal 0.707188 0.707026 0
    outer loop
      vertex 9.09364 39.4669 0
      vertex 9.44186 39.1186 20
      vertex 9.44186 39.1186 0
    endloop
  endfacet
  facet normal 0.19514 0.980775 -0
    outer loop
      vertex 8.22922 39.9289 0
      vertex 7.74622 40.025 20
      vertex 8.22922 39.9289 20
    endloop
  endfacet
  facet normal 0.19514 0.980775 0
    outer loop
      vertex 7.74622 40.025 20
      vertex 8.22922 39.9289 0
      vertex 7.74622 40.025 0
    endloop
  endfacet
  facet normal 0.382589 0.923919 -0
    outer loop
      vertex 8.68419 39.7405 0
      vertex 8.22922 39.9289 20
      vertex 8.68419 39.7405 20
    endloop
  endfacet
  facet normal 0.382589 0.923919 0
    outer loop
      vertex 8.22922 39.9289 20
      vertex 8.68419 39.7405 0
      vertex 8.22922 39.9289 0
    endloop
  endfacet
  facet normal -0.980783 -0.195101 0
    outer loop
      vertex -9.90392 -20.7292 0
      vertex -10 -20.2462 10
      vertex -10 -20.2462 0
    endloop
  endfacet
  facet normal -0.980783 -0.195101 0
    outer loop
      vertex -10 -20.2462 10
      vertex -9.90392 -20.7292 0
      vertex -9.90392 -20.7292 10
    endloop
  endfacet
  facet normal 0 -1 0
    outer loop
      vertex -7.74622 -22.5 0
      vertex 7.74622 -22.5 10
      vertex -7.74622 -22.5 10
    endloop
  endfacet
  facet normal 0 -1 -0
    outer loop
      vertex 7.74622 -22.5 10
      vertex -7.74622 -22.5 0
      vertex 7.74622 -22.5 0
    endloop
  endfacet
  facet normal -0.19514 -0.980775 0
    outer loop
      vertex -8.22922 -22.4039 0
      vertex -7.74622 -22.5 10
      vertex -8.22922 -22.4039 10
    endloop
  endfacet
  facet normal -0.19514 -0.980775 -0
    outer loop
      vertex -7.74622 -22.5 10
      vertex -8.22922 -22.4039 0
      vertex -7.74622 -22.5 0
    endloop
  endfacet
  facet normal -0.55559 -0.831456 0
    outer loop
      vertex -9.09364 -21.9419 0
      vertex -8.68419 -22.2155 10
      vertex -9.09364 -21.9419 10
    endloop
  endfacet
  facet normal -0.55559 -0.831456 -0
    outer loop
      vertex -8.68419 -22.2155 10
      vertex -9.09364 -21.9419 0
      vertex -8.68419 -22.2155 0
    endloop
  endfacet
  facet normal -0.707188 -0.707026 0
    outer loop
      vertex -9.09364 -21.9419 0
      vertex -9.44186 -21.5936 10
      vertex -9.44186 -21.5936 0
    endloop
  endfacet
  facet normal -0.707188 -0.707026 0
    outer loop
      vertex -9.44186 -21.5936 10
      vertex -9.09364 -21.9419 0
      vertex -9.09364 -21.9419 10
    endloop
  endfacet
  facet normal -0.923892 -0.382654 0
    outer loop
      vertex -9.71547 -21.1842 0
      vertex -9.90392 -20.7292 10
      vertex -9.90392 -20.7292 0
    endloop
  endfacet
  facet normal -0.923892 -0.382654 0
    outer loop
      vertex -9.90392 -20.7292 10
      vertex -9.71547 -21.1842 0
      vertex -9.71547 -21.1842 10
    endloop
  endfacet
  facet normal 0.831416 0.555651 0
    outer loop
      vertex 9.71547 38.7092 20
      vertex 9.44186 39.1186 0
      vertex 9.44186 39.1186 20
    endloop
  endfacet
  facet normal 0.831416 0.555651 0
    outer loop
      vertex 9.44186 39.1186 0
      vertex 9.71547 38.7092 20
      vertex 9.71547 38.7092 0
    endloop
  endfacet
  facet normal 0.923892 0.382654 0
    outer loop
      vertex 9.90392 38.2542 20
      vertex 9.71547 38.7092 0
      vertex 9.71547 38.7092 20
    endloop
  endfacet
  facet normal 0.923892 0.382654 0
    outer loop
      vertex 9.71547 38.7092 0
      vertex 9.90392 38.2542 20
      vertex 9.90392 38.2542 0
    endloop
  endfacet
  facet normal 0.980783 0.195101 0
    outer loop
      vertex 10 37.7712 20
      vertex 9.90392 38.2542 0
      vertex 9.90392 38.2542 20
    endloop
  endfacet
  facet normal 0.980783 0.195101 0
    outer loop
      vertex 9.90392 38.2542 0
      vertex 10 37.7712 20
      vertex 10 37.7712 0
    endloop
  endfacet
  facet normal 0.382589 -0.923919 0
    outer loop
      vertex 8.22922 -22.4039 0
      vertex 8.68419 -22.2155 10
      vertex 8.22922 -22.4039 10
    endloop
  endfacet
  facet normal 0.382589 -0.923919 0
    outer loop
      vertex 8.68419 -22.2155 10
      vertex 8.22922 -22.4039 0
      vertex 8.68419 -22.2155 0
    endloop
  endfacet
  facet normal 0.19514 -0.980775 0
    outer loop
      vertex 7.74622 -22.5 0
      vertex 8.22922 -22.4039 10
      vertex 7.74622 -22.5 10
    endloop
  endfacet
  facet normal 0.19514 -0.980775 0
    outer loop
      vertex 8.22922 -22.4039 10
      vertex 7.74622 -22.5 0
      vertex 8.22922 -22.4039 0
    endloop
  endfacet
  facet normal -0.382589 -0.923919 0
    outer loop
      vertex -8.68419 -22.2155 0
      vertex -8.22922 -22.4039 10
      vertex -8.68419 -22.2155 10
    endloop
  endfacet
  facet normal -0.382589 -0.923919 -0
    outer loop
      vertex -8.22922 -22.4039 10
      vertex -8.68419 -22.2155 0
      vertex -8.22922 -22.4039 0
    endloop
  endfacet
  facet normal -0.831416 -0.555651 0
    outer loop
      vertex -9.44186 -21.5936 0
      vertex -9.71547 -21.1842 10
      vertex -9.71547 -21.1842 0
    endloop
  endfacet
  facet normal -0.831416 -0.555651 0
    outer loop
      vertex -9.71547 -21.1842 10
      vertex -9.44186 -21.5936 0
      vertex -9.44186 -21.5936 10
    endloop
  endfacet
  facet normal 0.707188 -0.707026 0
    outer loop
      vertex 9.09364 -21.9419 10
      vertex 9.44186 -21.5936 0
      vertex 9.44186 -21.5936 10
    endloop
  endfacet
  facet normal 0.707188 -0.707026 0
    outer loop
      vertex 9.44186 -21.5936 0
      vertex 9.09364 -21.9419 10
      vertex 9.09364 -21.9419 0
    endloop
  endfacet
  facet normal 0.55559 -0.831456 0
    outer loop
      vertex 8.68419 -22.2155 0
      vertex 9.09364 -21.9419 10
      vertex 8.68419 -22.2155 10
    endloop
  endfacet
  facet normal 0.55559 -0.831456 0
    outer loop
      vertex 9.09364 -21.9419 10
      vertex 8.68419 -22.2155 0
      vertex 9.09364 -21.9419 0
    endloop
  endfacet
  facet normal 0.923892 -0.382654 0
    outer loop
      vertex 9.71547 29.3408 20
      vertex 9.90392 29.7958 10
      vertex 9.90392 29.7958 20
    endloop
  endfacet
  facet normal 0.923892 -0.382654 0
    outer loop
      vertex 9.90392 29.7958 10
      vertex 9.71547 29.3408 20
      vertex 9.71547 29.3408 10
    endloop
  endfacet
  facet normal -0.831425 0.555637 0
    outer loop
      vertex -14.7155 38.7092 0
      vertex -14.4419 39.1186 20
      vertex -14.4419 39.1186 0
    endloop
  endfacet
  facet normal -0.831425 0.555637 0
    outer loop
      vertex -14.4419 39.1186 20
      vertex -14.7155 38.7092 0
      vertex -14.7155 38.7092 20
    endloop
  endfacet
  facet normal -0.19514 -0.980775 0
    outer loop
      vertex -13.2292 28.1211 0
      vertex -12.7462 28.025 20
      vertex -13.2292 28.1211 20
    endloop
  endfacet
  facet normal -0.19514 -0.980775 -0
    outer loop
      vertex -12.7462 28.025 20
      vertex -13.2292 28.1211 0
      vertex -12.7462 28.025 0
    endloop
  endfacet
  facet normal 0.55559 -0.831456 0
    outer loop
      vertex 8.68419 28.3095 10
      vertex 9.09364 28.5831 20
      vertex 8.68419 28.3095 20
    endloop
  endfacet
  facet normal 0.55559 -0.831456 0
    outer loop
      vertex 9.09364 28.5831 20
      vertex 8.68419 28.3095 10
      vertex 9.09364 28.5831 10
    endloop
  endfacet
  facet normal -1 0 0
    outer loop
      vertex -15 30.2788 0
      vertex -15 31.775 20
      vertex -15 31.775 0
    endloop
  endfacet
  facet normal -1 -0 0
    outer loop
      vertex -15 31.775 20
      vertex -15 30.2788 0
      vertex -15 30.2788 20
    endloop
  endfacet
  facet normal -1 0 0
    outer loop
      vertex -15 34.525 0
      vertex -15 37.7712 20
      vertex -15 37.7712 0
    endloop
  endfacet
  facet normal -1 -0 0
    outer loop
      vertex -15 37.7712 20
      vertex -15 34.525 0
      vertex -15 34.525 20
    endloop
  endfacet
  facet normal 0.980783 -0.195101 0
    outer loop
      vertex 9.90392 29.7958 20
      vertex 10 30.2788 10
      vertex 10 30.2788 20
    endloop
  endfacet
  facet normal 0.980783 -0.195101 0
    outer loop
      vertex 10 30.2788 10
      vertex 9.90392 29.7958 20
      vertex 9.90392 29.7958 10
    endloop
  endfacet
  facet normal 0 -1 0
    outer loop
      vertex -12.7462 28.025 20
      vertex -10 28.025 10
      vertex 7.74622 28.025 20
    endloop
  endfacet
  facet normal 0 -1 0
    outer loop
      vertex -12.7462 28.025 0
      vertex -10 28.025 10
      vertex -12.7462 28.025 20
    endloop
  endfacet
  facet normal 0 -1 -0
    outer loop
      vertex -10 28.025 10
      vertex -12.7462 28.025 0
      vertex -10 28.025 0
    endloop
  endfacet
  facet normal 0 -1 -0
    outer loop
      vertex 7.74622 28.025 20
      vertex -10 28.025 10
      vertex 7.74622 28.025 10
    endloop
  endfacet
  facet normal 0 0 1
    outer loop
      vertex 7.74622 40.025 20
      vertex 10 37.7712 20
      vertex 9.90392 38.2542 20
    endloop
  endfacet
  facet normal 0 0 1
    outer loop
      vertex 10 37.7712 20
      vertex 7.74622 40.025 20
      vertex 10 30.2788 20
    endloop
  endfacet
  facet normal 0 0 1
    outer loop
      vertex 7.74622 40.025 20
      vertex 9.90392 38.2542 20
      vertex 9.71547 38.7092 20
    endloop
  endfacet
  facet normal 0 0 1
    outer loop
      vertex 7.74622 28.025 20
      vertex 10 30.2788 20
      vertex 7.74622 40.025 20
    endloop
  endfacet
  facet normal 0 0 1
    outer loop
      vertex 7.74622 40.025 20
      vertex 9.71547 38.7092 20
      vertex 9.44186 39.1186 20
    endloop
  endfacet
  facet normal 0 0 1
    outer loop
      vertex 10 30.2788 20
      vertex 7.74622 28.025 20
      vertex 9.90392 29.7958 20
    endloop
  endfacet
  facet normal 0 0 1
    outer loop
      vertex 7.74622 40.025 20
      vertex 9.44186 39.1186 20
      vertex 9.09364 39.4669 20
    endloop
  endfacet
  facet normal 0 0 1
    outer loop
      vertex 9.90392 29.7958 20
      vertex 7.74622 28.025 20
      vertex 9.71547 29.3408 20
    endloop
  endfacet
  facet normal 0 0 1
    outer loop
      vertex 7.74622 40.025 20
      vertex 9.09364 39.4669 20
      vertex 8.68419 39.7405 20
    endloop
  endfacet
  facet normal 0 0 1
    outer loop
      vertex 9.71547 29.3408 20
      vertex 7.74622 28.025 20
      vertex 9.44186 28.9314 20
    endloop
  endfacet
  facet normal 0 0 1
    outer loop
      vertex 7.74622 40.025 20
      vertex 8.68419 39.7405 20
      vertex 8.22922 39.9289 20
    endloop
  endfacet
  facet normal 0 0 1
    outer loop
      vertex 9.44186 28.9314 20
      vertex 7.74622 28.025 20
      vertex 9.09364 28.5831 20
    endloop
  endfacet
  facet normal 0 0 1
    outer loop
      vertex 9.09364 28.5831 20
      vertex 7.74622 28.025 20
      vertex 8.68419 28.3095 20
    endloop
  endfacet
  facet normal 0 0 1
    outer loop
      vertex 8.68419 28.3095 20
      vertex 7.74622 28.025 20
      vertex 8.22922 28.1211 20
    endloop
  endfacet
  facet normal 0 0 1
    outer loop
      vertex 7.74622 40.025 20
      vertex -5 34.525 20
      vertex 7.74622 28.025 20
    endloop
  endfacet
  facet normal -0 0 1
    outer loop
      vertex -12.7462 40.025 20
      vertex -5 34.525 20
      vertex 7.74622 40.025 20
    endloop
  endfacet
  facet normal 0 0 1
    outer loop
      vertex -15 37.7712 20
      vertex -12.7462 40.025 20
      vertex -13.2292 39.9289 20
    endloop
  endfacet
  facet normal 0 0 1
    outer loop
      vertex -15 37.7712 20
      vertex -13.2292 39.9289 20
      vertex -13.6842 39.7405 20
    endloop
  endfacet
  facet normal 0 0 1
    outer loop
      vertex -15 37.7712 20
      vertex -13.6842 39.7405 20
      vertex -14.0936 39.4669 20
    endloop
  endfacet
  facet normal 0 0 1
    outer loop
      vertex -15 37.7712 20
      vertex -14.0936 39.4669 20
      vertex -14.4419 39.1186 20
    endloop
  endfacet
  facet normal 0 0 1
    outer loop
      vertex -15 37.7712 20
      vertex -14.4419 39.1186 20
      vertex -14.7155 38.7092 20
    endloop
  endfacet
  facet normal 0 0 1
    outer loop
      vertex -15 37.7712 20
      vertex -14.7155 38.7092 20
      vertex -14.9039 38.2542 20
    endloop
  endfacet
  facet normal 0 0 1
    outer loop
      vertex -12.7462 40.025 20
      vertex -15 37.7712 20
      vertex -15 34.525 20
    endloop
  endfacet
  facet normal 0 0 1
    outer loop
      vertex -12.7462 40.025 20
      vertex -15 34.525 20
      vertex -5 34.525 20
    endloop
  endfacet
  facet normal -0 0 1
    outer loop
      vertex -5 32.825 20
      vertex 7.74622 28.025 20
      vertex -5 34.525 20
    endloop
  endfacet
  facet normal 0 0 1
    outer loop
      vertex -5 32.825 20
      vertex -12.7462 28.025 20
      vertex 7.74622 28.025 20
    endloop
  endfacet
  facet normal -0 0 1
    outer loop
      vertex -12.9 32.825 20
      vertex -12.7462 28.025 20
      vertex -5 32.825 20
    endloop
  endfacet
  facet normal 0 0 1
    outer loop
      vertex -12.9 32.825 20
      vertex -13.2292 28.1211 20
      vertex -12.7462 28.025 20
    endloop
  endfacet
  facet normal 0 0 1
    outer loop
      vertex -12.9 32.825 20
      vertex -13.6842 28.3095 20
      vertex -13.2292 28.1211 20
    endloop
  endfacet
  facet normal 0 0 1
    outer loop
      vertex -12.9 32.825 20
      vertex -14.0936 28.5831 20
      vertex -13.6842 28.3095 20
    endloop
  endfacet
  facet normal 0 0 1
    outer loop
      vertex -12.9 32.825 20
      vertex -14.4419 28.9314 20
      vertex -14.0936 28.5831 20
    endloop
  endfacet
  facet normal 0 0 1
    outer loop
      vertex -12.9 32.825 20
      vertex -14.7155 29.3408 20
      vertex -14.4419 28.9314 20
    endloop
  endfacet
  facet normal 0 0 1
    outer loop
      vertex -12.9 32.825 20
      vertex -14.9039 29.7958 20
      vertex -14.7155 29.3408 20
    endloop
  endfacet
  facet normal 0 0 1
    outer loop
      vertex -15 30.2788 20
      vertex -12.9 32.825 20
      vertex -15 31.775 20
    endloop
  endfacet
  facet normal 0 0 1
    outer loop
      vertex -12.9 32.825 20
      vertex -15 30.2788 20
      vertex -14.9039 29.7958 20
    endloop
  endfacet
  facet normal 0.19514 -0.980775 0
    outer loop
      vertex 7.74622 28.025 10
      vertex 8.22922 28.1211 20
      vertex 7.74622 28.025 20
    endloop
  endfacet
  facet normal 0.19514 -0.980775 0
    outer loop
      vertex 8.22922 28.1211 20
      vertex 7.74622 28.025 10
      vertex 8.22922 28.1211 10
    endloop
  endfacet
  facet normal 0.831416 -0.555651 0
    outer loop
      vertex 9.44186 28.9314 20
      vertex 9.71547 29.3408 10
      vertex 9.71547 29.3408 20
    endloop
  endfacet
  facet normal 0.831416 -0.555651 0
    outer loop
      vertex 9.71547 29.3408 10
      vertex 9.44186 28.9314 20
      vertex 9.44186 28.9314 10
    endloop
  endfacet
  facet normal -0.382567 0.923928 0
    outer loop
      vertex -13.2292 39.9289 0
      vertex -13.6842 39.7405 20
      vertex -13.2292 39.9289 20
    endloop
  endfacet
  facet normal -0.382567 0.923928 0
    outer loop
      vertex -13.6842 39.7405 20
      vertex -13.2292 39.9289 0
      vertex -13.6842 39.7405 0
    endloop
  endfacet
  facet normal -0.19514 0.980775 0
    outer loop
      vertex -12.7462 40.025 0
      vertex -13.2292 39.9289 20
      vertex -12.7462 40.025 20
    endloop
  endfacet
  facet normal -0.19514 0.980775 0
    outer loop
      vertex -13.2292 39.9289 20
      vertex -12.7462 40.025 0
      vertex -13.2292 39.9289 0
    endloop
  endfacet
  facet normal -0.707107 0.707107 0
    outer loop
      vertex -14.4419 39.1186 0
      vertex -14.0936 39.4669 20
      vertex -14.0936 39.4669 0
    endloop
  endfacet
  facet normal -0.707107 0.707107 0
    outer loop
      vertex -14.0936 39.4669 20
      vertex -14.4419 39.1186 0
      vertex -14.4419 39.1186 20
    endloop
  endfacet
  facet normal -0.555637 0.831425 0
    outer loop
      vertex -13.6842 39.7405 0
      vertex -14.0936 39.4669 20
      vertex -13.6842 39.7405 20
    endloop
  endfacet
  facet normal -0.555637 0.831425 0
    outer loop
      vertex -14.0936 39.4669 20
      vertex -13.6842 39.7405 0
      vertex -14.0936 39.4669 0
    endloop
  endfacet
  facet normal -0.923928 -0.382567 0
    outer loop
      vertex -14.7155 29.3408 0
      vertex -14.9039 29.7958 20
      vertex -14.9039 29.7958 0
    endloop
  endfacet
  facet normal -0.923928 -0.382567 0
    outer loop
      vertex -14.9039 29.7958 20
      vertex -14.7155 29.3408 0
      vertex -14.7155 29.3408 20
    endloop
  endfacet
  facet normal -0.980775 0.19514 0
    outer loop
      vertex -15 37.7712 0
      vertex -14.9039 38.2542 20
      vertex -14.9039 38.2542 0
    endloop
  endfacet
  facet normal -0.980775 0.19514 0
    outer loop
      vertex -14.9039 38.2542 20
      vertex -15 37.7712 0
      vertex -15 37.7712 20
    endloop
  endfacet
  facet normal -0.923928 0.382567 0
    outer loop
      vertex -14.9039 38.2542 0
      vertex -14.7155 38.7092 20
      vertex -14.7155 38.7092 0
    endloop
  endfacet
  facet normal -0.923928 0.382567 0
    outer loop
      vertex -14.7155 38.7092 20
      vertex -14.9039 38.2542 0
      vertex -14.9039 38.2542 20
    endloop
  endfacet
  facet normal 0.382589 -0.923919 0
    outer loop
      vertex 8.22922 28.1211 10
      vertex 8.68419 28.3095 20
      vertex 8.22922 28.1211 20
    endloop
  endfacet
  facet normal 0.382589 -0.923919 0
    outer loop
      vertex 8.68419 28.3095 20
      vertex 8.22922 28.1211 10
      vertex 8.68419 28.3095 10
    endloop
  endfacet
  facet normal -0.382567 -0.923928 0
    outer loop
      vertex -13.6842 28.3095 0
      vertex -13.2292 28.1211 20
      vertex -13.6842 28.3095 20
    endloop
  endfacet
  facet normal -0.382567 -0.923928 -0
    outer loop
      vertex -13.2292 28.1211 20
      vertex -13.6842 28.3095 0
      vertex -13.2292 28.1211 0
    endloop
  endfacet
  facet normal -0.831425 -0.555637 0
    outer loop
      vertex -14.4419 28.9314 0
      vertex -14.7155 29.3408 20
      vertex -14.7155 29.3408 0
    endloop
  endfacet
  facet normal -0.831425 -0.555637 0
    outer loop
      vertex -14.7155 29.3408 20
      vertex -14.4419 28.9314 0
      vertex -14.4419 28.9314 20
    endloop
  endfacet
  facet normal -0.980775 -0.19514 0
    outer loop
      vertex -14.9039 29.7958 0
      vertex -15 30.2788 20
      vertex -15 30.2788 0
    endloop
  endfacet
  facet normal -0.980775 -0.19514 0
    outer loop
      vertex -15 30.2788 20
      vertex -14.9039 29.7958 0
      vertex -14.9039 29.7958 20
    endloop
  endfacet
  facet normal -0.555637 -0.831425 0
    outer loop
      vertex -14.0936 28.5831 0
      vertex -13.6842 28.3095 20
      vertex -14.0936 28.5831 20
    endloop
  endfacet
  facet normal -0.555637 -0.831425 -0
    outer loop
      vertex -13.6842 28.3095 20
      vertex -14.0936 28.5831 0
      vertex -13.6842 28.3095 0
    endloop
  endfacet
  facet normal -0.707107 -0.707107 0
    outer loop
      vertex -14.0936 28.5831 0
      vertex -14.4419 28.9314 20
      vertex -14.4419 28.9314 0
    endloop
  endfacet
  facet normal -0.707107 -0.707107 0
    outer loop
      vertex -14.4419 28.9314 20
      vertex -14.0936 28.5831 0
      vertex -14.0936 28.5831 20
    endloop
  endfacet
  facet normal 0.707188 -0.707026 0
    outer loop
      vertex 9.09364 28.5831 20
      vertex 9.44186 28.9314 10
      vertex 9.44186 28.9314 20
    endloop
  endfacet
  facet normal 0.707188 -0.707026 0
    outer loop
      vertex 9.44186 28.9314 10
      vertex 9.09364 28.5831 20
      vertex 9.09364 28.5831 10
    endloop
  endfacet
  facet normal -0.707104 -0.707109 0
    outer loop
      vertex 2.6 -8.92304 0
      vertex 1.07695 -7.4 10
      vertex 1.07695 -7.4 0
    endloop
  endfacet
  facet normal -0.707104 -0.707109 0
    outer loop
      vertex 1.07695 -7.4 10
      vertex 2.6 -8.92304 0
      vertex 2.6 -8.92304 10
    endloop
  endfacet
  facet normal 1 -0 0
    outer loop
      vertex -2.6 -11.077 10
      vertex -2.6 -8.92304 0
      vertex -2.6 -8.92304 10
    endloop
  endfacet
  facet normal 1 0 0
    outer loop
      vertex -2.6 -8.92304 0
      vertex -2.6 -11.077 10
      vertex -2.6 -11.077 0
    endloop
  endfacet
  facet normal -0.707095 0.707118 0
    outer loop
      vertex 1.07695 -12.6 0
      vertex 2.6 -11.077 10
      vertex 2.6 -11.077 0
    endloop
  endfacet
  facet normal -0.707095 0.707118 0
    outer loop
      vertex 2.6 -11.077 10
      vertex 1.07695 -12.6 0
      vertex 1.07695 -12.6 10
    endloop
  endfacet
  facet normal 0.707104 -0.707109 0
    outer loop
      vertex -2.6 -8.92304 10
      vertex -1.07695 -7.4 0
      vertex -1.07695 -7.4 10
    endloop
  endfacet
  facet normal 0.707104 -0.707109 0
    outer loop
      vertex -1.07695 -7.4 0
      vertex -2.6 -8.92304 10
      vertex -2.6 -8.92304 0
    endloop
  endfacet
  facet normal 0 -1 0
    outer loop
      vertex -1.07695 -7.4 0
      vertex 1.07695 -7.4 10
      vertex -1.07695 -7.4 10
    endloop
  endfacet
  facet normal 0 -1 -0
    outer loop
      vertex 1.07695 -7.4 10
      vertex -1.07695 -7.4 0
      vertex 1.07695 -7.4 0
    endloop
  endfacet
  facet normal -1 0 0
    outer loop
      vertex 2.6 -11.077 0
      vertex 2.6 -8.92304 10
      vertex 2.6 -8.92304 0
    endloop
  endfacet
  facet normal -1 -0 0
    outer loop
      vertex 2.6 -8.92304 10
      vertex 2.6 -11.077 0
      vertex 2.6 -11.077 10
    endloop
  endfacet
  facet normal 0 1 -0
    outer loop
      vertex 1.07695 -12.6 0
      vertex -1.07695 -12.6 10
      vertex 1.07695 -12.6 10
    endloop
  endfacet
  facet normal 0 1 0
    outer loop
      vertex -1.07695 -12.6 10
      vertex 1.07695 -12.6 0
      vertex -1.07695 -12.6 0
    endloop
  endfacet
  facet normal 0.707095 0.707118 0
    outer loop
      vertex -1.07695 -12.6 10
      vertex -2.6 -11.077 0
      vertex -2.6 -11.077 10
    endloop
  endfacet
  facet normal 0.707095 0.707118 0
    outer loop
      vertex -2.6 -11.077 0
      vertex -1.07695 -12.6 10
      vertex -1.07695 -12.6 0
    endloop
  endfacet
  facet normal -0.707095 -0.707118 0
    outer loop
      vertex 2.6 11.077 0
      vertex 1.07695 12.6 10
      vertex 1.07695 12.6 0
    endloop
  endfacet
  facet normal -0.707095 -0.707118 0
    outer loop
      vertex 1.07695 12.6 10
      vertex 2.6 11.077 0
      vertex 2.6 11.077 10
    endloop
  endfacet
  facet normal 1 -0 0
    outer loop
      vertex -2.6 8.92304 10
      vertex -2.6 11.077 0
      vertex -2.6 11.077 10
    endloop
  endfacet
  facet normal 1 0 0
    outer loop
      vertex -2.6 11.077 0
      vertex -2.6 8.92304 10
      vertex -2.6 8.92304 0
    endloop
  endfacet
  facet normal -0.707104 0.707109 0
    outer loop
      vertex 1.07695 7.4 0
      vertex 2.6 8.92304 10
      vertex 2.6 8.92304 0
    endloop
  endfacet
  facet normal -0.707104 0.707109 0
    outer loop
      vertex 2.6 8.92304 10
      vertex 1.07695 7.4 0
      vertex 1.07695 7.4 10
    endloop
  endfacet
  facet normal 0.707095 -0.707118 0
    outer loop
      vertex -2.6 11.077 10
      vertex -1.07695 12.6 0
      vertex -1.07695 12.6 10
    endloop
  endfacet
  facet normal 0.707095 -0.707118 0
    outer loop
      vertex -1.07695 12.6 0
      vertex -2.6 11.077 10
      vertex -2.6 11.077 0
    endloop
  endfacet
  facet normal 0 -1 0
    outer loop
      vertex -1.07695 12.6 0
      vertex 1.07695 12.6 10
      vertex -1.07695 12.6 10
    endloop
  endfacet
  facet normal 0 -1 -0
    outer loop
      vertex 1.07695 12.6 10
      vertex -1.07695 12.6 0
      vertex 1.07695 12.6 0
    endloop
  endfacet
  facet normal -1 0 0
    outer loop
      vertex 2.6 8.92304 0
      vertex 2.6 11.077 10
      vertex 2.6 11.077 0
    endloop
  endfacet
  facet normal -1 -0 0
    outer loop
      vertex 2.6 11.077 10
      vertex 2.6 8.92304 0
      vertex 2.6 8.92304 10
    endloop
  endfacet
  facet normal 0 1 -0
    outer loop
      vertex 1.07695 7.4 0
      vertex -1.07695 7.4 10
      vertex 1.07695 7.4 10
    endloop
  endfacet
  facet normal 0 1 0
    outer loop
      vertex -1.07695 7.4 10
      vertex 1.07695 7.4 0
      vertex -1.07695 7.4 0
    endloop
  endfacet
  facet normal 0.707104 0.707109 0
    outer loop
      vertex -1.07695 7.4 10
      vertex -2.6 8.92304 0
      vertex -2.6 8.92304 10
    endloop
  endfacet
  facet normal 0.707104 0.707109 0
    outer loop
      vertex -2.6 8.92304 0
      vertex -1.07695 7.4 10
      vertex -1.07695 7.4 0
    endloop
  endfacet
  facet normal 0 -1 0
    outer loop
      vertex -15 34.525 0
      vertex -5 34.525 20
      vertex -15 34.525 20
    endloop
  endfacet
  facet normal 0 -1 -0
    outer loop
      vertex -5 34.525 20
      vertex -15 34.525 0
      vertex -5 34.525 0
    endloop
  endfacet
  facet normal -0.447214 0.894427 0
    outer loop
      vertex -12.9 32.825 19.5958
      vertex -15 31.775 20
      vertex -12.9 32.825 20
    endloop
  endfacet
  facet normal -0.447214 0.894427 0
    outer loop
      vertex -12.9 32.825 18.4041
      vertex -12.9 32.825 19.5958
      vertex -11.5 33.525 19.1917
    endloop
  endfacet
  facet normal -0.447214 0.894427 0
    outer loop
      vertex -12.9 32.825 18.4041
      vertex -11.5 33.525 19.1917
      vertex -11.5 33.525 18.8083
    endloop
  endfacet
  facet normal -0.447214 0.894427 0
    outer loop
      vertex -12.9 32.825 19.5958
      vertex -12.9 32.825 18.4041
      vertex -15 31.775 20
    endloop
  endfacet
  facet normal -0.447214 0.894427 0
    outer loop
      vertex -12.9 32.825 17.5958
      vertex -15 31.775 20
      vertex -12.9 32.825 18.4041
    endloop
  endfacet
  facet normal -0.447214 0.894427 0
    outer loop
      vertex -11.5 33.525 16.8083
      vertex -12.9 32.825 17.5958
      vertex -11.5 33.525 17.1917
    endloop
  endfacet
  facet normal -0.447214 0.894427 0
    outer loop
      vertex -12.9 32.825 16.4041
      vertex -12.9 32.825 17.5958
      vertex -11.5 33.525 16.8083
    endloop
  endfacet
  facet normal -0.447214 0.894427 0
    outer loop
      vertex -12.9 32.825 16.4041
      vertex -15 31.775 20
      vertex -12.9 32.825 17.5958
    endloop
  endfacet
  facet normal -0.447214 0.894427 0
    outer loop
      vertex -12.9 32.825 15.5958
      vertex -15 31.775 20
      vertex -12.9 32.825 16.4041
    endloop
  endfacet
  facet normal -0.447214 0.894427 0
    outer loop
      vertex -11.5 33.525 14.8083
      vertex -12.9 32.825 15.5958
      vertex -11.5 33.525 15.1917
    endloop
  endfacet
  facet normal -0.447214 0.894427 0
    outer loop
      vertex -12.9 32.825 14.4041
      vertex -12.9 32.825 15.5958
      vertex -11.5 33.525 14.8083
    endloop
  endfacet
  facet normal -0.447214 0.894427 0
    outer loop
      vertex -12.9 32.825 14.4041
      vertex -15 31.775 20
      vertex -12.9 32.825 15.5958
    endloop
  endfacet
  facet normal -0.447214 0.894427 0
    outer loop
      vertex -12.9 32.825 13.5958
      vertex -15 31.775 20
      vertex -12.9 32.825 14.4041
    endloop
  endfacet
  facet normal -0.447214 0.894427 0
    outer loop
      vertex -11.5 33.525 12.8083
      vertex -12.9 32.825 13.5958
      vertex -11.5 33.525 13.1917
    endloop
  endfacet
  facet normal -0.447214 0.894427 0
    outer loop
      vertex -12.9 32.825 12.4041
      vertex -12.9 32.825 13.5958
      vertex -11.5 33.525 12.8083
    endloop
  endfacet
  facet normal -0.447214 0.894427 0
    outer loop
      vertex -12.9 32.825 12.4041
      vertex -15 31.775 20
      vertex -12.9 32.825 13.5958
    endloop
  endfacet
  facet normal -0.447214 0.894427 0
    outer loop
      vertex -12.9 32.825 11.5958
      vertex -15 31.775 20
      vertex -12.9 32.825 12.4041
    endloop
  endfacet
  facet normal -0.447214 0.894427 0
    outer loop
      vertex -11.5 33.525 10.8083
      vertex -12.9 32.825 11.5958
      vertex -11.5 33.525 11.1917
    endloop
  endfacet
  facet normal -0.447214 0.894427 0
    outer loop
      vertex -12.9 32.825 10.4041
      vertex -12.9 32.825 11.5958
      vertex -11.5 33.525 10.8083
    endloop
  endfacet
  facet normal -0.447214 0.894427 0
    outer loop
      vertex -12.9 32.825 10.4041
      vertex -15 31.775 20
      vertex -12.9 32.825 11.5958
    endloop
  endfacet
  facet normal -0.447214 0.894427 0
    outer loop
      vertex -12.9 32.825 9.59584
      vertex -15 31.775 20
      vertex -12.9 32.825 10.4041
    endloop
  endfacet
  facet normal -0.447214 0.894427 0
    outer loop
      vertex -11.5 33.525 8.80829
      vertex -12.9 32.825 9.59584
      vertex -11.5 33.525 9.1917
    endloop
  endfacet
  facet normal -0.447214 0.894427 0
    outer loop
      vertex -12.9 32.825 8.40414
      vertex -12.9 32.825 9.59584
      vertex -11.5 33.525 8.80829
    endloop
  endfacet
  facet normal -0.447214 0.894427 0
    outer loop
      vertex -15 31.775 0
      vertex -12.9 32.825 9.59584
      vertex -12.9 32.825 8.40414
    endloop
  endfacet
  facet normal -0.447214 0.894427 0
    outer loop
      vertex -15 31.775 0
      vertex -12.9 32.825 8.40414
      vertex -12.9 32.825 7.59584
    endloop
  endfacet
  facet normal -0.447214 0.894427 0
    outer loop
      vertex -11.5 33.525 6.80829
      vertex -12.9 32.825 7.59584
      vertex -11.5 33.525 7.1917
    endloop
  endfacet
  facet normal -0.447214 0.894427 0
    outer loop
      vertex -12.9 32.825 6.40414
      vertex -12.9 32.825 7.59584
      vertex -11.5 33.525 6.80829
    endloop
  endfacet
  facet normal -0.447214 0.894427 0
    outer loop
      vertex -15 31.775 0
      vertex -12.9 32.825 7.59584
      vertex -12.9 32.825 6.40414
    endloop
  endfacet
  facet normal -0.447214 0.894427 0
    outer loop
      vertex -15 31.775 0
      vertex -12.9 32.825 6.40414
      vertex -12.9 32.825 5.59584
    endloop
  endfacet
  facet normal -0.447214 0.894427 0
    outer loop
      vertex -11.5 33.525 4.80829
      vertex -12.9 32.825 5.59584
      vertex -11.5 33.525 5.1917
    endloop
  endfacet
  facet normal -0.447214 0.894427 0
    outer loop
      vertex -12.9 32.825 4.40414
      vertex -12.9 32.825 5.59584
      vertex -11.5 33.525 4.80829
    endloop
  endfacet
  facet normal -0.447214 0.894427 0
    outer loop
      vertex -15 31.775 0
      vertex -12.9 32.825 5.59584
      vertex -12.9 32.825 4.40414
    endloop
  endfacet
  facet normal -0.447214 0.894427 0
    outer loop
      vertex -15 31.775 0
      vertex -12.9 32.825 4.40414
      vertex -12.9 32.825 3.59584
    endloop
  endfacet
  facet normal -0.447214 0.894427 0
    outer loop
      vertex -11.5 33.525 2.80829
      vertex -12.9 32.825 3.59584
      vertex -11.5 33.525 3.1917
    endloop
  endfacet
  facet normal -0.447214 0.894427 0
    outer loop
      vertex -12.9 32.825 2.40414
      vertex -12.9 32.825 3.59584
      vertex -11.5 33.525 2.80829
    endloop
  endfacet
  facet normal -0.447214 0.894427 0
    outer loop
      vertex -15 31.775 0
      vertex -12.9 32.825 3.59584
      vertex -12.9 32.825 2.40414
    endloop
  endfacet
  facet normal -0.447214 0.894427 0
    outer loop
      vertex -15 31.775 0
      vertex -12.9 32.825 2.40414
      vertex -12.9 32.825 1.59584
    endloop
  endfacet
  facet normal -0.447214 0.894427 0
    outer loop
      vertex -11.5 33.525 0.808289
      vertex -12.9 32.825 1.59584
      vertex -11.5 33.525 1.1917
    endloop
  endfacet
  facet normal -0.447214 0.894427 0
    outer loop
      vertex -12.9 32.825 0.404144
      vertex -12.9 32.825 1.59584
      vertex -11.5 33.525 0.808289
    endloop
  endfacet
  facet normal -0.447214 0.894427 0
    outer loop
      vertex -15 31.775 0
      vertex -12.9 32.825 1.59584
      vertex -12.9 32.825 0.404144
    endloop
  endfacet
  facet normal -0.447214 0.894427 0
    outer loop
      vertex -15 31.775 0
      vertex -12.9 32.825 0.404144
      vertex -12.9 32.825 0
    endloop
  endfacet
  facet normal -0.447214 0.894427 0
    outer loop
      vertex -12.9 32.825 9.59584
      vertex -15 31.775 0
      vertex -15 31.775 20
    endloop
  endfacet
  facet normal -1 0 0
    outer loop
      vertex -5 32.825 17.5958
      vertex -5 33.525 18.8083
      vertex -5 33.525 17.1917
    endloop
  endfacet
  facet normal -1 0 0
    outer loop
      vertex -5 33.525 18.8083
      vertex -5 32.825 17.5958
      vertex -5 32.825 18.4041
    endloop
  endfacet
  facet normal -1 0 0
    outer loop
      vertex -5 32.825 15.5958
      vertex -5 33.525 16.8083
      vertex -5 33.525 15.1917
    endloop
  endfacet
  facet normal -1 0 0
    outer loop
      vertex -5 33.525 16.8083
      vertex -5 32.825 15.5958
      vertex -5 32.825 16.4041
    endloop
  endfacet
  facet normal -1 0 0
    outer loop
      vertex -5 32.825 13.5958
      vertex -5 33.525 14.8083
      vertex -5 33.525 13.1917
    endloop
  endfacet
  facet normal -1 0 0
    outer loop
      vertex -5 33.525 14.8083
      vertex -5 32.825 13.5958
      vertex -5 32.825 14.4041
    endloop
  endfacet
  facet normal -1 0 0
    outer loop
      vertex -5 32.825 11.5958
      vertex -5 33.525 12.8083
      vertex -5 33.525 11.1917
    endloop
  endfacet
  facet normal -1 0 0
    outer loop
      vertex -5 33.525 12.8083
      vertex -5 32.825 11.5958
      vertex -5 32.825 12.4041
    endloop
  endfacet
  facet normal -1 0 0
    outer loop
      vertex -5 32.825 9.59584
      vertex -5 33.525 10.8083
      vertex -5 33.525 9.1917
    endloop
  endfacet
  facet normal -1 0 0
    outer loop
      vertex -5 33.525 10.8083
      vertex -5 32.825 9.59584
      vertex -5 32.825 10.4041
    endloop
  endfacet
  facet normal -1 0 0
    outer loop
      vertex -5 32.825 7.59584
      vertex -5 33.525 8.80829
      vertex -5 33.525 7.1917
    endloop
  endfacet
  facet normal -1 0 0
    outer loop
      vertex -5 33.525 8.80829
      vertex -5 32.825 7.59584
      vertex -5 32.825 8.40414
    endloop
  endfacet
  facet normal -1 0 0
    outer loop
      vertex -5 32.825 5.59584
      vertex -5 33.525 6.80829
      vertex -5 33.525 5.1917
    endloop
  endfacet
  facet normal -1 0 0
    outer loop
      vertex -5 33.525 6.80829
      vertex -5 32.825 5.59584
      vertex -5 32.825 6.40414
    endloop
  endfacet
  facet normal -1 0 0
    outer loop
      vertex -5 32.825 3.59584
      vertex -5 33.525 4.80829
      vertex -5 33.525 3.1917
    endloop
  endfacet
  facet normal -1 0 0
    outer loop
      vertex -5 33.525 4.80829
      vertex -5 32.825 3.59584
      vertex -5 32.825 4.40414
    endloop
  endfacet
  facet normal -1 0 0
    outer loop
      vertex -5 32.825 1.59584
      vertex -5 33.525 2.80829
      vertex -5 33.525 1.1917
    endloop
  endfacet
  facet normal -1 0 0
    outer loop
      vertex -5 33.525 2.80829
      vertex -5 32.825 1.59584
      vertex -5 32.825 2.40414
    endloop
  endfacet
  facet normal -1 0 0
    outer loop
      vertex -5 33.525 1.1917
      vertex -5 34.525 0
      vertex -5 33.525 0.808289
    endloop
  endfacet
  facet normal -1 0 0
    outer loop
      vertex -5 32.825 0
      vertex -5 33.525 0.808289
      vertex -5 34.525 0
    endloop
  endfacet
  facet normal -1 0 0
    outer loop
      vertex -5 33.525 0.808289
      vertex -5 32.825 0
      vertex -5 32.825 0.404144
    endloop
  endfacet
  facet normal -1 0 0
    outer loop
      vertex -5 33.525 2.80829
      vertex -5 34.525 0
      vertex -5 33.525 1.1917
    endloop
  endfacet
  facet normal -1 0 0
    outer loop
      vertex -5 33.525 3.1917
      vertex -5 34.525 0
      vertex -5 33.525 2.80829
    endloop
  endfacet
  facet normal -1 0 0
    outer loop
      vertex -5 33.525 4.80829
      vertex -5 34.525 0
      vertex -5 33.525 3.1917
    endloop
  endfacet
  facet normal -1 0 0
    outer loop
      vertex -5 33.525 5.1917
      vertex -5 34.525 0
      vertex -5 33.525 4.80829
    endloop
  endfacet
  facet normal -1 0 0
    outer loop
      vertex -5 33.525 6.80829
      vertex -5 34.525 0
      vertex -5 33.525 5.1917
    endloop
  endfacet
  facet normal -1 0 0
    outer loop
      vertex -5 33.525 7.1917
      vertex -5 34.525 0
      vertex -5 33.525 6.80829
    endloop
  endfacet
  facet normal -1 0 0
    outer loop
      vertex -5 33.525 8.80829
      vertex -5 34.525 0
      vertex -5 33.525 7.1917
    endloop
  endfacet
  facet normal -1 0 0
    outer loop
      vertex -5 33.525 9.1917
      vertex -5 34.525 0
      vertex -5 33.525 8.80829
    endloop
  endfacet
  facet normal -1 0 0
    outer loop
      vertex -5 34.525 0
      vertex -5 33.525 9.1917
      vertex -5 34.525 20
    endloop
  endfacet
  facet normal -1 0 0
    outer loop
      vertex -5 33.525 10.8083
      vertex -5 34.525 20
      vertex -5 33.525 9.1917
    endloop
  endfacet
  facet normal -1 0 0
    outer loop
      vertex -5 33.525 11.1917
      vertex -5 34.525 20
      vertex -5 33.525 10.8083
    endloop
  endfacet
  facet normal -1 0 0
    outer loop
      vertex -5 33.525 12.8083
      vertex -5 34.525 20
      vertex -5 33.525 11.1917
    endloop
  endfacet
  facet normal -1 0 0
    outer loop
      vertex -5 33.525 13.1917
      vertex -5 34.525 20
      vertex -5 33.525 12.8083
    endloop
  endfacet
  facet normal -1 0 0
    outer loop
      vertex -5 33.525 14.8083
      vertex -5 34.525 20
      vertex -5 33.525 13.1917
    endloop
  endfacet
  facet normal -1 0 0
    outer loop
      vertex -5 33.525 15.1917
      vertex -5 34.525 20
      vertex -5 33.525 14.8083
    endloop
  endfacet
  facet normal -1 0 0
    outer loop
      vertex -5 33.525 16.8083
      vertex -5 34.525 20
      vertex -5 33.525 15.1917
    endloop
  endfacet
  facet normal -1 0 0
    outer loop
      vertex -5 33.525 17.1917
      vertex -5 34.525 20
      vertex -5 33.525 16.8083
    endloop
  endfacet
  facet normal -1 0 0
    outer loop
      vertex -5 33.525 18.8083
      vertex -5 34.525 20
      vertex -5 33.525 17.1917
    endloop
  endfacet
  facet normal -1 0 0
    outer loop
      vertex -5 33.525 19.1917
      vertex -5 34.525 20
      vertex -5 33.525 18.8083
    endloop
  endfacet
  facet normal -1 0 0
    outer loop
      vertex -5 32.825 20
      vertex -5 33.525 19.1917
      vertex -5 32.825 19.5958
    endloop
  endfacet
  facet normal -1 0 0
    outer loop
      vertex -5 33.525 19.1917
      vertex -5 32.825 20
      vertex -5 34.525 20
    endloop
  endfacet
  facet normal 0 1 -0
    outer loop
      vertex -5 32.825 0
      vertex -12.9 32.825 0.404144
      vertex -5 32.825 0.404144
    endloop
  endfacet
  facet normal 0 1 0
    outer loop
      vertex -12.9 32.825 0.404144
      vertex -5 32.825 0
      vertex -12.9 32.825 0
    endloop
  endfacet
  facet normal 0 0.5 -0.866026
    outer loop
      vertex -5 32.825 0.404144
      vertex -11.5 33.525 0.808289
      vertex -5 33.525 0.808289
    endloop
  endfacet
  facet normal 0 0.5 -0.866026
    outer loop
      vertex -11.5 33.525 0.808289
      vertex -5 32.825 0.404144
      vertex -12.9 32.825 0.404144
    endloop
  endfacet
  facet normal 0 1 -0
    outer loop
      vertex -5 33.525 0.808289
      vertex -11.5 33.525 1.1917
      vertex -5 33.525 1.1917
    endloop
  endfacet
  facet normal 0 1 0
    outer loop
      vertex -11.5 33.525 1.1917
      vertex -5 33.525 0.808289
      vertex -11.5 33.525 0.808289
    endloop
  endfacet
  facet normal -0 0.499995 0.866028
    outer loop
      vertex -11.5 33.525 1.1917
      vertex -5 32.825 1.59584
      vertex -5 33.525 1.1917
    endloop
  endfacet
  facet normal 0 0.499995 0.866028
    outer loop
      vertex -5 32.825 1.59584
      vertex -11.5 33.525 1.1917
      vertex -12.9 32.825 1.59584
    endloop
  endfacet
  facet normal 0 1 -0
    outer loop
      vertex -5 32.825 1.59584
      vertex -12.9 32.825 2.40414
      vertex -5 32.825 2.40414
    endloop
  endfacet
  facet normal 0 1 0
    outer loop
      vertex -12.9 32.825 2.40414
      vertex -5 32.825 1.59584
      vertex -12.9 32.825 1.59584
    endloop
  endfacet
  facet normal 0 0.500004 -0.866023
    outer loop
      vertex -5 32.825 2.40414
      vertex -11.5 33.525 2.80829
      vertex -5 33.525 2.80829
    endloop
  endfacet
  facet normal 0 0.500004 -0.866023
    outer loop
      vertex -11.5 33.525 2.80829
      vertex -5 32.825 2.40414
      vertex -12.9 32.825 2.40414
    endloop
  endfacet
  facet normal 0 1 -0
    outer loop
      vertex -5 33.525 2.80829
      vertex -11.5 33.525 3.1917
      vertex -5 33.525 3.1917
    endloop
  endfacet
  facet normal 0 1 0
    outer loop
      vertex -11.5 33.525 3.1917
      vertex -5 33.525 2.80829
      vertex -11.5 33.525 2.80829
    endloop
  endfacet
  facet normal -0 0.499995 0.866028
    outer loop
      vertex -11.5 33.525 3.1917
      vertex -5 32.825 3.59584
      vertex -5 33.525 3.1917
    endloop
  endfacet
  facet normal 0 0.499995 0.866028
    outer loop
      vertex -5 32.825 3.59584
      vertex -11.5 33.525 3.1917
      vertex -12.9 32.825 3.59584
    endloop
  endfacet
  facet normal 0 1 -0
    outer loop
      vertex -5 32.825 3.59584
      vertex -12.9 32.825 4.40414
      vertex -5 32.825 4.40414
    endloop
  endfacet
  facet normal 0 1 0
    outer loop
      vertex -12.9 32.825 4.40414
      vertex -5 32.825 3.59584
      vertex -12.9 32.825 3.59584
    endloop
  endfacet
  facet normal 0 0.500004 -0.866023
    outer loop
      vertex -5 32.825 4.40414
      vertex -11.5 33.525 4.80829
      vertex -5 33.525 4.80829
    endloop
  endfacet
  facet normal 0 0.500004 -0.866023
    outer loop
      vertex -11.5 33.525 4.80829
      vertex -5 32.825 4.40414
      vertex -12.9 32.825 4.40414
    endloop
  endfacet
  facet normal 0 1 -0
    outer loop
      vertex -5 33.525 4.80829
      vertex -11.5 33.525 5.1917
      vertex -5 33.525 5.1917
    endloop
  endfacet
  facet normal 0 1 0
    outer loop
      vertex -11.5 33.525 5.1917
      vertex -5 33.525 4.80829
      vertex -11.5 33.525 4.80829
    endloop
  endfacet
  facet normal -0 0.499995 0.866028
    outer loop
      vertex -11.5 33.525 5.1917
      vertex -5 32.825 5.59584
      vertex -5 33.525 5.1917
    endloop
  endfacet
  facet normal 0 0.499995 0.866028
    outer loop
      vertex -5 32.825 5.59584
      vertex -11.5 33.525 5.1917
      vertex -12.9 32.825 5.59584
    endloop
  endfacet
  facet normal 0 1 -0
    outer loop
      vertex -5 32.825 5.59584
      vertex -12.9 32.825 6.40414
      vertex -5 32.825 6.40414
    endloop
  endfacet
  facet normal 0 1 0
    outer loop
      vertex -12.9 32.825 6.40414
      vertex -5 32.825 5.59584
      vertex -12.9 32.825 5.59584
    endloop
  endfacet
  facet normal 0 0.500004 -0.866023
    outer loop
      vertex -5 32.825 6.40414
      vertex -11.5 33.525 6.80829
      vertex -5 33.525 6.80829
    endloop
  endfacet
  facet normal 0 0.500004 -0.866023
    outer loop
      vertex -11.5 33.525 6.80829
      vertex -5 32.825 6.40414
      vertex -12.9 32.825 6.40414
    endloop
  endfacet
  facet normal 0 1 -0
    outer loop
      vertex -5 33.525 6.80829
      vertex -11.5 33.525 7.1917
      vertex -5 33.525 7.1917
    endloop
  endfacet
  facet normal 0 1 0
    outer loop
      vertex -11.5 33.525 7.1917
      vertex -5 33.525 6.80829
      vertex -11.5 33.525 6.80829
    endloop
  endfacet
  facet normal -0 0.499995 0.866028
    outer loop
      vertex -11.5 33.525 7.1917
      vertex -5 32.825 7.59584
      vertex -5 33.525 7.1917
    endloop
  endfacet
  facet normal 0 0.499995 0.866028
    outer loop
      vertex -5 32.825 7.59584
      vertex -11.5 33.525 7.1917
      vertex -12.9 32.825 7.59584
    endloop
  endfacet
  facet normal 0 1 -0
    outer loop
      vertex -5 32.825 7.59584
      vertex -12.9 32.825 8.40414
      vertex -5 32.825 8.40414
    endloop
  endfacet
  facet normal 0 1 0
    outer loop
      vertex -12.9 32.825 8.40414
      vertex -5 32.825 7.59584
      vertex -12.9 32.825 7.59584
    endloop
  endfacet
  facet normal 0 0.500004 -0.866023
    outer loop
      vertex -5 32.825 8.40414
      vertex -11.5 33.525 8.80829
      vertex -5 33.525 8.80829
    endloop
  endfacet
  facet normal 0 0.500004 -0.866023
    outer loop
      vertex -11.5 33.525 8.80829
      vertex -5 32.825 8.40414
      vertex -12.9 32.825 8.40414
    endloop
  endfacet
  facet normal 0 1 -0
    outer loop
      vertex -5 33.525 8.80829
      vertex -11.5 33.525 9.1917
      vertex -5 33.525 9.1917
    endloop
  endfacet
  facet normal 0 1 0
    outer loop
      vertex -11.5 33.525 9.1917
      vertex -5 33.525 8.80829
      vertex -11.5 33.525 8.80829
    endloop
  endfacet
  facet normal -0 0.499995 0.866028
    outer loop
      vertex -11.5 33.525 9.1917
      vertex -5 32.825 9.59584
      vertex -5 33.525 9.1917
    endloop
  endfacet
  facet normal 0 0.499995 0.866028
    outer loop
      vertex -5 32.825 9.59584
      vertex -11.5 33.525 9.1917
      vertex -12.9 32.825 9.59584
    endloop
  endfacet
  facet normal 0 1 -0
    outer loop
      vertex -5 32.825 9.59584
      vertex -12.9 32.825 10.4041
      vertex -5 32.825 10.4041
    endloop
  endfacet
  facet normal 0 1 0
    outer loop
      vertex -12.9 32.825 10.4041
      vertex -5 32.825 9.59584
      vertex -12.9 32.825 9.59584
    endloop
  endfacet
  facet normal 0 0.500051 -0.865996
    outer loop
      vertex -5 32.825 10.4041
      vertex -11.5 33.525 10.8083
      vertex -5 33.525 10.8083
    endloop
  endfacet
  facet normal 0 0.500051 -0.865996
    outer loop
      vertex -11.5 33.525 10.8083
      vertex -5 32.825 10.4041
      vertex -12.9 32.825 10.4041
    endloop
  endfacet
  facet normal 0 1 -0
    outer loop
      vertex -5 33.525 10.8083
      vertex -11.5 33.525 11.1917
      vertex -5 33.525 11.1917
    endloop
  endfacet
  facet normal 0 1 0
    outer loop
      vertex -11.5 33.525 11.1917
      vertex -5 33.525 10.8083
      vertex -11.5 33.525 10.8083
    endloop
  endfacet
  facet normal -0 0.499958 0.86605
    outer loop
      vertex -11.5 33.525 11.1917
      vertex -5 32.825 11.5958
      vertex -5 33.525 11.1917
    endloop
  endfacet
  facet normal 0 0.499958 0.86605
    outer loop
      vertex -5 32.825 11.5958
      vertex -11.5 33.525 11.1917
      vertex -12.9 32.825 11.5958
    endloop
  endfacet
  facet normal 0 1 -0
    outer loop
      vertex -5 32.825 11.5958
      vertex -12.9 32.825 12.4041
      vertex -5 32.825 12.4041
    endloop
  endfacet
  facet normal 0 1 0
    outer loop
      vertex -12.9 32.825 12.4041
      vertex -5 32.825 11.5958
      vertex -12.9 32.825 11.5958
    endloop
  endfacet
  facet normal 0 0.500051 -0.865996
    outer loop
      vertex -5 32.825 12.4041
      vertex -11.5 33.525 12.8083
      vertex -5 33.525 12.8083
    endloop
  endfacet
  facet normal 0 0.500051 -0.865996
    outer loop
      vertex -11.5 33.525 12.8083
      vertex -5 32.825 12.4041
      vertex -12.9 32.825 12.4041
    endloop
  endfacet
  facet normal 0 1 -0
    outer loop
      vertex -5 33.525 12.8083
      vertex -11.5 33.525 13.1917
      vertex -5 33.525 13.1917
    endloop
  endfacet
  facet normal 0 1 0
    outer loop
      vertex -11.5 33.525 13.1917
      vertex -5 33.525 12.8083
      vertex -11.5 33.525 12.8083
    endloop
  endfacet
  facet normal -0 0.499958 0.86605
    outer loop
      vertex -11.5 33.525 13.1917
      vertex -5 32.825 13.5958
      vertex -5 33.525 13.1917
    endloop
  endfacet
  facet normal 0 0.499958 0.86605
    outer loop
      vertex -5 32.825 13.5958
      vertex -11.5 33.525 13.1917
      vertex -12.9 32.825 13.5958
    endloop
  endfacet
  facet normal 0 1 -0
    outer loop
      vertex -5 32.825 13.5958
      vertex -12.9 32.825 14.4041
      vertex -5 32.825 14.4041
    endloop
  endfacet
  facet normal 0 1 0
    outer loop
      vertex -12.9 32.825 14.4041
      vertex -5 32.825 13.5958
      vertex -12.9 32.825 13.5958
    endloop
  endfacet
  facet normal 0 0.500051 -0.865996
    outer loop
      vertex -5 32.825 14.4041
      vertex -11.5 33.525 14.8083
      vertex -5 33.525 14.8083
    endloop
  endfacet
  facet normal 0 0.500051 -0.865996
    outer loop
      vertex -11.5 33.525 14.8083
      vertex -5 32.825 14.4041
      vertex -12.9 32.825 14.4041
    endloop
  endfacet
  facet normal 0 1 -0
    outer loop
      vertex -5 33.525 14.8083
      vertex -11.5 33.525 15.1917
      vertex -5 33.525 15.1917
    endloop
  endfacet
  facet normal 0 1 0
    outer loop
      vertex -11.5 33.525 15.1917
      vertex -5 33.525 14.8083
      vertex -11.5 33.525 14.8083
    endloop
  endfacet
  facet normal -0 0.499958 0.86605
    outer loop
      vertex -11.5 33.525 15.1917
      vertex -5 32.825 15.5958
      vertex -5 33.525 15.1917
    endloop
  endfacet
  facet normal 0 0.499958 0.86605
    outer loop
      vertex -5 32.825 15.5958
      vertex -11.5 33.525 15.1917
      vertex -12.9 32.825 15.5958
    endloop
  endfacet
  facet normal 0 1 -0
    outer loop
      vertex -5 32.825 15.5958
      vertex -12.9 32.825 16.4041
      vertex -5 32.825 16.4041
    endloop
  endfacet
  facet normal 0 1 0
    outer loop
      vertex -12.9 32.825 16.4041
      vertex -5 32.825 15.5958
      vertex -12.9 32.825 15.5958
    endloop
  endfacet
  facet normal 0 0.500051 -0.865996
    outer loop
      vertex -5 32.825 16.4041
      vertex -11.5 33.525 16.8083
      vertex -5 33.525 16.8083
    endloop
  endfacet
  facet normal 0 0.500051 -0.865996
    outer loop
      vertex -11.5 33.525 16.8083
      vertex -5 32.825 16.4041
      vertex -12.9 32.825 16.4041
    endloop
  endfacet
  facet normal 0 1 -0
    outer loop
      vertex -5 33.525 16.8083
      vertex -11.5 33.525 17.1917
      vertex -5 33.525 17.1917
    endloop
  endfacet
  facet normal 0 1 0
    outer loop
      vertex -11.5 33.525 17.1917
      vertex -5 33.525 16.8083
      vertex -11.5 33.525 16.8083
    endloop
  endfacet
  facet normal -0 0.499958 0.86605
    outer loop
      vertex -11.5 33.525 17.1917
      vertex -5 32.825 17.5958
      vertex -5 33.525 17.1917
    endloop
  endfacet
  facet normal 0 0.499958 0.86605
    outer loop
      vertex -5 32.825 17.5958
      vertex -11.5 33.525 17.1917
      vertex -12.9 32.825 17.5958
    endloop
  endfacet
  facet normal 0 1 -0
    outer loop
      vertex -5 32.825 17.5958
      vertex -12.9 32.825 18.4041
      vertex -5 32.825 18.4041
    endloop
  endfacet
  facet normal 0 1 0
    outer loop
      vertex -12.9 32.825 18.4041
      vertex -5 32.825 17.5958
      vertex -12.9 32.825 17.5958
    endloop
  endfacet
  facet normal 0 0.500051 -0.865996
    outer loop
      vertex -5 32.825 18.4041
      vertex -11.5 33.525 18.8083
      vertex -5 33.525 18.8083
    endloop
  endfacet
  facet normal 0 0.500051 -0.865996
    outer loop
      vertex -11.5 33.525 18.8083
      vertex -5 32.825 18.4041
      vertex -12.9 32.825 18.4041
    endloop
  endfacet
  facet normal 0 1 -0
    outer loop
      vertex -5 33.525 18.8083
      vertex -11.5 33.525 19.1917
      vertex -5 33.525 19.1917
    endloop
  endfacet
  facet normal 0 1 0
    outer loop
      vertex -11.5 33.525 19.1917
      vertex -5 33.525 18.8083
      vertex -11.5 33.525 18.8083
    endloop
  endfacet
  facet normal -0 0.499958 0.86605
    outer loop
      vertex -11.5 33.525 19.1917
      vertex -5 32.825 19.5958
      vertex -5 33.525 19.1917
    endloop
  endfacet
  facet normal 0 0.499958 0.86605
    outer loop
      vertex -5 32.825 19.5958
      vertex -11.5 33.525 19.1917
      vertex -12.9 32.825 19.5958
    endloop
  endfacet
  facet normal 0 1 -0
    outer loop
      vertex -5 32.825 19.5958
      vertex -12.9 32.825 20
      vertex -5 32.825 20
    endloop
  endfacet
  facet normal 0 1 0
    outer loop
      vertex -12.9 32.825 20
      vertex -5 32.825 19.5958
      vertex -12.9 32.825 19.5958
    endloop
  endfacet
  facet normal -0.866016 -0.500017 0
    outer loop
      vertex -12.55 -3.34352 0
      vertex -13.2065 -2.20648 10
      vertex -13.2065 -2.20648 0
    endloop
  endfacet
  facet normal -0.866016 -0.500017 0
    outer loop
      vertex -13.2065 -2.20648 10
      vertex -12.55 -3.34352 0
      vertex -12.55 -3.34352 10
    endloop
  endfacet
  facet normal 1 -0 0
    outer loop
      vertex -17.45 -4.65648 10
      vertex -17.45 -3.34352 0
      vertex -17.45 -3.34352 10
    endloop
  endfacet
  facet normal 1 0 0
    outer loop
      vertex -17.45 -3.34352 0
      vertex -17.45 -4.65648 10
      vertex -17.45 -4.65648 0
    endloop
  endfacet
  facet normal -0.500019 -0.866015 0
    outer loop
      vertex -14.3435 -1.55 0
      vertex -13.2065 -2.20648 10
      vertex -14.3435 -1.55 10
    endloop
  endfacet
  facet normal -0.500019 -0.866015 -0
    outer loop
      vertex -13.2065 -2.20648 10
      vertex -14.3435 -1.55 0
      vertex -13.2065 -2.20648 0
    endloop
  endfacet
  facet normal 0 1 -0
    outer loop
      vertex -14.3435 -6.45 0
      vertex -15.6565 -6.45 10
      vertex -14.3435 -6.45 10
    endloop
  endfacet
  facet normal 0 1 0
    outer loop
      vertex -15.6565 -6.45 10
      vertex -14.3435 -6.45 0
      vertex -15.6565 -6.45 0
    endloop
  endfacet
  facet normal -0.500019 0.866015 0
    outer loop
      vertex -13.2065 -5.79352 0
      vertex -14.3435 -6.45 10
      vertex -13.2065 -5.79352 10
    endloop
  endfacet
  facet normal -0.500019 0.866015 0
    outer loop
      vertex -14.3435 -6.45 10
      vertex -13.2065 -5.79352 0
      vertex -14.3435 -6.45 0
    endloop
  endfacet
  facet normal 0.500019 0.866015 -0
    outer loop
      vertex -15.6565 -6.45 0
      vertex -16.7935 -5.79352 10
      vertex -15.6565 -6.45 10
    endloop
  endfacet
  facet normal 0.500019 0.866015 0
    outer loop
      vertex -16.7935 -5.79352 10
      vertex -15.6565 -6.45 0
      vertex -16.7935 -5.79352 0
    endloop
  endfacet
  facet normal 0 -1 0
    outer loop
      vertex -15.6565 -1.55 0
      vertex -14.3435 -1.55 10
      vertex -15.6565 -1.55 10
    endloop
  endfacet
  facet normal 0 -1 -0
    outer loop
      vertex -14.3435 -1.55 10
      vertex -15.6565 -1.55 0
      vertex -14.3435 -1.55 0
    endloop
  endfacet
  facet normal 0.866016 -0.500017 0
    outer loop
      vertex -17.45 -3.34352 10
      vertex -16.7935 -2.20648 0
      vertex -16.7935 -2.20648 10
    endloop
  endfacet
  facet normal 0.866016 -0.500017 0
    outer loop
      vertex -16.7935 -2.20648 0
      vertex -17.45 -3.34352 10
      vertex -17.45 -3.34352 0
    endloop
  endfacet
  facet normal 0.500019 -0.866015 0
    outer loop
      vertex -16.7935 -2.20648 0
      vertex -15.6565 -1.55 10
      vertex -16.7935 -2.20648 10
    endloop
  endfacet
  facet normal 0.500019 -0.866015 0
    outer loop
      vertex -15.6565 -1.55 10
      vertex -16.7935 -2.20648 0
      vertex -15.6565 -1.55 0
    endloop
  endfacet
  facet normal 0.866016 0.500017 0
    outer loop
      vertex -16.7935 -5.79352 10
      vertex -17.45 -4.65648 0
      vertex -17.45 -4.65648 10
    endloop
  endfacet
  facet normal 0.866016 0.500017 0
    outer loop
      vertex -17.45 -4.65648 0
      vertex -16.7935 -5.79352 10
      vertex -16.7935 -5.79352 0
    endloop
  endfacet
  facet normal -0.866016 0.500017 0
    outer loop
      vertex -13.2065 -5.79352 0
      vertex -12.55 -4.65648 10
      vertex -12.55 -4.65648 0
    endloop
  endfacet
  facet normal -0.866016 0.500017 0
    outer loop
      vertex -12.55 -4.65648 10
      vertex -13.2065 -5.79352 0
      vertex -13.2065 -5.79352 10
    endloop
  endfacet
  facet normal -1 0 0
    outer loop
      vertex -12.55 -4.65648 0
      vertex -12.55 -3.34352 10
      vertex -12.55 -3.34352 0
    endloop
  endfacet
  facet normal -1 -0 0
    outer loop
      vertex -12.55 -3.34352 10
      vertex -12.55 -4.65648 0
      vertex -12.55 -4.65648 10
    endloop
  endfacet
endsolid OpenSCAD_Model
