solid OpenSCAD_Model
  facet normal 0 -0.707118 -0.707095
    outer loop
      vertex 9.1 -25.5 2.07695
      vertex 21 -27.023 3.6
      vertex 9.1 -27.023 3.6
    endloop
  endfacet
  facet normal 0 -0.707118 -0.707095
    outer loop
      vertex 21 -27.023 3.6
      vertex 9.1 -25.5 2.07695
      vertex 21 -25.5 2.07695
    endloop
  endfacet
  facet normal -0 0 1
    outer loop
      vertex 9.1 -27.023 -1.6
      vertex 21 -29.177 -1.6
      vertex 21 -27.023 -1.6
    endloop
  endfacet
  facet normal 0 0 1
    outer loop
      vertex 21 -29.177 -1.6
      vertex 9.1 -27.023 -1.6
      vertex 9.1 -29.177 -1.6
    endloop
  endfacet
  facet normal 0 -1 0
    outer loop
      vertex 9.1 -25.5 -0.0769548
      vertex 21 -25.5 2.07695
      vertex 9.1 -25.5 2.07695
    endloop
  endfacet
  facet normal 0 -1 -0
    outer loop
      vertex 21 -25.5 2.07695
      vertex 9.1 -25.5 -0.0769548
      vertex 21 -25.5 -0.0769548
    endloop
  endfacet
  facet normal 0 -0.707117 0.707096
    outer loop
      vertex 9.1 -27.023 -1.6
      vertex 21 -25.5 -0.0769548
      vertex 9.1 -25.5 -0.0769548
    endloop
  endfacet
  facet normal 0 -0.707117 0.707096
    outer loop
      vertex 21 -25.5 -0.0769548
      vertex 9.1 -27.023 -1.6
      vertex 21 -27.023 -1.6
    endloop
  endfacet
  facet normal 0 0.707118 -0.707095
    outer loop
      vertex 21 -30.7 2.07695
      vertex 9.1 -29.177 3.6
      vertex 21 -29.177 3.6
    endloop
  endfacet
  facet normal 0 0.707118 -0.707095
    outer loop
      vertex 9.1 -29.177 3.6
      vertex 21 -30.7 2.07695
      vertex 9.1 -30.7 2.07695
    endloop
  endfacet
  facet normal 0 0.707117 0.707096
    outer loop
      vertex 21 -29.177 -1.6
      vertex 9.1 -30.7 -0.0769548
      vertex 21 -30.7 -0.0769548
    endloop
  endfacet
  facet normal 0 0.707117 0.707096
    outer loop
      vertex 9.1 -30.7 -0.0769548
      vertex 21 -29.177 -1.6
      vertex 9.1 -29.177 -1.6
    endloop
  endfacet
  facet normal 0 0 -1
    outer loop
      vertex 9.1 -29.177 3.6
      vertex 21 -27.023 3.6
      vertex 21 -29.177 3.6
    endloop
  endfacet
  facet normal -0 0 -1
    outer loop
      vertex 21 -27.023 3.6
      vertex 9.1 -29.177 3.6
      vertex 9.1 -27.023 3.6
    endloop
  endfacet
  facet normal 0 1 -0
    outer loop
      vertex 21 -30.7 -0.0769548
      vertex 9.1 -30.7 2.07695
      vertex 21 -30.7 2.07695
    endloop
  endfacet
  facet normal 0 1 0
    outer loop
      vertex 9.1 -30.7 2.07695
      vertex 21 -30.7 -0.0769548
      vertex 9.1 -30.7 -0.0769548
    endloop
  endfacet
  facet normal -1 0 0
    outer loop
      vertex 9.1 -25.5 2.07695
      vertex 9.1 -23.4 -4.8
      vertex 9.1 -25.5 -0.0769548
    endloop
  endfacet
  facet normal -1 0 0
    outer loop
      vertex 9.1 -23.4 -4.8
      vertex 9.1 -27.023 -1.6
      vertex 9.1 -25.5 -0.0769548
    endloop
  endfacet
  facet normal -1 0 0
    outer loop
      vertex 9.1 -23.4 -4.8
      vertex 9.1 -29.177 -1.6
      vertex 9.1 -27.023 -1.6
    endloop
  endfacet
  facet normal -1 -0 0
    outer loop
      vertex 9.1 -30.7 -0.0769548
      vertex 9.1 -32.8 -4.8
      vertex 9.1 -30.7 2.07695
    endloop
  endfacet
  facet normal -1 -0 0
    outer loop
      vertex 9.1 -29.177 -1.6
      vertex 9.1 -32.8 -4.8
      vertex 9.1 -30.7 -0.0769548
    endloop
  endfacet
  facet normal -1 0 0
    outer loop
      vertex 9.1 -32.8 -4.8
      vertex 9.1 -29.177 -1.6
      vertex 9.1 -23.4 -4.8
    endloop
  endfacet
  facet normal -1 0 0
    outer loop
      vertex 9.1 -23.4 -4.8
      vertex 9.1 -25.5 2.07695
      vertex 9.1 -23.4 11
    endloop
  endfacet
  facet normal -1 0 0
    outer loop
      vertex 9.1 -27.023 3.6
      vertex 9.1 -23.4 11
      vertex 9.1 -25.5 2.07695
    endloop
  endfacet
  facet normal -1 0 0
    outer loop
      vertex 9.1 -29.177 3.6
      vertex 9.1 -23.4 11
      vertex 9.1 -27.023 3.6
    endloop
  endfacet
  facet normal -1 0 0
    outer loop
      vertex 9.1 -32.8 11
      vertex 9.1 -29.177 3.6
      vertex 9.1 -30.7 2.07695
    endloop
  endfacet
  facet normal -1 0 0
    outer loop
      vertex 9.1 -29.177 3.6
      vertex 9.1 -32.8 11
      vertex 9.1 -23.4 11
    endloop
  endfacet
  facet normal -1 0 0
    outer loop
      vertex 9.1 -32.8 11
      vertex 9.1 -30.7 2.07695
      vertex 9.1 -32.8 -4.8
    endloop
  endfacet
  facet normal 0 1 -0
    outer loop
      vertex 9.1 -32.8 -4.8
      vertex -20.7073 -32.8 11
      vertex 9.1 -32.8 11
    endloop
  endfacet
  facet normal 0 1 0
    outer loop
      vertex -20.7073 -32.8 11
      vertex 9.1 -32.8 -4.8
      vertex -20.7073 -32.8 -4.8
    endloop
  endfacet
  facet normal 0 -1 0
    outer loop
      vertex -22 -23.4 -4.8
      vertex 9.1 -23.4 11
      vertex -22 -23.4 11
    endloop
  endfacet
  facet normal 0 -1 -0
    outer loop
      vertex 9.1 -23.4 11
      vertex -22 -23.4 -4.8
      vertex 9.1 -23.4 -4.8
    endloop
  endfacet
  facet normal -0.980759 -0.195224 0
    outer loop
      vertex -13.75 -15.3276 -4.8
      vertex -13.8173 -14.9895 0
      vertex -13.8173 -14.9895 -4.8
    endloop
  endfacet
  facet normal -0.980759 -0.195224 0
    outer loop
      vertex -13.8173 -14.9895 0
      vertex -13.75 -15.3276 -4.8
      vertex -13.75 -15.3276 0
    endloop
  endfacet
  facet normal 1 -0 0
    outer loop
      vertex -17.25 -15.6724 0
      vertex -17.25 -15.3276 -4.8
      vertex -17.25 -15.3276 0
    endloop
  endfacet
  facet normal 1 0 0
    outer loop
      vertex -17.25 -15.3276 -4.8
      vertex -17.25 -15.6724 0
      vertex -17.25 -15.6724 -4.8
    endloop
  endfacet
  facet normal 0.195224 -0.980759 0
    outer loop
      vertex -16.0105 -13.8173 -4.8
      vertex -15.6724 -13.75 0
      vertex -16.0105 -13.8173 0
    endloop
  endfacet
  facet normal 0.195224 -0.980759 0
    outer loop
      vertex -15.6724 -13.75 0
      vertex -16.0105 -13.8173 -4.8
      vertex -15.6724 -13.75 -4.8
    endloop
  endfacet
  facet normal 0 1 -0
    outer loop
      vertex -15.3276 -17.25 -4.8
      vertex -15.6724 -17.25 0
      vertex -15.3276 -17.25 0
    endloop
  endfacet
  facet normal 0 1 0
    outer loop
      vertex -15.6724 -17.25 0
      vertex -15.3276 -17.25 -4.8
      vertex -15.6724 -17.25 -4.8
    endloop
  endfacet
  facet normal 0.707107 0.707107 0
    outer loop
      vertex -16.6156 -16.8593 0
      vertex -16.8593 -16.6156 -4.8
      vertex -16.8593 -16.6156 0
    endloop
  endfacet
  facet normal 0.707107 0.707107 0
    outer loop
      vertex -16.8593 -16.6156 -4.8
      vertex -16.6156 -16.8593 0
      vertex -16.6156 -16.8593 -4.8
    endloop
  endfacet
  facet normal 0.707107 -0.707107 0
    outer loop
      vertex -16.8593 -14.3844 -4.8
      vertex -16.6156 -14.1407 0
      vertex -16.8593 -14.3844 0
    endloop
  endfacet
  facet normal 0.707107 -0.707107 0
    outer loop
      vertex -16.6156 -14.1407 0
      vertex -16.8593 -14.3844 -4.8
      vertex -16.6156 -14.1407 -4.8
    endloop
  endfacet
  facet normal 0.555436 -0.831559 0
    outer loop
      vertex -16.6156 -14.1407 -4.8
      vertex -16.3289 -13.9492 0
      vertex -16.6156 -14.1407 0
    endloop
  endfacet
  facet normal 0.555436 -0.831559 0
    outer loop
      vertex -16.3289 -13.9492 0
      vertex -16.6156 -14.1407 -4.8
      vertex -16.3289 -13.9492 -4.8
    endloop
  endfacet
  facet normal -0.831559 0.555436 0
    outer loop
      vertex -14.1407 -16.6156 -4.8
      vertex -13.9492 -16.3289 0
      vertex -13.9492 -16.3289 -4.8
    endloop
  endfacet
  facet normal -0.831559 0.555436 0
    outer loop
      vertex -13.9492 -16.3289 0
      vertex -14.1407 -16.6156 -4.8
      vertex -14.1407 -16.6156 0
    endloop
  endfacet
  facet normal -0.923865 0.382719 0
    outer loop
      vertex -13.9492 -16.3289 -4.8
      vertex -13.8173 -16.0105 0
      vertex -13.8173 -16.0105 -4.8
    endloop
  endfacet
  facet normal -0.923865 0.382719 0
    outer loop
      vertex -13.8173 -16.0105 0
      vertex -13.9492 -16.3289 -4.8
      vertex -13.9492 -16.3289 0
    endloop
  endfacet
  facet normal -0.923865 -0.382719 0
    outer loop
      vertex -13.8173 -14.9895 -4.8
      vertex -13.9492 -14.6711 0
      vertex -13.9492 -14.6711 -4.8
    endloop
  endfacet
  facet normal -0.923865 -0.382719 0
    outer loop
      vertex -13.9492 -14.6711 0
      vertex -13.8173 -14.9895 -4.8
      vertex -13.8173 -14.9895 0
    endloop
  endfacet
  facet normal -0.707107 -0.707107 0
    outer loop
      vertex -14.1407 -14.3844 -4.8
      vertex -14.3844 -14.1407 0
      vertex -14.3844 -14.1407 -4.8
    endloop
  endfacet
  facet normal -0.707107 -0.707107 0
    outer loop
      vertex -14.3844 -14.1407 0
      vertex -14.1407 -14.3844 -4.8
      vertex -14.1407 -14.3844 0
    endloop
  endfacet
  facet normal 0 -1 0
    outer loop
      vertex -15.6724 -13.75 -4.8
      vertex -15.3276 -13.75 0
      vertex -15.6724 -13.75 0
    endloop
  endfacet
  facet normal 0 -1 -0
    outer loop
      vertex -15.3276 -13.75 0
      vertex -15.6724 -13.75 -4.8
      vertex -15.3276 -13.75 -4.8
    endloop
  endfacet
  facet normal -0.382719 -0.923865 0
    outer loop
      vertex -14.9895 -13.8173 -4.8
      vertex -14.6711 -13.9492 0
      vertex -14.9895 -13.8173 0
    endloop
  endfacet
  facet normal -0.382719 -0.923865 -0
    outer loop
      vertex -14.6711 -13.9492 0
      vertex -14.9895 -13.8173 -4.8
      vertex -14.6711 -13.9492 -4.8
    endloop
  endfacet
  facet normal 0.923865 -0.382719 0
    outer loop
      vertex -17.1827 -14.9895 0
      vertex -17.0508 -14.6711 -4.8
      vertex -17.0508 -14.6711 0
    endloop
  endfacet
  facet normal 0.923865 -0.382719 0
    outer loop
      vertex -17.0508 -14.6711 -4.8
      vertex -17.1827 -14.9895 0
      vertex -17.1827 -14.9895 -4.8
    endloop
  endfacet
  facet normal 0.831559 -0.555436 0
    outer loop
      vertex -17.0508 -14.6711 0
      vertex -16.8593 -14.3844 -4.8
      vertex -16.8593 -14.3844 0
    endloop
  endfacet
  facet normal 0.831559 -0.555436 0
    outer loop
      vertex -16.8593 -14.3844 -4.8
      vertex -17.0508 -14.6711 0
      vertex -17.0508 -14.6711 -4.8
    endloop
  endfacet
  facet normal 0.980759 -0.195224 0
    outer loop
      vertex -17.25 -15.3276 0
      vertex -17.1827 -14.9895 -4.8
      vertex -17.1827 -14.9895 0
    endloop
  endfacet
  facet normal 0.980759 -0.195224 0
    outer loop
      vertex -17.1827 -14.9895 -4.8
      vertex -17.25 -15.3276 0
      vertex -17.25 -15.3276 -4.8
    endloop
  endfacet
  facet normal 0.382719 -0.923865 0
    outer loop
      vertex -16.3289 -13.9492 -4.8
      vertex -16.0105 -13.8173 0
      vertex -16.3289 -13.9492 0
    endloop
  endfacet
  facet normal 0.382719 -0.923865 0
    outer loop
      vertex -16.0105 -13.8173 0
      vertex -16.3289 -13.9492 -4.8
      vertex -16.0105 -13.8173 -4.8
    endloop
  endfacet
  facet normal -0.382719 0.923865 0
    outer loop
      vertex -14.6711 -17.0508 -4.8
      vertex -14.9895 -17.1827 0
      vertex -14.6711 -17.0508 0
    endloop
  endfacet
  facet normal -0.382719 0.923865 0
    outer loop
      vertex -14.9895 -17.1827 0
      vertex -14.6711 -17.0508 -4.8
      vertex -14.9895 -17.1827 -4.8
    endloop
  endfacet
  facet normal -0.195224 0.980759 0
    outer loop
      vertex -14.9895 -17.1827 -4.8
      vertex -15.3276 -17.25 0
      vertex -14.9895 -17.1827 0
    endloop
  endfacet
  facet normal -0.195224 0.980759 0
    outer loop
      vertex -15.3276 -17.25 0
      vertex -14.9895 -17.1827 -4.8
      vertex -15.3276 -17.25 -4.8
    endloop
  endfacet
  facet normal -0.707107 0.707107 0
    outer loop
      vertex -14.3844 -16.8593 -4.8
      vertex -14.1407 -16.6156 0
      vertex -14.1407 -16.6156 -4.8
    endloop
  endfacet
  facet normal -0.707107 0.707107 0
    outer loop
      vertex -14.1407 -16.6156 0
      vertex -14.3844 -16.8593 -4.8
      vertex -14.3844 -16.8593 0
    endloop
  endfacet
  facet normal 0.382719 0.923865 -0
    outer loop
      vertex -16.0105 -17.1827 -4.8
      vertex -16.3289 -17.0508 0
      vertex -16.0105 -17.1827 0
    endloop
  endfacet
  facet normal 0.382719 0.923865 0
    outer loop
      vertex -16.3289 -17.0508 0
      vertex -16.0105 -17.1827 -4.8
      vertex -16.3289 -17.0508 -4.8
    endloop
  endfacet
  facet normal 0.555436 0.831559 -0
    outer loop
      vertex -16.3289 -17.0508 -4.8
      vertex -16.6156 -16.8593 0
      vertex -16.3289 -17.0508 0
    endloop
  endfacet
  facet normal 0.555436 0.831559 0
    outer loop
      vertex -16.6156 -16.8593 0
      vertex -16.3289 -17.0508 -4.8
      vertex -16.6156 -16.8593 -4.8
    endloop
  endfacet
  facet normal 0.195224 0.980759 -0
    outer loop
      vertex -15.6724 -17.25 -4.8
      vertex -16.0105 -17.1827 0
      vertex -15.6724 -17.25 0
    endloop
  endfacet
  facet normal 0.195224 0.980759 0
    outer loop
      vertex -16.0105 -17.1827 0
      vertex -15.6724 -17.25 -4.8
      vertex -16.0105 -17.1827 -4.8
    endloop
  endfacet
  facet normal 0.980759 0.195224 0
    outer loop
      vertex -17.1827 -16.0105 0
      vertex -17.25 -15.6724 -4.8
      vertex -17.25 -15.6724 0
    endloop
  endfacet
  facet normal 0.980759 0.195224 0
    outer loop
      vertex -17.25 -15.6724 -4.8
      vertex -17.1827 -16.0105 0
      vertex -17.1827 -16.0105 -4.8
    endloop
  endfacet
  facet normal 0.923865 0.382719 0
    outer loop
      vertex -17.0508 -16.3289 0
      vertex -17.1827 -16.0105 -4.8
      vertex -17.1827 -16.0105 0
    endloop
  endfacet
  facet normal 0.923865 0.382719 0
    outer loop
      vertex -17.1827 -16.0105 -4.8
      vertex -17.0508 -16.3289 0
      vertex -17.0508 -16.3289 -4.8
    endloop
  endfacet
  facet normal -0.831559 -0.555436 0
    outer loop
      vertex -13.9492 -14.6711 -4.8
      vertex -14.1407 -14.3844 0
      vertex -14.1407 -14.3844 -4.8
    endloop
  endfacet
  facet normal -0.831559 -0.555436 0
    outer loop
      vertex -14.1407 -14.3844 0
      vertex -13.9492 -14.6711 -4.8
      vertex -13.9492 -14.6711 0
    endloop
  endfacet
  facet normal -0.555436 -0.831559 0
    outer loop
      vertex -14.6711 -13.9492 -4.8
      vertex -14.3844 -14.1407 0
      vertex -14.6711 -13.9492 0
    endloop
  endfacet
  facet normal -0.555436 -0.831559 -0
    outer loop
      vertex -14.3844 -14.1407 0
      vertex -14.6711 -13.9492 -4.8
      vertex -14.3844 -14.1407 -4.8
    endloop
  endfacet
  facet normal -0.195224 -0.980759 0
    outer loop
      vertex -15.3276 -13.75 -4.8
      vertex -14.9895 -13.8173 0
      vertex -15.3276 -13.75 0
    endloop
  endfacet
  facet normal -0.195224 -0.980759 -0
    outer loop
      vertex -14.9895 -13.8173 0
      vertex -15.3276 -13.75 -4.8
      vertex -14.9895 -13.8173 -4.8
    endloop
  endfacet
  facet normal -0.980759 0.195224 0
    outer loop
      vertex -13.8173 -16.0105 -4.8
      vertex -13.75 -15.6724 0
      vertex -13.75 -15.6724 -4.8
    endloop
  endfacet
  facet normal -0.980759 0.195224 0
    outer loop
      vertex -13.75 -15.6724 0
      vertex -13.8173 -16.0105 -4.8
      vertex -13.8173 -16.0105 0
    endloop
  endfacet
  facet normal 0.831559 0.555436 0
    outer loop
      vertex -16.8593 -16.6156 0
      vertex -17.0508 -16.3289 -4.8
      vertex -17.0508 -16.3289 0
    endloop
  endfacet
  facet normal 0.831559 0.555436 0
    outer loop
      vertex -17.0508 -16.3289 -4.8
      vertex -16.8593 -16.6156 0
      vertex -16.8593 -16.6156 -4.8
    endloop
  endfacet
  facet normal -0.555436 0.831559 0
    outer loop
      vertex -14.3844 -16.8593 -4.8
      vertex -14.6711 -17.0508 0
      vertex -14.3844 -16.8593 0
    endloop
  endfacet
  facet normal -0.555436 0.831559 0
    outer loop
      vertex -14.6711 -17.0508 0
      vertex -14.3844 -16.8593 -4.8
      vertex -14.6711 -17.0508 -4.8
    endloop
  endfacet
  facet normal -1 0 0
    outer loop
      vertex -13.75 -15.6724 -4.8
      vertex -13.75 -15.3276 0
      vertex -13.75 -15.3276 -4.8
    endloop
  endfacet
  facet normal -1 -0 0
    outer loop
      vertex -13.75 -15.3276 0
      vertex -13.75 -15.6724 -4.8
      vertex -13.75 -15.6724 0
    endloop
  endfacet
  facet normal -0.980759 -0.195224 0
    outer loop
      vertex 17.25 -15.3276 -4.8
      vertex 17.1827 -14.9895 0
      vertex 17.1827 -14.9895 -4.8
    endloop
  endfacet
  facet normal -0.980759 -0.195224 0
    outer loop
      vertex 17.1827 -14.9895 0
      vertex 17.25 -15.3276 -4.8
      vertex 17.25 -15.3276 0
    endloop
  endfacet
  facet normal 0.980759 0.195224 0
    outer loop
      vertex 13.8173 -16.0105 0
      vertex 13.75 -15.6724 -4.8
      vertex 13.75 -15.6724 0
    endloop
  endfacet
  facet normal 0.980759 0.195224 0
    outer loop
      vertex 13.75 -15.6724 -4.8
      vertex 13.8173 -16.0105 0
      vertex 13.8173 -16.0105 -4.8
    endloop
  endfacet
  facet normal 0.195224 -0.980759 0
    outer loop
      vertex 14.9895 -13.8173 -4.8
      vertex 15.3276 -13.75 0
      vertex 14.9895 -13.8173 0
    endloop
  endfacet
  facet normal 0.195224 -0.980759 0
    outer loop
      vertex 15.3276 -13.75 0
      vertex 14.9895 -13.8173 -4.8
      vertex 15.3276 -13.75 -4.8
    endloop
  endfacet
  facet normal -0.195224 0.980759 0
    outer loop
      vertex 16.0105 -17.1827 -4.8
      vertex 15.6724 -17.25 0
      vertex 16.0105 -17.1827 0
    endloop
  endfacet
  facet normal -0.195224 0.980759 0
    outer loop
      vertex 15.6724 -17.25 0
      vertex 16.0105 -17.1827 -4.8
      vertex 15.6724 -17.25 -4.8
    endloop
  endfacet
  facet normal 0.831559 -0.555436 0
    outer loop
      vertex 13.9492 -14.6711 0
      vertex 14.1407 -14.3844 -4.8
      vertex 14.1407 -14.3844 0
    endloop
  endfacet
  facet normal 0.831559 -0.555436 0
    outer loop
      vertex 14.1407 -14.3844 -4.8
      vertex 13.9492 -14.6711 0
      vertex 13.9492 -14.6711 -4.8
    endloop
  endfacet
  facet normal 0.555436 -0.831559 0
    outer loop
      vertex 14.3844 -14.1407 -4.8
      vertex 14.6711 -13.9492 0
      vertex 14.3844 -14.1407 0
    endloop
  endfacet
  facet normal 0.555436 -0.831559 0
    outer loop
      vertex 14.6711 -13.9492 0
      vertex 14.3844 -14.1407 -4.8
      vertex 14.6711 -13.9492 -4.8
    endloop
  endfacet
  facet normal -0.923865 -0.382719 0
    outer loop
      vertex 17.1827 -14.9895 -4.8
      vertex 17.0508 -14.6711 0
      vertex 17.0508 -14.6711 -4.8
    endloop
  endfacet
  facet normal -0.923865 -0.382719 0
    outer loop
      vertex 17.0508 -14.6711 0
      vertex 17.1827 -14.9895 -4.8
      vertex 17.1827 -14.9895 0
    endloop
  endfacet
  facet normal -0.707107 -0.707107 0
    outer loop
      vertex 16.6156 -14.1407 -4.8
      vertex 16.8593 -14.3844 0
      vertex 16.6156 -14.1407 0
    endloop
  endfacet
  facet normal -0.707107 -0.707107 -0
    outer loop
      vertex 16.8593 -14.3844 0
      vertex 16.6156 -14.1407 -4.8
      vertex 16.8593 -14.3844 -4.8
    endloop
  endfacet
  facet normal 0 -1 0
    outer loop
      vertex 15.3276 -13.75 -4.8
      vertex 15.6724 -13.75 0
      vertex 15.3276 -13.75 0
    endloop
  endfacet
  facet normal 0 -1 -0
    outer loop
      vertex 15.6724 -13.75 0
      vertex 15.3276 -13.75 -4.8
      vertex 15.6724 -13.75 -4.8
    endloop
  endfacet
  facet normal -0.382719 -0.923865 0
    outer loop
      vertex 16.0105 -13.8173 -4.8
      vertex 16.3289 -13.9492 0
      vertex 16.0105 -13.8173 0
    endloop
  endfacet
  facet normal -0.382719 -0.923865 -0
    outer loop
      vertex 16.3289 -13.9492 0
      vertex 16.0105 -13.8173 -4.8
      vertex 16.3289 -13.9492 -4.8
    endloop
  endfacet
  facet normal 0.980759 -0.195224 0
    outer loop
      vertex 13.75 -15.3276 0
      vertex 13.8173 -14.9895 -4.8
      vertex 13.8173 -14.9895 0
    endloop
  endfacet
  facet normal 0.980759 -0.195224 0
    outer loop
      vertex 13.8173 -14.9895 -4.8
      vertex 13.75 -15.3276 0
      vertex 13.75 -15.3276 -4.8
    endloop
  endfacet
  facet normal 0.923865 -0.382719 0
    outer loop
      vertex 13.8173 -14.9895 0
      vertex 13.9492 -14.6711 -4.8
      vertex 13.9492 -14.6711 0
    endloop
  endfacet
  facet normal 0.923865 -0.382719 0
    outer loop
      vertex 13.9492 -14.6711 -4.8
      vertex 13.8173 -14.9895 0
      vertex 13.8173 -14.9895 -4.8
    endloop
  endfacet
  facet normal 1 -0 0
    outer loop
      vertex 13.75 -15.6724 0
      vertex 13.75 -15.3276 -4.8
      vertex 13.75 -15.3276 0
    endloop
  endfacet
  facet normal 1 0 0
    outer loop
      vertex 13.75 -15.3276 -4.8
      vertex 13.75 -15.6724 0
      vertex 13.75 -15.6724 -4.8
    endloop
  endfacet
  facet normal 0.707107 -0.707107 0
    outer loop
      vertex 14.1407 -14.3844 0
      vertex 14.3844 -14.1407 -4.8
      vertex 14.3844 -14.1407 0
    endloop
  endfacet
  facet normal 0.707107 -0.707107 0
    outer loop
      vertex 14.3844 -14.1407 -4.8
      vertex 14.1407 -14.3844 0
      vertex 14.1407 -14.3844 -4.8
    endloop
  endfacet
  facet normal 0.382719 -0.923865 0
    outer loop
      vertex 14.6711 -13.9492 -4.8
      vertex 14.9895 -13.8173 0
      vertex 14.6711 -13.9492 0
    endloop
  endfacet
  facet normal 0.382719 -0.923865 0
    outer loop
      vertex 14.9895 -13.8173 0
      vertex 14.6711 -13.9492 -4.8
      vertex 14.9895 -13.8173 -4.8
    endloop
  endfacet
  facet normal -1 0 0
    outer loop
      vertex 17.25 -15.6724 -4.8
      vertex 17.25 -15.3276 0
      vertex 17.25 -15.3276 -4.8
    endloop
  endfacet
  facet normal -1 -0 0
    outer loop
      vertex 17.25 -15.3276 0
      vertex 17.25 -15.6724 -4.8
      vertex 17.25 -15.6724 0
    endloop
  endfacet
  facet normal -0.831559 -0.555436 0
    outer loop
      vertex 17.0508 -14.6711 -4.8
      vertex 16.8593 -14.3844 0
      vertex 16.8593 -14.3844 -4.8
    endloop
  endfacet
  facet normal -0.831559 -0.555436 0
    outer loop
      vertex 16.8593 -14.3844 0
      vertex 17.0508 -14.6711 -4.8
      vertex 17.0508 -14.6711 0
    endloop
  endfacet
  facet normal -0.555436 -0.831559 0
    outer loop
      vertex 16.3289 -13.9492 -4.8
      vertex 16.6156 -14.1407 0
      vertex 16.3289 -13.9492 0
    endloop
  endfacet
  facet normal -0.555436 -0.831559 -0
    outer loop
      vertex 16.6156 -14.1407 0
      vertex 16.3289 -13.9492 -4.8
      vertex 16.6156 -14.1407 -4.8
    endloop
  endfacet
  facet normal -0.195224 -0.980759 0
    outer loop
      vertex 15.6724 -13.75 -4.8
      vertex 16.0105 -13.8173 0
      vertex 15.6724 -13.75 0
    endloop
  endfacet
  facet normal -0.195224 -0.980759 -0
    outer loop
      vertex 16.0105 -13.8173 0
      vertex 15.6724 -13.75 -4.8
      vertex 16.0105 -13.8173 -4.8
    endloop
  endfacet
  facet normal -0.923865 0.382719 0
    outer loop
      vertex 17.0508 -16.3289 -4.8
      vertex 17.1827 -16.0105 0
      vertex 17.1827 -16.0105 -4.8
    endloop
  endfacet
  facet normal -0.923865 0.382719 0
    outer loop
      vertex 17.1827 -16.0105 0
      vertex 17.0508 -16.3289 -4.8
      vertex 17.0508 -16.3289 0
    endloop
  endfacet
  facet normal -0.707107 0.707107 0
    outer loop
      vertex 16.6156 -16.8593 -4.8
      vertex 16.8593 -16.6156 0
      vertex 16.8593 -16.6156 -4.8
    endloop
  endfacet
  facet normal -0.707107 0.707107 0
    outer loop
      vertex 16.8593 -16.6156 0
      vertex 16.6156 -16.8593 -4.8
      vertex 16.6156 -16.8593 0
    endloop
  endfacet
  facet normal -0.980759 0.195224 0
    outer loop
      vertex 17.1827 -16.0105 -4.8
      vertex 17.25 -15.6724 0
      vertex 17.25 -15.6724 -4.8
    endloop
  endfacet
  facet normal -0.980759 0.195224 0
    outer loop
      vertex 17.25 -15.6724 0
      vertex 17.1827 -16.0105 -4.8
      vertex 17.1827 -16.0105 0
    endloop
  endfacet
  facet normal 0 1 -0
    outer loop
      vertex 15.6724 -17.25 -4.8
      vertex 15.3276 -17.25 0
      vertex 15.6724 -17.25 0
    endloop
  endfacet
  facet normal 0 1 0
    outer loop
      vertex 15.3276 -17.25 0
      vertex 15.6724 -17.25 -4.8
      vertex 15.3276 -17.25 -4.8
    endloop
  endfacet
  facet normal 0.195224 0.980759 -0
    outer loop
      vertex 15.3276 -17.25 -4.8
      vertex 14.9895 -17.1827 0
      vertex 15.3276 -17.25 0
    endloop
  endfacet
  facet normal 0.195224 0.980759 0
    outer loop
      vertex 14.9895 -17.1827 0
      vertex 15.3276 -17.25 -4.8
      vertex 14.9895 -17.1827 -4.8
    endloop
  endfacet
  facet normal 0.555436 0.831559 -0
    outer loop
      vertex 14.6711 -17.0508 -4.8
      vertex 14.3844 -16.8593 0
      vertex 14.6711 -17.0508 0
    endloop
  endfacet
  facet normal 0.555436 0.831559 0
    outer loop
      vertex 14.3844 -16.8593 0
      vertex 14.6711 -17.0508 -4.8
      vertex 14.3844 -16.8593 -4.8
    endloop
  endfacet
  facet normal 0.707107 0.707107 0
    outer loop
      vertex 14.3844 -16.8593 0
      vertex 14.1407 -16.6156 -4.8
      vertex 14.1407 -16.6156 0
    endloop
  endfacet
  facet normal 0.707107 0.707107 0
    outer loop
      vertex 14.1407 -16.6156 -4.8
      vertex 14.3844 -16.8593 0
      vertex 14.3844 -16.8593 -4.8
    endloop
  endfacet
  facet normal 0.831559 0.555436 0
    outer loop
      vertex 14.1407 -16.6156 0
      vertex 13.9492 -16.3289 -4.8
      vertex 13.9492 -16.3289 0
    endloop
  endfacet
  facet normal 0.831559 0.555436 0
    outer loop
      vertex 13.9492 -16.3289 -4.8
      vertex 14.1407 -16.6156 0
      vertex 14.1407 -16.6156 -4.8
    endloop
  endfacet
  facet normal 0.923865 0.382719 0
    outer loop
      vertex 13.9492 -16.3289 0
      vertex 13.8173 -16.0105 -4.8
      vertex 13.8173 -16.0105 0
    endloop
  endfacet
  facet normal 0.923865 0.382719 0
    outer loop
      vertex 13.8173 -16.0105 -4.8
      vertex 13.9492 -16.3289 0
      vertex 13.9492 -16.3289 -4.8
    endloop
  endfacet
  facet normal -0.555436 0.831559 0
    outer loop
      vertex 16.6156 -16.8593 -4.8
      vertex 16.3289 -17.0508 0
      vertex 16.6156 -16.8593 0
    endloop
  endfacet
  facet normal -0.555436 0.831559 0
    outer loop
      vertex 16.3289 -17.0508 0
      vertex 16.6156 -16.8593 -4.8
      vertex 16.3289 -17.0508 -4.8
    endloop
  endfacet
  facet normal -0.382719 0.923865 0
    outer loop
      vertex 16.3289 -17.0508 -4.8
      vertex 16.0105 -17.1827 0
      vertex 16.3289 -17.0508 0
    endloop
  endfacet
  facet normal -0.382719 0.923865 0
    outer loop
      vertex 16.0105 -17.1827 0
      vertex 16.3289 -17.0508 -4.8
      vertex 16.0105 -17.1827 -4.8
    endloop
  endfacet
  facet normal -0.831559 0.555436 0
    outer loop
      vertex 16.8593 -16.6156 -4.8
      vertex 17.0508 -16.3289 0
      vertex 17.0508 -16.3289 -4.8
    endloop
  endfacet
  facet normal -0.831559 0.555436 0
    outer loop
      vertex 17.0508 -16.3289 0
      vertex 16.8593 -16.6156 -4.8
      vertex 16.8593 -16.6156 0
    endloop
  endfacet
  facet normal 0.382719 0.923865 -0
    outer loop
      vertex 14.9895 -17.1827 -4.8
      vertex 14.6711 -17.0508 0
      vertex 14.9895 -17.1827 0
    endloop
  endfacet
  facet normal 0.382719 0.923865 0
    outer loop
      vertex 14.6711 -17.0508 0
      vertex 14.9895 -17.1827 -4.8
      vertex 14.6711 -17.0508 -4.8
    endloop
  endfacet
  facet normal 0 0 1
    outer loop
      vertex 21 -13.6538 0
      vertex 17.1827 -14.9895 0
      vertex 17.25 -15.3276 0
    endloop
  endfacet
  facet normal 0 0 1
    outer loop
      vertex 19.2292 -11.4961 0
      vertex 17.0508 -14.6711 0
      vertex 17.1827 -14.9895 0
    endloop
  endfacet
  facet normal 0 0 1
    outer loop
      vertex 19.2292 -11.4961 0
      vertex 16.8593 -14.3844 0
      vertex 17.0508 -14.6711 0
    endloop
  endfacet
  facet normal 0 0 1
    outer loop
      vertex 18.7462 -11.4 0
      vertex 16.6156 -14.1407 0
      vertex 16.8593 -14.3844 0
    endloop
  endfacet
  facet normal 0 0 1
    outer loop
      vertex 18.7462 -11.4 0
      vertex 16.3289 -13.9492 0
      vertex 16.6156 -14.1407 0
    endloop
  endfacet
  facet normal 0 0 1
    outer loop
      vertex 18.7462 -11.4 0
      vertex 16.0105 -13.8173 0
      vertex 16.3289 -13.9492 0
    endloop
  endfacet
  facet normal 0 0 1
    outer loop
      vertex 18.7462 -11.4 0
      vertex 15.6724 -13.75 0
      vertex 16.0105 -13.8173 0
    endloop
  endfacet
  facet normal 0 0 1
    outer loop
      vertex 18.7462 -11.4 0
      vertex 15.3276 -13.75 0
      vertex 15.6724 -13.75 0
    endloop
  endfacet
  facet normal 0 0 1
    outer loop
      vertex 18.7462 -11.4 0
      vertex 14.9895 -13.8173 0
      vertex 15.3276 -13.75 0
    endloop
  endfacet
  facet normal -0 0 1
    outer loop
      vertex 2.9168 -11.4 0
      vertex 14.9895 -13.8173 0
      vertex 18.7462 -11.4 0
    endloop
  endfacet
  facet normal 0 0 1
    outer loop
      vertex 13.75 -15.3276 0
      vertex 2.9168 -11.4 0
      vertex 13.75 -15.6724 0
    endloop
  endfacet
  facet normal 0 0 1
    outer loop
      vertex 13.8173 -14.9895 0
      vertex 2.9168 -11.4 0
      vertex 13.75 -15.3276 0
    endloop
  endfacet
  facet normal 0 0 1
    outer loop
      vertex 13.9492 -14.6711 0
      vertex 2.9168 -11.4 0
      vertex 13.8173 -14.9895 0
    endloop
  endfacet
  facet normal 0 0 1
    outer loop
      vertex 14.1407 -14.3844 0
      vertex 2.9168 -11.4 0
      vertex 13.9492 -14.6711 0
    endloop
  endfacet
  facet normal 0 0 1
    outer loop
      vertex 14.3844 -14.1407 0
      vertex 2.9168 -11.4 0
      vertex 14.1407 -14.3844 0
    endloop
  endfacet
  facet normal 0 0 1
    outer loop
      vertex 14.6711 -13.9492 0
      vertex 2.9168 -11.4 0
      vertex 14.3844 -14.1407 0
    endloop
  endfacet
  facet normal 0 0 1
    outer loop
      vertex 14.9895 -13.8173 0
      vertex 2.9168 -11.4 0
      vertex 14.6711 -13.9492 0
    endloop
  endfacet
  facet normal 0 0 1
    outer loop
      vertex 17.1827 -14.9895 0
      vertex 21 -13.6538 0
      vertex 20.9039 -13.1708 0
    endloop
  endfacet
  facet normal 0 0 1
    outer loop
      vertex 17.1827 -14.9895 0
      vertex 20.9039 -13.1708 0
      vertex 20.7155 -12.7158 0
    endloop
  endfacet
  facet normal 0 0 1
    outer loop
      vertex 17.1827 -14.9895 0
      vertex 20.7155 -12.7158 0
      vertex 20.4419 -12.3063 0
    endloop
  endfacet
  facet normal 0 0 1
    outer loop
      vertex 17.1827 -14.9895 0
      vertex 20.4419 -12.3063 0
      vertex 20.0936 -11.9581 0
    endloop
  endfacet
  facet normal 0 0 1
    outer loop
      vertex 17.1827 -14.9895 0
      vertex 20.0936 -11.9581 0
      vertex 19.6842 -11.6845 0
    endloop
  endfacet
  facet normal 0 0 1
    outer loop
      vertex 17.1827 -14.9895 0
      vertex 19.6842 -11.6845 0
      vertex 19.2292 -11.4961 0
    endloop
  endfacet
  facet normal 0 0 1
    outer loop
      vertex 16.8593 -14.3844 0
      vertex 19.2292 -11.4961 0
      vertex 18.7462 -11.4 0
    endloop
  endfacet
  facet normal 0 0 1
    outer loop
      vertex 21 -13.6538 0
      vertex 17.25 -15.3276 0
      vertex 17.25 -15.6724 0
    endloop
  endfacet
  facet normal 0 0 1
    outer loop
      vertex 21 -13.6538 0
      vertex 17.25 -15.6724 0
      vertex 17.1827 -16.0105 0
    endloop
  endfacet
  facet normal 0 0 1
    outer loop
      vertex 21 -13.6538 0
      vertex 17.1827 -16.0105 0
      vertex 21 -21 0
    endloop
  endfacet
  facet normal -0 0 1
    outer loop
      vertex 17.0508 -16.3289 0
      vertex 21 -21 0
      vertex 17.1827 -16.0105 0
    endloop
  endfacet
  facet normal -0 0 1
    outer loop
      vertex 16.8593 -16.6156 0
      vertex 21 -21 0
      vertex 17.0508 -16.3289 0
    endloop
  endfacet
  facet normal -0 0 1
    outer loop
      vertex 16.6156 -16.8593 0
      vertex 21 -21 0
      vertex 16.8593 -16.6156 0
    endloop
  endfacet
  facet normal -0 0 1
    outer loop
      vertex 16.3289 -17.0508 0
      vertex 21 -21 0
      vertex 16.6156 -16.8593 0
    endloop
  endfacet
  facet normal -0 0 1
    outer loop
      vertex 16.0105 -17.1827 0
      vertex 21 -21 0
      vertex 16.3289 -17.0508 0
    endloop
  endfacet
  facet normal -0 0 1
    outer loop
      vertex 15.6724 -17.25 0
      vertex 21 -21 0
      vertex 16.0105 -17.1827 0
    endloop
  endfacet
  facet normal -0 0 1
    outer loop
      vertex 15.3276 -17.25 0
      vertex 21 -21 0
      vertex 15.6724 -17.25 0
    endloop
  endfacet
  facet normal 0 0 1
    outer loop
      vertex 14.9895 -17.1827 0
      vertex 21 -21 0
      vertex 15.3276 -17.25 0
    endloop
  endfacet
  facet normal 0 0 1
    outer loop
      vertex 14.6711 -17.0508 0
      vertex 21 -21 0
      vertex 14.9895 -17.1827 0
    endloop
  endfacet
  facet normal 0 0 1
    outer loop
      vertex 2.9168 -11.4 0
      vertex 13.8173 -16.0105 0
      vertex 13.75 -15.6724 0
    endloop
  endfacet
  facet normal 0 0 1
    outer loop
      vertex 2.9168 -11.4 0
      vertex 13.9492 -16.3289 0
      vertex 13.8173 -16.0105 0
    endloop
  endfacet
  facet normal 0 0 1
    outer loop
      vertex 2.9168 -11.4 0
      vertex 14.1407 -16.6156 0
      vertex 13.9492 -16.3289 0
    endloop
  endfacet
  facet normal -0 0 1
    outer loop
      vertex 1.15727 -11.75 0
      vertex 14.1407 -16.6156 0
      vertex 2.9168 -11.4 0
    endloop
  endfacet
  facet normal 0 0 1
    outer loop
      vertex 14.1407 -16.6156 0
      vertex 1.15727 -11.75 0
      vertex 14.3844 -16.8593 0
    endloop
  endfacet
  facet normal 0 0 1
    outer loop
      vertex -14.3844 -16.8593 0
      vertex 14.3844 -16.8593 0
      vertex 1.15727 -11.75 0
    endloop
  endfacet
  facet normal 0 0 1
    outer loop
      vertex 14.3844 -16.8593 0
      vertex -14.3844 -16.8593 0
      vertex 14.6711 -17.0508 0
    endloop
  endfacet
  facet normal 0 0 1
    outer loop
      vertex -14.3844 -16.8593 0
      vertex 1.15727 -11.75 0
      vertex -1.15727 -11.75 0
    endloop
  endfacet
  facet normal 0 0 1
    outer loop
      vertex -14.1407 -16.6156 0
      vertex -1.15727 -11.75 0
      vertex -2.9168 -11.4 0
    endloop
  endfacet
  facet normal 0 0 1
    outer loop
      vertex -13.75 -15.6724 0
      vertex -2.9168 -11.4 0
      vertex -13.75 -15.3276 0
    endloop
  endfacet
  facet normal 0 0 1
    outer loop
      vertex -13.8173 -16.0105 0
      vertex -2.9168 -11.4 0
      vertex -13.75 -15.6724 0
    endloop
  endfacet
  facet normal 0 0 1
    outer loop
      vertex -13.9492 -16.3289 0
      vertex -2.9168 -11.4 0
      vertex -13.8173 -16.0105 0
    endloop
  endfacet
  facet normal 0 0 1
    outer loop
      vertex -14.1407 -16.6156 0
      vertex -2.9168 -11.4 0
      vertex -13.9492 -16.3289 0
    endloop
  endfacet
  facet normal 0 0 1
    outer loop
      vertex -1.15727 -11.75 0
      vertex -14.1407 -16.6156 0
      vertex -14.3844 -16.8593 0
    endloop
  endfacet
  facet normal 0 0 1
    outer loop
      vertex -14.6711 -17.0508 0
      vertex 14.6711 -17.0508 0
      vertex -14.3844 -16.8593 0
    endloop
  endfacet
  facet normal 0 0 1
    outer loop
      vertex 14.6711 -17.0508 0
      vertex -14.6711 -17.0508 0
      vertex 21 -21 0
    endloop
  endfacet
  facet normal -0 0 1
    outer loop
      vertex -14.9895 -17.1827 0
      vertex 21 -21 0
      vertex -14.6711 -17.0508 0
    endloop
  endfacet
  facet normal 0 0 1
    outer loop
      vertex -22 -21 0
      vertex -14.9895 -17.1827 0
      vertex -15.3276 -17.25 0
    endloop
  endfacet
  facet normal 0 0 1
    outer loop
      vertex -22 -21 0
      vertex -15.3276 -17.25 0
      vertex -15.6724 -17.25 0
    endloop
  endfacet
  facet normal 0 0 1
    outer loop
      vertex -17.25 -15.3276 0
      vertex -22 -13.6538 0
      vertex -17.25 -15.6724 0
    endloop
  endfacet
  facet normal 0 0 1
    outer loop
      vertex -17.25 -15.6724 0
      vertex -22 -13.6538 0
      vertex -17.1827 -16.0105 0
    endloop
  endfacet
  facet normal 0 0 1
    outer loop
      vertex -22 -13.6538 0
      vertex -19.7462 -11.4 0
      vertex -20.2292 -11.4961 0
    endloop
  endfacet
  facet normal 0 0 1
    outer loop
      vertex -22 -13.6538 0
      vertex -20.2292 -11.4961 0
      vertex -20.6842 -11.6845 0
    endloop
  endfacet
  facet normal 0 0 1
    outer loop
      vertex -22 -21 0
      vertex -17.1827 -16.0105 0
      vertex -22 -13.6538 0
    endloop
  endfacet
  facet normal 0 0 1
    outer loop
      vertex -22 -13.6538 0
      vertex -20.6842 -11.6845 0
      vertex -21.0936 -11.9581 0
    endloop
  endfacet
  facet normal 0 0 1
    outer loop
      vertex -22 -13.6538 0
      vertex -21.0936 -11.9581 0
      vertex -21.4419 -12.3063 0
    endloop
  endfacet
  facet normal 0 0 1
    outer loop
      vertex -17.1827 -16.0105 0
      vertex -22 -21 0
      vertex -17.0508 -16.3289 0
    endloop
  endfacet
  facet normal 0 0 1
    outer loop
      vertex -22 -13.6538 0
      vertex -21.4419 -12.3063 0
      vertex -21.7155 -12.7158 0
    endloop
  endfacet
  facet normal 0 0 1
    outer loop
      vertex -22 -13.6538 0
      vertex -21.7155 -12.7158 0
      vertex -21.9039 -13.1708 0
    endloop
  endfacet
  facet normal 0 0 1
    outer loop
      vertex -17.0508 -16.3289 0
      vertex -22 -21 0
      vertex -16.8593 -16.6156 0
    endloop
  endfacet
  facet normal 0 0 1
    outer loop
      vertex -16.8593 -16.6156 0
      vertex -22 -21 0
      vertex -16.6156 -16.8593 0
    endloop
  endfacet
  facet normal 0 0 1
    outer loop
      vertex -14.9895 -17.1827 0
      vertex -22 -21 0
      vertex 21 -21 0
    endloop
  endfacet
  facet normal 0 0 1
    outer loop
      vertex -16.0105 -17.1827 0
      vertex -22 -21 0
      vertex -15.6724 -17.25 0
    endloop
  endfacet
  facet normal 0 0 1
    outer loop
      vertex -16.3289 -17.0508 0
      vertex -22 -21 0
      vertex -16.0105 -17.1827 0
    endloop
  endfacet
  facet normal 0 0 1
    outer loop
      vertex -16.6156 -16.8593 0
      vertex -22 -21 0
      vertex -16.3289 -17.0508 0
    endloop
  endfacet
  facet normal 0 0 1
    outer loop
      vertex -2.9168 -11.4 0
      vertex -13.8173 -14.9895 0
      vertex -13.75 -15.3276 0
    endloop
  endfacet
  facet normal 0 0 1
    outer loop
      vertex -2.9168 -11.4 0
      vertex -13.9492 -14.6711 0
      vertex -13.8173 -14.9895 0
    endloop
  endfacet
  facet normal 0 0 1
    outer loop
      vertex -2.9168 -11.4 0
      vertex -14.1407 -14.3844 0
      vertex -13.9492 -14.6711 0
    endloop
  endfacet
  facet normal 0 0 1
    outer loop
      vertex -2.9168 -11.4 0
      vertex -14.3844 -14.1407 0
      vertex -14.1407 -14.3844 0
    endloop
  endfacet
  facet normal 0 0 1
    outer loop
      vertex -2.9168 -11.4 0
      vertex -14.6711 -13.9492 0
      vertex -14.3844 -14.1407 0
    endloop
  endfacet
  facet normal 0 0 1
    outer loop
      vertex -2.9168 -11.4 0
      vertex -14.9895 -13.8173 0
      vertex -14.6711 -13.9492 0
    endloop
  endfacet
  facet normal -0 0 1
    outer loop
      vertex -19.7462 -11.4 0
      vertex -14.9895 -13.8173 0
      vertex -2.9168 -11.4 0
    endloop
  endfacet
  facet normal 0 0 1
    outer loop
      vertex -14.9895 -13.8173 0
      vertex -19.7462 -11.4 0
      vertex -15.3276 -13.75 0
    endloop
  endfacet
  facet normal 0 0 1
    outer loop
      vertex -17.1827 -14.9895 0
      vertex -22 -13.6538 0
      vertex -17.25 -15.3276 0
    endloop
  endfacet
  facet normal -0 0 1
    outer loop
      vertex -22 -13.6538 0
      vertex -17.1827 -14.9895 0
      vertex -19.7462 -11.4 0
    endloop
  endfacet
  facet normal 0 0 1
    outer loop
      vertex -17.0508 -14.6711 0
      vertex -19.7462 -11.4 0
      vertex -17.1827 -14.9895 0
    endloop
  endfacet
  facet normal 0 0 1
    outer loop
      vertex -16.8593 -14.3844 0
      vertex -19.7462 -11.4 0
      vertex -17.0508 -14.6711 0
    endloop
  endfacet
  facet normal 0 0 1
    outer loop
      vertex -16.6156 -14.1407 0
      vertex -19.7462 -11.4 0
      vertex -16.8593 -14.3844 0
    endloop
  endfacet
  facet normal 0 0 1
    outer loop
      vertex -16.3289 -13.9492 0
      vertex -19.7462 -11.4 0
      vertex -16.6156 -14.1407 0
    endloop
  endfacet
  facet normal 0 0 1
    outer loop
      vertex -16.0105 -13.8173 0
      vertex -19.7462 -11.4 0
      vertex -16.3289 -13.9492 0
    endloop
  endfacet
  facet normal 0 0 1
    outer loop
      vertex -15.6724 -13.75 0
      vertex -19.7462 -11.4 0
      vertex -16.0105 -13.8173 0
    endloop
  endfacet
  facet normal 0 0 1
    outer loop
      vertex -15.3276 -13.75 0
      vertex -19.7462 -11.4 0
      vertex -15.6724 -13.75 0
    endloop
  endfacet
  facet normal 0 1 -0
    outer loop
      vertex 21 -21 0
      vertex -22 -21 11
      vertex 21 -21 11
    endloop
  endfacet
  facet normal 0 1 0
    outer loop
      vertex -22 -21 11
      vertex 21 -21 0
      vertex -22 -21 0
    endloop
  endfacet
  facet normal 0 1 -0
    outer loop
      vertex 1.15727 -11.75 -4.8
      vertex -1.15727 -11.75 0
      vertex 1.15727 -11.75 0
    endloop
  endfacet
  facet normal 0 1 0
    outer loop
      vertex -1.15727 -11.75 0
      vertex 1.15727 -11.75 -4.8
      vertex -1.15727 -11.75 -4.8
    endloop
  endfacet
  facet normal -0.195094 0.980784 0
    outer loop
      vertex 2.9168 -11.4 -4.8
      vertex 1.15727 -11.75 0
      vertex 2.9168 -11.4 0
    endloop
  endfacet
  facet normal -0.195094 0.980784 0
    outer loop
      vertex 1.15727 -11.75 0
      vertex 2.9168 -11.4 -4.8
      vertex 1.15727 -11.75 -4.8
    endloop
  endfacet
  facet normal 0.195094 0.980784 -0
    outer loop
      vertex -1.15727 -11.75 -4.8
      vertex -2.9168 -11.4 0
      vertex -1.15727 -11.75 0
    endloop
  endfacet
  facet normal 0.195094 0.980784 0
    outer loop
      vertex -2.9168 -11.4 0
      vertex -1.15727 -11.75 -4.8
      vertex -2.9168 -11.4 -4.8
    endloop
  endfacet
  facet normal 0 -1 0
    outer loop
      vertex -19.7462 -33.1 -4.8
      vertex 18.7462 -33.1 11
      vertex -19.7462 -33.1 11
    endloop
  endfacet
  facet normal 0 -1 -0
    outer loop
      vertex 18.7462 -33.1 11
      vertex -19.7462 -33.1 -4.8
      vertex 18.7462 -33.1 -4.8
    endloop
  endfacet
  facet normal 0.980775 0.19514 0
    outer loop
      vertex 21 -13.6538 0
      vertex 20.9039 -13.1708 -4.8
      vertex 20.9039 -13.1708 0
    endloop
  endfacet
  facet normal 0.980775 0.19514 0
    outer loop
      vertex 20.9039 -13.1708 -4.8
      vertex 21 -13.6538 0
      vertex 21 -13.6538 -4.8
    endloop
  endfacet
  facet normal -0.557186 -0.830387 0
    outer loop
      vertex -20.7073 -32.8 -4.8
      vertex -20.6842 -32.8155 11
      vertex -20.7073 -32.8 11
    endloop
  endfacet
  facet normal -0.557186 -0.830387 -0
    outer loop
      vertex -20.6842 -32.8155 11
      vertex -20.7073 -32.8 -4.8
      vertex -20.6842 -32.8155 -4.8
    endloop
  endfacet
  facet normal -0.980775 0.19514 0
    outer loop
      vertex -22 -13.6538 -4.8
      vertex -21.9039 -13.1708 0
      vertex -21.9039 -13.1708 -4.8
    endloop
  endfacet
  facet normal -0.980775 0.19514 0
    outer loop
      vertex -21.9039 -13.1708 0
      vertex -22 -13.6538 -4.8
      vertex -22 -13.6538 0
    endloop
  endfacet
  facet normal 0.382567 0.923928 -0
    outer loop
      vertex 19.6842 -11.6845 -4.8
      vertex 19.2292 -11.4961 0
      vertex 19.6842 -11.6845 0
    endloop
  endfacet
  facet normal 0.382567 0.923928 0
    outer loop
      vertex 19.2292 -11.4961 0
      vertex 19.6842 -11.6845 -4.8
      vertex 19.2292 -11.4961 -4.8
    endloop
  endfacet
  facet normal 0 1 -0
    outer loop
      vertex 18.7462 -11.4 -4.8
      vertex 2.9168 -11.4 0
      vertex 18.7462 -11.4 0
    endloop
  endfacet
  facet normal 0 1 0
    outer loop
      vertex 2.9168 -11.4 0
      vertex 18.7462 -11.4 -4.8
      vertex 2.9168 -11.4 -4.8
    endloop
  endfacet
  facet normal 0 1 -0
    outer loop
      vertex -2.9168 -11.4 -4.8
      vertex -19.7462 -11.4 0
      vertex -2.9168 -11.4 0
    endloop
  endfacet
  facet normal 0 1 0
    outer loop
      vertex -19.7462 -11.4 0
      vertex -2.9168 -11.4 -4.8
      vertex -19.7462 -11.4 -4.8
    endloop
  endfacet
  facet normal 1 0 0
    outer loop
      vertex 21 -21 11
      vertex 21 -25.5 2.07695
      vertex 21 -21 0
    endloop
  endfacet
  facet normal 1 0 0
    outer loop
      vertex 21 -21 11
      vertex 21 -27.023 3.6
      vertex 21 -25.5 2.07695
    endloop
  endfacet
  facet normal 1 -0 0
    outer loop
      vertex 21 -30.8462 11
      vertex 21 -27.023 3.6
      vertex 21 -21 11
    endloop
  endfacet
  facet normal 1 0 0
    outer loop
      vertex 21 -30.8462 -4.8
      vertex 21 -30.7 2.07695
      vertex 21 -30.8462 11
    endloop
  endfacet
  facet normal 1 0 0
    outer loop
      vertex 21 -29.177 3.6
      vertex 21 -30.8462 11
      vertex 21 -30.7 2.07695
    endloop
  endfacet
  facet normal 1 0 0
    outer loop
      vertex 21 -27.023 3.6
      vertex 21 -30.8462 11
      vertex 21 -29.177 3.6
    endloop
  endfacet
  facet normal 1 -0 0
    outer loop
      vertex 21 -21 0
      vertex 21 -13.6538 -4.8
      vertex 21 -13.6538 0
    endloop
  endfacet
  facet normal 1 0 0
    outer loop
      vertex 21 -25.5 -0.0769548
      vertex 21 -21 0
      vertex 21 -25.5 2.07695
    endloop
  endfacet
  facet normal 1 0 0
    outer loop
      vertex 21 -27.023 -1.6
      vertex 21 -21 0
      vertex 21 -25.5 -0.0769548
    endloop
  endfacet
  facet normal 1 0 0
    outer loop
      vertex 21 -21 0
      vertex 21 -27.023 -1.6
      vertex 21 -13.6538 -4.8
    endloop
  endfacet
  facet normal 1 0 0
    outer loop
      vertex 21 -30.8462 -4.8
      vertex 21 -27.023 -1.6
      vertex 21 -29.177 -1.6
    endloop
  endfacet
  facet normal 1 0 0
    outer loop
      vertex 21 -27.023 -1.6
      vertex 21 -30.8462 -4.8
      vertex 21 -13.6538 -4.8
    endloop
  endfacet
  facet normal 1 0 0
    outer loop
      vertex 21 -30.7 -0.0769548
      vertex 21 -30.8462 -4.8
      vertex 21 -29.177 -1.6
    endloop
  endfacet
  facet normal 1 0 0
    outer loop
      vertex 21 -30.7 2.07695
      vertex 21 -30.8462 -4.8
      vertex 21 -30.7 -0.0769548
    endloop
  endfacet
  facet normal -1 0 0
    outer loop
      vertex -22 -13.6538 -4.8
      vertex -22 -21 0
      vertex -22 -13.6538 0
    endloop
  endfacet
  facet normal -1 0 0
    outer loop
      vertex -22 -23.4 -4.8
      vertex -22 -21 0
      vertex -22 -13.6538 -4.8
    endloop
  endfacet
  facet normal -1 0 0
    outer loop
      vertex -22 -23.4 11
      vertex -22 -21 0
      vertex -22 -23.4 -4.8
    endloop
  endfacet
  facet normal -1 0 0
    outer loop
      vertex -22 -21 0
      vertex -22 -23.4 11
      vertex -22 -21 11
    endloop
  endfacet
  facet normal -0.555637 0.831425 0
    outer loop
      vertex -20.6842 -11.6845 -4.8
      vertex -21.0936 -11.9581 0
      vertex -20.6842 -11.6845 0
    endloop
  endfacet
  facet normal -0.555637 0.831425 0
    outer loop
      vertex -21.0936 -11.9581 0
      vertex -20.6842 -11.6845 -4.8
      vertex -21.0936 -11.9581 -4.8
    endloop
  endfacet
  facet normal 0.19514 0.980775 -0
    outer loop
      vertex 19.2292 -11.4961 -4.8
      vertex 18.7462 -11.4 0
      vertex 19.2292 -11.4961 0
    endloop
  endfacet
  facet normal 0.19514 0.980775 0
    outer loop
      vertex 18.7462 -11.4 0
      vertex 19.2292 -11.4961 -4.8
      vertex 18.7462 -11.4 -4.8
    endloop
  endfacet
  facet normal 0.923928 0.382567 0
    outer loop
      vertex 20.9039 -13.1708 0
      vertex 20.7155 -12.7158 -4.8
      vertex 20.7155 -12.7158 0
    endloop
  endfacet
  facet normal 0.923928 0.382567 0
    outer loop
      vertex 20.7155 -12.7158 -4.8
      vertex 20.9039 -13.1708 0
      vertex 20.9039 -13.1708 -4.8
    endloop
  endfacet
  facet normal 0.707107 -0.707107 0
    outer loop
      vertex 20.0936 -32.5419 11
      vertex 20.4419 -32.1936 -4.8
      vertex 20.4419 -32.1936 11
    endloop
  endfacet
  facet normal 0.707107 -0.707107 0
    outer loop
      vertex 20.4419 -32.1936 -4.8
      vertex 20.0936 -32.5419 11
      vertex 20.0936 -32.5419 -4.8
    endloop
  endfacet
  facet normal 0 0 -1
    outer loop
      vertex 18.7462 -33.1 -4.8
      vertex 21 -30.8462 -4.8
      vertex 20.9039 -31.3292 -4.8
    endloop
  endfacet
  facet normal 0 0 -1
    outer loop
      vertex 21 -30.8462 -4.8
      vertex 16.8593 -16.6156 -4.8
      vertex 21 -13.6538 -4.8
    endloop
  endfacet
  facet normal 0 0 -1
    outer loop
      vertex 18.7462 -33.1 -4.8
      vertex 20.9039 -31.3292 -4.8
      vertex 20.7155 -31.7842 -4.8
    endloop
  endfacet
  facet normal 0 -0 -1
    outer loop
      vertex 17.0508 -16.3289 -4.8
      vertex 21 -13.6538 -4.8
      vertex 16.8593 -16.6156 -4.8
    endloop
  endfacet
  facet normal 0 0 -1
    outer loop
      vertex 18.7462 -33.1 -4.8
      vertex 20.7155 -31.7842 -4.8
      vertex 20.4419 -32.1936 -4.8
    endloop
  endfacet
  facet normal 0 -0 -1
    outer loop
      vertex 17.25 -15.6724 -4.8
      vertex 21 -13.6538 -4.8
      vertex 17.1827 -16.0105 -4.8
    endloop
  endfacet
  facet normal 0 0 -1
    outer loop
      vertex 18.7462 -33.1 -4.8
      vertex 20.4419 -32.1936 -4.8
      vertex 20.0936 -32.5419 -4.8
    endloop
  endfacet
  facet normal 0 0 -1
    outer loop
      vertex 17.25 -15.3276 -4.8
      vertex 21 -13.6538 -4.8
      vertex 17.25 -15.6724 -4.8
    endloop
  endfacet
  facet normal 0 0 -1
    outer loop
      vertex 18.7462 -33.1 -4.8
      vertex 20.0936 -32.5419 -4.8
      vertex 19.6842 -32.8155 -4.8
    endloop
  endfacet
  facet normal 0 0 -1
    outer loop
      vertex 17.1827 -14.9895 -4.8
      vertex 21 -13.6538 -4.8
      vertex 17.25 -15.3276 -4.8
    endloop
  endfacet
  facet normal 0 0 -1
    outer loop
      vertex 18.7462 -33.1 -4.8
      vertex 19.6842 -32.8155 -4.8
      vertex 19.2292 -33.0039 -4.8
    endloop
  endfacet
  facet normal -0 0 -1
    outer loop
      vertex 21 -13.6538 -4.8
      vertex 17.0508 -14.6711 -4.8
      vertex 20.9039 -13.1708 -4.8
    endloop
  endfacet
  facet normal -0 0 -1
    outer loop
      vertex 21 -30.8462 -4.8
      vertex 18.7462 -33.1 -4.8
      vertex 9.1 -23.4 -4.8
    endloop
  endfacet
  facet normal -0 0 -1
    outer loop
      vertex 20.9039 -13.1708 -4.8
      vertex 17.0508 -14.6711 -4.8
      vertex 20.7155 -12.7158 -4.8
    endloop
  endfacet
  facet normal -0 0 -1
    outer loop
      vertex 20.7155 -12.7158 -4.8
      vertex 17.0508 -14.6711 -4.8
      vertex 20.4419 -12.3063 -4.8
    endloop
  endfacet
  facet normal -0 0 -1
    outer loop
      vertex 20.4419 -12.3063 -4.8
      vertex 17.0508 -14.6711 -4.8
      vertex 20.0936 -11.9581 -4.8
    endloop
  endfacet
  facet normal 0 0 -1
    outer loop
      vertex 17.0508 -14.6711 -4.8
      vertex 21 -13.6538 -4.8
      vertex 17.1827 -14.9895 -4.8
    endloop
  endfacet
  facet normal 0 -0 -1
    outer loop
      vertex 17.1827 -16.0105 -4.8
      vertex 21 -13.6538 -4.8
      vertex 17.0508 -16.3289 -4.8
    endloop
  endfacet
  facet normal 0 0 -1
    outer loop
      vertex 21 -30.8462 -4.8
      vertex 16.6156 -16.8593 -4.8
      vertex 16.8593 -16.6156 -4.8
    endloop
  endfacet
  facet normal 0 0 -1
    outer loop
      vertex 21 -30.8462 -4.8
      vertex 16.3289 -17.0508 -4.8
      vertex 16.6156 -16.8593 -4.8
    endloop
  endfacet
  facet normal 0 0 -1
    outer loop
      vertex 21 -30.8462 -4.8
      vertex 16.0105 -17.1827 -4.8
      vertex 16.3289 -17.0508 -4.8
    endloop
  endfacet
  facet normal 0 0 -1
    outer loop
      vertex 21 -30.8462 -4.8
      vertex 15.6724 -17.25 -4.8
      vertex 16.0105 -17.1827 -4.8
    endloop
  endfacet
  facet normal 0 0 -1
    outer loop
      vertex 21 -30.8462 -4.8
      vertex 9.1 -23.4 -4.8
      vertex 15.6724 -17.25 -4.8
    endloop
  endfacet
  facet normal -0 0 -1
    outer loop
      vertex 15.6724 -17.25 -4.8
      vertex 9.1 -23.4 -4.8
      vertex 15.3276 -17.25 -4.8
    endloop
  endfacet
  facet normal -0 0 -1
    outer loop
      vertex 15.3276 -17.25 -4.8
      vertex 9.1 -23.4 -4.8
      vertex 14.9895 -17.1827 -4.8
    endloop
  endfacet
  facet normal -0 0 -1
    outer loop
      vertex 14.9895 -17.1827 -4.8
      vertex 9.1 -23.4 -4.8
      vertex 14.6711 -17.0508 -4.8
    endloop
  endfacet
  facet normal -0 0 -1
    outer loop
      vertex 14.6711 -17.0508 -4.8
      vertex 9.1 -23.4 -4.8
      vertex 14.3844 -16.8593 -4.8
    endloop
  endfacet
  facet normal -0 0 -1
    outer loop
      vertex 14.3844 -16.8593 -4.8
      vertex 9.1 -23.4 -4.8
      vertex 14.1407 -16.6156 -4.8
    endloop
  endfacet
  facet normal -0 0 -1
    outer loop
      vertex 14.1407 -16.6156 -4.8
      vertex 9.1 -23.4 -4.8
      vertex 13.9492 -16.3289 -4.8
    endloop
  endfacet
  facet normal -0 0 -1
    outer loop
      vertex 13.8173 -16.0105 -4.8
      vertex 9.1 -23.4 -4.8
      vertex 13.75 -15.6724 -4.8
    endloop
  endfacet
  facet normal -0 0 -1
    outer loop
      vertex 13.9492 -16.3289 -4.8
      vertex 9.1 -23.4 -4.8
      vertex 13.8173 -16.0105 -4.8
    endloop
  endfacet
  facet normal 0 0 -1
    outer loop
      vertex 9.1 -23.4 -4.8
      vertex 18.7462 -33.1 -4.8
      vertex 9.1 -32.8 -4.8
    endloop
  endfacet
  facet normal 0 0 -1
    outer loop
      vertex -19.7462 -33.1 -4.8
      vertex 9.1 -32.8 -4.8
      vertex 18.7462 -33.1 -4.8
    endloop
  endfacet
  facet normal 0 0 -1
    outer loop
      vertex -20.7073 -32.8 -4.8
      vertex -19.7462 -33.1 -4.8
      vertex -20.2292 -33.0039 -4.8
    endloop
  endfacet
  facet normal 0 0 -1
    outer loop
      vertex -20.7073 -32.8 -4.8
      vertex -20.2292 -33.0039 -4.8
      vertex -20.6842 -32.8155 -4.8
    endloop
  endfacet
  facet normal 0 0 -1
    outer loop
      vertex -19.7462 -33.1 -4.8
      vertex -20.7073 -32.8 -4.8
      vertex 9.1 -32.8 -4.8
    endloop
  endfacet
  facet normal -0 0 -1
    outer loop
      vertex 20.0936 -11.9581 -4.8
      vertex 17.0508 -14.6711 -4.8
      vertex 19.6842 -11.6845 -4.8
    endloop
  endfacet
  facet normal -0 0 -1
    outer loop
      vertex 19.6842 -11.6845 -4.8
      vertex 17.0508 -14.6711 -4.8
      vertex 19.2292 -11.4961 -4.8
    endloop
  endfacet
  facet normal 0 0 -1
    outer loop
      vertex 16.8593 -14.3844 -4.8
      vertex 19.2292 -11.4961 -4.8
      vertex 17.0508 -14.6711 -4.8
    endloop
  endfacet
  facet normal -0 0 -1
    outer loop
      vertex 19.2292 -11.4961 -4.8
      vertex 16.8593 -14.3844 -4.8
      vertex 18.7462 -11.4 -4.8
    endloop
  endfacet
  facet normal 0 0 -1
    outer loop
      vertex 16.6156 -14.1407 -4.8
      vertex 18.7462 -11.4 -4.8
      vertex 16.8593 -14.3844 -4.8
    endloop
  endfacet
  facet normal 0 0 -1
    outer loop
      vertex 16.3289 -13.9492 -4.8
      vertex 18.7462 -11.4 -4.8
      vertex 16.6156 -14.1407 -4.8
    endloop
  endfacet
  facet normal 0 0 -1
    outer loop
      vertex 16.0105 -13.8173 -4.8
      vertex 18.7462 -11.4 -4.8
      vertex 16.3289 -13.9492 -4.8
    endloop
  endfacet
  facet normal 0 0 -1
    outer loop
      vertex 15.6724 -13.75 -4.8
      vertex 18.7462 -11.4 -4.8
      vertex 16.0105 -13.8173 -4.8
    endloop
  endfacet
  facet normal 0 0 -1
    outer loop
      vertex 15.3276 -13.75 -4.8
      vertex 18.7462 -11.4 -4.8
      vertex 15.6724 -13.75 -4.8
    endloop
  endfacet
  facet normal 0 0 -1
    outer loop
      vertex 14.9895 -13.8173 -4.8
      vertex 18.7462 -11.4 -4.8
      vertex 15.3276 -13.75 -4.8
    endloop
  endfacet
  facet normal 0 0 -1
    outer loop
      vertex 2.9168 -11.4 -4.8
      vertex 14.9895 -13.8173 -4.8
      vertex 14.6711 -13.9492 -4.8
    endloop
  endfacet
  facet normal 0 0 -1
    outer loop
      vertex 2.9168 -11.4 -4.8
      vertex 13.75 -15.6724 -4.8
      vertex 9.1 -23.4 -4.8
    endloop
  endfacet
  facet normal 0 0 -1
    outer loop
      vertex 13.75 -15.6724 -4.8
      vertex 2.9168 -11.4 -4.8
      vertex 13.75 -15.3276 -4.8
    endloop
  endfacet
  facet normal 0 0 -1
    outer loop
      vertex 13.75 -15.3276 -4.8
      vertex 2.9168 -11.4 -4.8
      vertex 13.8173 -14.9895 -4.8
    endloop
  endfacet
  facet normal 0 0 -1
    outer loop
      vertex 14.9895 -13.8173 -4.8
      vertex 2.9168 -11.4 -4.8
      vertex 18.7462 -11.4 -4.8
    endloop
  endfacet
  facet normal 0 0 -1
    outer loop
      vertex 14.3844 -14.1407 -4.8
      vertex 2.9168 -11.4 -4.8
      vertex 14.6711 -13.9492 -4.8
    endloop
  endfacet
  facet normal 0 0 -1
    outer loop
      vertex 14.1407 -14.3844 -4.8
      vertex 2.9168 -11.4 -4.8
      vertex 14.3844 -14.1407 -4.8
    endloop
  endfacet
  facet normal 0 0 -1
    outer loop
      vertex 13.9492 -14.6711 -4.8
      vertex 2.9168 -11.4 -4.8
      vertex 14.1407 -14.3844 -4.8
    endloop
  endfacet
  facet normal 0 0 -1
    outer loop
      vertex 13.8173 -14.9895 -4.8
      vertex 2.9168 -11.4 -4.8
      vertex 13.9492 -14.6711 -4.8
    endloop
  endfacet
  facet normal 0 0 -1
    outer loop
      vertex 9.1 -23.4 -4.8
      vertex 1.15727 -11.75 -4.8
      vertex 2.9168 -11.4 -4.8
    endloop
  endfacet
  facet normal 0 0 -1
    outer loop
      vertex 9.1 -23.4 -4.8
      vertex -1.15727 -11.75 -4.8
      vertex 1.15727 -11.75 -4.8
    endloop
  endfacet
  facet normal 0 0 -1
    outer loop
      vertex -14.1407 -16.6156 -4.8
      vertex -1.15727 -11.75 -4.8
      vertex 9.1 -23.4 -4.8
    endloop
  endfacet
  facet normal -0 0 -1
    outer loop
      vertex -1.15727 -11.75 -4.8
      vertex -14.1407 -16.6156 -4.8
      vertex -2.9168 -11.4 -4.8
    endloop
  endfacet
  facet normal 0 0 -1
    outer loop
      vertex -2.9168 -11.4 -4.8
      vertex -13.8173 -16.0105 -4.8
      vertex -13.75 -15.6724 -4.8
    endloop
  endfacet
  facet normal 0 0 -1
    outer loop
      vertex -2.9168 -11.4 -4.8
      vertex -13.9492 -16.3289 -4.8
      vertex -13.8173 -16.0105 -4.8
    endloop
  endfacet
  facet normal 0 0 -1
    outer loop
      vertex -2.9168 -11.4 -4.8
      vertex -14.1407 -16.6156 -4.8
      vertex -13.9492 -16.3289 -4.8
    endloop
  endfacet
  facet normal 0 0 -1
    outer loop
      vertex 9.1 -23.4 -4.8
      vertex -14.3844 -16.8593 -4.8
      vertex -14.1407 -16.6156 -4.8
    endloop
  endfacet
  facet normal 0 0 -1
    outer loop
      vertex 9.1 -23.4 -4.8
      vertex -14.6711 -17.0508 -4.8
      vertex -14.3844 -16.8593 -4.8
    endloop
  endfacet
  facet normal 0 0 -1
    outer loop
      vertex -22 -23.4 -4.8
      vertex -14.6711 -17.0508 -4.8
      vertex 9.1 -23.4 -4.8
    endloop
  endfacet
  facet normal 0 0 -1
    outer loop
      vertex -14.6711 -17.0508 -4.8
      vertex -22 -23.4 -4.8
      vertex -14.9895 -17.1827 -4.8
    endloop
  endfacet
  facet normal 0 0 -1
    outer loop
      vertex -14.9895 -17.1827 -4.8
      vertex -22 -23.4 -4.8
      vertex -15.3276 -17.25 -4.8
    endloop
  endfacet
  facet normal -0 0 -1
    outer loop
      vertex -15.3276 -17.25 -4.8
      vertex -22 -23.4 -4.8
      vertex -15.6724 -17.25 -4.8
    endloop
  endfacet
  facet normal 0 0 -1
    outer loop
      vertex -22 -13.6538 -4.8
      vertex -17.25 -15.3276 -4.8
      vertex -17.25 -15.6724 -4.8
    endloop
  endfacet
  facet normal 0 0 -1
    outer loop
      vertex -22 -13.6538 -4.8
      vertex -17.25 -15.6724 -4.8
      vertex -17.1827 -16.0105 -4.8
    endloop
  endfacet
  facet normal 0 0 -1
    outer loop
      vertex -22 -13.6538 -4.8
      vertex -17.1827 -16.0105 -4.8
      vertex -17.0508 -16.3289 -4.8
    endloop
  endfacet
  facet normal 0 0 -1
    outer loop
      vertex -17.25 -15.3276 -4.8
      vertex -22 -13.6538 -4.8
      vertex -19.7462 -11.4 -4.8
    endloop
  endfacet
  facet normal 0 0 -1
    outer loop
      vertex -19.7462 -11.4 -4.8
      vertex -22 -13.6538 -4.8
      vertex -20.2292 -11.4961 -4.8
    endloop
  endfacet
  facet normal 0 0 -1
    outer loop
      vertex -22 -23.4 -4.8
      vertex -17.0508 -16.3289 -4.8
      vertex -16.8593 -16.6156 -4.8
    endloop
  endfacet
  facet normal 0 0 -1
    outer loop
      vertex -20.2292 -11.4961 -4.8
      vertex -22 -13.6538 -4.8
      vertex -20.6842 -11.6845 -4.8
    endloop
  endfacet
  facet normal 0 0 -1
    outer loop
      vertex -20.6842 -11.6845 -4.8
      vertex -22 -13.6538 -4.8
      vertex -21.0936 -11.9581 -4.8
    endloop
  endfacet
  facet normal 0 0 -1
    outer loop
      vertex -22 -23.4 -4.8
      vertex -16.8593 -16.6156 -4.8
      vertex -16.6156 -16.8593 -4.8
    endloop
  endfacet
  facet normal 0 0 -1
    outer loop
      vertex -21.0936 -11.9581 -4.8
      vertex -22 -13.6538 -4.8
      vertex -21.4419 -12.3063 -4.8
    endloop
  endfacet
  facet normal 0 0 -1
    outer loop
      vertex -21.4419 -12.3063 -4.8
      vertex -22 -13.6538 -4.8
      vertex -21.7155 -12.7158 -4.8
    endloop
  endfacet
  facet normal -0 0 -1
    outer loop
      vertex -15.6724 -17.25 -4.8
      vertex -22 -23.4 -4.8
      vertex -16.0105 -17.1827 -4.8
    endloop
  endfacet
  facet normal 0 0 -1
    outer loop
      vertex -22 -23.4 -4.8
      vertex -16.3289 -17.0508 -4.8
      vertex -16.0105 -17.1827 -4.8
    endloop
  endfacet
  facet normal 0 0 -1
    outer loop
      vertex -22 -23.4 -4.8
      vertex -16.6156 -16.8593 -4.8
      vertex -16.3289 -17.0508 -4.8
    endloop
  endfacet
  facet normal -0 0 -1
    outer loop
      vertex -17.0508 -16.3289 -4.8
      vertex -22 -23.4 -4.8
      vertex -22 -13.6538 -4.8
    endloop
  endfacet
  facet normal 0 0 -1
    outer loop
      vertex -21.7155 -12.7158 -4.8
      vertex -22 -13.6538 -4.8
      vertex -21.9039 -13.1708 -4.8
    endloop
  endfacet
  facet normal 0 0 -1
    outer loop
      vertex -13.75 -15.3276 -4.8
      vertex -2.9168 -11.4 -4.8
      vertex -13.75 -15.6724 -4.8
    endloop
  endfacet
  facet normal 0 0 -1
    outer loop
      vertex -13.8173 -14.9895 -4.8
      vertex -2.9168 -11.4 -4.8
      vertex -13.75 -15.3276 -4.8
    endloop
  endfacet
  facet normal 0 0 -1
    outer loop
      vertex -13.9492 -14.6711 -4.8
      vertex -2.9168 -11.4 -4.8
      vertex -13.8173 -14.9895 -4.8
    endloop
  endfacet
  facet normal 0 0 -1
    outer loop
      vertex -14.1407 -14.3844 -4.8
      vertex -2.9168 -11.4 -4.8
      vertex -13.9492 -14.6711 -4.8
    endloop
  endfacet
  facet normal 0 0 -1
    outer loop
      vertex -14.3844 -14.1407 -4.8
      vertex -2.9168 -11.4 -4.8
      vertex -14.1407 -14.3844 -4.8
    endloop
  endfacet
  facet normal 0 0 -1
    outer loop
      vertex -14.6711 -13.9492 -4.8
      vertex -2.9168 -11.4 -4.8
      vertex -14.3844 -14.1407 -4.8
    endloop
  endfacet
  facet normal 0 0 -1
    outer loop
      vertex -14.9895 -13.8173 -4.8
      vertex -2.9168 -11.4 -4.8
      vertex -14.6711 -13.9492 -4.8
    endloop
  endfacet
  facet normal 0 0 -1
    outer loop
      vertex -19.7462 -11.4 -4.8
      vertex -14.9895 -13.8173 -4.8
      vertex -15.3276 -13.75 -4.8
    endloop
  endfacet
  facet normal 0 0 -1
    outer loop
      vertex -19.7462 -11.4 -4.8
      vertex -15.3276 -13.75 -4.8
      vertex -15.6724 -13.75 -4.8
    endloop
  endfacet
  facet normal 0 0 -1
    outer loop
      vertex -14.9895 -13.8173 -4.8
      vertex -19.7462 -11.4 -4.8
      vertex -2.9168 -11.4 -4.8
    endloop
  endfacet
  facet normal 0 0 -1
    outer loop
      vertex -16.0105 -13.8173 -4.8
      vertex -19.7462 -11.4 -4.8
      vertex -15.6724 -13.75 -4.8
    endloop
  endfacet
  facet normal 0 0 -1
    outer loop
      vertex -16.3289 -13.9492 -4.8
      vertex -19.7462 -11.4 -4.8
      vertex -16.0105 -13.8173 -4.8
    endloop
  endfacet
  facet normal 0 0 -1
    outer loop
      vertex -16.6156 -14.1407 -4.8
      vertex -19.7462 -11.4 -4.8
      vertex -16.3289 -13.9492 -4.8
    endloop
  endfacet
  facet normal 0 0 -1
    outer loop
      vertex -16.8593 -14.3844 -4.8
      vertex -19.7462 -11.4 -4.8
      vertex -16.6156 -14.1407 -4.8
    endloop
  endfacet
  facet normal 0 0 -1
    outer loop
      vertex -17.0508 -14.6711 -4.8
      vertex -19.7462 -11.4 -4.8
      vertex -16.8593 -14.3844 -4.8
    endloop
  endfacet
  facet normal 0 0 -1
    outer loop
      vertex -17.1827 -14.9895 -4.8
      vertex -19.7462 -11.4 -4.8
      vertex -17.0508 -14.6711 -4.8
    endloop
  endfacet
  facet normal 0 0 -1
    outer loop
      vertex -19.7462 -11.4 -4.8
      vertex -17.1827 -14.9895 -4.8
      vertex -17.25 -15.3276 -4.8
    endloop
  endfacet
  facet normal 0.555637 -0.831425 0
    outer loop
      vertex 19.6842 -32.8155 -4.8
      vertex 20.0936 -32.5419 11
      vertex 19.6842 -32.8155 11
    endloop
  endfacet
  facet normal 0.555637 -0.831425 0
    outer loop
      vertex 20.0936 -32.5419 11
      vertex 19.6842 -32.8155 -4.8
      vertex 20.0936 -32.5419 -4.8
    endloop
  endfacet
  facet normal -0 0 1
    outer loop
      vertex 9.1 -23.4 11
      vertex 21 -30.8462 11
      vertex 21 -21 11
    endloop
  endfacet
  facet normal 0 -0 1
    outer loop
      vertex 18.7462 -33.1 11
      vertex 21 -30.8462 11
      vertex 9.1 -23.4 11
    endloop
  endfacet
  facet normal 0 0 1
    outer loop
      vertex 21 -30.8462 11
      vertex 18.7462 -33.1 11
      vertex 20.9039 -31.3292 11
    endloop
  endfacet
  facet normal 0 0 1
    outer loop
      vertex 20.7155 -31.7842 11
      vertex 18.7462 -33.1 11
      vertex 20.4419 -32.1936 11
    endloop
  endfacet
  facet normal 0 0 1
    outer loop
      vertex 20.4419 -32.1936 11
      vertex 18.7462 -33.1 11
      vertex 20.0936 -32.5419 11
    endloop
  endfacet
  facet normal 0 0 1
    outer loop
      vertex 20.0936 -32.5419 11
      vertex 18.7462 -33.1 11
      vertex 19.6842 -32.8155 11
    endloop
  endfacet
  facet normal 0 0 1
    outer loop
      vertex 19.6842 -32.8155 11
      vertex 18.7462 -33.1 11
      vertex 19.2292 -33.0039 11
    endloop
  endfacet
  facet normal 0 0 1
    outer loop
      vertex 20.9039 -31.3292 11
      vertex 18.7462 -33.1 11
      vertex 20.7155 -31.7842 11
    endloop
  endfacet
  facet normal -0 0 1
    outer loop
      vertex -22 -21 11
      vertex 9.1 -23.4 11
      vertex 21 -21 11
    endloop
  endfacet
  facet normal 0 0 1
    outer loop
      vertex 9.1 -23.4 11
      vertex -22 -21 11
      vertex -22 -23.4 11
    endloop
  endfacet
  facet normal -0 0 1
    outer loop
      vertex 9.1 -32.8 11
      vertex 18.7462 -33.1 11
      vertex 9.1 -23.4 11
    endloop
  endfacet
  facet normal 0 0 1
    outer loop
      vertex 9.1 -32.8 11
      vertex -19.7462 -33.1 11
      vertex 18.7462 -33.1 11
    endloop
  endfacet
  facet normal -0 0 1
    outer loop
      vertex -20.7073 -32.8 11
      vertex -19.7462 -33.1 11
      vertex 9.1 -32.8 11
    endloop
  endfacet
  facet normal 0 0 1
    outer loop
      vertex -19.7462 -33.1 11
      vertex -20.7073 -32.8 11
      vertex -20.2292 -33.0039 11
    endloop
  endfacet
  facet normal 0 0 1
    outer loop
      vertex -20.2292 -33.0039 11
      vertex -20.7073 -32.8 11
      vertex -20.6842 -32.8155 11
    endloop
  endfacet
  facet normal -0.923928 0.382567 0
    outer loop
      vertex -21.9039 -13.1708 -4.8
      vertex -21.7155 -12.7158 0
      vertex -21.7155 -12.7158 -4.8
    endloop
  endfacet
  facet normal -0.923928 0.382567 0
    outer loop
      vertex -21.7155 -12.7158 0
      vertex -21.9039 -13.1708 -4.8
      vertex -21.9039 -13.1708 0
    endloop
  endfacet
  facet normal -0.831488 0.555543 0
    outer loop
      vertex -21.7155 -12.7158 -4.8
      vertex -21.4419 -12.3063 0
      vertex -21.4419 -12.3063 -4.8
    endloop
  endfacet
  facet normal -0.831488 0.555543 0
    outer loop
      vertex -21.4419 -12.3063 0
      vertex -21.7155 -12.7158 -4.8
      vertex -21.7155 -12.7158 0
    endloop
  endfacet
  facet normal 0.831488 0.555543 0
    outer loop
      vertex 20.7155 -12.7158 0
      vertex 20.4419 -12.3063 -4.8
      vertex 20.4419 -12.3063 0
    endloop
  endfacet
  facet normal 0.831488 0.555543 0
    outer loop
      vertex 20.4419 -12.3063 -4.8
      vertex 20.7155 -12.7158 0
      vertex 20.7155 -12.7158 -4.8
    endloop
  endfacet
  facet normal 0.555637 0.831425 -0
    outer loop
      vertex 20.0936 -11.9581 -4.8
      vertex 19.6842 -11.6845 0
      vertex 20.0936 -11.9581 0
    endloop
  endfacet
  facet normal 0.555637 0.831425 0
    outer loop
      vertex 19.6842 -11.6845 0
      vertex 20.0936 -11.9581 -4.8
      vertex 19.6842 -11.6845 -4.8
    endloop
  endfacet
  facet normal -0.382567 0.923928 0
    outer loop
      vertex -20.2292 -11.4961 -4.8
      vertex -20.6842 -11.6845 0
      vertex -20.2292 -11.4961 0
    endloop
  endfacet
  facet normal -0.382567 0.923928 0
    outer loop
      vertex -20.6842 -11.6845 0
      vertex -20.2292 -11.4961 -4.8
      vertex -20.6842 -11.6845 -4.8
    endloop
  endfacet
  facet normal -0.19514 0.980775 0
    outer loop
      vertex -19.7462 -11.4 -4.8
      vertex -20.2292 -11.4961 0
      vertex -19.7462 -11.4 0
    endloop
  endfacet
  facet normal -0.19514 0.980775 0
    outer loop
      vertex -20.2292 -11.4961 0
      vertex -19.7462 -11.4 -4.8
      vertex -20.2292 -11.4961 -4.8
    endloop
  endfacet
  facet normal -0.382567 -0.923928 0
    outer loop
      vertex -20.6842 -32.8155 -4.8
      vertex -20.2292 -33.0039 11
      vertex -20.6842 -32.8155 11
    endloop
  endfacet
  facet normal -0.382567 -0.923928 -0
    outer loop
      vertex -20.2292 -33.0039 11
      vertex -20.6842 -32.8155 -4.8
      vertex -20.2292 -33.0039 -4.8
    endloop
  endfacet
  facet normal 0.923928 -0.382567 0
    outer loop
      vertex 20.7155 -31.7842 11
      vertex 20.9039 -31.3292 -4.8
      vertex 20.9039 -31.3292 11
    endloop
  endfacet
  facet normal 0.923928 -0.382567 0
    outer loop
      vertex 20.9039 -31.3292 -4.8
      vertex 20.7155 -31.7842 11
      vertex 20.7155 -31.7842 -4.8
    endloop
  endfacet
  facet normal 0.382567 -0.923928 0
    outer loop
      vertex 19.2292 -33.0039 -4.8
      vertex 19.6842 -32.8155 11
      vertex 19.2292 -33.0039 11
    endloop
  endfacet
  facet normal 0.382567 -0.923928 0
    outer loop
      vertex 19.6842 -32.8155 11
      vertex 19.2292 -33.0039 -4.8
      vertex 19.6842 -32.8155 -4.8
    endloop
  endfacet
  facet normal 0.19514 -0.980775 0
    outer loop
      vertex 18.7462 -33.1 -4.8
      vertex 19.2292 -33.0039 11
      vertex 18.7462 -33.1 11
    endloop
  endfacet
  facet normal 0.19514 -0.980775 0
    outer loop
      vertex 19.2292 -33.0039 11
      vertex 18.7462 -33.1 -4.8
      vertex 19.2292 -33.0039 -4.8
    endloop
  endfacet
  facet normal -0.707005 0.707208 0
    outer loop
      vertex -21.4419 -12.3063 -4.8
      vertex -21.0936 -11.9581 0
      vertex -21.0936 -11.9581 -4.8
    endloop
  endfacet
  facet normal -0.707005 0.707208 0
    outer loop
      vertex -21.0936 -11.9581 0
      vertex -21.4419 -12.3063 -4.8
      vertex -21.4419 -12.3063 0
    endloop
  endfacet
  facet normal 0.707005 0.707208 0
    outer loop
      vertex 20.4419 -12.3063 0
      vertex 20.0936 -11.9581 -4.8
      vertex 20.0936 -11.9581 0
    endloop
  endfacet
  facet normal 0.707005 0.707208 0
    outer loop
      vertex 20.0936 -11.9581 -4.8
      vertex 20.4419 -12.3063 0
      vertex 20.4419 -12.3063 -4.8
    endloop
  endfacet
  facet normal -0.19514 -0.980775 0
    outer loop
      vertex -20.2292 -33.0039 -4.8
      vertex -19.7462 -33.1 11
      vertex -20.2292 -33.0039 11
    endloop
  endfacet
  facet normal -0.19514 -0.980775 -0
    outer loop
      vertex -19.7462 -33.1 11
      vertex -20.2292 -33.0039 -4.8
      vertex -19.7462 -33.1 -4.8
    endloop
  endfacet
  facet normal 0.980775 -0.19514 0
    outer loop
      vertex 20.9039 -31.3292 11
      vertex 21 -30.8462 -4.8
      vertex 21 -30.8462 11
    endloop
  endfacet
  facet normal 0.980775 -0.19514 0
    outer loop
      vertex 21 -30.8462 -4.8
      vertex 20.9039 -31.3292 11
      vertex 20.9039 -31.3292 -4.8
    endloop
  endfacet
  facet normal 0.831425 -0.555637 0
    outer loop
      vertex 20.4419 -32.1936 11
      vertex 20.7155 -31.7842 -4.8
      vertex 20.7155 -31.7842 11
    endloop
  endfacet
  facet normal 0.831425 -0.555637 0
    outer loop
      vertex 20.7155 -31.7842 -4.8
      vertex 20.4419 -32.1936 11
      vertex 20.4419 -32.1936 -4.8
    endloop
  endfacet
endsolid OpenSCAD_Model
