solid OpenSCAD_Model
  facet normal -0.866027 -0.499997 0
    outer loop
      vertex 2.7 0.723462 -5
      vertex 1.97654 1.97654 3
      vertex 1.97654 1.97654 -5
    endloop
  endfacet
  facet normal -0.866027 -0.499997 0
    outer loop
      vertex 1.97654 1.97654 3
      vertex 2.7 0.723462 -5
      vertex 2.7 0.723462 3
    endloop
  endfacet
  facet normal 1 -0 0
    outer loop
      vertex -2.7 -0.723462 3
      vertex -2.7 0.723462 -5
      vertex -2.7 0.723462 3
    endloop
  endfacet
  facet normal 1 0 0
    outer loop
      vertex -2.7 0.723462 -5
      vertex -2.7 -0.723462 3
      vertex -2.7 -0.723462 -5
    endloop
  endfacet
  facet normal -0.499994 -0.866029 0
    outer loop
      vertex 1.58949 2.2 -5
      vertex 1.97654 1.97654 3
      vertex 1.58949 2.2 3
    endloop
  endfacet
  facet normal -0.499994 -0.866029 -0
    outer loop
      vertex 1.97654 1.97654 3
      vertex 1.58949 2.2 -5
      vertex 1.97654 1.97654 -5
    endloop
  endfacet
  facet normal 0.499994 -0.866029 0
    outer loop
      vertex -1.97654 1.97654 -5
      vertex -1.58949 2.2 3
      vertex -1.97654 1.97654 3
    endloop
  endfacet
  facet normal 0.499994 -0.866029 0
    outer loop
      vertex -1.58949 2.2 3
      vertex -1.97654 1.97654 -5
      vertex -1.58949 2.2 -5
    endloop
  endfacet
  facet normal 0.866027 0.499997 0
    outer loop
      vertex -1.97654 -1.97654 3
      vertex -2.7 -0.723462 -5
      vertex -2.7 -0.723462 3
    endloop
  endfacet
  facet normal 0.866027 0.499997 0
    outer loop
      vertex -2.7 -0.723462 -5
      vertex -1.97654 -1.97654 3
      vertex -1.97654 -1.97654 -5
    endloop
  endfacet
  facet normal 0.866027 -0.499997 0
    outer loop
      vertex -2.7 0.723462 3
      vertex -1.97654 1.97654 -5
      vertex -1.97654 1.97654 3
    endloop
  endfacet
  facet normal 0.866027 -0.499997 0
    outer loop
      vertex -1.97654 1.97654 -5
      vertex -2.7 0.723462 3
      vertex -2.7 0.723462 -5
    endloop
  endfacet
  facet normal -1 0 0
    outer loop
      vertex 2.7 -0.723462 -5
      vertex 2.7 0.723462 3
      vertex 2.7 0.723462 -5
    endloop
  endfacet
  facet normal -1 -0 0
    outer loop
      vertex 2.7 0.723462 3
      vertex 2.7 -0.723462 -5
      vertex 2.7 -0.723462 3
    endloop
  endfacet
  facet normal 0.499997 0.866027 -0
    outer loop
      vertex -0.723462 -2.7 -5
      vertex -1.97654 -1.97654 3
      vertex -0.723462 -2.7 3
    endloop
  endfacet
  facet normal 0.499997 0.866027 0
    outer loop
      vertex -1.97654 -1.97654 3
      vertex -0.723462 -2.7 -5
      vertex -1.97654 -1.97654 -5
    endloop
  endfacet
  facet normal -0.866027 0.499997 0
    outer loop
      vertex 1.97654 -1.97654 -5
      vertex 2.7 -0.723462 3
      vertex 2.7 -0.723462 -5
    endloop
  endfacet
  facet normal -0.866027 0.499997 0
    outer loop
      vertex 2.7 -0.723462 3
      vertex 1.97654 -1.97654 -5
      vertex 1.97654 -1.97654 3
    endloop
  endfacet
  facet normal -0.499997 0.866027 0
    outer loop
      vertex 1.97654 -1.97654 -5
      vertex 0.723462 -2.7 3
      vertex 1.97654 -1.97654 3
    endloop
  endfacet
  facet normal -0.499997 0.866027 0
    outer loop
      vertex 0.723462 -2.7 3
      vertex 1.97654 -1.97654 -5
      vertex 0.723462 -2.7 -5
    endloop
  endfacet
  facet normal 0 1 -0
    outer loop
      vertex 0.723462 -2.7 -5
      vertex -0.723462 -2.7 3
      vertex 0.723462 -2.7 3
    endloop
  endfacet
  facet normal 0 1 0
    outer loop
      vertex -0.723462 -2.7 3
      vertex 0.723462 -2.7 -5
      vertex -0.723462 -2.7 -5
    endloop
  endfacet
  facet normal 0 -1 0
    outer loop
      vertex -1.58949 2.2 3
      vertex -0.559188 2.2 0.349999
      vertex 1.58949 2.2 3
    endloop
  endfacet
  facet normal 0 -1 0
    outer loop
      vertex -1.58949 2.2 3
      vertex -1.35 2.2 -0.440811
      vertex -0.559188 2.2 0.349999
    endloop
  endfacet
  facet normal 0 -1 0
    outer loop
      vertex -1.58949 2.2 3
      vertex -1.35 2.2 -1.55919
      vertex -1.35 2.2 -0.440811
    endloop
  endfacet
  facet normal 0 -1 -0
    outer loop
      vertex -0.559188 2.2 -2.35
      vertex -1.58949 2.2 -5
      vertex 0.559188 2.2 -2.35
    endloop
  endfacet
  facet normal 0 -1 -0
    outer loop
      vertex -1.35 2.2 -1.55919
      vertex -1.58949 2.2 -5
      vertex -0.559188 2.2 -2.35
    endloop
  endfacet
  facet normal 0 -1 0
    outer loop
      vertex -1.58949 2.2 -5
      vertex -1.35 2.2 -1.55919
      vertex -1.58949 2.2 3
    endloop
  endfacet
  facet normal 0 -1 0
    outer loop
      vertex 0.559188 2.2 0.349999
      vertex 1.58949 2.2 3
      vertex -0.559188 2.2 0.349999
    endloop
  endfacet
  facet normal 0 -1 0
    outer loop
      vertex 1.35 2.2 -0.440811
      vertex 1.58949 2.2 3
      vertex 0.559188 2.2 0.349999
    endloop
  endfacet
  facet normal 0 -1 0
    outer loop
      vertex 1.35 2.2 -1.55919
      vertex 1.58949 2.2 3
      vertex 1.35 2.2 -0.440811
    endloop
  endfacet
  facet normal 0 -1 0
    outer loop
      vertex 1.58949 2.2 -5
      vertex 0.559188 2.2 -2.35
      vertex -1.58949 2.2 -5
    endloop
  endfacet
  facet normal 0 -1 0
    outer loop
      vertex 1.35 2.2 -1.55919
      vertex 1.58949 2.2 -5
      vertex 1.58949 2.2 3
    endloop
  endfacet
  facet normal 0 -1 0
    outer loop
      vertex 0.559188 2.2 -2.35
      vertex 1.58949 2.2 -5
      vertex 1.35 2.2 -1.55919
    endloop
  endfacet
  facet normal -0.707106 0 -0.707108
    outer loop
      vertex 0.559188 2.2 0.349999
      vertex 1.35 4.82942 -0.440811
      vertex 1.35 2.2 -0.440811
    endloop
  endfacet
  facet normal -0.707106 0 -0.707108
    outer loop
      vertex 1.35 4.82942 -0.440811
      vertex 0.559188 2.2 0.349999
      vertex 0.559188 4.98673 0.349999
    endloop
  endfacet
  facet normal 0 0 -1
    outer loop
      vertex 0.559188 2.2 0.349999
      vertex 0.492456 5 0.349999
      vertex 0.559188 4.98673 0.349999
    endloop
  endfacet
  facet normal 0 0 -1
    outer loop
      vertex 0.559188 2.2 0.349999
      vertex -0.492456 5 0.349999
      vertex 0.492456 5 0.349999
    endloop
  endfacet
  facet normal 0 0 -1
    outer loop
      vertex -0.559188 2.2 0.349999
      vertex -0.492456 5 0.349999
      vertex 0.559188 2.2 0.349999
    endloop
  endfacet
  facet normal 0 0 -1
    outer loop
      vertex -0.492456 5 0.349999
      vertex -0.559188 2.2 0.349999
      vertex -0.559188 4.98787 0.349999
    endloop
  endfacet
  facet normal 0.707106 0 -0.707108
    outer loop
      vertex -1.35 4.84413 -0.440811
      vertex -0.559188 2.2 0.349999
      vertex -1.35 2.2 -0.440811
    endloop
  endfacet
  facet normal 0.707106 0 -0.707108
    outer loop
      vertex -0.559188 2.2 0.349999
      vertex -1.35 4.84413 -0.440811
      vertex -0.559188 4.98787 0.349999
    endloop
  endfacet
  facet normal -1 0 0
    outer loop
      vertex 1.35 2.2 -1.55919
      vertex 1.35 4.82942 -0.440811
      vertex 1.35 4.82942 -1.55919
    endloop
  endfacet
  facet normal -1 -0 0
    outer loop
      vertex 1.35 4.82942 -0.440811
      vertex 1.35 2.2 -1.55919
      vertex 1.35 2.2 -0.440811
    endloop
  endfacet
  facet normal 0 0 1
    outer loop
      vertex 0.492456 5 -2.35
      vertex 0.559188 2.2 -2.35
      vertex 0.559188 4.98673 -2.35
    endloop
  endfacet
  facet normal -0 0 1
    outer loop
      vertex -0.492456 5 -2.35
      vertex 0.559188 2.2 -2.35
      vertex 0.492456 5 -2.35
    endloop
  endfacet
  facet normal 0 0 1
    outer loop
      vertex -0.559188 2.2 -2.35
      vertex -0.492456 5 -2.35
      vertex -0.559188 4.98787 -2.35
    endloop
  endfacet
  facet normal 0 0 1
    outer loop
      vertex -0.492456 5 -2.35
      vertex -0.559188 2.2 -2.35
      vertex 0.559188 2.2 -2.35
    endloop
  endfacet
  facet normal 1 -0 0
    outer loop
      vertex -1.35 2.2 -0.440811
      vertex -1.35 4.84413 -1.55919
      vertex -1.35 4.84413 -0.440811
    endloop
  endfacet
  facet normal 1 0 0
    outer loop
      vertex -1.35 4.84413 -1.55919
      vertex -1.35 2.2 -0.440811
      vertex -1.35 2.2 -1.55919
    endloop
  endfacet
  facet normal 0.707106 0 0.707108
    outer loop
      vertex -0.559188 2.2 -2.35
      vertex -1.35 4.84413 -1.55919
      vertex -1.35 2.2 -1.55919
    endloop
  endfacet
  facet normal 0.707106 0 0.707108
    outer loop
      vertex -1.35 4.84413 -1.55919
      vertex -0.559188 2.2 -2.35
      vertex -0.559188 4.98787 -2.35
    endloop
  endfacet
  facet normal -0.707106 0 0.707108
    outer loop
      vertex 0.559188 2.2 -2.35
      vertex 1.35 4.82942 -1.55919
      vertex 0.559188 4.98673 -2.35
    endloop
  endfacet
  facet normal -0.707106 0 0.707108
    outer loop
      vertex 1.35 4.82942 -1.55919
      vertex 0.559188 2.2 -2.35
      vertex 1.35 2.2 -1.55919
    endloop
  endfacet
  facet normal 0.923879 0.382684 0
    outer loop
      vertex 4.80785 1.45845 3
      vertex 4.43094 2.36839 -5
      vertex 4.43094 2.36839 3
    endloop
  endfacet
  facet normal 0.923879 0.382684 0
    outer loop
      vertex 4.43094 2.36839 -5
      vertex 4.80785 1.45845 3
      vertex 4.80785 1.45845 -5
    endloop
  endfacet
  facet normal -1 0 0
    outer loop
      vertex -10.75 -0.369342 -5
      vertex -10.75 0.369342 3
      vertex -10.75 0.369342 -5
    endloop
  endfacet
  facet normal -1 -0 0
    outer loop
      vertex -10.75 0.369342 3
      vertex -10.75 -0.369342 -5
      vertex -10.75 -0.369342 3
    endloop
  endfacet
  facet normal -0.382679 -0.923882 0
    outer loop
      vertex -8.77629 -3.32321 -5
      vertex -8.09383 -3.60589 3
      vertex -8.77629 -3.32321 3
    endloop
  endfacet
  facet normal -0.382679 -0.923882 -0
    outer loop
      vertex -8.09383 -3.60589 3
      vertex -8.77629 -3.32321 -5
      vertex -8.09383 -3.60589 -5
    endloop
  endfacet
  facet normal 0 1 -0
    outer loop
      vertex 0.492456 5 -5
      vertex -0.492456 5 -2.35
      vertex 0.492456 5 -2.35
    endloop
  endfacet
  facet normal 0 1 0
    outer loop
      vertex -0.492456 5 -2.35
      vertex 0.492456 5 -5
      vertex -0.492456 5 -5
    endloop
  endfacet
  facet normal 0 1 -0
    outer loop
      vertex 0.492456 5 0.349999
      vertex -0.492456 5 3
      vertex 0.492456 5 3
    endloop
  endfacet
  facet normal 0 1 0
    outer loop
      vertex -0.492456 5 3
      vertex 0.492456 5 0.349999
      vertex -0.492456 5 0.349999
    endloop
  endfacet
  facet normal -0.831475 -0.555562 0
    outer loop
      vertex -9.91282 -2.39048 -5
      vertex -10.3232 -1.77629 3
      vertex -10.3232 -1.77629 -5
    endloop
  endfacet
  facet normal -0.831475 -0.555562 0
    outer loop
      vertex -10.3232 -1.77629 3
      vertex -9.91282 -2.39048 -5
      vertex -9.91282 -2.39048 3
    endloop
  endfacet
  facet normal 0 0 -1
    outer loop
      vertex 2.7 -0.723462 -5
      vertex 5 -0.492456 -5
      vertex 4.80785 -1.45845 -5
    endloop
  endfacet
  facet normal -0 0 -1
    outer loop
      vertex 5 -0.492456 -5
      vertex 2.7 -0.723462 -5
      vertex 5 0.492456 -5
    endloop
  endfacet
  facet normal 0 0 -1
    outer loop
      vertex 2.7 -0.723462 -5
      vertex 4.80785 -1.45845 -5
      vertex 4.43094 -2.36839 -5
    endloop
  endfacet
  facet normal 0 0 -1
    outer loop
      vertex 2.7 0.723462 -5
      vertex 5 0.492456 -5
      vertex 2.7 -0.723462 -5
    endloop
  endfacet
  facet normal 0 0 -1
    outer loop
      vertex 1.97654 -1.97654 -5
      vertex 4.43094 -2.36839 -5
      vertex 3.88375 -3.18731 -5
    endloop
  endfacet
  facet normal 0 0 -1
    outer loop
      vertex 5 0.492456 -5
      vertex 2.7 0.723462 -5
      vertex 4.80785 1.45845 -5
    endloop
  endfacet
  facet normal 0 0 -1
    outer loop
      vertex 1.97654 -1.97654 -5
      vertex 3.88375 -3.18731 -5
      vertex 3.18731 -3.88375 -5
    endloop
  endfacet
  facet normal -0 0 -1
    outer loop
      vertex 4.80785 1.45845 -5
      vertex 2.7 0.723462 -5
      vertex 4.43094 2.36839 -5
    endloop
  endfacet
  facet normal 0 0 -1
    outer loop
      vertex 1.97654 1.97654 -5
      vertex 4.43094 2.36839 -5
      vertex 2.7 0.723462 -5
    endloop
  endfacet
  facet normal 0 0 -1
    outer loop
      vertex 1.97654 -1.97654 -5
      vertex 3.18731 -3.88375 -5
      vertex 2.36839 -4.43094 -5
    endloop
  endfacet
  facet normal 0 0 -1
    outer loop
      vertex 4.43094 -2.36839 -5
      vertex 1.97654 -1.97654 -5
      vertex 2.7 -0.723462 -5
    endloop
  endfacet
  facet normal 0 0 -1
    outer loop
      vertex 0.723462 -2.7 -5
      vertex 2.36839 -4.43094 -5
      vertex 1.45845 -4.80785 -5
    endloop
  endfacet
  facet normal 0 0 -1
    outer loop
      vertex 2.36839 -4.43094 -5
      vertex 0.723462 -2.7 -5
      vertex 1.97654 -1.97654 -5
    endloop
  endfacet
  facet normal 0 0 -1
    outer loop
      vertex 0.492456 -5 -5
      vertex 0.723462 -2.7 -5
      vertex 1.45845 -4.80785 -5
    endloop
  endfacet
  facet normal 0 0 -1
    outer loop
      vertex -0.492456 -5 -5
      vertex 0.723462 -2.7 -5
      vertex 0.492456 -5 -5
    endloop
  endfacet
  facet normal 0 0 -1
    outer loop
      vertex -0.492456 -5 -5
      vertex -0.723462 -2.7 -5
      vertex 0.723462 -2.7 -5
    endloop
  endfacet
  facet normal 0 0 -1
    outer loop
      vertex -0.492456 -5 -5
      vertex -1.97654 -1.97654 -5
      vertex -0.723462 -2.7 -5
    endloop
  endfacet
  facet normal 0 0 -1
    outer loop
      vertex -7.36934 -3.75 -5
      vertex -1.97654 -1.97654 -5
      vertex -0.492456 -5 -5
    endloop
  endfacet
  facet normal -0 0 -1
    outer loop
      vertex -2.7 -0.723462 -5
      vertex -7.36934 -3.75 -5
      vertex -2.7 0.723462 -5
    endloop
  endfacet
  facet normal -0 0 -1
    outer loop
      vertex -1.97654 -1.97654 -5
      vertex -7.36934 -3.75 -5
      vertex -2.7 -0.723462 -5
    endloop
  endfacet
  facet normal -0 0 -1
    outer loop
      vertex 4.43094 2.36839 -5
      vertex 1.97654 1.97654 -5
      vertex 3.88375 3.18731 -5
    endloop
  endfacet
  facet normal -0 0 -1
    outer loop
      vertex 3.88375 3.18731 -5
      vertex 1.97654 1.97654 -5
      vertex 3.18731 3.88375 -5
    endloop
  endfacet
  facet normal 0 0 -1
    outer loop
      vertex 1.58949 2.2 -5
      vertex 3.18731 3.88375 -5
      vertex 1.97654 1.97654 -5
    endloop
  endfacet
  facet normal -0 0 -1
    outer loop
      vertex 3.18731 3.88375 -5
      vertex 1.58949 2.2 -5
      vertex 2.36839 4.43094 -5
    endloop
  endfacet
  facet normal 0 0 -1
    outer loop
      vertex 1.58949 2.2 -5
      vertex 1.45845 4.80785 -5
      vertex 2.36839 4.43094 -5
    endloop
  endfacet
  facet normal 0 0 -1
    outer loop
      vertex 1.58949 2.2 -5
      vertex 0.492456 5 -5
      vertex 1.45845 4.80785 -5
    endloop
  endfacet
  facet normal 0 0 -1
    outer loop
      vertex 1.58949 2.2 -5
      vertex -0.492456 5 -5
      vertex 0.492456 5 -5
    endloop
  endfacet
  facet normal 0 0 -1
    outer loop
      vertex -1.58949 2.2 -5
      vertex -0.492456 5 -5
      vertex 1.58949 2.2 -5
    endloop
  endfacet
  facet normal 0 0 -1
    outer loop
      vertex -1.97654 1.97654 -5
      vertex -0.492456 5 -5
      vertex -1.58949 2.2 -5
    endloop
  endfacet
  facet normal 0 0 -1
    outer loop
      vertex -7.36934 3.75 -5
      vertex -1.97654 1.97654 -5
      vertex -2.7 0.723462 -5
    endloop
  endfacet
  facet normal 0 0 -1
    outer loop
      vertex -7.36934 3.75 -5
      vertex -2.7 0.723462 -5
      vertex -7.36934 -3.75 -5
    endloop
  endfacet
  facet normal 0 0 -1
    outer loop
      vertex -1.97654 1.97654 -5
      vertex -7.36934 3.75 -5
      vertex -0.492456 5 -5
    endloop
  endfacet
  facet normal 0 0 -1
    outer loop
      vertex -8.09383 -3.60589 -5
      vertex -7.36934 3.75 -5
      vertex -7.36934 -3.75 -5
    endloop
  endfacet
  facet normal 0 0 -1
    outer loop
      vertex -8.09383 -3.60589 -5
      vertex -8.09383 3.60589 -5
      vertex -7.36934 3.75 -5
    endloop
  endfacet
  facet normal 0 0 -1
    outer loop
      vertex -8.77629 -3.32321 -5
      vertex -8.09383 3.60589 -5
      vertex -8.09383 -3.60589 -5
    endloop
  endfacet
  facet normal 0 0 -1
    outer loop
      vertex -8.77629 -3.32321 -5
      vertex -8.77629 3.32321 -5
      vertex -8.09383 3.60589 -5
    endloop
  endfacet
  facet normal 0 0 -1
    outer loop
      vertex -9.39048 -2.91282 -5
      vertex -8.77629 3.32321 -5
      vertex -8.77629 -3.32321 -5
    endloop
  endfacet
  facet normal 0 0 -1
    outer loop
      vertex -9.39048 -2.91282 -5
      vertex -9.39048 2.91282 -5
      vertex -8.77629 3.32321 -5
    endloop
  endfacet
  facet normal 0 0 -1
    outer loop
      vertex -9.91282 -2.39048 -5
      vertex -9.39048 2.91282 -5
      vertex -9.39048 -2.91282 -5
    endloop
  endfacet
  facet normal 0 0 -1
    outer loop
      vertex -9.91282 -2.39048 -5
      vertex -9.91282 2.39048 -5
      vertex -9.39048 2.91282 -5
    endloop
  endfacet
  facet normal 0 0 -1
    outer loop
      vertex -10.3232 -1.77629 -5
      vertex -9.91282 2.39048 -5
      vertex -9.91282 -2.39048 -5
    endloop
  endfacet
  facet normal 0 0 -1
    outer loop
      vertex -10.3232 -1.77629 -5
      vertex -10.3232 1.77629 -5
      vertex -9.91282 2.39048 -5
    endloop
  endfacet
  facet normal 0 0 -1
    outer loop
      vertex -10.6059 -1.09383 -5
      vertex -10.3232 1.77629 -5
      vertex -10.3232 -1.77629 -5
    endloop
  endfacet
  facet normal 0 0 -1
    outer loop
      vertex -10.6059 -1.09383 -5
      vertex -10.6059 1.09383 -5
      vertex -10.3232 1.77629 -5
    endloop
  endfacet
  facet normal 0 0 -1
    outer loop
      vertex -10.75 -0.369342 -5
      vertex -10.6059 1.09383 -5
      vertex -10.6059 -1.09383 -5
    endloop
  endfacet
  facet normal 0 0 -1
    outer loop
      vertex -10.6059 1.09383 -5
      vertex -10.75 -0.369342 -5
      vertex -10.75 0.369342 -5
    endloop
  endfacet
  facet normal 0.707107 0.707107 0
    outer loop
      vertex 3.88375 3.18731 3
      vertex 3.18731 3.88375 -5
      vertex 3.18731 3.88375 3
    endloop
  endfacet
  facet normal 0.707107 0.707107 0
    outer loop
      vertex 3.18731 3.88375 -5
      vertex 3.88375 3.18731 3
      vertex 3.88375 3.18731 -5
    endloop
  endfacet
  facet normal -0.382679 0.923882 0
    outer loop
      vertex -8.09383 3.60589 -5
      vertex -8.77629 3.32321 3
      vertex -8.09383 3.60589 3
    endloop
  endfacet
  facet normal -0.382679 0.923882 0
    outer loop
      vertex -8.77629 3.32321 3
      vertex -8.09383 3.60589 -5
      vertex -8.77629 3.32321 -5
    endloop
  endfacet
  facet normal -0.19509 -0.980785 0
    outer loop
      vertex -8.09383 -3.60589 -5
      vertex -7.36934 -3.75 3
      vertex -8.09383 -3.60589 3
    endloop
  endfacet
  facet normal -0.19509 -0.980785 -0
    outer loop
      vertex -7.36934 -3.75 3
      vertex -8.09383 -3.60589 -5
      vertex -7.36934 -3.75 -5
    endloop
  endfacet
  facet normal 0 -1 0
    outer loop
      vertex -0.492456 -5 -5
      vertex 0.492456 -5 3
      vertex -0.492456 -5 3
    endloop
  endfacet
  facet normal 0 -1 -0
    outer loop
      vertex 0.492456 -5 3
      vertex -0.492456 -5 -5
      vertex 0.492456 -5 -5
    endloop
  endfacet
  facet normal -0.707107 -0.707107 0
    outer loop
      vertex -9.39048 -2.91282 -5
      vertex -9.91282 -2.39048 3
      vertex -9.91282 -2.39048 -5
    endloop
  endfacet
  facet normal -0.707107 -0.707107 0
    outer loop
      vertex -9.91282 -2.39048 3
      vertex -9.39048 -2.91282 -5
      vertex -9.39048 -2.91282 3
    endloop
  endfacet
  facet normal -0.980788 -0.195078 0
    outer loop
      vertex -10.6059 -1.09383 -5
      vertex -10.75 -0.369342 3
      vertex -10.75 -0.369342 -5
    endloop
  endfacet
  facet normal -0.980788 -0.195078 0
    outer loop
      vertex -10.75 -0.369342 3
      vertex -10.6059 -1.09383 -5
      vertex -10.6059 -1.09383 3
    endloop
  endfacet
  facet normal 0.555574 -0.831467 0
    outer loop
      vertex 2.36839 -4.43094 -5
      vertex 3.18731 -3.88375 3
      vertex 2.36839 -4.43094 3
    endloop
  endfacet
  facet normal 0.555574 -0.831467 0
    outer loop
      vertex 3.18731 -3.88375 3
      vertex 2.36839 -4.43094 -5
      vertex 3.18731 -3.88375 -5
    endloop
  endfacet
  facet normal 0.195092 -0.980785 0
    outer loop
      vertex 0.492456 -5 -5
      vertex 1.45845 -4.80785 3
      vertex 0.492456 -5 3
    endloop
  endfacet
  facet normal 0.195092 -0.980785 0
    outer loop
      vertex 1.45845 -4.80785 3
      vertex 0.492456 -5 -5
      vertex 1.45845 -4.80785 -5
    endloop
  endfacet
  facet normal 0.831467 -0.555574 0
    outer loop
      vertex 3.88375 -3.18731 3
      vertex 4.43094 -2.36839 -5
      vertex 4.43094 -2.36839 3
    endloop
  endfacet
  facet normal 0.831467 -0.555574 0
    outer loop
      vertex 4.43094 -2.36839 -5
      vertex 3.88375 -3.18731 3
      vertex 3.88375 -3.18731 -5
    endloop
  endfacet
  facet normal 0.980785 0.195092 0
    outer loop
      vertex 5 0.492456 3
      vertex 4.80785 1.45845 -5
      vertex 4.80785 1.45845 3
    endloop
  endfacet
  facet normal 0.980785 0.195092 0
    outer loop
      vertex 4.80785 1.45845 -5
      vertex 5 0.492456 3
      vertex 5 0.492456 -5
    endloop
  endfacet
  facet normal 0.831467 0.555574 0
    outer loop
      vertex 4.43094 2.36839 3
      vertex 3.88375 3.18731 -5
      vertex 3.88375 3.18731 3
    endloop
  endfacet
  facet normal 0.831467 0.555574 0
    outer loop
      vertex 3.88375 3.18731 -5
      vertex 4.43094 2.36839 3
      vertex 4.43094 2.36839 -5
    endloop
  endfacet
  facet normal -0.831475 0.555562 0
    outer loop
      vertex -10.3232 1.77629 -5
      vertex -9.91282 2.39048 3
      vertex -9.91282 2.39048 -5
    endloop
  endfacet
  facet normal -0.831475 0.555562 0
    outer loop
      vertex -9.91282 2.39048 3
      vertex -10.3232 1.77629 -5
      vertex -10.3232 1.77629 3
    endloop
  endfacet
  facet normal 0.382684 0.923879 -0
    outer loop
      vertex 2.36839 4.43094 -5
      vertex 1.45845 4.80785 3
      vertex 2.36839 4.43094 3
    endloop
  endfacet
  facet normal 0.382684 0.923879 0
    outer loop
      vertex 1.45845 4.80785 3
      vertex 2.36839 4.43094 -5
      vertex 1.45845 4.80785 -5
    endloop
  endfacet
  facet normal 0.195092 0.980785 1.46106e-06
    outer loop
      vertex 1.45845 4.80785 3
      vertex 0.559188 4.98673 0.349999
      vertex 0.492456 5 3
    endloop
  endfacet
  facet normal 0.195099 0.980784 -8.57736e-07
    outer loop
      vertex 1.45845 4.80785 3
      vertex 1.35 4.82942 -0.440811
      vertex 0.559188 4.98673 0.349999
    endloop
  endfacet
  facet normal 0.195073 0.980789 0
    outer loop
      vertex 1.45845 4.80785 3
      vertex 1.35 4.82942 -1.55919
      vertex 1.35 4.82942 -0.440811
    endloop
  endfacet
  facet normal 0.195073 0.980789 -0
    outer loop
      vertex 1.45845 4.80785 -5
      vertex 1.35 4.82942 -1.55919
      vertex 1.45845 4.80785 3
    endloop
  endfacet
  facet normal 0.195099 0.980784 8.57736e-07
    outer loop
      vertex 1.45845 4.80785 -5
      vertex 0.559188 4.98673 -2.35
      vertex 1.35 4.82942 -1.55919
    endloop
  endfacet
  facet normal 0.195092 0.980785 -1.46106e-06
    outer loop
      vertex 0.492456 5 -5
      vertex 0.559188 4.98673 -2.35
      vertex 1.45845 4.80785 -5
    endloop
  endfacet
  facet normal 0.195036 0.980796 0
    outer loop
      vertex 0.559188 4.98673 -2.35
      vertex 0.492456 5 -5
      vertex 0.492456 5 -2.35
    endloop
  endfacet
  facet normal 0.195036 0.980796 0
    outer loop
      vertex 0.492456 5 3
      vertex 0.559188 4.98673 0.349999
      vertex 0.492456 5 0.349999
    endloop
  endfacet
  facet normal 0.555574 0.831467 -0
    outer loop
      vertex 3.18731 3.88375 -5
      vertex 2.36839 4.43094 3
      vertex 3.18731 3.88375 3
    endloop
  endfacet
  facet normal 0.555574 0.831467 0
    outer loop
      vertex 2.36839 4.43094 3
      vertex 3.18731 3.88375 -5
      vertex 2.36839 4.43094 -5
    endloop
  endfacet
  facet normal -0.19509 0.980785 0
    outer loop
      vertex -7.36934 3.75 -5
      vertex -8.09383 3.60589 3
      vertex -7.36934 3.75 3
    endloop
  endfacet
  facet normal -0.19509 0.980785 0
    outer loop
      vertex -8.09383 3.60589 3
      vertex -7.36934 3.75 -5
      vertex -8.09383 3.60589 -5
    endloop
  endfacet
  facet normal -0.178841 0.983878 0
    outer loop
      vertex -0.492456 5 -2.35
      vertex -0.492456 5 -5
      vertex -0.559188 4.98787 -2.35
    endloop
  endfacet
  facet normal -0.178841 0.983878 0
    outer loop
      vertex -0.559188 4.98787 0.349999
      vertex -0.492456 5 3
      vertex -0.492456 5 0.349999
    endloop
  endfacet
  facet normal -0.178832 0.98388 -2.36896e-07
    outer loop
      vertex -1.35 4.84413 -0.440811
      vertex -0.492456 5 3
      vertex -0.559188 4.98787 0.349999
    endloop
  endfacet
  facet normal -0.178838 0.983879 1.25119e-06
    outer loop
      vertex -0.492456 5 3
      vertex -1.35 4.84413 -0.440811
      vertex -7.36934 3.75 3
    endloop
  endfacet
  facet normal -0.178839 0.983878 0
    outer loop
      vertex -1.35 4.84413 -1.55919
      vertex -7.36934 3.75 3
      vertex -1.35 4.84413 -0.440811
    endloop
  endfacet
  facet normal -0.178832 0.98388 2.36896e-07
    outer loop
      vertex -0.492456 5 -5
      vertex -1.35 4.84413 -1.55919
      vertex -0.559188 4.98787 -2.35
    endloop
  endfacet
  facet normal -0.178838 0.983879 -1.25119e-06
    outer loop
      vertex -1.35 4.84413 -1.55919
      vertex -0.492456 5 -5
      vertex -7.36934 3.75 -5
    endloop
  endfacet
  facet normal -0.178839 0.983878 0
    outer loop
      vertex -1.35 4.84413 -1.55919
      vertex -7.36934 3.75 -5
      vertex -7.36934 3.75 3
    endloop
  endfacet
  facet normal -0.923872 0.382702 0
    outer loop
      vertex -10.6059 1.09383 -5
      vertex -10.3232 1.77629 3
      vertex -10.3232 1.77629 -5
    endloop
  endfacet
  facet normal -0.923872 0.382702 0
    outer loop
      vertex -10.3232 1.77629 3
      vertex -10.6059 1.09383 -5
      vertex -10.6059 1.09383 3
    endloop
  endfacet
  facet normal -0.178838 -0.983879 0
    outer loop
      vertex -7.36934 -3.75 -5
      vertex -0.492456 -5 3
      vertex -7.36934 -3.75 3
    endloop
  endfacet
  facet normal -0.178838 -0.983879 -0
    outer loop
      vertex -0.492456 -5 3
      vertex -7.36934 -3.75 -5
      vertex -0.492456 -5 -5
    endloop
  endfacet
  facet normal -0.555572 -0.831469 0
    outer loop
      vertex -9.39048 -2.91282 -5
      vertex -8.77629 -3.32321 3
      vertex -9.39048 -2.91282 3
    endloop
  endfacet
  facet normal -0.555572 -0.831469 -0
    outer loop
      vertex -8.77629 -3.32321 3
      vertex -9.39048 -2.91282 -5
      vertex -8.77629 -3.32321 -5
    endloop
  endfacet
  facet normal -0.923872 -0.382702 0
    outer loop
      vertex -10.3232 -1.77629 -5
      vertex -10.6059 -1.09383 3
      vertex -10.6059 -1.09383 -5
    endloop
  endfacet
  facet normal -0.923872 -0.382702 0
    outer loop
      vertex -10.6059 -1.09383 3
      vertex -10.3232 -1.77629 -5
      vertex -10.3232 -1.77629 3
    endloop
  endfacet
  facet normal 0.707107 -0.707107 0
    outer loop
      vertex 3.18731 -3.88375 3
      vertex 3.88375 -3.18731 -5
      vertex 3.88375 -3.18731 3
    endloop
  endfacet
  facet normal 0.707107 -0.707107 0
    outer loop
      vertex 3.88375 -3.18731 -5
      vertex 3.18731 -3.88375 3
      vertex 3.18731 -3.88375 -5
    endloop
  endfacet
  facet normal 0.382684 -0.923879 0
    outer loop
      vertex 1.45845 -4.80785 -5
      vertex 2.36839 -4.43094 3
      vertex 1.45845 -4.80785 3
    endloop
  endfacet
  facet normal 0.382684 -0.923879 0
    outer loop
      vertex 2.36839 -4.43094 3
      vertex 1.45845 -4.80785 -5
      vertex 2.36839 -4.43094 -5
    endloop
  endfacet
  facet normal 0.923879 -0.382684 0
    outer loop
      vertex 4.43094 -2.36839 3
      vertex 4.80785 -1.45845 -5
      vertex 4.80785 -1.45845 3
    endloop
  endfacet
  facet normal 0.923879 -0.382684 0
    outer loop
      vertex 4.80785 -1.45845 -5
      vertex 4.43094 -2.36839 3
      vertex 4.43094 -2.36839 -5
    endloop
  endfacet
  facet normal -0.707107 0.707107 0
    outer loop
      vertex -9.91282 2.39048 -5
      vertex -9.39048 2.91282 3
      vertex -9.39048 2.91282 -5
    endloop
  endfacet
  facet normal -0.707107 0.707107 0
    outer loop
      vertex -9.39048 2.91282 3
      vertex -9.91282 2.39048 -5
      vertex -9.91282 2.39048 3
    endloop
  endfacet
  facet normal -0.555572 0.831469 0
    outer loop
      vertex -8.77629 3.32321 -5
      vertex -9.39048 2.91282 3
      vertex -8.77629 3.32321 3
    endloop
  endfacet
  facet normal -0.555572 0.831469 0
    outer loop
      vertex -9.39048 2.91282 3
      vertex -8.77629 3.32321 -5
      vertex -9.39048 2.91282 -5
    endloop
  endfacet
  facet normal -0.980788 0.195078 0
    outer loop
      vertex -10.75 0.369342 -5
      vertex -10.6059 1.09383 3
      vertex -10.6059 1.09383 -5
    endloop
  endfacet
  facet normal -0.980788 0.195078 0
    outer loop
      vertex -10.6059 1.09383 3
      vertex -10.75 0.369342 -5
      vertex -10.75 0.369342 3
    endloop
  endfacet
  facet normal -0 0 1
    outer loop
      vertex 2.7 0.723462 3
      vertex 5 0.492456 3
      vertex 4.80785 1.45845 3
    endloop
  endfacet
  facet normal 0 0 1
    outer loop
      vertex 5 0.492456 3
      vertex 2.7 0.723462 3
      vertex 5 -0.492456 3
    endloop
  endfacet
  facet normal 0 0 1
    outer loop
      vertex 2.7 0.723462 3
      vertex 4.80785 1.45845 3
      vertex 4.43094 2.36839 3
    endloop
  endfacet
  facet normal 0 0 1
    outer loop
      vertex 2.7 -0.723462 3
      vertex 5 -0.492456 3
      vertex 2.7 0.723462 3
    endloop
  endfacet
  facet normal 0 0 1
    outer loop
      vertex 1.97654 1.97654 3
      vertex 4.43094 2.36839 3
      vertex 3.88375 3.18731 3
    endloop
  endfacet
  facet normal 0 0 1
    outer loop
      vertex 5 -0.492456 3
      vertex 2.7 -0.723462 3
      vertex 4.80785 -1.45845 3
    endloop
  endfacet
  facet normal 0 0 1
    outer loop
      vertex 1.97654 1.97654 3
      vertex 3.88375 3.18731 3
      vertex 3.18731 3.88375 3
    endloop
  endfacet
  facet normal 0 0 1
    outer loop
      vertex 4.80785 -1.45845 3
      vertex 2.7 -0.723462 3
      vertex 4.43094 -2.36839 3
    endloop
  endfacet
  facet normal -0 0 1
    outer loop
      vertex 1.97654 -1.97654 3
      vertex 4.43094 -2.36839 3
      vertex 2.7 -0.723462 3
    endloop
  endfacet
  facet normal 0 0 1
    outer loop
      vertex 1.58949 2.2 3
      vertex 3.18731 3.88375 3
      vertex 2.36839 4.43094 3
    endloop
  endfacet
  facet normal 0 0 1
    outer loop
      vertex 4.43094 2.36839 3
      vertex 1.97654 1.97654 3
      vertex 2.7 0.723462 3
    endloop
  endfacet
  facet normal 0 0 1
    outer loop
      vertex 3.18731 3.88375 3
      vertex 1.58949 2.2 3
      vertex 1.97654 1.97654 3
    endloop
  endfacet
  facet normal 0 0 1
    outer loop
      vertex 1.45845 4.80785 3
      vertex 1.58949 2.2 3
      vertex 2.36839 4.43094 3
    endloop
  endfacet
  facet normal 0 0 1
    outer loop
      vertex 0.492456 5 3
      vertex 1.58949 2.2 3
      vertex 1.45845 4.80785 3
    endloop
  endfacet
  facet normal -0 0 1
    outer loop
      vertex -0.492456 5 3
      vertex 1.58949 2.2 3
      vertex 0.492456 5 3
    endloop
  endfacet
  facet normal 0 0 1
    outer loop
      vertex -0.492456 5 3
      vertex -1.58949 2.2 3
      vertex 1.58949 2.2 3
    endloop
  endfacet
  facet normal 0 0 1
    outer loop
      vertex -0.492456 5 3
      vertex -1.97654 1.97654 3
      vertex -1.58949 2.2 3
    endloop
  endfacet
  facet normal -0 0 1
    outer loop
      vertex -7.36934 3.75 3
      vertex -1.97654 1.97654 3
      vertex -0.492456 5 3
    endloop
  endfacet
  facet normal 0 0 1
    outer loop
      vertex -2.7 0.723462 3
      vertex -7.36934 3.75 3
      vertex -2.7 -0.723462 3
    endloop
  endfacet
  facet normal 0 0 1
    outer loop
      vertex -1.97654 1.97654 3
      vertex -7.36934 3.75 3
      vertex -2.7 0.723462 3
    endloop
  endfacet
  facet normal 0 0 1
    outer loop
      vertex 4.43094 -2.36839 3
      vertex 1.97654 -1.97654 3
      vertex 3.88375 -3.18731 3
    endloop
  endfacet
  facet normal 0 0 1
    outer loop
      vertex 3.88375 -3.18731 3
      vertex 1.97654 -1.97654 3
      vertex 3.18731 -3.88375 3
    endloop
  endfacet
  facet normal 0 0 1
    outer loop
      vertex 3.18731 -3.88375 3
      vertex 1.97654 -1.97654 3
      vertex 2.36839 -4.43094 3
    endloop
  endfacet
  facet normal -0 0 1
    outer loop
      vertex 0.723462 -2.7 3
      vertex 2.36839 -4.43094 3
      vertex 1.97654 -1.97654 3
    endloop
  endfacet
  facet normal 0 0 1
    outer loop
      vertex 2.36839 -4.43094 3
      vertex 0.723462 -2.7 3
      vertex 1.45845 -4.80785 3
    endloop
  endfacet
  facet normal 0 0 1
    outer loop
      vertex 0.723462 -2.7 3
      vertex 0.492456 -5 3
      vertex 1.45845 -4.80785 3
    endloop
  endfacet
  facet normal 0 0 1
    outer loop
      vertex 0.723462 -2.7 3
      vertex -0.492456 -5 3
      vertex 0.492456 -5 3
    endloop
  endfacet
  facet normal -0 0 1
    outer loop
      vertex -0.723462 -2.7 3
      vertex -0.492456 -5 3
      vertex 0.723462 -2.7 3
    endloop
  endfacet
  facet normal 0 0 1
    outer loop
      vertex -1.97654 -1.97654 3
      vertex -0.492456 -5 3
      vertex -0.723462 -2.7 3
    endloop
  endfacet
  facet normal 0 0 1
    outer loop
      vertex -7.36934 -3.75 3
      vertex -1.97654 -1.97654 3
      vertex -2.7 -0.723462 3
    endloop
  endfacet
  facet normal 0 0 1
    outer loop
      vertex -7.36934 -3.75 3
      vertex -2.7 -0.723462 3
      vertex -7.36934 3.75 3
    endloop
  endfacet
  facet normal 0 0 1
    outer loop
      vertex -1.97654 -1.97654 3
      vertex -7.36934 -3.75 3
      vertex -0.492456 -5 3
    endloop
  endfacet
  facet normal -0 0 1
    outer loop
      vertex -8.09383 3.60589 3
      vertex -7.36934 -3.75 3
      vertex -7.36934 3.75 3
    endloop
  endfacet
  facet normal 0 0 1
    outer loop
      vertex -8.09383 3.60589 3
      vertex -8.09383 -3.60589 3
      vertex -7.36934 -3.75 3
    endloop
  endfacet
  facet normal -0 0 1
    outer loop
      vertex -8.77629 3.32321 3
      vertex -8.09383 -3.60589 3
      vertex -8.09383 3.60589 3
    endloop
  endfacet
  facet normal 0 0 1
    outer loop
      vertex -8.77629 3.32321 3
      vertex -8.77629 -3.32321 3
      vertex -8.09383 -3.60589 3
    endloop
  endfacet
  facet normal -0 0 1
    outer loop
      vertex -9.39048 2.91282 3
      vertex -8.77629 -3.32321 3
      vertex -8.77629 3.32321 3
    endloop
  endfacet
  facet normal 0 0 1
    outer loop
      vertex -9.39048 2.91282 3
      vertex -9.39048 -2.91282 3
      vertex -8.77629 -3.32321 3
    endloop
  endfacet
  facet normal -0 0 1
    outer loop
      vertex -9.91282 2.39048 3
      vertex -9.39048 -2.91282 3
      vertex -9.39048 2.91282 3
    endloop
  endfacet
  facet normal 0 0 1
    outer loop
      vertex -9.91282 2.39048 3
      vertex -9.91282 -2.39048 3
      vertex -9.39048 -2.91282 3
    endloop
  endfacet
  facet normal -0 0 1
    outer loop
      vertex -10.3232 1.77629 3
      vertex -9.91282 -2.39048 3
      vertex -9.91282 2.39048 3
    endloop
  endfacet
  facet normal 0 0 1
    outer loop
      vertex -10.3232 1.77629 3
      vertex -10.3232 -1.77629 3
      vertex -9.91282 -2.39048 3
    endloop
  endfacet
  facet normal -0 0 1
    outer loop
      vertex -10.6059 1.09383 3
      vertex -10.3232 -1.77629 3
      vertex -10.3232 1.77629 3
    endloop
  endfacet
  facet normal 0 0 1
    outer loop
      vertex -10.6059 1.09383 3
      vertex -10.6059 -1.09383 3
      vertex -10.3232 -1.77629 3
    endloop
  endfacet
  facet normal -0 0 1
    outer loop
      vertex -10.75 0.369342 3
      vertex -10.6059 -1.09383 3
      vertex -10.6059 1.09383 3
    endloop
  endfacet
  facet normal 0 0 1
    outer loop
      vertex -10.6059 -1.09383 3
      vertex -10.75 0.369342 3
      vertex -10.75 -0.369342 3
    endloop
  endfacet
  facet normal 1 -0 0
    outer loop
      vertex 5 -0.492456 3
      vertex 5 0.492456 -5
      vertex 5 0.492456 3
    endloop
  endfacet
  facet normal 1 0 0
    outer loop
      vertex 5 0.492456 -5
      vertex 5 -0.492456 3
      vertex 5 -0.492456 -5
    endloop
  endfacet
  facet normal 0.980785 -0.195092 0
    outer loop
      vertex 4.80785 -1.45845 3
      vertex 5 -0.492456 -5
      vertex 5 -0.492456 3
    endloop
  endfacet
  facet normal 0.980785 -0.195092 0
    outer loop
      vertex 5 -0.492456 -5
      vertex 4.80785 -1.45845 3
      vertex 4.80785 -1.45845 -5
    endloop
  endfacet
endsolid OpenSCAD_Model
